<?xml version="1.0" encoding="UTF-8" standalone="no"?>
<!DOCTYPE svg PUBLIC "-//W3C//DTD SVG 1.1//EN"
 "http://www.w3.org/Graphics/SVG/1.1/DTD/svg11.dtd">
<!-- Generated by graphviz version 14.1.3 (20260303.0454)
 -->
<!-- Pages: 1 -->
<svg width="341pt" height="297pt"
 viewBox="0.00 0.00 341.00 297.00" xmlns="http://www.w3.org/2000/svg" xmlns:xlink="http://www.w3.org/1999/xlink">
<g id="graph0" class="graph" transform="scale(1 1) rotate(0) translate(4 293.39)">
<polygon fill="#f5f0e6" stroke="none" points="-4,4 -4,-293.39 337,-293.39 337,4 -4,4"/>
<text xml:space="preserve" text-anchor="middle" x="166.5" y="-270.19" font-family="Crimson Pro" font-size="16.00">Einstein — House Dispositors</text>
<!-- 2 -->
<g id="node1" class="node">
<title>2</title>
<ellipse fill="#e8e0d4" stroke="#8b7355" stroke-width="1.5" cx="18" cy="-244.74" rx="18" ry="18"/>
<text xml:space="preserve" text-anchor="middle" x="18" y="-238.94" font-family="Crimson Pro" font-size="14.00">2</text>
</g>
<!-- 6 -->
<g id="node2" class="node">
<title>6</title>
<ellipse fill="#e8e0d4" stroke="#8b7355" stroke-width="1.5" cx="71" cy="-168.44" rx="18" ry="18"/>
<text xml:space="preserve" text-anchor="middle" x="71" y="-162.64" font-family="Crimson Pro" font-size="14.00">6</text>
</g>
<!-- 2&#45;&gt;6 -->
<g id="edge2" class="edge">
<title>2&#45;&gt;6</title>
<path fill="none" stroke="#9b8aa6" stroke-width="1.5" d="M28.22,-229.42C35.43,-219.31 45.27,-205.51 53.69,-193.7"/>
<polygon fill="#9b8aa6" stroke="#9b8aa6" stroke-width="1.5" points="56.36,-196 59.31,-185.83 50.66,-191.94 56.36,-196"/>
</g>
<!-- 8 -->
<g id="node8" class="node">
<title>8</title>
<ellipse fill="#e8e0d4" stroke="#8b7355" stroke-width="1.5" cx="99" cy="-94.3" rx="18" ry="18"/>
<text xml:space="preserve" text-anchor="middle" x="99" y="-88.5" font-family="Crimson Pro" font-size="14.00">8</text>
</g>
<!-- 6&#45;&gt;8 -->
<g id="edge6" class="edge">
<title>6&#45;&gt;8</title>
<path fill="none" stroke="#9b8aa6" stroke-width="1.5" d="M77.35,-151.07C80.55,-142.83 84.52,-132.61 88.18,-123.17"/>
<polygon fill="#9b8aa6" stroke="#9b8aa6" stroke-width="1.5" points="91.4,-124.56 91.75,-113.97 84.87,-122.03 91.4,-124.56"/>
</g>
<!-- 5 -->
<g id="node3" class="node">
<title>5</title>
<ellipse fill="#e8e0d4" stroke="#8b7355" stroke-width="1.5" cx="127" cy="-244.74" rx="18" ry="18"/>
<text xml:space="preserve" text-anchor="middle" x="127" y="-238.94" font-family="Crimson Pro" font-size="14.00">5</text>
</g>
<!-- 11 -->
<g id="node11" class="node">
<title>11</title>
<ellipse fill="#e8e0d4" stroke="#8b7355" stroke-width="1.5" cx="127" cy="-168.44" rx="20.15" ry="20.15"/>
<text xml:space="preserve" text-anchor="middle" x="127" y="-162.64" font-family="Crimson Pro" font-size="14.00">11</text>
</g>
<!-- 5&#45;&gt;11 -->
<g id="edge5" class="edge">
<title>5&#45;&gt;11</title>
<path fill="none" stroke="#9b8aa6" stroke-width="1.5" d="M127,-226.13C127,-218.7 127,-209.8 127,-201.28"/>
<polygon fill="#9b8aa6" stroke="#9b8aa6" stroke-width="1.5" points="130.5,-201.55 127,-191.55 123.5,-201.55 130.5,-201.55"/>
</g>
<!-- 3 -->
<g id="node4" class="node">
<title>3</title>
<ellipse fill="#e8e0d4" stroke="#8b7355" stroke-width="1.5" cx="153" cy="-94.3" rx="18" ry="18"/>
<text xml:space="preserve" text-anchor="middle" x="153" y="-88.5" font-family="Crimson Pro" font-size="14.00">3</text>
</g>
<!-- 10 -->
<g id="node10" class="node">
<title>10</title>
<ellipse fill="#d4af37" stroke="#8b6914" stroke-width="2.5" cx="207" cy="-20.15" rx="20.15" ry="20.15"/>
<text xml:space="preserve" text-anchor="middle" x="207" y="-14.35" font-family="Crimson Pro" font-size="14.00">10</text>
</g>
<!-- 3&#45;&gt;10 -->
<g id="edge3" class="edge">
<title>3&#45;&gt;10</title>
<path fill="none" stroke="#9b8aa6" stroke-width="1.5" d="M163.67,-79.04C170.47,-69.95 179.49,-57.91 187.53,-47.16"/>
<polygon fill="#9b8aa6" stroke="#9b8aa6" stroke-width="1.5" points="190.3,-49.31 193.49,-39.21 184.69,-45.11 190.3,-49.31"/>
</g>
<!-- 9 -->
<g id="node5" class="node">
<title>9</title>
<ellipse fill="#d4af37" stroke="#8b6914" stroke-width="2.5" cx="207" cy="-94.3" rx="18" ry="18"/>
<text xml:space="preserve" text-anchor="middle" x="207" y="-88.5" font-family="Crimson Pro" font-size="14.00">9</text>
</g>
<!-- 9&#45;&gt;10 -->
<g id="edge9" class="edge">
<title>9&#45;&gt;10</title>
<path fill="none" stroke="#7b6b8a" stroke-width="2" d="M207,-62.16C207,-59.52 207,-56.85 207,-54.2"/>
<polygon fill="#7b6b8a" stroke="#7b6b8a" stroke-width="2" points="203.5,-62.06 207,-72.06 210.5,-62.06 203.5,-62.06"/>
<polygon fill="#7b6b8a" stroke="#7b6b8a" stroke-width="2" points="210.5,-54.41 207,-44.41 203.5,-54.41 210.5,-54.41"/>
</g>
<!-- 1 -->
<g id="node6" class="node">
<title>1</title>
<ellipse fill="#e8e0d4" stroke="#8b7355" stroke-width="1.5" cx="72" cy="-244.74" rx="18" ry="18"/>
<text xml:space="preserve" text-anchor="middle" x="72" y="-238.94" font-family="Crimson Pro" font-size="14.00">1</text>
</g>
<!-- 1&#45;&gt;6 -->
<g id="edge1" class="edge">
<title>1&#45;&gt;6</title>
<path fill="none" stroke="#9b8aa6" stroke-width="1.5" d="M71.76,-226.13C71.66,-218.14 71.53,-208.46 71.4,-199.38"/>
<polygon fill="#9b8aa6" stroke="#9b8aa6" stroke-width="1.5" points="74.9,-199.41 71.27,-189.45 67.9,-199.5 74.9,-199.41"/>
</g>
<!-- 7 -->
<g id="node7" class="node">
<title>7</title>
<ellipse fill="#e8e0d4" stroke="#8b7355" stroke-width="1.5" cx="261" cy="-94.3" rx="18" ry="18"/>
<text xml:space="preserve" text-anchor="middle" x="261" y="-88.5" font-family="Crimson Pro" font-size="14.00">7</text>
</g>
<!-- 7&#45;&gt;10 -->
<g id="edge7" class="edge">
<title>7&#45;&gt;10</title>
<path fill="none" stroke="#9b8aa6" stroke-width="1.5" d="M250.33,-79.04C243.53,-69.95 234.51,-57.91 226.47,-47.16"/>
<polygon fill="#9b8aa6" stroke="#9b8aa6" stroke-width="1.5" points="229.31,-45.11 220.51,-39.21 223.7,-49.31 229.31,-45.11"/>
</g>
<!-- 8&#45;&gt;10 -->
<g id="edge8" class="edge">
<title>8&#45;&gt;10</title>
<path fill="none" stroke="#9b8aa6" stroke-width="1.5" d="M114.02,-83.26C131,-71.92 158.98,-53.23 179.83,-39.3"/>
<polygon fill="#9b8aa6" stroke="#9b8aa6" stroke-width="1.5" points="181.72,-42.25 188.09,-33.78 177.83,-36.43 181.72,-42.25"/>
</g>
<!-- 12 -->
<g id="node9" class="node">
<title>12</title>
<ellipse fill="#e8e0d4" stroke="#8b7355" stroke-width="1.5" cx="183" cy="-244.74" rx="20.15" ry="20.15"/>
<text xml:space="preserve" text-anchor="middle" x="183" y="-238.94" font-family="Crimson Pro" font-size="14.00">12</text>
</g>
<!-- 12&#45;&gt;11 -->
<g id="edge11" class="edge">
<title>12&#45;&gt;11</title>
<path fill="none" stroke="#9b8aa6" stroke-width="1.5" d="M171.12,-227.98C163.9,-218.4 154.5,-205.92 146.23,-194.96"/>
<polygon fill="#9b8aa6" stroke="#9b8aa6" stroke-width="1.5" points="149.23,-193.13 140.42,-187.25 143.64,-197.34 149.23,-193.13"/>
</g>
<!-- 11&#45;&gt;8 -->
<g id="edge10" class="edge">
<title>11&#45;&gt;8</title>
<path fill="none" stroke="#9b8aa6" stroke-width="1.5" d="M119.79,-148.86C116.71,-140.94 113.06,-131.53 109.69,-122.83"/>
<polygon fill="#9b8aa6" stroke="#9b8aa6" stroke-width="1.5" points="113.03,-121.78 106.15,-113.72 106.51,-124.31 113.03,-121.78"/>
</g>
<!-- 4 -->
<g id="node12" class="node">
<title>4</title>
<ellipse fill="#e8e0d4" stroke="#8b7355" stroke-width="1.5" cx="315" cy="-94.3" rx="18" ry="18"/>
<text xml:space="preserve" text-anchor="middle" x="315" y="-88.5" font-family="Crimson Pro" font-size="14.00">4</text>
</g>
<!-- 4&#45;&gt;10 -->
<g id="edge4" class="edge">
<title>4&#45;&gt;10</title>
<path fill="none" stroke="#9b8aa6" stroke-width="1.5" d="M299.98,-83.26C283,-71.92 255.02,-53.23 234.17,-39.3"/>
<polygon fill="#9b8aa6" stroke="#9b8aa6" stroke-width="1.5" points="236.17,-36.43 225.91,-33.78 232.28,-42.25 236.17,-36.43"/>
</g>
</g>
</svg>
