<?xml version="1.0" encoding="UTF-8" standalone="no"?>
<!DOCTYPE svg PUBLIC "-//W3C//DTD SVG 1.1//EN"
 "http://www.w3.org/Graphics/SVG/1.1/DTD/svg11.dtd">
<!-- Generated by graphviz version 14.1.3 (20260303.0454)
 -->
<!-- Pages: 1 -->
<svg width="260pt" height="219pt"
 viewBox="0.00 0.00 260.00 219.00" xmlns="http://www.w3.org/2000/svg" xmlns:xlink="http://www.w3.org/1999/xlink">
<g id="graph0" class="graph" transform="scale(1 1) rotate(0) translate(4 215.14)">
<polygon fill="#f5f0e6" stroke="none" points="-4,4 -4,-215.14 255.5,-215.14 255.5,4 -4,4"/>
<text xml:space="preserve" text-anchor="middle" x="125.75" y="-191.94" font-family="Crimson Pro" font-size="16.00">Einstein — Planetary Dispositors</text>
<!-- Mercury -->
<g id="node1" class="node">
<title>Mercury</title>
<ellipse fill="#e8e0d4" stroke="#8b7355" stroke-width="1.5" cx="41.25" cy="-166.98" rx="18" ry="18"/>
<text xml:space="preserve" text-anchor="middle" x="41.25" y="-162.31" font-family="Crimson Pro" font-size="14.00">☿</text>
</g>
<!-- Mars -->
<g id="node2" class="node">
<title>Mars</title>
<ellipse fill="#d4af37" stroke="#8b6914" stroke-width="2.5" cx="97.25" cy="-91.66" rx="19.66" ry="19.66"/>
<text xml:space="preserve" text-anchor="middle" x="97.25" y="-85.86" font-family="Crimson Pro" font-size="14.00">♂</text>
</g>
<!-- Mercury&#45;&gt;Mars -->
<g id="edge3" class="edge">
<title>Mercury&#45;&gt;Mars</title>
<path fill="none" stroke="#9b8aa6" stroke-width="1.5" d="M52.05,-151.85C59.37,-142.25 69.26,-129.3 77.92,-117.96"/>
<polygon fill="#9b8aa6" stroke="#9b8aa6" stroke-width="1.5" points="80.46,-120.41 83.75,-110.34 74.9,-116.16 80.46,-120.41"/>
</g>
<!-- Saturn -->
<g id="node3" class="node">
<title>Saturn</title>
<ellipse fill="#d4af37" stroke="#8b6914" stroke-width="2.5" cx="125.25" cy="-18" rx="18" ry="18"/>
<text xml:space="preserve" text-anchor="middle" x="125.25" y="-13.32" font-family="Crimson Pro" font-size="14.00">♄</text>
</g>
<!-- Mars&#45;&gt;Saturn -->
<g id="edge5" class="edge">
<title>Mars&#45;&gt;Saturn</title>
<path fill="none" stroke="#7b6b8a" stroke-width="2" d="M109.09,-60.35C110.74,-56.12 112.44,-51.79 114.08,-47.6"/>
<polygon fill="#7b6b8a" stroke="#7b6b8a" stroke-width="2" points="105.94,-58.8 105.56,-69.39 112.46,-61.35 105.94,-58.8"/>
<polygon fill="#7b6b8a" stroke="#7b6b8a" stroke-width="2" points="117.25,-49.08 117.63,-38.5 110.73,-46.54 117.25,-49.08"/>
</g>
<!-- Sun -->
<g id="node4" class="node">
<title>Sun</title>
<ellipse fill="#e8e0d4" stroke="#8b7355" stroke-width="1.5" cx="154.25" cy="-166.98" rx="19.66" ry="19.66"/>
<text xml:space="preserve" text-anchor="middle" x="154.25" y="-161.18" font-family="Crimson Pro" font-size="14.00">☉</text>
</g>
<!-- Jupiter -->
<g id="node5" class="node">
<title>Jupiter</title>
<ellipse fill="#e8e0d4" stroke="#8b7355" stroke-width="1.5" cx="154.25" cy="-91.66" rx="18" ry="18"/>
<text xml:space="preserve" text-anchor="middle" x="154.25" y="-86.99" font-family="Crimson Pro" font-size="14.00">♃</text>
</g>
<!-- Sun&#45;&gt;Jupiter -->
<g id="edge1" class="edge">
<title>Sun&#45;&gt;Jupiter</title>
<path fill="none" stroke="#9b8aa6" stroke-width="1.5" d="M154.25,-146.72C154.25,-139.17 154.25,-130.33 154.25,-122.02"/>
<polygon fill="#9b8aa6" stroke="#9b8aa6" stroke-width="1.5" points="157.75,-122.31 154.25,-112.31 150.75,-122.31 157.75,-122.31"/>
</g>
<!-- Jupiter&#45;&gt;Saturn -->
<g id="edge6" class="edge">
<title>Jupiter&#45;&gt;Saturn</title>
<path fill="none" stroke="#9b8aa6" stroke-width="1.5" d="M147.67,-74.4C144.4,-66.33 140.36,-56.34 136.62,-47.09"/>
<polygon fill="#9b8aa6" stroke="#9b8aa6" stroke-width="1.5" points="139.95,-46.01 132.96,-38.05 133.47,-48.63 139.95,-46.01"/>
</g>
<!-- Moon -->
<g id="node6" class="node">
<title>Moon</title>
<ellipse fill="#e8e0d4" stroke="#8b7355" stroke-width="1.5" cx="210.25" cy="-166.98" rx="18" ry="18"/>
<text xml:space="preserve" text-anchor="middle" x="210.25" y="-162.31" font-family="Crimson Pro" font-size="14.00">☽</text>
</g>
<!-- Moon&#45;&gt;Jupiter -->
<g id="edge2" class="edge">
<title>Moon&#45;&gt;Jupiter</title>
<path fill="none" stroke="#9b8aa6" stroke-width="1.5" d="M199.45,-151.85C191.78,-141.8 181.3,-128.08 172.36,-116.38"/>
<polygon fill="#9b8aa6" stroke="#9b8aa6" stroke-width="1.5" points="175.24,-114.38 166.39,-108.56 169.68,-118.63 175.24,-114.38"/>
</g>
<!-- Venus -->
<g id="node7" class="node">
<title>Venus</title>
<ellipse fill="#e8e0d4" stroke="#8b7355" stroke-width="1.5" cx="97.25" cy="-166.98" rx="19.66" ry="19.66"/>
<text xml:space="preserve" text-anchor="middle" x="97.25" y="-161.18" font-family="Crimson Pro" font-size="14.00">♀</text>
</g>
<!-- Venus&#45;&gt;Mars -->
<g id="edge4" class="edge">
<title>Venus&#45;&gt;Mars</title>
<path fill="none" stroke="#9b8aa6" stroke-width="1.5" d="M97.25,-146.72C97.25,-139.98 97.25,-132.21 97.25,-124.71"/>
<polygon fill="#9b8aa6" stroke="#9b8aa6" stroke-width="1.5" points="100.75,-124.83 97.25,-114.83 93.75,-124.83 100.75,-124.83"/>
</g>
</g>
</svg>
