<?xml version="1.0" encoding="UTF-8" standalone="no"?>
<!DOCTYPE svg PUBLIC "-//W3C//DTD SVG 1.1//EN"
 "http://www.w3.org/Graphics/SVG/1.1/DTD/svg11.dtd">
<!-- Generated by graphviz version 14.1.3 (20260303.0454)
 -->
<!-- Pages: 1 -->
<svg width="260pt" height="297pt"
 viewBox="0.00 0.00 260.00 297.00" xmlns="http://www.w3.org/2000/svg" xmlns:xlink="http://www.w3.org/1999/xlink">
<g id="graph0" class="graph" transform="scale(1 1) rotate(0) translate(4 293.39)">
<polygon fill="#f5f0e6" stroke="none" points="-4,4 -4,-293.39 256,-293.39 256,4 -4,4"/>
<text xml:space="preserve" text-anchor="middle" x="126" y="-270.19" font-family="Crimson Pro" font-size="16.00">Einstein — House Dispositors</text>
<!-- 10 -->
<g id="node1" class="node">
<title>10</title>
<ellipse fill="#d4af37" stroke="#8b6914" stroke-width="2.5" cx="126" cy="-20.15" rx="20.15" ry="20.15"/>
<text xml:space="preserve" text-anchor="middle" x="126" y="-14.35" font-family="Crimson Pro" font-size="14.00">10</text>
</g>
<!-- 4 -->
<g id="node2" class="node">
<title>4</title>
<ellipse fill="#e8e0d4" stroke="#8b7355" stroke-width="1.5" cx="18" cy="-94.3" rx="18" ry="18"/>
<text xml:space="preserve" text-anchor="middle" x="18" y="-88.5" font-family="Crimson Pro" font-size="14.00">4</text>
</g>
<!-- 4&#45;&gt;10 -->
<g id="edge4" class="edge">
<title>4&#45;&gt;10</title>
<path fill="none" stroke="#9b8aa6" stroke-width="1.5" d="M33.02,-83.26C50,-71.92 77.98,-53.23 98.83,-39.3"/>
<polygon fill="#9b8aa6" stroke="#9b8aa6" stroke-width="1.5" points="100.72,-42.25 107.09,-33.78 96.83,-36.43 100.72,-42.25"/>
</g>
<!-- 3 -->
<g id="node3" class="node">
<title>3</title>
<ellipse fill="#e8e0d4" stroke="#8b7355" stroke-width="1.5" cx="72" cy="-94.3" rx="18" ry="18"/>
<text xml:space="preserve" text-anchor="middle" x="72" y="-88.5" font-family="Crimson Pro" font-size="14.00">3</text>
</g>
<!-- 3&#45;&gt;10 -->
<g id="edge3" class="edge">
<title>3&#45;&gt;10</title>
<path fill="none" stroke="#9b8aa6" stroke-width="1.5" d="M82.67,-79.04C89.47,-69.95 98.49,-57.91 106.53,-47.16"/>
<polygon fill="#9b8aa6" stroke="#9b8aa6" stroke-width="1.5" points="109.3,-49.31 112.49,-39.21 103.69,-45.11 109.3,-49.31"/>
</g>
<!-- 6 -->
<g id="node4" class="node">
<title>6</title>
<ellipse fill="#e8e0d4" stroke="#8b7355" stroke-width="1.5" cx="98" cy="-168.44" rx="18" ry="18"/>
<text xml:space="preserve" text-anchor="middle" x="98" y="-162.64" font-family="Crimson Pro" font-size="14.00">6</text>
</g>
<!-- 8 -->
<g id="node6" class="node">
<title>8</title>
<ellipse fill="#e8e0d4" stroke="#8b7355" stroke-width="1.5" cx="126" cy="-94.3" rx="18" ry="18"/>
<text xml:space="preserve" text-anchor="middle" x="126" y="-88.5" font-family="Crimson Pro" font-size="14.00">8</text>
</g>
<!-- 6&#45;&gt;8 -->
<g id="edge6" class="edge">
<title>6&#45;&gt;8</title>
<path fill="none" stroke="#9b8aa6" stroke-width="1.5" d="M104.35,-151.07C107.55,-142.83 111.52,-132.61 115.18,-123.17"/>
<polygon fill="#9b8aa6" stroke="#9b8aa6" stroke-width="1.5" points="118.4,-124.56 118.75,-113.97 111.87,-122.03 118.4,-124.56"/>
</g>
<!-- 2 -->
<g id="node5" class="node">
<title>2</title>
<ellipse fill="#e8e0d4" stroke="#8b7355" stroke-width="1.5" cx="44" cy="-244.74" rx="18" ry="18"/>
<text xml:space="preserve" text-anchor="middle" x="44" y="-238.94" font-family="Crimson Pro" font-size="14.00">2</text>
</g>
<!-- 2&#45;&gt;6 -->
<g id="edge2" class="edge">
<title>2&#45;&gt;6</title>
<path fill="none" stroke="#9b8aa6" stroke-width="1.5" d="M54.41,-229.42C61.81,-219.24 71.91,-205.33 80.53,-193.48"/>
<polygon fill="#9b8aa6" stroke="#9b8aa6" stroke-width="1.5" points="83.24,-195.71 86.29,-185.56 77.57,-191.59 83.24,-195.71"/>
</g>
<!-- 8&#45;&gt;10 -->
<g id="edge8" class="edge">
<title>8&#45;&gt;10</title>
<path fill="none" stroke="#9b8aa6" stroke-width="1.5" d="M126,-75.83C126,-69.12 126,-61.24 126,-53.57"/>
<polygon fill="#9b8aa6" stroke="#9b8aa6" stroke-width="1.5" points="129.5,-53.79 126,-43.79 122.5,-53.79 129.5,-53.79"/>
</g>
<!-- 11 -->
<g id="node7" class="node">
<title>11</title>
<ellipse fill="#e8e0d4" stroke="#8b7355" stroke-width="1.5" cx="154" cy="-168.44" rx="20.15" ry="20.15"/>
<text xml:space="preserve" text-anchor="middle" x="154" y="-162.64" font-family="Crimson Pro" font-size="14.00">11</text>
</g>
<!-- 11&#45;&gt;8 -->
<g id="edge10" class="edge">
<title>11&#45;&gt;8</title>
<path fill="none" stroke="#9b8aa6" stroke-width="1.5" d="M146.79,-148.86C143.71,-140.94 140.06,-131.53 136.69,-122.83"/>
<polygon fill="#9b8aa6" stroke="#9b8aa6" stroke-width="1.5" points="140.03,-121.78 133.15,-113.72 133.51,-124.31 140.03,-121.78"/>
</g>
<!-- 12 -->
<g id="node8" class="node">
<title>12</title>
<ellipse fill="#e8e0d4" stroke="#8b7355" stroke-width="1.5" cx="154" cy="-244.74" rx="20.15" ry="20.15"/>
<text xml:space="preserve" text-anchor="middle" x="154" y="-238.94" font-family="Crimson Pro" font-size="14.00">12</text>
</g>
<!-- 12&#45;&gt;11 -->
<g id="edge11" class="edge">
<title>12&#45;&gt;11</title>
<path fill="none" stroke="#9b8aa6" stroke-width="1.5" d="M154,-224.22C154,-217.2 154,-209.07 154,-201.27"/>
<polygon fill="#9b8aa6" stroke="#9b8aa6" stroke-width="1.5" points="157.5,-201.36 154,-191.36 150.5,-201.36 157.5,-201.36"/>
</g>
<!-- 1 -->
<g id="node9" class="node">
<title>1</title>
<ellipse fill="#e8e0d4" stroke="#8b7355" stroke-width="1.5" cx="98" cy="-244.74" rx="18" ry="18"/>
<text xml:space="preserve" text-anchor="middle" x="98" y="-238.94" font-family="Crimson Pro" font-size="14.00">1</text>
</g>
<!-- 1&#45;&gt;6 -->
<g id="edge1" class="edge">
<title>1&#45;&gt;6</title>
<path fill="none" stroke="#9b8aa6" stroke-width="1.5" d="M98,-226.13C98,-218.14 98,-208.46 98,-199.38"/>
<polygon fill="#9b8aa6" stroke="#9b8aa6" stroke-width="1.5" points="101.5,-199.45 98,-189.45 94.5,-199.45 101.5,-199.45"/>
</g>
<!-- 5 -->
<g id="node10" class="node">
<title>5</title>
<ellipse fill="#e8e0d4" stroke="#8b7355" stroke-width="1.5" cx="210" cy="-244.74" rx="18" ry="18"/>
<text xml:space="preserve" text-anchor="middle" x="210" y="-238.94" font-family="Crimson Pro" font-size="14.00">5</text>
</g>
<!-- 5&#45;&gt;11 -->
<g id="edge5" class="edge">
<title>5&#45;&gt;11</title>
<path fill="none" stroke="#9b8aa6" stroke-width="1.5" d="M199.2,-229.42C191.83,-219.63 181.85,-206.4 173.15,-194.85"/>
<polygon fill="#9b8aa6" stroke="#9b8aa6" stroke-width="1.5" points="176.11,-192.96 167.29,-187.08 170.52,-197.17 176.11,-192.96"/>
</g>
<!-- 9 -->
<g id="node11" class="node">
<title>9</title>
<ellipse fill="#d4af37" stroke="#8b6914" stroke-width="2.5" cx="180" cy="-94.3" rx="18" ry="18"/>
<text xml:space="preserve" text-anchor="middle" x="180" y="-88.5" font-family="Crimson Pro" font-size="14.00">9</text>
</g>
<!-- 9&#45;&gt;10 -->
<g id="edge9" class="edge">
<title>9&#45;&gt;10</title>
<path fill="none" stroke="#7b6b8a" stroke-width="2" d="M161.3,-68.31C156.29,-61.61 150.85,-54.35 145.78,-47.58"/>
<polygon fill="#7b6b8a" stroke="#7b6b8a" stroke-width="2" points="158.46,-70.36 167.26,-76.27 164.07,-66.17 158.46,-70.36"/>
<polygon fill="#7b6b8a" stroke="#7b6b8a" stroke-width="2" points="148.84,-45.82 140.04,-39.91 143.23,-50.02 148.84,-45.82"/>
</g>
<!-- 7 -->
<g id="node12" class="node">
<title>7</title>
<ellipse fill="#e8e0d4" stroke="#8b7355" stroke-width="1.5" cx="234" cy="-94.3" rx="18" ry="18"/>
<text xml:space="preserve" text-anchor="middle" x="234" y="-88.5" font-family="Crimson Pro" font-size="14.00">7</text>
</g>
<!-- 7&#45;&gt;10 -->
<g id="edge7" class="edge">
<title>7&#45;&gt;10</title>
<path fill="none" stroke="#9b8aa6" stroke-width="1.5" d="M218.98,-83.26C202,-71.92 174.02,-53.23 153.17,-39.3"/>
<polygon fill="#9b8aa6" stroke="#9b8aa6" stroke-width="1.5" points="155.17,-36.43 144.91,-33.78 151.28,-42.25 155.17,-36.43"/>
</g>
</g>
</svg>
