<?xml version="1.0" encoding="UTF-8" standalone="no"?>
<!DOCTYPE svg PUBLIC "-//W3C//DTD SVG 1.1//EN"
 "http://www.w3.org/Graphics/SVG/1.1/DTD/svg11.dtd">
<!-- Generated by graphviz version 14.1.3 (20260303.0454)
 -->
<!-- Pages: 1 -->
<svg width="260pt" height="219pt"
 viewBox="0.00 0.00 260.00 219.00" xmlns="http://www.w3.org/2000/svg" xmlns:xlink="http://www.w3.org/1999/xlink">
<g id="graph0" class="graph" transform="scale(1 1) rotate(0) translate(4 215.14)">
<polygon fill="#f5f0e6" stroke="none" points="-4,4 -4,-215.14 255.5,-215.14 255.5,4 -4,4"/>
<text xml:space="preserve" text-anchor="middle" x="125.75" y="-191.94" font-family="Crimson Pro" font-size="16.00">Einstein — Planetary Dispositors</text>
<!-- Mars -->
<g id="node1" class="node">
<title>Mars</title>
<ellipse fill="#d4af37" stroke="#8b6914" stroke-width="2.5" cx="153.25" cy="-91.66" rx="19.66" ry="19.66"/>
<text xml:space="preserve" text-anchor="middle" x="153.25" y="-85.86" font-family="Crimson Pro" font-size="14.00">♂</text>
</g>
<!-- Saturn -->
<g id="node7" class="node">
<title>Saturn</title>
<ellipse fill="#d4af37" stroke="#8b6914" stroke-width="2.5" cx="125.25" cy="-18" rx="18" ry="18"/>
<text xml:space="preserve" text-anchor="middle" x="125.25" y="-13.32" font-family="Crimson Pro" font-size="14.00">♄</text>
</g>
<!-- Mars&#45;&gt;Saturn -->
<g id="edge5" class="edge">
<title>Mars&#45;&gt;Saturn</title>
<path fill="none" stroke="#7b6b8a" stroke-width="2" d="M141.41,-60.35C139.76,-56.12 138.06,-51.79 136.42,-47.6"/>
<polygon fill="#7b6b8a" stroke="#7b6b8a" stroke-width="2" points="138.04,-61.35 144.94,-69.39 144.56,-58.8 138.04,-61.35"/>
<polygon fill="#7b6b8a" stroke="#7b6b8a" stroke-width="2" points="139.77,-46.54 132.87,-38.5 133.25,-49.08 139.77,-46.54"/>
</g>
<!-- Mercury -->
<g id="node2" class="node">
<title>Mercury</title>
<ellipse fill="#e8e0d4" stroke="#8b7355" stroke-width="1.5" cx="153.25" cy="-166.98" rx="18" ry="18"/>
<text xml:space="preserve" text-anchor="middle" x="153.25" y="-162.31" font-family="Crimson Pro" font-size="14.00">☿</text>
</g>
<!-- Mercury&#45;&gt;Mars -->
<g id="edge3" class="edge">
<title>Mercury&#45;&gt;Mars</title>
<path fill="none" stroke="#9b8aa6" stroke-width="1.5" d="M153.25,-148.23C153.25,-141.11 153.25,-132.68 153.25,-124.57"/>
<polygon fill="#9b8aa6" stroke="#9b8aa6" stroke-width="1.5" points="156.75,-124.58 153.25,-114.58 149.75,-124.58 156.75,-124.58"/>
</g>
<!-- Sun -->
<g id="node3" class="node">
<title>Sun</title>
<ellipse fill="#e8e0d4" stroke="#8b7355" stroke-width="1.5" cx="42.25" cy="-166.98" rx="19.66" ry="19.66"/>
<text xml:space="preserve" text-anchor="middle" x="42.25" y="-161.18" font-family="Crimson Pro" font-size="14.00">☉</text>
</g>
<!-- Jupiter -->
<g id="node6" class="node">
<title>Jupiter</title>
<ellipse fill="#e8e0d4" stroke="#8b7355" stroke-width="1.5" cx="97.25" cy="-91.66" rx="18" ry="18"/>
<text xml:space="preserve" text-anchor="middle" x="97.25" y="-86.99" font-family="Crimson Pro" font-size="14.00">♃</text>
</g>
<!-- Sun&#45;&gt;Jupiter -->
<g id="edge1" class="edge">
<title>Sun&#45;&gt;Jupiter</title>
<path fill="none" stroke="#9b8aa6" stroke-width="1.5" d="M53.91,-150.43C61.35,-140.52 71.13,-127.48 79.52,-116.3"/>
<polygon fill="#9b8aa6" stroke="#9b8aa6" stroke-width="1.5" points="82.16,-118.62 85.36,-108.52 76.56,-114.42 82.16,-118.62"/>
</g>
<!-- Venus -->
<g id="node4" class="node">
<title>Venus</title>
<ellipse fill="#e8e0d4" stroke="#8b7355" stroke-width="1.5" cx="209.25" cy="-166.98" rx="19.66" ry="19.66"/>
<text xml:space="preserve" text-anchor="middle" x="209.25" y="-161.18" font-family="Crimson Pro" font-size="14.00">♀</text>
</g>
<!-- Venus&#45;&gt;Mars -->
<g id="edge4" class="edge">
<title>Venus&#45;&gt;Mars</title>
<path fill="none" stroke="#9b8aa6" stroke-width="1.5" d="M197.37,-150.43C190.22,-141.07 180.94,-128.91 172.73,-118.17"/>
<polygon fill="#9b8aa6" stroke="#9b8aa6" stroke-width="1.5" points="175.53,-116.07 166.68,-110.24 169.97,-120.32 175.53,-116.07"/>
</g>
<!-- Moon -->
<g id="node5" class="node">
<title>Moon</title>
<ellipse fill="#e8e0d4" stroke="#8b7355" stroke-width="1.5" cx="98.25" cy="-166.98" rx="18" ry="18"/>
<text xml:space="preserve" text-anchor="middle" x="98.25" y="-162.31" font-family="Crimson Pro" font-size="14.00">☽</text>
</g>
<!-- Moon&#45;&gt;Jupiter -->
<g id="edge2" class="edge">
<title>Moon&#45;&gt;Jupiter</title>
<path fill="none" stroke="#9b8aa6" stroke-width="1.5" d="M98.01,-148.61C97.91,-140.72 97.78,-131.17 97.65,-122.21"/>
<polygon fill="#9b8aa6" stroke="#9b8aa6" stroke-width="1.5" points="101.16,-122.39 97.52,-112.44 94.16,-122.48 101.16,-122.39"/>
</g>
<!-- Jupiter&#45;&gt;Saturn -->
<g id="edge6" class="edge">
<title>Jupiter&#45;&gt;Saturn</title>
<path fill="none" stroke="#9b8aa6" stroke-width="1.5" d="M103.6,-74.4C106.76,-66.33 110.66,-56.34 114.28,-47.09"/>
<polygon fill="#9b8aa6" stroke="#9b8aa6" stroke-width="1.5" points="117.42,-48.65 117.8,-38.06 110.9,-46.1 117.42,-48.65"/>
</g>
</g>
</svg>
