<svg xmlns="http://www.w3.org/2000/svg" width="16" height="16" viewBox="11.03 -2.197 30.85 30.85"><path style="fill:currentColor;stroke:none;fill-rule:evenodd" d="m 16.271618,8.7312498 c 0.224218,0.7305932 0.348787,1.4865442 0.382405,2.2489582 h -1.62574 c -0.178028,-0.681916 -0.800344,-1.1911416 -1.535309,-1.1911416 -0.872044,0 -1.587499,0.7159636 -1.587499,1.5880166 0,0.872051 0.715455,1.585949 1.587499,1.585949 0.734881,0 1.357199,-0.507713 1.535309,-1.189074 h 1.62574 c -0.03362,0.762414 -0.158187,1.518365 -0.382405,2.248958 h 1.5875 c -0.224221,-0.730593 -0.34879,-1.486544 -0.382408,-2.248958 h 2.087729 c -0.03362,0.762414 -0.158186,1.518365 -0.382404,2.248958 h 1.587499 c -0.224221,-0.730593 -0.348789,-1.486544 -0.382407,-2.248958 h 2.087729 c -0.03362,0.762414 -0.158186,1.518365 -0.382405,2.248958 h 1.5875 c -0.224221,-0.730593 -0.34879,-1.486544 -0.382407,-2.248958 h 2.684076 c 0.144624,0.554712 0.583462,0.99287 1.13843,1.137398 v 4.815727 h 12.7 v -4.815727 c 0.681797,-0.177672 1.191141,-0.798359 1.191141,-1.533239 0,-0.872051 -0.715965,-1.5880171 -1.588016,-1.5880171 -0.872053,0 -1.588016,0.7159661 -1.588016,1.5880171 0,0.734964 0.509225,1.355649 1.191141,1.533239 v 4.021977 h -5.144905 c 0.03362,-0.762415 0.158184,-1.518366 0.382405,-2.248959 h -1.5875 c 0.224221,0.730593 0.34879,1.486544 0.382405,2.248959 H 27.9138 v -4.021977 c 0.681797,-0.177672 1.191141,-0.798359 1.191141,-1.533239 0,-0.872051 -0.715965,-1.5880171 -1.588016,-1.5880171 -0.73466,0 -1.356468,0.5086161 -1.534789,1.1901081 h -2.684592 c 0.03362,-0.762414 0.158186,-1.518365 0.382407,-2.2489582 h -1.5875 c 0.224219,0.7305932 0.348787,1.4865442 0.382405,2.2489582 h -2.087729 c 0.03362,-0.762414 0.158186,-1.518365 0.382407,-2.2489582 h -1.587499 c 0.224218,0.7305932 0.348786,1.4865442 0.382404,2.2489582 H 17.47671 c 0.03362,-0.762414 0.158187,-1.518365 0.382408,-2.2489582 z M 13.492974,10.5823 c 0.44308,0 0.795301,0.351707 0.795301,0.794783 0,0.443077 -0.352221,0.792717 -0.795301,0.792717 -0.443074,0 -0.792715,-0.34964 -0.792715,-0.792717 0,-0.443076 0.349641,-0.794784 0.792715,-0.794783 z m 14.023951,5.29e-4 c 0.443077,0 0.794785,0.352224 0.794785,0.7953 0,0.443077 -0.351708,0.792717 -0.794785,0.792717 -0.443076,0 -0.793234,-0.34964 -0.793234,-0.792717 0,-0.443076 0.350158,-0.7953 0.793234,-0.7953 z m 11.90625,0 c 0.443077,0 0.794785,0.352224 0.794785,0.7953 0,0.443077 -0.351708,0.792717 -0.794785,0.792717 -0.443076,0 -0.793234,-0.34964 -0.793234,-0.792717 0,-0.443076 0.350158,-0.7953 0.793234,-0.7953 z"/></svg>
