<?xml version="1.0" encoding="UTF-8" standalone="no"?>
<svg
   xmlns:dc="http://purl.org/dc/elements/1.1/"
   xmlns:cc="http://creativecommons.org/ns#"
   xmlns:rdf="http://www.w3.org/1999/02/22-rdf-syntax-ns#"
   xmlns:svg="http://www.w3.org/2000/svg"
   xmlns="http://www.w3.org/2000/svg"
   xmlns:sodipodi="http://sodipodi.sourceforge.net/DTD/sodipodi-0.dtd"
   xmlns:inkscape="http://www.inkscape.org/namespaces/inkscape"
   width="200"
   height="100"
   viewBox="0 0 52.916665 26.458334"
   version="1.1"
   id="svg8"
   inkscape:version="1.0.2-2 (e86c870879, 2021-01-15)"
   sodipodi:docname="03.svg">
  <defs
     id="defs2" />
  <sodipodi:namedview
     id="base"
     pagecolor="#ffffff"
     bordercolor="#666666"
     borderopacity="1.0"
     inkscape:pageopacity="0.0"
     inkscape:pageshadow="2"
     inkscape:zoom="2.8284272"
     inkscape:cx="156.5325"
     inkscape:cy="81.524236"
     inkscape:document-units="px"
     inkscape:current-layer="layer1"
     inkscape:document-rotation="0"
     showgrid="false"
     units="px"
     inkscape:snap-intersection-paths="false"
     inkscape:snap-midpoints="true"
     inkscape:snap-smooth-nodes="false"
     showguides="true"
     inkscape:guide-bbox="true"
     inkscape:snap-bbox="false"
     inkscape:snap-object-midpoints="true"
     inkscape:snap-global="false"
     inkscape:snap-nodes="true"
     inkscape:object-paths="false"
     inkscape:window-width="1366"
     inkscape:window-height="705"
     inkscape:window-x="-8"
     inkscape:window-y="-8"
     inkscape:window-maximized="1"
     inkscape:bbox-nodes="true"
     inkscape:object-nodes="true"
     inkscape:lockguides="false"
     inkscape:snap-bbox-edge-midpoints="true"
     inkscape:snap-center="false"
     inkscape:snap-others="true" />
  <metadata
     id="metadata5">
    <rdf:RDF>
      <cc:Work
         rdf:about="">
        <dc:format>image/svg+xml</dc:format>
        <dc:type
           rdf:resource="http://purl.org/dc/dcmitype/StillImage" />
        <dc:title></dc:title>
      </cc:Work>
    </rdf:RDF>
  </metadata>
  <g
     inkscape:label="Слой 1"
     inkscape:groupmode="layer"
     id="layer1">
    <path
       id="path187"
       style="color:#000000;font-style:normal;font-variant:normal;font-weight:normal;font-stretch:normal;font-size:medium;line-height:normal;font-family:sans-serif;font-variant-ligatures:normal;font-variant-position:normal;font-variant-caps:normal;font-variant-numeric:normal;font-variant-alternates:normal;font-variant-east-asian:normal;font-feature-settings:normal;font-variation-settings:normal;text-indent:0;text-align:start;text-decoration:none;text-decoration-line:none;text-decoration-style:solid;text-decoration-color:#000000;letter-spacing:normal;word-spacing:normal;text-transform:none;writing-mode:lr-tb;direction:ltr;text-orientation:mixed;dominant-baseline:auto;baseline-shift:baseline;text-anchor:start;white-space:normal;shape-padding:0;shape-margin:0;inline-size:0;clip-rule:nonzero;display:inline;overflow:visible;visibility:visible;isolation:auto;mix-blend-mode:normal;color-interpolation:sRGB;color-interpolation-filters:linearRGB;solid-color:#000000;solid-opacity:1;vector-effect:none;fill:#000000;fill-opacity:1;fill-rule:evenodd;stroke:none;stroke-width:1;stroke-linecap:butt;stroke-linejoin:miter;stroke-miterlimit:4;stroke-dasharray:none;stroke-dashoffset:0;stroke-opacity:1;color-rendering:auto;image-rendering:auto;shape-rendering:auto;text-rendering:auto;enable-background:accumulate;stop-color:#000000"
       d="m 20.108849,6.8791666 c -0.872048,0 -1.588015,0.715965 -1.588015,1.588016 0,0.872051 0.715967,1.5859504 1.588015,1.5859504 0.372949,0 0.71654,-0.1311444 0.988571,-0.3488164 l 4.699971,3.5253664 -4.699971,3.525367 c -0.272031,-0.218081 -0.615622,-0.349333 -0.988571,-0.349333 -0.872048,0 -1.588015,0.715448 -1.588015,1.5875 0,0.872051 0.715967,1.58595 1.588015,1.58595 0.872051,0 1.588019,-0.713899 1.588019,-1.58595 0,-0.213768 -0.04365,-0.417863 -0.121441,-0.604614 l 4.883422,-3.662826 4.882391,3.662309 c -0.0779,0.186872 -0.121441,0.391193 -0.121441,0.605131 0,0.872051 0.715968,1.58595 1.588018,1.58595 0.872059,0 1.588016,-0.713899 1.588016,-1.58595 0,-0.872052 -0.715957,-1.5875 -1.588016,-1.5875 -0.372543,0 -0.715645,0.131162 -0.987538,0.348816 l -4.699971,-3.52485 4.699455,-3.5248494 c 0.271944,0.2174 0.615362,0.3482994 0.988054,0.3482994 0.872059,0 1.588016,-0.7138994 1.588016,-1.5859504 0,-0.872051 -0.715957,-1.588016 -1.588016,-1.588016 -0.87205,0 -1.588018,0.715965 -1.588018,1.588016 0,0.213926 0.04355,0.41793 0.121441,0.604615 L 26.458849,12.73359 21.575427,9.0712806 c 0.07778,-0.186564 0.121441,-0.390343 0.121441,-0.604098 0,-0.872051 -0.715968,-1.588016 -1.588019,-1.588016 z m 0,0.793233 c 0.443082,0 0.794785,0.351707 0.794785,0.794783 0,0.443076 -0.351703,0.793234 -0.794785,0.793234 -0.443068,0 -0.793231,-0.350158 -0.793231,-0.793234 0,-0.443076 0.350163,-0.794783 0.793231,-0.794783 z m 12.698968,0 c 0.44308,0 0.795301,0.351707 0.795301,0.794783 0,0.443076 -0.352221,0.793234 -0.795301,0.793234 -0.443071,0 -0.792718,-0.350158 -0.792718,-0.793234 0,-0.443076 0.349647,-0.794783 0.792718,-0.794783 z M 20.108849,17.198433 c 0.443082,0 0.794785,0.351707 0.794785,0.794784 0,0.443076 -0.351703,0.793233 -0.794785,0.793233 -0.443068,0 -0.793231,-0.350157 -0.793231,-0.793233 0,-0.443077 0.350163,-0.794784 0.793231,-0.794784 z m 12.698968,0 c 0.44308,0 0.795301,0.351707 0.795301,0.794784 0,0.443076 -0.352221,0.793233 -0.795301,0.793233 -0.443071,0 -0.792718,-0.350157 -0.792718,-0.793233 0,-0.443077 0.349647,-0.794784 0.792718,-0.794784 z" />
  </g>
</svg>
