<svg xmlns="http://www.w3.org/2000/svg" width="16" height="16" viewBox="18.045 4.815 16.827 16.827"><path d="m 20.108849,6.8791666 c -0.872048,0 -1.588015,0.715965 -1.588015,1.588016 0,0.872051 0.715967,1.5859504 1.588015,1.5859504 0.372949,0 0.71654,-0.1311444 0.988571,-0.3488164 l 4.699971,3.5253664 -4.699971,3.525367 c -0.272031,-0.218081 -0.615622,-0.349333 -0.988571,-0.349333 -0.872048,0 -1.588015,0.715448 -1.588015,1.5875 0,0.872051 0.715967,1.58595 1.588015,1.58595 0.872051,0 1.588019,-0.713899 1.588019,-1.58595 0,-0.213768 -0.04365,-0.417863 -0.121441,-0.604614 l 4.883422,-3.662826 4.882391,3.662309 c -0.0779,0.186872 -0.121441,0.391193 -0.121441,0.605131 0,0.872051 0.715968,1.58595 1.588018,1.58595 0.872059,0 1.588016,-0.713899 1.588016,-1.58595 0,-0.872052 -0.715957,-1.5875 -1.588016,-1.5875 -0.372543,0 -0.715645,0.131162 -0.987538,0.348816 l -4.699971,-3.52485 4.699455,-3.5248494 c 0.271944,0.2174 0.615362,0.3482994 0.988054,0.3482994 0.872059,0 1.588016,-0.7138994 1.588016,-1.5859504 0,-0.872051 -0.715957,-1.588016 -1.588016,-1.588016 -0.87205,0 -1.588018,0.715965 -1.588018,1.588016 0,0.213926 0.04355,0.41793 0.121441,0.604615 L 26.458849,12.73359 21.575427,9.0712806 c 0.07778,-0.186564 0.121441,-0.390343 0.121441,-0.604098 0,-0.872051 -0.715968,-1.588016 -1.588019,-1.588016 z m 0,0.793233 c 0.443082,0 0.794785,0.351707 0.794785,0.794783 0,0.443076 -0.351703,0.793234 -0.794785,0.793234 -0.443068,0 -0.793231,-0.350158 -0.793231,-0.793234 0,-0.443076 0.350163,-0.794783 0.793231,-0.794783 z m 12.698968,0 c 0.44308,0 0.795301,0.351707 0.795301,0.794783 0,0.443076 -0.352221,0.793234 -0.795301,0.793234 -0.443071,0 -0.792718,-0.350158 -0.792718,-0.793234 0,-0.443076 0.349647,-0.794783 0.792718,-0.794783 z M 20.108849,17.198433 c 0.443082,0 0.794785,0.351707 0.794785,0.794784 0,0.443076 -0.351703,0.793233 -0.794785,0.793233 -0.443068,0 -0.793231,-0.350157 -0.793231,-0.793233 0,-0.443077 0.350163,-0.794784 0.793231,-0.794784 z m 12.698968,0 c 0.44308,0 0.795301,0.351707 0.795301,0.794784 0,0.443076 -0.352221,0.793233 -0.795301,0.793233 -0.443071,0 -0.792718,-0.350157 -0.792718,-0.793233 0,-0.443077 0.349647,-0.794784 0.792718,-0.794784 z" style="fill:currentColor;stroke:none;fill-rule:evenodd"/></svg>