<svg xmlns="http://www.w3.org/2000/svg" width="16" height="16" viewBox="5.381 -7.848 42.155 42.155"><path d="m 23.189284,2.9103916 c -0.872054,0 -1.588019,0.71596 -1.588019,1.58802 0,0.87205 0.715965,1.58802 1.588019,1.58802 0.09269,0 0.182808,-0.01 0.271301,-0.0253 0.874876,2.0932 1.39261,4.3721504 1.443839,6.7711704 h -8.468733 c -0.06962,-1.80671 -0.617778,-3.4891204 -1.511019,-4.9361404 0.231507,-0.27612 0.37207,-0.6309 0.37207,-1.01647 0,-0.87206 -0.715965,-1.58802 -1.588019,-1.58802 -0.87205,0 -1.588016,0.71596 -1.588016,1.58802 0,0.87205 0.715966,1.58802 1.588016,1.58802 0.200229,0 0.391459,-0.0393 0.568442,-0.10801 0.801378,1.31449 1.295498,2.8360004 1.364258,4.4726004 h -4.242634 c -0.106682,-1.37386 -0.761195,-2.5896 -1.7378783,-3.4514704 0.05661,-0.16246 0.08888,-0.33587 0.08888,-0.51677 0,-0.87206 -0.715965,-1.58801 -1.588016,-1.58801 -0.872051,0 -1.588016,0.71595 -1.588016,1.58801 0,0.87205 0.715965,1.5880204 1.588016,1.5880204 0.407271,0 0.779314,-0.15763 1.061434,-0.41289 0.8584493,0.79447 1.3999163,1.92437 1.3999133,3.18998 0,1.26588 -0.543512,2.39368 -1.4024983,3.18792 -0.28181,-0.25387 -0.652827,-0.41031 -1.058849,-0.41031 -0.872051,0 -1.588016,0.71596 -1.588016,1.58802 0,0.87205 0.715965,1.5875 1.588016,1.5875 0.872051,0 1.588016,-0.71545 1.588016,-1.5875 0,-0.1794 -0.03162,-0.35185 -0.08733,-0.51315 0.9771353,-0.86224 1.6299763,-2.08074 1.7363283,-3.4556 h 4.242634 c -0.0686,1.6368 -0.562039,3.15888 -1.363224,4.47362 -0.177278,-0.069 -0.368845,-0.10851 -0.569476,-0.10851 -0.87205,0 -1.588016,0.71595 -1.588016,1.58801 0,0.87205 0.715966,1.5875 1.588016,1.5875 0.872054,0 1.588019,-0.71545 1.588019,-1.5875 0,-0.38648 -0.141137,-0.74214 -0.373621,-1.01854 0.89412,-1.44659 1.442384,-3.12831 1.51257,-4.93458 h 8.469249 c -0.05119,2.39903 -0.5691,4.67841 -1.443839,6.77168 -0.08865,-0.0156 -0.178951,-0.0253 -0.271817,-0.0253 -0.872054,0 -1.588019,0.71595 -1.588019,1.58801 0,0.87205 0.715965,1.5875 1.588019,1.5875 0.872051,0 1.5875,-0.71545 1.5875,-1.5875 0,-0.49671 -0.232701,-0.9421 -0.593765,-1.23403 0.921427,-2.19438 1.464681,-4.58488 1.516187,-7.10034 h 17.520377 c 0.177941,0.68204 0.800254,1.19114 1.535309,1.19114 0.87205,0 1.588016,-0.71597 1.588016,-1.58802 0,-0.87206 -0.715966,-1.5875 -1.588016,-1.5875 -0.734881,0 -1.357199,0.50883 -1.535309,1.19063 H 25.699725 c -0.05157,-2.5153 -0.596194,-4.9051504 -1.517738,-7.0993104 0.361567,-0.29192 0.594797,-0.73744 0.594797,-1.23455 0,-0.87206 -0.715449,-1.58802 -1.5875,-1.58802 z m 0,0.7953 c 0.443074,0 0.792715,0.34964 0.792715,0.79272 0,0.44307 -0.349641,0.79323 -0.792715,0.79323 -0.443079,0 -0.795301,-0.35016 -0.795301,-0.79323 0,-0.44308 0.352222,-0.79272 0.795301,-0.79272 z m -9.480561,2.38125 c 0.443077,0 0.792718,0.34964 0.792718,0.79272 0,0.44307 -0.349641,0.79323 -0.792718,0.79323 -0.443076,0 -0.794782,-0.35016 -0.794782,-0.79323 0,-0.44308 0.351706,-0.79272 0.794782,-0.79272 z m -5.5469473,1.98438 c 0.443077,0 0.793234,0.34963 0.793234,0.79271 0,0.44307 -0.350157,0.79324 -0.793234,0.79324 -0.443076,0 -0.794784,-0.35017 -0.794784,-0.79324 0,-0.44308 0.351708,-0.79271 0.794784,-0.79271 z M 44.754892,12.436432 c 0.443076,0 0.792715,0.34963 0.792715,0.79271 0,0.44307 -0.349639,0.79324 -0.792715,0.79324 -0.443077,0 -0.794785,-0.35017 -0.794785,-0.79324 0,-0.44308 0.351708,-0.79271 0.794785,-0.79271 z m -36.5931163,4.3651 c 0.443077,0 0.793234,0.35016 0.793234,0.79324 0,0.44307 -0.350157,0.79271 -0.793234,0.79271 -0.443076,0 -0.794784,-0.34964 -0.794784,-0.79271 0,-0.44308 0.351708,-0.79324 0.794784,-0.79324 z m 5.5469473,1.98438 c 0.443077,0 0.792718,0.35015 0.792718,0.79323 0,0.44307 -0.349641,0.79272 -0.792718,0.79272 -0.443076,0 -0.794782,-0.34965 -0.794782,-0.79272 0,-0.44308 0.351706,-0.79323 0.794782,-0.79323 z m 9.480561,2.38125 c 0.443074,0 0.792715,0.35015 0.792715,0.79323 0,0.44307 -0.349641,0.79272 -0.792715,0.79272 -0.443079,0 -0.795301,-0.34965 -0.795301,-0.79272 0,-0.44308 0.352222,-0.79323 0.795301,-0.79323 z" style="fill:currentColor;stroke:none;fill-rule:evenodd"/></svg>