<svg xmlns="http://www.w3.org/2000/svg" width="16" height="16" viewBox="13 -0.2328 26.92 26.92"><path style="fill:currentColor;stroke:none;fill-rule:evenodd" d="m 15.346345,6.0854171 c -0.872048,0 -1.588016,0.715447 -1.588016,1.587499 0,0.872051 0.715968,1.58595 1.588016,1.58595 0.475141,0 0.902888,-0.212767 1.19476,-0.546737 l 9.029941,4.5165209 -9.031491,4.51652 c -0.291843,-0.333548 -0.718849,-0.54622 -1.19321,-0.54622 -0.872048,0 -1.588016,0.715965 -1.588016,1.588017 0,0.872051 0.715968,1.585949 1.588016,1.585949 0.872051,0 1.588019,-0.713898 1.588019,-1.585949 0,-0.114187 -0.01288,-0.22574 -0.03617,-0.333313 l 9.559623,-4.781104 9.560655,4.78162 c -0.02322,0.107419 -0.03565,0.218788 -0.03565,0.332797 0,0.872051 0.715449,1.585949 1.5875,1.585949 0.872059,0 1.588016,-0.713898 1.588016,-1.585949 0,-0.872052 -0.715957,-1.588017 -1.588016,-1.588017 -0.474361,0 -0.901367,0.212672 -1.19321,0.54622 L 27.345105,13.22865 36.37608,8.7126461 c 0.291862,0.333653 0.719362,0.54622 1.194242,0.54622 0.872059,0 1.588016,-0.713899 1.588016,-1.58595 0,-0.872052 -0.715957,-1.587499 -1.588016,-1.587499 -0.872051,0 -1.5875,0.715447 -1.5875,1.587499 0,0.113677 0.01257,0.224693 0.03565,0.331763 L 26.457817,12.785266 16.898194,8.0051961 c 0.02316,-0.107226 0.03617,-0.218425 0.03617,-0.33228 0,-0.872052 -0.715968,-1.587499 -1.588019,-1.587499 z m 0,0.792716 c 0.443082,0 0.794784,0.351706 0.794784,0.794783 0,0.443076 -0.351702,0.793233 -0.794784,0.793234 -0.443069,0 -0.793231,-0.350158 -0.793231,-0.793234 0,-0.443077 0.350162,-0.794783 0.793231,-0.794783 z m 22.223968,0 c 0.443079,0 0.7953,0.351706 0.7953,0.794783 0,0.443076 -0.352221,0.793233 -0.7953,0.793234 -0.443071,0 -0.792716,-0.350158 -0.792718,-0.793234 0,-0.443077 0.349647,-0.794783 0.792718,-0.794783 z M 15.346345,17.991666 c 0.443082,0 0.794784,0.352224 0.794784,0.795301 0,0.443076 -0.351702,0.792716 -0.794784,0.792716 -0.443069,0 -0.793231,-0.34964 -0.793231,-0.792716 0,-0.443077 0.350162,-0.795301 0.793231,-0.795301 z m 22.223968,0 c 0.443079,0 0.7953,0.352224 0.7953,0.795301 0,0.443076 -0.352221,0.792716 -0.7953,0.792716 -0.443071,0 -0.792716,-0.34964 -0.792718,-0.792716 0,-0.443077 0.349647,-0.795301 0.792718,-0.795301 z"/></svg>
