<svg width="16" height="16" viewBox="0 0 12 12" xmlns="http://www.w3.org/2000/svg"><path style="fill:none;stroke-width:6;stroke-linecap:square;stroke-linejoin:miter;stroke:#000;stroke-opacity:1;stroke-miterlimit:10" transform="matrix(.1 0 0 -.1 0 12)" d="M76.68 110V26.68c0-9.22 7.46-16.68 16.64-16.68 4.414 0 8.672 1.758 11.797 4.883A16.708 16.708 0 0 1 110 26.68c0 9.18-7.46 16.64-16.68 16.64C60 43.32 60 10 26.68 10 17.46 10 10 17.46 10 26.68c0 9.18 7.46 16.64 16.68 16.64M43.32 110V60M10 60h100M10 85h100"/></svg>