<svg xmlns="http://www.w3.org/2000/svg" width="16" height="16" viewBox="0.7016 0.6991 10.6 10.6"><path style="fill:none;stroke:currentColor;stroke-width:0.5298;stroke-linecap:round;stroke-linejoin:round" d="M7.667 6.933c0-.92-.748-1.667-1.667-1.667-.92 0-1.667.748-1.667 1.667 0 .92.748 1.667 1.667 1.667.92 0 1.667-.748 1.667-1.667zM7.2 9.795a1.201 1.201 0 0 0-2.4 0 1.201 1.201 0 0 0 2.4 0zM4.233 1A2.492 2.492 0 0 0 3.5 2.766c0 1.38 1.121 2.5 2.5 2.5s2.5-1.12 2.5-2.5c0-.69-.28-1.314-.733-1.767M6 10.996V2"/></svg>
