<svg xmlns="http://www.w3.org/2000/svg" width="16" height="16" viewBox="0.7 1.561 10.6 10.6"><path style="fill:none;stroke:currentColor;stroke-width:0.53;stroke-linecap:round;stroke-linejoin:round" d="M6.409 6.552q-.049.373-.084.668-.03.294-.048.615.281-.194.518-.391l.506-.422.426.756q-.343.145-.628.272-.285.127-.572.277.304.136.598.242.294.1.655.228l-.466.77q-.272-.22-.51-.387-.237-.172-.532-.36.031.32.066.614.036.29.106.664H5.56q.061-.338.096-.642.035-.307.057-.65-.276.202-.514.404-.233.198-.492.431l-.444-.791q.352-.14.642-.26.294-.122.571-.263-.268-.127-.589-.246-.32-.123-.668-.237l.448-.747q.277.224.523.395.25.171.532.343-.026-.343-.079-.642-.048-.303-.11-.641Z"/><path style="fill:none;stroke:currentColor;stroke-width:0.53;stroke-linecap:round;stroke-linejoin:round" d="M9 8.625a3 3 0 1 0-6 0m7 0a4 4 0 1 0-8 0m9 0a5 5 0 0 0-5-5 5 5 0 0 0-5 5"/></svg>
