<svg xmlns="http://www.w3.org/2000/svg" width="16" height="16" viewBox="0.4086 -6.335 8.743 8.743"><path style="fill:none;stroke:currentColor;stroke-width:0.4371;stroke-linecap:round;stroke-linejoin:round" d="M1.726-5.695A5.007 5.007 0 0 1 4.78-1.087a4.985 4.985 0 0 1 1.464-3.536 5.007 5.007 0 0 1 1.59-1.072m-.845 3.52A4.011 4.011 0 0 1 6.11 2.16H3.448a3.982 3.982 0 0 1-1.17-2.83c0-.512.097-1.024.293-1.505M7.28-3.588c0-1.379-1.121-2.5-2.5-2.5a2.502 2.502 0 0 0-2.5 2.5 2.5 2.5 0 0 0 5 0z"/></svg>
