<svg xmlns="http://www.w3.org/2000/svg" width="16" height="16" viewBox="0.7 0.7 10.6 10.6"><path style="fill:none;stroke:currentColor;stroke-width:0.53;stroke-linecap:round;stroke-linejoin:round" d="M6 7.602a.899.899 0 1 0 0 1.797.899.899 0 0 0 0-1.797z"/><path style="fill:none;stroke:currentColor;stroke-width:0.53;stroke-linecap:round;stroke-linejoin:round" d="M8.083 8.5a2.084 2.084 0 0 0-4.166 0c0 1.149.933 2.084 2.083 2.084S8.083 9.649 8.083 8.5zM6.687 3.809l1.503-.234-1.079-1.073L7.354 1 6 1.695 4.646 1l.243 1.502-1.08 1.073 1.504.234L6 5.167zM1 8.5S3.5 6 6 6s5 2.5 5 2.5S8.5 11 6 11 1 8.5 1 8.5"/></svg>
