<svg xmlns="http://www.w3.org/2000/svg" width="16" height="16" viewBox="15.520 2.291 21.876 21.876"><path d="m 16.139583,4.4981761 v 3.175 h 2.38125 c 0,4.2460249 3.345393,7.7204909 7.540626,7.9276809 v 3.211174 c -1.562171,0.196765 -2.777093,1.533943 -2.777093,3.148126 H 24.0776 c 0,-1.319829 1.060902,-2.383316 2.380734,-2.383316 1.319829,0 2.382801,1.063487 2.382801,2.383316 h 0.793231 c 0,-1.614183 -1.216718,-2.951361 -2.779157,-3.148126 v -3.211174 c 4.195231,-0.20719 7.540625,-3.681656 7.540625,-7.9276809 h 2.38125 v -3.175 h -0.79375 v 2.38125 h -1.5875 v -2.38125 h -0.79375 v 2.38125 h -1.5875 v -2.38125 h -0.79375 v 3.175 h 2.382282 c 0,3.8168159 -2.983029,6.9253789 -6.747907,7.1308299 V 9.2591261 h 2.38125 v -3.175 h -0.79375 v 2.38125 h -1.5875 v -2.38125 h -0.79375 v 2.38125 h -1.5875 v -2.38125 h -0.79375 v 3.175 h 2.38125 V 14.804006 C 22.296708,14.598555 19.315617,11.489992 19.315617,7.6731761 h 2.380216 v -3.175 h -0.79375 v 2.38125 h -1.5875 v -2.38125 h -0.79375 v 2.38125 h -1.5875 v -2.38125 z" style="fill:currentColor;stroke:none;fill-rule:evenodd"/></svg>