<svg xmlns="http://www.w3.org/2000/svg" width="16" height="16" viewBox="13.63 0.3974 25.66 25.66"><path style="fill:currentColor;stroke:none;fill-rule:evenodd" d="m 36.975779,6.6804661 c -0.735054,0 -1.357368,0.509103 -1.535308,1.191143 H 23.084637 V 18.984109 h -2.38125 V 7.8922781 c 4.5e-5,-0.007 0.001,-0.01368 0.001,-0.02066 h -0.001 -0.79375 c 0,1.319828 -1.060904,2.3812489 -2.380733,2.3812489 -1.31983,0 -2.38125,-1.0614209 -2.38125,-2.3812489 h -0.794783 c 0,1.748803 1.42723,3.1739649 3.176033,3.1739649 0.947401,0 1.798017,-0.420711 2.380733,-1.0821039 v 9.8143879 h 3.96875 V 8.6653671 h 11.562084 c 0.144817,0.554353 0.583639,0.992908 1.137915,1.137915 v 9.9745849 h 0.79375 V 9.8037981 c 0.682194,-0.177834 1.191659,-0.800145 1.191659,-1.535305 0,-0.872051 -0.715965,-1.588019 -1.588016,-1.588019 z m 0,0.794784 c 0.443077,0 0.793232,0.350158 0.793232,0.793234 0,0.443077 -0.350155,0.792716 -0.793232,0.792716 -0.443076,0 -0.794784,-0.349639 -0.794784,-0.792716 0,-0.443076 0.351708,-0.793234 0.794784,-0.793234 z"/></svg>
