<svg xmlns="http://www.w3.org/2000/svg" width="16" height="16" viewBox="8.164 -5.065 36.59 36.59"><path style="fill:currentColor;stroke:none;fill-rule:evenodd" d="m 10.787714,6.0854166 c -0.8720504,0 -1.5880171,0.715965 -1.5880171,1.588016 0,0.872051 0.7159667,1.585949 1.5880171,1.585949 0.249685,0 0.485662,-0.05981 0.696598,-0.163814 l 3.542419,4.1335994 -3.542936,4.13463 c -0.210862,-0.104137 -0.446515,-0.16433 -0.696081,-0.16433 -0.8720504,0 -1.5880171,0.715447 -1.5880171,1.5875 0,0.872051 0.7159667,1.58595 1.5880171,1.58595 0.872054,0 1.5875,-0.713899 1.5875,-1.58595 0,-0.336637 -0.107203,-0.649031 -0.288355,-0.906923 l 3.462839,-4.040579 3.462838,4.040579 c -0.181155,0.257892 -0.288872,0.570286 -0.288872,0.906923 0,0.872051 0.715965,1.58595 1.588016,1.58595 0.872053,0 1.588018,-0.713899 1.588018,-1.58595 0,-0.336875 -0.107484,-0.649446 -0.288872,-0.907439 l 3.645773,-4.253486 h 6.671942 c -0.03361,0.762413 -0.158183,1.518364 -0.382405,2.248958 h 1.5875 c -0.224221,-0.730591 -0.348271,-1.486548 -0.381889,-2.248958 h 2.087211 c -0.03361,0.762413 -0.158184,1.518364 -0.382405,2.248958 h 1.5875 c -0.224221,-0.730591 -0.348271,-1.486548 -0.381889,-2.248958 h 2.087211 c -0.03362,0.762413 -0.158184,1.518364 -0.382405,2.248958 h 1.5875 c -0.224221,-0.730591 -0.348271,-1.486548 -0.381889,-2.248958 h 3.20032 c 0.185293,0.902734 0.988711,1.5875 1.944069,1.5875 v -0.792718 c -0.662266,0 -1.19166,-0.529392 -1.19166,-1.191657 0,-0.662265 0.529394,-1.189075 1.19166,-1.189075 v -0.7953 c -0.955358,0 -1.758776,0.684768 -1.944069,1.5875 h -3.20032 c 0.03362,-0.762413 0.157668,-1.518367 0.381889,-2.248958 h -1.5875 c 0.224221,0.730594 0.348789,1.486543 0.382405,2.248958 h -2.087211 c 0.03362,-0.762413 0.157668,-1.518367 0.381889,-2.248958 h -1.5875 c 0.224221,0.730594 0.34879,1.486543 0.382405,2.248958 h -2.087211 c 0.03362,-0.762413 0.157668,-1.518367 0.381889,-2.248958 h -1.5875 c 0.224222,0.730594 0.34879,1.486543 0.382405,2.248958 H 25.256599 L 21.611342,8.5798366 c 0.181017,-0.257466 0.288353,-0.569907 0.288356,-0.906404 0,-0.872051 -0.715965,-1.588016 -1.588018,-1.588016 -0.872051,0 -1.588016,0.715965 -1.588016,1.588016 0,0.336111 0.107722,0.64807 0.288353,0.905372 L 15.549698,12.618868 12.087376,8.5793206 c 0.180782,-0.257365 0.287838,-0.569632 0.287838,-0.905888 0,-0.872051 -0.715446,-1.588016 -1.5875,-1.588016 z m 0,0.793234 c 0.443077,0 0.794783,0.351705 0.794783,0.794782 0,0.443076 -0.351706,0.793234 -0.794783,0.793234 -0.443076,0 -0.7932336,-0.350158 -0.7932336,-0.793234 0,-0.443077 0.3501576,-0.794782 0.7932336,-0.794782 z m 9.523966,0 c 0.443079,0 0.794784,0.351705 0.794784,0.794782 0,0.443076 -0.351705,0.793234 -0.794784,0.793234 -0.443074,0 -0.792716,-0.350158 -0.792716,-0.793234 0,-0.443077 0.349642,-0.794782 0.792716,-0.794782 z m -0.695564,2.216917 c 0.210725,0.103746 0.44621,0.163814 0.695564,0.163814 0.249592,0 0.485722,-0.05989 0.696597,-0.163814 l 3.542422,4.1335994 -3.542422,4.13463 c -0.210905,-0.104193 -0.44696,-0.16433 -0.696597,-0.16433 -0.249156,0 -0.484447,0.06 -0.695048,0.163814 l -3.543453,-4.134114 z m -8.828402,8.8966154 c 0.443077,0 0.794783,0.351708 0.794783,0.794784 0,0.443077 -0.351706,0.793232 -0.794783,0.793232 -0.443076,0 -0.7932336,-0.350155 -0.7932336,-0.793232 0,-0.443076 0.3501576,-0.794784 0.7932336,-0.794784 z m 9.523966,0 c 0.443079,0 0.794784,0.351708 0.794784,0.794784 0,0.443077 -0.351705,0.793232 -0.794784,0.793232 -0.443074,0 -0.792716,-0.350155 -0.792716,-0.793232 0,-0.443076 0.349642,-0.794784 0.792716,-0.794784 z"/></svg>
