<?xml version="1.0" encoding="UTF-8" standalone="no"?>
<!DOCTYPE svg PUBLIC "-//W3C//DTD SVG 1.1//EN"
 "http://www.w3.org/Graphics/SVG/1.1/DTD/svg11.dtd">
<!-- Generated by graphviz version 14.0.4 (20251115.1723)
 -->
<!-- Pages: 1 -->
<svg width="522pt" height="328pt"
 viewBox="0.00 0.00 522.00 328.00" xmlns="http://www.w3.org/2000/svg" xmlns:xlink="http://www.w3.org/1999/xlink">
<g id="graph0" class="graph" transform="scale(1 1) rotate(0) translate(4 323.89)">
<polygon fill="#f5f0e6" stroke="none" points="-4,4 -4,-323.89 518,-323.89 518,4 -4,4"/>
<g id="clust1" class="cluster">
<title>cluster_planetary</title>
<path fill="#faf7f2" stroke="#8b7355" d="M20,-84.3C20,-84.3 218,-84.3 218,-84.3 224,-84.3 230,-90.3 230,-96.3 230,-96.3 230,-299.4 230,-299.4 230,-305.4 224,-311.4 218,-311.4 218,-311.4 20,-311.4 20,-311.4 14,-311.4 8,-305.4 8,-299.4 8,-299.4 8,-96.3 8,-96.3 8,-90.3 14,-84.3 20,-84.3"/>
<text xml:space="preserve" text-anchor="middle" x="119" y="-294.1" font-family="Crimson Pro" font-size="14.00">Planetary Dispositors</text>
</g>
<g id="clust2" class="cluster">
<title>cluster_house</title>
<path fill="#faf7f2" stroke="#8b7355" d="M250,-8C250,-8 494,-8 494,-8 500,-8 506,-14 506,-20 506,-20 506,-299.89 506,-299.89 506,-305.89 500,-311.89 494,-311.89 494,-311.89 250,-311.89 250,-311.89 244,-311.89 238,-305.89 238,-299.89 238,-299.89 238,-20 238,-20 238,-14 244,-8 250,-8"/>
<text xml:space="preserve" text-anchor="middle" x="372" y="-294.59" font-family="Crimson Pro" font-size="14.00">House Dispositors</text>
</g>
<!-- planetary_Moon -->
<g id="node1" class="node">
<title>planetary_Moon</title>
<ellipse fill="#e8e0d4" stroke="#8b7355" stroke-width="1.5" cx="34" cy="-260.74" rx="18" ry="18"/>
<text xml:space="preserve" text-anchor="middle" x="34" y="-256.07" font-family="Crimson Pro" font-size="14.00">☽</text>
</g>
<!-- planetary_Jupiter -->
<g id="node4" class="node">
<title>planetary_Jupiter</title>
<ellipse fill="#e8e0d4" stroke="#8b7355" stroke-width="1.5" cx="90" cy="-184.44" rx="18" ry="18"/>
<text xml:space="preserve" text-anchor="middle" x="90" y="-179.77" font-family="Crimson Pro" font-size="14.00">♃</text>
</g>
<!-- planetary_Moon&#45;&gt;planetary_Jupiter -->
<g id="edge2" class="edge">
<title>planetary_Moon&#45;&gt;planetary_Jupiter</title>
<path fill="none" stroke="#9b8aa6" stroke-width="1.5" d="M44.8,-245.42C52.47,-235.24 62.95,-221.33 71.89,-209.48"/>
<polygon fill="#9b8aa6" stroke="#9b8aa6" stroke-width="1.5" points="74.65,-211.63 77.87,-201.54 69.06,-207.42 74.65,-211.63"/>
</g>
<!-- planetary_Mercury -->
<g id="node2" class="node">
<title>planetary_Mercury</title>
<ellipse fill="#e8e0d4" stroke="#8b7355" stroke-width="1.5" cx="146" cy="-260.74" rx="18" ry="18"/>
<text xml:space="preserve" text-anchor="middle" x="146" y="-256.07" font-family="Crimson Pro" font-size="14.00">☿</text>
</g>
<!-- planetary_Mars -->
<g id="node7" class="node">
<title>planetary_Mars</title>
<ellipse fill="#d4af37" stroke="#8b6914" stroke-width="2.5" cx="146" cy="-184.44" rx="19.66" ry="19.66"/>
<text xml:space="preserve" text-anchor="middle" x="146" y="-178.64" font-family="Crimson Pro" font-size="14.00">♂</text>
</g>
<!-- planetary_Mercury&#45;&gt;planetary_Mars -->
<g id="edge3" class="edge">
<title>planetary_Mercury&#45;&gt;planetary_Mars</title>
<path fill="none" stroke="#9b8aa6" stroke-width="1.5" d="M146,-242.13C146,-234.7 146,-225.8 146,-217.28"/>
<polygon fill="#9b8aa6" stroke="#9b8aa6" stroke-width="1.5" points="149.5,-217.55 146,-207.55 142.5,-217.55 149.5,-217.55"/>
</g>
<!-- planetary_Venus -->
<g id="node3" class="node">
<title>planetary_Venus</title>
<ellipse fill="#e8e0d4" stroke="#8b7355" stroke-width="1.5" cx="202" cy="-260.74" rx="19.66" ry="19.66"/>
<text xml:space="preserve" text-anchor="middle" x="202" y="-254.94" font-family="Crimson Pro" font-size="14.00">♀</text>
</g>
<!-- planetary_Venus&#45;&gt;planetary_Mars -->
<g id="edge4" class="edge">
<title>planetary_Venus&#45;&gt;planetary_Mars</title>
<path fill="none" stroke="#9b8aa6" stroke-width="1.5" d="M190.4,-244.35C183.14,-234.71 173.61,-222.07 165.24,-210.97"/>
<polygon fill="#9b8aa6" stroke="#9b8aa6" stroke-width="1.5" points="168.16,-209.02 159.34,-203.14 162.57,-213.24 168.16,-209.02"/>
</g>
<!-- planetary_Saturn -->
<g id="node5" class="node">
<title>planetary_Saturn</title>
<ellipse fill="#d4af37" stroke="#8b6914" stroke-width="2.5" cx="118" cy="-110.3" rx="18" ry="18"/>
<text xml:space="preserve" text-anchor="middle" x="118" y="-105.62" font-family="Crimson Pro" font-size="14.00">♄</text>
</g>
<!-- planetary_Jupiter&#45;&gt;planetary_Saturn -->
<g id="edge6" class="edge">
<title>planetary_Jupiter&#45;&gt;planetary_Saturn</title>
<path fill="none" stroke="#9b8aa6" stroke-width="1.5" d="M96.35,-167.07C99.51,-158.95 103.41,-148.9 107.03,-139.57"/>
<polygon fill="#9b8aa6" stroke="#9b8aa6" stroke-width="1.5" points="110.2,-141.06 110.56,-130.47 103.68,-138.53 110.2,-141.06"/>
</g>
<!-- planetary_Sun -->
<g id="node6" class="node">
<title>planetary_Sun</title>
<ellipse fill="#e8e0d4" stroke="#8b7355" stroke-width="1.5" cx="90" cy="-260.74" rx="19.66" ry="19.66"/>
<text xml:space="preserve" text-anchor="middle" x="90" y="-254.94" font-family="Crimson Pro" font-size="14.00">☉</text>
</g>
<!-- planetary_Sun&#45;&gt;planetary_Jupiter -->
<g id="edge1" class="edge">
<title>planetary_Sun&#45;&gt;planetary_Jupiter</title>
<path fill="none" stroke="#9b8aa6" stroke-width="1.5" d="M90,-240.61C90,-232.81 90,-223.61 90,-214.98"/>
<polygon fill="#9b8aa6" stroke="#9b8aa6" stroke-width="1.5" points="93.5,-215.26 90,-205.26 86.5,-215.26 93.5,-215.26"/>
</g>
<!-- planetary_Mars&#45;&gt;planetary_Saturn -->
<g id="edge5" class="edge">
<title>planetary_Mars&#45;&gt;planetary_Saturn</title>
<path fill="none" stroke="#7b6b8a" stroke-width="2" d="M134.16,-152.93C132.51,-148.67 130.81,-144.31 129.17,-140.09"/>
<polygon fill="#7b6b8a" stroke="#7b6b8a" stroke-width="2" points="130.81,-153.99 137.69,-162.04 137.34,-151.45 130.81,-153.99"/>
<polygon fill="#7b6b8a" stroke="#7b6b8a" stroke-width="2" points="132.49,-138.97 125.61,-130.91 125.97,-141.5 132.49,-138.97"/>
</g>
<!-- house_8 -->
<g id="node8" class="node">
<title>house_8</title>
<ellipse fill="#e8e0d4" stroke="#8b7355" stroke-width="1.5" cx="264" cy="-110.3" rx="18" ry="18"/>
<text xml:space="preserve" text-anchor="middle" x="264" y="-104.5" font-family="Crimson Pro" font-size="14.00">8</text>
</g>
<!-- house_10 -->
<g id="node17" class="node">
<title>house_10</title>
<ellipse fill="#d4af37" stroke="#8b6914" stroke-width="2.5" cx="372" cy="-36.15" rx="20.15" ry="20.15"/>
<text xml:space="preserve" text-anchor="middle" x="372" y="-30.35" font-family="Crimson Pro" font-size="14.00">10</text>
</g>
<!-- house_8&#45;&gt;house_10 -->
<g id="edge14" class="edge">
<title>house_8&#45;&gt;house_10</title>
<path fill="none" stroke="#9b8aa6" stroke-width="1.5" d="M276.41,-96.74C280.83,-92.56 285.97,-88.02 291,-84.3 307.31,-72.22 326.96,-60.72 342.82,-52.1"/>
<polygon fill="#9b8aa6" stroke="#9b8aa6" stroke-width="1.5" points="344.4,-55.22 351.59,-47.44 341.12,-49.04 344.4,-55.22"/>
</g>
<!-- house_1 -->
<g id="node9" class="node">
<title>house_1</title>
<ellipse fill="#e8e0d4" stroke="#8b7355" stroke-width="1.5" cx="264" cy="-260.74" rx="18" ry="18"/>
<text xml:space="preserve" text-anchor="middle" x="264" y="-254.94" font-family="Crimson Pro" font-size="14.00">1</text>
</g>
<!-- house_6 -->
<g id="node11" class="node">
<title>house_6</title>
<ellipse fill="#e8e0d4" stroke="#8b7355" stroke-width="1.5" cx="264" cy="-184.44" rx="18" ry="18"/>
<text xml:space="preserve" text-anchor="middle" x="264" y="-178.64" font-family="Crimson Pro" font-size="14.00">6</text>
</g>
<!-- house_1&#45;&gt;house_6 -->
<g id="edge7" class="edge">
<title>house_1&#45;&gt;house_6</title>
<path fill="none" stroke="#9b8aa6" stroke-width="1.5" d="M264,-242.13C264,-234.14 264,-224.46 264,-215.38"/>
<polygon fill="#9b8aa6" stroke="#9b8aa6" stroke-width="1.5" points="267.5,-215.45 264,-205.45 260.5,-215.45 267.5,-215.45"/>
</g>
<!-- house_3 -->
<g id="node10" class="node">
<title>house_3</title>
<ellipse fill="#e8e0d4" stroke="#8b7355" stroke-width="1.5" cx="318" cy="-110.3" rx="18" ry="18"/>
<text xml:space="preserve" text-anchor="middle" x="318" y="-104.5" font-family="Crimson Pro" font-size="14.00">3</text>
</g>
<!-- house_3&#45;&gt;house_10 -->
<g id="edge9" class="edge">
<title>house_3&#45;&gt;house_10</title>
<path fill="none" stroke="#9b8aa6" stroke-width="1.5" d="M328.67,-95.04C335.47,-85.95 344.49,-73.91 352.53,-63.16"/>
<polygon fill="#9b8aa6" stroke="#9b8aa6" stroke-width="1.5" points="355.3,-65.31 358.49,-55.21 349.69,-61.11 355.3,-65.31"/>
</g>
<!-- house_6&#45;&gt;house_8 -->
<g id="edge12" class="edge">
<title>house_6&#45;&gt;house_8</title>
<path fill="none" stroke="#9b8aa6" stroke-width="1.5" d="M264,-165.98C264,-158.5 264,-149.56 264,-141.09"/>
<polygon fill="#9b8aa6" stroke="#9b8aa6" stroke-width="1.5" points="267.5,-141.12 264,-131.12 260.5,-141.12 267.5,-141.12"/>
</g>
<!-- house_4 -->
<g id="node12" class="node">
<title>house_4</title>
<ellipse fill="#e8e0d4" stroke="#8b7355" stroke-width="1.5" cx="372" cy="-110.3" rx="18" ry="18"/>
<text xml:space="preserve" text-anchor="middle" x="372" y="-104.5" font-family="Crimson Pro" font-size="14.00">4</text>
</g>
<!-- house_4&#45;&gt;house_10 -->
<g id="edge10" class="edge">
<title>house_4&#45;&gt;house_10</title>
<path fill="none" stroke="#9b8aa6" stroke-width="1.5" d="M372,-91.83C372,-85.12 372,-77.24 372,-69.57"/>
<polygon fill="#9b8aa6" stroke="#9b8aa6" stroke-width="1.5" points="375.5,-69.79 372,-59.79 368.5,-69.79 375.5,-69.79"/>
</g>
<!-- house_9 -->
<g id="node13" class="node">
<title>house_9</title>
<ellipse fill="#d4af37" stroke="#8b6914" stroke-width="2.5" cx="426" cy="-110.3" rx="18" ry="18"/>
<text xml:space="preserve" text-anchor="middle" x="426" y="-104.5" font-family="Crimson Pro" font-size="14.00">9</text>
</g>
<!-- house_9&#45;&gt;house_10 -->
<g id="edge15" class="edge">
<title>house_9&#45;&gt;house_10</title>
<path fill="none" stroke="#7b6b8a" stroke-width="2" d="M407.3,-84.31C402.29,-77.61 396.85,-70.35 391.78,-63.58"/>
<polygon fill="#7b6b8a" stroke="#7b6b8a" stroke-width="2" points="404.46,-86.36 413.26,-92.27 410.07,-82.17 404.46,-86.36"/>
<polygon fill="#7b6b8a" stroke="#7b6b8a" stroke-width="2" points="394.84,-61.82 386.04,-55.91 389.23,-66.02 394.84,-61.82"/>
</g>
<!-- house_5 -->
<g id="node14" class="node">
<title>house_5</title>
<ellipse fill="#e8e0d4" stroke="#8b7355" stroke-width="1.5" cx="372" cy="-260.74" rx="18" ry="18"/>
<text xml:space="preserve" text-anchor="middle" x="372" y="-254.94" font-family="Crimson Pro" font-size="14.00">5</text>
</g>
<!-- house_11 -->
<g id="node18" class="node">
<title>house_11</title>
<ellipse fill="#e8e0d4" stroke="#8b7355" stroke-width="1.5" cx="372" cy="-184.44" rx="20.15" ry="20.15"/>
<text xml:space="preserve" text-anchor="middle" x="372" y="-178.64" font-family="Crimson Pro" font-size="14.00">11</text>
</g>
<!-- house_5&#45;&gt;house_11 -->
<g id="edge11" class="edge">
<title>house_5&#45;&gt;house_11</title>
<path fill="none" stroke="#9b8aa6" stroke-width="1.5" d="M372,-242.13C372,-234.7 372,-225.8 372,-217.28"/>
<polygon fill="#9b8aa6" stroke="#9b8aa6" stroke-width="1.5" points="375.5,-217.55 372,-207.55 368.5,-217.55 375.5,-217.55"/>
</g>
<!-- house_2 -->
<g id="node15" class="node">
<title>house_2</title>
<ellipse fill="#e8e0d4" stroke="#8b7355" stroke-width="1.5" cx="318" cy="-260.74" rx="18" ry="18"/>
<text xml:space="preserve" text-anchor="middle" x="318" y="-254.94" font-family="Crimson Pro" font-size="14.00">2</text>
</g>
<!-- house_2&#45;&gt;house_6 -->
<g id="edge8" class="edge">
<title>house_2&#45;&gt;house_6</title>
<path fill="none" stroke="#9b8aa6" stroke-width="1.5" d="M307.59,-245.42C300.19,-235.24 290.09,-221.33 281.47,-209.48"/>
<polygon fill="#9b8aa6" stroke="#9b8aa6" stroke-width="1.5" points="284.43,-207.59 275.71,-201.56 278.76,-211.71 284.43,-207.59"/>
</g>
<!-- house_12 -->
<g id="node16" class="node">
<title>house_12</title>
<ellipse fill="#e8e0d4" stroke="#8b7355" stroke-width="1.5" cx="428" cy="-260.74" rx="20.15" ry="20.15"/>
<text xml:space="preserve" text-anchor="middle" x="428" y="-254.94" font-family="Crimson Pro" font-size="14.00">12</text>
</g>
<!-- house_12&#45;&gt;house_11 -->
<g id="edge17" class="edge">
<title>house_12&#45;&gt;house_11</title>
<path fill="none" stroke="#9b8aa6" stroke-width="1.5" d="M416.12,-243.98C408.9,-234.4 399.5,-221.92 391.23,-210.96"/>
<polygon fill="#9b8aa6" stroke="#9b8aa6" stroke-width="1.5" points="394.23,-209.13 385.42,-203.25 388.64,-213.34 394.23,-209.13"/>
</g>
<!-- house_11&#45;&gt;house_8 -->
<g id="edge16" class="edge">
<title>house_11&#45;&gt;house_8</title>
<path fill="none" stroke="#9b8aa6" stroke-width="1.5" d="M355.12,-172.17C337.42,-160.35 309.41,-141.63 289.11,-128.07"/>
<polygon fill="#9b8aa6" stroke="#9b8aa6" stroke-width="1.5" points="291.16,-125.23 280.9,-122.59 287.28,-131.05 291.16,-125.23"/>
</g>
<!-- house_7 -->
<g id="node19" class="node">
<title>house_7</title>
<ellipse fill="#e8e0d4" stroke="#8b7355" stroke-width="1.5" cx="480" cy="-110.3" rx="18" ry="18"/>
<text xml:space="preserve" text-anchor="middle" x="480" y="-104.5" font-family="Crimson Pro" font-size="14.00">7</text>
</g>
<!-- house_7&#45;&gt;house_10 -->
<g id="edge13" class="edge">
<title>house_7&#45;&gt;house_10</title>
<path fill="none" stroke="#9b8aa6" stroke-width="1.5" d="M467.59,-96.74C463.17,-92.56 458.03,-88.02 453,-84.3 436.69,-72.22 417.04,-60.72 401.18,-52.1"/>
<polygon fill="#9b8aa6" stroke="#9b8aa6" stroke-width="1.5" points="402.88,-49.04 392.41,-47.44 399.6,-55.22 402.88,-49.04"/>
</g>
</g>
</svg>
