<?xml version="1.0" encoding="utf-8" ?>
<svg baseProfile="full" height="600px" version="1.1" viewBox="0 0 600 600" width="600px" xmlns="http://www.w3.org/2000/svg" xmlns:ev="http://www.w3.org/2001/xml-events" xmlns:xlink="http://www.w3.org/1999/xlink"><defs /><rect fill="#0A1628" height="600px" width="600px" x="0" y="0" /><circle cx="300" cy="300" fill="none" r="216.0" stroke="#4A6FA5" stroke-width="1" /><path d="M 300.0 180.0 A 120.0 120.0 0 0 1 403.92304845413264 360.0 L 341.56921938165306 324.0 A 48.0 48.0 0 0 0 300.0 252.0 Z" fill="#0E223D" stroke="none" /><path d="M 403.92304845413264 360.0 A 120.0 120.0 0 0 1 196.07695154586736 360.0 L 258.43078061834694 324.0 A 48.0 48.0 0 0 0 341.56921938165306 324.0 Z" fill="#0A1628" stroke="none" /><path d="M 196.07695154586736 360.0 A 120.0 120.0 0 0 1 300.0 180.0 L 300.0 252.0 A 48.0 48.0 0 0 0 258.43078061834694 324.0 Z" fill="#0E223D" stroke="none" /><line stroke="#4A6FA5" stroke-width="1.0" x1="300.0" x2="300.0" y1="252.0" y2="180.0" /><line stroke="#4A6FA5" stroke-width="1.0" x1="341.56921938165306" x2="403.92304845413264" y1="324.0" y2="360.0" /><line stroke="#4A6FA5" stroke-width="1.0" x1="258.43078061834694" x2="196.07695154586736" y1="324.0" y2="360.0" /><text dominant-baseline="middle" fill="#E8E8E8" font-family="&quot;Symbola&quot;, &quot;Noto Sans Symbols&quot;, &quot;Apple Symbols&quot;, &quot;Segoe UI Symbol&quot;, serif" font-size="14px" text-anchor="middle" x="354.1833528958018" y="243.89149557358522">♈</text><text dominant-baseline="middle" fill="#E8E8E8" font-family="&quot;Symbola&quot;, &quot;Noto Sans Symbols&quot;, &quot;Apple Symbols&quot;, &quot;Segoe UI Symbol&quot;, serif" font-size="14px" text-anchor="middle" x="375.68306664952775" y="281.1300921432259">♋</text><text dominant-baseline="middle" fill="#E8E8E8" font-family="&quot;Symbola&quot;, &quot;Noto Sans Symbols&quot;, &quot;Apple Symbols&quot;, &quot;Segoe UI Symbol&quot;, serif" font-size="14px" text-anchor="middle" x="362.51925334130976" y="235.2594179695214">♎</text><text dominant-baseline="middle" fill="#E8E8E8" font-family="&quot;Symbola&quot;, &quot;Noto Sans Symbols&quot;, &quot;Apple Symbols&quot;, &quot;Segoe UI Symbol&quot;, serif" font-size="14px" text-anchor="middle" x="387.32661536483965" y="278.2270293960299">♑</text><text dominant-baseline="middle" fill="#E8E8E8" font-family="&quot;Symbola&quot;, &quot;Noto Sans Symbols&quot;, &quot;Apple Symbols&quot;, &quot;Segoe UI Symbol&quot;, serif" font-size="14px" text-anchor="middle" x="321.4997137537259" y="374.97841228318885">♉</text><text dominant-baseline="middle" fill="#E8E8E8" font-family="&quot;Symbola&quot;, &quot;Noto Sans Symbols&quot;, &quot;Apple Symbols&quot;, &quot;Segoe UI Symbol&quot;, serif" font-size="14px" text-anchor="middle" x="278.5002862462741" y="374.97841228318885">♌</text><text dominant-baseline="middle" fill="#E8E8E8" font-family="&quot;Symbola&quot;, &quot;Noto Sans Symbols&quot;, &quot;Apple Symbols&quot;, &quot;Segoe UI Symbol&quot;, serif" font-size="14px" text-anchor="middle" x="324.80736202352995" y="386.51355263444873">♏</text><text dominant-baseline="middle" fill="#E8E8E8" font-family="&quot;Symbola&quot;, &quot;Noto Sans Symbols&quot;, &quot;Apple Symbols&quot;, &quot;Segoe UI Symbol&quot;, serif" font-size="14px" text-anchor="middle" x="275.1926379764701" y="386.51355263444873">♒</text><text dominant-baseline="middle" fill="#E8E8E8" font-family="&quot;Symbola&quot;, &quot;Noto Sans Symbols&quot;, &quot;Apple Symbols&quot;, &quot;Segoe UI Symbol&quot;, serif" font-size="14px" text-anchor="middle" x="224.31693335047225" y="281.1300921432259">♊</text><text dominant-baseline="middle" fill="#E8E8E8" font-family="&quot;Symbola&quot;, &quot;Noto Sans Symbols&quot;, &quot;Apple Symbols&quot;, &quot;Segoe UI Symbol&quot;, serif" font-size="14px" text-anchor="middle" x="245.8166471041982" y="243.89149557358522">♍</text><text dominant-baseline="middle" fill="#E8E8E8" font-family="&quot;Symbola&quot;, &quot;Noto Sans Symbols&quot;, &quot;Apple Symbols&quot;, &quot;Segoe UI Symbol&quot;, serif" font-size="14px" text-anchor="middle" x="212.67338463516032" y="278.22702939602993">♐</text><text dominant-baseline="middle" fill="#E8E8E8" font-family="&quot;Symbola&quot;, &quot;Noto Sans Symbols&quot;, &quot;Apple Symbols&quot;, &quot;Segoe UI Symbol&quot;, serif" font-size="14px" text-anchor="middle" x="237.48074665869024" y="235.2594179695214">♓</text><line stroke="#4A6FA5" stroke-width="0.5" x1="299.99999999999994" x2="299.99999999999994" y1="100.80000000000001" y2="84.0" /><line stroke="#4A6FA5" stroke-width="0.5" x1="314.56515171777335" x2="315.06739832873103" y1="91.70862630574868" y2="84.52616514387796" /><line stroke="#4A6FA5" stroke-width="0.5" x1="329.0593434804617" x2="330.06138980737416" y1="93.23202724676008" y2="86.1020971518208" /><line stroke="#4A6FA5" stroke-width="0.5" x1="343.4119610427482" x2="344.908925216636" y1="95.76278096678138" y2="88.720118241498" /><line stroke="#4A6FA5" stroke-width="0.5" x1="357.5530798945895" x2="359.5376688564719" y1="99.28855788807903" y2="92.36747367732315" /><line stroke="#4A6FA5" stroke-width="0.5" x1="369.7721092384365" x2="373.8763509583445" y1="108.30270535967469" y2="97.0263939102438" /><line stroke="#4A6FA5" stroke-width="0.5" x1="384.926611074227" x2="387.8551149043727" y1="109.25170844422487" y2="102.67418114919818" /><line stroke="#4A6FA5" stroke-width="0.5" x1="398.0256623096939" x2="401.4058575617523" y1="115.64054261105602" y2="109.28331994247173" /><line stroke="#4A6FA5" stroke-width="0.5" x1="410.64714237189315" x2="414.4625610743722" y1="122.9275575225382" y2="116.82161123021194" /><line stroke="#4A6FA5" stroke-width="0.5" x1="422.72956067866835" x2="426.96161449517416" y1="131.07725157451094" y2="125.25232921501132" /><line stroke="#4A6FA5" stroke-width="0.5" x1="428.0432918495586" x2="438.8421236922925" y1="147.40394693069956" y2="134.53440028630072" /><line stroke="#4A6FA5" stroke-width="0.5" x1="445.04466775183863" x2="450.0462080191434" y1="149.8018496892896" y2="144.62260312685135" /><line stroke="#4A6FA5" stroke-width="0.5" x1="455.16863955967995" x2="460.51928230311717" y1="160.2855293922704" y2="155.46778902648666" /><line stroke="#4A6FA5" stroke-width="0.5" x1="464.5366453530836" x2="470.210322779052" y1="171.44988395200255" y2="167.01712132965784" /><line stroke="#4A6FA5" stroke-width="0.5" x1="473.10304514949274" x2="479.07211567188904" y1="183.24052175530812" y2="179.21433285031873" /><line stroke="#4A6FA5" stroke-width="0.5" x1="476.66918237202543" x2="487.0614872174387" y1="197.99999999999991" y2="191.9999999999999" /><line stroke="#4A6FA5" stroke-width="0.5" x1="487.66819686726603" x2="494.13951400062" y1="208.46810455044056" y2="205.31183229355918" /><line stroke="#4A6FA5" stroke-width="0.5" x1="493.5959888335452" x2="500.271712586426" y1="221.7821432947575" y2="219.08497582216293" /><line stroke="#4A6FA5" stroke-width="0.5" x1="498.58060060242804" x2="505.4282075197532" y1="235.47725157451092" y2="233.2523292150113" /><line stroke="#4A6FA5" stroke-width="0.5" x1="502.59774764642805" x2="509.58387687561526" y1="249.48670819878936" y2="247.74487055047175" /><line stroke="#4A6FA5" stroke-width="0.5" x1="496.17370440003185" x2="512.718474650637" y1="265.4092830087475" y2="262.491993623943" /><line stroke="#4A6FA5" stroke-width="0.5" x1="507.6561717528955" x2="514.8167293995471" y1="278.17445686971394" y2="277.42185193418686" /><line stroke="#4A6FA5" stroke-width="0.5" x1="508.6728046815872" x2="515.8684186361247" y1="292.7129850885178" y2="292.46170871225985" /><line stroke="#4A6FA5" stroke-width="0.5" x1="508.6728046815872" x2="515.8684186361247" y1="307.2870149114822" y2="307.5382912877402" /><line stroke="#4A6FA5" stroke-width="0.5" x1="507.6561717528955" x2="514.8167293995471" y1="321.82554313028606" y2="322.57814806581314" /><line stroke="#4A6FA5" stroke-width="0.5" x1="500.9007816144904" x2="512.718474650637" y1="335.4242282440538" y2="337.508006376057" /><line stroke="#4A6FA5" stroke-width="0.5" x1="502.59774764642805" x2="509.58387687561526" y1="350.51329180121064" y2="352.2551294495282" /><line stroke="#4A6FA5" stroke-width="0.5" x1="498.58060060242804" x2="505.4282075197532" y1="364.522748425489" y2="366.74767078498866" /><line stroke="#4A6FA5" stroke-width="0.5" x1="493.5959888335452" x2="500.2717125864261" y1="378.2178567052424" y2="380.915024177837" /><line stroke="#4A6FA5" stroke-width="0.5" x1="487.6681968672661" x2="494.13951400062007" y1="391.5318954495594" y2="394.6881677064407" /><line stroke="#4A6FA5" stroke-width="0.5" x1="472.5122604338602" x2="487.06148721743875" y1="399.59999999999997" y2="408.0" /><line stroke="#4A6FA5" stroke-width="0.5" x1="473.1030451494927" x2="479.07211567188904" y1="416.759478244692" y2="420.78566714968133" /><line stroke="#4A6FA5" stroke-width="0.5" x1="464.53664535308354" x2="470.2103227790519" y1="428.55011604799745" y2="432.9828786703422" /><line stroke="#4A6FA5" stroke-width="0.5" x1="455.16863955967995" x2="460.51928230311717" y1="439.7144706077296" y2="444.5322109735134" /><line stroke="#4A6FA5" stroke-width="0.5" x1="445.04466775183863" x2="450.0462080191434" y1="450.1981503107104" y2="455.37739687314865" /><line stroke="#4A6FA5" stroke-width="0.5" x1="431.12867237605406" x2="438.8421236922925" y1="456.2730663962715" y2="465.46559971369925" /><line stroke="#4A6FA5" stroke-width="0.5" x1="422.7295606786684" x2="426.9616144951742" y1="468.92274842548903" y2="474.74767078498866" /><line stroke="#4A6FA5" stroke-width="0.5" x1="410.6471423718932" x2="414.4625610743723" y1="477.0724424774618" y2="483.178388769788" /><line stroke="#4A6FA5" stroke-width="0.5" x1="398.025662309694" x2="401.40585756175244" y1="484.35945738894395" y2="490.7166800575282" /><line stroke="#4A6FA5" stroke-width="0.5" x1="384.9266110742271" x2="387.85511490437284" y1="490.74829155577504" y2="497.3258188508018" /><line stroke="#4A6FA5" stroke-width="0.5" x1="368.13041255047324" x2="373.87635095834446" y1="487.18677006055293" y2="502.97360608975623" /><line stroke="#4A6FA5" stroke-width="0.5" x1="357.5530798945894" x2="359.53766885647184" y1="500.711442111921" y2="507.6325263226769" /><line stroke="#4A6FA5" stroke-width="0.5" x1="343.4119610427482" x2="344.908925216636" y1="504.2372190332186" y2="511.27988175850203" /><line stroke="#4A6FA5" stroke-width="0.5" x1="329.0593434804617" x2="330.06138980737416" y1="506.7679727532399" y2="513.8979028481792" /><line stroke="#4A6FA5" stroke-width="0.5" x1="314.56515171777335" x2="315.06739832873103" y1="508.2913736942513" y2="515.473834856122" /><line stroke="#4A6FA5" stroke-width="0.5" x1="300.0" x2="300.0" y1="504.0" y2="516.0" /><line stroke="#4A6FA5" stroke-width="0.5" x1="285.43484828222665" x2="284.9326016712689" y1="508.2913736942513" y2="515.473834856122" /><line stroke="#4A6FA5" stroke-width="0.5" x1="270.9406565195384" x2="269.9386101926259" y1="506.7679727532399" y2="513.8979028481792" /><line stroke="#4A6FA5" stroke-width="0.5" x1="256.58803895725185" x2="255.09107478336398" y1="504.23721903321865" y2="511.27988175850203" /><line stroke="#4A6FA5" stroke-width="0.5" x1="242.44692010541058" x2="240.46233114352822" y1="500.711442111921" y2="507.6325263226769" /><line stroke="#4A6FA5" stroke-width="0.5" x1="231.8695874495268" x2="226.12364904165554" y1="487.18677006055293" y2="502.97360608975623" /><line stroke="#4A6FA5" stroke-width="0.5" x1="215.07338892577292" x2="212.14488509562716" y1="490.74829155577504" y2="497.3258188508018" /><line stroke="#4A6FA5" stroke-width="0.5" x1="201.97433769030596" x2="198.59414243824756" y1="484.35945738894395" y2="490.7166800575282" /><line stroke="#4A6FA5" stroke-width="0.5" x1="189.35285762810685" x2="185.53743892562778" y1="477.0724424774618" y2="483.17838876978806" /><line stroke="#4A6FA5" stroke-width="0.5" x1="177.27043932133162" x2="173.03838550482584" y1="468.92274842548903" y2="474.74767078498866" /><line stroke="#4A6FA5" stroke-width="0.5" x1="168.87132762394597" x2="161.1578763077075" y1="456.2730663962715" y2="465.46559971369925" /><line stroke="#4A6FA5" stroke-width="0.5" x1="154.95533224816134" x2="149.95379198085658" y1="450.1981503107104" y2="455.37739687314865" /><line stroke="#4A6FA5" stroke-width="0.5" x1="144.8313604403201" x2="139.4807176968829" y1="439.71447060772965" y2="444.53221097351343" /><line stroke="#4A6FA5" stroke-width="0.5" x1="135.46335464691646" x2="129.78967722094808" y1="428.55011604799745" y2="432.9828786703422" /><line stroke="#4A6FA5" stroke-width="0.5" x1="126.89695485050731" x2="120.92788432811102" y1="416.759478244692" y2="420.78566714968133" /><line stroke="#4A6FA5" stroke-width="0.5" x1="127.48773956613982" x2="112.93851278256125" y1="399.59999999999997" y2="408.0" /><line stroke="#4A6FA5" stroke-width="0.5" x1="112.33180313273391" x2="105.86048599937993" y1="391.53189544955933" y2="394.6881677064407" /><line stroke="#4A6FA5" stroke-width="0.5" x1="106.40401116645481" x2="99.72828741357395" y1="378.21785670524247" y2="380.91502417783704" /><line stroke="#4A6FA5" stroke-width="0.5" x1="101.41939939757194" x2="94.57179248024684" y1="364.52274842548906" y2="366.74767078498866" /><line stroke="#4A6FA5" stroke-width="0.5" x1="97.40225235357192" x2="90.41612312438477" y1="350.51329180121064" y2="352.2551294495282" /><line stroke="#4A6FA5" stroke-width="0.5" x1="99.09921838550957" x2="87.28152534936308" y1="335.4242282440538" y2="337.5080063760569" /><line stroke="#4A6FA5" stroke-width="0.5" x1="92.34382824710454" x2="85.18327060045297" y1="321.8255431302861" y2="322.5781480658132" /><line stroke="#4A6FA5" stroke-width="0.5" x1="91.3271953184128" x2="84.13158136387531" y1="307.28701491148223" y2="307.53829128774026" /><line stroke="#4A6FA5" stroke-width="0.5" x1="91.3271953184128" x2="84.13158136387531" y1="292.7129850885178" y2="292.4617087122598" /><line stroke="#4A6FA5" stroke-width="0.5" x1="92.34382824710454" x2="85.18327060045297" y1="278.17445686971394" y2="277.42185193418686" /><line stroke="#4A6FA5" stroke-width="0.5" x1="103.82629559996818" x2="87.28152534936308" y1="265.4092830087475" y2="262.491993623943" /><line stroke="#4A6FA5" stroke-width="0.5" x1="97.40225235357192" x2="90.41612312438477" y1="249.48670819878942" y2="247.74487055047183" /><line stroke="#4A6FA5" stroke-width="0.5" x1="101.41939939757191" x2="94.57179248024681" y1="235.477251574511" y2="233.2523292150114" /><line stroke="#4A6FA5" stroke-width="0.5" x1="106.40401116645478" x2="99.72828741357392" y1="221.78214329475756" y2="219.08497582216302" /><line stroke="#4A6FA5" stroke-width="0.5" x1="112.33180313273394" x2="105.86048599937993" y1="208.46810455044061" y2="205.31183229355926" /><line stroke="#4A6FA5" stroke-width="0.5" x1="123.33081762797454" x2="112.93851278256128" y1="197.99999999999997" y2="191.99999999999997" /><line stroke="#4A6FA5" stroke-width="0.5" x1="126.89695485050726" x2="120.92788432811096" y1="183.24052175530807" y2="179.21433285031873" /><line stroke="#4A6FA5" stroke-width="0.5" x1="135.46335464691643" x2="129.78967722094805" y1="171.44988395200255" y2="167.01712132965784" /><line stroke="#4A6FA5" stroke-width="0.5" x1="144.83136044032008" x2="139.48071769688283" y1="160.2855293922704" y2="155.46778902648663" /><line stroke="#4A6FA5" stroke-width="0.5" x1="154.95533224816137" x2="149.95379198085658" y1="149.8018496892896" y2="144.62260312685135" /><line stroke="#4A6FA5" stroke-width="0.5" x1="171.95670815044136" x2="161.15787630770748" y1="147.40394693069962" y2="134.53440028630078" /><line stroke="#4A6FA5" stroke-width="0.5" x1="177.2704393213316" x2="173.03838550482578" y1="131.077251574511" y2="125.25232921501137" /><line stroke="#4A6FA5" stroke-width="0.5" x1="189.3528576281068" x2="185.53743892562773" y1="122.92755752253825" y2="116.821611230212" /><line stroke="#4A6FA5" stroke-width="0.5" x1="201.97433769030602" x2="198.59414243824762" y1="115.64054261105605" y2="109.28331994247176" /><line stroke="#4A6FA5" stroke-width="0.5" x1="215.07338892577292" x2="212.14488509562716" y1="109.2517084442249" y2="102.67418114919818" /><line stroke="#4A6FA5" stroke-width="0.5" x1="230.22789076156363" x2="226.1236490416556" y1="108.30270535967469" y2="97.02639391024377" /><line stroke="#4A6FA5" stroke-width="0.5" x1="242.44692010541064" x2="240.46233114352825" y1="99.28855788807897" y2="92.36747367732309" /><line stroke="#4A6FA5" stroke-width="0.5" x1="256.58803895725174" x2="255.0910747833639" y1="95.76278096678138" y2="88.720118241498" /><line stroke="#4A6FA5" stroke-width="0.5" x1="270.94065651953827" x2="269.9386101926258" y1="93.23202724676011" y2="86.10209715182083" /><line stroke="#4A6FA5" stroke-width="0.5" x1="285.4348482822266" x2="284.93260167126886" y1="91.70862630574871" y2="84.52616514387796" /><text dominant-baseline="middle" fill="#E8E8E8" font-family="&quot;Arial&quot;, &quot;Helvetica&quot;, sans-serif" font-size="8px" text-anchor="middle" x="299.99999999999994" y="116.0">0</text><text dominant-baseline="middle" fill="#E8E8E8" font-family="&quot;Arial&quot;, &quot;Helvetica&quot;, sans-serif" font-size="8px" text-anchor="middle" x="362.9317063719231" y="127.09655777539288">5</text><text dominant-baseline="middle" fill="#E8E8E8" font-family="&quot;Arial&quot;, &quot;Helvetica&quot;, sans-serif" font-size="8px" text-anchor="middle" x="418.2729201823232" y="159.04782246610802">10</text><text dominant-baseline="middle" fill="#E8E8E8" font-family="&quot;Arial&quot;, &quot;Helvetica&quot;, sans-serif" font-size="8px" text-anchor="middle" x="459.34867429633664" y="207.99999999999991">15</text><text dominant-baseline="middle" fill="#E8E8E8" font-family="&quot;Arial&quot;, &quot;Helvetica&quot;, sans-serif" font-size="8px" text-anchor="middle" x="481.20462655424626" y="268.0487353092848">20</text><text dominant-baseline="middle" fill="#E8E8E8" font-family="&quot;Arial&quot;, &quot;Helvetica&quot;, sans-serif" font-size="8px" text-anchor="middle" x="481.20462655424626" y="331.95126469071516">25</text><text dominant-baseline="middle" fill="#E8E8E8" font-family="&quot;Arial&quot;, &quot;Helvetica&quot;, sans-serif" font-size="8px" text-anchor="middle" x="459.34867429633675" y="392.0">30</text><text dominant-baseline="middle" fill="#E8E8E8" font-family="&quot;Arial&quot;, &quot;Helvetica&quot;, sans-serif" font-size="8px" text-anchor="middle" x="418.2729201823232" y="440.9521775338919">35</text><text dominant-baseline="middle" fill="#E8E8E8" font-family="&quot;Arial&quot;, &quot;Helvetica&quot;, sans-serif" font-size="8px" text-anchor="middle" x="362.93170637192304" y="472.90344222460715">40</text><text dominant-baseline="middle" fill="#E8E8E8" font-family="&quot;Arial&quot;, &quot;Helvetica&quot;, sans-serif" font-size="8px" text-anchor="middle" x="300.0" y="484.0">45</text><text dominant-baseline="middle" fill="#E8E8E8" font-family="&quot;Arial&quot;, &quot;Helvetica&quot;, sans-serif" font-size="8px" text-anchor="middle" x="237.06829362807696" y="472.90344222460715">50</text><text dominant-baseline="middle" fill="#E8E8E8" font-family="&quot;Arial&quot;, &quot;Helvetica&quot;, sans-serif" font-size="8px" text-anchor="middle" x="181.72707981767675" y="440.9521775338919">55</text><text dominant-baseline="middle" fill="#E8E8E8" font-family="&quot;Arial&quot;, &quot;Helvetica&quot;, sans-serif" font-size="8px" text-anchor="middle" x="140.65132570366328" y="392.0">60</text><text dominant-baseline="middle" fill="#E8E8E8" font-family="&quot;Arial&quot;, &quot;Helvetica&quot;, sans-serif" font-size="8px" text-anchor="middle" x="118.79537344575371" y="331.95126469071516">65</text><text dominant-baseline="middle" fill="#E8E8E8" font-family="&quot;Arial&quot;, &quot;Helvetica&quot;, sans-serif" font-size="8px" text-anchor="middle" x="118.79537344575371" y="268.0487353092848">70</text><text dominant-baseline="middle" fill="#E8E8E8" font-family="&quot;Arial&quot;, &quot;Helvetica&quot;, sans-serif" font-size="8px" text-anchor="middle" x="140.6513257036633" y="208.0">75</text><text dominant-baseline="middle" fill="#E8E8E8" font-family="&quot;Arial&quot;, &quot;Helvetica&quot;, sans-serif" font-size="8px" text-anchor="middle" x="181.72707981767672" y="159.04782246610807">80</text><text dominant-baseline="middle" fill="#E8E8E8" font-family="&quot;Arial&quot;, &quot;Helvetica&quot;, sans-serif" font-size="8px" text-anchor="middle" x="237.068293628077" y="127.09655777539285">85</text><line stroke="#E8E8E8" stroke-width="2.0" x1="299.99999999999994" x2="299.99999999999994" y1="113.0" y2="69.0" /><polygon fill="#E8E8E8" points="299.99999999999994,113.0 303.38094609392556,105.7495377037068 296.6190539060743,105.7495377037068" /><line stroke="#E8E8E8" stroke-width="4.0" x1="299.99999999999994" x2="299.99999999999994" y1="87.0" y2="81.0" /><line stroke="#E8E8E8" stroke-width="2.0" x1="487.0" x2="531.0" y1="300.0" y2="300.0" /><polygon fill="#E8E8E8" points="487.0,300.0 494.2504622962932,303.3809460939256 494.2504622962932,296.6190539060744" /><line stroke="#E8E8E8" stroke-width="4.0" x1="513.0" x2="519.0" y1="300.0" y2="300.0" /><line stroke="#E8E8E8" stroke-width="2.0" x1="300.0" x2="300.0" y1="487.0" y2="531.0" /><polygon fill="#E8E8E8" points="300.0,487.0 296.6190539060744,494.2504622962932 303.3809460939256,494.2504622962932" /><line stroke="#E8E8E8" stroke-width="4.0" x1="300.0" x2="300.0" y1="513.0" y2="519.0" /><line stroke="#E8E8E8" stroke-width="2.0" x1="113.0" x2="69.0" y1="300.0" y2="300.0" /><polygon fill="#E8E8E8" points="113.0,300.0 105.7495377037068,296.6190539060744 105.7495377037068,303.3809460939256" /><line stroke="#E8E8E8" stroke-width="4.0" x1="87.0" x2="81.0" y1="300.0" y2="300.0" /><line stroke="#E8E8E8" stroke-width="1.0" x1="299.99999999999994" x2="299.99999999999994" y1="116.0" y2="108.0" /><line stroke="#4A6FA5" stroke-dasharray="2,2" stroke-width="0.5" x1="299.99999999999994" x2="286.9462564401589" y1="116.0" y2="144.54711395707733" /><text dominant-baseline="middle" fill="#FFD700" font-family="&quot;Symbola&quot;, &quot;Noto Sans Symbols&quot;, &quot;Apple Symbols&quot;, &quot;Segoe UI Symbol&quot;, serif" font-size="18px" text-anchor="middle" x="286.9462564401589" y="144.54711395707733">♈</text><line stroke="#E8E8E8" stroke-width="1.0" x1="320.8896546685824" x2="321.7979005237382" y1="117.18965475710252" y2="109.24137887697651" /><line stroke="#4A6FA5" stroke-dasharray="2,2" stroke-width="0.5" x1="320.8896546685824" x2="328.479303677057" y1="117.18965475710252" y2="146.62161409745514" /><svg height="18.0" viewBox="0 0 12 12" width="18.0" x="319.479303677057" y="137.62161409745514"><defs /><path d="M3.5 4.75h5M6 11V1m3.536 1.464A4.984 4.984 0 0 0 6 1c-1.38 0-2.63.56-3.536 1.464" fill="none" stroke="#FFD700" stroke-linecap="round" stroke-linejoin="round" stroke-width="0.60000002" /></svg><line stroke="#E8E8E8" stroke-width="1.0" x1="450.8434664987951" x2="457.4018780856993" y1="194.63279155910573" y2="190.0516085834147" /><line stroke="#4A6FA5" stroke-dasharray="2,2" stroke-width="0.5" x1="450.8434664987951" x2="426.6292754290998" y1="194.63279155910573" y2="208.89003015969558" /><text dominant-baseline="middle" fill="#FFD700" font-family="&quot;Symbola&quot;, &quot;Noto Sans Symbols&quot;, &quot;Apple Symbols&quot;, &quot;Segoe UI Symbol&quot;, serif" font-size="18px" text-anchor="middle" x="426.6292754290998" y="208.89003015969558">☿</text><line stroke="#E8E8E8" stroke-width="1.0" x1="472.88094722423864" x2="480.39751014703165" y1="237.00652345798017" y2="234.26767665180537" /><text dominant-baseline="middle" fill="#FFD700" font-family="&quot;Symbola&quot;, &quot;Noto Sans Symbols&quot;, &quot;Apple Symbols&quot;, &quot;Segoe UI Symbol&quot;, serif" font-size="18px" text-anchor="middle" x="446.5729769944632" y="246.59248727959186">♀</text><line stroke="#E8E8E8" stroke-width="1.0" x1="483.24421417969535" x2="491.21135392663865" y1="316.6600711182736" y2="317.3844220364594" /><text dominant-baseline="middle" fill="#FFD700" font-family="&quot;Symbola&quot;, &quot;Noto Sans Symbols&quot;, &quot;Apple Symbols&quot;, &quot;Segoe UI Symbol&quot;, serif" font-size="18px" text-anchor="middle" x="455.3592250653939" y="314.1248429046233">♃</text><line stroke="#E8E8E8" stroke-width="1.0" x1="438.52402458022885" x2="444.5468082576301" y1="421.1077809808113" y2="426.37333667562916" /><line stroke="#4A6FA5" stroke-dasharray="2,2" stroke-width="0.5" x1="438.52402458022885" x2="441.19667446238464" y1="421.1077809808113" y2="366.3287201803515" /><svg height="18.0" viewBox="0 0 12 12" width="18.0" x="432.19667446238464" y="357.3287201803515"><defs /><path d="M5.835 5.999c.362.362.862.585 1.415.585S8.303 6.361 8.665 6m-2.83 5a1.994 1.994 0 0 1 1.415-.585c.553 0 1.053.223 1.415.585m-2.226-.426V6.42m1.622 4.155V6.42M2.25 1a4.33 4.33 0 0 1 0 7.5h7.5" fill="none" stroke="#FFD700" stroke-linecap="round" stroke-linejoin="round" stroke-width="0.60000002" /></svg><line stroke="#E8E8E8" stroke-width="1.0" x1="436.37547441288996" x2="442.3048428656243" y1="423.5221841559612" y2="428.8927139018725" /><line stroke="#4A6FA5" stroke-dasharray="2,2" stroke-width="0.5" x1="436.37547441288996" x2="421.288327330793" y1="423.5221841559612" y2="398.1078062811437" /><text dominant-baseline="middle" fill="#FFD700" font-family="&quot;Symbola&quot;, &quot;Noto Sans Symbols&quot;, &quot;Apple Symbols&quot;, &quot;Segoe UI Symbol&quot;, serif" font-size="18px" text-anchor="middle" x="421.288327330793" y="398.1078062811437">♆</text><line stroke="#E8E8E8" stroke-width="1.0" x1="434.063820546892" x2="439.8926823098003" y1="426.0273463196411" y2="431.5067961596255" /><line stroke="#4A6FA5" stroke-dasharray="2,2" stroke-width="0.5" x1="434.063820546892" x2="394.2519555188536" y1="426.0273463196411" y2="424.308362071391" /><text dominant-baseline="middle" fill="#FFD700" font-family="&quot;Symbola&quot;, &quot;Noto Sans Symbols&quot;, &quot;Apple Symbols&quot;, &quot;Segoe UI Symbol&quot;, serif" font-size="18px" text-anchor="middle" x="394.2519555188536" y="424.308362071391">☉</text><line stroke="#E8E8E8" stroke-width="1.0" x1="330.1053601454891" x2="331.4142888474669" y1="481.5204321571277" y2="489.4126248596115" /><line stroke="#4A6FA5" stroke-dasharray="2,2" stroke-width="0.5" x1="330.1053601454891" x2="362.9950388440916" y1="481.5204321571277" y2="442.71518868372556" /><svg height="18.0" viewBox="0 0 12 12" width="18.0" x="353.9950388440916" y="433.71518868372556"><defs /><path d="M8.828 2.172A3.988 3.988 0 0 0 6 1C3.793 1 2 2.793 2 5s1.793 4 4 4a3.988 3.988 0 0 0 2.828-1.172M6 11V3.5M4.5 5h3" fill="none" stroke="#FFD700" stroke-linecap="round" stroke-linejoin="round" stroke-width="0.60000002" /></svg><line stroke="#E8E8E8" stroke-width="1.0" x1="321.22536238876773" x2="322.14820423175763" y1="482.7716717422738" y2="490.7182661658509" /><line stroke="#4A6FA5" stroke-dasharray="2,2" stroke-width="0.5" x1="321.22536238876773" x2="326.61737861695144" y1="482.7716717422738" y2="453.7124430732979" /><svg height="18.0" viewBox="0 0 12 12" width="18.0" x="317.61737861695144" y="444.7124430732979"><defs /><path d="M3.5 3.5 6 1l2.5 2.5M6 1v5.67L8.5 11h-5L6 6.67" fill="none" stroke="#FFD700" stroke-linecap="round" stroke-linejoin="round" stroke-width="0.60000002" /></svg><line stroke="#E8E8E8" stroke-width="1.0" x1="302.50602952241553" x2="302.61498732773794" y1="483.9829334912148" y2="491.9821914690938" /><line stroke="#4A6FA5" stroke-dasharray="2,2" stroke-width="0.5" x1="302.50602952241553" x2="289.06469287275365" y1="483.9829334912148" y2="455.6162557640839" /><text dominant-baseline="middle" fill="#FFD700" font-family="&quot;Symbola&quot;, &quot;Noto Sans Symbols&quot;, &quot;Apple Symbols&quot;, &quot;Segoe UI Symbol&quot;, serif" font-size="18px" text-anchor="middle" x="289.06469287275365" y="455.6162557640839">♅</text><line stroke="#E8E8E8" stroke-width="1.0" x1="294.01698423421" x2="293.75685311395824" y1="483.9027012372203" y2="491.8984708562299" /><line stroke="#4A6FA5" stroke-dasharray="2,2" stroke-width="0.5" x1="294.01698423421" x2="252.14725589215766" y1="483.9027012372203" y2="448.4793415979117" /><text dominant-baseline="middle" fill="#FFD700" font-family="&quot;Symbola&quot;, &quot;Noto Sans Symbols&quot;, &quot;Apple Symbols&quot;, &quot;Segoe UI Symbol&quot;, serif" font-size="18px" text-anchor="middle" x="252.14725589215766" y="448.4793415979117">☽</text><line stroke="#E8E8E8" stroke-width="1.0" x1="196.98208191955345" x2="192.5030420030123" y1="452.45756312617095" y2="459.0861528273088" /><line stroke="#4A6FA5" stroke-dasharray="2,2" stroke-width="0.5" x1="196.98208191955345" x2="214.47195181871376" y1="452.45756312617095" y2="430.46437434909035" /><text dominant-baseline="middle" fill="#FFD700" font-family="&quot;Symbola&quot;, &quot;Noto Sans Symbols&quot;, &quot;Apple Symbols&quot;, &quot;Segoe UI Symbol&quot;, serif" font-size="18px" text-anchor="middle" x="214.47195181871376" y="430.46437434909035">♇</text><line stroke="#E8E8E8" stroke-width="1.0" x1="189.82699411092355" x2="185.03686342009414" y1="447.369972427783" y2="453.77736253333876" /><line stroke="#4A6FA5" stroke-dasharray="2,2" stroke-width="0.5" x1="189.82699411092355" x2="182.65629001628054" y1="447.369972427783" y2="402.793257207157" /><text dominant-baseline="middle" fill="#FFD700" font-family="&quot;Symbola&quot;, &quot;Noto Sans Symbols&quot;, &quot;Apple Symbols&quot;, &quot;Segoe UI Symbol&quot;, serif" font-size="18px" text-anchor="middle" x="182.65629001628054" y="402.793257207157">♄</text><line stroke="#E8E8E8" stroke-width="1.0" x1="123.74635140162755" x2="116.08314928865482" y1="352.8266159787037" y2="355.12342536908216" /><svg height="18.0" viewBox="0 0 12 12" width="18.0" x="141.56755879703204" y="335.7877831123792"><defs /><path d="M2.113 11A5.776 5.776 0 0 0 5 6a5.776 5.776 0 0 0-2.887-5m7.773 10A5.776 5.776 0 0 1 7 6a5.776 5.776 0 0 1 2.886-5M1 6h10" fill="none" stroke="#FFD700" stroke-linecap="round" stroke-linejoin="round" stroke-width="0.59999996" /></svg><line stroke="#E8E8E8" stroke-width="1.0" x1="116.00017550733048" x2="108.00018313808397" y1="299.7458609301667" y2="299.7348114053913" /><svg height="18.0" viewBox="0 0 12 12" width="18.0" x="135.00014879969325" y="290.7845342668805"><defs /><path d="M6 11V3M4 5h4m0 0a1.999 1.999 0 1 0-4 0 1.999 1.999 0 1 0 4 0ZM4 1a1.999 1.999 0 1 0 4 0" fill="none" stroke="#FFD700" stroke-linecap="round" stroke-linejoin="round" stroke-width="0.60000002" /></svg><line stroke="#E8E8E8" stroke-width="1.0" x1="127.7925387080337" x2="120.30525778229605" y1="235.1880391025242" y2="232.37012775915568" /><svg height="18.0" viewBox="0 0 12 12" width="18.0" x="144.99802194811554" y="236.050728804314"><defs /><path d="M6 10h2.5m0-5.25a1.25 1.25 0 1 0-2.5 0C6 5.442 6.559 6 7.25 6S8.5 5.442 8.5 4.75zM2.25 1a4.33 4.33 0 0 1 0 7.5h7.5M7.25 6v5" fill="none" stroke="#FFD700" stroke-linecap="round" stroke-linejoin="round" stroke-width="0.60000002" /></svg><line stroke="#E8E8E8" stroke-width="1.0" x1="195.75053003628472" x2="191.21794438568838" y1="148.38190077604713" y2="141.78980950544047" /><line stroke="#4A6FA5" stroke-dasharray="2,2" stroke-width="0.5" x1="195.75053003628472" x2="209.8284159106875" y1="148.38190077604713" y2="172.70080352640065" /><text dominant-baseline="middle" fill="#FFD700" font-family="&quot;Symbola&quot;, &quot;Noto Sans Symbols&quot;, &quot;Apple Symbols&quot;, &quot;Segoe UI Symbol&quot;, serif" font-size="18px" text-anchor="middle" x="209.8284159106875" y="172.70080352640065">♂</text><line stroke="#E8E8E8" stroke-width="1.0" x1="239.49902885766048" x2="236.8685518514718" y1="126.23109458008952" y2="118.67592477922383" /><line stroke="#4A6FA5" stroke-dasharray="2,2" stroke-width="0.5" x1="239.49902885766048" x2="246.6537087987636" y1="126.23109458008952" y2="153.40472990211148" /><svg height="18.0" viewBox="0 0 12 12" width="18.0" x="237.6537087987636" y="144.40472990211148"><defs /><path d="m3.5 7 5 4m-5 0 5-4m-5-3.5L6 1l2.5 2.5M6 9V1" fill="none" stroke="#FFD700" stroke-linecap="round" stroke-linejoin="round" stroke-width="0.60000002" /></svg></svg>