<?xml version="1.0" encoding="utf-8" ?>
<svg baseProfile="full" height="600px" version="1.1" viewBox="0 0 600 600" width="600px" xmlns="http://www.w3.org/2000/svg" xmlns:ev="http://www.w3.org/2001/xml-events" xmlns:xlink="http://www.w3.org/1999/xlink"><defs /><rect fill="#FFFFFF" height="600px" width="600px" x="0" y="0" /><circle cx="300" cy="300" fill="none" r="216.0" stroke="#BBBBBB" stroke-width="1" /><path d="M 300.0 180.0 A 120.0 120.0 0 0 1 403.92304845413264 360.0 L 341.56921938165306 324.0 A 48.0 48.0 0 0 0 300.0 252.0 Z" fill="#F5F5F5" stroke="none" /><path d="M 403.92304845413264 360.0 A 120.0 120.0 0 0 1 196.07695154586736 360.0 L 258.43078061834694 324.0 A 48.0 48.0 0 0 0 341.56921938165306 324.0 Z" fill="#FFFFFF" stroke="none" /><path d="M 196.07695154586736 360.0 A 120.0 120.0 0 0 1 300.0 180.0 L 300.0 252.0 A 48.0 48.0 0 0 0 258.43078061834694 324.0 Z" fill="#F5F5F5" stroke="none" /><line stroke="#CCCCCC" stroke-width="1.0" x1="300.0" x2="300.0" y1="252.0" y2="180.0" /><line stroke="#CCCCCC" stroke-width="1.0" x1="341.56921938165306" x2="403.92304845413264" y1="324.0" y2="360.0" /><line stroke="#CCCCCC" stroke-width="1.0" x1="258.43078061834694" x2="196.07695154586736" y1="324.0" y2="360.0" /><text dominant-baseline="middle" fill="#555555" font-family="&quot;Symbola&quot;, &quot;Noto Sans Symbols&quot;, &quot;Apple Symbols&quot;, &quot;Segoe UI Symbol&quot;, serif" font-size="14px" text-anchor="middle" x="354.1833528958018" y="243.89149557358522">♈</text><text dominant-baseline="middle" fill="#555555" font-family="&quot;Symbola&quot;, &quot;Noto Sans Symbols&quot;, &quot;Apple Symbols&quot;, &quot;Segoe UI Symbol&quot;, serif" font-size="14px" text-anchor="middle" x="375.68306664952775" y="281.1300921432259">♋</text><text dominant-baseline="middle" fill="#555555" font-family="&quot;Symbola&quot;, &quot;Noto Sans Symbols&quot;, &quot;Apple Symbols&quot;, &quot;Segoe UI Symbol&quot;, serif" font-size="14px" text-anchor="middle" x="362.51925334130976" y="235.2594179695214">♎</text><text dominant-baseline="middle" fill="#555555" font-family="&quot;Symbola&quot;, &quot;Noto Sans Symbols&quot;, &quot;Apple Symbols&quot;, &quot;Segoe UI Symbol&quot;, serif" font-size="14px" text-anchor="middle" x="387.32661536483965" y="278.2270293960299">♑</text><text dominant-baseline="middle" fill="#555555" font-family="&quot;Symbola&quot;, &quot;Noto Sans Symbols&quot;, &quot;Apple Symbols&quot;, &quot;Segoe UI Symbol&quot;, serif" font-size="14px" text-anchor="middle" x="321.4997137537259" y="374.97841228318885">♉</text><text dominant-baseline="middle" fill="#555555" font-family="&quot;Symbola&quot;, &quot;Noto Sans Symbols&quot;, &quot;Apple Symbols&quot;, &quot;Segoe UI Symbol&quot;, serif" font-size="14px" text-anchor="middle" x="278.5002862462741" y="374.97841228318885">♌</text><text dominant-baseline="middle" fill="#555555" font-family="&quot;Symbola&quot;, &quot;Noto Sans Symbols&quot;, &quot;Apple Symbols&quot;, &quot;Segoe UI Symbol&quot;, serif" font-size="14px" text-anchor="middle" x="324.80736202352995" y="386.51355263444873">♏</text><text dominant-baseline="middle" fill="#555555" font-family="&quot;Symbola&quot;, &quot;Noto Sans Symbols&quot;, &quot;Apple Symbols&quot;, &quot;Segoe UI Symbol&quot;, serif" font-size="14px" text-anchor="middle" x="275.1926379764701" y="386.51355263444873">♒</text><text dominant-baseline="middle" fill="#555555" font-family="&quot;Symbola&quot;, &quot;Noto Sans Symbols&quot;, &quot;Apple Symbols&quot;, &quot;Segoe UI Symbol&quot;, serif" font-size="14px" text-anchor="middle" x="224.31693335047225" y="281.1300921432259">♊</text><text dominant-baseline="middle" fill="#555555" font-family="&quot;Symbola&quot;, &quot;Noto Sans Symbols&quot;, &quot;Apple Symbols&quot;, &quot;Segoe UI Symbol&quot;, serif" font-size="14px" text-anchor="middle" x="245.8166471041982" y="243.89149557358522">♍</text><text dominant-baseline="middle" fill="#555555" font-family="&quot;Symbola&quot;, &quot;Noto Sans Symbols&quot;, &quot;Apple Symbols&quot;, &quot;Segoe UI Symbol&quot;, serif" font-size="14px" text-anchor="middle" x="212.67338463516032" y="278.22702939602993">♐</text><text dominant-baseline="middle" fill="#555555" font-family="&quot;Symbola&quot;, &quot;Noto Sans Symbols&quot;, &quot;Apple Symbols&quot;, &quot;Segoe UI Symbol&quot;, serif" font-size="14px" text-anchor="middle" x="237.48074665869024" y="235.2594179695214">♓</text><line stroke="#BBBBBB" stroke-width="0.5" x1="299.99999999999994" x2="299.99999999999994" y1="100.80000000000001" y2="84.0" /><line stroke="#BBBBBB" stroke-width="0.5" x1="314.56515171777335" x2="315.06739832873103" y1="91.70862630574868" y2="84.52616514387796" /><line stroke="#BBBBBB" stroke-width="0.5" x1="329.0593434804617" x2="330.06138980737416" y1="93.23202724676008" y2="86.1020971518208" /><line stroke="#BBBBBB" stroke-width="0.5" x1="343.4119610427482" x2="344.908925216636" y1="95.76278096678138" y2="88.720118241498" /><line stroke="#BBBBBB" stroke-width="0.5" x1="357.5530798945895" x2="359.5376688564719" y1="99.28855788807903" y2="92.36747367732315" /><line stroke="#BBBBBB" stroke-width="0.5" x1="369.7721092384365" x2="373.8763509583445" y1="108.30270535967469" y2="97.0263939102438" /><line stroke="#BBBBBB" stroke-width="0.5" x1="384.926611074227" x2="387.8551149043727" y1="109.25170844422487" y2="102.67418114919818" /><line stroke="#BBBBBB" stroke-width="0.5" x1="398.0256623096939" x2="401.4058575617523" y1="115.64054261105602" y2="109.28331994247173" /><line stroke="#BBBBBB" stroke-width="0.5" x1="410.64714237189315" x2="414.4625610743722" y1="122.9275575225382" y2="116.82161123021194" /><line stroke="#BBBBBB" stroke-width="0.5" x1="422.72956067866835" x2="426.96161449517416" y1="131.07725157451094" y2="125.25232921501132" /><line stroke="#BBBBBB" stroke-width="0.5" x1="428.0432918495586" x2="438.8421236922925" y1="147.40394693069956" y2="134.53440028630072" /><line stroke="#BBBBBB" stroke-width="0.5" x1="445.04466775183863" x2="450.0462080191434" y1="149.8018496892896" y2="144.62260312685135" /><line stroke="#BBBBBB" stroke-width="0.5" x1="455.16863955967995" x2="460.51928230311717" y1="160.2855293922704" y2="155.46778902648666" /><line stroke="#BBBBBB" stroke-width="0.5" x1="464.5366453530836" x2="470.210322779052" y1="171.44988395200255" y2="167.01712132965784" /><line stroke="#BBBBBB" stroke-width="0.5" x1="473.10304514949274" x2="479.07211567188904" y1="183.24052175530812" y2="179.21433285031873" /><line stroke="#BBBBBB" stroke-width="0.5" x1="476.66918237202543" x2="487.0614872174387" y1="197.99999999999991" y2="191.9999999999999" /><line stroke="#BBBBBB" stroke-width="0.5" x1="487.66819686726603" x2="494.13951400062" y1="208.46810455044056" y2="205.31183229355918" /><line stroke="#BBBBBB" stroke-width="0.5" x1="493.5959888335452" x2="500.271712586426" y1="221.7821432947575" y2="219.08497582216293" /><line stroke="#BBBBBB" stroke-width="0.5" x1="498.58060060242804" x2="505.4282075197532" y1="235.47725157451092" y2="233.2523292150113" /><line stroke="#BBBBBB" stroke-width="0.5" x1="502.59774764642805" x2="509.58387687561526" y1="249.48670819878936" y2="247.74487055047175" /><line stroke="#BBBBBB" stroke-width="0.5" x1="496.17370440003185" x2="512.718474650637" y1="265.4092830087475" y2="262.491993623943" /><line stroke="#BBBBBB" stroke-width="0.5" x1="507.6561717528955" x2="514.8167293995471" y1="278.17445686971394" y2="277.42185193418686" /><line stroke="#BBBBBB" stroke-width="0.5" x1="508.6728046815872" x2="515.8684186361247" y1="292.7129850885178" y2="292.46170871225985" /><line stroke="#BBBBBB" stroke-width="0.5" x1="508.6728046815872" x2="515.8684186361247" y1="307.2870149114822" y2="307.5382912877402" /><line stroke="#BBBBBB" stroke-width="0.5" x1="507.6561717528955" x2="514.8167293995471" y1="321.82554313028606" y2="322.57814806581314" /><line stroke="#BBBBBB" stroke-width="0.5" x1="500.9007816144904" x2="512.718474650637" y1="335.4242282440538" y2="337.508006376057" /><line stroke="#BBBBBB" stroke-width="0.5" x1="502.59774764642805" x2="509.58387687561526" y1="350.51329180121064" y2="352.2551294495282" /><line stroke="#BBBBBB" stroke-width="0.5" x1="498.58060060242804" x2="505.4282075197532" y1="364.522748425489" y2="366.74767078498866" /><line stroke="#BBBBBB" stroke-width="0.5" x1="493.5959888335452" x2="500.2717125864261" y1="378.2178567052424" y2="380.915024177837" /><line stroke="#BBBBBB" stroke-width="0.5" x1="487.6681968672661" x2="494.13951400062007" y1="391.5318954495594" y2="394.6881677064407" /><line stroke="#BBBBBB" stroke-width="0.5" x1="472.5122604338602" x2="487.06148721743875" y1="399.59999999999997" y2="408.0" /><line stroke="#BBBBBB" stroke-width="0.5" x1="473.1030451494927" x2="479.07211567188904" y1="416.759478244692" y2="420.78566714968133" /><line stroke="#BBBBBB" stroke-width="0.5" x1="464.53664535308354" x2="470.2103227790519" y1="428.55011604799745" y2="432.9828786703422" /><line stroke="#BBBBBB" stroke-width="0.5" x1="455.16863955967995" x2="460.51928230311717" y1="439.7144706077296" y2="444.5322109735134" /><line stroke="#BBBBBB" stroke-width="0.5" x1="445.04466775183863" x2="450.0462080191434" y1="450.1981503107104" y2="455.37739687314865" /><line stroke="#BBBBBB" stroke-width="0.5" x1="431.12867237605406" x2="438.8421236922925" y1="456.2730663962715" y2="465.46559971369925" /><line stroke="#BBBBBB" stroke-width="0.5" x1="422.7295606786684" x2="426.9616144951742" y1="468.92274842548903" y2="474.74767078498866" /><line stroke="#BBBBBB" stroke-width="0.5" x1="410.6471423718932" x2="414.4625610743723" y1="477.0724424774618" y2="483.178388769788" /><line stroke="#BBBBBB" stroke-width="0.5" x1="398.025662309694" x2="401.40585756175244" y1="484.35945738894395" y2="490.7166800575282" /><line stroke="#BBBBBB" stroke-width="0.5" x1="384.9266110742271" x2="387.85511490437284" y1="490.74829155577504" y2="497.3258188508018" /><line stroke="#BBBBBB" stroke-width="0.5" x1="368.13041255047324" x2="373.87635095834446" y1="487.18677006055293" y2="502.97360608975623" /><line stroke="#BBBBBB" stroke-width="0.5" x1="357.5530798945894" x2="359.53766885647184" y1="500.711442111921" y2="507.6325263226769" /><line stroke="#BBBBBB" stroke-width="0.5" x1="343.4119610427482" x2="344.908925216636" y1="504.2372190332186" y2="511.27988175850203" /><line stroke="#BBBBBB" stroke-width="0.5" x1="329.0593434804617" x2="330.06138980737416" y1="506.7679727532399" y2="513.8979028481792" /><line stroke="#BBBBBB" stroke-width="0.5" x1="314.56515171777335" x2="315.06739832873103" y1="508.2913736942513" y2="515.473834856122" /><line stroke="#BBBBBB" stroke-width="0.5" x1="300.0" x2="300.0" y1="504.0" y2="516.0" /><line stroke="#BBBBBB" stroke-width="0.5" x1="285.43484828222665" x2="284.9326016712689" y1="508.2913736942513" y2="515.473834856122" /><line stroke="#BBBBBB" stroke-width="0.5" x1="270.9406565195384" x2="269.9386101926259" y1="506.7679727532399" y2="513.8979028481792" /><line stroke="#BBBBBB" stroke-width="0.5" x1="256.58803895725185" x2="255.09107478336398" y1="504.23721903321865" y2="511.27988175850203" /><line stroke="#BBBBBB" stroke-width="0.5" x1="242.44692010541058" x2="240.46233114352822" y1="500.711442111921" y2="507.6325263226769" /><line stroke="#BBBBBB" stroke-width="0.5" x1="231.8695874495268" x2="226.12364904165554" y1="487.18677006055293" y2="502.97360608975623" /><line stroke="#BBBBBB" stroke-width="0.5" x1="215.07338892577292" x2="212.14488509562716" y1="490.74829155577504" y2="497.3258188508018" /><line stroke="#BBBBBB" stroke-width="0.5" x1="201.97433769030596" x2="198.59414243824756" y1="484.35945738894395" y2="490.7166800575282" /><line stroke="#BBBBBB" stroke-width="0.5" x1="189.35285762810685" x2="185.53743892562778" y1="477.0724424774618" y2="483.17838876978806" /><line stroke="#BBBBBB" stroke-width="0.5" x1="177.27043932133162" x2="173.03838550482584" y1="468.92274842548903" y2="474.74767078498866" /><line stroke="#BBBBBB" stroke-width="0.5" x1="168.87132762394597" x2="161.1578763077075" y1="456.2730663962715" y2="465.46559971369925" /><line stroke="#BBBBBB" stroke-width="0.5" x1="154.95533224816134" x2="149.95379198085658" y1="450.1981503107104" y2="455.37739687314865" /><line stroke="#BBBBBB" stroke-width="0.5" x1="144.8313604403201" x2="139.4807176968829" y1="439.71447060772965" y2="444.53221097351343" /><line stroke="#BBBBBB" stroke-width="0.5" x1="135.46335464691646" x2="129.78967722094808" y1="428.55011604799745" y2="432.9828786703422" /><line stroke="#BBBBBB" stroke-width="0.5" x1="126.89695485050731" x2="120.92788432811102" y1="416.759478244692" y2="420.78566714968133" /><line stroke="#BBBBBB" stroke-width="0.5" x1="127.48773956613982" x2="112.93851278256125" y1="399.59999999999997" y2="408.0" /><line stroke="#BBBBBB" stroke-width="0.5" x1="112.33180313273391" x2="105.86048599937993" y1="391.53189544955933" y2="394.6881677064407" /><line stroke="#BBBBBB" stroke-width="0.5" x1="106.40401116645481" x2="99.72828741357395" y1="378.21785670524247" y2="380.91502417783704" /><line stroke="#BBBBBB" stroke-width="0.5" x1="101.41939939757194" x2="94.57179248024684" y1="364.52274842548906" y2="366.74767078498866" /><line stroke="#BBBBBB" stroke-width="0.5" x1="97.40225235357192" x2="90.41612312438477" y1="350.51329180121064" y2="352.2551294495282" /><line stroke="#BBBBBB" stroke-width="0.5" x1="99.09921838550957" x2="87.28152534936308" y1="335.4242282440538" y2="337.5080063760569" /><line stroke="#BBBBBB" stroke-width="0.5" x1="92.34382824710454" x2="85.18327060045297" y1="321.8255431302861" y2="322.5781480658132" /><line stroke="#BBBBBB" stroke-width="0.5" x1="91.3271953184128" x2="84.13158136387531" y1="307.28701491148223" y2="307.53829128774026" /><line stroke="#BBBBBB" stroke-width="0.5" x1="91.3271953184128" x2="84.13158136387531" y1="292.7129850885178" y2="292.4617087122598" /><line stroke="#BBBBBB" stroke-width="0.5" x1="92.34382824710454" x2="85.18327060045297" y1="278.17445686971394" y2="277.42185193418686" /><line stroke="#BBBBBB" stroke-width="0.5" x1="103.82629559996818" x2="87.28152534936308" y1="265.4092830087475" y2="262.491993623943" /><line stroke="#BBBBBB" stroke-width="0.5" x1="97.40225235357192" x2="90.41612312438477" y1="249.48670819878942" y2="247.74487055047183" /><line stroke="#BBBBBB" stroke-width="0.5" x1="101.41939939757191" x2="94.57179248024681" y1="235.477251574511" y2="233.2523292150114" /><line stroke="#BBBBBB" stroke-width="0.5" x1="106.40401116645478" x2="99.72828741357392" y1="221.78214329475756" y2="219.08497582216302" /><line stroke="#BBBBBB" stroke-width="0.5" x1="112.33180313273394" x2="105.86048599937993" y1="208.46810455044061" y2="205.31183229355926" /><line stroke="#BBBBBB" stroke-width="0.5" x1="123.33081762797454" x2="112.93851278256128" y1="197.99999999999997" y2="191.99999999999997" /><line stroke="#BBBBBB" stroke-width="0.5" x1="126.89695485050726" x2="120.92788432811096" y1="183.24052175530807" y2="179.21433285031873" /><line stroke="#BBBBBB" stroke-width="0.5" x1="135.46335464691643" x2="129.78967722094805" y1="171.44988395200255" y2="167.01712132965784" /><line stroke="#BBBBBB" stroke-width="0.5" x1="144.83136044032008" x2="139.48071769688283" y1="160.2855293922704" y2="155.46778902648663" /><line stroke="#BBBBBB" stroke-width="0.5" x1="154.95533224816137" x2="149.95379198085658" y1="149.8018496892896" y2="144.62260312685135" /><line stroke="#BBBBBB" stroke-width="0.5" x1="171.95670815044136" x2="161.15787630770748" y1="147.40394693069962" y2="134.53440028630078" /><line stroke="#BBBBBB" stroke-width="0.5" x1="177.2704393213316" x2="173.03838550482578" y1="131.077251574511" y2="125.25232921501137" /><line stroke="#BBBBBB" stroke-width="0.5" x1="189.3528576281068" x2="185.53743892562773" y1="122.92755752253825" y2="116.821611230212" /><line stroke="#BBBBBB" stroke-width="0.5" x1="201.97433769030602" x2="198.59414243824762" y1="115.64054261105605" y2="109.28331994247176" /><line stroke="#BBBBBB" stroke-width="0.5" x1="215.07338892577292" x2="212.14488509562716" y1="109.2517084442249" y2="102.67418114919818" /><line stroke="#BBBBBB" stroke-width="0.5" x1="230.22789076156363" x2="226.1236490416556" y1="108.30270535967469" y2="97.02639391024377" /><line stroke="#BBBBBB" stroke-width="0.5" x1="242.44692010541064" x2="240.46233114352825" y1="99.28855788807897" y2="92.36747367732309" /><line stroke="#BBBBBB" stroke-width="0.5" x1="256.58803895725174" x2="255.0910747833639" y1="95.76278096678138" y2="88.720118241498" /><line stroke="#BBBBBB" stroke-width="0.5" x1="270.94065651953827" x2="269.9386101926258" y1="93.23202724676011" y2="86.10209715182083" /><line stroke="#BBBBBB" stroke-width="0.5" x1="285.4348482822266" x2="284.93260167126886" y1="91.70862630574871" y2="84.52616514387796" /><text dominant-baseline="middle" fill="#555555" font-family="&quot;Arial&quot;, &quot;Helvetica&quot;, sans-serif" font-size="8px" text-anchor="middle" x="299.99999999999994" y="116.0">0</text><text dominant-baseline="middle" fill="#555555" font-family="&quot;Arial&quot;, &quot;Helvetica&quot;, sans-serif" font-size="8px" text-anchor="middle" x="362.9317063719231" y="127.09655777539288">5</text><text dominant-baseline="middle" fill="#555555" font-family="&quot;Arial&quot;, &quot;Helvetica&quot;, sans-serif" font-size="8px" text-anchor="middle" x="418.2729201823232" y="159.04782246610802">10</text><text dominant-baseline="middle" fill="#555555" font-family="&quot;Arial&quot;, &quot;Helvetica&quot;, sans-serif" font-size="8px" text-anchor="middle" x="459.34867429633664" y="207.99999999999991">15</text><text dominant-baseline="middle" fill="#555555" font-family="&quot;Arial&quot;, &quot;Helvetica&quot;, sans-serif" font-size="8px" text-anchor="middle" x="481.20462655424626" y="268.0487353092848">20</text><text dominant-baseline="middle" fill="#555555" font-family="&quot;Arial&quot;, &quot;Helvetica&quot;, sans-serif" font-size="8px" text-anchor="middle" x="481.20462655424626" y="331.95126469071516">25</text><text dominant-baseline="middle" fill="#555555" font-family="&quot;Arial&quot;, &quot;Helvetica&quot;, sans-serif" font-size="8px" text-anchor="middle" x="459.34867429633675" y="392.0">30</text><text dominant-baseline="middle" fill="#555555" font-family="&quot;Arial&quot;, &quot;Helvetica&quot;, sans-serif" font-size="8px" text-anchor="middle" x="418.2729201823232" y="440.9521775338919">35</text><text dominant-baseline="middle" fill="#555555" font-family="&quot;Arial&quot;, &quot;Helvetica&quot;, sans-serif" font-size="8px" text-anchor="middle" x="362.93170637192304" y="472.90344222460715">40</text><text dominant-baseline="middle" fill="#555555" font-family="&quot;Arial&quot;, &quot;Helvetica&quot;, sans-serif" font-size="8px" text-anchor="middle" x="300.0" y="484.0">45</text><text dominant-baseline="middle" fill="#555555" font-family="&quot;Arial&quot;, &quot;Helvetica&quot;, sans-serif" font-size="8px" text-anchor="middle" x="237.06829362807696" y="472.90344222460715">50</text><text dominant-baseline="middle" fill="#555555" font-family="&quot;Arial&quot;, &quot;Helvetica&quot;, sans-serif" font-size="8px" text-anchor="middle" x="181.72707981767675" y="440.9521775338919">55</text><text dominant-baseline="middle" fill="#555555" font-family="&quot;Arial&quot;, &quot;Helvetica&quot;, sans-serif" font-size="8px" text-anchor="middle" x="140.65132570366328" y="392.0">60</text><text dominant-baseline="middle" fill="#555555" font-family="&quot;Arial&quot;, &quot;Helvetica&quot;, sans-serif" font-size="8px" text-anchor="middle" x="118.79537344575371" y="331.95126469071516">65</text><text dominant-baseline="middle" fill="#555555" font-family="&quot;Arial&quot;, &quot;Helvetica&quot;, sans-serif" font-size="8px" text-anchor="middle" x="118.79537344575371" y="268.0487353092848">70</text><text dominant-baseline="middle" fill="#555555" font-family="&quot;Arial&quot;, &quot;Helvetica&quot;, sans-serif" font-size="8px" text-anchor="middle" x="140.6513257036633" y="208.0">75</text><text dominant-baseline="middle" fill="#555555" font-family="&quot;Arial&quot;, &quot;Helvetica&quot;, sans-serif" font-size="8px" text-anchor="middle" x="181.72707981767672" y="159.04782246610807">80</text><text dominant-baseline="middle" fill="#555555" font-family="&quot;Arial&quot;, &quot;Helvetica&quot;, sans-serif" font-size="8px" text-anchor="middle" x="237.068293628077" y="127.09655777539285">85</text><line stroke="#555555" stroke-width="2.0" x1="299.99999999999994" x2="299.99999999999994" y1="113.0" y2="69.0" /><polygon fill="#555555" points="299.99999999999994,113.0 303.38094609392556,105.7495377037068 296.6190539060743,105.7495377037068" /><line stroke="#555555" stroke-width="4.0" x1="299.99999999999994" x2="299.99999999999994" y1="87.0" y2="81.0" /><line stroke="#555555" stroke-width="2.0" x1="487.0" x2="531.0" y1="300.0" y2="300.0" /><polygon fill="#555555" points="487.0,300.0 494.2504622962932,303.3809460939256 494.2504622962932,296.6190539060744" /><line stroke="#555555" stroke-width="4.0" x1="513.0" x2="519.0" y1="300.0" y2="300.0" /><line stroke="#555555" stroke-width="2.0" x1="300.0" x2="300.0" y1="487.0" y2="531.0" /><polygon fill="#555555" points="300.0,487.0 296.6190539060744,494.2504622962932 303.3809460939256,494.2504622962932" /><line stroke="#555555" stroke-width="4.0" x1="300.0" x2="300.0" y1="513.0" y2="519.0" /><line stroke="#555555" stroke-width="2.0" x1="113.0" x2="69.0" y1="300.0" y2="300.0" /><polygon fill="#555555" points="113.0,300.0 105.7495377037068,296.6190539060744 105.7495377037068,303.3809460939256" /><line stroke="#555555" stroke-width="4.0" x1="87.0" x2="81.0" y1="300.0" y2="300.0" /><line stroke="#444444" stroke-width="1.0" x1="342.8543377542752" x2="344.71756983054803" y1="121.0600499171789" y2="113.28005208749101" /><line stroke="#CCCCCC" stroke-dasharray="2,2" stroke-width="0.5" x1="342.8543377542752" x2="374.8386780848216" y1="121.0600499171789" y2="163.12351457421022" /><text dominant-baseline="middle" fill="#222222" font-family="&quot;Symbola&quot;, &quot;Noto Sans Symbols&quot;, &quot;Apple Symbols&quot;, &quot;Segoe UI Symbol&quot;, serif" font-size="18px" text-anchor="middle" x="374.8386780848216" y="163.12351457421022">♂</text><line stroke="#444444" stroke-width="1.0" x1="418.79529381659074" x2="423.9603065912251" y1="159.48780064695495" y2="153.3785745881269" /><line stroke="#CCCCCC" stroke-dasharray="2,2" stroke-width="0.5" x1="418.79529381659074" x2="408.78248804041243" y1="159.48780064695495" y2="188.1860013426873" /><text dominant-baseline="middle" fill="#222222" font-family="&quot;Symbola&quot;, &quot;Noto Sans Symbols&quot;, &quot;Apple Symbols&quot;, &quot;Segoe UI Symbol&quot;, serif" font-size="18px" text-anchor="middle" x="408.78248804041243" y="188.1860013426873">🝻</text><line stroke="#444444" stroke-width="1.0" x1="481.29388567222725" x2="489.1762285275414" y1="268.5591504907166" y2="267.1921570337912" /><line stroke="#CCCCCC" stroke-dasharray="2,2" stroke-width="0.5" x1="481.29388567222725" x2="451.97802344249715" y1="268.5591504907166" y2="264.8051084600082" /><svg height="18.0" viewBox="0 0 12 12" width="18.0" x="442.97802344249715" y="255.80510846000823"><defs /><path d="M5.835 5.999c.362.362.862.585 1.415.585S8.303 6.361 8.665 6m-2.83 5a1.994 1.994 0 0 1 1.415-.585c.553 0 1.053.223 1.415.585m-2.226-.426V6.42m1.622 4.155V6.42M2.25 1a4.33 4.33 0 0 1 0 7.5h7.5" fill="none" stroke="#222222" stroke-linecap="round" stroke-linejoin="round" stroke-width="0.60000002" /></svg><line stroke="#444444" stroke-width="1.0" x1="483.0353280862138" x2="490.99338582909263" y1="318.8167125814286" y2="319.6348305197516" /><line stroke="#CCCCCC" stroke-dasharray="2,2" stroke-width="0.5" x1="483.0353280862138" x2="455.83069766127613" y1="318.8167125814286" y2="307.2659250202535" /><svg height="18.0" viewBox="0 0 12 12" width="18.0" x="446.83069766127613" y="298.2659250202535"><defs /><path d="M8.828 2.172A3.988 3.988 0 0 0 6 1C3.793 1 2 2.793 2 5s1.793 4 4 4a3.988 3.988 0 0 0 2.828-1.172M6 11V3.5M4.5 5h3" fill="none" stroke="#222222" stroke-linecap="round" stroke-linejoin="round" stroke-width="0.60000002" /></svg><line stroke="#444444" stroke-width="1.0" x1="477.9044162445936" x2="485.6393908639238" y1="346.9682731284681" y2="349.0103719601406" /><line stroke="#CCCCCC" stroke-dasharray="2,2" stroke-width="0.5" x1="477.9044162445936" x2="448.373958324608" y1="346.9682731284681" y2="348.178506526121" /><text dominant-baseline="middle" fill="#222222" font-family="&quot;Symbola&quot;, &quot;Noto Sans Symbols&quot;, &quot;Apple Symbols&quot;, &quot;Segoe UI Symbol&quot;, serif" font-size="18px" text-anchor="middle" x="448.373958324608" y="348.178506526121">♀</text><line stroke="#444444" stroke-width="1.0" x1="442.4286341847142" x2="448.62118349709306" y1="416.49070419684506" y2="421.5555174227949" /><line stroke="#CCCCCC" stroke-dasharray="2,2" stroke-width="0.5" x1="442.4286341847142" x2="427.34997764395206" y1="416.49070419684506" y2="390.09985124341165" /><svg height="18.0" viewBox="0 0 12 12" width="18.0" x="418.34997764395206" y="381.09985124341165"><defs /><path d="M3.5 3.5 6 1l2.5 2.5M6 1v5.67L8.5 11h-5L6 6.67" fill="none" stroke="#222222" stroke-linecap="round" stroke-linejoin="round" stroke-width="0.60000002" /></svg><line stroke="#444444" stroke-width="1.0" x1="423.6496121419682" x2="429.02568223509724" y1="436.2599479566201" y2="442.18429351995144" /><line stroke="#CCCCCC" stroke-dasharray="2,2" stroke-width="0.5" x1="423.6496121419682" x2="398.22114210938116" y1="436.2599479566201" y2="421.19656448401804" /><text dominant-baseline="middle" fill="#222222" font-family="&quot;Symbola&quot;, &quot;Noto Sans Symbols&quot;, &quot;Apple Symbols&quot;, &quot;Segoe UI Symbol&quot;, serif" font-size="18px" text-anchor="middle" x="398.22114210938116" y="421.19656448401804">♇</text><line stroke="#444444" stroke-width="1.0" x1="299.09825899415665" x2="299.0590528634678" y1="483.99779037574984" y2="491.99769430513027" /><line stroke="#CCCCCC" stroke-dasharray="2,2" stroke-width="0.5" x1="299.09825899415665" x2="342.2640077770403" y1="483.99779037574984" y2="450.16575390754804" /><svg height="18.0" viewBox="0 0 12 12" width="18.0" x="333.2640077770403" y="441.16575390754804"><defs /><path d="M6 10h2.5m0-5.25a1.25 1.25 0 1 0-2.5 0C6 5.442 6.559 6 7.25 6S8.5 5.442 8.5 4.75zM2.25 1a4.33 4.33 0 0 1 0 7.5h7.5M7.25 6v5" fill="none" stroke="#222222" stroke-linecap="round" stroke-linejoin="round" stroke-width="0.60000002" /></svg><line stroke="#444444" stroke-width="1.0" x1="282.969802542941" x2="282.22935917524285" y1="483.21018632863615" y2="491.1758466037943" /><line stroke="#CCCCCC" stroke-dasharray="2,2" stroke-width="0.5" x1="282.969802542941" x2="307.3196802499289" y1="483.21018632863615" y2="455.8281819217525" /><text dominant-baseline="middle" fill="#222222" font-family="&quot;Symbola&quot;, &quot;Noto Sans Symbols&quot;, &quot;Apple Symbols&quot;, &quot;Segoe UI Symbol&quot;, serif" font-size="18px" text-anchor="middle" x="307.3196802499289" y="455.8281819217525">☉</text><line stroke="#444444" stroke-width="1.0" x1="230.06709236938786" x2="227.0265311680569" y1="470.19221025161016" y2="477.59187156689757" /><line stroke="#CCCCCC" stroke-dasharray="2,2" stroke-width="0.5" x1="230.06709236938786" x2="269.8649774698279" y1="470.19221025161016" y2="453.0616882734083" /><text dominant-baseline="middle" fill="#222222" font-family="&quot;Symbola&quot;, &quot;Noto Sans Symbols&quot;, &quot;Apple Symbols&quot;, &quot;Segoe UI Symbol&quot;, serif" font-size="18px" text-anchor="middle" x="269.8649774698279" y="453.0616882734083">♅</text><line stroke="#444444" stroke-width="1.0" x1="195.13306008566622" x2="190.57362791547777" y1="451.191682684609" y2="457.765234105679" /><line stroke="#CCCCCC" stroke-dasharray="2,2" stroke-width="0.5" x1="195.13306008566622" x2="233.7132771769272" y1="451.191682684609" y2="441.21639556856394" /><svg height="18.0" viewBox="0 0 12 12" width="18.0" x="224.7132771769272" y="432.21639556856394"><defs /><path d="M2.113 11A5.776 5.776 0 0 0 5 6a5.776 5.776 0 0 0-2.887-5m7.773 10A5.776 5.776 0 0 1 7 6a5.776 5.776 0 0 1 2.886-5M1 6h10" fill="none" stroke="#222222" stroke-linecap="round" stroke-linejoin="round" stroke-width="0.59999996" /></svg><line stroke="#444444" stroke-width="1.0" x1="166.56308764272478" x2="160.76148275762586" y1="426.69092477583723" y2="432.19922585304755" /><line stroke="#CCCCCC" stroke-dasharray="2,2" stroke-width="0.5" x1="166.56308764272478" x2="202.9185338969835" y1="426.69092477583723" y2="422.11137923751767" /><svg height="18.0" viewBox="0 0 12 12" width="18.0" x="193.9185338969835" y="413.11137923751767"><defs /><path d="M6 11V3M4 5h4m0 0a1.999 1.999 0 1 0-4 0 1.999 1.999 0 1 0 4 0ZM4 1a1.999 1.999 0 1 0 4 0" fill="none" stroke="#222222" stroke-linecap="round" stroke-linejoin="round" stroke-width="0.60000002" /></svg><line stroke="#444444" stroke-width="1.0" x1="156.67453459575657" x2="150.44299262165902" y1="415.38548854451767" y2="420.4022489160185" /><text dominant-baseline="middle" fill="#222222" font-family="&quot;Symbola&quot;, &quot;Noto Sans Symbols&quot;, &quot;Apple Symbols&quot;, &quot;Segoe UI Symbol&quot;, serif" font-size="18px" text-anchor="middle" x="178.48493150509717" y="397.826827244264">☿</text><line stroke="#444444" stroke-width="1.0" x1="120.79481140926043" x2="113.00328147053261" y1="341.7312878085192" y2="343.5456916262809" /><line stroke="#CCCCCC" stroke-dasharray="2,2" stroke-width="0.5" x1="120.79481140926043" x2="159.6794244963954" y1="341.7312878085192" y2="368.16257103672956" /><text dominant-baseline="middle" fill="#222222" font-family="&quot;Symbola&quot;, &quot;Noto Sans Symbols&quot;, &quot;Apple Symbols&quot;, &quot;Segoe UI Symbol&quot;, serif" font-size="18px" text-anchor="middle" x="159.6794244963954" y="368.16257103672956">🝼</text><line stroke="#444444" stroke-width="1.0" x1="117.38949591967426" x2="109.44990878574703" y1="322.56997562092914" y2="323.5512789087956" /><line stroke="#CCCCCC" stroke-dasharray="2,2" stroke-width="0.5" x1="117.38949591967426" x2="148.2759179695428" y1="322.56997562092914" y2="336.2739980153152" /><svg height="18.0" viewBox="0 0 12 12" width="18.0" x="139.2759179695428" y="327.2739980153152"><defs /><path d="M8.5 3.5C8.5 2.121 7.379 1 6 1S3.5 2.121 3.5 3.5 4.621 6 6 6s2.5-1.121 2.5-2.5ZM6 11V6M3.5 8.5 6 11l2.5-2.5" fill="none" stroke="#222222" stroke-linecap="round" stroke-linejoin="round" stroke-width="0.6" /></svg><line stroke="#444444" stroke-width="1.0" x1="116.75020298218709" x2="108.78282050315175" y1="283.4014490713687" y2="282.67977294403687" /><line stroke="#CCCCCC" stroke-dasharray="2,2" stroke-width="0.5" x1="116.75020298218709" x2="144.0356152941296" y1="283.4014490713687" y2="303.3332721639941" /><svg height="18.0" viewBox="0 0 12 12" width="18.0" x="135.0356152941296" y="294.3332721639941"><defs /><path d="m3.5 7 5 4m-5 0 5-4m-5-3.5L6 1l2.5 2.5M6 9V1" fill="none" stroke="#222222" stroke-linecap="round" stroke-linejoin="round" stroke-width="0.60000002" /></svg><line stroke="#444444" stroke-width="1.0" x1="123.35695475430492" x2="115.6768223523182" y1="248.49044199056522" y2="246.250895990155" /><line stroke="#CCCCCC" stroke-dasharray="2,2" stroke-width="0.5" x1="123.35695475430492" x2="147.10834921744703" y1="248.49044199056522" y2="269.0138237114375" /><svg height="18.0" viewBox="0 0 12 12" width="18.0" x="138.10834921744703" y="260.0138237114375"><defs /><path d="M7.875 9.125 6 11 1 6l5-5 5 5-1.875 1.875M11 11 7.875 9.125 6 6l3.125 1.875Zm0 0" fill="none" stroke="#222222" stroke-linecap="round" stroke-linejoin="round" stroke-width="0.6" /></svg><line stroke="#444444" stroke-width="1.0" x1="138.53183660851448" x2="131.5114816784499" y1="211.7728374536473" y2="207.93687386467548" /><line stroke="#CCCCCC" stroke-dasharray="2,2" stroke-width="0.5" x1="138.53183660851448" x2="157.32398501005963" y1="211.7728374536473" y2="236.9162877868597" /><text dominant-baseline="middle" fill="#222222" font-family="&quot;Symbola&quot;, &quot;Noto Sans Symbols&quot;, &quot;Apple Symbols&quot;, &quot;Segoe UI Symbol&quot;, serif" font-size="18px" text-anchor="middle" x="157.32398501005963" y="236.9162877868597">☽</text><line stroke="#444444" stroke-width="1.0" x1="155.87129382664887" x2="149.604828340851" y1="185.61942447777324" y2="180.64635597680686" /><svg height="18.0" viewBox="0 0 12 12" width="18.0" x="168.80392302694182" y="194.0251642311551"><defs /><path d="M6 7.668h4.715M4.82 7.18l3.336 3.332M7.668 6a1.667 1.667 0 1 0-3.336 0 1.667 1.667 0 1 0 3.336 0ZM11 6A5 5 0 1 0 1 6a5 5 0 0 0 10 0zm0 0" fill="none" stroke="#222222" stroke-linecap="round" stroke-linejoin="round" stroke-width="0.6" /></svg><line stroke="#444444" stroke-width="1.0" x1="164.61098235762992" x2="158.7245033297008" y1="175.39737602348012" y2="169.97987063319664" /><line stroke="#CCCCCC" stroke-dasharray="2,2" stroke-width="0.5" x1="164.61098235762992" x2="204.43879901335654" y1="175.39737602348012" y2="176.69526827412366" /><svg height="18.0" viewBox="0 0 12 12" width="18.0" x="195.43879901335654" y="167.69526827412366"><defs /><path d="M3.5 4.75h5M6 11V1m3.536 1.464A4.984 4.984 0 0 0 6 1c-1.38 0-2.63.56-3.536 1.464" fill="none" stroke="#222222" stroke-linecap="round" stroke-linejoin="round" stroke-width="0.60000002" /></svg><line stroke="#444444" stroke-width="1.0" x1="180.27803432906103" x2="175.07273147380283" y1="160.27651974028663" y2="154.20158581595126" /><line stroke="#CCCCCC" stroke-dasharray="2,2" stroke-width="0.5" x1="180.27803432906103" x2="235.0809992264002" y1="160.27651974028663" y2="158.1496445596369" /><text dominant-baseline="middle" fill="#222222" font-family="&quot;Symbola&quot;, &quot;Noto Sans Symbols&quot;, &quot;Apple Symbols&quot;, &quot;Segoe UI Symbol&quot;, serif" font-size="18px" text-anchor="middle" x="235.0809992264002" y="158.1496445596369">♆</text><line stroke="#444444" stroke-width="1.0" x1="268.6641213518386" x2="267.3016918453968" y1="118.6879410812736" y2="110.80480808480726" /><line stroke="#CCCCCC" stroke-dasharray="2,2" stroke-width="0.5" x1="268.6641213518386" x2="269.1508380094871" y1="118.6879410812736" y2="147.08064476828613" /><text dominant-baseline="middle" fill="#222222" font-family="&quot;Symbola&quot;, &quot;Noto Sans Symbols&quot;, &quot;Apple Symbols&quot;, &quot;Segoe UI Symbol&quot;, serif" font-size="18px" text-anchor="middle" x="269.1508380094871" y="147.08064476828613">♄</text><line stroke="#444444" stroke-width="1.0" x1="279.49213738089566" x2="278.60049118006503" y1="117.14643134246481" y2="109.19627618344151" /><line stroke="#CCCCCC" stroke-dasharray="2,2" stroke-width="0.5" x1="279.49213738089566" x2="304.35784021330414" y1="117.14643134246481" y2="144.06087973611204" /><svg height="18.0" viewBox="0 0 12 12" width="18.0" x="295.35784021330414" y="135.06087973611204"><defs /><path d="M5.375 1v5a5 5 0 0 1 5 5m-7.5-7.5a1.25 1.25 0 1 0 0-2.5 1.249 1.249 0 1 0 0 2.5m0 0h3.75" fill="none" stroke="#222222" stroke-linecap="round" stroke-linejoin="round" stroke-width="0.6" /></svg><line stroke="#444444" stroke-width="1.0" x1="294.45581356848237" x2="294.2147619845033" y1="116.08354614985484" y2="108.08717859115285" /><line stroke="#CCCCCC" stroke-dasharray="2,2" stroke-width="0.5" x1="294.45581356848237" x2="338.46148713414436" y1="116.08354614985484" y2="148.8156290900741" /><text dominant-baseline="middle" fill="#222222" font-family="&quot;Symbola&quot;, &quot;Noto Sans Symbols&quot;, &quot;Apple Symbols&quot;, &quot;Segoe UI Symbol&quot;, serif" font-size="18px" text-anchor="middle" x="338.46148713414436" y="148.8156290900741">♃</text><line stroke="#444444" stroke-width="0.5" x1="322.2979500693346" x2="322.91165511711444" y1="83.14336205062696" y2="77.17483073091944" /><line stroke="#444444" stroke-width="0.5" x1="415.84091665762514" x2="419.029198767468" y1="115.32492851518603" y2="110.24212838257648" /><line stroke="#444444" stroke-width="0.5" x1="463.50673837323245" x2="468.0069238330462" y1="155.81419450394114" y2="151.845777838912" /><line stroke="#444444" stroke-width="0.5" x1="470.68252904074234" x2="475.3802133262674" y1="164.3848301986236" y2="160.65230258941142" /><line stroke="#444444" stroke-width="0.5" x1="487.1140425884415" x2="492.26397036610507" y1="188.1414506342457" y2="185.0627749636286" /><line stroke="#444444" stroke-width="0.5" x1="502.16243551683226" x2="507.7265392466534" y1="218.42580269532144" y2="216.18064130161468" /><line stroke="#444444" stroke-width="0.5" x1="507.74894222131064" x2="513.4668030163925" y1="233.93656831554597" y2="232.11830872790043" /><line stroke="#444444" stroke-width="0.5" x1="511.1727861284463" x2="516.9848811595045" y1="245.87002310411128" y2="244.3802072262428" /><line stroke="#444444" stroke-width="0.5" x1="515.2400684054066" x2="521.164106985372" y1="265.4209174089903" y2="264.469199539513" /><line stroke="#444444" stroke-width="0.5" x1="517.8933859419883" x2="523.8904516101163" y1="306.81706408476236" y2="307.00468970177417" /><line stroke="#444444" stroke-width="0.5" x1="517.0728491953429" x2="523.0473312832881" y1="320.0842759943175" y2="320.63705423269323" /><line stroke="#444444" stroke-width="0.5" x1="515.0793335330243" x2="520.9989482174194" y1="335.5651555175865" y2="336.54401300889623" /><line stroke="#444444" stroke-width="0.5" x1="514.4830724278318" x2="520.3862762561207" y1="339.000149255067" y2="340.0735478584175" /><line stroke="#444444" stroke-width="0.5" x1="507.44399458786773" x2="513.1534623288183" y1="367.0148424561955" y2="368.8592876614119" /><line stroke="#444444" stroke-width="0.5" x1="498.0251921634955" x2="503.4754268101972" y1="391.1593290267688" y2="393.66830138530366" /><line stroke="#444444" stroke-width="0.5" x1="486.30479097635555" x2="491.43244577386986" y1="413.2012582052712" y2="416.3168891650493" /><line stroke="#444444" stroke-width="0.5" x1="484.2345635838028" x2="489.3052396457423" y1="416.54023159873043" y2="419.74776090878726" /><line stroke="#444444" stroke-width="0.5" x1="469.3449361455239" x2="474.0058059476942" y1="437.2817999658675" y2="441.06019813006566" /><line stroke="#444444" stroke-width="0.5" x1="424.88414240761597" x2="428.32132063901827" y1="478.68394157034453" y2="483.6018482190696" /><line stroke="#444444" stroke-width="0.5" x1="414.0250402692473" x2="417.1633441298688" y1="485.80174970004055" y2="490.9155593248123" /><line stroke="#444444" stroke-width="0.5" x1="397.05457059365926" x2="399.7257973072462" y1="495.2035100270495" y2="500.57608369751875" /><line stroke="#444444" stroke-width="0.5" x1="392.8148483485454" x2="395.3693854590559" y1="497.2546676913794" y2="502.6836952425183" /><line stroke="#444444" stroke-width="0.5" x1="388.4590176391899" x2="390.893669500819" y1="499.24608452441294" y2="504.7299217131582" /><line stroke="#444444" stroke-width="0.5" x1="369.0130135573457" x2="370.9124542974561" y1="506.7878235286924" y2="512.4792315157206" /><line stroke="#444444" stroke-width="0.5" x1="345.4121903968552" x2="346.6620671967686" y1="513.2175718916238" y2="519.0859454299255" /><line stroke="#444444" stroke-width="0.5" x1="337.63845116196984" x2="338.6743718361525" y1="514.726214035753" y2="520.6361098349022" /><line stroke="#444444" stroke-width="0.5" x1="321.90183754203235" x2="322.50464041016164" y1="516.8970020822842" y2="522.8666443414297" /><line stroke="#444444" stroke-width="0.5" x1="293.0333724647017" x2="292.8416304224458" y1="517.8886552824273" y2="523.8855907489161" /><line stroke="#444444" stroke-width="0.5" x1="283.00670784206" x2="282.5390025533094" y1="517.3366697583151" y2="523.3184129626724" /><line stroke="#444444" stroke-width="0.5" x1="247.90980496702832" x2="246.47612987437773" y1="511.6851709058218" y2="517.5113682702022" /><line stroke="#444444" stroke-width="0.5" x1="219.3217059996249" x2="217.10120249502745" y1="502.521635578002" y2="508.0956255480387" /><line stroke="#444444" stroke-width="0.5" x1="196.85902875671283" x2="194.02028642891594" y1="492.05712705075905" y2="497.34310302463314" /><line stroke="#444444" stroke-width="0.5" x1="169.56233487947398" x2="165.97230739909253" y1="474.6711639564628" y2="479.4786271846223" /><line stroke="#444444" stroke-width="0.5" x1="165.14188133306425" x2="161.43018999360729" y1="471.2813119683951" y2="475.9954765179839" /><line stroke="#444444" stroke-width="0.5" x1="139.29454985088654" x2="134.87146406696598" y1="447.30158957856094" y2="451.3557617687966" /><line stroke="#444444" stroke-width="0.5" x1="107.55040014583975" x2="102.25362216820233" y1="402.4067942861879" y2="405.22532990874356" /><line stroke="#444444" stroke-width="0.5" x1="104.08606154252473" x2="98.69393479598872" y1="395.612387890276" y2="398.243921501935" /><line stroke="#444444" stroke-width="0.5" x1="94.51019984408438" x2="88.85451727098578" y1="372.78696333741266" y2="374.7902742549561" /><line stroke="#444444" stroke-width="0.5" x1="82.86028830533041" x2="76.88396596511015" y1="319.3480129510959" y2="319.88052706901595" /><line stroke="#444444" stroke-width="0.5" x1="82.16768499308836" x2="76.17230017638437" y1="308.54883259454846" y2="308.7841215650406" /><line stroke="#444444" stroke-width="0.5" x1="83.30246870606672" x2="77.33831646861901" y1="276.2054642593134" y2="275.55056878021196" /><line stroke="#444444" stroke-width="0.5" x1="96.04524021598647" x2="90.43180646046315" y1="223.01652150334246" y2="220.89771016857208" /><line stroke="#444444" stroke-width="0.5" x1="173.16987040341053" x2="169.67913289157778" y1="122.69202435729994" y2="117.81198833043663" /><line stroke="#444444" stroke-width="0.5" x1="221.31083706224126" x2="219.1450802841378" y1="96.69723160725317" y2="91.10174256892068" /><line stroke="#444444" stroke-width="0.5" x1="248.88049613353115" x2="247.47353731151824" y1="88.07832502444194" y2="82.2456183737385" /></svg>