<?xml version="1.0" encoding="utf-8" ?>
<svg baseProfile="full" height="600px" version="1.1" viewBox="0 0 600 600" width="600px" xmlns="http://www.w3.org/2000/svg" xmlns:ev="http://www.w3.org/2001/xml-events" xmlns:xlink="http://www.w3.org/1999/xlink"><defs /><rect fill="#FFFFFF" height="600px" width="600px" x="0" y="0" /><circle cx="300" cy="300" fill="none" r="216.0" stroke="#BBBBBB" stroke-width="1" /><path d="M 300.0 180.0 A 120.0 120.0 0 0 1 403.92304845413264 360.0 L 341.56921938165306 324.0 A 48.0 48.0 0 0 0 300.0 252.0 Z" fill="#F5F5F5" stroke="none" /><path d="M 403.92304845413264 360.0 A 120.0 120.0 0 0 1 196.07695154586736 360.0 L 258.43078061834694 324.0 A 48.0 48.0 0 0 0 341.56921938165306 324.0 Z" fill="#FFFFFF" stroke="none" /><path d="M 196.07695154586736 360.0 A 120.0 120.0 0 0 1 300.0 180.0 L 300.0 252.0 A 48.0 48.0 0 0 0 258.43078061834694 324.0 Z" fill="#F5F5F5" stroke="none" /><line stroke="#CCCCCC" stroke-width="1.0" x1="300.0" x2="300.0" y1="252.0" y2="180.0" /><line stroke="#CCCCCC" stroke-width="1.0" x1="341.56921938165306" x2="403.92304845413264" y1="324.0" y2="360.0" /><line stroke="#CCCCCC" stroke-width="1.0" x1="258.43078061834694" x2="196.07695154586736" y1="324.0" y2="360.0" /><text dominant-baseline="middle" fill="#555555" font-family="&quot;Symbola&quot;, &quot;Noto Sans Symbols&quot;, &quot;Apple Symbols&quot;, &quot;Segoe UI Symbol&quot;, serif" font-size="14px" text-anchor="middle" x="354.1833528958018" y="243.89149557358522">♈</text><text dominant-baseline="middle" fill="#555555" font-family="&quot;Symbola&quot;, &quot;Noto Sans Symbols&quot;, &quot;Apple Symbols&quot;, &quot;Segoe UI Symbol&quot;, serif" font-size="14px" text-anchor="middle" x="375.68306664952775" y="281.1300921432259">♋</text><text dominant-baseline="middle" fill="#555555" font-family="&quot;Symbola&quot;, &quot;Noto Sans Symbols&quot;, &quot;Apple Symbols&quot;, &quot;Segoe UI Symbol&quot;, serif" font-size="14px" text-anchor="middle" x="362.51925334130976" y="235.2594179695214">♎</text><text dominant-baseline="middle" fill="#555555" font-family="&quot;Symbola&quot;, &quot;Noto Sans Symbols&quot;, &quot;Apple Symbols&quot;, &quot;Segoe UI Symbol&quot;, serif" font-size="14px" text-anchor="middle" x="387.32661536483965" y="278.2270293960299">♑</text><text dominant-baseline="middle" fill="#555555" font-family="&quot;Symbola&quot;, &quot;Noto Sans Symbols&quot;, &quot;Apple Symbols&quot;, &quot;Segoe UI Symbol&quot;, serif" font-size="14px" text-anchor="middle" x="321.4997137537259" y="374.97841228318885">♉</text><text dominant-baseline="middle" fill="#555555" font-family="&quot;Symbola&quot;, &quot;Noto Sans Symbols&quot;, &quot;Apple Symbols&quot;, &quot;Segoe UI Symbol&quot;, serif" font-size="14px" text-anchor="middle" x="278.5002862462741" y="374.97841228318885">♌</text><text dominant-baseline="middle" fill="#555555" font-family="&quot;Symbola&quot;, &quot;Noto Sans Symbols&quot;, &quot;Apple Symbols&quot;, &quot;Segoe UI Symbol&quot;, serif" font-size="14px" text-anchor="middle" x="324.80736202352995" y="386.51355263444873">♏</text><text dominant-baseline="middle" fill="#555555" font-family="&quot;Symbola&quot;, &quot;Noto Sans Symbols&quot;, &quot;Apple Symbols&quot;, &quot;Segoe UI Symbol&quot;, serif" font-size="14px" text-anchor="middle" x="275.1926379764701" y="386.51355263444873">♒</text><text dominant-baseline="middle" fill="#555555" font-family="&quot;Symbola&quot;, &quot;Noto Sans Symbols&quot;, &quot;Apple Symbols&quot;, &quot;Segoe UI Symbol&quot;, serif" font-size="14px" text-anchor="middle" x="224.31693335047225" y="281.1300921432259">♊</text><text dominant-baseline="middle" fill="#555555" font-family="&quot;Symbola&quot;, &quot;Noto Sans Symbols&quot;, &quot;Apple Symbols&quot;, &quot;Segoe UI Symbol&quot;, serif" font-size="14px" text-anchor="middle" x="245.8166471041982" y="243.89149557358522">♍</text><text dominant-baseline="middle" fill="#555555" font-family="&quot;Symbola&quot;, &quot;Noto Sans Symbols&quot;, &quot;Apple Symbols&quot;, &quot;Segoe UI Symbol&quot;, serif" font-size="14px" text-anchor="middle" x="212.67338463516032" y="278.22702939602993">♐</text><text dominant-baseline="middle" fill="#555555" font-family="&quot;Symbola&quot;, &quot;Noto Sans Symbols&quot;, &quot;Apple Symbols&quot;, &quot;Segoe UI Symbol&quot;, serif" font-size="14px" text-anchor="middle" x="237.48074665869024" y="235.2594179695214">♓</text><line stroke="#BBBBBB" stroke-width="0.5" x1="299.99999999999994" x2="299.99999999999994" y1="100.80000000000001" y2="84.0" /><line stroke="#BBBBBB" stroke-width="0.5" x1="314.56515171777335" x2="315.06739832873103" y1="91.70862630574868" y2="84.52616514387796" /><line stroke="#BBBBBB" stroke-width="0.5" x1="329.0593434804617" x2="330.06138980737416" y1="93.23202724676008" y2="86.1020971518208" /><line stroke="#BBBBBB" stroke-width="0.5" x1="343.4119610427482" x2="344.908925216636" y1="95.76278096678138" y2="88.720118241498" /><line stroke="#BBBBBB" stroke-width="0.5" x1="357.5530798945895" x2="359.5376688564719" y1="99.28855788807903" y2="92.36747367732315" /><line stroke="#BBBBBB" stroke-width="0.5" x1="369.7721092384365" x2="373.8763509583445" y1="108.30270535967469" y2="97.0263939102438" /><line stroke="#BBBBBB" stroke-width="0.5" x1="384.926611074227" x2="387.8551149043727" y1="109.25170844422487" y2="102.67418114919818" /><line stroke="#BBBBBB" stroke-width="0.5" x1="398.0256623096939" x2="401.4058575617523" y1="115.64054261105602" y2="109.28331994247173" /><line stroke="#BBBBBB" stroke-width="0.5" x1="410.64714237189315" x2="414.4625610743722" y1="122.9275575225382" y2="116.82161123021194" /><line stroke="#BBBBBB" stroke-width="0.5" x1="422.72956067866835" x2="426.96161449517416" y1="131.07725157451094" y2="125.25232921501132" /><line stroke="#BBBBBB" stroke-width="0.5" x1="428.0432918495586" x2="438.8421236922925" y1="147.40394693069956" y2="134.53440028630072" /><line stroke="#BBBBBB" stroke-width="0.5" x1="445.04466775183863" x2="450.0462080191434" y1="149.8018496892896" y2="144.62260312685135" /><line stroke="#BBBBBB" stroke-width="0.5" x1="455.16863955967995" x2="460.51928230311717" y1="160.2855293922704" y2="155.46778902648666" /><line stroke="#BBBBBB" stroke-width="0.5" x1="464.5366453530836" x2="470.210322779052" y1="171.44988395200255" y2="167.01712132965784" /><line stroke="#BBBBBB" stroke-width="0.5" x1="473.10304514949274" x2="479.07211567188904" y1="183.24052175530812" y2="179.21433285031873" /><line stroke="#BBBBBB" stroke-width="0.5" x1="476.66918237202543" x2="487.0614872174387" y1="197.99999999999991" y2="191.9999999999999" /><line stroke="#BBBBBB" stroke-width="0.5" x1="487.66819686726603" x2="494.13951400062" y1="208.46810455044056" y2="205.31183229355918" /><line stroke="#BBBBBB" stroke-width="0.5" x1="493.5959888335452" x2="500.271712586426" y1="221.7821432947575" y2="219.08497582216293" /><line stroke="#BBBBBB" stroke-width="0.5" x1="498.58060060242804" x2="505.4282075197532" y1="235.47725157451092" y2="233.2523292150113" /><line stroke="#BBBBBB" stroke-width="0.5" x1="502.59774764642805" x2="509.58387687561526" y1="249.48670819878936" y2="247.74487055047175" /><line stroke="#BBBBBB" stroke-width="0.5" x1="496.17370440003185" x2="512.718474650637" y1="265.4092830087475" y2="262.491993623943" /><line stroke="#BBBBBB" stroke-width="0.5" x1="507.6561717528955" x2="514.8167293995471" y1="278.17445686971394" y2="277.42185193418686" /><line stroke="#BBBBBB" stroke-width="0.5" x1="508.6728046815872" x2="515.8684186361247" y1="292.7129850885178" y2="292.46170871225985" /><line stroke="#BBBBBB" stroke-width="0.5" x1="508.6728046815872" x2="515.8684186361247" y1="307.2870149114822" y2="307.5382912877402" /><line stroke="#BBBBBB" stroke-width="0.5" x1="507.6561717528955" x2="514.8167293995471" y1="321.82554313028606" y2="322.57814806581314" /><line stroke="#BBBBBB" stroke-width="0.5" x1="500.9007816144904" x2="512.718474650637" y1="335.4242282440538" y2="337.508006376057" /><line stroke="#BBBBBB" stroke-width="0.5" x1="502.59774764642805" x2="509.58387687561526" y1="350.51329180121064" y2="352.2551294495282" /><line stroke="#BBBBBB" stroke-width="0.5" x1="498.58060060242804" x2="505.4282075197532" y1="364.522748425489" y2="366.74767078498866" /><line stroke="#BBBBBB" stroke-width="0.5" x1="493.5959888335452" x2="500.2717125864261" y1="378.2178567052424" y2="380.915024177837" /><line stroke="#BBBBBB" stroke-width="0.5" x1="487.6681968672661" x2="494.13951400062007" y1="391.5318954495594" y2="394.6881677064407" /><line stroke="#BBBBBB" stroke-width="0.5" x1="472.5122604338602" x2="487.06148721743875" y1="399.59999999999997" y2="408.0" /><line stroke="#BBBBBB" stroke-width="0.5" x1="473.1030451494927" x2="479.07211567188904" y1="416.759478244692" y2="420.78566714968133" /><line stroke="#BBBBBB" stroke-width="0.5" x1="464.53664535308354" x2="470.2103227790519" y1="428.55011604799745" y2="432.9828786703422" /><line stroke="#BBBBBB" stroke-width="0.5" x1="455.16863955967995" x2="460.51928230311717" y1="439.7144706077296" y2="444.5322109735134" /><line stroke="#BBBBBB" stroke-width="0.5" x1="445.04466775183863" x2="450.0462080191434" y1="450.1981503107104" y2="455.37739687314865" /><line stroke="#BBBBBB" stroke-width="0.5" x1="431.12867237605406" x2="438.8421236922925" y1="456.2730663962715" y2="465.46559971369925" /><line stroke="#BBBBBB" stroke-width="0.5" x1="422.7295606786684" x2="426.9616144951742" y1="468.92274842548903" y2="474.74767078498866" /><line stroke="#BBBBBB" stroke-width="0.5" x1="410.6471423718932" x2="414.4625610743723" y1="477.0724424774618" y2="483.178388769788" /><line stroke="#BBBBBB" stroke-width="0.5" x1="398.025662309694" x2="401.40585756175244" y1="484.35945738894395" y2="490.7166800575282" /><line stroke="#BBBBBB" stroke-width="0.5" x1="384.9266110742271" x2="387.85511490437284" y1="490.74829155577504" y2="497.3258188508018" /><line stroke="#BBBBBB" stroke-width="0.5" x1="368.13041255047324" x2="373.87635095834446" y1="487.18677006055293" y2="502.97360608975623" /><line stroke="#BBBBBB" stroke-width="0.5" x1="357.5530798945894" x2="359.53766885647184" y1="500.711442111921" y2="507.6325263226769" /><line stroke="#BBBBBB" stroke-width="0.5" x1="343.4119610427482" x2="344.908925216636" y1="504.2372190332186" y2="511.27988175850203" /><line stroke="#BBBBBB" stroke-width="0.5" x1="329.0593434804617" x2="330.06138980737416" y1="506.7679727532399" y2="513.8979028481792" /><line stroke="#BBBBBB" stroke-width="0.5" x1="314.56515171777335" x2="315.06739832873103" y1="508.2913736942513" y2="515.473834856122" /><line stroke="#BBBBBB" stroke-width="0.5" x1="300.0" x2="300.0" y1="504.0" y2="516.0" /><line stroke="#BBBBBB" stroke-width="0.5" x1="285.43484828222665" x2="284.9326016712689" y1="508.2913736942513" y2="515.473834856122" /><line stroke="#BBBBBB" stroke-width="0.5" x1="270.9406565195384" x2="269.9386101926259" y1="506.7679727532399" y2="513.8979028481792" /><line stroke="#BBBBBB" stroke-width="0.5" x1="256.58803895725185" x2="255.09107478336398" y1="504.23721903321865" y2="511.27988175850203" /><line stroke="#BBBBBB" stroke-width="0.5" x1="242.44692010541058" x2="240.46233114352822" y1="500.711442111921" y2="507.6325263226769" /><line stroke="#BBBBBB" stroke-width="0.5" x1="231.8695874495268" x2="226.12364904165554" y1="487.18677006055293" y2="502.97360608975623" /><line stroke="#BBBBBB" stroke-width="0.5" x1="215.07338892577292" x2="212.14488509562716" y1="490.74829155577504" y2="497.3258188508018" /><line stroke="#BBBBBB" stroke-width="0.5" x1="201.97433769030596" x2="198.59414243824756" y1="484.35945738894395" y2="490.7166800575282" /><line stroke="#BBBBBB" stroke-width="0.5" x1="189.35285762810685" x2="185.53743892562778" y1="477.0724424774618" y2="483.17838876978806" /><line stroke="#BBBBBB" stroke-width="0.5" x1="177.27043932133162" x2="173.03838550482584" y1="468.92274842548903" y2="474.74767078498866" /><line stroke="#BBBBBB" stroke-width="0.5" x1="168.87132762394597" x2="161.1578763077075" y1="456.2730663962715" y2="465.46559971369925" /><line stroke="#BBBBBB" stroke-width="0.5" x1="154.95533224816134" x2="149.95379198085658" y1="450.1981503107104" y2="455.37739687314865" /><line stroke="#BBBBBB" stroke-width="0.5" x1="144.8313604403201" x2="139.4807176968829" y1="439.71447060772965" y2="444.53221097351343" /><line stroke="#BBBBBB" stroke-width="0.5" x1="135.46335464691646" x2="129.78967722094808" y1="428.55011604799745" y2="432.9828786703422" /><line stroke="#BBBBBB" stroke-width="0.5" x1="126.89695485050731" x2="120.92788432811102" y1="416.759478244692" y2="420.78566714968133" /><line stroke="#BBBBBB" stroke-width="0.5" x1="127.48773956613982" x2="112.93851278256125" y1="399.59999999999997" y2="408.0" /><line stroke="#BBBBBB" stroke-width="0.5" x1="112.33180313273391" x2="105.86048599937993" y1="391.53189544955933" y2="394.6881677064407" /><line stroke="#BBBBBB" stroke-width="0.5" x1="106.40401116645481" x2="99.72828741357395" y1="378.21785670524247" y2="380.91502417783704" /><line stroke="#BBBBBB" stroke-width="0.5" x1="101.41939939757194" x2="94.57179248024684" y1="364.52274842548906" y2="366.74767078498866" /><line stroke="#BBBBBB" stroke-width="0.5" x1="97.40225235357192" x2="90.41612312438477" y1="350.51329180121064" y2="352.2551294495282" /><line stroke="#BBBBBB" stroke-width="0.5" x1="99.09921838550957" x2="87.28152534936308" y1="335.4242282440538" y2="337.5080063760569" /><line stroke="#BBBBBB" stroke-width="0.5" x1="92.34382824710454" x2="85.18327060045297" y1="321.8255431302861" y2="322.5781480658132" /><line stroke="#BBBBBB" stroke-width="0.5" x1="91.3271953184128" x2="84.13158136387531" y1="307.28701491148223" y2="307.53829128774026" /><line stroke="#BBBBBB" stroke-width="0.5" x1="91.3271953184128" x2="84.13158136387531" y1="292.7129850885178" y2="292.4617087122598" /><line stroke="#BBBBBB" stroke-width="0.5" x1="92.34382824710454" x2="85.18327060045297" y1="278.17445686971394" y2="277.42185193418686" /><line stroke="#BBBBBB" stroke-width="0.5" x1="103.82629559996818" x2="87.28152534936308" y1="265.4092830087475" y2="262.491993623943" /><line stroke="#BBBBBB" stroke-width="0.5" x1="97.40225235357192" x2="90.41612312438477" y1="249.48670819878942" y2="247.74487055047183" /><line stroke="#BBBBBB" stroke-width="0.5" x1="101.41939939757191" x2="94.57179248024681" y1="235.477251574511" y2="233.2523292150114" /><line stroke="#BBBBBB" stroke-width="0.5" x1="106.40401116645478" x2="99.72828741357392" y1="221.78214329475756" y2="219.08497582216302" /><line stroke="#BBBBBB" stroke-width="0.5" x1="112.33180313273394" x2="105.86048599937993" y1="208.46810455044061" y2="205.31183229355926" /><line stroke="#BBBBBB" stroke-width="0.5" x1="123.33081762797454" x2="112.93851278256128" y1="197.99999999999997" y2="191.99999999999997" /><line stroke="#BBBBBB" stroke-width="0.5" x1="126.89695485050726" x2="120.92788432811096" y1="183.24052175530807" y2="179.21433285031873" /><line stroke="#BBBBBB" stroke-width="0.5" x1="135.46335464691643" x2="129.78967722094805" y1="171.44988395200255" y2="167.01712132965784" /><line stroke="#BBBBBB" stroke-width="0.5" x1="144.83136044032008" x2="139.48071769688283" y1="160.2855293922704" y2="155.46778902648663" /><line stroke="#BBBBBB" stroke-width="0.5" x1="154.95533224816137" x2="149.95379198085658" y1="149.8018496892896" y2="144.62260312685135" /><line stroke="#BBBBBB" stroke-width="0.5" x1="171.95670815044136" x2="161.15787630770748" y1="147.40394693069962" y2="134.53440028630078" /><line stroke="#BBBBBB" stroke-width="0.5" x1="177.2704393213316" x2="173.03838550482578" y1="131.077251574511" y2="125.25232921501137" /><line stroke="#BBBBBB" stroke-width="0.5" x1="189.3528576281068" x2="185.53743892562773" y1="122.92755752253825" y2="116.821611230212" /><line stroke="#BBBBBB" stroke-width="0.5" x1="201.97433769030602" x2="198.59414243824762" y1="115.64054261105605" y2="109.28331994247176" /><line stroke="#BBBBBB" stroke-width="0.5" x1="215.07338892577292" x2="212.14488509562716" y1="109.2517084442249" y2="102.67418114919818" /><line stroke="#BBBBBB" stroke-width="0.5" x1="230.22789076156363" x2="226.1236490416556" y1="108.30270535967469" y2="97.02639391024377" /><line stroke="#BBBBBB" stroke-width="0.5" x1="242.44692010541064" x2="240.46233114352825" y1="99.28855788807897" y2="92.36747367732309" /><line stroke="#BBBBBB" stroke-width="0.5" x1="256.58803895725174" x2="255.0910747833639" y1="95.76278096678138" y2="88.720118241498" /><line stroke="#BBBBBB" stroke-width="0.5" x1="270.94065651953827" x2="269.9386101926258" y1="93.23202724676011" y2="86.10209715182083" /><line stroke="#BBBBBB" stroke-width="0.5" x1="285.4348482822266" x2="284.93260167126886" y1="91.70862630574871" y2="84.52616514387796" /><text dominant-baseline="middle" fill="#555555" font-family="&quot;Arial&quot;, &quot;Helvetica&quot;, sans-serif" font-size="8px" text-anchor="middle" x="299.99999999999994" y="116.0">0</text><text dominant-baseline="middle" fill="#555555" font-family="&quot;Arial&quot;, &quot;Helvetica&quot;, sans-serif" font-size="8px" text-anchor="middle" x="362.9317063719231" y="127.09655777539288">5</text><text dominant-baseline="middle" fill="#555555" font-family="&quot;Arial&quot;, &quot;Helvetica&quot;, sans-serif" font-size="8px" text-anchor="middle" x="418.2729201823232" y="159.04782246610802">10</text><text dominant-baseline="middle" fill="#555555" font-family="&quot;Arial&quot;, &quot;Helvetica&quot;, sans-serif" font-size="8px" text-anchor="middle" x="459.34867429633664" y="207.99999999999991">15</text><text dominant-baseline="middle" fill="#555555" font-family="&quot;Arial&quot;, &quot;Helvetica&quot;, sans-serif" font-size="8px" text-anchor="middle" x="481.20462655424626" y="268.0487353092848">20</text><text dominant-baseline="middle" fill="#555555" font-family="&quot;Arial&quot;, &quot;Helvetica&quot;, sans-serif" font-size="8px" text-anchor="middle" x="481.20462655424626" y="331.95126469071516">25</text><text dominant-baseline="middle" fill="#555555" font-family="&quot;Arial&quot;, &quot;Helvetica&quot;, sans-serif" font-size="8px" text-anchor="middle" x="459.34867429633675" y="392.0">30</text><text dominant-baseline="middle" fill="#555555" font-family="&quot;Arial&quot;, &quot;Helvetica&quot;, sans-serif" font-size="8px" text-anchor="middle" x="418.2729201823232" y="440.9521775338919">35</text><text dominant-baseline="middle" fill="#555555" font-family="&quot;Arial&quot;, &quot;Helvetica&quot;, sans-serif" font-size="8px" text-anchor="middle" x="362.93170637192304" y="472.90344222460715">40</text><text dominant-baseline="middle" fill="#555555" font-family="&quot;Arial&quot;, &quot;Helvetica&quot;, sans-serif" font-size="8px" text-anchor="middle" x="300.0" y="484.0">45</text><text dominant-baseline="middle" fill="#555555" font-family="&quot;Arial&quot;, &quot;Helvetica&quot;, sans-serif" font-size="8px" text-anchor="middle" x="237.06829362807696" y="472.90344222460715">50</text><text dominant-baseline="middle" fill="#555555" font-family="&quot;Arial&quot;, &quot;Helvetica&quot;, sans-serif" font-size="8px" text-anchor="middle" x="181.72707981767675" y="440.9521775338919">55</text><text dominant-baseline="middle" fill="#555555" font-family="&quot;Arial&quot;, &quot;Helvetica&quot;, sans-serif" font-size="8px" text-anchor="middle" x="140.65132570366328" y="392.0">60</text><text dominant-baseline="middle" fill="#555555" font-family="&quot;Arial&quot;, &quot;Helvetica&quot;, sans-serif" font-size="8px" text-anchor="middle" x="118.79537344575371" y="331.95126469071516">65</text><text dominant-baseline="middle" fill="#555555" font-family="&quot;Arial&quot;, &quot;Helvetica&quot;, sans-serif" font-size="8px" text-anchor="middle" x="118.79537344575371" y="268.0487353092848">70</text><text dominant-baseline="middle" fill="#555555" font-family="&quot;Arial&quot;, &quot;Helvetica&quot;, sans-serif" font-size="8px" text-anchor="middle" x="140.6513257036633" y="208.0">75</text><text dominant-baseline="middle" fill="#555555" font-family="&quot;Arial&quot;, &quot;Helvetica&quot;, sans-serif" font-size="8px" text-anchor="middle" x="181.72707981767672" y="159.04782246610807">80</text><text dominant-baseline="middle" fill="#555555" font-family="&quot;Arial&quot;, &quot;Helvetica&quot;, sans-serif" font-size="8px" text-anchor="middle" x="237.068293628077" y="127.09655777539285">85</text><line stroke="#555555" stroke-width="2.0" x1="299.99999999999994" x2="299.99999999999994" y1="113.0" y2="69.0" /><polygon fill="#555555" points="299.99999999999994,113.0 303.38094609392556,105.7495377037068 296.6190539060743,105.7495377037068" /><line stroke="#555555" stroke-width="4.0" x1="299.99999999999994" x2="299.99999999999994" y1="87.0" y2="81.0" /><line stroke="#555555" stroke-width="2.0" x1="487.0" x2="531.0" y1="300.0" y2="300.0" /><polygon fill="#555555" points="487.0,300.0 494.2504622962932,303.3809460939256 494.2504622962932,296.6190539060744" /><line stroke="#555555" stroke-width="4.0" x1="513.0" x2="519.0" y1="300.0" y2="300.0" /><line stroke="#555555" stroke-width="2.0" x1="300.0" x2="300.0" y1="487.0" y2="531.0" /><polygon fill="#555555" points="300.0,487.0 296.6190539060744,494.2504622962932 303.3809460939256,494.2504622962932" /><line stroke="#555555" stroke-width="4.0" x1="300.0" x2="300.0" y1="513.0" y2="519.0" /><line stroke="#555555" stroke-width="2.0" x1="113.0" x2="69.0" y1="300.0" y2="300.0" /><polygon fill="#555555" points="113.0,300.0 105.7495377037068,296.6190539060744 105.7495377037068,303.3809460939256" /><line stroke="#555555" stroke-width="4.0" x1="87.0" x2="81.0" y1="300.0" y2="300.0" /><line stroke="#444444" stroke-width="1.0" x1="299.99999999999994" x2="299.99999999999994" y1="116.0" y2="108.0" /><line stroke="#CCCCCC" stroke-dasharray="2,2" stroke-width="0.5" x1="299.99999999999994" x2="342.9994275074519" y1="116.0" y2="150.04317543362228" /><text dominant-baseline="middle" fill="#222222" font-family="&quot;Symbola&quot;, &quot;Noto Sans Symbols&quot;, &quot;Apple Symbols&quot;, &quot;Segoe UI Symbol&quot;, serif" font-size="18px" text-anchor="middle" x="342.9994275074519" y="150.04317543362228">♈</text><line stroke="#444444" stroke-width="1.0" x1="342.8660488339561" x2="344.7297900876063" y1="121.06285500946177" y2="113.28297914030793" /><line stroke="#CCCCCC" stroke-dasharray="2,2" stroke-width="0.5" x1="342.8660488339561" x2="376.75136608292604" y1="121.06285500946177" y2="164.18679075876062" /><text dominant-baseline="middle" fill="#222222" font-family="&quot;Symbola&quot;, &quot;Noto Sans Symbols&quot;, &quot;Apple Symbols&quot;, &quot;Segoe UI Symbol&quot;, serif" font-size="18px" text-anchor="middle" x="376.75136608292604" y="164.18679075876062">♂</text><line stroke="#444444" stroke-width="1.0" x1="418.82475591260476" x2="423.99104964793537" y1="159.5127145172564" y2="153.4045716701806" /><line stroke="#CCCCCC" stroke-dasharray="2,2" stroke-width="0.5" x1="418.82475591260476" x2="410.35617520690323" y1="159.5127145172564" y2="189.73887995443144" /><text dominant-baseline="middle" fill="#222222" font-family="&quot;Symbola&quot;, &quot;Noto Sans Symbols&quot;, &quot;Apple Symbols&quot;, &quot;Segoe UI Symbol&quot;, serif" font-size="18px" text-anchor="middle" x="410.35617520690323" y="189.73887995443144">🝻</text><line stroke="#444444" stroke-width="1.0" x1="481.2937177829184" x2="489.17605333869744" y1="268.55818242455547" y2="267.191146877797" /><line stroke="#CCCCCC" stroke-dasharray="2,2" stroke-width="0.5" x1="481.2937177829184" x2="451.9778355079069" y1="268.55818242455547" y2="264.8042969336937" /><svg height="18.0" viewBox="0.7 0.7 10.6 10.6" width="18.0" x="442.9778355079069" y="255.8042969336937"><defs /><path d="M5.835 5.999c.362.362.862.585 1.415.585S8.303 6.361 8.665 6m-2.83 5a1.994 1.994 0 0 1 1.415-.585c.553 0 1.053.223 1.415.585m-2.226-.426V6.42m1.622 4.155V6.42M2.25 1a4.33 4.33 0 0 1 0 7.5h7.5" fill="none" stroke="#222222" stroke-linecap="round" stroke-linejoin="round" stroke-width="0.53" /></svg><line stroke="#444444" stroke-width="1.0" x1="483.0352721314483" x2="490.9933274415113" y1="318.81725686083524" y2="319.6353984634802" /><line stroke="#CCCCCC" stroke-dasharray="2,2" stroke-width="0.5" x1="483.0352721314483" x2="455.83067605440874" y1="318.81725686083524" y2="307.2663884031842" /><svg height="18.0" viewBox="0.114 0.7 10.6 10.6" width="18.0" x="446.83067605440874" y="298.2663884031842"><defs /><path d="M8.828 2.172A3.988 3.988 0 0 0 6 1C3.793 1 2 2.793 2 5s1.793 4 4 4a3.988 3.988 0 0 0 2.828-1.172M6 11V3.5M4.5 5h3" fill="none" stroke="#222222" stroke-linecap="round" stroke-linejoin="round" stroke-width="0.53" /></svg><line stroke="#444444" stroke-width="1.0" x1="477.94469310427144" x2="485.6814188914137" y1="346.81544826258363" y2="348.8509025348699" /><line stroke="#CCCCCC" stroke-dasharray="2,2" stroke-width="0.5" x1="477.94469310427144" x2="448.41528558396055" y1="346.81544826258363" y2="348.05104582661477" /><text dominant-baseline="middle" fill="#222222" font-family="&quot;Symbola&quot;, &quot;Noto Sans Symbols&quot;, &quot;Apple Symbols&quot;, &quot;Segoe UI Symbol&quot;, serif" font-size="18px" text-anchor="middle" x="448.41528558396055" y="348.05104582661477">♀</text><line stroke="#444444" stroke-width="1.0" x1="442.4297547507902" x2="448.62235278343326" y1="416.4893341110239" y2="421.55408776802494" /><line stroke="#CCCCCC" stroke-dasharray="2,2" stroke-width="0.5" x1="442.4297547507902" x2="427.3508443461049" y1="416.4893341110239" y2="390.0986262066973" /><svg height="18.0" viewBox="0.7 0.7 10.6 10.6" width="18.0" x="418.3508443461049" y="381.0986262066973"><defs /><path d="M3.5 3.5 6 1l2.5 2.5M6 1v5.67L8.5 11h-5L6 6.67" fill="none" stroke="#222222" stroke-linecap="round" stroke-linejoin="round" stroke-width="0.53" /></svg><line stroke="#444444" stroke-width="1.0" x1="423.6517734528438" x2="429.0279375160109" y1="436.2579866355238" y2="442.18224692402487" /><line stroke="#CCCCCC" stroke-dasharray="2,2" stroke-width="0.5" x1="423.6517734528438" x2="398.2230644912579" y1="436.2579866355238" y2="421.1950065058218" /><text dominant-baseline="middle" fill="#222222" font-family="&quot;Symbola&quot;, &quot;Noto Sans Symbols&quot;, &quot;Apple Symbols&quot;, &quot;Segoe UI Symbol&quot;, serif" font-size="18px" text-anchor="middle" x="398.2230644912579" y="421.1950065058218">♇</text><line stroke="#444444" stroke-width="1.0" x1="299.1017468992271" x2="299.0626924165848" y1="483.99780743630333" y2="491.99771210744694" /><line stroke="#CCCCCC" stroke-dasharray="2,2" stroke-width="0.5" x1="299.1017468992271" x2="342.2668543464037" y1="483.99780743630333" y2="450.1649527142066" /><svg height="18.0" viewBox="0.7 0.7 10.6 10.6" width="18.0" x="333.2668543464037" y="441.1649527142066"><defs /><path d="M6 10h2.5m0-5.25a1.25 1.25 0 1 0-2.5 0C6 5.442 6.559 6 7.25 6S8.5 5.442 8.5 4.75zM2.25 1a4.33 4.33 0 0 1 0 7.5h7.5M7.25 6v5" fill="none" stroke="#222222" stroke-linecap="round" stroke-linejoin="round" stroke-width="0.53" /></svg><line stroke="#444444" stroke-width="1.0" x1="283.0943652025525" x2="282.35933760266346" y1="483.22172227139265" y2="491.18788410927925" /><line stroke="#CCCCCC" stroke-dasharray="2,2" stroke-width="0.5" x1="283.0943652025525" x2="303.0718877549995" y1="483.22172227139265" y2="455.96975189318175" /><text dominant-baseline="middle" fill="#222222" font-family="&quot;Symbola&quot;, &quot;Noto Sans Symbols&quot;, &quot;Apple Symbols&quot;, &quot;Segoe UI Symbol&quot;, serif" font-size="18px" text-anchor="middle" x="303.0718877549995" y="455.96975189318175">☉</text><line stroke="#444444" stroke-width="1.0" x1="230.07403591686597" x2="227.03377660890362" y1="470.19506322759264" y2="477.594848585314" /><line stroke="#CCCCCC" stroke-dasharray="2,2" stroke-width="0.5" x1="230.07403591686597" x2="265.6092013647751" y1="470.19506322759264" y2="452.16199581114665" /><text dominant-baseline="middle" fill="#222222" font-family="&quot;Symbola&quot;, &quot;Noto Sans Symbols&quot;, &quot;Apple Symbols&quot;, &quot;Segoe UI Symbol&quot;, serif" font-size="18px" text-anchor="middle" x="265.6092013647751" y="452.16199581114665">♅</text><line stroke="#444444" stroke-width="1.0" x1="195.13301923529298" x2="190.5735852890014" y1="451.1916543506769" y2="457.7652045398368" /><line stroke="#CCCCCC" stroke-dasharray="2,2" stroke-width="0.5" x1="195.13301923529298" x2="229.79609055406348" y1="451.1916543506769" y2="439.31048452470026" /><svg height="18.0" viewBox="0.7 0.7 10.6 10.6" width="18.0" x="220.79609055406348" y="430.31048452470026"><defs /><path d="M2.113 11A5.776 5.776 0 0 0 5 6a5.776 5.776 0 0 0-2.887-5m7.773 10A5.776 5.776 0 0 1 7 6a5.776 5.776 0 0 1 2.886-5M1 6h10" fill="none" stroke="#222222" stroke-linecap="round" stroke-linejoin="round" stroke-width="0.53" /></svg><line stroke="#444444" stroke-width="1.0" x1="166.56346778412376" x2="160.76187942691178" y1="426.6913251576501" y2="432.19964364276535" /><line stroke="#CCCCCC" stroke-dasharray="2,2" stroke-width="0.5" x1="166.56346778412376" x2="202.91890029712383" y1="426.6913251576501" y2="422.1116705334925" /><svg height="18.0" viewBox="0.7 0.7 10.6 10.6" width="18.0" x="193.91890029712383" y="413.1116705334925"><defs /><path d="M6 11V3M4 5h4m0 0a1.999 1.999 0 1 0-4 0 1.999 1.999 0 1 0 4 0ZM4 1a1.999 1.999 0 1 0 4 0" fill="none" stroke="#222222" stroke-linecap="round" stroke-linejoin="round" stroke-width="0.53" /></svg><line stroke="#444444" stroke-width="1.0" x1="156.83963270322474" x2="150.6152689077128" y1="415.590264449271" y2="420.6159281209784" /><text dominant-baseline="middle" fill="#222222" font-family="&quot;Symbola&quot;, &quot;Noto Sans Symbols&quot;, &quot;Apple Symbols&quot;, &quot;Segoe UI Symbol&quot;, serif" font-size="18px" text-anchor="middle" x="178.62490598751597" y="398.0004415982942">☿</text><line stroke="#444444" stroke-width="1.0" x1="120.77932301430914" x2="112.98711966710519" y1="341.66472057737406" y2="343.47623016769467" /><line stroke="#CCCCCC" stroke-dasharray="2,2" stroke-width="0.5" x1="120.77932301430914" x2="161.61058972574713" y1="341.66472057737406" y2="372.00257720348986" /><text dominant-baseline="middle" fill="#222222" font-family="&quot;Symbola&quot;, &quot;Noto Sans Symbols&quot;, &quot;Apple Symbols&quot;, &quot;Segoe UI Symbol&quot;, serif" font-size="18px" text-anchor="middle" x="161.61058972574713" y="372.00257720348986">🝼</text><line stroke="#444444" stroke-width="1.0" x1="117.39060944447382" x2="109.45107072466834" y1="322.578983168852" y2="323.5606780892369" /><line stroke="#CCCCCC" stroke-dasharray="2,2" stroke-width="0.5" x1="117.39060944447382" x2="150.5395651938647" y1="322.578983168852" y2="344.6942773468929" /><svg height="18.0" viewBox="0.7 0.7 10.6 10.6" width="18.0" x="141.5395651938647" y="335.6942773468929"><defs /><path d="M8.5 3.5C8.5 2.121 7.379 1 6 1S3.5 2.121 3.5 3.5 4.621 6 6 6s2.5-1.121 2.5-2.5ZM6 11V6M3.5 8.5 6 11l2.5-2.5" fill="none" stroke="#222222" stroke-linecap="round" stroke-linejoin="round" stroke-width="0.53" /></svg><line stroke="#444444" stroke-width="1.0" x1="116.75000379507955" x2="108.78261265573519" y1="283.4036482654579" y2="282.6820677552604" /><line stroke="#CCCCCC" stroke-dasharray="2,2" stroke-width="0.5" x1="116.75000379507955" x2="144.86172186604685" y1="283.4036482654579" y2="316.37420708407564" /><svg height="18.0" viewBox="0.7 0.7 10.6 10.6" width="18.0" x="135.86172186604685" y="307.37420708407564"><defs /><path d="m3.5 7 5 4m-5 0 5-4m-5-3.5L6 1l2.5 2.5M6 9V1" fill="none" stroke="#222222" stroke-linecap="round" stroke-linejoin="round" stroke-width="0.53" /></svg><line stroke="#444444" stroke-width="1.0" x1="123.35605231700077" x2="115.67588067860953" y1="248.4935368427822" y2="246.25412540116403" /><line stroke="#CCCCCC" stroke-dasharray="2,2" stroke-width="0.5" x1="123.35605231700077" x2="144.606945473085" y1="248.4935368427822" y2="286.2523236583331" /><svg height="18.0" viewBox="0.7 0.7 10.6 10.6" width="18.0" x="135.606945473085" y="277.2523236583331"><defs /><path d="M7.875 9.125 6 11 1 6l5-5 5 5-1.875 1.875M11 11 7.875 9.125 6 6l3.125 1.875Zm0 0" fill="none" stroke="#222222" stroke-linecap="round" stroke-linejoin="round" stroke-width="0.53" /></svg><line stroke="#444444" stroke-width="1.0" x1="137.67215253456044" x2="130.61442003606305" y1="213.36473040823972" y2="209.59797955642406" /><line stroke="#CCCCCC" stroke-dasharray="2,2" stroke-width="0.5" x1="137.67215253456044" x2="150.72844599596922" y1="213.36473040823972" y2="254.67888830554" /><text dominant-baseline="middle" fill="#222222" font-family="&quot;Symbola&quot;, &quot;Noto Sans Symbols&quot;, &quot;Apple Symbols&quot;, &quot;Segoe UI Symbol&quot;, serif" font-size="18px" text-anchor="middle" x="150.72844599596922" y="254.67888830554">☽</text><line stroke="#444444" stroke-width="1.0" x1="155.87935859319072" x2="149.61324374941643" y1="185.60926296028208" y2="180.6357526542074" /><line stroke="#CCCCCC" stroke-dasharray="2,2" stroke-width="0.5" x1="155.87935859319072" x2="163.3480855558809" y1="185.60926296028208" y2="224.7520480095494" /><svg height="18.0" viewBox="0.7 0.7 10.6 10.6" width="18.0" x="154.3480855558809" y="215.7520480095494"><defs /><path d="M6 7.668h4.715M4.82 7.18l3.336 3.332M7.668 6a1.667 1.667 0 1 0-3.336 0 1.667 1.667 0 1 0 3.336 0ZM11 6A5 5 0 1 0 1 6a5 5 0 0 0 10 0zm0 0" fill="none" stroke="#222222" stroke-linecap="round" stroke-linejoin="round" stroke-width="0.53" /></svg><line stroke="#444444" stroke-width="1.0" x1="164.62598828740374" x2="158.7401616912039" y1="175.38107305534265" y2="169.96285884035754" /><svg height="18.0" viewBox="0.7 0.7 10.6 10.6" width="18.0" x="176.22638137410354" y="185.34482280779008"><defs /><path d="M3.5 4.75h5M6 11V1m3.536 1.464A4.984 4.984 0 0 0 6 1c-1.38 0-2.63.56-3.536 1.464" fill="none" stroke="#222222" stroke-linecap="round" stroke-linejoin="round" stroke-width="0.53" /></svg><line stroke="#444444" stroke-width="1.0" x1="180.27566110841673" x2="175.07025506965223" y1="160.27855326767718" y2="154.2037077575762" /><line stroke="#CCCCCC" stroke-dasharray="2,2" stroke-width="0.5" x1="180.27566110841673" x2="212.33172478860791" y1="160.27855326767718" y2="170.96406112458584" /><text dominant-baseline="middle" fill="#222222" font-family="&quot;Symbola&quot;, &quot;Noto Sans Symbols&quot;, &quot;Apple Symbols&quot;, &quot;Segoe UI Symbol&quot;, serif" font-size="18px" text-anchor="middle" x="212.33172478860791" y="170.96406112458584">♆</text><line stroke="#444444" stroke-width="1.0" x1="268.65022879896304" x2="267.2871952684832" y1="118.69034265753345" y2="110.80731407742621" /><line stroke="#CCCCCC" stroke-dasharray="2,2" stroke-width="0.5" x1="268.65022879896304" x2="244.06952064440077" y1="118.69034265753345" y2="154.37108295722004" /><text dominant-baseline="middle" fill="#222222" font-family="&quot;Symbola&quot;, &quot;Noto Sans Symbols&quot;, &quot;Apple Symbols&quot;, &quot;Segoe UI Symbol&quot;, serif" font-size="18px" text-anchor="middle" x="244.06952064440077" y="154.37108295722004">♄</text><line stroke="#444444" stroke-width="1.0" x1="279.4885340717004" x2="278.59673120525264" y1="117.14683550599347" y2="109.19669791929755" /><line stroke="#CCCCCC" stroke-dasharray="2,2" stroke-width="0.5" x1="279.4885340717004" x2="278.2879973092798" y1="117.14683550599347" y2="145.51832167160353" /><svg height="18.0" viewBox="0.7 0.7 10.6 10.6" width="18.0" x="269.2879973092798" y="136.51832167160353"><defs /><path d="M5.375 1v5a5 5 0 0 1 5 5m-7.5-7.5a1.25 1.25 0 1 0 0-2.5 1.249 1.249 0 1 0 0 2.5m0 0h3.75" fill="none" stroke="#222222" stroke-linecap="round" stroke-linejoin="round" stroke-width="0.53" /></svg><line stroke="#444444" stroke-width="1.0" x1="294.42979502601014" x2="294.18761220105404" y1="116.08433232443807" y2="108.08799894723973" /><line stroke="#CCCCCC" stroke-dasharray="2,2" stroke-width="0.5" x1="294.42979502601014" x2="312.6880498116267" y1="116.08433232443807" y2="144.5168388796469" /><text dominant-baseline="middle" fill="#222222" font-family="&quot;Symbola&quot;, &quot;Noto Sans Symbols&quot;, &quot;Apple Symbols&quot;, &quot;Segoe UI Symbol&quot;, serif" font-size="18px" text-anchor="middle" x="312.6880498116267" y="144.5168388796469">♃</text><line stroke="#444444" stroke-width="0.5" x1="322.28970709775314" x2="322.9031852747555" y1="83.14251463807764" y2="77.17395999508895" /><line stroke="#444444" stroke-width="0.5" x1="415.76002563354126" x2="418.94608138492316" y1="115.27421277655395" y2="110.190016797927" /><line stroke="#444444" stroke-width="0.5" x1="463.5043703130225" x2="468.00449059686713" y1="155.81150916754135" y2="151.84301859417093" /><line stroke="#444444" stroke-width="0.5" x1="470.61467296109447" x2="475.310489648097" y1="164.299471738763" y2="160.5645948141418" /><line stroke="#444444" stroke-width="0.5" x1="487.06964892505744" x2="492.21835485877466" y1="188.0672235176142" y2="184.98650489883292" /><line stroke="#444444" stroke-width="0.5" x1="502.1560177980555" x2="507.7199448934148" y1="218.40989969345375" y2="216.1643006024479" /><line stroke="#444444" stroke-width="0.5" x1="507.72591135457367" x2="513.4431382725895" y1="233.86418707000126" y2="232.04393533798296" /><line stroke="#444444" stroke-width="0.5" x1="511.17412810012354" x2="516.986260066182" y1="245.87525869666817" y2="244.3855869176774" /><line stroke="#444444" stroke-width="0.5" x1="515.2390692709989" x2="521.163080351852" y1="265.41469879624947" y2="264.46280977229304" /><line stroke="#444444" stroke-width="0.5" x1="517.8961671237238" x2="523.8933093381381" y1="306.7275814963665" y2="306.91274428984445" /><line stroke="#444444" stroke-width="0.5" x1="517.0873189293148" x2="523.062199266819" y1="319.9272667489028" y2="320.4757236319001" /><line stroke="#444444" stroke-width="0.5" x1="515.0902493629369" x2="521.0101644830178" y1="335.49907926960367" y2="336.47611814858357" /><line stroke="#444444" stroke-width="0.5" x1="514.4866257686681" x2="520.3899273953286" y1="338.9806024372548" y2="340.0534630547939" /><line stroke="#444444" stroke-width="0.5" x1="507.4431686286399" x2="513.1526136367677" y1="367.0173991535754" y2="368.8619147266096" /><line stroke="#444444" stroke-width="0.5" x1="498.0967385517089" x2="503.5489423650587" y1="391.0037481380625" y2="393.508438453789" /><line stroke="#444444" stroke-width="0.5" x1="486.35428695660175" x2="491.48330402880174" y1="413.11975836650527" y2="416.23314621145494" /><line stroke="#444444" stroke-width="0.5" x1="484.3140083385007" x2="489.38687095332176" y1="416.4145451831304" y2="419.61861523404224" /><line stroke="#444444" stroke-width="0.5" x1="470.01896496088136" x2="474.69838601485054" y1="436.4461489146198" y2="440.20154750860013" /><line stroke="#444444" stroke-width="0.5" x1="425.0215847307916" x2="428.4625457784281" y1="478.5878029189046" y2="483.50306354970013" /><line stroke="#444444" stroke-width="0.5" x1="414.95021932797675" x2="418.11398683241646" y1="485.2307940825446" y2="490.3288893325229" /><line stroke="#444444" stroke-width="0.5" x1="397.142375859643" x2="399.8160192319267" y1="495.15982888992255" y2="500.53120032725985" /><line stroke="#444444" stroke-width="0.5" x1="392.82408056298954" x2="395.3788717711452" y1="497.25032336509776" y2="502.6792313476234" /><line stroke="#444444" stroke-width="0.5" x1="389.4309934826411" x2="391.89239697298905" y1="498.811713449454" y2="504.2835954709986" /><line stroke="#444444" stroke-width="0.5" x1="369.08494359917364" x2="370.9863640652059" y1="506.76380381464014" y2="512.4545507086211" /><line stroke="#444444" stroke-width="0.5" x1="345.6561349620196" x2="346.91272583253397" y1="513.1654693901661" y2="519.0324089146661" /><line stroke="#444444" stroke-width="0.5" x1="337.6445343098714" x2="338.6806224101431" y1="514.7251476576345" y2="520.6350141069271" /><line stroke="#444444" stroke-width="0.5" x1="321.9254892163866" x2="322.52894304803027" y1="516.8946124794761" y2="522.8641889697369" /><line stroke="#444444" stroke-width="0.5" x1="293.03458995526603" x2="292.84288142192474" y1="517.8886942062592" y2="523.8856307440461" /><line stroke="#444444" stroke-width="0.5" x1="283.1637850032198" x2="282.70040293908824" y1="517.3488943256491" y2="523.3309739859881" /><line stroke="#444444" stroke-width="0.5" x1="247.98608548642537" x2="246.55450985761138" y1="511.7039269757993" y2="517.5306405622891" /><line stroke="#444444" stroke-width="0.5" x1="220.40548788824245" x2="218.2148132429647" y1="502.95002744934845" y2="508.5358080213488" /><line stroke="#444444" stroke-width="0.5" x1="197.06165244678678" x2="194.22848691779927" y1="492.1658049784453" y2="497.45477208794387" /><line stroke="#444444" stroke-width="0.5" x1="169.69078561428154" x2="166.10429347522506" y1="474.7670124656735" y2="479.57711372619656" /><line stroke="#444444" stroke-width="0.5" x1="165.98694262873053" x2="162.29850985704422" y1="471.94330592961404" y2="476.67569049648415" /><line stroke="#444444" stroke-width="0.5" x1="139.36347169014647" x2="134.94228283758167" y1="447.3767477336829" y2="451.43298849699534" /><line stroke="#444444" stroke-width="0.5" x1="108.0913308059958" x2="102.80944082817916" y1="403.41693617675134" y2="406.26327386968944" /><line stroke="#444444" stroke-width="0.5" x1="104.09048309005968" x2="98.69847803749252" y1="395.62144730191966" y2="398.25323025518355" /><line stroke="#444444" stroke-width="0.5" x1="94.87203011202584" x2="89.226306170155" y1="373.80051469765215" y2="375.8317215241931" /><line stroke="#444444" stroke-width="0.5" x1="82.97268080151966" x2="76.99945183275415" y1="320.5704331874885" y2="321.1365918990707" /><line stroke="#444444" stroke-width="0.5" x1="82.17093413215082" x2="76.17563874129257" y1="308.63122605081224" y2="308.86878273110983" /><line stroke="#444444" stroke-width="0.5" x1="83.30107209322398" x2="77.33688141689069" y1="276.21818669542034" y2="275.5636413751108" /><line stroke="#444444" stroke-width="0.5" x1="95.98732205111503" x2="90.37229421765949" y1="223.1701409859126" y2="221.05555771029555" /><line stroke="#444444" stroke-width="0.5" x1="172.2929376148299" x2="168.77806433817386" y1="123.32259279423906" y2="118.4599118619704" /><line stroke="#444444" stroke-width="0.5" x1="221.29473014861387" x2="219.12853006096105" y1="96.70346658730136" y2="91.10814915392433" /><line stroke="#444444" stroke-width="0.5" x1="248.88563124884314" x2="247.4788137602792" y1="88.07708640363884" y2="82.24434566245458" /></svg>