<?xml version="1.0" encoding="utf-8" ?>
<svg baseProfile="full" height="600px" version="1.1" viewBox="0 0 600 600" width="600px" xmlns="http://www.w3.org/2000/svg" xmlns:ev="http://www.w3.org/2001/xml-events" xmlns:xlink="http://www.w3.org/1999/xlink"><defs /><rect fill="#1A0F2E" height="600px" width="600px" x="0" y="0" /><circle cx="300" cy="300" fill="none" r="216.0" stroke="#7B5FAF" stroke-width="1" /><path d="M 300.0 180.0 A 120.0 120.0 0 0 1 403.92304845413264 360.0 L 341.56921938165306 324.0 A 48.0 48.0 0 0 0 300.0 252.0 Z" fill="#241540" stroke="none" /><path d="M 403.92304845413264 360.0 A 120.0 120.0 0 0 1 196.07695154586736 360.0 L 258.43078061834694 324.0 A 48.0 48.0 0 0 0 341.56921938165306 324.0 Z" fill="#1A0F2E" stroke="none" /><path d="M 196.07695154586736 360.0 A 120.0 120.0 0 0 1 300.0 180.0 L 300.0 252.0 A 48.0 48.0 0 0 0 258.43078061834694 324.0 Z" fill="#241540" stroke="none" /><line stroke="#7B5FAF" stroke-width="1.0" x1="300.0" x2="300.0" y1="252.0" y2="180.0" /><line stroke="#7B5FAF" stroke-width="1.0" x1="341.56921938165306" x2="403.92304845413264" y1="324.0" y2="360.0" /><line stroke="#7B5FAF" stroke-width="1.0" x1="258.43078061834694" x2="196.07695154586736" y1="324.0" y2="360.0" /><text dominant-baseline="middle" fill="#E8D4FF" font-family="&quot;Symbola&quot;, &quot;Noto Sans Symbols&quot;, &quot;Apple Symbols&quot;, &quot;Segoe UI Symbol&quot;, serif" font-size="14px" text-anchor="middle" x="364.66493065929325" y="256.38295352928174">♈</text><text dominant-baseline="middle" fill="#E8D4FF" font-family="&quot;Symbola&quot;, &quot;Noto Sans Symbols&quot;, &quot;Apple Symbols&quot;, &quot;Segoe UI Symbol&quot;, serif" font-size="14px" text-anchor="middle" x="370.105935611335" y="265.80705055045195">♋</text><text dominant-baseline="middle" fill="#E8D4FF" font-family="&quot;Symbola&quot;, &quot;Noto Sans Symbols&quot;, &quot;Apple Symbols&quot;, &quot;Segoe UI Symbol&quot;, serif" font-size="14px" text-anchor="middle" x="374.61338152995376" y="249.6726386876328">♎</text><text dominant-baseline="middle" fill="#E8D4FF" font-family="&quot;Symbola&quot;, &quot;Noto Sans Symbols&quot;, &quot;Apple Symbols&quot;, &quot;Segoe UI Symbol&quot;, serif" font-size="14px" text-anchor="middle" x="380.891464166925" y="260.546596788983">♑</text><text dominant-baseline="middle" fill="#E8D4FF" font-family="&quot;Symbola&quot;, &quot;Noto Sans Symbols&quot;, &quot;Apple Symbols&quot;, &quot;Segoe UI Symbol&quot;, serif" font-size="14px" text-anchor="middle" x="305.4410049520418" y="377.80999592026626">♉</text><text dominant-baseline="middle" fill="#E8D4FF" font-family="&quot;Symbola&quot;, &quot;Noto Sans Symbols&quot;, &quot;Apple Symbols&quot;, &quot;Segoe UI Symbol&quot;, serif" font-size="14px" text-anchor="middle" x="294.5589950479582" y="377.80999592026626">♌</text><text dominant-baseline="middle" fill="#E8D4FF" font-family="&quot;Symbola&quot;, &quot;Noto Sans Symbols&quot;, &quot;Apple Symbols&quot;, &quot;Segoe UI Symbol&quot;, serif" font-size="14px" text-anchor="middle" x="306.27808263697125" y="389.78076452338416">♏</text><text dominant-baseline="middle" fill="#E8D4FF" font-family="&quot;Symbola&quot;, &quot;Noto Sans Symbols&quot;, &quot;Apple Symbols&quot;, &quot;Segoe UI Symbol&quot;, serif" font-size="14px" text-anchor="middle" x="293.7219173630287" y="389.78076452338416">♒</text><text dominant-baseline="middle" fill="#E8D4FF" font-family="&quot;Symbola&quot;, &quot;Noto Sans Symbols&quot;, &quot;Apple Symbols&quot;, &quot;Segoe UI Symbol&quot;, serif" font-size="14px" text-anchor="middle" x="229.894064388665" y="265.80705055045195">♊</text><text dominant-baseline="middle" fill="#E8D4FF" font-family="&quot;Symbola&quot;, &quot;Noto Sans Symbols&quot;, &quot;Apple Symbols&quot;, &quot;Segoe UI Symbol&quot;, serif" font-size="14px" text-anchor="middle" x="235.33506934070675" y="256.38295352928174">♍</text><text dominant-baseline="middle" fill="#E8D4FF" font-family="&quot;Symbola&quot;, &quot;Noto Sans Symbols&quot;, &quot;Apple Symbols&quot;, &quot;Segoe UI Symbol&quot;, serif" font-size="14px" text-anchor="middle" x="219.108535833075" y="260.54659678898304">♐</text><text dominant-baseline="middle" fill="#E8D4FF" font-family="&quot;Symbola&quot;, &quot;Noto Sans Symbols&quot;, &quot;Apple Symbols&quot;, &quot;Segoe UI Symbol&quot;, serif" font-size="14px" text-anchor="middle" x="225.38661847004624" y="249.6726386876328">♓</text><line stroke="#7B5FAF" stroke-width="0.5" x1="299.99999999999994" x2="299.99999999999994" y1="100.80000000000001" y2="84.0" /><line stroke="#7B5FAF" stroke-width="0.5" x1="303.6440624641047" x2="303.76971979045317" y1="91.2318012513455" y2="84.0328978462195" /><line stroke="#7B5FAF" stroke-width="0.5" x1="307.2870149114823" x2="307.53829128774026" y1="91.3271953184128" y2="84.13158136387531" /><line stroke="#7B5FAF" stroke-width="0.5" x1="310.9277476635267" x2="311.3045665484759" y1="91.48615314324496" y2="84.29602049301207" /><line stroke="#7B5FAF" stroke-width="0.5" x1="314.56515171777335" x2="315.06739832873103" y1="91.70862630574868" y2="84.52616514387796" /><line stroke="#7B5FAF" stroke-width="0.5" x1="317.7797715205222" x2="318.82564043349413" y1="96.77628158928391" y2="84.82194521218295" /><line stroke="#7B5FAF" stroke-width="0.5" x1="321.82554313028595" x2="322.578148065813" y1="92.34382824710451" y2="85.18327060045294" /><line stroke="#7B5FAF" stroke-width="0.5" x1="325.44631890299485" x2="326.3237781755119" y1="92.75636353729195" y2="85.61003124547446" /><line stroke="#7B5FAF" stroke-width="0.5" x1="329.0593434804617" x2="330.06138980737416" y1="93.23202724676008" y2="86.1020971518208" /><line stroke="#7B5FAF" stroke-width="0.5" x1="332.66351630040015" x2="333.78984444868985" y1="93.77067448373523" y2="86.65931843145023" /><line stroke="#7B5FAF" stroke-width="0.5" x1="334.59071699125246" x2="337.50800637605687" y1="103.82629559996815" y2="87.28152534936305" /><line stroke="#7B5FAF" stroke-width="0.5" x1="339.8409182346226" x2="341.2147430013338" y1="95.03624409612777" y2="87.9685283753046" /><line stroke="#7B5FAF" stroke-width="0.5" x1="343.4119610427482" x2="344.908925216636" y1="95.76278096678138" y2="88.720118241498" /><line stroke="#7B5FAF" stroke-width="0.5" x1="346.969780146999" x2="348.5894277382748" y1="96.55153047284287" y2="89.53606600638918" /><line stroke="#7B5FAF" stroke-width="0.5" x1="350.5132918012106" x2="352.25512944952817" y1="97.4022523535719" y2="90.41612312438474" /><line stroke="#7B5FAF" stroke-width="0.5" x1="352.79908520091413" x2="355.9049137421444" y1="102.95113143703003" y2="91.36002152156121" /><line stroke="#7B5FAF" stroke-width="0.5" x1="357.5530798945895" x2="359.5376688564719" y1="99.28855788807903" y2="92.36747367732315" /><line stroke="#7B5FAF" stroke-width="0.5" x1="361.04721194610744" x2="363.15228822011113" y1="100.32356695491819" y2="93.43817271198435" /><line stroke="#7B5FAF" stroke-width="0.5" x1="364.522748425489" x2="366.7476707849886" y1="101.41939939757191" y2="94.57179248024681" /><line stroke="#7B5FAF" stroke-width="0.5" x1="367.9786306506542" x2="370.32272136274577" y1="102.57572141486261" y2="95.76798767054754" /><line stroke="#7B5FAF" stroke-width="0.5" x1="368.13041255047324" x2="373.8763509583445" y1="112.81322993944707" y2="97.0263939102438" /><line stroke="#7B5FAF" stroke-width="0.5" x1="374.8272278650587" x2="377.4074771017849" y1="105.06840694738426" y2="98.34662787660443" /><line stroke="#7B5FAF" stroke-width="0.5" x1="378.2178567052424" x2="380.915024177837" y1="106.40401116645478" y2="99.72828741357392" /><line stroke="#7B5FAF" stroke-width="0.5" x1="381.5846596285603" x2="384.3979237536831" y1="107.7985865991304" y2="101.17095165427287" /><line stroke="#7B5FAF" stroke-width="0.5" x1="384.926611074227" x2="387.8551149043727" y1="109.25170844422487" y2="102.67418114919818" /><line stroke="#7B5FAF" stroke-width="0.5" x1="386.2141253951027" x2="391.2855445359911" y1="115.11321144452344" y2="104.23751800008364" /><line stroke="#7B5FAF" stroke-width="0.5" x1="391.5318954495594" x2="394.6881677064407" y1="112.33180313273391" y2="105.86048599937993" /><line stroke="#7B5FAF" stroke-width="0.5" x1="394.79321634561734" x2="398.0619479437421" y1="113.95783774946878" y2="107.54259077531253" /><line stroke="#7B5FAF" stroke-width="0.5" x1="398.0256623096939" x2="401.4058575617523" y1="115.64054261105602" y2="109.28331994247173" /><line stroke="#7B5FAF" stroke-width="0.5" x1="401.2282487074352" x2="404.71887797320886" y1="117.37940514929417" y2="111.08214325789055" /><line stroke="#7B5FAF" stroke-width="0.5" x1="399.6" x2="408.0" y1="127.48773956613985" y2="112.93851278256128" /><line stroke="#7B5FAF" stroke-width="0.5" x1="407.5399500412193" x2="411.2482241805717" y1="121.02346761339894" y2="114.85186304834374" /><line stroke="#7B5FAF" stroke-width="0.5" x1="410.64714237189315" x2="414.4625610743722" y1="122.9275575225382" y2="116.82161123021194" /><line stroke="#7B5FAF" stroke-width="0.5" x1="413.7206305111376" x2="417.6420315632457" y1="124.8855854129954" y2="118.84715732378837" /><line stroke="#7B5FAF" stroke-width="0.5" x1="416.759478244692" x2="420.78566714968133" y1="126.89695485050731" y2="120.92788432811102" /><line stroke="#7B5FAF" stroke-width="0.5" x1="417.0095930156134" x2="423.8925102518259" y1="132.89298296504566" y2="123.06315843357777" /><line stroke="#7B5FAF" stroke-width="0.5" x1="422.72956067866835" x2="426.96161449517416" y1="131.07725157451094" y2="125.25232921501132" /><line stroke="#7B5FAF" stroke-width="0.5" x1="425.6589768341476" x2="429.9920450008424" y1="133.2449055021252" y2="127.49472982978469" /><line stroke="#7B5FAF" stroke-width="0.5" x1="428.5501160479975" x2="432.98287867034225" y1="135.46335464691649" y2="129.78967722094808" /><line stroke="#7B5FAF" stroke-width="0.5" x1="431.4020976512061" x2="435.9332044667649" y1="137.7319232477845" y2="132.1364723252943" /><line stroke="#7B5FAF" stroke-width="0.5" x1="428.0432918495586" x2="438.8421236922925" y1="147.40394693069956" y2="134.53440028630072" /><line stroke="#7B5FAF" stroke-width="0.5" x1="436.9851252532179" x2="441.7087502619495" y1="142.41663964948515" y2="136.9827306718812" /><line stroke="#7B5FAF" stroke-width="0.5" x1="439.7144706077295" x2="444.5322109735133" y1="144.83136044032" y2="139.48071769688278" /><line stroke="#7B5FAF" stroke-width="0.5" x1="442.4012575810498" x2="447.3116457734997" y1="147.29334710191722" y2="142.0276004502592" /><line stroke="#7B5FAF" stroke-width="0.5" x1="445.04466775183863" x2="450.0462080191434" y1="149.8018496892896" y2="144.62260312685135" /><line stroke="#7B5FAF" stroke-width="0.5" x1="444.24978336205567" x2="452.73506473629425" y1="155.75021663794428" y2="147.2649352637057" /><line stroke="#7B5FAF" stroke-width="0.5" x1="450.1981503107103" x2="455.3773968731486" y1="154.95533224816128" y2="149.95379198085652" /><line stroke="#7B5FAF" stroke-width="0.5" x1="452.70665289808284" x2="457.9723995497409" y1="157.59874241895034" y2="152.68835422650037" /><line stroke="#7B5FAF" stroke-width="0.5" x1="455.16863955967995" x2="460.51928230311717" y1="160.2855293922704" y2="155.46778902648666" /><line stroke="#7B5FAF" stroke-width="0.5" x1="457.5833603505148" x2="463.01726932811874" y1="163.01487474678206" y2="158.2912497380504" /><line stroke="#7B5FAF" stroke-width="0.5" x1="452.59605306930035" x2="465.4655997136992" y1="171.95670815044133" y2="161.15787630770745" /><line stroke="#7B5FAF" stroke-width="0.5" x1="462.26807675221545" x2="467.86352767470567" y1="168.59790234879387" y2="164.06679553323502" /><line stroke="#7B5FAF" stroke-width="0.5" x1="464.5366453530836" x2="470.210322779052" y1="171.44988395200255" y2="167.01712132965784" /><line stroke="#7B5FAF" stroke-width="0.5" x1="466.7550944978748" x2="472.5052701702152" y1="174.34102316585233" y2="170.00795499915756" /><line stroke="#7B5FAF" stroke-width="0.5" x1="468.922748425489" x2="474.7476707849886" y1="177.27043932133154" y2="173.03838550482575" /><line stroke="#7B5FAF" stroke-width="0.5" x1="467.1070170349543" x2="476.9368415664222" y1="182.9904069843865" y2="176.10748974817398" /><line stroke="#7B5FAF" stroke-width="0.5" x1="473.10304514949274" x2="479.07211567188904" y1="183.24052175530812" y2="179.21433285031873" /><line stroke="#7B5FAF" stroke-width="0.5" x1="475.11441458700455" x2="481.1528426762116" y1="186.27936948886236" y2="182.35796843675416" /><line stroke="#7B5FAF" stroke-width="0.5" x1="477.0724424774617" x2="483.17838876978794" y1="189.3528576281068" y2="185.53743892562773" /><line stroke="#7B5FAF" stroke-width="0.5" x1="478.976532386601" x2="485.1481369516562" y1="192.46004995878062" y2="188.75177581942825" /><line stroke="#7B5FAF" stroke-width="0.5" x1="472.5122604338601" x2="487.0614872174387" y1="200.39999999999992" y2="191.9999999999999" /><line stroke="#7B5FAF" stroke-width="0.5" x1="482.62059485070586" x2="488.9178567421095" y1="198.77175129256486" y2="195.28112202679125" /><line stroke="#7B5FAF" stroke-width="0.5" x1="484.35945738894395" x2="490.71668005752827" y1="201.97433769030602" y2="198.5941424382476" /><line stroke="#7B5FAF" stroke-width="0.5" x1="486.0421622505312" x2="492.45740922468747" y1="205.2067836543826" y2="201.93805205625785" /><line stroke="#7B5FAF" stroke-width="0.5" x1="487.66819686726603" x2="494.13951400062" y1="208.46810455044056" y2="205.31183229355918" /><line stroke="#7B5FAF" stroke-width="0.5" x1="484.88678855547664" x2="495.7624819999164" y1="213.78587460489734" y2="208.71445546400895" /><line stroke="#7B5FAF" stroke-width="0.5" x1="490.74829155577504" x2="497.3258188508018" y1="215.07338892577292" y2="212.14488509562716" /><line stroke="#7B5FAF" stroke-width="0.5" x1="492.20141340086957" x2="498.8290483457271" y1="218.4153403714396" y2="215.60207624631684" /><line stroke="#7B5FAF" stroke-width="0.5" x1="493.5959888335452" x2="500.271712586426" y1="221.7821432947575" y2="219.08497582216293" /><line stroke="#7B5FAF" stroke-width="0.5" x1="494.93159305261565" x2="501.65337212339557" y1="225.1727721349412" y2="222.59252289821504" /><line stroke="#7B5FAF" stroke-width="0.5" x1="487.18677006055293" x2="502.97360608975623" y1="231.86958744952682" y2="226.1236490416556" /><line stroke="#7B5FAF" stroke-width="0.5" x1="497.42427858513736" x2="504.23201232945246" y1="232.02136934934566" y2="229.67727863725415" /><line stroke="#7B5FAF" stroke-width="0.5" x1="498.58060060242804" x2="505.4282075197532" y1="235.47725157451092" y2="233.2523292150113" /><line stroke="#7B5FAF" stroke-width="0.5" x1="499.6764330450818" x2="506.5618272880156" y1="238.95278805389248" y2="236.84771177988878" /><line stroke="#7B5FAF" stroke-width="0.5" x1="500.711442111921" x2="507.6325263226769" y1="242.4469201054106" y2="240.46233114352822" /><line stroke="#7B5FAF" stroke-width="0.5" x1="497.0488685629699" x2="508.63997847843876" y1="247.20091479908578" y2="244.09508625785554" /><line stroke="#7B5FAF" stroke-width="0.5" x1="502.59774764642805" x2="509.58387687561526" y1="249.48670819878936" y2="247.74487055047175" /><line stroke="#7B5FAF" stroke-width="0.5" x1="503.4484695271571" x2="510.4639339936108" y1="253.03021985300092" y2="251.4105722617251" /><line stroke="#7B5FAF" stroke-width="0.5" x1="504.2372190332186" x2="511.27988175850203" y1="256.58803895725174" y2="255.09107478336387" /><line stroke="#7B5FAF" stroke-width="0.5" x1="504.96375590387225" x2="512.0314716246954" y1="260.1590817653775" y2="258.78525699866634" /><line stroke="#7B5FAF" stroke-width="0.5" x1="496.17370440003185" x2="512.718474650637" y1="265.4092830087475" y2="262.491993623943" /><line stroke="#7B5FAF" stroke-width="0.5" x1="506.2293255162648" x2="513.3406815685497" y1="267.33648369959974" y2="266.2101555513101" /><line stroke="#7B5FAF" stroke-width="0.5" x1="506.76797275323986" x2="513.8979028481792" y1="270.94065651953827" y2="269.9386101926258" /><line stroke="#7B5FAF" stroke-width="0.5" x1="507.2436364627081" x2="514.3899687545256" y1="274.55368109700527" y2="273.6762218244882" /><line stroke="#7B5FAF" stroke-width="0.5" x1="507.6561717528955" x2="514.8167293995471" y1="278.17445686971394" y2="277.42185193418686" /><line stroke="#7B5FAF" stroke-width="0.5" x1="503.22371841071606" x2="515.178054787817" y1="282.2202284794777" y2="281.1743595665058" /><line stroke="#7B5FAF" stroke-width="0.5" x1="508.2913736942513" x2="515.473834856122" y1="285.43484828222654" y2="284.93260167126886" /><line stroke="#7B5FAF" stroke-width="0.5" x1="508.51384685675504" x2="515.7039795069879" y1="289.07225233647324" y2="288.695433451524" /><line stroke="#7B5FAF" stroke-width="0.5" x1="508.6728046815872" x2="515.8684186361247" y1="292.7129850885178" y2="292.46170871225985" /><line stroke="#7B5FAF" stroke-width="0.5" x1="508.7681987486545" x2="515.9671021537805" y1="296.3559375358952" y2="296.2302802095468" /><line stroke="#7B5FAF" stroke-width="0.5" x1="499.2" x2="516.0" y1="300.0" y2="300.0" /><line stroke="#7B5FAF" stroke-width="0.5" x1="508.7681987486545" x2="515.9671021537805" y1="303.6440624641048" y2="303.7697197904532" /><line stroke="#7B5FAF" stroke-width="0.5" x1="508.6728046815872" x2="515.8684186361247" y1="307.2870149114822" y2="307.5382912877402" /><line stroke="#7B5FAF" stroke-width="0.5" x1="508.51384685675504" x2="515.7039795069879" y1="310.9277476635267" y2="311.30456654847586" /><line stroke="#7B5FAF" stroke-width="0.5" x1="508.2913736942513" x2="515.473834856122" y1="314.56515171777335" y2="315.0673983287311" /><line stroke="#7B5FAF" stroke-width="0.5" x1="503.22371841071606" x2="515.178054787817" y1="317.7797715205223" y2="318.8256404334942" /><line stroke="#7B5FAF" stroke-width="0.5" x1="507.6561717528955" x2="514.8167293995471" y1="321.82554313028606" y2="322.57814806581314" /><line stroke="#7B5FAF" stroke-width="0.5" x1="507.2436364627081" x2="514.3899687545255" y1="325.4463189029948" y2="326.32377817551185" /><line stroke="#7B5FAF" stroke-width="0.5" x1="506.7679727532399" x2="513.8979028481792" y1="329.0593434804617" y2="330.06138980737416" /><line stroke="#7B5FAF" stroke-width="0.5" x1="506.2293255162648" x2="513.3406815685498" y1="332.6635163004002" y2="333.78984444868985" /><line stroke="#7B5FAF" stroke-width="0.5" x1="496.17370440003185" x2="512.718474650637" y1="334.5907169912525" y2="337.508006376057" /><line stroke="#7B5FAF" stroke-width="0.5" x1="504.96375590387225" x2="512.0314716246954" y1="339.84091823462256" y2="341.21474300133366" /><line stroke="#7B5FAF" stroke-width="0.5" x1="504.23721903321865" x2="511.27988175850203" y1="343.41196104274815" y2="344.908925216636" /><line stroke="#7B5FAF" stroke-width="0.5" x1="503.44846952715716" x2="510.4639339936108" y1="346.969780146999" y2="348.5894277382748" /><line stroke="#7B5FAF" stroke-width="0.5" x1="502.59774764642805" x2="509.58387687561526" y1="350.51329180121064" y2="352.2551294495282" /><line stroke="#7B5FAF" stroke-width="0.5" x1="497.0488685629699" x2="508.63997847843876" y1="352.79908520091425" y2="355.90491374214446" /><line stroke="#7B5FAF" stroke-width="0.5" x1="500.711442111921" x2="507.6325263226769" y1="357.5530798945894" y2="359.53766885647184" /><line stroke="#7B5FAF" stroke-width="0.5" x1="499.6764330450818" x2="506.56182728801565" y1="361.04721194610744" y2="363.15228822011113" /><line stroke="#7B5FAF" stroke-width="0.5" x1="498.58060060242804" x2="505.4282075197532" y1="364.522748425489" y2="366.74767078498866" /><line stroke="#7B5FAF" stroke-width="0.5" x1="497.42427858513736" x2="504.23201232945246" y1="367.97863065065434" y2="370.3227213627458" /><line stroke="#7B5FAF" stroke-width="0.5" x1="487.18677006055293" x2="502.97360608975623" y1="368.13041255047324" y2="373.87635095834446" /><line stroke="#7B5FAF" stroke-width="0.5" x1="494.93159305261577" x2="501.65337212339557" y1="374.8272278650587" y2="377.4074771017849" /><line stroke="#7B5FAF" stroke-width="0.5" x1="493.5959888335452" x2="500.2717125864261" y1="378.2178567052424" y2="380.915024177837" /><line stroke="#7B5FAF" stroke-width="0.5" x1="492.20141340086957" x2="498.82904834572713" y1="381.58465962856036" y2="384.39792375368313" /><line stroke="#7B5FAF" stroke-width="0.5" x1="490.74829155577504" x2="497.3258188508018" y1="384.9266110742271" y2="387.85511490437284" /><line stroke="#7B5FAF" stroke-width="0.5" x1="484.8867885554766" x2="495.7624819999164" y1="386.21412539510266" y2="391.2855445359911" /><line stroke="#7B5FAF" stroke-width="0.5" x1="487.6681968672661" x2="494.13951400062007" y1="391.5318954495594" y2="394.6881677064407" /><line stroke="#7B5FAF" stroke-width="0.5" x1="486.0421622505312" x2="492.45740922468747" y1="394.7932163456174" y2="398.0619479437421" /><line stroke="#7B5FAF" stroke-width="0.5" x1="484.35945738894395" x2="490.71668005752827" y1="398.025662309694" y2="401.40585756175244" /><line stroke="#7B5FAF" stroke-width="0.5" x1="482.62059485070586" x2="488.9178567421095" y1="401.22824870743517" y2="404.7188779732088" /><line stroke="#7B5FAF" stroke-width="0.5" x1="472.5122604338602" x2="487.06148721743875" y1="399.59999999999997" y2="408.0" /><line stroke="#7B5FAF" stroke-width="0.5" x1="478.9765323866011" x2="485.1481369516563" y1="407.5399500412193" y2="411.2482241805717" /><line stroke="#7B5FAF" stroke-width="0.5" x1="477.0724424774618" x2="483.178388769788" y1="410.6471423718932" y2="414.4625610743723" /><line stroke="#7B5FAF" stroke-width="0.5" x1="475.11441458700455" x2="481.1528426762116" y1="413.72063051113764" y2="417.64203156324584" /><line stroke="#7B5FAF" stroke-width="0.5" x1="473.1030451494927" x2="479.07211567188904" y1="416.759478244692" y2="420.78566714968133" /><line stroke="#7B5FAF" stroke-width="0.5" x1="467.1070170349543" x2="476.93684156642223" y1="417.0095930156134" y2="423.8925102518259" /><line stroke="#7B5FAF" stroke-width="0.5" x1="468.92274842548903" x2="474.74767078498866" y1="422.7295606786684" y2="426.9616144951742" /><line stroke="#7B5FAF" stroke-width="0.5" x1="466.7550944978748" x2="472.5052701702152" y1="425.65897683414767" y2="429.99204500084244" /><line stroke="#7B5FAF" stroke-width="0.5" x1="464.53664535308354" x2="470.2103227790519" y1="428.55011604799745" y2="432.9828786703422" /><line stroke="#7B5FAF" stroke-width="0.5" x1="462.2680767522155" x2="467.8635276747057" y1="431.4020976512061" y2="435.9332044667649" /><line stroke="#7B5FAF" stroke-width="0.5" x1="452.5960530693004" x2="465.46559971369925" y1="428.0432918495586" y2="438.8421236922925" /><line stroke="#7B5FAF" stroke-width="0.5" x1="457.5833603505148" x2="463.01726932811874" y1="436.9851252532179" y2="441.7087502619496" /><line stroke="#7B5FAF" stroke-width="0.5" x1="455.16863955967995" x2="460.51928230311717" y1="439.7144706077296" y2="444.5322109735134" /><line stroke="#7B5FAF" stroke-width="0.5" x1="452.7066528980828" x2="457.9723995497408" y1="442.40125758104966" y2="447.31164577349966" /><line stroke="#7B5FAF" stroke-width="0.5" x1="450.1981503107104" x2="455.37739687314865" y1="445.04466775183863" y2="450.0462080191434" /><line stroke="#7B5FAF" stroke-width="0.5" x1="444.2497833620557" x2="452.73506473629425" y1="444.2497833620557" y2="452.73506473629425" /><line stroke="#7B5FAF" stroke-width="0.5" x1="445.04466775183863" x2="450.0462080191434" y1="450.1981503107104" y2="455.37739687314865" /><line stroke="#7B5FAF" stroke-width="0.5" x1="442.40125758104966" x2="447.31164577349966" y1="452.7066528980828" y2="457.9723995497408" /><line stroke="#7B5FAF" stroke-width="0.5" x1="439.7144706077296" x2="444.5322109735134" y1="455.16863955967995" y2="460.51928230311717" /><line stroke="#7B5FAF" stroke-width="0.5" x1="436.9851252532179" x2="441.7087502619496" y1="457.5833603505148" y2="463.01726932811874" /><line stroke="#7B5FAF" stroke-width="0.5" x1="428.0432918495586" x2="438.8421236922925" y1="452.5960530693004" y2="465.46559971369925" /><line stroke="#7B5FAF" stroke-width="0.5" x1="431.4020976512061" x2="435.9332044667649" y1="462.2680767522155" y2="467.8635276747057" /><line stroke="#7B5FAF" stroke-width="0.5" x1="428.55011604799745" x2="432.9828786703422" y1="464.5366453530836" y2="470.2103227790519" /><line stroke="#7B5FAF" stroke-width="0.5" x1="425.65897683414767" x2="429.99204500084244" y1="466.7550944978748" y2="472.5052701702152" /><line stroke="#7B5FAF" stroke-width="0.5" x1="422.7295606786684" x2="426.9616144951742" y1="468.92274842548903" y2="474.74767078498866" /><line stroke="#7B5FAF" stroke-width="0.5" x1="417.0095930156134" x2="423.8925102518259" y1="467.1070170349543" y2="476.93684156642223" /><line stroke="#7B5FAF" stroke-width="0.5" x1="416.75947824469193" x2="420.78566714968133" y1="473.1030451494927" y2="479.07211567188904" /><line stroke="#7B5FAF" stroke-width="0.5" x1="413.72063051113764" x2="417.64203156324584" y1="475.11441458700455" y2="481.1528426762116" /><line stroke="#7B5FAF" stroke-width="0.5" x1="410.6471423718932" x2="414.4625610743723" y1="477.0724424774618" y2="483.178388769788" /><line stroke="#7B5FAF" stroke-width="0.5" x1="407.5399500412193" x2="411.2482241805717" y1="478.9765323866011" y2="485.1481369516563" /><line stroke="#7B5FAF" stroke-width="0.5" x1="399.6" x2="408.0" y1="472.51226043386015" y2="487.06148721743875" /><line stroke="#7B5FAF" stroke-width="0.5" x1="401.2282487074352" x2="404.7188779732088" y1="482.62059485070586" y2="488.9178567421095" /><line stroke="#7B5FAF" stroke-width="0.5" x1="398.025662309694" x2="401.40585756175244" y1="484.35945738894395" y2="490.7166800575282" /><line stroke="#7B5FAF" stroke-width="0.5" x1="394.7932163456174" x2="398.0619479437421" y1="486.0421622505312" y2="492.45740922468747" /><line stroke="#7B5FAF" stroke-width="0.5" x1="391.5318954495594" x2="394.6881677064407" y1="487.66819686726603" y2="494.13951400062007" /><line stroke="#7B5FAF" stroke-width="0.5" x1="386.21412539510266" x2="391.2855445359911" y1="484.8867885554766" y2="495.7624819999164" /><line stroke="#7B5FAF" stroke-width="0.5" x1="384.9266110742271" x2="387.85511490437284" y1="490.74829155577504" y2="497.3258188508018" /><line stroke="#7B5FAF" stroke-width="0.5" x1="381.58465962856036" x2="384.39792375368313" y1="492.20141340086957" y2="498.82904834572713" /><line stroke="#7B5FAF" stroke-width="0.5" x1="378.2178567052424" x2="380.915024177837" y1="493.5959888335452" y2="500.2717125864261" /><line stroke="#7B5FAF" stroke-width="0.5" x1="374.8272278650587" x2="377.4074771017849" y1="494.93159305261577" y2="501.65337212339557" /><line stroke="#7B5FAF" stroke-width="0.5" x1="368.13041255047324" x2="373.87635095834446" y1="487.18677006055293" y2="502.97360608975623" /><line stroke="#7B5FAF" stroke-width="0.5" x1="367.97863065065434" x2="370.3227213627458" y1="497.42427858513736" y2="504.2320123294524" /><line stroke="#7B5FAF" stroke-width="0.5" x1="364.522748425489" x2="366.74767078498866" y1="498.58060060242804" y2="505.4282075197532" /><line stroke="#7B5FAF" stroke-width="0.5" x1="361.04721194610744" x2="363.15228822011113" y1="499.6764330450818" y2="506.56182728801565" /><line stroke="#7B5FAF" stroke-width="0.5" x1="357.5530798945894" x2="359.53766885647184" y1="500.711442111921" y2="507.6325263226769" /><line stroke="#7B5FAF" stroke-width="0.5" x1="352.79908520091425" x2="355.90491374214446" y1="497.0488685629699" y2="508.63997847843876" /><line stroke="#7B5FAF" stroke-width="0.5" x1="350.5132918012106" x2="352.2551294495282" y1="502.59774764642805" y2="509.58387687561526" /><line stroke="#7B5FAF" stroke-width="0.5" x1="346.969780146999" x2="348.5894277382748" y1="503.44846952715716" y2="510.4639339936108" /><line stroke="#7B5FAF" stroke-width="0.5" x1="343.4119610427482" x2="344.908925216636" y1="504.2372190332186" y2="511.27988175850203" /><line stroke="#7B5FAF" stroke-width="0.5" x1="339.84091823462256" x2="341.2147430013337" y1="504.96375590387225" y2="512.0314716246954" /><line stroke="#7B5FAF" stroke-width="0.5" x1="334.5907169912525" x2="337.508006376057" y1="496.17370440003185" y2="512.718474650637" /><line stroke="#7B5FAF" stroke-width="0.5" x1="332.6635163004002" x2="333.7898444486899" y1="506.2293255162648" y2="513.3406815685498" /><line stroke="#7B5FAF" stroke-width="0.5" x1="329.0593434804617" x2="330.06138980737416" y1="506.7679727532399" y2="513.8979028481792" /><line stroke="#7B5FAF" stroke-width="0.5" x1="325.4463189029948" x2="326.32377817551185" y1="507.2436364627081" y2="514.3899687545255" /><line stroke="#7B5FAF" stroke-width="0.5" x1="321.82554313028606" x2="322.57814806581314" y1="507.6561717528955" y2="514.8167293995471" /><line stroke="#7B5FAF" stroke-width="0.5" x1="317.7797715205223" x2="318.8256404334942" y1="503.22371841071606" y2="515.178054787817" /><line stroke="#7B5FAF" stroke-width="0.5" x1="314.56515171777335" x2="315.06739832873103" y1="508.2913736942513" y2="515.473834856122" /><line stroke="#7B5FAF" stroke-width="0.5" x1="310.9277476635267" x2="311.3045665484759" y1="508.51384685675504" y2="515.7039795069879" /><line stroke="#7B5FAF" stroke-width="0.5" x1="307.28701491148223" x2="307.5382912877402" y1="508.6728046815872" y2="515.8684186361247" /><line stroke="#7B5FAF" stroke-width="0.5" x1="303.6440624641048" x2="303.7697197904533" y1="508.7681987486545" y2="515.9671021537805" /><line stroke="#7B5FAF" stroke-width="0.5" x1="300.0" x2="300.0" y1="499.2" y2="516.0" /><line stroke="#7B5FAF" stroke-width="0.5" x1="296.35593753589524" x2="296.2302802095468" y1="508.7681987486545" y2="515.9671021537805" /><line stroke="#7B5FAF" stroke-width="0.5" x1="292.7129850885178" x2="292.4617087122598" y1="508.6728046815872" y2="515.8684186361247" /><line stroke="#7B5FAF" stroke-width="0.5" x1="289.0722523364733" x2="288.69543345152414" y1="508.51384685675504" y2="515.7039795069879" /><line stroke="#7B5FAF" stroke-width="0.5" x1="285.43484828222665" x2="284.9326016712689" y1="508.2913736942513" y2="515.473834856122" /><line stroke="#7B5FAF" stroke-width="0.5" x1="282.2202284794777" x2="281.1743595665058" y1="503.22371841071606" y2="515.178054787817" /><line stroke="#7B5FAF" stroke-width="0.5" x1="278.17445686971394" x2="277.42185193418686" y1="507.6561717528955" y2="514.8167293995471" /><line stroke="#7B5FAF" stroke-width="0.5" x1="274.5536810970052" x2="273.67622182448815" y1="507.2436364627081" y2="514.3899687545256" /><line stroke="#7B5FAF" stroke-width="0.5" x1="270.9406565195384" x2="269.9386101926259" y1="506.7679727532399" y2="513.8979028481792" /><line stroke="#7B5FAF" stroke-width="0.5" x1="267.3364836995998" x2="266.21015555131015" y1="506.2293255162648" y2="513.3406815685498" /><line stroke="#7B5FAF" stroke-width="0.5" x1="265.4092830087475" x2="262.4919936239431" y1="496.17370440003185" y2="512.718474650637" /><line stroke="#7B5FAF" stroke-width="0.5" x1="260.15908176537744" x2="258.78525699866634" y1="504.96375590387225" y2="512.0314716246954" /><line stroke="#7B5FAF" stroke-width="0.5" x1="256.58803895725185" x2="255.09107478336398" y1="504.23721903321865" y2="511.27988175850203" /><line stroke="#7B5FAF" stroke-width="0.5" x1="253.03021985300097" x2="251.41057226172515" y1="503.44846952715716" y2="510.4639339936108" /><line stroke="#7B5FAF" stroke-width="0.5" x1="249.48670819878936" x2="247.74487055047177" y1="502.59774764642805" y2="509.58387687561526" /><line stroke="#7B5FAF" stroke-width="0.5" x1="247.20091479908575" x2="244.09508625785548" y1="497.0488685629699" y2="508.63997847843876" /><line stroke="#7B5FAF" stroke-width="0.5" x1="242.44692010541058" x2="240.46233114352822" y1="500.711442111921" y2="507.6325263226769" /><line stroke="#7B5FAF" stroke-width="0.5" x1="238.9527880538926" x2="236.84771177988887" y1="499.6764330450818" y2="506.5618272880157" /><line stroke="#7B5FAF" stroke-width="0.5" x1="235.477251574511" x2="233.25232921501137" y1="498.5806006024281" y2="505.4282075197532" /><line stroke="#7B5FAF" stroke-width="0.5" x1="232.0213693493457" x2="229.67727863725418" y1="497.42427858513736" y2="504.23201232945246" /><line stroke="#7B5FAF" stroke-width="0.5" x1="231.8695874495268" x2="226.12364904165554" y1="487.18677006055293" y2="502.97360608975623" /><line stroke="#7B5FAF" stroke-width="0.5" x1="225.17277213494128" x2="222.59252289821512" y1="494.93159305261577" y2="501.65337212339557" /><line stroke="#7B5FAF" stroke-width="0.5" x1="221.78214329475756" x2="219.084975822163" y1="493.5959888335452" y2="500.2717125864261" /><line stroke="#7B5FAF" stroke-width="0.5" x1="218.41534037143964" x2="215.60207624631687" y1="492.20141340086957" y2="498.8290483457271" /><line stroke="#7B5FAF" stroke-width="0.5" x1="215.07338892577292" x2="212.14488509562716" y1="490.74829155577504" y2="497.3258188508018" /><line stroke="#7B5FAF" stroke-width="0.5" x1="213.78587460489734" x2="208.71445546400895" y1="484.88678855547664" y2="495.7624819999164" /><line stroke="#7B5FAF" stroke-width="0.5" x1="208.46810455044061" x2="205.31183229355926" y1="487.66819686726603" y2="494.13951400062007" /><line stroke="#7B5FAF" stroke-width="0.5" x1="205.20678365438263" x2="201.9380520562579" y1="486.0421622505312" y2="492.45740922468747" /><line stroke="#7B5FAF" stroke-width="0.5" x1="201.97433769030596" x2="198.59414243824756" y1="484.35945738894395" y2="490.7166800575282" /><line stroke="#7B5FAF" stroke-width="0.5" x1="198.77175129256483" x2="195.2811220267912" y1="482.62059485070586" y2="488.9178567421095" /><line stroke="#7B5FAF" stroke-width="0.5" x1="200.40000000000003" x2="192.00000000000006" y1="472.5122604338602" y2="487.06148721743875" /><line stroke="#7B5FAF" stroke-width="0.5" x1="192.46004995878064" x2="188.75177581942827" y1="478.9765323866011" y2="485.1481369516563" /><line stroke="#7B5FAF" stroke-width="0.5" x1="189.35285762810685" x2="185.53743892562778" y1="477.0724424774618" y2="483.17838876978806" /><line stroke="#7B5FAF" stroke-width="0.5" x1="186.2793694888623" x2="182.3579684367541" y1="475.11441458700455" y2="481.1528426762116" /><line stroke="#7B5FAF" stroke-width="0.5" x1="183.24052175530807" x2="179.21433285031873" y1="473.1030451494927" y2="479.07211567188904" /><line stroke="#7B5FAF" stroke-width="0.5" x1="182.9904069843866" x2="176.10748974817403" y1="467.1070170349543" y2="476.93684156642223" /><line stroke="#7B5FAF" stroke-width="0.5" x1="177.27043932133162" x2="173.03838550482584" y1="468.92274842548903" y2="474.74767078498866" /><line stroke="#7B5FAF" stroke-width="0.5" x1="174.34102316585228" x2="170.00795499915756" y1="466.7550944978747" y2="472.5052701702152" /><line stroke="#7B5FAF" stroke-width="0.5" x1="171.44988395200255" x2="167.0171213296578" y1="464.5366453530836" y2="470.2103227790519" /><line stroke="#7B5FAF" stroke-width="0.5" x1="168.59790234879398" x2="164.06679553323514" y1="462.26807675221556" y2="467.8635276747058" /><line stroke="#7B5FAF" stroke-width="0.5" x1="171.95670815044136" x2="161.1578763077075" y1="452.5960530693004" y2="465.46559971369925" /><line stroke="#7B5FAF" stroke-width="0.5" x1="163.01487474678208" x2="158.29124973805045" y1="457.5833603505148" y2="463.0172693281188" /><line stroke="#7B5FAF" stroke-width="0.5" x1="160.2855293922704" x2="155.46778902648663" y1="455.16863955967995" y2="460.51928230311717" /><line stroke="#7B5FAF" stroke-width="0.5" x1="157.59874241895034" x2="152.68835422650037" y1="452.70665289808284" y2="457.9723995497409" /><line stroke="#7B5FAF" stroke-width="0.5" x1="154.95533224816134" x2="149.95379198085658" y1="450.1981503107104" y2="455.37739687314865" /><line stroke="#7B5FAF" stroke-width="0.5" x1="155.7502166379443" x2="147.26493526370575" y1="444.2497833620557" y2="452.73506473629425" /><line stroke="#7B5FAF" stroke-width="0.5" x1="149.8018496892896" x2="144.62260312685132" y1="445.0446677518386" y2="450.04620801914336" /><line stroke="#7B5FAF" stroke-width="0.5" x1="147.2933471019172" x2="142.02760045025917" y1="442.4012575810497" y2="447.31164577349966" /><line stroke="#7B5FAF" stroke-width="0.5" x1="144.8313604403201" x2="139.4807176968829" y1="439.71447060772965" y2="444.53221097351343" /><line stroke="#7B5FAF" stroke-width="0.5" x1="142.4166396494852" x2="136.98273067188126" y1="436.9851252532179" y2="441.7087502619496" /><line stroke="#7B5FAF" stroke-width="0.5" x1="147.40394693069962" x2="134.53440028630078" y1="428.0432918495586" y2="438.8421236922925" /><line stroke="#7B5FAF" stroke-width="0.5" x1="137.73192324778447" x2="132.13647232529428" y1="431.4020976512061" y2="435.9332044667649" /><line stroke="#7B5FAF" stroke-width="0.5" x1="135.46335464691646" x2="129.78967722094808" y1="428.55011604799745" y2="432.9828786703422" /><line stroke="#7B5FAF" stroke-width="0.5" x1="133.24490550212522" x2="127.49472982978472" y1="425.65897683414767" y2="429.9920450008424" /><line stroke="#7B5FAF" stroke-width="0.5" x1="131.077251574511" x2="125.25232921501137" y1="422.7295606786684" y2="426.9616144951742" /><line stroke="#7B5FAF" stroke-width="0.5" x1="132.89298296504566" x2="123.06315843357774" y1="417.0095930156134" y2="423.8925102518259" /><line stroke="#7B5FAF" stroke-width="0.5" x1="126.89695485050731" x2="120.92788432811102" y1="416.759478244692" y2="420.78566714968133" /><line stroke="#7B5FAF" stroke-width="0.5" x1="124.88558541299548" x2="118.84715732378842" y1="413.7206305111377" y2="417.6420315632459" /><line stroke="#7B5FAF" stroke-width="0.5" x1="122.92755752253825" x2="116.821611230212" y1="410.6471423718932" y2="414.4625610743723" /><line stroke="#7B5FAF" stroke-width="0.5" x1="121.02346761339896" x2="114.85186304834377" y1="407.53995004121936" y2="411.24822418057175" /><line stroke="#7B5FAF" stroke-width="0.5" x1="127.48773956613982" x2="112.93851278256125" y1="399.59999999999997" y2="408.0" /><line stroke="#7B5FAF" stroke-width="0.5" x1="117.37940514929417" x2="111.08214325789052" y1="401.2282487074352" y2="404.7188779732088" /><line stroke="#7B5FAF" stroke-width="0.5" x1="115.64054261105605" x2="109.28331994247176" y1="398.025662309694" y2="401.4058575617524" /><line stroke="#7B5FAF" stroke-width="0.5" x1="113.95783774946881" x2="107.54259077531256" y1="394.7932163456174" y2="398.0619479437421" /><line stroke="#7B5FAF" stroke-width="0.5" x1="112.33180313273391" x2="105.86048599937993" y1="391.53189544955933" y2="394.6881677064407" /><line stroke="#7B5FAF" stroke-width="0.5" x1="115.11321144452342" x2="104.23751800008361" y1="386.2141253951027" y2="391.2855445359911" /><line stroke="#7B5FAF" stroke-width="0.5" x1="109.25170844422496" x2="102.67418114919823" y1="384.92661107422714" y2="387.8551149043729" /><line stroke="#7B5FAF" stroke-width="0.5" x1="107.79858659913043" x2="101.17095165427287" y1="381.58465962856036" y2="384.39792375368313" /><line stroke="#7B5FAF" stroke-width="0.5" x1="106.40401116645481" x2="99.72828741357395" y1="378.21785670524247" y2="380.91502417783704" /><line stroke="#7B5FAF" stroke-width="0.5" x1="105.06840694738426" x2="98.34662787660443" y1="374.8272278650587" y2="377.4074771017848" /><line stroke="#7B5FAF" stroke-width="0.5" x1="112.81322993944707" x2="97.0263939102438" y1="368.13041255047324" y2="373.87635095834446" /><line stroke="#7B5FAF" stroke-width="0.5" x1="102.57572141486264" x2="95.76798767054757" y1="367.9786306506543" y2="370.3227213627458" /><line stroke="#7B5FAF" stroke-width="0.5" x1="101.41939939757194" x2="94.57179248024684" y1="364.52274842548906" y2="366.74767078498866" /><line stroke="#7B5FAF" stroke-width="0.5" x1="100.32356695491816" x2="93.43817271198432" y1="361.0472119461074" y2="363.15228822011113" /><line stroke="#7B5FAF" stroke-width="0.5" x1="99.288557888079" x2="92.36747367732312" y1="357.5530798945894" y2="359.53766885647184" /><line stroke="#7B5FAF" stroke-width="0.5" x1="102.95113143703009" x2="91.36002152156126" y1="352.7990852009143" y2="355.9049137421445" /><line stroke="#7B5FAF" stroke-width="0.5" x1="97.40225235357192" x2="90.41612312438477" y1="350.51329180121064" y2="352.2551294495282" /><line stroke="#7B5FAF" stroke-width="0.5" x1="96.5515304728429" x2="89.5360660063892" y1="346.969780146999" y2="348.5894277382749" /><line stroke="#7B5FAF" stroke-width="0.5" x1="95.76278096678135" x2="88.72011824149797" y1="343.41196104274815" y2="344.908925216636" /><line stroke="#7B5FAF" stroke-width="0.5" x1="95.03624409612777" x2="87.9685283753046" y1="339.84091823462256" y2="341.2147430013337" /><line stroke="#7B5FAF" stroke-width="0.5" x1="103.82629559996818" x2="87.28152534936308" y1="334.5907169912525" y2="337.5080063760569" /><line stroke="#7B5FAF" stroke-width="0.5" x1="93.77067448373523" x2="86.65931843145026" y1="332.66351630040026" y2="333.7898444486899" /><line stroke="#7B5FAF" stroke-width="0.5" x1="93.23202724676008" x2="86.1020971518208" y1="329.0593434804616" y2="330.0613898073741" /><line stroke="#7B5FAF" stroke-width="0.5" x1="92.75636353729195" x2="85.61003124547446" y1="325.4463189029948" y2="326.32377817551185" /><line stroke="#7B5FAF" stroke-width="0.5" x1="92.34382824710454" x2="85.18327060045297" y1="321.8255431302861" y2="322.5781480658132" /><line stroke="#7B5FAF" stroke-width="0.5" x1="96.77628158928391" x2="84.82194521218295" y1="317.7797715205223" y2="318.8256404334942" /><line stroke="#7B5FAF" stroke-width="0.5" x1="91.70862630574871" x2="84.52616514387796" y1="314.5651517177734" y2="315.0673983287311" /><line stroke="#7B5FAF" stroke-width="0.5" x1="91.48615314324496" x2="84.29602049301207" y1="310.92774766352665" y2="311.30456654847586" /><line stroke="#7B5FAF" stroke-width="0.5" x1="91.3271953184128" x2="84.13158136387531" y1="307.28701491148223" y2="307.53829128774026" /><line stroke="#7B5FAF" stroke-width="0.5" x1="91.2318012513455" x2="84.0328978462195" y1="303.64406246410476" y2="303.7697197904532" /><line stroke="#7B5FAF" stroke-width="0.5" x1="100.80000000000001" x2="84.0" y1="300.0" y2="300.0" /><line stroke="#7B5FAF" stroke-width="0.5" x1="91.2318012513455" x2="84.0328978462195" y1="296.3559375358952" y2="296.2302802095467" /><line stroke="#7B5FAF" stroke-width="0.5" x1="91.3271953184128" x2="84.13158136387531" y1="292.7129850885178" y2="292.4617087122598" /><line stroke="#7B5FAF" stroke-width="0.5" x1="91.48615314324496" x2="84.29602049301207" y1="289.0722523364734" y2="288.6954334515242" /><line stroke="#7B5FAF" stroke-width="0.5" x1="91.70862630574871" x2="84.52616514387796" y1="285.43484828222665" y2="284.9326016712689" /><line stroke="#7B5FAF" stroke-width="0.5" x1="96.77628158928391" x2="84.82194521218295" y1="282.2202284794778" y2="281.17435956650587" /><line stroke="#7B5FAF" stroke-width="0.5" x1="92.34382824710454" x2="85.18327060045297" y1="278.17445686971394" y2="277.42185193418686" /><line stroke="#7B5FAF" stroke-width="0.5" x1="92.75636353729195" x2="85.61003124547443" y1="274.55368109700527" y2="273.67622182448815" /><line stroke="#7B5FAF" stroke-width="0.5" x1="93.23202724676011" x2="86.10209715182083" y1="270.9406565195383" y2="269.93861019262584" /><line stroke="#7B5FAF" stroke-width="0.5" x1="93.77067448373523" x2="86.65931843145023" y1="267.33648369959985" y2="266.21015555131015" /><line stroke="#7B5FAF" stroke-width="0.5" x1="103.82629559996818" x2="87.28152534936308" y1="265.4092830087475" y2="262.491993623943" /><line stroke="#7B5FAF" stroke-width="0.5" x1="95.03624409612775" x2="87.96852837530457" y1="260.15908176537744" y2="258.78525699866634" /><line stroke="#7B5FAF" stroke-width="0.5" x1="95.76278096678138" x2="88.720118241498" y1="256.5880389572518" y2="255.09107478336395" /><line stroke="#7B5FAF" stroke-width="0.5" x1="96.55153047284287" x2="89.53606600638918" y1="253.030219853001" y2="251.41057226172518" /><line stroke="#7B5FAF" stroke-width="0.5" x1="97.40225235357192" x2="90.41612312438477" y1="249.48670819878942" y2="247.74487055047183" /><line stroke="#7B5FAF" stroke-width="0.5" x1="102.95113143703006" x2="91.36002152156124" y1="247.20091479908575" y2="244.0950862578555" /><line stroke="#7B5FAF" stroke-width="0.5" x1="99.288557888079" x2="92.36747367732312" y1="242.4469201054106" y2="240.46233114352822" /><line stroke="#7B5FAF" stroke-width="0.5" x1="100.32356695491819" x2="93.43817271198435" y1="238.95278805389256" y2="236.84771177988887" /><line stroke="#7B5FAF" stroke-width="0.5" x1="101.41939939757191" x2="94.57179248024681" y1="235.477251574511" y2="233.2523292150114" /><line stroke="#7B5FAF" stroke-width="0.5" x1="102.57572141486264" x2="95.7679876705476" y1="232.02136934934566" y2="229.67727863725415" /><line stroke="#7B5FAF" stroke-width="0.5" x1="112.81322993944704" x2="97.02639391024377" y1="231.86958744952682" y2="226.12364904165557" /><line stroke="#7B5FAF" stroke-width="0.5" x1="105.06840694738429" x2="98.34662787660446" y1="225.17277213494128" y2="222.59252289821512" /><line stroke="#7B5FAF" stroke-width="0.5" x1="106.40401116645478" x2="99.72828741357392" y1="221.78214329475756" y2="219.08497582216302" /><line stroke="#7B5FAF" stroke-width="0.5" x1="107.79858659913043" x2="101.17095165427287" y1="218.4153403714397" y2="215.60207624631693" /><line stroke="#7B5FAF" stroke-width="0.5" x1="109.25170844422493" x2="102.6741811491982" y1="215.07338892577292" y2="212.14488509562716" /><line stroke="#7B5FAF" stroke-width="0.5" x1="115.11321144452339" x2="104.23751800008358" y1="213.78587460489734" y2="208.71445546400895" /><line stroke="#7B5FAF" stroke-width="0.5" x1="112.33180313273394" x2="105.86048599937993" y1="208.46810455044061" y2="205.31183229355926" /><line stroke="#7B5FAF" stroke-width="0.5" x1="113.95783774946878" x2="107.54259077531253" y1="205.20678365438266" y2="201.9380520562579" /><line stroke="#7B5FAF" stroke-width="0.5" x1="115.64054261105605" x2="109.28331994247179" y1="201.974337690306" y2="198.59414243824756" /><line stroke="#7B5FAF" stroke-width="0.5" x1="117.37940514929414" x2="111.0821432578905" y1="198.77175129256483" y2="195.28112202679122" /><line stroke="#7B5FAF" stroke-width="0.5" x1="127.48773956613985" x2="112.93851278256128" y1="200.39999999999998" y2="191.99999999999997" /><line stroke="#7B5FAF" stroke-width="0.5" x1="121.02346761339894" x2="114.85186304834374" y1="192.4600499587807" y2="188.7517758194283" /><line stroke="#7B5FAF" stroke-width="0.5" x1="122.92755752253822" x2="116.82161123021197" y1="189.35285762810685" y2="185.53743892562778" /><line stroke="#7B5FAF" stroke-width="0.5" x1="124.88558541299545" x2="118.8471573237884" y1="186.27936948886236" y2="182.35796843675416" /><line stroke="#7B5FAF" stroke-width="0.5" x1="126.89695485050726" x2="120.92788432811096" y1="183.24052175530807" y2="179.21433285031873" /><line stroke="#7B5FAF" stroke-width="0.5" x1="132.89298296504566" x2="123.06315843357777" y1="182.9904069843866" y2="176.10748974817403" /><line stroke="#7B5FAF" stroke-width="0.5" x1="131.07725157451097" x2="125.25232921501134" y1="177.27043932133162" y2="173.03838550482584" /><line stroke="#7B5FAF" stroke-width="0.5" x1="133.24490550212525" x2="127.49472982978475" y1="174.34102316585228" y2="170.00795499915756" /><line stroke="#7B5FAF" stroke-width="0.5" x1="135.46335464691643" x2="129.78967722094805" y1="171.44988395200255" y2="167.01712132965784" /><line stroke="#7B5FAF" stroke-width="0.5" x1="137.7319232477845" x2="132.1364723252943" y1="168.5979023487939" y2="164.06679553323508" /><line stroke="#7B5FAF" stroke-width="0.5" x1="147.4039469306996" x2="134.53440028630075" y1="171.9567081504414" y2="161.1578763077075" /><line stroke="#7B5FAF" stroke-width="0.5" x1="142.41663964948518" x2="136.98273067188123" y1="163.0148747467821" y2="158.29124973805048" /><line stroke="#7B5FAF" stroke-width="0.5" x1="144.83136044032008" x2="139.48071769688283" y1="160.2855293922704" y2="155.46778902648663" /><line stroke="#7B5FAF" stroke-width="0.5" x1="147.29334710191716" x2="142.02760045025914" y1="157.59874241895034" y2="152.68835422650037" /><line stroke="#7B5FAF" stroke-width="0.5" x1="149.80184968928964" x2="144.62260312685137" y1="154.95533224816134" y2="149.95379198085658" /><line stroke="#7B5FAF" stroke-width="0.5" x1="155.75021663794428" x2="147.2649352637057" y1="155.7502166379443" y2="147.26493526370575" /><line stroke="#7B5FAF" stroke-width="0.5" x1="154.95533224816137" x2="149.95379198085658" y1="149.8018496892896" y2="144.62260312685135" /><line stroke="#7B5FAF" stroke-width="0.5" x1="157.59874241895028" x2="152.6883542265003" y1="147.29334710191722" y2="142.0276004502592" /><line stroke="#7B5FAF" stroke-width="0.5" x1="160.2855293922704" x2="155.46778902648666" y1="144.83136044032005" y2="139.4807176968828" /><line stroke="#7B5FAF" stroke-width="0.5" x1="163.01487474678208" x2="158.29124973805042" y1="142.4166396494852" y2="136.98273067188126" /><line stroke="#7B5FAF" stroke-width="0.5" x1="171.95670815044136" x2="161.15787630770748" y1="147.40394693069962" y2="134.53440028630078" /><line stroke="#7B5FAF" stroke-width="0.5" x1="168.59790234879387" x2="164.06679553323502" y1="137.73192324778455" y2="132.13647232529436" /><line stroke="#7B5FAF" stroke-width="0.5" x1="171.44988395200258" x2="167.01712132965787" y1="135.4633546469164" y2="129.78967722094802" /><line stroke="#7B5FAF" stroke-width="0.5" x1="174.34102316585233" x2="170.00795499915756" y1="133.24490550212525" y2="127.49472982978475" /><line stroke="#7B5FAF" stroke-width="0.5" x1="177.2704393213316" x2="173.03838550482578" y1="131.077251574511" y2="125.25232921501137" /><line stroke="#7B5FAF" stroke-width="0.5" x1="182.99040698438654" x2="176.10748974817398" y1="132.89298296504572" y2="123.06315843357783" /><line stroke="#7B5FAF" stroke-width="0.5" x1="183.24052175530812" x2="179.21433285031873" y1="126.89695485050726" y2="120.92788432811096" /><line stroke="#7B5FAF" stroke-width="0.5" x1="186.27936948886236" x2="182.35796843675416" y1="124.88558541299543" y2="118.8471573237884" /><line stroke="#7B5FAF" stroke-width="0.5" x1="189.3528576281068" x2="185.53743892562773" y1="122.92755752253825" y2="116.821611230212" /><line stroke="#7B5FAF" stroke-width="0.5" x1="192.46004995878064" x2="188.75177581942825" y1="121.02346761339899" y2="114.85186304834377" /><line stroke="#7B5FAF" stroke-width="0.5" x1="200.39999999999992" x2="191.9999999999999" y1="127.48773956613988" y2="112.9385127825613" /><line stroke="#7B5FAF" stroke-width="0.5" x1="198.77175129256486" x2="195.28112202679125" y1="117.37940514929412" y2="111.08214325789046" /><line stroke="#7B5FAF" stroke-width="0.5" x1="201.97433769030602" x2="198.59414243824762" y1="115.64054261105605" y2="109.28331994247176" /><line stroke="#7B5FAF" stroke-width="0.5" x1="205.2067836543826" x2="201.93805205625785" y1="113.95783774946881" y2="107.54259077531256" /><line stroke="#7B5FAF" stroke-width="0.5" x1="208.46810455044056" x2="205.3118322935592" y1="112.33180313273397" y2="105.86048599937996" /><line stroke="#7B5FAF" stroke-width="0.5" x1="213.78587460489737" x2="208.71445546400898" y1="115.11321144452339" y2="104.23751800008358" /><line stroke="#7B5FAF" stroke-width="0.5" x1="215.07338892577292" x2="212.14488509562716" y1="109.2517084442249" y2="102.67418114919818" /><line stroke="#7B5FAF" stroke-width="0.5" x1="218.41534037143964" x2="215.60207624631687" y1="107.79858659913046" y2="101.1709516542729" /><line stroke="#7B5FAF" stroke-width="0.5" x1="221.7821432947575" x2="219.08497582216296" y1="106.40401116645481" y2="99.72828741357395" /><line stroke="#7B5FAF" stroke-width="0.5" x1="225.17277213494123" x2="222.59252289821507" y1="105.06840694738432" y2="98.34662787660446" /><line stroke="#7B5FAF" stroke-width="0.5" x1="231.86958744952682" x2="226.1236490416556" y1="112.81322993944704" y2="97.02639391024377" /><line stroke="#7B5FAF" stroke-width="0.5" x1="232.0213693493457" x2="229.67727863725418" y1="102.57572141486264" y2="95.76798767054757" /><line stroke="#7B5FAF" stroke-width="0.5" x1="235.47725157451094" x2="233.25232921501134" y1="101.41939939757194" y2="94.57179248024684" /><line stroke="#7B5FAF" stroke-width="0.5" x1="238.9527880538925" x2="236.84771177988878" y1="100.32356695491822" y2="93.43817271198438" /><line stroke="#7B5FAF" stroke-width="0.5" x1="242.44692010541064" x2="240.46233114352825" y1="99.28855788807897" y2="92.36747367732309" /><line stroke="#7B5FAF" stroke-width="0.5" x1="247.2009147990858" x2="244.09508625785554" y1="102.95113143703006" y2="91.36002152156124" /><line stroke="#7B5FAF" stroke-width="0.5" x1="249.48670819878936" x2="247.74487055047177" y1="97.40225235357192" y2="90.41612312438477" /><line stroke="#7B5FAF" stroke-width="0.5" x1="253.03021985300092" x2="251.41057226172512" y1="96.5515304728429" y2="89.5360660063892" /><line stroke="#7B5FAF" stroke-width="0.5" x1="256.58803895725174" x2="255.0910747833639" y1="95.76278096678138" y2="88.720118241498" /><line stroke="#7B5FAF" stroke-width="0.5" x1="260.1590817653775" x2="258.78525699866634" y1="95.03624409612775" y2="87.96852837530457" /><line stroke="#7B5FAF" stroke-width="0.5" x1="265.4092830087475" x2="262.491993623943" y1="103.82629559996818" y2="87.28152534936308" /><line stroke="#7B5FAF" stroke-width="0.5" x1="267.33648369959974" x2="266.2101555513101" y1="93.77067448373523" y2="86.65931843145026" /><line stroke="#7B5FAF" stroke-width="0.5" x1="270.94065651953827" x2="269.9386101926258" y1="93.23202724676011" y2="86.10209715182083" /><line stroke="#7B5FAF" stroke-width="0.5" x1="274.55368109700527" x2="273.6762218244882" y1="92.75636353729195" y2="85.61003124547443" /><line stroke="#7B5FAF" stroke-width="0.5" x1="278.174456869714" x2="277.42185193418686" y1="92.34382824710451" y2="85.18327060045294" /><line stroke="#7B5FAF" stroke-width="0.5" x1="282.2202284794777" x2="281.1743595665058" y1="96.77628158928391" y2="84.82194521218295" /><line stroke="#7B5FAF" stroke-width="0.5" x1="285.4348482822266" x2="284.93260167126886" y1="91.70862630574871" y2="84.52616514387796" /><line stroke="#7B5FAF" stroke-width="0.5" x1="289.07225233647324" x2="288.695433451524" y1="91.48615314324496" y2="84.29602049301207" /><line stroke="#7B5FAF" stroke-width="0.5" x1="292.7129850885178" x2="292.46170871225985" y1="91.3271953184128" y2="84.13158136387531" /><line stroke="#7B5FAF" stroke-width="0.5" x1="296.3559375358952" x2="296.2302802095468" y1="91.2318012513455" y2="84.0328978462195" /><text dominant-baseline="middle" fill="#E8D4FF" font-family="&quot;Arial&quot;, &quot;Helvetica&quot;, sans-serif" font-size="8px" text-anchor="middle" x="299.99999999999994" y="116.0">0</text><text dominant-baseline="middle" fill="#E8D4FF" font-family="&quot;Arial&quot;, &quot;Helvetica&quot;, sans-serif" font-size="8px" text-anchor="middle" x="331.9512646907151" y="118.79537344575371">10</text><text dominant-baseline="middle" fill="#E8D4FF" font-family="&quot;Arial&quot;, &quot;Helvetica&quot;, sans-serif" font-size="8px" text-anchor="middle" x="362.9317063719231" y="127.09655777539288">20</text><text dominant-baseline="middle" fill="#E8D4FF" font-family="&quot;Arial&quot;, &quot;Helvetica&quot;, sans-serif" font-size="8px" text-anchor="middle" x="392.0" y="140.6513257036633">30</text><text dominant-baseline="middle" fill="#E8D4FF" font-family="&quot;Arial&quot;, &quot;Helvetica&quot;, sans-serif" font-size="8px" text-anchor="middle" x="418.2729201823232" y="159.04782246610802">40</text><text dominant-baseline="middle" fill="#E8D4FF" font-family="&quot;Arial&quot;, &quot;Helvetica&quot;, sans-serif" font-size="8px" text-anchor="middle" x="440.9521775338919" y="181.72707981767672">50</text><text dominant-baseline="middle" fill="#E8D4FF" font-family="&quot;Arial&quot;, &quot;Helvetica&quot;, sans-serif" font-size="8px" text-anchor="middle" x="459.34867429633664" y="207.99999999999991">60</text><text dominant-baseline="middle" fill="#E8D4FF" font-family="&quot;Arial&quot;, &quot;Helvetica&quot;, sans-serif" font-size="8px" text-anchor="middle" x="472.90344222460715" y="237.068293628077">70</text><text dominant-baseline="middle" fill="#E8D4FF" font-family="&quot;Arial&quot;, &quot;Helvetica&quot;, sans-serif" font-size="8px" text-anchor="middle" x="481.20462655424626" y="268.0487353092848">80</text><text dominant-baseline="middle" fill="#E8D4FF" font-family="&quot;Arial&quot;, &quot;Helvetica&quot;, sans-serif" font-size="8px" text-anchor="middle" x="484.0" y="300.0">90</text><text dominant-baseline="middle" fill="#E8D4FF" font-family="&quot;Arial&quot;, &quot;Helvetica&quot;, sans-serif" font-size="8px" text-anchor="middle" x="481.20462655424626" y="331.95126469071516">100</text><text dominant-baseline="middle" fill="#E8D4FF" font-family="&quot;Arial&quot;, &quot;Helvetica&quot;, sans-serif" font-size="8px" text-anchor="middle" x="472.90344222460715" y="362.93170637192304">110</text><text dominant-baseline="middle" fill="#E8D4FF" font-family="&quot;Arial&quot;, &quot;Helvetica&quot;, sans-serif" font-size="8px" text-anchor="middle" x="459.34867429633675" y="392.0">120</text><text dominant-baseline="middle" fill="#E8D4FF" font-family="&quot;Arial&quot;, &quot;Helvetica&quot;, sans-serif" font-size="8px" text-anchor="middle" x="440.9521775338919" y="418.2729201823232">130</text><text dominant-baseline="middle" fill="#E8D4FF" font-family="&quot;Arial&quot;, &quot;Helvetica&quot;, sans-serif" font-size="8px" text-anchor="middle" x="418.2729201823232" y="440.9521775338919">140</text><text dominant-baseline="middle" fill="#E8D4FF" font-family="&quot;Arial&quot;, &quot;Helvetica&quot;, sans-serif" font-size="8px" text-anchor="middle" x="392.0" y="459.3486742963367">150</text><text dominant-baseline="middle" fill="#E8D4FF" font-family="&quot;Arial&quot;, &quot;Helvetica&quot;, sans-serif" font-size="8px" text-anchor="middle" x="362.93170637192304" y="472.90344222460715">160</text><text dominant-baseline="middle" fill="#E8D4FF" font-family="&quot;Arial&quot;, &quot;Helvetica&quot;, sans-serif" font-size="8px" text-anchor="middle" x="331.9512646907152" y="481.20462655424626">170</text><text dominant-baseline="middle" fill="#E8D4FF" font-family="&quot;Arial&quot;, &quot;Helvetica&quot;, sans-serif" font-size="8px" text-anchor="middle" x="300.0" y="484.0">180</text><text dominant-baseline="middle" fill="#E8D4FF" font-family="&quot;Arial&quot;, &quot;Helvetica&quot;, sans-serif" font-size="8px" text-anchor="middle" x="268.04873530928484" y="481.20462655424626">190</text><text dominant-baseline="middle" fill="#E8D4FF" font-family="&quot;Arial&quot;, &quot;Helvetica&quot;, sans-serif" font-size="8px" text-anchor="middle" x="237.06829362807696" y="472.90344222460715">200</text><text dominant-baseline="middle" fill="#E8D4FF" font-family="&quot;Arial&quot;, &quot;Helvetica&quot;, sans-serif" font-size="8px" text-anchor="middle" x="208.00000000000003" y="459.34867429633675">210</text><text dominant-baseline="middle" fill="#E8D4FF" font-family="&quot;Arial&quot;, &quot;Helvetica&quot;, sans-serif" font-size="8px" text-anchor="middle" x="181.72707981767675" y="440.9521775338919">220</text><text dominant-baseline="middle" fill="#E8D4FF" font-family="&quot;Arial&quot;, &quot;Helvetica&quot;, sans-serif" font-size="8px" text-anchor="middle" x="159.04782246610807" y="418.2729201823233">230</text><text dominant-baseline="middle" fill="#E8D4FF" font-family="&quot;Arial&quot;, &quot;Helvetica&quot;, sans-serif" font-size="8px" text-anchor="middle" x="140.65132570366328" y="392.0">240</text><text dominant-baseline="middle" fill="#E8D4FF" font-family="&quot;Arial&quot;, &quot;Helvetica&quot;, sans-serif" font-size="8px" text-anchor="middle" x="127.09655777539288" y="362.93170637192304">250</text><text dominant-baseline="middle" fill="#E8D4FF" font-family="&quot;Arial&quot;, &quot;Helvetica&quot;, sans-serif" font-size="8px" text-anchor="middle" x="118.79537344575371" y="331.95126469071516">260</text><text dominant-baseline="middle" fill="#E8D4FF" font-family="&quot;Arial&quot;, &quot;Helvetica&quot;, sans-serif" font-size="8px" text-anchor="middle" x="116.0" y="300.0">270</text><text dominant-baseline="middle" fill="#E8D4FF" font-family="&quot;Arial&quot;, &quot;Helvetica&quot;, sans-serif" font-size="8px" text-anchor="middle" x="118.79537344575371" y="268.0487353092848">280</text><text dominant-baseline="middle" fill="#E8D4FF" font-family="&quot;Arial&quot;, &quot;Helvetica&quot;, sans-serif" font-size="8px" text-anchor="middle" x="127.09655777539285" y="237.06829362807696">290</text><text dominant-baseline="middle" fill="#E8D4FF" font-family="&quot;Arial&quot;, &quot;Helvetica&quot;, sans-serif" font-size="8px" text-anchor="middle" x="140.6513257036633" y="208.0">300</text><text dominant-baseline="middle" fill="#E8D4FF" font-family="&quot;Arial&quot;, &quot;Helvetica&quot;, sans-serif" font-size="8px" text-anchor="middle" x="159.04782246610804" y="181.72707981767678">310</text><text dominant-baseline="middle" fill="#E8D4FF" font-family="&quot;Arial&quot;, &quot;Helvetica&quot;, sans-serif" font-size="8px" text-anchor="middle" x="181.72707981767672" y="159.04782246610807">320</text><text dominant-baseline="middle" fill="#E8D4FF" font-family="&quot;Arial&quot;, &quot;Helvetica&quot;, sans-serif" font-size="8px" text-anchor="middle" x="207.99999999999991" y="140.65132570366333">330</text><text dominant-baseline="middle" fill="#E8D4FF" font-family="&quot;Arial&quot;, &quot;Helvetica&quot;, sans-serif" font-size="8px" text-anchor="middle" x="237.068293628077" y="127.09655777539285">340</text><text dominant-baseline="middle" fill="#E8D4FF" font-family="&quot;Arial&quot;, &quot;Helvetica&quot;, sans-serif" font-size="8px" text-anchor="middle" x="268.04873530928484" y="118.79537344575371">350</text><line stroke="#FFD700" stroke-width="2.0" x1="299.99999999999994" x2="299.99999999999994" y1="113.0" y2="69.0" /><polygon fill="#FFD700" points="299.99999999999994,113.0 303.38094609392556,105.7495377037068 296.6190539060743,105.7495377037068" /><line stroke="#FFD700" stroke-width="4.0" x1="299.99999999999994" x2="299.99999999999994" y1="87.0" y2="81.0" /><line stroke="#FFD700" stroke-width="2.0" x1="487.0" x2="531.0" y1="300.0" y2="300.0" /><polygon fill="#FFD700" points="487.0,300.0 494.2504622962932,303.3809460939256 494.2504622962932,296.6190539060744" /><line stroke="#FFD700" stroke-width="4.0" x1="513.0" x2="519.0" y1="300.0" y2="300.0" /><line stroke="#FFD700" stroke-width="2.0" x1="300.0" x2="300.0" y1="487.0" y2="531.0" /><polygon fill="#FFD700" points="300.0,487.0 296.6190539060744,494.2504622962932 303.3809460939256,494.2504622962932" /><line stroke="#FFD700" stroke-width="4.0" x1="300.0" x2="300.0" y1="513.0" y2="519.0" /><line stroke="#FFD700" stroke-width="2.0" x1="113.0" x2="69.0" y1="300.0" y2="300.0" /><polygon fill="#FFD700" points="113.0,300.0 105.7495377037068,296.6190539060744 105.7495377037068,303.3809460939256" /><line stroke="#FFD700" stroke-width="4.0" x1="87.0" x2="81.0" y1="300.0" y2="300.0" /><line stroke="#E8D4FF" stroke-width="1.0" x1="299.99999999999994" x2="299.99999999999994" y1="116.0" y2="108.0" /><line stroke="#7B5FAF" stroke-dasharray="2,2" stroke-width="0.5" x1="299.99999999999994" x2="275.59622345372395" y1="116.0" y2="145.92061886715854" /><text dominant-baseline="middle" fill="#FFD700" font-family="&quot;Symbola&quot;, &quot;Noto Sans Symbols&quot;, &quot;Apple Symbols&quot;, &quot;Segoe UI Symbol&quot;, serif" font-size="18px" text-anchor="middle" x="275.59622345372395" y="145.92061886715854">♈</text><line stroke="#E8D4FF" stroke-width="1.0" x1="310.091368129066" x2="310.53012326511237" y1="116.27693588097418" y2="108.28897657145131" /><line stroke="#7B5FAF" stroke-dasharray="2,2" stroke-width="0.5" x1="310.091368129066" x2="294.947335765792" y1="116.27693588097418" y2="144.08184652152798" /><text dominant-baseline="middle" fill="#FFD700" font-family="&quot;Symbola&quot;, &quot;Noto Sans Symbols&quot;, &quot;Apple Symbols&quot;, &quot;Segoe UI Symbol&quot;, serif" font-size="18px" text-anchor="middle" x="294.947335765792" y="144.08184652152798">☿</text><line stroke="#E8D4FF" stroke-width="1.0" x1="310.46148655492067" x2="310.91633379643895" y1="116.29763937537109" y2="108.31058021777852" /><line stroke="#7B5FAF" stroke-dasharray="2,2" stroke-width="0.5" x1="310.46148655492067" x2="317.00856822138593" y1="116.29763937537109" y2="144.92998804714543" /><svg height="18.0" viewBox="0.7 0.7 10.6 10.6" width="18.0" x="308.00856822138593" y="135.92998804714543"><defs /><path d="M3.5 4.75h5M6 11V1m3.536 1.464A4.984 4.984 0 0 0 6 1c-1.38 0-2.63.56-3.536 1.464" fill="none" stroke="#FFD700" stroke-linecap="round" stroke-linejoin="round" stroke-width="0.53" /></svg><line stroke="#E8D4FF" stroke-width="1.0" x1="313.4432594694327" x2="314.02774901158193" y1="116.49174739310087" y2="108.51312771454002" /><line stroke="#7B5FAF" stroke-dasharray="2,2" stroke-width="0.5" x1="313.4432594694327" x2="338.2411107027834" y1="116.49174739310087" y2="148.75973600850378" /><text dominant-baseline="middle" fill="#FFD700" font-family="&quot;Symbola&quot;, &quot;Noto Sans Symbols&quot;, &quot;Apple Symbols&quot;, &quot;Segoe UI Symbol&quot;, serif" font-size="18px" text-anchor="middle" x="338.2411107027834" y="148.75973600850378">♄</text><line stroke="#E8D4FF" stroke-width="1.0" x1="353.750442855202" x2="356.0874186315151" y1="124.0258828893588" y2="116.37483431933092" /><line stroke="#7B5FAF" stroke-dasharray="2,2" stroke-width="0.5" x1="353.750442855202" x2="368.3492826230542" y1="124.0258828893588" y2="159.77027574399978" /><text dominant-baseline="middle" fill="#FFD700" font-family="&quot;Symbola&quot;, &quot;Noto Sans Symbols&quot;, &quot;Apple Symbols&quot;, &quot;Segoe UI Symbol&quot;, serif" font-size="18px" text-anchor="middle" x="368.3492826230542" y="159.77027574399978">♀</text><line stroke="#E8D4FF" stroke-width="1.0" x1="412.9572032314529" x2="417.8683859806465" y1="154.75307150191352" y2="148.43798765417063" /><line stroke="#7B5FAF" stroke-dasharray="2,2" stroke-width="0.5" x1="412.9572032314529" x2="397.9026391642532" y1="154.75307150191352" y2="178.54600358706162" /><text dominant-baseline="middle" fill="#FFD700" font-family="&quot;Symbola&quot;, &quot;Noto Sans Symbols&quot;, &quot;Apple Symbols&quot;, &quot;Segoe UI Symbol&quot;, serif" font-size="18px" text-anchor="middle" x="397.9026391642532" y="178.54600358706162">♆</text><line stroke="#E8D4FF" stroke-width="1.0" x1="427.8440555553464" x2="433.40249275340494" y1="167.66747391830873" y2="161.9138858278004" /><line stroke="#7B5FAF" stroke-dasharray="2,2" stroke-width="0.5" x1="427.8440555553464" x2="422.9492075281407" y1="167.66747391830873" y2="203.9818123051565" /><svg height="18.0" viewBox="0.7 0.7 10.6 10.6" width="18.0" x="413.9492075281407" y="194.9818123051565"><defs /><path d="M3.5 3.5 6 1l2.5 2.5M6 1v5.67L8.5 11h-5L6 6.67" fill="none" stroke="#FFD700" stroke-linecap="round" stroke-linejoin="round" stroke-width="0.53" /></svg><line stroke="#E8D4FF" stroke-width="1.0" x1="450.2168164881281" x2="456.74798242239444" y1="193.7413154411741" y2="189.12137263426862" /><line stroke="#7B5FAF" stroke-dasharray="2,2" stroke-width="0.5" x1="450.2168164881281" x2="441.06665620357796" y1="193.7413154411741" y2="233.39520657233788" /><text dominant-baseline="middle" fill="#FFD700" font-family="&quot;Symbola&quot;, &quot;Noto Sans Symbols&quot;, &quot;Apple Symbols&quot;, &quot;Segoe UI Symbol&quot;, serif" font-size="18px" text-anchor="middle" x="441.06665620357796" y="233.39520657233788">♇</text><line stroke="#E8D4FF" stroke-width="1.0" x1="477.89465338288846" x2="485.6292035299706" y1="252.99476308131221" y2="250.95105712832577" /><line stroke="#7B5FAF" stroke-dasharray="2,2" stroke-width="0.5" x1="477.89465338288846" x2="453.7231518992962" y1="252.99476308131221" y2="273.4445378472545" /><svg height="18.0" viewBox="0.7 0.7 10.6 10.6" width="18.0" x="444.7231518992962" y="264.4445378472545"><defs /><path d="M6 10h2.5m0-5.25a1.25 1.25 0 1 0-2.5 0C6 5.442 6.559 6 7.25 6S8.5 5.442 8.5 4.75zM2.25 1a4.33 4.33 0 0 1 0 7.5h7.5M7.25 6v5" fill="none" stroke="#FFD700" stroke-linecap="round" stroke-linejoin="round" stroke-width="0.53" /></svg><line stroke="#E8D4FF" stroke-width="1.0" x1="483.6682910571699" x2="491.6538689292207" y1="288.95650145385406" y2="288.47634934315204" /><line stroke="#7B5FAF" stroke-dasharray="2,2" stroke-width="0.5" x1="483.6682910571699" x2="455.2663026664381" y1="288.95650145385406" y2="315.1120897394781" /><svg height="18.0" viewBox="0.7 0.7 10.6 10.6" width="18.0" x="446.2663026664381" y="306.1120897394781"><defs /><path d="m3.5 7 5 4m-5 0 5-4m-5-3.5L6 1l2.5 2.5M6 9V1" fill="none" stroke="#FFD700" stroke-linecap="round" stroke-linejoin="round" stroke-width="0.53" /></svg><line stroke="#E8D4FF" stroke-width="1.0" x1="451.7222831388948" x2="458.31890414493375" y1="404.09778479449517" y2="408.62377543773414" /><svg height="18.0" viewBox="0.7 0.7 10.6 10.6" width="18.0" x="419.63410961775867" y="379.25681754315895"><defs /><path d="M5.835 5.999c.362.362.862.585 1.415.585S8.303 6.361 8.665 6m-2.83 5a1.994 1.994 0 0 1 1.415-.585c.553 0 1.053.223 1.415.585m-2.226-.426V6.42m1.622 4.155V6.42M2.25 1a4.33 4.33 0 0 1 0 7.5h7.5" fill="none" stroke="#FFD700" stroke-linecap="round" stroke-linejoin="round" stroke-width="0.53" /></svg><line stroke="#E8D4FF" stroke-width="1.0" x1="388.39332849079057" x2="392.2365166860423" y1="461.3772582439025" y2="468.39366077624607" /><line stroke="#7B5FAF" stroke-dasharray="2,2" stroke-width="0.5" x1="388.39332849079057" x2="388.83319736015216" y1="461.3772582439025" y2="428.2367460861833" /><text dominant-baseline="middle" fill="#FFD700" font-family="&quot;Symbola&quot;, &quot;Noto Sans Symbols&quot;, &quot;Apple Symbols&quot;, &quot;Segoe UI Symbol&quot;, serif" font-size="18px" text-anchor="middle" x="388.83319736015216" y="428.2367460861833">♅</text><line stroke="#E8D4FF" stroke-width="1.0" x1="377.06973009277556" x2="380.42058792289623" y1="467.0815869670465" y2="474.3460037917007" /><line stroke="#7B5FAF" stroke-dasharray="2,2" stroke-width="0.5" x1="377.06973009277556" x2="351.4637691397334" y1="467.0815869670465" y2="447.26669842816545" /><svg height="18.0" viewBox="0.7 0.7 10.6 10.6" width="18.0" x="342.4637691397334" y="438.26669842816545"><defs /><path d="M2.113 11A5.776 5.776 0 0 0 5 6a5.776 5.776 0 0 0-2.887-5m7.773 10A5.776 5.776 0 0 1 7 6a5.776 5.776 0 0 1 2.886-5M1 6h10" fill="none" stroke="#FFD700" stroke-linecap="round" stroke-linejoin="round" stroke-width="0.53" /></svg><line stroke="#E8D4FF" stroke-width="1.0" x1="122.66950843338535" x2="114.95948706092383" y1="349.0906993303498" y2="351.22507756210416" /><text dominant-baseline="middle" fill="#FFD700" font-family="&quot;Symbola&quot;, &quot;Noto Sans Symbols&quot;, &quot;Apple Symbols&quot;, &quot;Segoe UI Symbol&quot;, serif" font-size="18px" text-anchor="middle" x="149.65458323700062" y="341.62037551920963">☽</text><line stroke="#E8D4FF" stroke-width="1.0" x1="135.92994422541452" x2="128.79646353956298" y1="216.71124446766896" y2="213.08999422713282" /><line stroke="#7B5FAF" stroke-dasharray="2,2" stroke-width="0.5" x1="135.92994422541452" x2="155.27200634480232" y1="216.71124446766896" y2="241.77794359058532" /><text dominant-baseline="middle" fill="#FFD700" font-family="&quot;Symbola&quot;, &quot;Noto Sans Symbols&quot;, &quot;Apple Symbols&quot;, &quot;Segoe UI Symbol&quot;, serif" font-size="18px" text-anchor="middle" x="155.27200634480232" y="241.77794359058532">♂</text><line stroke="#E8D4FF" stroke-width="1.0" x1="174.09295863682325" x2="168.6187394471199" y1="165.8231877887565" y2="159.98941334478943" /><line stroke="#7B5FAF" stroke-dasharray="2,2" stroke-width="0.5" x1="174.09295863682325" x2="175.1204828839544" y1="165.8231877887565" y2="206.50611675161164" /><svg height="18.0" viewBox="0.114 0.7 10.6 10.6" width="18.0" x="166.1204828839544" y="197.50611675161164"><defs /><path d="M8.828 2.172A3.988 3.988 0 0 0 6 1C3.793 1 2 2.793 2 5s1.793 4 4 4a3.988 3.988 0 0 0 2.828-1.172M6 11V3.5M4.5 5h3" fill="none" stroke="#FFD700" stroke-linecap="round" stroke-linejoin="round" stroke-width="0.53" /></svg><line stroke="#E8D4FF" stroke-width="1.0" x1="201.0938172066305" x2="196.79354838952747" y1="144.84341133795002" y2="138.0974727004696" /><line stroke="#7B5FAF" stroke-dasharray="2,2" stroke-width="0.5" x1="201.0938172066305" x2="198.65319413488976" y1="144.84341133795002" y2="181.40478533709864" /><text dominant-baseline="middle" fill="#FFD700" font-family="&quot;Symbola&quot;, &quot;Noto Sans Symbols&quot;, &quot;Apple Symbols&quot;, &quot;Segoe UI Symbol&quot;, serif" font-size="18px" text-anchor="middle" x="198.65319413488976" y="181.40478533709864">♃</text><line stroke="#E8D4FF" stroke-width="1.0" x1="235.19961854112728" x2="232.3822106516111" y1="127.78818111759986" y2="120.30071073140857" /><line stroke="#7B5FAF" stroke-dasharray="2,2" stroke-width="0.5" x1="235.19961854112728" x2="225.2751509387731" y1="127.78818111759986" y2="163.06133879441913" /><svg height="18.0" viewBox="0.7 0.7 10.6 10.6" width="18.0" x="216.2751509387731" y="154.06133879441913"><defs /><path d="M6 11V3M4 5h4m0 0a1.999 1.999 0 1 0-4 0 1.999 1.999 0 1 0 4 0ZM4 1a1.999 1.999 0 1 0 4 0" fill="none" stroke="#FFD700" stroke-linecap="round" stroke-linejoin="round" stroke-width="0.53" /></svg><line stroke="#E8D4FF" stroke-width="1.0" x1="279.19540210502225" x2="278.290854370458" y1="117.17995540305685" y2="109.2312578118854" /><line stroke="#7B5FAF" stroke-dasharray="2,2" stroke-width="0.5" x1="279.19540210502225" x2="255.71389176673168" y1="117.17995540305685" y2="150.41811400590228" /><text dominant-baseline="middle" fill="#FFD700" font-family="&quot;Symbola&quot;, &quot;Noto Sans Symbols&quot;, &quot;Apple Symbols&quot;, &quot;Segoe UI Symbol&quot;, serif" font-size="18px" text-anchor="middle" x="255.71389176673168" y="150.41811400590228">☉</text><line stroke="#E8D4FF" stroke-width="0.5" x1="310.18555720505515" x2="310.4658936418915" y1="82.23807857106297" y2="76.24463119228488" /><line stroke="#7B5FAF" stroke-dasharray="2,2" stroke-width="0.4" x1="310.4658936418915" x2="332.06532119898964" y1="76.24463119228488" y2="62.151697133644376" /><text dominant-baseline="middle" fill="#E8D4FF" font-family="&quot;Symbola&quot;, &quot;Noto Sans Symbols&quot;, &quot;Apple Symbols&quot;, &quot;Segoe UI Symbol&quot;, serif" font-size="8px" text-anchor="middle" x="332.06532119898964" y="62.151697133644376">♃/♆</text><line stroke="#E8D4FF" stroke-width="0.5" x1="313.94228947462193" x2="314.3260222124556" y1="82.44629958512348" y2="76.45858305994341" /><line stroke="#7B5FAF" stroke-dasharray="2,2" stroke-width="0.4" x1="314.3260222124556" x2="344.4236613446164" y1="76.45858305994341" y2="64.14721050464797" /><text dominant-baseline="middle" fill="#E8D4FF" font-family="&quot;Symbola&quot;, &quot;Noto Sans Symbols&quot;, &quot;Apple Symbols&quot;, &quot;Segoe UI Symbol&quot;, serif" font-size="8px" text-anchor="middle" x="344.4236613446164" y="64.14721050464797">☿/♄</text><line stroke="#E8D4FF" stroke-width="0.5" x1="319.93372905396484" x2="320.4823637985694" y1="82.91327436712507" y2="76.93841035888079" /><line stroke="#7B5FAF" stroke-dasharray="2,2" stroke-width="0.4" x1="320.4823637985694" x2="354.99343283304404" y1="76.93841035888079" y2="66.38552625053927" /><text dominant-baseline="middle" fill="#E8D4FF" font-family="&quot;Symbola&quot;, &quot;Noto Sans Symbols&quot;, &quot;Apple Symbols&quot;, &quot;Segoe UI Symbol&quot;, serif" font-size="8px" text-anchor="middle" x="354.99343283304404" y="66.38552625053927">☉/♀</text><line stroke="#E8D4FF" stroke-width="0.5" x1="338.0969008352835" x2="339.14543939038305" y1="85.35465030253607" y2="79.44698012737652" /><line stroke="#7B5FAF" stroke-dasharray="2,2" stroke-width="0.4" x1="339.14543939038305" x2="366.4125694434355" y1="79.44698012737652" y2="69.37179136124556" /><text dominant-baseline="middle" fill="#E8D4FF" font-family="&quot;Symbola&quot;, &quot;Noto Sans Symbols&quot;, &quot;Apple Symbols&quot;, &quot;Segoe UI Symbol&quot;, serif" font-size="8px" text-anchor="middle" x="366.4125694434355" y="69.37179136124556">☿/♀</text><line stroke="#E8D4FF" stroke-width="0.5" x1="340.054400512645" x2="341.1568152056535" y1="85.71130454554392" y2="79.81345054221026" /><line stroke="#7B5FAF" stroke-dasharray="2,2" stroke-width="0.4" x1="341.1568152056535" x2="376.50034798606464" y1="79.81345054221026" y2="72.51879911075946" /><text dominant-baseline="middle" fill="#E8D4FF" font-family="&quot;Symbola&quot;, &quot;Noto Sans Symbols&quot;, &quot;Apple Symbols&quot;, &quot;Segoe UI Symbol&quot;, serif" font-size="8px" text-anchor="middle" x="376.50034798606464" y="72.51879911075946">♀/♄</text><line stroke="#E8D4FF" stroke-width="0.5" x1="341.98790900400337" x2="343.1435395270493" y1="86.08175510847249" y2="80.19409699219193" /><line stroke="#7B5FAF" stroke-dasharray="2,2" stroke-width="0.4" x1="343.1435395270493" x2="386.41820005325025" y1="80.19409699219193" y2="76.09847097539415" /><text dominant-baseline="middle" fill="#E8D4FF" font-family="&quot;Symbola&quot;, &quot;Noto Sans Symbols&quot;, &quot;Apple Symbols&quot;, &quot;Segoe UI Symbol&quot;, serif" font-size="8px" text-anchor="middle" x="386.41820005325025" y="76.09847097539415">♃/♇</text><line stroke="#E8D4FF" stroke-width="0.5" x1="358.9536258023644" x2="360.5762026593102" y1="90.12272632618178" y2="84.3462876012143" /><line stroke="#7B5FAF" stroke-dasharray="2,2" stroke-width="0.4" x1="360.5762026593102" x2="396.428437614881" y1="84.3462876012143" y2="80.22384929398504" /><text dominant-baseline="middle" fill="#E8D4FF" font-family="&quot;Symbola&quot;, &quot;Noto Sans Symbols&quot;, &quot;Apple Symbols&quot;, &quot;Segoe UI Symbol&quot;, serif" font-size="8px" text-anchor="middle" x="396.428437614881" y="80.22384929398504">☉/♆</text><line stroke="#E8D4FF" stroke-width="0.5" x1="376.37337875365137" x2="378.4753983523757" y1="95.8159971551363" y2="90.19625395757123" /><line stroke="#7B5FAF" stroke-dasharray="2,2" stroke-width="0.4" x1="378.4753983523757" x2="407.1171054329968" y1="90.19625395757123" y2="85.23052888351137" /><text dominant-baseline="middle" fill="#E8D4FF" font-family="&quot;Symbola&quot;, &quot;Noto Sans Symbols&quot;, &quot;Apple Symbols&quot;, &quot;Segoe UI Symbol&quot;, serif" font-size="8px" text-anchor="middle" x="407.1171054329968" y="85.23052888351137">☿/♆</text><line stroke="#E8D4FF" stroke-width="0.5" x1="378.23380250180685" x2="380.3870264238749" y1="96.52156835156143" y2="90.92124454472369" /><line stroke="#7B5FAF" stroke-dasharray="2,2" stroke-width="0.4" x1="380.3870264238749" x2="416.46733301810383" y1="90.92124454472369" y2="90.15396039083774" /><text dominant-baseline="middle" fill="#E8D4FF" font-family="&quot;Symbola&quot;, &quot;Noto Sans Symbols&quot;, &quot;Apple Symbols&quot;, &quot;Segoe UI Symbol&quot;, serif" font-size="8px" text-anchor="middle" x="416.46733301810383" y="90.15396039083774">♄/♆</text><line stroke="#E8D4FF" stroke-width="0.5" x1="389.0739945122191" x2="391.5255723428306" y1="101.02808363581264" y2="95.5517923597341" /><line stroke="#7B5FAF" stroke-dasharray="2,2" stroke-width="0.4" x1="391.5255723428306" x2="424.02784653334743" y1="95.5517923597341" y2="94.53201396738126" /><text dominant-baseline="middle" fill="#E8D4FF" font-family="&quot;Symbola&quot;, &quot;Noto Sans Symbols&quot;, &quot;Apple Symbols&quot;, &quot;Segoe UI Symbol&quot;, serif" font-size="8px" text-anchor="middle" x="424.02784653334743" y="94.53201396738126">☉/♇</text><line stroke="#E8D4FF" stroke-width="0.5" x1="400.41967352336695" x2="403.1835177487807" y1="106.50610043347515" y2="101.18058026191943" /><line stroke="#7B5FAF" stroke-dasharray="2,2" stroke-width="0.4" x1="403.1835177487807" x2="432.2148814877909" y1="101.18058026191943" y2="99.70215899024421" /><text dominant-baseline="middle" fill="#E8D4FF" font-family="&quot;Symbola&quot;, &quot;Noto Sans Symbols&quot;, &quot;Apple Symbols&quot;, &quot;Segoe UI Symbol&quot;, serif" font-size="8px" text-anchor="middle" x="432.2148814877909" y="99.70215899024421">♀/♆</text><line stroke="#E8D4FF" stroke-width="0.5" x1="405.47134843523634" x2="408.37422958483" y1="109.21269785634848" y2="103.96167119184432" /><line stroke="#7B5FAF" stroke-dasharray="2,2" stroke-width="0.4" x1="408.37422958483" x2="440.8473074202949" y1="103.96167119184432" y2="105.67543646658316" /><text dominant-baseline="middle" fill="#E8D4FF" font-family="&quot;Symbola&quot;, &quot;Noto Sans Symbols&quot;, &quot;Apple Symbols&quot;, &quot;Segoe UI Symbol&quot;, serif" font-size="8px" text-anchor="middle" x="440.8473074202949" y="105.67543646658316">☿/♇</text><line stroke="#E8D4FF" stroke-width="0.5" x1="407.20828733763165" x2="410.1589741450894" y1="110.1832907088214" y2="104.95897760906419" /><line stroke="#7B5FAF" stroke-dasharray="2,2" stroke-width="0.4" x1="410.1589741450894" x2="452.5220677611818" y1="104.95897760906419" y2="114.69749368706997" /><text dominant-baseline="middle" fill="#E8D4FF" font-family="&quot;Symbola&quot;, &quot;Noto Sans Symbols&quot;, &quot;Apple Symbols&quot;, &quot;Segoe UI Symbol&quot;, serif" font-size="8px" text-anchor="middle" x="452.5220677611818" y="114.69749368706997">♄/♇</text><line stroke="#E8D4FF" stroke-width="0.5" x1="427.6914323518239" x2="431.2058754440759" y1="123.31129604884305" y2="118.44830419697632" /><line stroke="#7B5FAF" stroke-dasharray="2,2" stroke-width="0.4" x1="431.2058754440759" x2="472.2200191142314" y1="118.44830419697632" y2="132.8465823972068" /><text dominant-baseline="middle" fill="#E8D4FF" font-family="&quot;Symbola&quot;, &quot;Noto Sans Symbols&quot;, &quot;Apple Symbols&quot;, &quot;Segoe UI Symbol&quot;, serif" font-size="8px" text-anchor="middle" x="472.2200191142314" y="132.8465823972068">♀/♇</text><line stroke="#E8D4FF" stroke-width="0.5" x1="457.6035303463256" x2="461.9412421907199" y1="149.38417340008778" y2="145.2387836771544" /><line stroke="#7B5FAF" stroke-dasharray="2,2" stroke-width="0.4" x1="461.9412421907199" x2="489.89042489728627" y1="145.2387836771544" y2="153.22934035602324" /><text dominant-baseline="middle" fill="#E8D4FF" font-family="&quot;Symbola&quot;, &quot;Noto Sans Symbols&quot;, &quot;Apple Symbols&quot;, &quot;Segoe UI Symbol&quot;, serif" font-size="8px" text-anchor="middle" x="489.89042489728627" y="153.22934035602324">♆/♇</text><line stroke="#E8D4FF" stroke-width="0.5" x1="507.79345829535623" x2="513.5125443034854" y1="234.07672118548686" y2="232.2623190162801" /><line stroke="#7B5FAF" stroke-dasharray="2,2" stroke-width="0.4" x1="513.5125443034854" x2="523.1435321910387" y1="232.2623190162801" y2="211.6429740127768" /><text dominant-baseline="middle" fill="#E8D4FF" font-family="&quot;Symbola&quot;, &quot;Noto Sans Symbols&quot;, &quot;Apple Symbols&quot;, &quot;Segoe UI Symbol&quot;, serif" font-size="8px" text-anchor="middle" x="523.1435321910387" y="211.6429740127768">☉/♅</text><line stroke="#E8D4FF" stroke-width="0.5" x1="512.5962470287486" x2="518.4475198827508" y1="251.76271411769417" y2="250.43508239616284" /><line stroke="#7B5FAF" stroke-dasharray="2,2" stroke-width="0.4" x1="518.4475198827508" x2="531.5117302576468" y1="250.43508239616284" y2="236.7361180995777" /><text dominant-baseline="middle" fill="#E8D4FF" font-family="&quot;Symbola&quot;, &quot;Noto Sans Symbols&quot;, &quot;Apple Symbols&quot;, &quot;Segoe UI Symbol&quot;, serif" font-size="8px" text-anchor="middle" x="531.5117302576468" y="236.7361180995777">☿/♅</text><line stroke="#E8D4FF" stroke-width="0.5" x1="513.0276576634386" x2="518.8908042046342" y1="253.70510751250433" y2="252.43093615963747" /><line stroke="#7B5FAF" stroke-dasharray="2,2" stroke-width="0.4" x1="518.8908042046342" x2="536.8718511520665" y1="252.43093615963747" y2="261.37712942059795" /><text dominant-baseline="middle" fill="#E8D4FF" font-family="&quot;Symbola&quot;, &quot;Noto Sans Symbols&quot;, &quot;Apple Symbols&quot;, &quot;Segoe UI Symbol&quot;, serif" font-size="8px" text-anchor="middle" x="536.8718511520665" y="261.37712942059795">♄/♅</text><line stroke="#E8D4FF" stroke-width="0.5" x1="516.8595630454365" x2="522.8281748723751" y1="277.7305160422982" y2="277.1175944654807" /><line stroke="#7B5FAF" stroke-dasharray="2,2" stroke-width="0.4" x1="522.8281748723751" x2="539.7003955476415" y1="277.1175944654807" y2="288.0116567322996" /><text dominant-baseline="middle" fill="#E8D4FF" font-family="&quot;Symbola&quot;, &quot;Noto Sans Symbols&quot;, &quot;Apple Symbols&quot;, &quot;Segoe UI Symbol&quot;, serif" font-size="8px" text-anchor="middle" x="539.7003955476415" y="288.0116567322996">♀/♅</text><line stroke="#E8D4FF" stroke-width="0.5" x1="517.303817399024" x2="523.2846564100063" y1="317.4083584467816" y2="317.8874875783444" /><text dominant-baseline="middle" fill="#E8D4FF" font-family="&quot;Symbola&quot;, &quot;Noto Sans Symbols&quot;, &quot;Apple Symbols&quot;, &quot;Segoe UI Symbol&quot;, serif" font-size="8px" text-anchor="middle" x="539.2335604392924" y="319.16516526251183">♅/♆</text><line stroke="#E8D4FF" stroke-width="0.5" x1="512.4066080984315" x2="518.2526615323334" y1="349.0655972767" y2="350.41602655954495" /><text dominant-baseline="middle" fill="#E8D4FF" font-family="&quot;Symbola&quot;, &quot;Noto Sans Symbols&quot;, &quot;Apple Symbols&quot;, &quot;Segoe UI Symbol&quot;, serif" font-size="8px" text-anchor="middle" x="533.8421373560715" y="354.01717131379814">♅/♇</text><line stroke="#E8D4FF" stroke-width="0.5" x1="215.14505755665758" x2="212.80960042518944" y1="500.8074668505558" y2="506.33427786479126" /><text dominant-baseline="middle" fill="#E8D4FF" font-family="&quot;Symbola&quot;, &quot;Noto Sans Symbols&quot;, &quot;Apple Symbols&quot;, &quot;Segoe UI Symbol&quot;, serif" font-size="8px" text-anchor="middle" x="206.5817147412744" y="521.0724405694192">☽/♅</text><line stroke="#E8D4FF" stroke-width="0.5" x1="148.28718133535256" x2="144.1115991702705" y1="456.5478222551428" y2="460.8564779135413" /><text dominant-baseline="middle" fill="#E8D4FF" font-family="&quot;Symbola&quot;, &quot;Noto Sans Symbols&quot;, &quot;Apple Symbols&quot;, &quot;Segoe UI Symbol&quot;, serif" font-size="8px" text-anchor="middle" x="132.9767133967184" y="472.3462263359371">♂/♅</text><line stroke="#E8D4FF" stroke-width="0.5" x1="112.38471118857294" x2="107.22098764330428" y1="411.0157799783653" y2="414.0712601612561" /><text dominant-baseline="middle" fill="#E8D4FF" font-family="&quot;Symbola&quot;, &quot;Noto Sans Symbols&quot;, &quot;Apple Symbols&quot;, &quot;Segoe UI Symbol&quot;, serif" font-size="8px" text-anchor="middle" x="93.45105818925461" y="422.21920731563154">♃/♅</text><line stroke="#E8D4FF" stroke-width="0.5" x1="83.08554433433838" x2="77.11542170133853" y1="278.2717022463856" y2="277.6736757027081" /><text dominant-baseline="middle" fill="#E8D4FF" font-family="&quot;Symbola&quot;, &quot;Noto Sans Symbols&quot;, &quot;Apple Symbols&quot;, &quot;Segoe UI Symbol&quot;, serif" font-size="8px" text-anchor="middle" x="61.19509468000555" y="276.0789382529016">☽/♂</text><line stroke="#E8D4FF" stroke-width="0.5" x1="96.48650870317533" x2="90.8852199518866" y1="221.85744526714478" y2="219.70673275156162" /><line stroke="#7B5FAF" stroke-dasharray="2,2" stroke-width="0.4" x1="90.8852199518866" x2="72.40918688519236" y1="219.70673275156162" y2="223.82637079841408" /><text dominant-baseline="middle" fill="#E8D4FF" font-family="&quot;Symbola&quot;, &quot;Noto Sans Symbols&quot;, &quot;Apple Symbols&quot;, &quot;Segoe UI Symbol&quot;, serif" font-size="8px" text-anchor="middle" x="72.40918688519236" y="223.82637079841408">☽/♃</text><line stroke="#E8D4FF" stroke-width="0.5" x1="119.3059820290116" x2="114.33275217659909" y1="178.042335749244" y2="174.68570278821403" /><line stroke="#7B5FAF" stroke-dasharray="2,2" stroke-width="0.4" x1="114.33275217659909" x2="80.77805948211113" y1="174.68570278821403" y2="202.3181654780624" /><text dominant-baseline="middle" fill="#E8D4FF" font-family="&quot;Symbola&quot;, &quot;Noto Sans Symbols&quot;, &quot;Apple Symbols&quot;, &quot;Segoe UI Symbol&quot;, serif" font-size="8px" text-anchor="middle" x="80.77805948211113" y="202.3181654780624">☉/☽</text><line stroke="#E8D4FF" stroke-width="0.5" x1="130.18798402733188" x2="125.51425881707496" y1="163.29638179148913" y2="159.53389688666772" /><line stroke="#7B5FAF" stroke-dasharray="2,2" stroke-width="0.4" x1="125.51425881707496" x2="89.75722121075214" y1="159.53389688666772" y2="184.2503824327036" /><text dominant-baseline="middle" fill="#E8D4FF" font-family="&quot;Symbola&quot;, &quot;Noto Sans Symbols&quot;, &quot;Apple Symbols&quot;, &quot;Segoe UI Symbol&quot;, serif" font-size="8px" text-anchor="middle" x="89.75722121075214" y="184.2503824327036">☽/☿</text><line stroke="#E8D4FF" stroke-width="0.5" x1="131.4427628071881" x2="126.80357279270703" y1="161.75218703384078" y2="157.9472013558731" /><line stroke="#7B5FAF" stroke-dasharray="2,2" stroke-width="0.4" x1="126.80357279270703" x2="99.53978592605336" y1="157.9472013558731" y2="168.03143338875168" /><text dominant-baseline="middle" fill="#E8D4FF" font-family="&quot;Symbola&quot;, &quot;Noto Sans Symbols&quot;, &quot;Apple Symbols&quot;, &quot;Segoe UI Symbol&quot;, serif" font-size="8px" text-anchor="middle" x="99.53978592605336" y="168.03143338875168">☽/♄</text><line stroke="#E8D4FF" stroke-width="0.5" x1="138.50247481752538" x2="134.05758880332883" y1="153.5672531161968" y2="149.53699402765176" /><line stroke="#7B5FAF" stroke-dasharray="2,2" stroke-width="0.4" x1="134.05758880332883" x2="111.39219369770919" y1="149.53699402765176" y2="151.5847197831788" /><text dominant-baseline="middle" fill="#E8D4FF" font-family="&quot;Symbola&quot;, &quot;Noto Sans Symbols&quot;, &quot;Apple Symbols&quot;, &quot;Segoe UI Symbol&quot;, serif" font-size="8px" text-anchor="middle" x="111.39219369770919" y="151.5847197831788">♂/♃</text><line stroke="#E8D4FF" stroke-width="0.5" x1="147.89702908822568" x2="143.71070878790164" y1="143.831225144679" y2="139.53300198352338" /><line stroke="#7B5FAF" stroke-dasharray="2,2" stroke-width="0.4" x1="143.71070878790164" x2="123.77861147476418" y1="139.53300198352338" y2="137.0704992144213" /><text dominant-baseline="middle" fill="#E8D4FF" font-family="&quot;Symbola&quot;, &quot;Noto Sans Symbols&quot;, &quot;Apple Symbols&quot;, &quot;Segoe UI Symbol&quot;, serif" font-size="8px" text-anchor="middle" x="123.77861147476418" y="137.0704992144213">☽/♀</text><line stroke="#E8D4FF" stroke-width="0.5" x1="175.61882238674423" x2="172.1954872230766" y1="120.96558248331212" y2="116.03802970762345" /><line stroke="#7B5FAF" stroke-dasharray="2,2" stroke-width="0.4" x1="172.1954872230766" x2="136.96790795531274" y1="116.03802970762345" y2="123.87351998199526" /><text dominant-baseline="middle" fill="#E8D4FF" font-family="&quot;Symbola&quot;, &quot;Noto Sans Symbols&quot;, &quot;Apple Symbols&quot;, &quot;Segoe UI Symbol&quot;, serif" font-size="8px" text-anchor="middle" x="136.96790795531274" y="123.87351998199526">☉/♂</text><line stroke="#E8D4FF" stroke-width="0.5" x1="178.72455918177354" x2="175.38670301246458" y1="118.84739180915761" y2="113.86154020757479" /><line stroke="#7B5FAF" stroke-dasharray="2,2" stroke-width="0.4" x1="175.38670301246458" x2="149.61199126304058" y1="113.86154020757479" y2="112.96137610607744" /><text dominant-baseline="middle" fill="#E8D4FF" font-family="&quot;Symbola&quot;, &quot;Noto Sans Symbols&quot;, &quot;Apple Symbols&quot;, &quot;Segoe UI Symbol&quot;, serif" font-size="8px" text-anchor="middle" x="149.61199126304058" y="112.96137610607744">☽/♆</text><line stroke="#E8D4FF" stroke-width="0.5" x1="191.0958443838933" x2="188.09848230271604" y1="111.15115862271537" y2="105.9534840893956" /><line stroke="#7B5FAF" stroke-dasharray="2,2" stroke-width="0.4" x1="188.09848230271604" x2="162.44146407831656" y1="105.9534840893956" y2="103.33366023876144" /><text dominant-baseline="middle" fill="#E8D4FF" font-family="&quot;Symbola&quot;, &quot;Noto Sans Symbols&quot;, &quot;Apple Symbols&quot;, &quot;Segoe UI Symbol&quot;, serif" font-size="8px" text-anchor="middle" x="162.44146407831656" y="103.33366023876144">☿/♂</text><line stroke="#E8D4FF" stroke-width="0.5" x1="192.8240201103427" x2="189.87422249870076" y1="110.1650471206849" y2="104.94023190382302" /><line stroke="#7B5FAF" stroke-dasharray="2,2" stroke-width="0.4" x1="189.87422249870076" x2="174.78623615720636" y1="104.94023190382302" y2="95.25256205675953" /><text dominant-baseline="middle" fill="#E8D4FF" font-family="&quot;Symbola&quot;, &quot;Noto Sans Symbols&quot;, &quot;Apple Symbols&quot;, &quot;Segoe UI Symbol&quot;, serif" font-size="8px" text-anchor="middle" x="174.78623615720636" y="95.25256205675953">♂/♄</text><line stroke="#E8D4FF" stroke-width="0.5" x1="206.5812202480746" x2="204.01006117233354" y1="103.0306328647491" y2="97.60945762249449" /><line stroke="#7B5FAF" stroke-dasharray="2,2" stroke-width="0.4" x1="204.01006117233354" x2="185.94568872594937" y1="97.60945762249449" y2="88.83273435543575" /><text dominant-baseline="middle" fill="#E8D4FF" font-family="&quot;Symbola&quot;, &quot;Noto Sans Symbols&quot;, &quot;Apple Symbols&quot;, &quot;Segoe UI Symbol&quot;, serif" font-size="8px" text-anchor="middle" x="185.94568872594937" y="88.83273435543575">☽/♇</text><line stroke="#E8D4FF" stroke-width="0.5" x1="214.64425869245287" x2="212.29501810600664" y1="99.40489181976773" y2="93.88392553957783" /><line stroke="#7B5FAF" stroke-dasharray="2,2" stroke-width="0.4" x1="212.29501810600664" x2="198.3804625181819" y1="93.88392553957783" y2="82.5753702958624" /><text dominant-baseline="middle" fill="#E8D4FF" font-family="&quot;Symbola&quot;, &quot;Noto Sans Symbols&quot;, &quot;Apple Symbols&quot;, &quot;Segoe UI Symbol&quot;, serif" font-size="8px" text-anchor="middle" x="198.3804625181819" y="82.5753702958624">♀/♂</text><line stroke="#E8D4FF" stroke-width="0.5" x1="227.2155300027137" x2="225.2122877092104" y1="94.50931668999169" y2="88.8536098098997" /><line stroke="#7B5FAF" stroke-dasharray="2,2" stroke-width="0.4" x1="225.2122877092104" x2="212.02386815856136" y1="88.8536098098997" y2="76.70602286174892" /><text dominant-baseline="middle" fill="#E8D4FF" font-family="&quot;Symbola&quot;, &quot;Noto Sans Symbols&quot;, &quot;Apple Symbols&quot;, &quot;Segoe UI Symbol&quot;, serif" font-size="8px" text-anchor="middle" x="212.02386815856136" y="76.70602286174892">☉/♃</text><line stroke="#E8D4FF" stroke-width="0.5" x1="244.73235227868523" x2="243.21122435974996" y1="89.12210377720322" y2="83.31812498208035" /><line stroke="#7B5FAF" stroke-dasharray="2,2" stroke-width="0.4" x1="243.21122435974996" x2="227.08799815019836" y1="83.31812498208035" y2="71.34340161225498" /><text dominant-baseline="middle" fill="#E8D4FF" font-family="&quot;Symbola&quot;, &quot;Noto Sans Symbols&quot;, &quot;Apple Symbols&quot;, &quot;Segoe UI Symbol&quot;, serif" font-size="8px" text-anchor="middle" x="227.08799815019836" y="71.34340161225498">☿/♃</text><line stroke="#E8D4FF" stroke-width="0.5" x1="246.6593549719642" x2="245.19126382440356" y1="88.62645485304202" y2="82.80883434441014" /><text dominant-baseline="middle" fill="#E8D4FF" font-family="&quot;Symbola&quot;, &quot;Noto Sans Symbols&quot;, &quot;Apple Symbols&quot;, &quot;Segoe UI Symbol&quot;, serif" font-size="8px" text-anchor="middle" x="241.27635409757525" y="67.29517965472516">♃/♄</text><line stroke="#E8D4FF" stroke-width="0.5" x1="252.4189958623191" x2="251.10942694109852" y1="87.25590949394154" y2="81.40056755340783" /><line stroke="#7B5FAF" stroke-dasharray="2,2" stroke-width="0.4" x1="251.10942694109852" x2="255.82309278114136" y1="81.40056755340783" y2="64.10086717290301" /><text dominant-baseline="middle" fill="#E8D4FF" font-family="&quot;Symbola&quot;, &quot;Noto Sans Symbols&quot;, &quot;Apple Symbols&quot;, &quot;Segoe UI Symbol&quot;, serif" font-size="8px" text-anchor="middle" x="255.82309278114136" y="64.10086717290301">♂/♆</text><line stroke="#E8D4FF" stroke-width="0.5" x1="270.54432695632045" x2="269.73362035878796" y1="83.99915897028583" y2="78.05418169423865" /><line stroke="#7B5FAF" stroke-dasharray="2,2" stroke-width="0.4" x1="269.73362035878796" x2="271.72684146764294" y1="78.05418169423865" y2="61.671175669823356" /><text dominant-baseline="middle" fill="#E8D4FF" font-family="&quot;Symbola&quot;, &quot;Noto Sans Symbols&quot;, &quot;Apple Symbols&quot;, &quot;Segoe UI Symbol&quot;, serif" font-size="8px" text-anchor="middle" x="271.72684146764294" y="61.671175669823356">♀/♃</text><line stroke="#E8D4FF" stroke-width="0.5" x1="284.10966360545723" x2="283.6723148973506" y1="82.57990615109131" y2="76.5958668708461" /><line stroke="#7B5FAF" stroke-dasharray="2,2" stroke-width="0.4" x1="283.6723148973506" x2="286.6861515150169" y1="76.5958668708461" y2="60.36957322051333" /><text dominant-baseline="middle" fill="#E8D4FF" font-family="&quot;Symbola&quot;, &quot;Noto Sans Symbols&quot;, &quot;Apple Symbols&quot;, &quot;Segoe UI Symbol&quot;, serif" font-size="8px" text-anchor="middle" x="286.6861515150169" y="60.36957322051333">♂/♇</text><line stroke="#E8D4FF" stroke-width="0.5" x1="293.6310706290134" x2="293.4557789949495" y1="82.09305486362445" y2="76.09561600665998" /><line stroke="#7B5FAF" stroke-dasharray="2,2" stroke-width="0.4" x1="293.4557789949495" x2="301.3649098590191" y1="76.09561600665998" y2="60.00388123747345" /><text dominant-baseline="middle" fill="#E8D4FF" font-family="&quot;Symbola&quot;, &quot;Noto Sans Symbols&quot;, &quot;Apple Symbols&quot;, &quot;Segoe UI Symbol&quot;, serif" font-size="8px" text-anchor="middle" x="301.3649098590191" y="60.00388123747345">☉/☿</text><line stroke="#E8D4FF" stroke-width="0.5" x1="295.62019129023486" x2="295.4996460963881" y1="82.04400151483358" y2="76.04521256570055" /><line stroke="#7B5FAF" stroke-dasharray="2,2" stroke-width="0.4" x1="295.4996460963881" x2="316.1096969383024" y1="76.04521256570055" y2="60.541281919918276" /><text dominant-baseline="middle" fill="#E8D4FF" font-family="&quot;Symbola&quot;, &quot;Noto Sans Symbols&quot;, &quot;Apple Symbols&quot;, &quot;Segoe UI Symbol&quot;, serif" font-size="8px" text-anchor="middle" x="316.1096969383024" y="60.541281919918276">☉/♄</text><line stroke="#FFD700" stroke-width="2.0" x1="279.42153903866335" x2="320.5784609613366" y1="119.1671298008497" y2="480.8328701991503" /><polygon fill="#FFD700" points="279.42153903866335,119.1671298008497 276.2472064092866,128.64993594450115 284.645368306995,127.69423996639358" /><polygon fill="#FFD700" points="320.5784609613366,480.8328701991503 323.7527935907134,471.3500640554988 315.354631693005,472.3057600336064" /><circle cx="300" cy="300" fill="none" r="5.0" stroke="#FFD700" stroke-width="2.0" /></svg>