<?xml version="1.0" encoding="utf-8" ?>
<svg baseProfile="full" height="600px" version="1.1" viewBox="0 0 600 600" width="600px" xmlns="http://www.w3.org/2000/svg" xmlns:ev="http://www.w3.org/2001/xml-events" xmlns:xlink="http://www.w3.org/1999/xlink"><defs /><rect fill="#1E1E1E" height="600px" width="600px" x="0" y="0" /><circle cx="300" cy="300" fill="none" r="216.0" stroke="#666666" stroke-width="1" /><path d="M 300.0 180.0 A 120.0 120.0 0 0 1 403.92304845413264 360.0 L 341.56921938165306 324.0 A 48.0 48.0 0 0 0 300.0 252.0 Z" fill="#252525" stroke="none" /><path d="M 403.92304845413264 360.0 A 120.0 120.0 0 0 1 196.07695154586736 360.0 L 258.43078061834694 324.0 A 48.0 48.0 0 0 0 341.56921938165306 324.0 Z" fill="#1E1E1E" stroke="none" /><path d="M 196.07695154586736 360.0 A 120.0 120.0 0 0 1 300.0 180.0 L 300.0 252.0 A 48.0 48.0 0 0 0 258.43078061834694 324.0 Z" fill="#252525" stroke="none" /><line stroke="#555555" stroke-width="1.0" x1="300.0" x2="300.0" y1="252.0" y2="180.0" /><line stroke="#555555" stroke-width="1.0" x1="341.56921938165306" x2="403.92304845413264" y1="324.0" y2="360.0" /><line stroke="#555555" stroke-width="1.0" x1="258.43078061834694" x2="196.07695154586736" y1="324.0" y2="360.0" /><text dominant-baseline="middle" fill="#CCCCCC" font-family="&quot;Symbola&quot;, &quot;Noto Sans Symbols&quot;, &quot;Apple Symbols&quot;, &quot;Segoe UI Symbol&quot;, serif" font-size="14px" text-anchor="middle" x="364.66493065929325" y="256.38295352928174">♈</text><text dominant-baseline="middle" fill="#CCCCCC" font-family="&quot;Symbola&quot;, &quot;Noto Sans Symbols&quot;, &quot;Apple Symbols&quot;, &quot;Segoe UI Symbol&quot;, serif" font-size="14px" text-anchor="middle" x="370.105935611335" y="265.80705055045195">♋</text><text dominant-baseline="middle" fill="#CCCCCC" font-family="&quot;Symbola&quot;, &quot;Noto Sans Symbols&quot;, &quot;Apple Symbols&quot;, &quot;Segoe UI Symbol&quot;, serif" font-size="14px" text-anchor="middle" x="374.61338152995376" y="249.6726386876328">♎</text><text dominant-baseline="middle" fill="#CCCCCC" font-family="&quot;Symbola&quot;, &quot;Noto Sans Symbols&quot;, &quot;Apple Symbols&quot;, &quot;Segoe UI Symbol&quot;, serif" font-size="14px" text-anchor="middle" x="380.891464166925" y="260.546596788983">♑</text><text dominant-baseline="middle" fill="#CCCCCC" font-family="&quot;Symbola&quot;, &quot;Noto Sans Symbols&quot;, &quot;Apple Symbols&quot;, &quot;Segoe UI Symbol&quot;, serif" font-size="14px" text-anchor="middle" x="305.4410049520418" y="377.80999592026626">♉</text><text dominant-baseline="middle" fill="#CCCCCC" font-family="&quot;Symbola&quot;, &quot;Noto Sans Symbols&quot;, &quot;Apple Symbols&quot;, &quot;Segoe UI Symbol&quot;, serif" font-size="14px" text-anchor="middle" x="294.5589950479582" y="377.80999592026626">♌</text><text dominant-baseline="middle" fill="#CCCCCC" font-family="&quot;Symbola&quot;, &quot;Noto Sans Symbols&quot;, &quot;Apple Symbols&quot;, &quot;Segoe UI Symbol&quot;, serif" font-size="14px" text-anchor="middle" x="306.27808263697125" y="389.78076452338416">♏</text><text dominant-baseline="middle" fill="#CCCCCC" font-family="&quot;Symbola&quot;, &quot;Noto Sans Symbols&quot;, &quot;Apple Symbols&quot;, &quot;Segoe UI Symbol&quot;, serif" font-size="14px" text-anchor="middle" x="293.7219173630287" y="389.78076452338416">♒</text><text dominant-baseline="middle" fill="#CCCCCC" font-family="&quot;Symbola&quot;, &quot;Noto Sans Symbols&quot;, &quot;Apple Symbols&quot;, &quot;Segoe UI Symbol&quot;, serif" font-size="14px" text-anchor="middle" x="229.894064388665" y="265.80705055045195">♊</text><text dominant-baseline="middle" fill="#CCCCCC" font-family="&quot;Symbola&quot;, &quot;Noto Sans Symbols&quot;, &quot;Apple Symbols&quot;, &quot;Segoe UI Symbol&quot;, serif" font-size="14px" text-anchor="middle" x="235.33506934070675" y="256.38295352928174">♍</text><text dominant-baseline="middle" fill="#CCCCCC" font-family="&quot;Symbola&quot;, &quot;Noto Sans Symbols&quot;, &quot;Apple Symbols&quot;, &quot;Segoe UI Symbol&quot;, serif" font-size="14px" text-anchor="middle" x="219.108535833075" y="260.54659678898304">♐</text><text dominant-baseline="middle" fill="#CCCCCC" font-family="&quot;Symbola&quot;, &quot;Noto Sans Symbols&quot;, &quot;Apple Symbols&quot;, &quot;Segoe UI Symbol&quot;, serif" font-size="14px" text-anchor="middle" x="225.38661847004624" y="249.6726386876328">♓</text><line stroke="#666666" stroke-width="0.5" x1="299.99999999999994" x2="299.99999999999994" y1="100.80000000000001" y2="84.0" /><line stroke="#666666" stroke-width="0.5" x1="303.6440624641047" x2="303.76971979045317" y1="91.2318012513455" y2="84.0328978462195" /><line stroke="#666666" stroke-width="0.5" x1="307.2870149114823" x2="307.53829128774026" y1="91.3271953184128" y2="84.13158136387531" /><line stroke="#666666" stroke-width="0.5" x1="310.9277476635267" x2="311.3045665484759" y1="91.48615314324496" y2="84.29602049301207" /><line stroke="#666666" stroke-width="0.5" x1="314.56515171777335" x2="315.06739832873103" y1="91.70862630574868" y2="84.52616514387796" /><line stroke="#666666" stroke-width="0.5" x1="317.7797715205222" x2="318.82564043349413" y1="96.77628158928391" y2="84.82194521218295" /><line stroke="#666666" stroke-width="0.5" x1="321.82554313028595" x2="322.578148065813" y1="92.34382824710451" y2="85.18327060045294" /><line stroke="#666666" stroke-width="0.5" x1="325.44631890299485" x2="326.3237781755119" y1="92.75636353729195" y2="85.61003124547446" /><line stroke="#666666" stroke-width="0.5" x1="329.0593434804617" x2="330.06138980737416" y1="93.23202724676008" y2="86.1020971518208" /><line stroke="#666666" stroke-width="0.5" x1="332.66351630040015" x2="333.78984444868985" y1="93.77067448373523" y2="86.65931843145023" /><line stroke="#666666" stroke-width="0.5" x1="334.59071699125246" x2="337.50800637605687" y1="103.82629559996815" y2="87.28152534936305" /><line stroke="#666666" stroke-width="0.5" x1="339.8409182346226" x2="341.2147430013338" y1="95.03624409612777" y2="87.9685283753046" /><line stroke="#666666" stroke-width="0.5" x1="343.4119610427482" x2="344.908925216636" y1="95.76278096678138" y2="88.720118241498" /><line stroke="#666666" stroke-width="0.5" x1="346.969780146999" x2="348.5894277382748" y1="96.55153047284287" y2="89.53606600638918" /><line stroke="#666666" stroke-width="0.5" x1="350.5132918012106" x2="352.25512944952817" y1="97.4022523535719" y2="90.41612312438474" /><line stroke="#666666" stroke-width="0.5" x1="352.79908520091413" x2="355.9049137421444" y1="102.95113143703003" y2="91.36002152156121" /><line stroke="#666666" stroke-width="0.5" x1="357.5530798945895" x2="359.5376688564719" y1="99.28855788807903" y2="92.36747367732315" /><line stroke="#666666" stroke-width="0.5" x1="361.04721194610744" x2="363.15228822011113" y1="100.32356695491819" y2="93.43817271198435" /><line stroke="#666666" stroke-width="0.5" x1="364.522748425489" x2="366.7476707849886" y1="101.41939939757191" y2="94.57179248024681" /><line stroke="#666666" stroke-width="0.5" x1="367.9786306506542" x2="370.32272136274577" y1="102.57572141486261" y2="95.76798767054754" /><line stroke="#666666" stroke-width="0.5" x1="368.13041255047324" x2="373.8763509583445" y1="112.81322993944707" y2="97.0263939102438" /><line stroke="#666666" stroke-width="0.5" x1="374.8272278650587" x2="377.4074771017849" y1="105.06840694738426" y2="98.34662787660443" /><line stroke="#666666" stroke-width="0.5" x1="378.2178567052424" x2="380.915024177837" y1="106.40401116645478" y2="99.72828741357392" /><line stroke="#666666" stroke-width="0.5" x1="381.5846596285603" x2="384.3979237536831" y1="107.7985865991304" y2="101.17095165427287" /><line stroke="#666666" stroke-width="0.5" x1="384.926611074227" x2="387.8551149043727" y1="109.25170844422487" y2="102.67418114919818" /><line stroke="#666666" stroke-width="0.5" x1="386.2141253951027" x2="391.2855445359911" y1="115.11321144452344" y2="104.23751800008364" /><line stroke="#666666" stroke-width="0.5" x1="391.5318954495594" x2="394.6881677064407" y1="112.33180313273391" y2="105.86048599937993" /><line stroke="#666666" stroke-width="0.5" x1="394.79321634561734" x2="398.0619479437421" y1="113.95783774946878" y2="107.54259077531253" /><line stroke="#666666" stroke-width="0.5" x1="398.0256623096939" x2="401.4058575617523" y1="115.64054261105602" y2="109.28331994247173" /><line stroke="#666666" stroke-width="0.5" x1="401.2282487074352" x2="404.71887797320886" y1="117.37940514929417" y2="111.08214325789055" /><line stroke="#666666" stroke-width="0.5" x1="399.6" x2="408.0" y1="127.48773956613985" y2="112.93851278256128" /><line stroke="#666666" stroke-width="0.5" x1="407.5399500412193" x2="411.2482241805717" y1="121.02346761339894" y2="114.85186304834374" /><line stroke="#666666" stroke-width="0.5" x1="410.64714237189315" x2="414.4625610743722" y1="122.9275575225382" y2="116.82161123021194" /><line stroke="#666666" stroke-width="0.5" x1="413.7206305111376" x2="417.6420315632457" y1="124.8855854129954" y2="118.84715732378837" /><line stroke="#666666" stroke-width="0.5" x1="416.759478244692" x2="420.78566714968133" y1="126.89695485050731" y2="120.92788432811102" /><line stroke="#666666" stroke-width="0.5" x1="417.0095930156134" x2="423.8925102518259" y1="132.89298296504566" y2="123.06315843357777" /><line stroke="#666666" stroke-width="0.5" x1="422.72956067866835" x2="426.96161449517416" y1="131.07725157451094" y2="125.25232921501132" /><line stroke="#666666" stroke-width="0.5" x1="425.6589768341476" x2="429.9920450008424" y1="133.2449055021252" y2="127.49472982978469" /><line stroke="#666666" stroke-width="0.5" x1="428.5501160479975" x2="432.98287867034225" y1="135.46335464691649" y2="129.78967722094808" /><line stroke="#666666" stroke-width="0.5" x1="431.4020976512061" x2="435.9332044667649" y1="137.7319232477845" y2="132.1364723252943" /><line stroke="#666666" stroke-width="0.5" x1="428.0432918495586" x2="438.8421236922925" y1="147.40394693069956" y2="134.53440028630072" /><line stroke="#666666" stroke-width="0.5" x1="436.9851252532179" x2="441.7087502619495" y1="142.41663964948515" y2="136.9827306718812" /><line stroke="#666666" stroke-width="0.5" x1="439.7144706077295" x2="444.5322109735133" y1="144.83136044032" y2="139.48071769688278" /><line stroke="#666666" stroke-width="0.5" x1="442.4012575810498" x2="447.3116457734997" y1="147.29334710191722" y2="142.0276004502592" /><line stroke="#666666" stroke-width="0.5" x1="445.04466775183863" x2="450.0462080191434" y1="149.8018496892896" y2="144.62260312685135" /><line stroke="#666666" stroke-width="0.5" x1="444.24978336205567" x2="452.73506473629425" y1="155.75021663794428" y2="147.2649352637057" /><line stroke="#666666" stroke-width="0.5" x1="450.1981503107103" x2="455.3773968731486" y1="154.95533224816128" y2="149.95379198085652" /><line stroke="#666666" stroke-width="0.5" x1="452.70665289808284" x2="457.9723995497409" y1="157.59874241895034" y2="152.68835422650037" /><line stroke="#666666" stroke-width="0.5" x1="455.16863955967995" x2="460.51928230311717" y1="160.2855293922704" y2="155.46778902648666" /><line stroke="#666666" stroke-width="0.5" x1="457.5833603505148" x2="463.01726932811874" y1="163.01487474678206" y2="158.2912497380504" /><line stroke="#666666" stroke-width="0.5" x1="452.59605306930035" x2="465.4655997136992" y1="171.95670815044133" y2="161.15787630770745" /><line stroke="#666666" stroke-width="0.5" x1="462.26807675221545" x2="467.86352767470567" y1="168.59790234879387" y2="164.06679553323502" /><line stroke="#666666" stroke-width="0.5" x1="464.5366453530836" x2="470.210322779052" y1="171.44988395200255" y2="167.01712132965784" /><line stroke="#666666" stroke-width="0.5" x1="466.7550944978748" x2="472.5052701702152" y1="174.34102316585233" y2="170.00795499915756" /><line stroke="#666666" stroke-width="0.5" x1="468.922748425489" x2="474.7476707849886" y1="177.27043932133154" y2="173.03838550482575" /><line stroke="#666666" stroke-width="0.5" x1="467.1070170349543" x2="476.9368415664222" y1="182.9904069843865" y2="176.10748974817398" /><line stroke="#666666" stroke-width="0.5" x1="473.10304514949274" x2="479.07211567188904" y1="183.24052175530812" y2="179.21433285031873" /><line stroke="#666666" stroke-width="0.5" x1="475.11441458700455" x2="481.1528426762116" y1="186.27936948886236" y2="182.35796843675416" /><line stroke="#666666" stroke-width="0.5" x1="477.0724424774617" x2="483.17838876978794" y1="189.3528576281068" y2="185.53743892562773" /><line stroke="#666666" stroke-width="0.5" x1="478.976532386601" x2="485.1481369516562" y1="192.46004995878062" y2="188.75177581942825" /><line stroke="#666666" stroke-width="0.5" x1="472.5122604338601" x2="487.0614872174387" y1="200.39999999999992" y2="191.9999999999999" /><line stroke="#666666" stroke-width="0.5" x1="482.62059485070586" x2="488.9178567421095" y1="198.77175129256486" y2="195.28112202679125" /><line stroke="#666666" stroke-width="0.5" x1="484.35945738894395" x2="490.71668005752827" y1="201.97433769030602" y2="198.5941424382476" /><line stroke="#666666" stroke-width="0.5" x1="486.0421622505312" x2="492.45740922468747" y1="205.2067836543826" y2="201.93805205625785" /><line stroke="#666666" stroke-width="0.5" x1="487.66819686726603" x2="494.13951400062" y1="208.46810455044056" y2="205.31183229355918" /><line stroke="#666666" stroke-width="0.5" x1="484.88678855547664" x2="495.7624819999164" y1="213.78587460489734" y2="208.71445546400895" /><line stroke="#666666" stroke-width="0.5" x1="490.74829155577504" x2="497.3258188508018" y1="215.07338892577292" y2="212.14488509562716" /><line stroke="#666666" stroke-width="0.5" x1="492.20141340086957" x2="498.8290483457271" y1="218.4153403714396" y2="215.60207624631684" /><line stroke="#666666" stroke-width="0.5" x1="493.5959888335452" x2="500.271712586426" y1="221.7821432947575" y2="219.08497582216293" /><line stroke="#666666" stroke-width="0.5" x1="494.93159305261565" x2="501.65337212339557" y1="225.1727721349412" y2="222.59252289821504" /><line stroke="#666666" stroke-width="0.5" x1="487.18677006055293" x2="502.97360608975623" y1="231.86958744952682" y2="226.1236490416556" /><line stroke="#666666" stroke-width="0.5" x1="497.42427858513736" x2="504.23201232945246" y1="232.02136934934566" y2="229.67727863725415" /><line stroke="#666666" stroke-width="0.5" x1="498.58060060242804" x2="505.4282075197532" y1="235.47725157451092" y2="233.2523292150113" /><line stroke="#666666" stroke-width="0.5" x1="499.6764330450818" x2="506.5618272880156" y1="238.95278805389248" y2="236.84771177988878" /><line stroke="#666666" stroke-width="0.5" x1="500.711442111921" x2="507.6325263226769" y1="242.4469201054106" y2="240.46233114352822" /><line stroke="#666666" stroke-width="0.5" x1="497.0488685629699" x2="508.63997847843876" y1="247.20091479908578" y2="244.09508625785554" /><line stroke="#666666" stroke-width="0.5" x1="502.59774764642805" x2="509.58387687561526" y1="249.48670819878936" y2="247.74487055047175" /><line stroke="#666666" stroke-width="0.5" x1="503.4484695271571" x2="510.4639339936108" y1="253.03021985300092" y2="251.4105722617251" /><line stroke="#666666" stroke-width="0.5" x1="504.2372190332186" x2="511.27988175850203" y1="256.58803895725174" y2="255.09107478336387" /><line stroke="#666666" stroke-width="0.5" x1="504.96375590387225" x2="512.0314716246954" y1="260.1590817653775" y2="258.78525699866634" /><line stroke="#666666" stroke-width="0.5" x1="496.17370440003185" x2="512.718474650637" y1="265.4092830087475" y2="262.491993623943" /><line stroke="#666666" stroke-width="0.5" x1="506.2293255162648" x2="513.3406815685497" y1="267.33648369959974" y2="266.2101555513101" /><line stroke="#666666" stroke-width="0.5" x1="506.76797275323986" x2="513.8979028481792" y1="270.94065651953827" y2="269.9386101926258" /><line stroke="#666666" stroke-width="0.5" x1="507.2436364627081" x2="514.3899687545256" y1="274.55368109700527" y2="273.6762218244882" /><line stroke="#666666" stroke-width="0.5" x1="507.6561717528955" x2="514.8167293995471" y1="278.17445686971394" y2="277.42185193418686" /><line stroke="#666666" stroke-width="0.5" x1="503.22371841071606" x2="515.178054787817" y1="282.2202284794777" y2="281.1743595665058" /><line stroke="#666666" stroke-width="0.5" x1="508.2913736942513" x2="515.473834856122" y1="285.43484828222654" y2="284.93260167126886" /><line stroke="#666666" stroke-width="0.5" x1="508.51384685675504" x2="515.7039795069879" y1="289.07225233647324" y2="288.695433451524" /><line stroke="#666666" stroke-width="0.5" x1="508.6728046815872" x2="515.8684186361247" y1="292.7129850885178" y2="292.46170871225985" /><line stroke="#666666" stroke-width="0.5" x1="508.7681987486545" x2="515.9671021537805" y1="296.3559375358952" y2="296.2302802095468" /><line stroke="#666666" stroke-width="0.5" x1="499.2" x2="516.0" y1="300.0" y2="300.0" /><line stroke="#666666" stroke-width="0.5" x1="508.7681987486545" x2="515.9671021537805" y1="303.6440624641048" y2="303.7697197904532" /><line stroke="#666666" stroke-width="0.5" x1="508.6728046815872" x2="515.8684186361247" y1="307.2870149114822" y2="307.5382912877402" /><line stroke="#666666" stroke-width="0.5" x1="508.51384685675504" x2="515.7039795069879" y1="310.9277476635267" y2="311.30456654847586" /><line stroke="#666666" stroke-width="0.5" x1="508.2913736942513" x2="515.473834856122" y1="314.56515171777335" y2="315.0673983287311" /><line stroke="#666666" stroke-width="0.5" x1="503.22371841071606" x2="515.178054787817" y1="317.7797715205223" y2="318.8256404334942" /><line stroke="#666666" stroke-width="0.5" x1="507.6561717528955" x2="514.8167293995471" y1="321.82554313028606" y2="322.57814806581314" /><line stroke="#666666" stroke-width="0.5" x1="507.2436364627081" x2="514.3899687545255" y1="325.4463189029948" y2="326.32377817551185" /><line stroke="#666666" stroke-width="0.5" x1="506.7679727532399" x2="513.8979028481792" y1="329.0593434804617" y2="330.06138980737416" /><line stroke="#666666" stroke-width="0.5" x1="506.2293255162648" x2="513.3406815685498" y1="332.6635163004002" y2="333.78984444868985" /><line stroke="#666666" stroke-width="0.5" x1="496.17370440003185" x2="512.718474650637" y1="334.5907169912525" y2="337.508006376057" /><line stroke="#666666" stroke-width="0.5" x1="504.96375590387225" x2="512.0314716246954" y1="339.84091823462256" y2="341.21474300133366" /><line stroke="#666666" stroke-width="0.5" x1="504.23721903321865" x2="511.27988175850203" y1="343.41196104274815" y2="344.908925216636" /><line stroke="#666666" stroke-width="0.5" x1="503.44846952715716" x2="510.4639339936108" y1="346.969780146999" y2="348.5894277382748" /><line stroke="#666666" stroke-width="0.5" x1="502.59774764642805" x2="509.58387687561526" y1="350.51329180121064" y2="352.2551294495282" /><line stroke="#666666" stroke-width="0.5" x1="497.0488685629699" x2="508.63997847843876" y1="352.79908520091425" y2="355.90491374214446" /><line stroke="#666666" stroke-width="0.5" x1="500.711442111921" x2="507.6325263226769" y1="357.5530798945894" y2="359.53766885647184" /><line stroke="#666666" stroke-width="0.5" x1="499.6764330450818" x2="506.56182728801565" y1="361.04721194610744" y2="363.15228822011113" /><line stroke="#666666" stroke-width="0.5" x1="498.58060060242804" x2="505.4282075197532" y1="364.522748425489" y2="366.74767078498866" /><line stroke="#666666" stroke-width="0.5" x1="497.42427858513736" x2="504.23201232945246" y1="367.97863065065434" y2="370.3227213627458" /><line stroke="#666666" stroke-width="0.5" x1="487.18677006055293" x2="502.97360608975623" y1="368.13041255047324" y2="373.87635095834446" /><line stroke="#666666" stroke-width="0.5" x1="494.93159305261577" x2="501.65337212339557" y1="374.8272278650587" y2="377.4074771017849" /><line stroke="#666666" stroke-width="0.5" x1="493.5959888335452" x2="500.2717125864261" y1="378.2178567052424" y2="380.915024177837" /><line stroke="#666666" stroke-width="0.5" x1="492.20141340086957" x2="498.82904834572713" y1="381.58465962856036" y2="384.39792375368313" /><line stroke="#666666" stroke-width="0.5" x1="490.74829155577504" x2="497.3258188508018" y1="384.9266110742271" y2="387.85511490437284" /><line stroke="#666666" stroke-width="0.5" x1="484.8867885554766" x2="495.7624819999164" y1="386.21412539510266" y2="391.2855445359911" /><line stroke="#666666" stroke-width="0.5" x1="487.6681968672661" x2="494.13951400062007" y1="391.5318954495594" y2="394.6881677064407" /><line stroke="#666666" stroke-width="0.5" x1="486.0421622505312" x2="492.45740922468747" y1="394.7932163456174" y2="398.0619479437421" /><line stroke="#666666" stroke-width="0.5" x1="484.35945738894395" x2="490.71668005752827" y1="398.025662309694" y2="401.40585756175244" /><line stroke="#666666" stroke-width="0.5" x1="482.62059485070586" x2="488.9178567421095" y1="401.22824870743517" y2="404.7188779732088" /><line stroke="#666666" stroke-width="0.5" x1="472.5122604338602" x2="487.06148721743875" y1="399.59999999999997" y2="408.0" /><line stroke="#666666" stroke-width="0.5" x1="478.9765323866011" x2="485.1481369516563" y1="407.5399500412193" y2="411.2482241805717" /><line stroke="#666666" stroke-width="0.5" x1="477.0724424774618" x2="483.178388769788" y1="410.6471423718932" y2="414.4625610743723" /><line stroke="#666666" stroke-width="0.5" x1="475.11441458700455" x2="481.1528426762116" y1="413.72063051113764" y2="417.64203156324584" /><line stroke="#666666" stroke-width="0.5" x1="473.1030451494927" x2="479.07211567188904" y1="416.759478244692" y2="420.78566714968133" /><line stroke="#666666" stroke-width="0.5" x1="467.1070170349543" x2="476.93684156642223" y1="417.0095930156134" y2="423.8925102518259" /><line stroke="#666666" stroke-width="0.5" x1="468.92274842548903" x2="474.74767078498866" y1="422.7295606786684" y2="426.9616144951742" /><line stroke="#666666" stroke-width="0.5" x1="466.7550944978748" x2="472.5052701702152" y1="425.65897683414767" y2="429.99204500084244" /><line stroke="#666666" stroke-width="0.5" x1="464.53664535308354" x2="470.2103227790519" y1="428.55011604799745" y2="432.9828786703422" /><line stroke="#666666" stroke-width="0.5" x1="462.2680767522155" x2="467.8635276747057" y1="431.4020976512061" y2="435.9332044667649" /><line stroke="#666666" stroke-width="0.5" x1="452.5960530693004" x2="465.46559971369925" y1="428.0432918495586" y2="438.8421236922925" /><line stroke="#666666" stroke-width="0.5" x1="457.5833603505148" x2="463.01726932811874" y1="436.9851252532179" y2="441.7087502619496" /><line stroke="#666666" stroke-width="0.5" x1="455.16863955967995" x2="460.51928230311717" y1="439.7144706077296" y2="444.5322109735134" /><line stroke="#666666" stroke-width="0.5" x1="452.7066528980828" x2="457.9723995497408" y1="442.40125758104966" y2="447.31164577349966" /><line stroke="#666666" stroke-width="0.5" x1="450.1981503107104" x2="455.37739687314865" y1="445.04466775183863" y2="450.0462080191434" /><line stroke="#666666" stroke-width="0.5" x1="444.2497833620557" x2="452.73506473629425" y1="444.2497833620557" y2="452.73506473629425" /><line stroke="#666666" stroke-width="0.5" x1="445.04466775183863" x2="450.0462080191434" y1="450.1981503107104" y2="455.37739687314865" /><line stroke="#666666" stroke-width="0.5" x1="442.40125758104966" x2="447.31164577349966" y1="452.7066528980828" y2="457.9723995497408" /><line stroke="#666666" stroke-width="0.5" x1="439.7144706077296" x2="444.5322109735134" y1="455.16863955967995" y2="460.51928230311717" /><line stroke="#666666" stroke-width="0.5" x1="436.9851252532179" x2="441.7087502619496" y1="457.5833603505148" y2="463.01726932811874" /><line stroke="#666666" stroke-width="0.5" x1="428.0432918495586" x2="438.8421236922925" y1="452.5960530693004" y2="465.46559971369925" /><line stroke="#666666" stroke-width="0.5" x1="431.4020976512061" x2="435.9332044667649" y1="462.2680767522155" y2="467.8635276747057" /><line stroke="#666666" stroke-width="0.5" x1="428.55011604799745" x2="432.9828786703422" y1="464.5366453530836" y2="470.2103227790519" /><line stroke="#666666" stroke-width="0.5" x1="425.65897683414767" x2="429.99204500084244" y1="466.7550944978748" y2="472.5052701702152" /><line stroke="#666666" stroke-width="0.5" x1="422.7295606786684" x2="426.9616144951742" y1="468.92274842548903" y2="474.74767078498866" /><line stroke="#666666" stroke-width="0.5" x1="417.0095930156134" x2="423.8925102518259" y1="467.1070170349543" y2="476.93684156642223" /><line stroke="#666666" stroke-width="0.5" x1="416.75947824469193" x2="420.78566714968133" y1="473.1030451494927" y2="479.07211567188904" /><line stroke="#666666" stroke-width="0.5" x1="413.72063051113764" x2="417.64203156324584" y1="475.11441458700455" y2="481.1528426762116" /><line stroke="#666666" stroke-width="0.5" x1="410.6471423718932" x2="414.4625610743723" y1="477.0724424774618" y2="483.178388769788" /><line stroke="#666666" stroke-width="0.5" x1="407.5399500412193" x2="411.2482241805717" y1="478.9765323866011" y2="485.1481369516563" /><line stroke="#666666" stroke-width="0.5" x1="399.6" x2="408.0" y1="472.51226043386015" y2="487.06148721743875" /><line stroke="#666666" stroke-width="0.5" x1="401.2282487074352" x2="404.7188779732088" y1="482.62059485070586" y2="488.9178567421095" /><line stroke="#666666" stroke-width="0.5" x1="398.025662309694" x2="401.40585756175244" y1="484.35945738894395" y2="490.7166800575282" /><line stroke="#666666" stroke-width="0.5" x1="394.7932163456174" x2="398.0619479437421" y1="486.0421622505312" y2="492.45740922468747" /><line stroke="#666666" stroke-width="0.5" x1="391.5318954495594" x2="394.6881677064407" y1="487.66819686726603" y2="494.13951400062007" /><line stroke="#666666" stroke-width="0.5" x1="386.21412539510266" x2="391.2855445359911" y1="484.8867885554766" y2="495.7624819999164" /><line stroke="#666666" stroke-width="0.5" x1="384.9266110742271" x2="387.85511490437284" y1="490.74829155577504" y2="497.3258188508018" /><line stroke="#666666" stroke-width="0.5" x1="381.58465962856036" x2="384.39792375368313" y1="492.20141340086957" y2="498.82904834572713" /><line stroke="#666666" stroke-width="0.5" x1="378.2178567052424" x2="380.915024177837" y1="493.5959888335452" y2="500.2717125864261" /><line stroke="#666666" stroke-width="0.5" x1="374.8272278650587" x2="377.4074771017849" y1="494.93159305261577" y2="501.65337212339557" /><line stroke="#666666" stroke-width="0.5" x1="368.13041255047324" x2="373.87635095834446" y1="487.18677006055293" y2="502.97360608975623" /><line stroke="#666666" stroke-width="0.5" x1="367.97863065065434" x2="370.3227213627458" y1="497.42427858513736" y2="504.2320123294524" /><line stroke="#666666" stroke-width="0.5" x1="364.522748425489" x2="366.74767078498866" y1="498.58060060242804" y2="505.4282075197532" /><line stroke="#666666" stroke-width="0.5" x1="361.04721194610744" x2="363.15228822011113" y1="499.6764330450818" y2="506.56182728801565" /><line stroke="#666666" stroke-width="0.5" x1="357.5530798945894" x2="359.53766885647184" y1="500.711442111921" y2="507.6325263226769" /><line stroke="#666666" stroke-width="0.5" x1="352.79908520091425" x2="355.90491374214446" y1="497.0488685629699" y2="508.63997847843876" /><line stroke="#666666" stroke-width="0.5" x1="350.5132918012106" x2="352.2551294495282" y1="502.59774764642805" y2="509.58387687561526" /><line stroke="#666666" stroke-width="0.5" x1="346.969780146999" x2="348.5894277382748" y1="503.44846952715716" y2="510.4639339936108" /><line stroke="#666666" stroke-width="0.5" x1="343.4119610427482" x2="344.908925216636" y1="504.2372190332186" y2="511.27988175850203" /><line stroke="#666666" stroke-width="0.5" x1="339.84091823462256" x2="341.2147430013337" y1="504.96375590387225" y2="512.0314716246954" /><line stroke="#666666" stroke-width="0.5" x1="334.5907169912525" x2="337.508006376057" y1="496.17370440003185" y2="512.718474650637" /><line stroke="#666666" stroke-width="0.5" x1="332.6635163004002" x2="333.7898444486899" y1="506.2293255162648" y2="513.3406815685498" /><line stroke="#666666" stroke-width="0.5" x1="329.0593434804617" x2="330.06138980737416" y1="506.7679727532399" y2="513.8979028481792" /><line stroke="#666666" stroke-width="0.5" x1="325.4463189029948" x2="326.32377817551185" y1="507.2436364627081" y2="514.3899687545255" /><line stroke="#666666" stroke-width="0.5" x1="321.82554313028606" x2="322.57814806581314" y1="507.6561717528955" y2="514.8167293995471" /><line stroke="#666666" stroke-width="0.5" x1="317.7797715205223" x2="318.8256404334942" y1="503.22371841071606" y2="515.178054787817" /><line stroke="#666666" stroke-width="0.5" x1="314.56515171777335" x2="315.06739832873103" y1="508.2913736942513" y2="515.473834856122" /><line stroke="#666666" stroke-width="0.5" x1="310.9277476635267" x2="311.3045665484759" y1="508.51384685675504" y2="515.7039795069879" /><line stroke="#666666" stroke-width="0.5" x1="307.28701491148223" x2="307.5382912877402" y1="508.6728046815872" y2="515.8684186361247" /><line stroke="#666666" stroke-width="0.5" x1="303.6440624641048" x2="303.7697197904533" y1="508.7681987486545" y2="515.9671021537805" /><line stroke="#666666" stroke-width="0.5" x1="300.0" x2="300.0" y1="499.2" y2="516.0" /><line stroke="#666666" stroke-width="0.5" x1="296.35593753589524" x2="296.2302802095468" y1="508.7681987486545" y2="515.9671021537805" /><line stroke="#666666" stroke-width="0.5" x1="292.7129850885178" x2="292.4617087122598" y1="508.6728046815872" y2="515.8684186361247" /><line stroke="#666666" stroke-width="0.5" x1="289.0722523364733" x2="288.69543345152414" y1="508.51384685675504" y2="515.7039795069879" /><line stroke="#666666" stroke-width="0.5" x1="285.43484828222665" x2="284.9326016712689" y1="508.2913736942513" y2="515.473834856122" /><line stroke="#666666" stroke-width="0.5" x1="282.2202284794777" x2="281.1743595665058" y1="503.22371841071606" y2="515.178054787817" /><line stroke="#666666" stroke-width="0.5" x1="278.17445686971394" x2="277.42185193418686" y1="507.6561717528955" y2="514.8167293995471" /><line stroke="#666666" stroke-width="0.5" x1="274.5536810970052" x2="273.67622182448815" y1="507.2436364627081" y2="514.3899687545256" /><line stroke="#666666" stroke-width="0.5" x1="270.9406565195384" x2="269.9386101926259" y1="506.7679727532399" y2="513.8979028481792" /><line stroke="#666666" stroke-width="0.5" x1="267.3364836995998" x2="266.21015555131015" y1="506.2293255162648" y2="513.3406815685498" /><line stroke="#666666" stroke-width="0.5" x1="265.4092830087475" x2="262.4919936239431" y1="496.17370440003185" y2="512.718474650637" /><line stroke="#666666" stroke-width="0.5" x1="260.15908176537744" x2="258.78525699866634" y1="504.96375590387225" y2="512.0314716246954" /><line stroke="#666666" stroke-width="0.5" x1="256.58803895725185" x2="255.09107478336398" y1="504.23721903321865" y2="511.27988175850203" /><line stroke="#666666" stroke-width="0.5" x1="253.03021985300097" x2="251.41057226172515" y1="503.44846952715716" y2="510.4639339936108" /><line stroke="#666666" stroke-width="0.5" x1="249.48670819878936" x2="247.74487055047177" y1="502.59774764642805" y2="509.58387687561526" /><line stroke="#666666" stroke-width="0.5" x1="247.20091479908575" x2="244.09508625785548" y1="497.0488685629699" y2="508.63997847843876" /><line stroke="#666666" stroke-width="0.5" x1="242.44692010541058" x2="240.46233114352822" y1="500.711442111921" y2="507.6325263226769" /><line stroke="#666666" stroke-width="0.5" x1="238.9527880538926" x2="236.84771177988887" y1="499.6764330450818" y2="506.5618272880157" /><line stroke="#666666" stroke-width="0.5" x1="235.477251574511" x2="233.25232921501137" y1="498.5806006024281" y2="505.4282075197532" /><line stroke="#666666" stroke-width="0.5" x1="232.0213693493457" x2="229.67727863725418" y1="497.42427858513736" y2="504.23201232945246" /><line stroke="#666666" stroke-width="0.5" x1="231.8695874495268" x2="226.12364904165554" y1="487.18677006055293" y2="502.97360608975623" /><line stroke="#666666" stroke-width="0.5" x1="225.17277213494128" x2="222.59252289821512" y1="494.93159305261577" y2="501.65337212339557" /><line stroke="#666666" stroke-width="0.5" x1="221.78214329475756" x2="219.084975822163" y1="493.5959888335452" y2="500.2717125864261" /><line stroke="#666666" stroke-width="0.5" x1="218.41534037143964" x2="215.60207624631687" y1="492.20141340086957" y2="498.8290483457271" /><line stroke="#666666" stroke-width="0.5" x1="215.07338892577292" x2="212.14488509562716" y1="490.74829155577504" y2="497.3258188508018" /><line stroke="#666666" stroke-width="0.5" x1="213.78587460489734" x2="208.71445546400895" y1="484.88678855547664" y2="495.7624819999164" /><line stroke="#666666" stroke-width="0.5" x1="208.46810455044061" x2="205.31183229355926" y1="487.66819686726603" y2="494.13951400062007" /><line stroke="#666666" stroke-width="0.5" x1="205.20678365438263" x2="201.9380520562579" y1="486.0421622505312" y2="492.45740922468747" /><line stroke="#666666" stroke-width="0.5" x1="201.97433769030596" x2="198.59414243824756" y1="484.35945738894395" y2="490.7166800575282" /><line stroke="#666666" stroke-width="0.5" x1="198.77175129256483" x2="195.2811220267912" y1="482.62059485070586" y2="488.9178567421095" /><line stroke="#666666" stroke-width="0.5" x1="200.40000000000003" x2="192.00000000000006" y1="472.5122604338602" y2="487.06148721743875" /><line stroke="#666666" stroke-width="0.5" x1="192.46004995878064" x2="188.75177581942827" y1="478.9765323866011" y2="485.1481369516563" /><line stroke="#666666" stroke-width="0.5" x1="189.35285762810685" x2="185.53743892562778" y1="477.0724424774618" y2="483.17838876978806" /><line stroke="#666666" stroke-width="0.5" x1="186.2793694888623" x2="182.3579684367541" y1="475.11441458700455" y2="481.1528426762116" /><line stroke="#666666" stroke-width="0.5" x1="183.24052175530807" x2="179.21433285031873" y1="473.1030451494927" y2="479.07211567188904" /><line stroke="#666666" stroke-width="0.5" x1="182.9904069843866" x2="176.10748974817403" y1="467.1070170349543" y2="476.93684156642223" /><line stroke="#666666" stroke-width="0.5" x1="177.27043932133162" x2="173.03838550482584" y1="468.92274842548903" y2="474.74767078498866" /><line stroke="#666666" stroke-width="0.5" x1="174.34102316585228" x2="170.00795499915756" y1="466.7550944978747" y2="472.5052701702152" /><line stroke="#666666" stroke-width="0.5" x1="171.44988395200255" x2="167.0171213296578" y1="464.5366453530836" y2="470.2103227790519" /><line stroke="#666666" stroke-width="0.5" x1="168.59790234879398" x2="164.06679553323514" y1="462.26807675221556" y2="467.8635276747058" /><line stroke="#666666" stroke-width="0.5" x1="171.95670815044136" x2="161.1578763077075" y1="452.5960530693004" y2="465.46559971369925" /><line stroke="#666666" stroke-width="0.5" x1="163.01487474678208" x2="158.29124973805045" y1="457.5833603505148" y2="463.0172693281188" /><line stroke="#666666" stroke-width="0.5" x1="160.2855293922704" x2="155.46778902648663" y1="455.16863955967995" y2="460.51928230311717" /><line stroke="#666666" stroke-width="0.5" x1="157.59874241895034" x2="152.68835422650037" y1="452.70665289808284" y2="457.9723995497409" /><line stroke="#666666" stroke-width="0.5" x1="154.95533224816134" x2="149.95379198085658" y1="450.1981503107104" y2="455.37739687314865" /><line stroke="#666666" stroke-width="0.5" x1="155.7502166379443" x2="147.26493526370575" y1="444.2497833620557" y2="452.73506473629425" /><line stroke="#666666" stroke-width="0.5" x1="149.8018496892896" x2="144.62260312685132" y1="445.0446677518386" y2="450.04620801914336" /><line stroke="#666666" stroke-width="0.5" x1="147.2933471019172" x2="142.02760045025917" y1="442.4012575810497" y2="447.31164577349966" /><line stroke="#666666" stroke-width="0.5" x1="144.8313604403201" x2="139.4807176968829" y1="439.71447060772965" y2="444.53221097351343" /><line stroke="#666666" stroke-width="0.5" x1="142.4166396494852" x2="136.98273067188126" y1="436.9851252532179" y2="441.7087502619496" /><line stroke="#666666" stroke-width="0.5" x1="147.40394693069962" x2="134.53440028630078" y1="428.0432918495586" y2="438.8421236922925" /><line stroke="#666666" stroke-width="0.5" x1="137.73192324778447" x2="132.13647232529428" y1="431.4020976512061" y2="435.9332044667649" /><line stroke="#666666" stroke-width="0.5" x1="135.46335464691646" x2="129.78967722094808" y1="428.55011604799745" y2="432.9828786703422" /><line stroke="#666666" stroke-width="0.5" x1="133.24490550212522" x2="127.49472982978472" y1="425.65897683414767" y2="429.9920450008424" /><line stroke="#666666" stroke-width="0.5" x1="131.077251574511" x2="125.25232921501137" y1="422.7295606786684" y2="426.9616144951742" /><line stroke="#666666" stroke-width="0.5" x1="132.89298296504566" x2="123.06315843357774" y1="417.0095930156134" y2="423.8925102518259" /><line stroke="#666666" stroke-width="0.5" x1="126.89695485050731" x2="120.92788432811102" y1="416.759478244692" y2="420.78566714968133" /><line stroke="#666666" stroke-width="0.5" x1="124.88558541299548" x2="118.84715732378842" y1="413.7206305111377" y2="417.6420315632459" /><line stroke="#666666" stroke-width="0.5" x1="122.92755752253825" x2="116.821611230212" y1="410.6471423718932" y2="414.4625610743723" /><line stroke="#666666" stroke-width="0.5" x1="121.02346761339896" x2="114.85186304834377" y1="407.53995004121936" y2="411.24822418057175" /><line stroke="#666666" stroke-width="0.5" x1="127.48773956613982" x2="112.93851278256125" y1="399.59999999999997" y2="408.0" /><line stroke="#666666" stroke-width="0.5" x1="117.37940514929417" x2="111.08214325789052" y1="401.2282487074352" y2="404.7188779732088" /><line stroke="#666666" stroke-width="0.5" x1="115.64054261105605" x2="109.28331994247176" y1="398.025662309694" y2="401.4058575617524" /><line stroke="#666666" stroke-width="0.5" x1="113.95783774946881" x2="107.54259077531256" y1="394.7932163456174" y2="398.0619479437421" /><line stroke="#666666" stroke-width="0.5" x1="112.33180313273391" x2="105.86048599937993" y1="391.53189544955933" y2="394.6881677064407" /><line stroke="#666666" stroke-width="0.5" x1="115.11321144452342" x2="104.23751800008361" y1="386.2141253951027" y2="391.2855445359911" /><line stroke="#666666" stroke-width="0.5" x1="109.25170844422496" x2="102.67418114919823" y1="384.92661107422714" y2="387.8551149043729" /><line stroke="#666666" stroke-width="0.5" x1="107.79858659913043" x2="101.17095165427287" y1="381.58465962856036" y2="384.39792375368313" /><line stroke="#666666" stroke-width="0.5" x1="106.40401116645481" x2="99.72828741357395" y1="378.21785670524247" y2="380.91502417783704" /><line stroke="#666666" stroke-width="0.5" x1="105.06840694738426" x2="98.34662787660443" y1="374.8272278650587" y2="377.4074771017848" /><line stroke="#666666" stroke-width="0.5" x1="112.81322993944707" x2="97.0263939102438" y1="368.13041255047324" y2="373.87635095834446" /><line stroke="#666666" stroke-width="0.5" x1="102.57572141486264" x2="95.76798767054757" y1="367.9786306506543" y2="370.3227213627458" /><line stroke="#666666" stroke-width="0.5" x1="101.41939939757194" x2="94.57179248024684" y1="364.52274842548906" y2="366.74767078498866" /><line stroke="#666666" stroke-width="0.5" x1="100.32356695491816" x2="93.43817271198432" y1="361.0472119461074" y2="363.15228822011113" /><line stroke="#666666" stroke-width="0.5" x1="99.288557888079" x2="92.36747367732312" y1="357.5530798945894" y2="359.53766885647184" /><line stroke="#666666" stroke-width="0.5" x1="102.95113143703009" x2="91.36002152156126" y1="352.7990852009143" y2="355.9049137421445" /><line stroke="#666666" stroke-width="0.5" x1="97.40225235357192" x2="90.41612312438477" y1="350.51329180121064" y2="352.2551294495282" /><line stroke="#666666" stroke-width="0.5" x1="96.5515304728429" x2="89.5360660063892" y1="346.969780146999" y2="348.5894277382749" /><line stroke="#666666" stroke-width="0.5" x1="95.76278096678135" x2="88.72011824149797" y1="343.41196104274815" y2="344.908925216636" /><line stroke="#666666" stroke-width="0.5" x1="95.03624409612777" x2="87.9685283753046" y1="339.84091823462256" y2="341.2147430013337" /><line stroke="#666666" stroke-width="0.5" x1="103.82629559996818" x2="87.28152534936308" y1="334.5907169912525" y2="337.5080063760569" /><line stroke="#666666" stroke-width="0.5" x1="93.77067448373523" x2="86.65931843145026" y1="332.66351630040026" y2="333.7898444486899" /><line stroke="#666666" stroke-width="0.5" x1="93.23202724676008" x2="86.1020971518208" y1="329.0593434804616" y2="330.0613898073741" /><line stroke="#666666" stroke-width="0.5" x1="92.75636353729195" x2="85.61003124547446" y1="325.4463189029948" y2="326.32377817551185" /><line stroke="#666666" stroke-width="0.5" x1="92.34382824710454" x2="85.18327060045297" y1="321.8255431302861" y2="322.5781480658132" /><line stroke="#666666" stroke-width="0.5" x1="96.77628158928391" x2="84.82194521218295" y1="317.7797715205223" y2="318.8256404334942" /><line stroke="#666666" stroke-width="0.5" x1="91.70862630574871" x2="84.52616514387796" y1="314.5651517177734" y2="315.0673983287311" /><line stroke="#666666" stroke-width="0.5" x1="91.48615314324496" x2="84.29602049301207" y1="310.92774766352665" y2="311.30456654847586" /><line stroke="#666666" stroke-width="0.5" x1="91.3271953184128" x2="84.13158136387531" y1="307.28701491148223" y2="307.53829128774026" /><line stroke="#666666" stroke-width="0.5" x1="91.2318012513455" x2="84.0328978462195" y1="303.64406246410476" y2="303.7697197904532" /><line stroke="#666666" stroke-width="0.5" x1="100.80000000000001" x2="84.0" y1="300.0" y2="300.0" /><line stroke="#666666" stroke-width="0.5" x1="91.2318012513455" x2="84.0328978462195" y1="296.3559375358952" y2="296.2302802095467" /><line stroke="#666666" stroke-width="0.5" x1="91.3271953184128" x2="84.13158136387531" y1="292.7129850885178" y2="292.4617087122598" /><line stroke="#666666" stroke-width="0.5" x1="91.48615314324496" x2="84.29602049301207" y1="289.0722523364734" y2="288.6954334515242" /><line stroke="#666666" stroke-width="0.5" x1="91.70862630574871" x2="84.52616514387796" y1="285.43484828222665" y2="284.9326016712689" /><line stroke="#666666" stroke-width="0.5" x1="96.77628158928391" x2="84.82194521218295" y1="282.2202284794778" y2="281.17435956650587" /><line stroke="#666666" stroke-width="0.5" x1="92.34382824710454" x2="85.18327060045297" y1="278.17445686971394" y2="277.42185193418686" /><line stroke="#666666" stroke-width="0.5" x1="92.75636353729195" x2="85.61003124547443" y1="274.55368109700527" y2="273.67622182448815" /><line stroke="#666666" stroke-width="0.5" x1="93.23202724676011" x2="86.10209715182083" y1="270.9406565195383" y2="269.93861019262584" /><line stroke="#666666" stroke-width="0.5" x1="93.77067448373523" x2="86.65931843145023" y1="267.33648369959985" y2="266.21015555131015" /><line stroke="#666666" stroke-width="0.5" x1="103.82629559996818" x2="87.28152534936308" y1="265.4092830087475" y2="262.491993623943" /><line stroke="#666666" stroke-width="0.5" x1="95.03624409612775" x2="87.96852837530457" y1="260.15908176537744" y2="258.78525699866634" /><line stroke="#666666" stroke-width="0.5" x1="95.76278096678138" x2="88.720118241498" y1="256.5880389572518" y2="255.09107478336395" /><line stroke="#666666" stroke-width="0.5" x1="96.55153047284287" x2="89.53606600638918" y1="253.030219853001" y2="251.41057226172518" /><line stroke="#666666" stroke-width="0.5" x1="97.40225235357192" x2="90.41612312438477" y1="249.48670819878942" y2="247.74487055047183" /><line stroke="#666666" stroke-width="0.5" x1="102.95113143703006" x2="91.36002152156124" y1="247.20091479908575" y2="244.0950862578555" /><line stroke="#666666" stroke-width="0.5" x1="99.288557888079" x2="92.36747367732312" y1="242.4469201054106" y2="240.46233114352822" /><line stroke="#666666" stroke-width="0.5" x1="100.32356695491819" x2="93.43817271198435" y1="238.95278805389256" y2="236.84771177988887" /><line stroke="#666666" stroke-width="0.5" x1="101.41939939757191" x2="94.57179248024681" y1="235.477251574511" y2="233.2523292150114" /><line stroke="#666666" stroke-width="0.5" x1="102.57572141486264" x2="95.7679876705476" y1="232.02136934934566" y2="229.67727863725415" /><line stroke="#666666" stroke-width="0.5" x1="112.81322993944704" x2="97.02639391024377" y1="231.86958744952682" y2="226.12364904165557" /><line stroke="#666666" stroke-width="0.5" x1="105.06840694738429" x2="98.34662787660446" y1="225.17277213494128" y2="222.59252289821512" /><line stroke="#666666" stroke-width="0.5" x1="106.40401116645478" x2="99.72828741357392" y1="221.78214329475756" y2="219.08497582216302" /><line stroke="#666666" stroke-width="0.5" x1="107.79858659913043" x2="101.17095165427287" y1="218.4153403714397" y2="215.60207624631693" /><line stroke="#666666" stroke-width="0.5" x1="109.25170844422493" x2="102.6741811491982" y1="215.07338892577292" y2="212.14488509562716" /><line stroke="#666666" stroke-width="0.5" x1="115.11321144452339" x2="104.23751800008358" y1="213.78587460489734" y2="208.71445546400895" /><line stroke="#666666" stroke-width="0.5" x1="112.33180313273394" x2="105.86048599937993" y1="208.46810455044061" y2="205.31183229355926" /><line stroke="#666666" stroke-width="0.5" x1="113.95783774946878" x2="107.54259077531253" y1="205.20678365438266" y2="201.9380520562579" /><line stroke="#666666" stroke-width="0.5" x1="115.64054261105605" x2="109.28331994247179" y1="201.974337690306" y2="198.59414243824756" /><line stroke="#666666" stroke-width="0.5" x1="117.37940514929414" x2="111.0821432578905" y1="198.77175129256483" y2="195.28112202679122" /><line stroke="#666666" stroke-width="0.5" x1="127.48773956613985" x2="112.93851278256128" y1="200.39999999999998" y2="191.99999999999997" /><line stroke="#666666" stroke-width="0.5" x1="121.02346761339894" x2="114.85186304834374" y1="192.4600499587807" y2="188.7517758194283" /><line stroke="#666666" stroke-width="0.5" x1="122.92755752253822" x2="116.82161123021197" y1="189.35285762810685" y2="185.53743892562778" /><line stroke="#666666" stroke-width="0.5" x1="124.88558541299545" x2="118.8471573237884" y1="186.27936948886236" y2="182.35796843675416" /><line stroke="#666666" stroke-width="0.5" x1="126.89695485050726" x2="120.92788432811096" y1="183.24052175530807" y2="179.21433285031873" /><line stroke="#666666" stroke-width="0.5" x1="132.89298296504566" x2="123.06315843357777" y1="182.9904069843866" y2="176.10748974817403" /><line stroke="#666666" stroke-width="0.5" x1="131.07725157451097" x2="125.25232921501134" y1="177.27043932133162" y2="173.03838550482584" /><line stroke="#666666" stroke-width="0.5" x1="133.24490550212525" x2="127.49472982978475" y1="174.34102316585228" y2="170.00795499915756" /><line stroke="#666666" stroke-width="0.5" x1="135.46335464691643" x2="129.78967722094805" y1="171.44988395200255" y2="167.01712132965784" /><line stroke="#666666" stroke-width="0.5" x1="137.7319232477845" x2="132.1364723252943" y1="168.5979023487939" y2="164.06679553323508" /><line stroke="#666666" stroke-width="0.5" x1="147.4039469306996" x2="134.53440028630075" y1="171.9567081504414" y2="161.1578763077075" /><line stroke="#666666" stroke-width="0.5" x1="142.41663964948518" x2="136.98273067188123" y1="163.0148747467821" y2="158.29124973805048" /><line stroke="#666666" stroke-width="0.5" x1="144.83136044032008" x2="139.48071769688283" y1="160.2855293922704" y2="155.46778902648663" /><line stroke="#666666" stroke-width="0.5" x1="147.29334710191716" x2="142.02760045025914" y1="157.59874241895034" y2="152.68835422650037" /><line stroke="#666666" stroke-width="0.5" x1="149.80184968928964" x2="144.62260312685137" y1="154.95533224816134" y2="149.95379198085658" /><line stroke="#666666" stroke-width="0.5" x1="155.75021663794428" x2="147.2649352637057" y1="155.7502166379443" y2="147.26493526370575" /><line stroke="#666666" stroke-width="0.5" x1="154.95533224816137" x2="149.95379198085658" y1="149.8018496892896" y2="144.62260312685135" /><line stroke="#666666" stroke-width="0.5" x1="157.59874241895028" x2="152.6883542265003" y1="147.29334710191722" y2="142.0276004502592" /><line stroke="#666666" stroke-width="0.5" x1="160.2855293922704" x2="155.46778902648666" y1="144.83136044032005" y2="139.4807176968828" /><line stroke="#666666" stroke-width="0.5" x1="163.01487474678208" x2="158.29124973805042" y1="142.4166396494852" y2="136.98273067188126" /><line stroke="#666666" stroke-width="0.5" x1="171.95670815044136" x2="161.15787630770748" y1="147.40394693069962" y2="134.53440028630078" /><line stroke="#666666" stroke-width="0.5" x1="168.59790234879387" x2="164.06679553323502" y1="137.73192324778455" y2="132.13647232529436" /><line stroke="#666666" stroke-width="0.5" x1="171.44988395200258" x2="167.01712132965787" y1="135.4633546469164" y2="129.78967722094802" /><line stroke="#666666" stroke-width="0.5" x1="174.34102316585233" x2="170.00795499915756" y1="133.24490550212525" y2="127.49472982978475" /><line stroke="#666666" stroke-width="0.5" x1="177.2704393213316" x2="173.03838550482578" y1="131.077251574511" y2="125.25232921501137" /><line stroke="#666666" stroke-width="0.5" x1="182.99040698438654" x2="176.10748974817398" y1="132.89298296504572" y2="123.06315843357783" /><line stroke="#666666" stroke-width="0.5" x1="183.24052175530812" x2="179.21433285031873" y1="126.89695485050726" y2="120.92788432811096" /><line stroke="#666666" stroke-width="0.5" x1="186.27936948886236" x2="182.35796843675416" y1="124.88558541299543" y2="118.8471573237884" /><line stroke="#666666" stroke-width="0.5" x1="189.3528576281068" x2="185.53743892562773" y1="122.92755752253825" y2="116.821611230212" /><line stroke="#666666" stroke-width="0.5" x1="192.46004995878064" x2="188.75177581942825" y1="121.02346761339899" y2="114.85186304834377" /><line stroke="#666666" stroke-width="0.5" x1="200.39999999999992" x2="191.9999999999999" y1="127.48773956613988" y2="112.9385127825613" /><line stroke="#666666" stroke-width="0.5" x1="198.77175129256486" x2="195.28112202679125" y1="117.37940514929412" y2="111.08214325789046" /><line stroke="#666666" stroke-width="0.5" x1="201.97433769030602" x2="198.59414243824762" y1="115.64054261105605" y2="109.28331994247176" /><line stroke="#666666" stroke-width="0.5" x1="205.2067836543826" x2="201.93805205625785" y1="113.95783774946881" y2="107.54259077531256" /><line stroke="#666666" stroke-width="0.5" x1="208.46810455044056" x2="205.3118322935592" y1="112.33180313273397" y2="105.86048599937996" /><line stroke="#666666" stroke-width="0.5" x1="213.78587460489737" x2="208.71445546400898" y1="115.11321144452339" y2="104.23751800008358" /><line stroke="#666666" stroke-width="0.5" x1="215.07338892577292" x2="212.14488509562716" y1="109.2517084442249" y2="102.67418114919818" /><line stroke="#666666" stroke-width="0.5" x1="218.41534037143964" x2="215.60207624631687" y1="107.79858659913046" y2="101.1709516542729" /><line stroke="#666666" stroke-width="0.5" x1="221.7821432947575" x2="219.08497582216296" y1="106.40401116645481" y2="99.72828741357395" /><line stroke="#666666" stroke-width="0.5" x1="225.17277213494123" x2="222.59252289821507" y1="105.06840694738432" y2="98.34662787660446" /><line stroke="#666666" stroke-width="0.5" x1="231.86958744952682" x2="226.1236490416556" y1="112.81322993944704" y2="97.02639391024377" /><line stroke="#666666" stroke-width="0.5" x1="232.0213693493457" x2="229.67727863725418" y1="102.57572141486264" y2="95.76798767054757" /><line stroke="#666666" stroke-width="0.5" x1="235.47725157451094" x2="233.25232921501134" y1="101.41939939757194" y2="94.57179248024684" /><line stroke="#666666" stroke-width="0.5" x1="238.9527880538925" x2="236.84771177988878" y1="100.32356695491822" y2="93.43817271198438" /><line stroke="#666666" stroke-width="0.5" x1="242.44692010541064" x2="240.46233114352825" y1="99.28855788807897" y2="92.36747367732309" /><line stroke="#666666" stroke-width="0.5" x1="247.2009147990858" x2="244.09508625785554" y1="102.95113143703006" y2="91.36002152156124" /><line stroke="#666666" stroke-width="0.5" x1="249.48670819878936" x2="247.74487055047177" y1="97.40225235357192" y2="90.41612312438477" /><line stroke="#666666" stroke-width="0.5" x1="253.03021985300092" x2="251.41057226172512" y1="96.5515304728429" y2="89.5360660063892" /><line stroke="#666666" stroke-width="0.5" x1="256.58803895725174" x2="255.0910747833639" y1="95.76278096678138" y2="88.720118241498" /><line stroke="#666666" stroke-width="0.5" x1="260.1590817653775" x2="258.78525699866634" y1="95.03624409612775" y2="87.96852837530457" /><line stroke="#666666" stroke-width="0.5" x1="265.4092830087475" x2="262.491993623943" y1="103.82629559996818" y2="87.28152534936308" /><line stroke="#666666" stroke-width="0.5" x1="267.33648369959974" x2="266.2101555513101" y1="93.77067448373523" y2="86.65931843145026" /><line stroke="#666666" stroke-width="0.5" x1="270.94065651953827" x2="269.9386101926258" y1="93.23202724676011" y2="86.10209715182083" /><line stroke="#666666" stroke-width="0.5" x1="274.55368109700527" x2="273.6762218244882" y1="92.75636353729195" y2="85.61003124547443" /><line stroke="#666666" stroke-width="0.5" x1="278.174456869714" x2="277.42185193418686" y1="92.34382824710451" y2="85.18327060045294" /><line stroke="#666666" stroke-width="0.5" x1="282.2202284794777" x2="281.1743595665058" y1="96.77628158928391" y2="84.82194521218295" /><line stroke="#666666" stroke-width="0.5" x1="285.4348482822266" x2="284.93260167126886" y1="91.70862630574871" y2="84.52616514387796" /><line stroke="#666666" stroke-width="0.5" x1="289.07225233647324" x2="288.695433451524" y1="91.48615314324496" y2="84.29602049301207" /><line stroke="#666666" stroke-width="0.5" x1="292.7129850885178" x2="292.46170871225985" y1="91.3271953184128" y2="84.13158136387531" /><line stroke="#666666" stroke-width="0.5" x1="296.3559375358952" x2="296.2302802095468" y1="91.2318012513455" y2="84.0328978462195" /><text dominant-baseline="middle" fill="#CCCCCC" font-family="&quot;Arial&quot;, &quot;Helvetica&quot;, sans-serif" font-size="8px" text-anchor="middle" x="299.99999999999994" y="116.0">0</text><text dominant-baseline="middle" fill="#CCCCCC" font-family="&quot;Arial&quot;, &quot;Helvetica&quot;, sans-serif" font-size="8px" text-anchor="middle" x="331.9512646907151" y="118.79537344575371">10</text><text dominant-baseline="middle" fill="#CCCCCC" font-family="&quot;Arial&quot;, &quot;Helvetica&quot;, sans-serif" font-size="8px" text-anchor="middle" x="362.9317063719231" y="127.09655777539288">20</text><text dominant-baseline="middle" fill="#CCCCCC" font-family="&quot;Arial&quot;, &quot;Helvetica&quot;, sans-serif" font-size="8px" text-anchor="middle" x="392.0" y="140.6513257036633">30</text><text dominant-baseline="middle" fill="#CCCCCC" font-family="&quot;Arial&quot;, &quot;Helvetica&quot;, sans-serif" font-size="8px" text-anchor="middle" x="418.2729201823232" y="159.04782246610802">40</text><text dominant-baseline="middle" fill="#CCCCCC" font-family="&quot;Arial&quot;, &quot;Helvetica&quot;, sans-serif" font-size="8px" text-anchor="middle" x="440.9521775338919" y="181.72707981767672">50</text><text dominant-baseline="middle" fill="#CCCCCC" font-family="&quot;Arial&quot;, &quot;Helvetica&quot;, sans-serif" font-size="8px" text-anchor="middle" x="459.34867429633664" y="207.99999999999991">60</text><text dominant-baseline="middle" fill="#CCCCCC" font-family="&quot;Arial&quot;, &quot;Helvetica&quot;, sans-serif" font-size="8px" text-anchor="middle" x="472.90344222460715" y="237.068293628077">70</text><text dominant-baseline="middle" fill="#CCCCCC" font-family="&quot;Arial&quot;, &quot;Helvetica&quot;, sans-serif" font-size="8px" text-anchor="middle" x="481.20462655424626" y="268.0487353092848">80</text><text dominant-baseline="middle" fill="#CCCCCC" font-family="&quot;Arial&quot;, &quot;Helvetica&quot;, sans-serif" font-size="8px" text-anchor="middle" x="484.0" y="300.0">90</text><text dominant-baseline="middle" fill="#CCCCCC" font-family="&quot;Arial&quot;, &quot;Helvetica&quot;, sans-serif" font-size="8px" text-anchor="middle" x="481.20462655424626" y="331.95126469071516">100</text><text dominant-baseline="middle" fill="#CCCCCC" font-family="&quot;Arial&quot;, &quot;Helvetica&quot;, sans-serif" font-size="8px" text-anchor="middle" x="472.90344222460715" y="362.93170637192304">110</text><text dominant-baseline="middle" fill="#CCCCCC" font-family="&quot;Arial&quot;, &quot;Helvetica&quot;, sans-serif" font-size="8px" text-anchor="middle" x="459.34867429633675" y="392.0">120</text><text dominant-baseline="middle" fill="#CCCCCC" font-family="&quot;Arial&quot;, &quot;Helvetica&quot;, sans-serif" font-size="8px" text-anchor="middle" x="440.9521775338919" y="418.2729201823232">130</text><text dominant-baseline="middle" fill="#CCCCCC" font-family="&quot;Arial&quot;, &quot;Helvetica&quot;, sans-serif" font-size="8px" text-anchor="middle" x="418.2729201823232" y="440.9521775338919">140</text><text dominant-baseline="middle" fill="#CCCCCC" font-family="&quot;Arial&quot;, &quot;Helvetica&quot;, sans-serif" font-size="8px" text-anchor="middle" x="392.0" y="459.3486742963367">150</text><text dominant-baseline="middle" fill="#CCCCCC" font-family="&quot;Arial&quot;, &quot;Helvetica&quot;, sans-serif" font-size="8px" text-anchor="middle" x="362.93170637192304" y="472.90344222460715">160</text><text dominant-baseline="middle" fill="#CCCCCC" font-family="&quot;Arial&quot;, &quot;Helvetica&quot;, sans-serif" font-size="8px" text-anchor="middle" x="331.9512646907152" y="481.20462655424626">170</text><text dominant-baseline="middle" fill="#CCCCCC" font-family="&quot;Arial&quot;, &quot;Helvetica&quot;, sans-serif" font-size="8px" text-anchor="middle" x="300.0" y="484.0">180</text><text dominant-baseline="middle" fill="#CCCCCC" font-family="&quot;Arial&quot;, &quot;Helvetica&quot;, sans-serif" font-size="8px" text-anchor="middle" x="268.04873530928484" y="481.20462655424626">190</text><text dominant-baseline="middle" fill="#CCCCCC" font-family="&quot;Arial&quot;, &quot;Helvetica&quot;, sans-serif" font-size="8px" text-anchor="middle" x="237.06829362807696" y="472.90344222460715">200</text><text dominant-baseline="middle" fill="#CCCCCC" font-family="&quot;Arial&quot;, &quot;Helvetica&quot;, sans-serif" font-size="8px" text-anchor="middle" x="208.00000000000003" y="459.34867429633675">210</text><text dominant-baseline="middle" fill="#CCCCCC" font-family="&quot;Arial&quot;, &quot;Helvetica&quot;, sans-serif" font-size="8px" text-anchor="middle" x="181.72707981767675" y="440.9521775338919">220</text><text dominant-baseline="middle" fill="#CCCCCC" font-family="&quot;Arial&quot;, &quot;Helvetica&quot;, sans-serif" font-size="8px" text-anchor="middle" x="159.04782246610807" y="418.2729201823233">230</text><text dominant-baseline="middle" fill="#CCCCCC" font-family="&quot;Arial&quot;, &quot;Helvetica&quot;, sans-serif" font-size="8px" text-anchor="middle" x="140.65132570366328" y="392.0">240</text><text dominant-baseline="middle" fill="#CCCCCC" font-family="&quot;Arial&quot;, &quot;Helvetica&quot;, sans-serif" font-size="8px" text-anchor="middle" x="127.09655777539288" y="362.93170637192304">250</text><text dominant-baseline="middle" fill="#CCCCCC" font-family="&quot;Arial&quot;, &quot;Helvetica&quot;, sans-serif" font-size="8px" text-anchor="middle" x="118.79537344575371" y="331.95126469071516">260</text><text dominant-baseline="middle" fill="#CCCCCC" font-family="&quot;Arial&quot;, &quot;Helvetica&quot;, sans-serif" font-size="8px" text-anchor="middle" x="116.0" y="300.0">270</text><text dominant-baseline="middle" fill="#CCCCCC" font-family="&quot;Arial&quot;, &quot;Helvetica&quot;, sans-serif" font-size="8px" text-anchor="middle" x="118.79537344575371" y="268.0487353092848">280</text><text dominant-baseline="middle" fill="#CCCCCC" font-family="&quot;Arial&quot;, &quot;Helvetica&quot;, sans-serif" font-size="8px" text-anchor="middle" x="127.09655777539285" y="237.06829362807696">290</text><text dominant-baseline="middle" fill="#CCCCCC" font-family="&quot;Arial&quot;, &quot;Helvetica&quot;, sans-serif" font-size="8px" text-anchor="middle" x="140.6513257036633" y="208.0">300</text><text dominant-baseline="middle" fill="#CCCCCC" font-family="&quot;Arial&quot;, &quot;Helvetica&quot;, sans-serif" font-size="8px" text-anchor="middle" x="159.04782246610804" y="181.72707981767678">310</text><text dominant-baseline="middle" fill="#CCCCCC" font-family="&quot;Arial&quot;, &quot;Helvetica&quot;, sans-serif" font-size="8px" text-anchor="middle" x="181.72707981767672" y="159.04782246610807">320</text><text dominant-baseline="middle" fill="#CCCCCC" font-family="&quot;Arial&quot;, &quot;Helvetica&quot;, sans-serif" font-size="8px" text-anchor="middle" x="207.99999999999991" y="140.65132570366333">330</text><text dominant-baseline="middle" fill="#CCCCCC" font-family="&quot;Arial&quot;, &quot;Helvetica&quot;, sans-serif" font-size="8px" text-anchor="middle" x="237.068293628077" y="127.09655777539285">340</text><text dominant-baseline="middle" fill="#CCCCCC" font-family="&quot;Arial&quot;, &quot;Helvetica&quot;, sans-serif" font-size="8px" text-anchor="middle" x="268.04873530928484" y="118.79537344575371">350</text><line stroke="#AAAAAA" stroke-width="2.0" x1="299.99999999999994" x2="299.99999999999994" y1="113.0" y2="69.0" /><polygon fill="#AAAAAA" points="299.99999999999994,113.0 303.38094609392556,105.7495377037068 296.6190539060743,105.7495377037068" /><line stroke="#AAAAAA" stroke-width="4.0" x1="299.99999999999994" x2="299.99999999999994" y1="87.0" y2="81.0" /><line stroke="#AAAAAA" stroke-width="2.0" x1="487.0" x2="531.0" y1="300.0" y2="300.0" /><polygon fill="#AAAAAA" points="487.0,300.0 494.2504622962932,303.3809460939256 494.2504622962932,296.6190539060744" /><line stroke="#AAAAAA" stroke-width="4.0" x1="513.0" x2="519.0" y1="300.0" y2="300.0" /><line stroke="#AAAAAA" stroke-width="2.0" x1="300.0" x2="300.0" y1="487.0" y2="531.0" /><polygon fill="#AAAAAA" points="300.0,487.0 296.6190539060744,494.2504622962932 303.3809460939256,494.2504622962932" /><line stroke="#AAAAAA" stroke-width="4.0" x1="300.0" x2="300.0" y1="513.0" y2="519.0" /><line stroke="#AAAAAA" stroke-width="2.0" x1="113.0" x2="69.0" y1="300.0" y2="300.0" /><polygon fill="#AAAAAA" points="113.0,300.0 105.7495377037068,296.6190539060744 105.7495377037068,303.3809460939256" /><line stroke="#AAAAAA" stroke-width="4.0" x1="87.0" x2="81.0" y1="300.0" y2="300.0" /><line stroke="#BBBBBB" stroke-width="1.0" x1="327.4839684941387" x2="328.6789236460578" y1="118.06421056918683" y2="110.15395885480365" /><line stroke="#555555" stroke-dasharray="2,2" stroke-width="0.5" x1="327.4839684941387" x2="324.646805509464" y1="118.06421056918683" y2="145.9593073951605" /><text dominant-baseline="middle" fill="#EEEEEE" font-family="&quot;Symbola&quot;, &quot;Noto Sans Symbols&quot;, &quot;Apple Symbols&quot;, &quot;Segoe UI Symbol&quot;, serif" font-size="18px" text-anchor="middle" x="324.646805509464" y="145.9593073951605">♃</text><line stroke="#BBBBBB" stroke-width="1.0" x1="400.12422087386244" x2="404.47744786837825" y1="145.62662018857654" y2="138.914734109819" /><line stroke="#555555" stroke-dasharray="2,2" stroke-width="0.5" x1="400.12422087386244" x2="360.8709057164688" y1="145.62662018857654" y2="156.36597604586592" /><svg height="18.0" viewBox="0 0 12 12" width="18.0" x="351.8709057164688" y="147.36597604586592"><defs /><path d="M3.5 3.5 6 1l2.5 2.5M6 1v5.67L8.5 11h-5L6 6.67" fill="none" stroke="#EEEEEE" stroke-linecap="round" stroke-linejoin="round" stroke-width="0.60000002" /></svg><line stroke="#BBBBBB" stroke-width="1.0" x1="406.96204475092173" x2="411.6125684357444" y1="150.28319739353964" y2="143.77377119325874" /><line stroke="#555555" stroke-dasharray="2,2" stroke-width="0.5" x1="406.96204475092173" x2="386.20004275808174" y1="150.28319739353964" y2="169.97864549042384" /><text dominant-baseline="middle" fill="#EEEEEE" font-family="&quot;Symbola&quot;, &quot;Noto Sans Symbols&quot;, &quot;Apple Symbols&quot;, &quot;Segoe UI Symbol&quot;, serif" font-size="18px" text-anchor="middle" x="386.20004275808174" y="169.97864549042384">♇</text><line stroke="#BBBBBB" stroke-width="1.0" x1="433.5372117918589" x2="439.34317752193977" y1="173.41479917914492" y2="167.91109479562948" /><line stroke="#555555" stroke-dasharray="2,2" stroke-width="0.5" x1="433.5372117918589" x2="409.4018714030964" y1="173.41479917914492" y2="188.79194933144288" /><svg height="18.0" viewBox="0 0 12 12" width="18.0" x="400.4018714030964" y="179.79194933144288"><defs /><path d="M6 10h2.5m0-5.25a1.25 1.25 0 1 0-2.5 0C6 5.442 6.559 6 7.25 6S8.5 5.442 8.5 4.75zM2.25 1a4.33 4.33 0 0 1 0 7.5h7.5M7.25 6v5" fill="none" stroke="#EEEEEE" stroke-linecap="round" stroke-linejoin="round" stroke-width="0.60000002" /></svg><line stroke="#BBBBBB" stroke-width="1.0" x1="448.74165593501607" x2="455.20868445392983" y1="191.6860129544236" y2="186.97670916983333" /><line stroke="#555555" stroke-dasharray="2,2" stroke-width="0.5" x1="448.74165593501607" x2="429.23510557960594" y1="191.6860129544236" y2="212.62559021184694" /><text dominant-baseline="middle" fill="#EEEEEE" font-family="&quot;Symbola&quot;, &quot;Noto Sans Symbols&quot;, &quot;Apple Symbols&quot;, &quot;Segoe UI Symbol&quot;, serif" font-size="18px" text-anchor="middle" x="429.23510557960594" y="212.62559021184694">♅</text><line stroke="#BBBBBB" stroke-width="1.0" x1="472.807995796789" x2="480.3213869183885" y1="236.80667291005352" y2="234.05913694962106" /><line stroke="#555555" stroke-dasharray="2,2" stroke-width="0.5" x1="472.807995796789" x2="444.03468695313023" y1="236.80667291005352" y2="240.08331656112986" /><svg height="18.0" viewBox="0 0 12 12" width="18.0" x="435.03468695313023" y="231.08331656112986"><defs /><path d="m3.5 7 5 4m-5 0 5-4m-5-3.5L6 1l2.5 2.5M6 9V1" fill="none" stroke="#EEEEEE" stroke-linecap="round" stroke-linejoin="round" stroke-width="0.60000002" /></svg><line stroke="#BBBBBB" stroke-width="1.0" x1="483.89987015196743" x2="491.89551668031385" y1="293.93058832426743" y2="293.66670086010515" /><line stroke="#555555" stroke-dasharray="2,2" stroke-width="0.5" x1="483.89987015196743" x2="452.65284672689535" y1="293.93058832426743" y2="267.8579965438526" /><text dominant-baseline="middle" fill="#EEEEEE" font-family="&quot;Symbola&quot;, &quot;Noto Sans Symbols&quot;, &quot;Apple Symbols&quot;, &quot;Segoe UI Symbol&quot;, serif" font-size="18px" text-anchor="middle" x="452.65284672689535" y="267.8579965438526">☿</text><line stroke="#BBBBBB" stroke-width="1.0" x1="483.1345940910876" x2="491.0969677472218" y1="317.8247145024149" y2="318.5997020894764" /><line stroke="#555555" stroke-dasharray="2,2" stroke-width="0.5" x1="483.1345940910876" x2="455.9506758948179" y1="317.8247145024149" y2="296.0774131049194" /><text dominant-baseline="middle" fill="#EEEEEE" font-family="&quot;Symbola&quot;, &quot;Noto Sans Symbols&quot;, &quot;Apple Symbols&quot;, &quot;Segoe UI Symbol&quot;, serif" font-size="18px" text-anchor="middle" x="455.9506758948179" y="296.0774131049194">♄</text><line stroke="#BBBBBB" stroke-width="1.0" x1="477.880611974365" x2="485.6145516254244" y1="347.05834552579796" y2="349.10436054865875" /><line stroke="#555555" stroke-dasharray="2,2" stroke-width="0.5" x1="477.880611974365" x2="454.15606296865235" y1="347.05834552579796" y2="323.91460327927047" /><text dominant-baseline="middle" fill="#EEEEEE" font-family="&quot;Symbola&quot;, &quot;Noto Sans Symbols&quot;, &quot;Apple Symbols&quot;, &quot;Segoe UI Symbol&quot;, serif" font-size="18px" text-anchor="middle" x="454.15606296865235" y="323.91460327927047">♀</text><line stroke="#BBBBBB" stroke-width="1.0" x1="475.1914051654201" x2="482.80842278130797" y1="356.24919160455204" y2="358.6948086308369" /><line stroke="#555555" stroke-dasharray="2,2" stroke-width="0.5" x1="475.1914051654201" x2="446.7770212587267" y1="356.24919160455204" y2="352.84416742096806" /><text dominant-baseline="middle" fill="#EEEEEE" font-family="&quot;Symbola&quot;, &quot;Noto Sans Symbols&quot;, &quot;Apple Symbols&quot;, &quot;Segoe UI Symbol&quot;, serif" font-size="18px" text-anchor="middle" x="446.7770212587267" y="352.84416742096806">☉</text><line stroke="#BBBBBB" stroke-width="1.0" x1="471.9603837548186" x2="479.43692217894113" y1="365.46469597344446" y2="368.31098710272465" /><line stroke="#555555" stroke-dasharray="2,2" stroke-width="0.5" x1="471.9603837548186" x2="433.9396448921799" y1="365.46469597344446" y2="379.9760684589881" /><svg height="18.0" viewBox="0 0 12 12" width="18.0" x="424.9396448921799" y="370.9760684589881"><defs /><path d="M5.835 5.999c.362.362.862.585 1.415.585S8.303 6.361 8.665 6m-2.83 5a1.994 1.994 0 0 1 1.415-.585c.553 0 1.053.223 1.415.585m-2.226-.426V6.42m1.622 4.155V6.42M2.25 1a4.33 4.33 0 0 1 0 7.5h7.5" fill="none" stroke="#EEEEEE" stroke-linecap="round" stroke-linejoin="round" stroke-width="0.60000002" /></svg><line stroke="#BBBBBB" stroke-width="1.0" x1="408.0457216636113" x2="412.74336173594224" y1="448.9366376355712" y2="455.4121436197264" /><svg height="18.0" viewBox="0 0 12 12" width="18.0" x="382.60398141045306" y="417.27236669102774"><defs /><path d="M2.113 11A5.776 5.776 0 0 0 5 6a5.776 5.776 0 0 0-2.887-5m7.773 10A5.776 5.776 0 0 1 7 6a5.776 5.776 0 0 1 2.886-5M1 6h10" fill="none" stroke="#EEEEEE" stroke-linecap="round" stroke-linejoin="round" stroke-width="0.59999996" /></svg><line stroke="#BBBBBB" stroke-width="1.0" x1="255.98379527792935" x2="254.07004724653495" y1="478.65769986727344" y2="486.4254259484593" /><line stroke="#555555" stroke-dasharray="2,2" stroke-width="0.5" x1="255.98379527792935" x2="276.02545772729644" y1="478.65769986727344" y2="454.1467525535791" /><text dominant-baseline="middle" fill="#EEEEEE" font-family="&quot;Symbola&quot;, &quot;Noto Sans Symbols&quot;, &quot;Apple Symbols&quot;, &quot;Segoe UI Symbol&quot;, serif" font-size="18px" text-anchor="middle" x="276.02545772729644" y="454.1467525535791">☽</text><line stroke="#BBBBBB" stroke-width="1.0" x1="240.27551246028202" x2="237.67879561072908" y1="474.0373109080868" y2="481.60415051278625" /><line stroke="#555555" stroke-dasharray="2,2" stroke-width="0.5" x1="240.27551246028202" x2="236.6965828625825" y1="474.0373109080868" y2="442.5786708407892" /><text dominant-baseline="middle" fill="#EEEEEE" font-family="&quot;Symbola&quot;, &quot;Noto Sans Symbols&quot;, &quot;Apple Symbols&quot;, &quot;Segoe UI Symbol&quot;, serif" font-size="18px" text-anchor="middle" x="236.6965828625825" y="442.5786708407892">♂</text><line stroke="#BBBBBB" stroke-width="1.0" x1="130.87933376278423" x2="123.52626131768787" y1="227.51413757510875" y2="224.3625783392439" /><svg height="18.0" viewBox="0 0 12 12" width="18.0" x="147.6150873206214" y="229.54459490063567"><defs /><path d="M8.828 2.172A3.988 3.988 0 0 0 6 1C3.793 1 2 2.793 2 5s1.793 4 4 4a3.988 3.988 0 0 0 2.828-1.172M6 11V3.5M4.5 5h3" fill="none" stroke="#EEEEEE" stroke-linecap="round" stroke-linejoin="round" stroke-width="0.60000002" /></svg><line stroke="#BBBBBB" stroke-width="1.0" x1="198.31293808371657" x2="193.89176147866078" y1="146.65156851524716" y2="139.98424540721442" /><line stroke="#555555" stroke-dasharray="2,2" stroke-width="0.5" x1="198.31293808371657" x2="209.30219349132398" y1="146.65156851524716" y2="173.07518802647468" /><svg height="18.0" viewBox="0 0 12 12" width="18.0" x="200.30219349132398" y="164.07518802647468"><defs /><path d="M6 11V3M4 5h4m0 0a1.999 1.999 0 1 0-4 0 1.999 1.999 0 1 0 4 0ZM4 1a1.999 1.999 0 1 0 4 0" fill="none" stroke="#EEEEEE" stroke-linecap="round" stroke-linejoin="round" stroke-width="0.60000002" /></svg><line stroke="#BBBBBB" stroke-width="1.0" x1="262.7175001097328" x2="261.0965218536342" y1="119.81671775125133" y2="111.98266200130575" /><line stroke="#555555" stroke-dasharray="2,2" stroke-width="0.5" x1="262.7175001097328" x2="244.88251593722472" y1="119.81671775125133" y2="154.0614411795508" /><svg height="18.0" viewBox="0 0 12 12" width="18.0" x="235.88251593722472" y="145.0614411795508"><defs /><path d="M3.5 4.75h5M6 11V1m3.536 1.464A4.984 4.984 0 0 0 6 1c-1.38 0-2.63.56-3.536 1.464" fill="none" stroke="#EEEEEE" stroke-linecap="round" stroke-linejoin="round" stroke-width="0.60000002" /></svg><line stroke="#BBBBBB" stroke-width="1.0" x1="269.2064313980458" x2="267.8675805892652" y1="118.59504931574568" y2="110.70787754686506" /><line stroke="#555555" stroke-dasharray="2,2" stroke-width="0.5" x1="269.2064313980458" x2="283.33036134052475" y1="118.59504931574568" y2="144.89318794146232" /><text dominant-baseline="middle" fill="#EEEEEE" font-family="&quot;Symbola&quot;, &quot;Noto Sans Symbols&quot;, &quot;Apple Symbols&quot;, &quot;Segoe UI Symbol&quot;, serif" font-size="18px" text-anchor="middle" x="283.33036134052475" y="144.89318794146232">♆</text><line stroke="#BBBBBB" stroke-width="0.5" x1="348.87057896018445" x2="350.21564076642807" y1="87.54843725663872" y2="81.70114653893154" /><line stroke="#555555" stroke-dasharray="2,2" stroke-width="0.4" x1="350.21564076642807" x2="331.1372571784245" y1="81.70114653893154" y2="62.028423513637534" /><text dominant-baseline="middle" fill="#BBBBBB" font-family="&quot;Symbola&quot;, &quot;Noto Sans Symbols&quot;, &quot;Apple Symbols&quot;, &quot;Segoe UI Symbol&quot;, serif" font-size="8px" text-anchor="middle" x="331.1372571784245" y="62.028423513637534">♆/♇</text><line stroke="#BBBBBB" stroke-width="0.5" x1="381.89966414402" x2="384.1537833406444" y1="97.96919786058186" y2="92.40871706775383" /><line stroke="#555555" stroke-dasharray="2,2" stroke-width="0.4" x1="384.1537833406444" x2="354.2606564250029" y1="92.40871706775383" y2="66.21424088638807" /><text dominant-baseline="middle" fill="#BBBBBB" font-family="&quot;Symbola&quot;, &quot;Noto Sans Symbols&quot;, &quot;Apple Symbols&quot;, &quot;Segoe UI Symbol&quot;, serif" font-size="8px" text-anchor="middle" x="354.2606564250029" y="66.21424088638807">♃/♇</text><line stroke="#BBBBBB" stroke-width="0.5" x1="382.19958271380204" x2="384.46195654996177" y1="98.09103882770134" y2="92.5339114559867" /><line stroke="#555555" stroke-dasharray="2,2" stroke-width="0.4" x1="384.46195654996177" x2="376.7559817143121" y1="92.5339114559867" y2="72.60492689798184" /><text dominant-baseline="middle" fill="#BBBBBB" font-family="&quot;Symbola&quot;, &quot;Noto Sans Symbols&quot;, &quot;Apple Symbols&quot;, &quot;Segoe UI Symbol&quot;, serif" font-size="8px" text-anchor="middle" x="376.7559817143121" y="72.60492689798184">♆/♅</text><line stroke="#BBBBBB" stroke-width="0.5" x1="413.1384275005559" x2="416.25232917488313" y1="113.65704675866743" y2="108.52834162358488" /><line stroke="#555555" stroke-dasharray="2,2" stroke-width="0.4" x1="416.25232917488313" x2="398.6263678444737" y1="108.52834162358488" y2="81.20137211169134" /><text dominant-baseline="middle" fill="#BBBBBB" font-family="&quot;Symbola&quot;, &quot;Noto Sans Symbols&quot;, &quot;Apple Symbols&quot;, &quot;Segoe UI Symbol&quot;, serif" font-size="8px" text-anchor="middle" x="398.6263678444737" y="81.20137211169134">♃/♅</text><line stroke="#BBBBBB" stroke-width="0.5" x1="437.89374613962656" x2="441.68898685906584" y1="131.15298410815717" y2="126.50581853315231" /><line stroke="#555555" stroke-dasharray="2,2" stroke-width="0.4" x1="441.68898685906584" x2="417.2244260654131" y1="126.50581853315231" y2="90.57594709863318" /><text dominant-baseline="middle" fill="#BBBBBB" font-family="&quot;Symbola&quot;, &quot;Noto Sans Symbols&quot;, &quot;Apple Symbols&quot;, &quot;Segoe UI Symbol&quot;, serif" font-size="8px" text-anchor="middle" x="417.2244260654131" y="90.57594709863318">♆/☿</text><line stroke="#BBBBBB" stroke-width="0.5" x1="448.57127563013415" x2="452.6603933080278" y1="140.46763319741441" y2="136.07683411110472" /><line stroke="#555555" stroke-dasharray="2,2" stroke-width="0.4" x1="452.6603933080278" x2="430.58162129318373" y1="136.07683411110472" y2="98.63356739405762" /><text dominant-baseline="middle" fill="#BBBBBB" font-family="&quot;Symbola&quot;, &quot;Noto Sans Symbols&quot;, &quot;Apple Symbols&quot;, &quot;Segoe UI Symbol&quot;, serif" font-size="8px" text-anchor="middle" x="430.58162129318373" y="98.63356739405762">♆/♄</text><line stroke="#BBBBBB" stroke-width="0.5" x1="453.4494462790044" x2="457.67282553438986" y1="145.1540525662136" y2="140.89223749922866" /><line stroke="#555555" stroke-dasharray="2,2" stroke-width="0.4" x1="457.67282553438986" x2="443.5659040081253" y1="140.89223749922866" y2="107.67519347122757" /><text dominant-baseline="middle" fill="#BBBBBB" font-family="&quot;Symbola&quot;, &quot;Noto Sans Symbols&quot;, &quot;Apple Symbols&quot;, &quot;Segoe UI Symbol&quot;, serif" font-size="8px" text-anchor="middle" x="443.5659040081253" y="107.67519347122757">♇/♅</text><line stroke="#BBBBBB" stroke-width="0.5" x1="460.96273130892524" x2="465.3928982256847" y1="152.9795962134142" y2="148.9331630816733" /><line stroke="#555555" stroke-dasharray="2,2" stroke-width="0.4" x1="465.3928982256847" x2="456.1603590184064" y1="148.9331630816733" y2="117.75307335583838" /><text dominant-baseline="middle" fill="#BBBBBB" font-family="&quot;Symbola&quot;, &quot;Noto Sans Symbols&quot;, &quot;Apple Symbols&quot;, &quot;Segoe UI Symbol&quot;, serif" font-size="8px" text-anchor="middle" x="456.1603590184064" y="117.75307335583838">♆/♀</text><line stroke="#BBBBBB" stroke-width="0.5" x1="462.89372467648707" x2="467.3770381996932" y1="155.1220014597771" y2="151.1345336100462" /><line stroke="#555555" stroke-dasharray="2,2" stroke-width="0.4" x1="467.3770381996932" x2="467.7696280171515" y1="151.1345336100462" y2="128.38021117893598" /><text dominant-baseline="middle" fill="#BBBBBB" font-family="&quot;Symbola&quot;, &quot;Noto Sans Symbols&quot;, &quot;Apple Symbols&quot;, &quot;Segoe UI Symbol&quot;, serif" font-size="8px" text-anchor="middle" x="467.7696280171515" y="128.38021117893598">♃/☿</text><line stroke="#BBBBBB" stroke-width="0.5" x1="464.7340274168231" x2="469.2679914741669" y1="157.21799759411775" y2="153.28821771138703" /><line stroke="#555555" stroke-dasharray="2,2" stroke-width="0.4" x1="469.2679914741669" x2="478.5875758773839" y1="153.28821771138703" y2="139.66760233115815" /><text dominant-baseline="middle" fill="#BBBBBB" font-family="&quot;Symbola&quot;, &quot;Noto Sans Symbols&quot;, &quot;Apple Symbols&quot;, &quot;Segoe UI Symbol&quot;, serif" font-size="8px" text-anchor="middle" x="478.5875758773839" y="139.66760233115815">☉/♆</text><line stroke="#BBBBBB" stroke-width="0.5" x1="471.96134718320036" x2="476.69422829833434" y1="166.01009338409546" y2="162.3222977891623" /><text dominant-baseline="middle" fill="#BBBBBB" font-family="&quot;Symbola&quot;, &quot;Noto Sans Symbols&quot;, &quot;Apple Symbols&quot;, &quot;Segoe UI Symbol&quot;, serif" font-size="8px" text-anchor="middle" x="489.3152446053582" y="152.48817620267388">♃/♄</text><line stroke="#BBBBBB" stroke-width="0.5" x1="482.21490918134947" x2="487.22999842487286" y1="180.3265824335556" y2="177.03281864732318" /><line stroke="#555555" stroke-dasharray="2,2" stroke-width="0.4" x1="487.22999842487286" x2="498.273652673389" y1="177.03281864732318" y2="164.76849976594835" /><text dominant-baseline="middle" fill="#BBBBBB" font-family="&quot;Symbola&quot;, &quot;Noto Sans Symbols&quot;, &quot;Apple Symbols&quot;, &quot;Segoe UI Symbol&quot;, serif" font-size="8px" text-anchor="middle" x="498.273652673389" y="164.76849976594835">♃/♀</text><line stroke="#BBBBBB" stroke-width="0.5" x1="485.2673779940884" x2="490.3664801407147" y1="185.10875293915745" y2="181.94660852463886" /><line stroke="#555555" stroke-dasharray="2,2" stroke-width="0.4" x1="490.3664801407147" x2="506.1405023282747" y1="181.94660852463886" y2="177.09315194080284" /><text dominant-baseline="middle" fill="#BBBBBB" font-family="&quot;Symbola&quot;, &quot;Noto Sans Symbols&quot;, &quot;Apple Symbols&quot;, &quot;Segoe UI Symbol&quot;, serif" font-size="8px" text-anchor="middle" x="506.1405023282747" y="177.09315194080284">♃/☉</text><line stroke="#BBBBBB" stroke-width="0.5" x1="492.1716172027714" x2="497.46074428174677" y1="197.0725034712712" y2="194.2396365943337" /><line stroke="#555555" stroke-dasharray="2,2" stroke-width="0.4" x1="497.46074428174677" x2="513.510474536872" y1="194.2396365943337" y2="190.3949031155954" /><text dominant-baseline="middle" fill="#BBBBBB" font-family="&quot;Symbola&quot;, &quot;Noto Sans Symbols&quot;, &quot;Apple Symbols&quot;, &quot;Segoe UI Symbol&quot;, serif" font-size="8px" text-anchor="middle" x="513.510474536872" y="190.3949031155954">♇/☿</text><line stroke="#BBBBBB" stroke-width="0.5" x1="498.45216547939117" x2="503.914151685246" y1="209.773961538033" y2="207.29067607577704" /><line stroke="#555555" stroke-dasharray="2,2" stroke-width="0.4" x1="503.914151685246" x2="520.1797450434806" y1="207.29067607577704" y2="204.49670229469623" /><text dominant-baseline="middle" fill="#BBBBBB" font-family="&quot;Symbola&quot;, &quot;Noto Sans Symbols&quot;, &quot;Apple Symbols&quot;, &quot;Segoe UI Symbol&quot;, serif" font-size="8px" text-anchor="middle" x="520.1797450434806" y="204.49670229469623">♄/♇</text><line stroke="#BBBBBB" stroke-width="0.5" x1="505.0870314264107" x2="510.73162862163304" y1="226.08579608287437" y2="224.05146019524705" /><text dominant-baseline="middle" fill="#BBBBBB" font-family="&quot;Symbola&quot;, &quot;Noto Sans Symbols&quot;, &quot;Apple Symbols&quot;, &quot;Segoe UI Symbol&quot;, serif" font-size="8px" text-anchor="middle" x="525.7838878088925" y="218.62656449490754">♇/♀</text><line stroke="#BBBBBB" stroke-width="0.5" x1="506.1524616567366" x2="511.82638261976604" y1="229.11161905595702" y2="227.16056269969897" /><line stroke="#555555" stroke-dasharray="2,2" stroke-width="0.4" x1="511.82638261976604" x2="530.7302180653185" y1="227.16056269969897" y2="233.94270311668356" /><text dominant-baseline="middle" fill="#BBBBBB" font-family="&quot;Symbola&quot;, &quot;Noto Sans Symbols&quot;, &quot;Apple Symbols&quot;, &quot;Segoe UI Symbol&quot;, serif" font-size="8px" text-anchor="middle" x="530.7302180653185" y="233.94270311668356">☿/♅</text><line stroke="#BBBBBB" stroke-width="0.5" x1="506.9409965036016" x2="512.6366202605815" y1="231.4476552837443" y2="229.56089350256295" /><line stroke="#555555" stroke-dasharray="2,2" stroke-width="0.4" x1="512.6366202605815" x2="534.4657137454082" y1="229.56089350256295" y2="248.7571558375579" /><text dominant-baseline="middle" fill="#BBBBBB" font-family="&quot;Symbola&quot;, &quot;Noto Sans Symbols&quot;, &quot;Apple Symbols&quot;, &quot;Segoe UI Symbol&quot;, serif" font-size="8px" text-anchor="middle" x="534.4657137454082" y="248.7571558375579">☉/♇</text><line stroke="#BBBBBB" stroke-width="0.5" x1="510.322121286723" x2="516.1108035239722" y1="242.65363745229354" y2="241.07529719868694" /><line stroke="#555555" stroke-dasharray="2,2" stroke-width="0.4" x1="516.1108035239722" x2="537.5154227213271" y1="241.07529719868694" y2="265.5554943494716" /><text dominant-baseline="middle" fill="#BBBBBB" font-family="&quot;Symbola&quot;, &quot;Noto Sans Symbols&quot;, &quot;Apple Symbols&quot;, &quot;Segoe UI Symbol&quot;, serif" font-size="8px" text-anchor="middle" x="537.5154227213271" y="265.5554943494716">♄/♅</text><line stroke="#BBBBBB" stroke-width="0.5" x1="514.2644770557107" x2="520.1616644976109" y1="259.8162486564179" y2="258.71027384879636" /><line stroke="#555555" stroke-dasharray="2,2" stroke-width="0.4" x1="520.1616644976109" x2="539.2195151645631" y1="258.71027384879636" y2="280.66031115991296" /><text dominant-baseline="middle" fill="#BBBBBB" font-family="&quot;Symbola&quot;, &quot;Noto Sans Symbols&quot;, &quot;Apple Symbols&quot;, &quot;Segoe UI Symbol&quot;, serif" font-size="8px" text-anchor="middle" x="539.2195151645631" y="280.66031115991296">♀/♅</text><line stroke="#BBBBBB" stroke-width="0.5" x1="515.2375915272268" x2="521.161561936233" y1="265.4055034209389" y2="264.4533613132583" /><line stroke="#555555" stroke-dasharray="2,2" stroke-width="0.4" x1="521.161561936233" x2="539.9532522355752" y1="264.4533613132583" y2="295.2632562270676" /><text dominant-baseline="middle" fill="#BBBBBB" font-family="&quot;Symbola&quot;, &quot;Noto Sans Symbols&quot;, &quot;Apple Symbols&quot;, &quot;Segoe UI Symbol&quot;, serif" font-size="8px" text-anchor="middle" x="539.9532522355752" y="295.2632562270676">☉/♅</text><line stroke="#BBBBBB" stroke-width="0.5" x1="517.8882759969869" x2="523.8852010244269" y1="306.97847999645126" y2="307.1705482532343" /><line stroke="#555555" stroke-dasharray="2,2" stroke-width="0.4" x1="523.8852010244269" x2="539.462751090021" y1="307.1705482532343" y2="316.0496367684332" /><text dominant-baseline="middle" fill="#BBBBBB" font-family="&quot;Symbola&quot;, &quot;Noto Sans Symbols&quot;, &quot;Apple Symbols&quot;, &quot;Segoe UI Symbol&quot;, serif" font-size="8px" text-anchor="middle" x="539.462751090021" y="316.0496367684332">♄/☿</text><line stroke="#BBBBBB" stroke-width="0.5" x1="516.6141609494281" x2="522.5760185902379" y1="324.5419085683097" y2="325.21737394174943" /><line stroke="#555555" stroke-dasharray="2,2" stroke-width="0.4" x1="522.5760185902379" x2="537.3860974658462" y1="325.21737394174943" y2="335.3247891704363" /><text dominant-baseline="middle" fill="#BBBBBB" font-family="&quot;Symbola&quot;, &quot;Noto Sans Symbols&quot;, &quot;Apple Symbols&quot;, &quot;Segoe UI Symbol&quot;, serif" font-size="8px" text-anchor="middle" x="537.3860974658462" y="335.3247891704363">♀/☿</text><line stroke="#BBBBBB" stroke-width="0.5" x1="515.902171434102" x2="521.8444330332057" y1="330.1703889606947" y2="331.000766638512" /><line stroke="#555555" stroke-dasharray="2,2" stroke-width="0.4" x1="521.8444330332057" x2="533.8910926572028" y1="331.000766638512" y2="353.8048025330435" /><text dominant-baseline="middle" fill="#BBBBBB" font-family="&quot;Symbola&quot;, &quot;Noto Sans Symbols&quot;, &quot;Apple Symbols&quot;, &quot;Segoe UI Symbol&quot;, serif" font-size="8px" text-anchor="middle" x="533.8910926572028" y="353.8048025330435">☉/☿</text><line stroke="#BBBBBB" stroke-width="0.5" x1="514.5622856997986" x2="520.4676697098848" y1="338.56197032411586" y2="339.6233089568897" /><line stroke="#555555" stroke-dasharray="2,2" stroke-width="0.4" x1="520.4676697098848" x2="530.4837440919193" y1="339.6233089568897" y2="366.91220897093945" /><text dominant-baseline="middle" fill="#BBBBBB" font-family="&quot;Symbola&quot;, &quot;Noto Sans Symbols&quot;, &quot;Apple Symbols&quot;, &quot;Segoe UI Symbol&quot;, serif" font-size="8px" text-anchor="middle" x="530.4837440919193" y="366.91220897093945">♄/♀</text><line stroke="#BBBBBB" stroke-width="0.5" x1="513.4861572568517" x2="519.3619230529118" y1="344.1323085698311" y2="345.34695926441356" /><line stroke="#555555" stroke-dasharray="2,2" stroke-width="0.4" x1="519.3619230529118" x2="525.9814617397561" y1="345.34695926441356" y2="380.8231337549041" /><text dominant-baseline="middle" fill="#BBBBBB" font-family="&quot;Symbola&quot;, &quot;Noto Sans Symbols&quot;, &quot;Apple Symbols&quot;, &quot;Segoe UI Symbol&quot;, serif" font-size="8px" text-anchor="middle" x="525.9814617397561" y="380.8231337549041">☉/♄</text><line stroke="#BBBBBB" stroke-width="0.5" x1="509.2276448763175" x2="514.9862039096106" y1="361.21921773029754" y2="362.9041503283791" /><line stroke="#555555" stroke-dasharray="2,2" stroke-width="0.4" x1="514.9862039096106" x2="520.4117591233739" y1="362.9041503283791" y2="394.96660697392423" /><text dominant-baseline="middle" fill="#BBBBBB" font-family="&quot;Symbola&quot;, &quot;Noto Sans Symbols&quot;, &quot;Apple Symbols&quot;, &quot;Segoe UI Symbol&quot;, serif" font-size="8px" text-anchor="middle" x="520.4117591233739" y="394.96660697392423">☉/♀</text><line stroke="#BBBBBB" stroke-width="0.5" x1="498.0678665166567" x2="503.51927568683993" y1="391.0665704500826" y2="393.5729898202684" /><line stroke="#555555" stroke-dasharray="2,2" stroke-width="0.4" x1="503.51927568683993" x2="514.42462177856" y1="393.5729898202684" y2="407.80575854341686" /><text dominant-baseline="middle" fill="#BBBBBB" font-family="&quot;Symbola&quot;, &quot;Noto Sans Symbols&quot;, &quot;Apple Symbols&quot;, &quot;Segoe UI Symbol&quot;, serif" font-size="8px" text-anchor="middle" x="514.42462177856" y="407.80575854341686">☽/♇</text><line stroke="#BBBBBB" stroke-width="0.5" x1="493.81981854719584" x2="499.154308965926" y1="399.7891674398182" y2="402.5356582867857" /><line stroke="#555555" stroke-dasharray="2,2" stroke-width="0.4" x1="499.154308965926" x2="507.3375784088279" y1="402.5356582867857" y2="420.8765013539155" /><text dominant-baseline="middle" fill="#BBBBBB" font-family="&quot;Symbola&quot;, &quot;Noto Sans Symbols&quot;, &quot;Apple Symbols&quot;, &quot;Segoe UI Symbol&quot;, serif" font-size="8px" text-anchor="middle" x="507.3375784088279" y="420.8765013539155">♂/♇</text><line stroke="#BBBBBB" stroke-width="0.5" x1="480.9657694571962" x2="485.9464787083117" y1="421.5540632178329" y2="424.8995878935531" /><text dominant-baseline="middle" fill="#BBBBBB" font-family="&quot;Symbola&quot;, &quot;Noto Sans Symbols&quot;, &quot;Apple Symbols&quot;, &quot;Segoe UI Symbol&quot;, serif" font-size="8px" text-anchor="middle" x="499.2283700446196" y="433.8209870288069">☽/♅</text><line stroke="#BBBBBB" stroke-width="0.5" x1="475.37815522490183" x2="480.2050769283395" y1="429.4855307357167" y2="433.0493526825713" /><line stroke="#555555" stroke-dasharray="2,2" stroke-width="0.4" x1="480.2050769283395" x2="487.9842272348975" y1="433.0493526825713" y2="449.20432403552655" /><text dominant-baseline="middle" fill="#BBBBBB" font-family="&quot;Symbola&quot;, &quot;Noto Sans Symbols&quot;, &quot;Apple Symbols&quot;, &quot;Segoe UI Symbol&quot;, serif" font-size="8px" text-anchor="middle" x="487.9842272348975" y="449.20432403552655">♂/♅</text><line stroke="#BBBBBB" stroke-width="0.5" x1="437.2655731873971" x2="441.0435247430135" y1="469.35808931827063" y2="474.0193211343698" /><line stroke="#555555" stroke-dasharray="2,2" stroke-width="0.4" x1="441.0435247430135" x2="475.5961150767896" y1="474.0193211343698" y2="463.6031918085307" /><text dominant-baseline="middle" fill="#BBBBBB" font-family="&quot;Symbola&quot;, &quot;Noto Sans Symbols&quot;, &quot;Apple Symbols&quot;, &quot;Segoe UI Symbol&quot;, serif" font-size="8px" text-anchor="middle" x="475.5961150767896" y="463.6031918085307">☽/☿</text><line stroke="#BBBBBB" stroke-width="0.5" x1="429.59425615396697" x2="433.16107054352574" y1="475.29782877120863" y2="480.1225396548199" /><line stroke="#555555" stroke-dasharray="2,2" stroke-width="0.4" x1="433.16107054352574" x2="462.06378486021515" y1="480.1225396548199" y2="477.0178794268587" /><text dominant-baseline="middle" fill="#BBBBBB" font-family="&quot;Symbola&quot;, &quot;Noto Sans Symbols&quot;, &quot;Apple Symbols&quot;, &quot;Segoe UI Symbol&quot;, serif" font-size="8px" text-anchor="middle" x="462.06378486021515" y="477.0178794268587">♂/☿</text><line stroke="#BBBBBB" stroke-width="0.5" x1="425.97361676766815" x2="429.4407805319159" y1="477.9175311161682" y2="482.814343899182" /><line stroke="#555555" stroke-dasharray="2,2" stroke-width="0.4" x1="429.4407805319159" x2="448.7476606540137" y1="482.814343899182" y2="488.34578160914134" /><text dominant-baseline="middle" fill="#BBBBBB" font-family="&quot;Symbola&quot;, &quot;Noto Sans Symbols&quot;, &quot;Apple Symbols&quot;, &quot;Segoe UI Symbol&quot;, serif" font-size="8px" text-anchor="middle" x="448.7476606540137" y="488.34578160914134">☽/♄</text><line stroke="#BBBBBB" stroke-width="0.5" x1="417.93264085494593" x2="421.1784933555408" y1="483.3463722602068" y2="488.39260268938676" /><line stroke="#555555" stroke-dasharray="2,2" stroke-width="0.4" x1="421.1784933555408" x2="433.337080238544" y1="488.39260268938676" y2="499.55255707071274" /><text dominant-baseline="middle" fill="#BBBBBB" font-family="&quot;Symbola&quot;, &quot;Noto Sans Symbols&quot;, &quot;Apple Symbols&quot;, &quot;Segoe UI Symbol&quot;, serif" font-size="8px" text-anchor="middle" x="433.337080238544" y="499.55255707071274">♄/♂</text><line stroke="#BBBBBB" stroke-width="0.5" x1="411.20254569027844" x2="414.2631662138641" y1="487.5046501610068" y2="492.66532860580514" /><line stroke="#555555" stroke-dasharray="2,2" stroke-width="0.4" x1="414.2631662138641" x2="418.80352474178824" y1="492.66532860580514" y2="508.53230567211233" /><text dominant-baseline="middle" fill="#BBBBBB" font-family="&quot;Symbola&quot;, &quot;Noto Sans Symbols&quot;, &quot;Apple Symbols&quot;, &quot;Segoe UI Symbol&quot;, serif" font-size="8px" text-anchor="middle" x="418.80352474178824" y="508.53230567211233">☽/♀</text><line stroke="#BBBBBB" stroke-width="0.5" x1="406.2855926874664" x2="409.2108842293233" y1="490.3348963986215" y2="495.5734715288588" /><line stroke="#555555" stroke-dasharray="2,2" stroke-width="0.4" x1="409.2108842293233" x2="402.109646006261" y1="495.5734715288588" y2="517.1948898857338" /><text dominant-baseline="middle" fill="#BBBBBB" font-family="&quot;Symbola&quot;, &quot;Noto Sans Symbols&quot;, &quot;Apple Symbols&quot;, &quot;Segoe UI Symbol&quot;, serif" font-size="8px" text-anchor="middle" x="402.109646006261" y="517.1948898857338">☉/☽</text><line stroke="#BBBBBB" stroke-width="0.5" x1="402.7496311740718" x2="405.5776026742756" y1="492.26677636448846" y2="497.5585225029606" /><line stroke="#555555" stroke-dasharray="2,2" stroke-width="0.4" x1="405.5776026742756" x2="386.4796240846521" y1="497.5585225029606" y2="523.877811804067" /><text dominant-baseline="middle" fill="#BBBBBB" font-family="&quot;Symbola&quot;, &quot;Noto Sans Symbols&quot;, &quot;Apple Symbols&quot;, &quot;Segoe UI Symbol&quot;, serif" font-size="8px" text-anchor="middle" x="386.4796240846521" y="523.877811804067">♂/♀</text><line stroke="#BBBBBB" stroke-width="0.5" x1="397.71161932474865" x2="400.4009299483656" y1="494.87544598777805" y2="500.23899037276277" /><line stroke="#555555" stroke-dasharray="2,2" stroke-width="0.4" x1="400.4009299483656" x2="368.68336976431044" y1="500.23899037276277" y2="529.9621593171777" /><text dominant-baseline="middle" fill="#BBBBBB" font-family="&quot;Symbola&quot;, &quot;Noto Sans Symbols&quot;, &quot;Apple Symbols&quot;, &quot;Segoe UI Symbol&quot;, serif" font-size="8px" text-anchor="middle" x="368.68336976431044" y="529.9621593171777">☉/♂</text><line stroke="#BBBBBB" stroke-width="0.5" x1="238.483994382698" x2="236.79089331066217" y1="509.1405772510253" y2="514.896739927659" /><text dominant-baseline="middle" fill="#BBBBBB" font-family="&quot;Symbola&quot;, &quot;Noto Sans Symbols&quot;, &quot;Apple Symbols&quot;, &quot;Segoe UI Symbol&quot;, serif" font-size="8px" text-anchor="middle" x="232.27595711856662" y="530.246507065349">☽/♂</text><line stroke="#BBBBBB" stroke-width="0.5" x1="82.14684780188077" x2="76.15088948450133" y1="291.9997451701151" y2="291.77955467021" /><line stroke="#555555" stroke-dasharray="2,2" stroke-width="0.4" x1="76.15088948450133" x2="60.13151291602247" y1="291.77955467021" y2="307.94411128092366" /><text dominant-baseline="middle" fill="#BBBBBB" font-family="&quot;Symbola&quot;, &quot;Noto Sans Symbols&quot;, &quot;Apple Symbols&quot;, &quot;Segoe UI Symbol&quot;, serif" font-size="8px" text-anchor="middle" x="60.13151291602247" y="307.94411128092366">♆/☽</text><line stroke="#BBBBBB" stroke-width="0.5" x1="82.71855737252488" x2="76.73833418094301" y1="282.3145627782844" y2="281.8278076253932" /><line stroke="#555555" stroke-dasharray="2,2" stroke-width="0.4" x1="76.73833418094301" x2="60.630273234884044" y1="281.8278076253932" y2="282.6180004489202" /><text dominant-baseline="middle" fill="#BBBBBB" font-family="&quot;Symbola&quot;, &quot;Noto Sans Symbols&quot;, &quot;Apple Symbols&quot;, &quot;Segoe UI Symbol&quot;, serif" font-size="8px" text-anchor="middle" x="60.630273234884044" y="282.6180004489202">♆/♂</text><line stroke="#BBBBBB" stroke-width="0.5" x1="86.16316642856842" x2="80.2777489908226" y1="257.5994267946308" y2="256.432438541272" /><line stroke="#555555" stroke-dasharray="2,2" stroke-width="0.4" x1="80.2777489908226" x2="63.80448746125808" y1="256.432438541272" y2="257.43616727125004" /><text dominant-baseline="middle" fill="#BBBBBB" font-family="&quot;Symbola&quot;, &quot;Noto Sans Symbols&quot;, &quot;Apple Symbols&quot;, &quot;Segoe UI Symbol&quot;, serif" font-size="8px" text-anchor="middle" x="63.80448746125808" y="257.43616727125004">♃/☽</text><line stroke="#BBBBBB" stroke-width="0.5" x1="88.261497914773" x2="82.43383271976674" y1="248.12701343951443" y2="246.6993165617029" /><line stroke="#555555" stroke-dasharray="2,2" stroke-width="0.4" x1="82.43383271976674" x2="69.60626856432236" y1="246.6993165617029" y2="232.77851150751826" /><text dominant-baseline="middle" fill="#BBBBBB" font-family="&quot;Symbola&quot;, &quot;Noto Sans Symbols&quot;, &quot;Apple Symbols&quot;, &quot;Segoe UI Symbol&quot;, serif" font-size="8px" text-anchor="middle" x="69.60626856432236" y="232.77851150751826">♃/♂</text><line stroke="#BBBBBB" stroke-width="0.5" x1="298.0143627882563" x2="297.9597122227954" y1="82.00904320393622" y2="76.00929209945741" /><text dominant-baseline="middle" fill="#BBBBBB" font-family="&quot;Symbola&quot;, &quot;Noto Sans Symbols&quot;, &quot;Apple Symbols&quot;, &quot;Segoe UI Symbol&quot;, serif" font-size="8px" text-anchor="middle" x="297.81397738156653" y="60.00995582084721">♃/♆</text><line stroke="#AAAAAA" stroke-width="2.0" x1="299.99999999999994" x2="300.0" y1="118.0" y2="482.0" /><polygon fill="#AAAAAA" points="299.99999999999994,118.0 295.77381738259294,127.0630778703665 304.22618261740695,127.0630778703665" /><polygon fill="#AAAAAA" points="300.0,482.0 304.226182617407,472.9369221296335 295.773817382593,472.9369221296335" /><circle cx="300" cy="300" fill="none" r="5.0" stroke="#AAAAAA" stroke-width="2.0" /></svg>