<?xml version="1.0" encoding="utf-8" ?>
<svg baseProfile="full" height="600px" version="1.1" viewBox="0 0 600 600" width="600px" xmlns="http://www.w3.org/2000/svg" xmlns:ev="http://www.w3.org/2001/xml-events" xmlns:xlink="http://www.w3.org/1999/xlink"><defs /><rect fill="#1A0F2E" height="600px" width="600px" x="0" y="0" /><circle cx="300" cy="300" fill="none" r="216.0" stroke="#7B5FAF" stroke-width="1" /><path d="M 300.0 180.0 A 120.0 120.0 0 0 1 403.92304845413264 360.0 L 341.56921938165306 324.0 A 48.0 48.0 0 0 0 300.0 252.0 Z" fill="#241540" stroke="none" /><path d="M 403.92304845413264 360.0 A 120.0 120.0 0 0 1 196.07695154586736 360.0 L 258.43078061834694 324.0 A 48.0 48.0 0 0 0 341.56921938165306 324.0 Z" fill="#1A0F2E" stroke="none" /><path d="M 196.07695154586736 360.0 A 120.0 120.0 0 0 1 300.0 180.0 L 300.0 252.0 A 48.0 48.0 0 0 0 258.43078061834694 324.0 Z" fill="#241540" stroke="none" /><line stroke="#7B5FAF" stroke-width="1.0" x1="300.0" x2="300.0" y1="252.0" y2="180.0" /><line stroke="#7B5FAF" stroke-width="1.0" x1="341.56921938165306" x2="403.92304845413264" y1="324.0" y2="360.0" /><line stroke="#7B5FAF" stroke-width="1.0" x1="258.43078061834694" x2="196.07695154586736" y1="324.0" y2="360.0" /><text dominant-baseline="middle" fill="#E8D4FF" font-family="&quot;Symbola&quot;, &quot;Noto Sans Symbols&quot;, &quot;Apple Symbols&quot;, &quot;Segoe UI Symbol&quot;, serif" font-size="14px" text-anchor="middle" x="354.1833528958018" y="243.89149557358522">♈</text><text dominant-baseline="middle" fill="#E8D4FF" font-family="&quot;Symbola&quot;, &quot;Noto Sans Symbols&quot;, &quot;Apple Symbols&quot;, &quot;Segoe UI Symbol&quot;, serif" font-size="14px" text-anchor="middle" x="375.68306664952775" y="281.1300921432259">♋</text><text dominant-baseline="middle" fill="#E8D4FF" font-family="&quot;Symbola&quot;, &quot;Noto Sans Symbols&quot;, &quot;Apple Symbols&quot;, &quot;Segoe UI Symbol&quot;, serif" font-size="14px" text-anchor="middle" x="362.51925334130976" y="235.2594179695214">♎</text><text dominant-baseline="middle" fill="#E8D4FF" font-family="&quot;Symbola&quot;, &quot;Noto Sans Symbols&quot;, &quot;Apple Symbols&quot;, &quot;Segoe UI Symbol&quot;, serif" font-size="14px" text-anchor="middle" x="387.32661536483965" y="278.2270293960299">♑</text><text dominant-baseline="middle" fill="#E8D4FF" font-family="&quot;Symbola&quot;, &quot;Noto Sans Symbols&quot;, &quot;Apple Symbols&quot;, &quot;Segoe UI Symbol&quot;, serif" font-size="14px" text-anchor="middle" x="321.4997137537259" y="374.97841228318885">♉</text><text dominant-baseline="middle" fill="#E8D4FF" font-family="&quot;Symbola&quot;, &quot;Noto Sans Symbols&quot;, &quot;Apple Symbols&quot;, &quot;Segoe UI Symbol&quot;, serif" font-size="14px" text-anchor="middle" x="278.5002862462741" y="374.97841228318885">♌</text><text dominant-baseline="middle" fill="#E8D4FF" font-family="&quot;Symbola&quot;, &quot;Noto Sans Symbols&quot;, &quot;Apple Symbols&quot;, &quot;Segoe UI Symbol&quot;, serif" font-size="14px" text-anchor="middle" x="324.80736202352995" y="386.51355263444873">♏</text><text dominant-baseline="middle" fill="#E8D4FF" font-family="&quot;Symbola&quot;, &quot;Noto Sans Symbols&quot;, &quot;Apple Symbols&quot;, &quot;Segoe UI Symbol&quot;, serif" font-size="14px" text-anchor="middle" x="275.1926379764701" y="386.51355263444873">♒</text><text dominant-baseline="middle" fill="#E8D4FF" font-family="&quot;Symbola&quot;, &quot;Noto Sans Symbols&quot;, &quot;Apple Symbols&quot;, &quot;Segoe UI Symbol&quot;, serif" font-size="14px" text-anchor="middle" x="224.31693335047225" y="281.1300921432259">♊</text><text dominant-baseline="middle" fill="#E8D4FF" font-family="&quot;Symbola&quot;, &quot;Noto Sans Symbols&quot;, &quot;Apple Symbols&quot;, &quot;Segoe UI Symbol&quot;, serif" font-size="14px" text-anchor="middle" x="245.8166471041982" y="243.89149557358522">♍</text><text dominant-baseline="middle" fill="#E8D4FF" font-family="&quot;Symbola&quot;, &quot;Noto Sans Symbols&quot;, &quot;Apple Symbols&quot;, &quot;Segoe UI Symbol&quot;, serif" font-size="14px" text-anchor="middle" x="212.67338463516032" y="278.22702939602993">♐</text><text dominant-baseline="middle" fill="#E8D4FF" font-family="&quot;Symbola&quot;, &quot;Noto Sans Symbols&quot;, &quot;Apple Symbols&quot;, &quot;Segoe UI Symbol&quot;, serif" font-size="14px" text-anchor="middle" x="237.48074665869024" y="235.2594179695214">♓</text><line stroke="#7B5FAF" stroke-width="0.5" x1="299.99999999999994" x2="299.99999999999994" y1="100.80000000000001" y2="84.0" /><line stroke="#7B5FAF" stroke-width="0.5" x1="314.56515171777335" x2="315.06739832873103" y1="91.70862630574868" y2="84.52616514387796" /><line stroke="#7B5FAF" stroke-width="0.5" x1="329.0593434804617" x2="330.06138980737416" y1="93.23202724676008" y2="86.1020971518208" /><line stroke="#7B5FAF" stroke-width="0.5" x1="343.4119610427482" x2="344.908925216636" y1="95.76278096678138" y2="88.720118241498" /><line stroke="#7B5FAF" stroke-width="0.5" x1="357.5530798945895" x2="359.5376688564719" y1="99.28855788807903" y2="92.36747367732315" /><line stroke="#7B5FAF" stroke-width="0.5" x1="369.7721092384365" x2="373.8763509583445" y1="108.30270535967469" y2="97.0263939102438" /><line stroke="#7B5FAF" stroke-width="0.5" x1="384.926611074227" x2="387.8551149043727" y1="109.25170844422487" y2="102.67418114919818" /><line stroke="#7B5FAF" stroke-width="0.5" x1="398.0256623096939" x2="401.4058575617523" y1="115.64054261105602" y2="109.28331994247173" /><line stroke="#7B5FAF" stroke-width="0.5" x1="410.64714237189315" x2="414.4625610743722" y1="122.9275575225382" y2="116.82161123021194" /><line stroke="#7B5FAF" stroke-width="0.5" x1="422.72956067866835" x2="426.96161449517416" y1="131.07725157451094" y2="125.25232921501132" /><line stroke="#7B5FAF" stroke-width="0.5" x1="428.0432918495586" x2="438.8421236922925" y1="147.40394693069956" y2="134.53440028630072" /><line stroke="#7B5FAF" stroke-width="0.5" x1="445.04466775183863" x2="450.0462080191434" y1="149.8018496892896" y2="144.62260312685135" /><line stroke="#7B5FAF" stroke-width="0.5" x1="455.16863955967995" x2="460.51928230311717" y1="160.2855293922704" y2="155.46778902648666" /><line stroke="#7B5FAF" stroke-width="0.5" x1="464.5366453530836" x2="470.210322779052" y1="171.44988395200255" y2="167.01712132965784" /><line stroke="#7B5FAF" stroke-width="0.5" x1="473.10304514949274" x2="479.07211567188904" y1="183.24052175530812" y2="179.21433285031873" /><line stroke="#7B5FAF" stroke-width="0.5" x1="476.66918237202543" x2="487.0614872174387" y1="197.99999999999991" y2="191.9999999999999" /><line stroke="#7B5FAF" stroke-width="0.5" x1="487.66819686726603" x2="494.13951400062" y1="208.46810455044056" y2="205.31183229355918" /><line stroke="#7B5FAF" stroke-width="0.5" x1="493.5959888335452" x2="500.271712586426" y1="221.7821432947575" y2="219.08497582216293" /><line stroke="#7B5FAF" stroke-width="0.5" x1="498.58060060242804" x2="505.4282075197532" y1="235.47725157451092" y2="233.2523292150113" /><line stroke="#7B5FAF" stroke-width="0.5" x1="502.59774764642805" x2="509.58387687561526" y1="249.48670819878936" y2="247.74487055047175" /><line stroke="#7B5FAF" stroke-width="0.5" x1="496.17370440003185" x2="512.718474650637" y1="265.4092830087475" y2="262.491993623943" /><line stroke="#7B5FAF" stroke-width="0.5" x1="507.6561717528955" x2="514.8167293995471" y1="278.17445686971394" y2="277.42185193418686" /><line stroke="#7B5FAF" stroke-width="0.5" x1="508.6728046815872" x2="515.8684186361247" y1="292.7129850885178" y2="292.46170871225985" /><line stroke="#7B5FAF" stroke-width="0.5" x1="508.6728046815872" x2="515.8684186361247" y1="307.2870149114822" y2="307.5382912877402" /><line stroke="#7B5FAF" stroke-width="0.5" x1="507.6561717528955" x2="514.8167293995471" y1="321.82554313028606" y2="322.57814806581314" /><line stroke="#7B5FAF" stroke-width="0.5" x1="500.9007816144904" x2="512.718474650637" y1="335.4242282440538" y2="337.508006376057" /><line stroke="#7B5FAF" stroke-width="0.5" x1="502.59774764642805" x2="509.58387687561526" y1="350.51329180121064" y2="352.2551294495282" /><line stroke="#7B5FAF" stroke-width="0.5" x1="498.58060060242804" x2="505.4282075197532" y1="364.522748425489" y2="366.74767078498866" /><line stroke="#7B5FAF" stroke-width="0.5" x1="493.5959888335452" x2="500.2717125864261" y1="378.2178567052424" y2="380.915024177837" /><line stroke="#7B5FAF" stroke-width="0.5" x1="487.6681968672661" x2="494.13951400062007" y1="391.5318954495594" y2="394.6881677064407" /><line stroke="#7B5FAF" stroke-width="0.5" x1="472.5122604338602" x2="487.06148721743875" y1="399.59999999999997" y2="408.0" /><line stroke="#7B5FAF" stroke-width="0.5" x1="473.1030451494927" x2="479.07211567188904" y1="416.759478244692" y2="420.78566714968133" /><line stroke="#7B5FAF" stroke-width="0.5" x1="464.53664535308354" x2="470.2103227790519" y1="428.55011604799745" y2="432.9828786703422" /><line stroke="#7B5FAF" stroke-width="0.5" x1="455.16863955967995" x2="460.51928230311717" y1="439.7144706077296" y2="444.5322109735134" /><line stroke="#7B5FAF" stroke-width="0.5" x1="445.04466775183863" x2="450.0462080191434" y1="450.1981503107104" y2="455.37739687314865" /><line stroke="#7B5FAF" stroke-width="0.5" x1="431.12867237605406" x2="438.8421236922925" y1="456.2730663962715" y2="465.46559971369925" /><line stroke="#7B5FAF" stroke-width="0.5" x1="422.7295606786684" x2="426.9616144951742" y1="468.92274842548903" y2="474.74767078498866" /><line stroke="#7B5FAF" stroke-width="0.5" x1="410.6471423718932" x2="414.4625610743723" y1="477.0724424774618" y2="483.178388769788" /><line stroke="#7B5FAF" stroke-width="0.5" x1="398.025662309694" x2="401.40585756175244" y1="484.35945738894395" y2="490.7166800575282" /><line stroke="#7B5FAF" stroke-width="0.5" x1="384.9266110742271" x2="387.85511490437284" y1="490.74829155577504" y2="497.3258188508018" /><line stroke="#7B5FAF" stroke-width="0.5" x1="368.13041255047324" x2="373.87635095834446" y1="487.18677006055293" y2="502.97360608975623" /><line stroke="#7B5FAF" stroke-width="0.5" x1="357.5530798945894" x2="359.53766885647184" y1="500.711442111921" y2="507.6325263226769" /><line stroke="#7B5FAF" stroke-width="0.5" x1="343.4119610427482" x2="344.908925216636" y1="504.2372190332186" y2="511.27988175850203" /><line stroke="#7B5FAF" stroke-width="0.5" x1="329.0593434804617" x2="330.06138980737416" y1="506.7679727532399" y2="513.8979028481792" /><line stroke="#7B5FAF" stroke-width="0.5" x1="314.56515171777335" x2="315.06739832873103" y1="508.2913736942513" y2="515.473834856122" /><line stroke="#7B5FAF" stroke-width="0.5" x1="300.0" x2="300.0" y1="504.0" y2="516.0" /><line stroke="#7B5FAF" stroke-width="0.5" x1="285.43484828222665" x2="284.9326016712689" y1="508.2913736942513" y2="515.473834856122" /><line stroke="#7B5FAF" stroke-width="0.5" x1="270.9406565195384" x2="269.9386101926259" y1="506.7679727532399" y2="513.8979028481792" /><line stroke="#7B5FAF" stroke-width="0.5" x1="256.58803895725185" x2="255.09107478336398" y1="504.23721903321865" y2="511.27988175850203" /><line stroke="#7B5FAF" stroke-width="0.5" x1="242.44692010541058" x2="240.46233114352822" y1="500.711442111921" y2="507.6325263226769" /><line stroke="#7B5FAF" stroke-width="0.5" x1="231.8695874495268" x2="226.12364904165554" y1="487.18677006055293" y2="502.97360608975623" /><line stroke="#7B5FAF" stroke-width="0.5" x1="215.07338892577292" x2="212.14488509562716" y1="490.74829155577504" y2="497.3258188508018" /><line stroke="#7B5FAF" stroke-width="0.5" x1="201.97433769030596" x2="198.59414243824756" y1="484.35945738894395" y2="490.7166800575282" /><line stroke="#7B5FAF" stroke-width="0.5" x1="189.35285762810685" x2="185.53743892562778" y1="477.0724424774618" y2="483.17838876978806" /><line stroke="#7B5FAF" stroke-width="0.5" x1="177.27043932133162" x2="173.03838550482584" y1="468.92274842548903" y2="474.74767078498866" /><line stroke="#7B5FAF" stroke-width="0.5" x1="168.87132762394597" x2="161.1578763077075" y1="456.2730663962715" y2="465.46559971369925" /><line stroke="#7B5FAF" stroke-width="0.5" x1="154.95533224816134" x2="149.95379198085658" y1="450.1981503107104" y2="455.37739687314865" /><line stroke="#7B5FAF" stroke-width="0.5" x1="144.8313604403201" x2="139.4807176968829" y1="439.71447060772965" y2="444.53221097351343" /><line stroke="#7B5FAF" stroke-width="0.5" x1="135.46335464691646" x2="129.78967722094808" y1="428.55011604799745" y2="432.9828786703422" /><line stroke="#7B5FAF" stroke-width="0.5" x1="126.89695485050731" x2="120.92788432811102" y1="416.759478244692" y2="420.78566714968133" /><line stroke="#7B5FAF" stroke-width="0.5" x1="127.48773956613982" x2="112.93851278256125" y1="399.59999999999997" y2="408.0" /><line stroke="#7B5FAF" stroke-width="0.5" x1="112.33180313273391" x2="105.86048599937993" y1="391.53189544955933" y2="394.6881677064407" /><line stroke="#7B5FAF" stroke-width="0.5" x1="106.40401116645481" x2="99.72828741357395" y1="378.21785670524247" y2="380.91502417783704" /><line stroke="#7B5FAF" stroke-width="0.5" x1="101.41939939757194" x2="94.57179248024684" y1="364.52274842548906" y2="366.74767078498866" /><line stroke="#7B5FAF" stroke-width="0.5" x1="97.40225235357192" x2="90.41612312438477" y1="350.51329180121064" y2="352.2551294495282" /><line stroke="#7B5FAF" stroke-width="0.5" x1="99.09921838550957" x2="87.28152534936308" y1="335.4242282440538" y2="337.5080063760569" /><line stroke="#7B5FAF" stroke-width="0.5" x1="92.34382824710454" x2="85.18327060045297" y1="321.8255431302861" y2="322.5781480658132" /><line stroke="#7B5FAF" stroke-width="0.5" x1="91.3271953184128" x2="84.13158136387531" y1="307.28701491148223" y2="307.53829128774026" /><line stroke="#7B5FAF" stroke-width="0.5" x1="91.3271953184128" x2="84.13158136387531" y1="292.7129850885178" y2="292.4617087122598" /><line stroke="#7B5FAF" stroke-width="0.5" x1="92.34382824710454" x2="85.18327060045297" y1="278.17445686971394" y2="277.42185193418686" /><line stroke="#7B5FAF" stroke-width="0.5" x1="103.82629559996818" x2="87.28152534936308" y1="265.4092830087475" y2="262.491993623943" /><line stroke="#7B5FAF" stroke-width="0.5" x1="97.40225235357192" x2="90.41612312438477" y1="249.48670819878942" y2="247.74487055047183" /><line stroke="#7B5FAF" stroke-width="0.5" x1="101.41939939757191" x2="94.57179248024681" y1="235.477251574511" y2="233.2523292150114" /><line stroke="#7B5FAF" stroke-width="0.5" x1="106.40401116645478" x2="99.72828741357392" y1="221.78214329475756" y2="219.08497582216302" /><line stroke="#7B5FAF" stroke-width="0.5" x1="112.33180313273394" x2="105.86048599937993" y1="208.46810455044061" y2="205.31183229355926" /><line stroke="#7B5FAF" stroke-width="0.5" x1="123.33081762797454" x2="112.93851278256128" y1="197.99999999999997" y2="191.99999999999997" /><line stroke="#7B5FAF" stroke-width="0.5" x1="126.89695485050726" x2="120.92788432811096" y1="183.24052175530807" y2="179.21433285031873" /><line stroke="#7B5FAF" stroke-width="0.5" x1="135.46335464691643" x2="129.78967722094805" y1="171.44988395200255" y2="167.01712132965784" /><line stroke="#7B5FAF" stroke-width="0.5" x1="144.83136044032008" x2="139.48071769688283" y1="160.2855293922704" y2="155.46778902648663" /><line stroke="#7B5FAF" stroke-width="0.5" x1="154.95533224816137" x2="149.95379198085658" y1="149.8018496892896" y2="144.62260312685135" /><line stroke="#7B5FAF" stroke-width="0.5" x1="171.95670815044136" x2="161.15787630770748" y1="147.40394693069962" y2="134.53440028630078" /><line stroke="#7B5FAF" stroke-width="0.5" x1="177.2704393213316" x2="173.03838550482578" y1="131.077251574511" y2="125.25232921501137" /><line stroke="#7B5FAF" stroke-width="0.5" x1="189.3528576281068" x2="185.53743892562773" y1="122.92755752253825" y2="116.821611230212" /><line stroke="#7B5FAF" stroke-width="0.5" x1="201.97433769030602" x2="198.59414243824762" y1="115.64054261105605" y2="109.28331994247176" /><line stroke="#7B5FAF" stroke-width="0.5" x1="215.07338892577292" x2="212.14488509562716" y1="109.2517084442249" y2="102.67418114919818" /><line stroke="#7B5FAF" stroke-width="0.5" x1="230.22789076156363" x2="226.1236490416556" y1="108.30270535967469" y2="97.02639391024377" /><line stroke="#7B5FAF" stroke-width="0.5" x1="242.44692010541064" x2="240.46233114352825" y1="99.28855788807897" y2="92.36747367732309" /><line stroke="#7B5FAF" stroke-width="0.5" x1="256.58803895725174" x2="255.0910747833639" y1="95.76278096678138" y2="88.720118241498" /><line stroke="#7B5FAF" stroke-width="0.5" x1="270.94065651953827" x2="269.9386101926258" y1="93.23202724676011" y2="86.10209715182083" /><line stroke="#7B5FAF" stroke-width="0.5" x1="285.4348482822266" x2="284.93260167126886" y1="91.70862630574871" y2="84.52616514387796" /><text dominant-baseline="middle" fill="#E8D4FF" font-family="&quot;Arial&quot;, &quot;Helvetica&quot;, sans-serif" font-size="8px" text-anchor="middle" x="299.99999999999994" y="116.0">0</text><text dominant-baseline="middle" fill="#E8D4FF" font-family="&quot;Arial&quot;, &quot;Helvetica&quot;, sans-serif" font-size="8px" text-anchor="middle" x="362.9317063719231" y="127.09655777539288">5</text><text dominant-baseline="middle" fill="#E8D4FF" font-family="&quot;Arial&quot;, &quot;Helvetica&quot;, sans-serif" font-size="8px" text-anchor="middle" x="418.2729201823232" y="159.04782246610802">10</text><text dominant-baseline="middle" fill="#E8D4FF" font-family="&quot;Arial&quot;, &quot;Helvetica&quot;, sans-serif" font-size="8px" text-anchor="middle" x="459.34867429633664" y="207.99999999999991">15</text><text dominant-baseline="middle" fill="#E8D4FF" font-family="&quot;Arial&quot;, &quot;Helvetica&quot;, sans-serif" font-size="8px" text-anchor="middle" x="481.20462655424626" y="268.0487353092848">20</text><text dominant-baseline="middle" fill="#E8D4FF" font-family="&quot;Arial&quot;, &quot;Helvetica&quot;, sans-serif" font-size="8px" text-anchor="middle" x="481.20462655424626" y="331.95126469071516">25</text><text dominant-baseline="middle" fill="#E8D4FF" font-family="&quot;Arial&quot;, &quot;Helvetica&quot;, sans-serif" font-size="8px" text-anchor="middle" x="459.34867429633675" y="392.0">30</text><text dominant-baseline="middle" fill="#E8D4FF" font-family="&quot;Arial&quot;, &quot;Helvetica&quot;, sans-serif" font-size="8px" text-anchor="middle" x="418.2729201823232" y="440.9521775338919">35</text><text dominant-baseline="middle" fill="#E8D4FF" font-family="&quot;Arial&quot;, &quot;Helvetica&quot;, sans-serif" font-size="8px" text-anchor="middle" x="362.93170637192304" y="472.90344222460715">40</text><text dominant-baseline="middle" fill="#E8D4FF" font-family="&quot;Arial&quot;, &quot;Helvetica&quot;, sans-serif" font-size="8px" text-anchor="middle" x="300.0" y="484.0">45</text><text dominant-baseline="middle" fill="#E8D4FF" font-family="&quot;Arial&quot;, &quot;Helvetica&quot;, sans-serif" font-size="8px" text-anchor="middle" x="237.06829362807696" y="472.90344222460715">50</text><text dominant-baseline="middle" fill="#E8D4FF" font-family="&quot;Arial&quot;, &quot;Helvetica&quot;, sans-serif" font-size="8px" text-anchor="middle" x="181.72707981767675" y="440.9521775338919">55</text><text dominant-baseline="middle" fill="#E8D4FF" font-family="&quot;Arial&quot;, &quot;Helvetica&quot;, sans-serif" font-size="8px" text-anchor="middle" x="140.65132570366328" y="392.0">60</text><text dominant-baseline="middle" fill="#E8D4FF" font-family="&quot;Arial&quot;, &quot;Helvetica&quot;, sans-serif" font-size="8px" text-anchor="middle" x="118.79537344575371" y="331.95126469071516">65</text><text dominant-baseline="middle" fill="#E8D4FF" font-family="&quot;Arial&quot;, &quot;Helvetica&quot;, sans-serif" font-size="8px" text-anchor="middle" x="118.79537344575371" y="268.0487353092848">70</text><text dominant-baseline="middle" fill="#E8D4FF" font-family="&quot;Arial&quot;, &quot;Helvetica&quot;, sans-serif" font-size="8px" text-anchor="middle" x="140.6513257036633" y="208.0">75</text><text dominant-baseline="middle" fill="#E8D4FF" font-family="&quot;Arial&quot;, &quot;Helvetica&quot;, sans-serif" font-size="8px" text-anchor="middle" x="181.72707981767672" y="159.04782246610807">80</text><text dominant-baseline="middle" fill="#E8D4FF" font-family="&quot;Arial&quot;, &quot;Helvetica&quot;, sans-serif" font-size="8px" text-anchor="middle" x="237.068293628077" y="127.09655777539285">85</text><line stroke="#FFD700" stroke-width="2.0" x1="299.99999999999994" x2="299.99999999999994" y1="113.0" y2="69.0" /><polygon fill="#FFD700" points="299.99999999999994,113.0 303.38094609392556,105.7495377037068 296.6190539060743,105.7495377037068" /><line stroke="#FFD700" stroke-width="4.0" x1="299.99999999999994" x2="299.99999999999994" y1="87.0" y2="81.0" /><line stroke="#FFD700" stroke-width="2.0" x1="487.0" x2="531.0" y1="300.0" y2="300.0" /><polygon fill="#FFD700" points="487.0,300.0 494.2504622962932,303.3809460939256 494.2504622962932,296.6190539060744" /><line stroke="#FFD700" stroke-width="4.0" x1="513.0" x2="519.0" y1="300.0" y2="300.0" /><line stroke="#FFD700" stroke-width="2.0" x1="300.0" x2="300.0" y1="487.0" y2="531.0" /><polygon fill="#FFD700" points="300.0,487.0 296.6190539060744,494.2504622962932 303.3809460939256,494.2504622962932" /><line stroke="#FFD700" stroke-width="4.0" x1="300.0" x2="300.0" y1="513.0" y2="519.0" /><line stroke="#FFD700" stroke-width="2.0" x1="113.0" x2="69.0" y1="300.0" y2="300.0" /><polygon fill="#FFD700" points="113.0,300.0 105.7495377037068,296.6190539060744 105.7495377037068,303.3809460939256" /><line stroke="#FFD700" stroke-width="4.0" x1="87.0" x2="81.0" y1="300.0" y2="300.0" /><line stroke="#E8D4FF" stroke-width="1.0" x1="299.99999999999994" x2="299.99999999999994" y1="116.0" y2="108.0" /><line stroke="#7B5FAF" stroke-dasharray="2,2" stroke-width="0.5" x1="299.99999999999994" x2="265.4384343713644" y1="116.0" y2="147.87670072833185" /><text dominant-baseline="middle" fill="#FFD700" font-family="&quot;Symbola&quot;, &quot;Noto Sans Symbols&quot;, &quot;Apple Symbols&quot;, &quot;Segoe UI Symbol&quot;, serif" font-size="18px" text-anchor="middle" x="265.4384343713644" y="147.87670072833185">♈</text><line stroke="#E8D4FF" stroke-width="1.0" x1="340.06225327643136" x2="341.80409037540664" y1="120.41432166674576" y2="112.6062486957347" /><line stroke="#7B5FAF" stroke-dasharray="2,2" stroke-width="0.5" x1="340.06225327643136" x2="303.7453278372066" y1="120.41432166674576" y2="144.04496635442686" /><text dominant-baseline="middle" fill="#FFD700" font-family="&quot;Symbola&quot;, &quot;Noto Sans Symbols&quot;, &quot;Apple Symbols&quot;, &quot;Segoe UI Symbol&quot;, serif" font-size="18px" text-anchor="middle" x="303.7453278372066" y="144.04496635442686">☿</text><line stroke="#E8D4FF" stroke-width="1.0" x1="341.508151719698" x2="343.3128539683805" y1="120.74299639675291" y2="112.94921363139434" /><line stroke="#7B5FAF" stroke-dasharray="2,2" stroke-width="0.5" x1="341.508151719698" x2="343.6205050290283" y1="120.74299639675291" y2="150.22266012172432" /><svg height="18.0" viewBox="0.7 0.7 10.6 10.6" width="18.0" x="334.6205050290283" y="141.22266012172432"><defs /><path d="M3.5 4.75h5M6 11V1m3.536 1.464A4.984 4.984 0 0 0 6 1c-1.38 0-2.63.56-3.536 1.464" fill="none" stroke="#FFD700" stroke-linecap="round" stroke-linejoin="round" stroke-width="0.53" /></svg><line stroke="#E8D4FF" stroke-width="1.0" x1="353.05678723740255" x2="355.36360407381136" y1="123.81550202119087" y2="116.15530645689483" /><line stroke="#7B5FAF" stroke-dasharray="2,2" stroke-width="0.5" x1="353.05678723740255" x2="382.57346526179623" y1="123.81550202119087" y2="167.64584315308062" /><text dominant-baseline="middle" fill="#FFD700" font-family="&quot;Symbola&quot;, &quot;Noto Sans Symbols&quot;, &quot;Apple Symbols&quot;, &quot;Segoe UI Symbol&quot;, serif" font-size="18px" text-anchor="middle" x="382.57346526179623" y="167.64584315308062">♄</text><line stroke="#E8D4FF" stroke-width="1.0" x1="470.5297390918497" x2="477.944075574104" y1="230.89422538408473" y2="227.8896264877406" /><text dominant-baseline="middle" fill="#FFD700" font-family="&quot;Symbola&quot;, &quot;Noto Sans Symbols&quot;, &quot;Apple Symbols&quot;, &quot;Segoe UI Symbol&quot;, serif" font-size="18px" text-anchor="middle" x="444.5795614039595" y="241.41032152128923">♀</text><line stroke="#E8D4FF" stroke-width="1.0" x1="475.3317007445714" x2="482.9548181682484" y1="355.8103459406594" y2="358.2368827206881" /><text dominant-baseline="middle" fill="#FFD700" font-family="&quot;Symbola&quot;, &quot;Noto Sans Symbols&quot;, &quot;Apple Symbols&quot;, &quot;Segoe UI Symbol&quot;, serif" font-size="18px" text-anchor="middle" x="448.65078976170184" y="347.3174672105591">♂</text><line stroke="#E8D4FF" stroke-width="1.0" x1="423.5555913080068" x2="428.9275735387897" y1="436.3452084105957" y2="442.27326095018685" /><line stroke="#7B5FAF" stroke-dasharray="2,2" stroke-width="0.5" x1="423.5555913080068" x2="406.3574290371579" y1="436.3452084105957" y2="414.12316718618496" /><svg height="18.0" viewBox="0.7 0.7 10.6 10.6" width="18.0" x="397.3574290371579" y="405.12316718618496"><defs /><path d="M5.835 5.999c.362.362.862.585 1.415.585S8.303 6.361 8.665 6m-2.83 5a1.994 1.994 0 0 1 1.415-.585c.553 0 1.053.223 1.415.585m-2.226-.426V6.42m1.622 4.155V6.42M2.25 1a4.33 4.33 0 0 1 0 7.5h7.5" fill="none" stroke="#FFD700" stroke-linecap="round" stroke-linejoin="round" stroke-width="0.53" /></svg><line stroke="#E8D4FF" stroke-width="1.0" x1="387.83244002401653" x2="391.6512417641911" y1="461.6832164432275" y2="468.7129215059765" /><line stroke="#7B5FAF" stroke-dasharray="2,2" stroke-width="0.5" x1="387.83244002401653" x2="372.5454500330553" y1="461.6832164432275" y2="438.10560336026003" /><text dominant-baseline="middle" fill="#FFD700" font-family="&quot;Symbola&quot;, &quot;Noto Sans Symbols&quot;, &quot;Apple Symbols&quot;, &quot;Segoe UI Symbol&quot;, serif" font-size="18px" text-anchor="middle" x="372.5454500330553" y="438.10560336026003">♆</text><line stroke="#E8D4FF" stroke-width="1.0" x1="312.68586967083115" x2="313.2374292217369" y1="483.5621657932121" y2="491.54312952335175" /><line stroke="#7B5FAF" stroke-dasharray="2,2" stroke-width="0.5" x1="312.68586967083115" x2="317.2630343546228" y1="483.5621657932121" y2="455.04188996807" /><svg height="18.0" viewBox="0.7 0.7 10.6 10.6" width="18.0" x="308.2630343546228" y="446.04188996807"><defs /><path d="M3.5 3.5 6 1l2.5 2.5M6 1v5.67L8.5 11h-5L6 6.67" fill="none" stroke="#FFD700" stroke-linecap="round" stroke-linejoin="round" stroke-width="0.53" /></svg><line stroke="#E8D4FF" stroke-width="1.0" x1="276.66859579818066" x2="275.65418691984064" y1="482.51478180676577" y2="490.45020710271217" /><line stroke="#7B5FAF" stroke-dasharray="2,2" stroke-width="0.5" x1="276.66859579818066" x2="275.9061226507701" y1="482.51478180676577" y2="454.1281449777433" /><svg height="18.0" viewBox="0.114 0.7 10.6 10.6" width="18.0" x="266.9061226507701" y="445.1281449777433"><defs /><path d="M8.828 2.172A3.988 3.988 0 0 0 6 1C3.793 1 2 2.793 2 5s1.793 4 4 4a3.988 3.988 0 0 0 2.828-1.172M6 11V3.5M4.5 5h3" fill="none" stroke="#FFD700" stroke-linecap="round" stroke-linejoin="round" stroke-width="0.53" /></svg><line stroke="#E8D4FF" stroke-width="1.0" x1="184.448755730762" x2="179.42478858862125" y1="443.1918641118653" y2="449.4175973341203" /><line stroke="#7B5FAF" stroke-dasharray="2,2" stroke-width="0.5" x1="184.448755730762" x2="212.53486666558737" y1="443.1918641118653" y2="429.1737219824273" /><text dominant-baseline="middle" fill="#FFD700" font-family="&quot;Symbola&quot;, &quot;Noto Sans Symbols&quot;, &quot;Apple Symbols&quot;, &quot;Segoe UI Symbol&quot;, serif" font-size="18px" text-anchor="middle" x="212.53486666558737" y="429.1737219824273">♇</text><line stroke="#E8D4FF" stroke-width="1.0" x1="159.1791772458008" x2="153.0565327782269" y1="418.42928640682766" y2="423.5783858158202" /><line stroke="#7B5FAF" stroke-dasharray="2,2" stroke-width="0.5" x1="159.1791772458008" x2="182.0219774569793" y1="418.42928640682766" y2="402.0646177518855" /><text dominant-baseline="middle" fill="#FFD700" font-family="&quot;Symbola&quot;, &quot;Noto Sans Symbols&quot;, &quot;Apple Symbols&quot;, &quot;Segoe UI Symbol&quot;, serif" font-size="18px" text-anchor="middle" x="182.0219774569793" y="402.0646177518855">♃</text><line stroke="#E8D4FF" stroke-width="1.0" x1="133.0306022853887" x2="125.77106325431865" y1="377.31248428824387" y2="380.6738966486023" /><line stroke="#7B5FAF" stroke-dasharray="2,2" stroke-width="0.5" x1="133.0306022853887" x2="160.32437616300996" y1="377.31248428824387" y2="369.47460043604184" /><text dominant-baseline="middle" fill="#FFD700" font-family="&quot;Symbola&quot;, &quot;Noto Sans Symbols&quot;, &quot;Apple Symbols&quot;, &quot;Segoe UI Symbol&quot;, serif" font-size="18px" text-anchor="middle" x="160.32437616300996" y="369.47460043604184">♅</text><line stroke="#E8D4FF" stroke-width="1.0" x1="118.29045358308119" x2="110.39003852147601" y1="328.9420237882154" y2="330.20037264857257" /><line stroke="#7B5FAF" stroke-dasharray="2,2" stroke-width="0.5" x1="118.29045358308119" x2="147.10457795388476" y1="328.9420237882154" y2="330.9675623409447" /><svg height="18.0" viewBox="0.7 0.7 10.6 10.6" width="18.0" x="138.10457795388476" y="321.9675623409447"><defs /><path d="M2.113 11A5.776 5.776 0 0 0 5 6a5.776 5.776 0 0 0-2.887-5m7.773 10A5.776 5.776 0 0 1 7 6a5.776 5.776 0 0 1 2.886-5M1 6h10" fill="none" stroke="#FFD700" stroke-linecap="round" stroke-linejoin="round" stroke-width="0.53" /></svg><line stroke="#E8D4FF" stroke-width="1.0" x1="117.58175669513159" x2="109.65052872535472" y1="275.9254385384524" y2="274.8787184749068" /><line stroke="#7B5FAF" stroke-dasharray="2,2" stroke-width="0.5" x1="117.58175669513159" x2="144.29399374495148" y1="275.9254385384524" y2="290.42714169629636" /><svg height="18.0" viewBox="0.7 0.7 10.6 10.6" width="18.0" x="135.29399374495148" y="281.42714169629636"><defs /><path d="M6 11V3M4 5h4m0 0a1.999 1.999 0 1 0-4 0 1.999 1.999 0 1 0 4 0ZM4 1a1.999 1.999 0 1 0 4 0" fill="none" stroke="#FFD700" stroke-linecap="round" stroke-linejoin="round" stroke-width="0.53" /></svg><line stroke="#E8D4FF" stroke-width="1.0" x1="137.69607023634597" x2="130.63937763792623" y1="213.31993087638395" y2="209.55123221883542" /><line stroke="#7B5FAF" stroke-dasharray="2,2" stroke-width="0.5" x1="137.69607023634597" x2="152.06574426963564" y1="213.31993087638395" y2="250.48781986719675" /><text dominant-baseline="middle" fill="#FFD700" font-family="&quot;Symbola&quot;, &quot;Noto Sans Symbols&quot;, &quot;Apple Symbols&quot;, &quot;Segoe UI Symbol&quot;, serif" font-size="18px" text-anchor="middle" x="152.06574426963564" y="250.48781986719675">☽</text><line stroke="#E8D4FF" stroke-width="1.0" x1="141.94456332229623" x2="135.07258781457" y1="205.79554715078285" y2="201.69970137472993" /><line stroke="#7B5FAF" stroke-dasharray="2,2" stroke-width="0.5" x1="141.94456332229623" x2="169.45858773503608" y1="205.79554715078285" y2="214.58958094079665" /><svg height="18.0" viewBox="0.7 0.7 10.6 10.6" width="18.0" x="160.45858773503608" y="205.58958094079665"><defs /><path d="M6 10h2.5m0-5.25a1.25 1.25 0 1 0-2.5 0C6 5.442 6.559 6 7.25 6S8.5 5.442 8.5 4.75zM2.25 1a4.33 4.33 0 0 1 0 7.5h7.5M7.25 6v5" fill="none" stroke="#FFD700" stroke-linecap="round" stroke-linejoin="round" stroke-width="0.53" /></svg><line stroke="#E8D4FF" stroke-width="1.0" x1="219.4294336318306" x2="215.9263655288667" y1="134.57816397128096" y2="127.38591023090186" /><line stroke="#7B5FAF" stroke-dasharray="2,2" stroke-width="0.5" x1="219.4294336318306" x2="195.67852971439447" y1="134.57816397128096" y2="184.01279882051847" /><text dominant-baseline="middle" fill="#FFD700" font-family="&quot;Symbola&quot;, &quot;Noto Sans Symbols&quot;, &quot;Apple Symbols&quot;, &quot;Segoe UI Symbol&quot;, serif" font-size="18px" text-anchor="middle" x="195.67852971439447" y="184.01279882051847">☉</text><line stroke="#E8D4FF" stroke-width="1.0" x1="256.22332182196703" x2="254.3199879881395" y1="121.28345782301815" y2="113.51317338054068" /><line stroke="#7B5FAF" stroke-dasharray="2,2" stroke-width="0.5" x1="256.22332182196703" x2="226.36939887754147" y1="121.28345782301815" y2="162.4698775600581" /><svg height="18.0" viewBox="0.7 0.7 10.6 10.6" width="18.0" x="217.36939887754147" y="153.4698775600581"><defs /><path d="m3.5 7 5 4m-5 0 5-4m-5-3.5L6 1l2.5 2.5M6 9V1" fill="none" stroke="#FFD700" stroke-linecap="round" stroke-linejoin="round" stroke-width="0.53" /></svg><circle cx="300" cy="300" fill="none" r="250.0" stroke="#7B5FAF" stroke-width="0.5" /><circle cx="300" cy="300" fill="none" r="230.0" stroke="#7B5FAF" stroke-width="0.5" /><line stroke="#E8D4FF" stroke-width="0.8" x1="426.6514837590923" x2="429.9844175422263" y1="110.41254877597939" y2="105.4234053227157" /><text dominant-baseline="middle" fill="#E8D4FF" font-family="&quot;Symbola&quot;, &quot;Noto Sans Symbols&quot;, &quot;Apple Symbols&quot;, &quot;Segoe UI Symbol&quot;, serif" font-size="12px" text-anchor="middle" x="433.3173513253603" y="100.434261869452">☿</text><line stroke="#E8D4FF" stroke-width="0.8" x1="484.0159427777717" x2="488.8584675877131" y1="434.6184712571341" y2="438.16106260600606" /><text dominant-baseline="middle" fill="#E8D4FF" font-family="&quot;Symbola&quot;, &quot;Noto Sans Symbols&quot;, &quot;Apple Symbols&quot;, &quot;Segoe UI Symbol&quot;, serif" font-size="12px" text-anchor="middle" x="493.70099239765443" y="441.703653954878">♇</text><line stroke="#E8D4FF" stroke-width="0.8" x1="318.94788751919026" x2="319.4465161381163" y1="527.2113059655265" y2="533.1905508593561" /><text dominant-baseline="middle" fill="#E8D4FF" font-family="&quot;Symbola&quot;, &quot;Noto Sans Symbols&quot;, &quot;Apple Symbols&quot;, &quot;Segoe UI Symbol&quot;, serif" font-size="12px" text-anchor="middle" x="319.9451447570424" y="539.1697957531858">♃</text><line stroke="#E8D4FF" stroke-width="0.8" x1="221.48260083159397" x2="219.41635348505696" y1="514.0537736827575" y2="519.6867677270407" /><line stroke="#7B5FAF" stroke-dasharray="2,2" stroke-width="0.5" x1="219.41635348505696" x2="236.49424267448097" y1="519.6867677270407" y2="531.445498522897" /><text dominant-baseline="middle" fill="#E8D4FF" font-family="&quot;Symbola&quot;, &quot;Noto Sans Symbols&quot;, &quot;Apple Symbols&quot;, &quot;Segoe UI Symbol&quot;, serif" font-size="12px" text-anchor="middle" x="236.49424267448097" y="531.445498522897">♅</text><line stroke="#E8D4FF" stroke-width="0.8" x1="172.24730183780872" x2="168.88538872827738" y1="488.8471554254394" y2="493.81681741031935" /><line stroke="#7B5FAF" stroke-dasharray="2,2" stroke-width="0.5" x1="168.88538872827738" x2="188.52006078492826" y1="493.81681741031935" y2="512.5375805654236" /><text dominant-baseline="middle" fill="#E8D4FF" font-family="&quot;Symbola&quot;, &quot;Noto Sans Symbols&quot;, &quot;Apple Symbols&quot;, &quot;Segoe UI Symbol&quot;, serif" font-size="12px" text-anchor="middle" x="188.52006078492826" y="512.5375805654236">☽</text><line stroke="#E8D4FF" stroke-width="0.8" x1="172.17210818197043" x2="168.80821629202225" y1="488.79626604718146" y2="493.7645888378968" /><line stroke="#7B5FAF" stroke-dasharray="2,2" stroke-width="0.5" x1="168.80821629202225" x2="146.69357102757854" y1="493.7645888378968" y2="484.6541059270654" /><text dominant-baseline="middle" fill="#E8D4FF" font-family="&quot;Symbola&quot;, &quot;Noto Sans Symbols&quot;, &quot;Apple Symbols&quot;, &quot;Segoe UI Symbol&quot;, serif" font-size="12px" text-anchor="middle" x="146.69357102757854" y="484.6541059270654">♂</text><line stroke="#E8D4FF" stroke-width="0.8" x1="81.22217543541959" x2="75.46486426266748" y1="364.1892785345783" y2="365.87847007496197" /><text dominant-baseline="middle" fill="#E8D4FF" font-family="&quot;Symbola&quot;, &quot;Noto Sans Symbols&quot;, &quot;Apple Symbols&quot;, &quot;Segoe UI Symbol&quot;, serif" font-size="12px" text-anchor="middle" x="69.70755308991534" y="367.5676616153456">♀</text><line stroke="#E8D4FF" stroke-width="0.8" x1="81.15781055840245" x2="75.39880557309726" y1="236.03050632990806" y2="234.34709860174775" /><text dominant-baseline="middle" fill="#E8D4FF" font-family="&quot;Symbola&quot;, &quot;Noto Sans Symbols&quot;, &quot;Apple Symbols&quot;, &quot;Segoe UI Symbol&quot;, serif" font-size="12px" text-anchor="middle" x="69.63980058779205" y="232.66369087358743">♄</text><line stroke="#E8D4FF" stroke-width="0.8" x1="215.52558797249247" x2="213.3025771296633" y1="88.22636209242924" y2="82.6533716211774" /><line stroke="#7B5FAF" stroke-dasharray="2,2" stroke-width="0.5" x1="213.3025771296633" x2="207.97578997468537" y1="82.6533716211774" y2="78.3436335919566" /><text dominant-baseline="middle" fill="#E8D4FF" font-family="&quot;Symbola&quot;, &quot;Noto Sans Symbols&quot;, &quot;Apple Symbols&quot;, &quot;Segoe UI Symbol&quot;, serif" font-size="12px" text-anchor="middle" x="207.97578997468537" y="78.3436335919566">☉</text><line stroke="#E8D4FF" stroke-width="0.8" x1="256.5419585443459" x2="255.39832587446026" y1="76.17998607622542" y2="70.28998570981031" /><line stroke="#7B5FAF" stroke-dasharray="2,2" stroke-width="0.5" x1="255.39832587446026" x2="257.5486421662148" y1="70.28998570981031" y2="63.78424646508455" /><text dominant-baseline="middle" fill="#E8D4FF" font-family="&quot;Symbola&quot;, &quot;Noto Sans Symbols&quot;, &quot;Apple Symbols&quot;, &quot;Segoe UI Symbol&quot;, serif" font-size="12px" text-anchor="middle" x="257.5486421662148" y="63.78424646508455">♆</text><circle cx="300" cy="300" fill="none" r="274.0" stroke="#7B5FAF" stroke-width="0.5" /><circle cx="300" cy="300" fill="none" r="254.0" stroke="#7B5FAF" stroke-width="0.5" /><line stroke="#E8D4FF" stroke-width="0.8" x1="426.9602121171338" x2="429.9830743103988" y1="82.3188006759141" y2="77.1359149777216" /><line stroke="#7B5FAF" stroke-dasharray="2,2" stroke-width="0.5" x1="429.9830743103988" x2="423.3396517196064" y1="77.1359149777216" y2="66.58335467733627" /><text dominant-baseline="middle" fill="#E8D4FF" font-family="&quot;Symbola&quot;, &quot;Noto Sans Symbols&quot;, &quot;Apple Symbols&quot;, &quot;Segoe UI Symbol&quot;, serif" font-size="12px" text-anchor="middle" x="423.3396517196064" y="66.58335467733627">♀</text><line stroke="#E8D4FF" stroke-width="0.8" x1="456.0038792195551" x2="459.71825729621116" y1="102.09398779104646" y2="97.38193988130948" /><line stroke="#7B5FAF" stroke-dasharray="2,2" stroke-width="0.5" x1="459.71825729621116" x2="471.97136099568974" y1="97.38193988130948" y2="99.69560414886004" /><text dominant-baseline="middle" fill="#E8D4FF" font-family="&quot;Symbola&quot;, &quot;Noto Sans Symbols&quot;, &quot;Apple Symbols&quot;, &quot;Segoe UI Symbol&quot;, serif" font-size="12px" text-anchor="middle" x="471.97136099568974" y="99.69560414886004">☿</text><line stroke="#E8D4FF" stroke-width="0.8" x1="544.4065863166771" x2="550.2257907527885" y1="238.60439295007612" y2="237.1425927822208" /><text dominant-baseline="middle" fill="#E8D4FF" font-family="&quot;Symbola&quot;, &quot;Noto Sans Symbols&quot;, &quot;Apple Symbols&quot;, &quot;Segoe UI Symbol&quot;, serif" font-size="12px" text-anchor="middle" x="556.0449951888997" y="235.68079261436546">♂</text><line stroke="#E8D4FF" stroke-width="0.8" x1="484.6206109631047" x2="489.0163397955596" y1="471.5203486692175" y2="475.60416649467504" /><text dominant-baseline="middle" fill="#E8D4FF" font-family="&quot;Symbola&quot;, &quot;Noto Sans Symbols&quot;, &quot;Apple Symbols&quot;, &quot;Segoe UI Symbol&quot;, serif" font-size="12px" text-anchor="middle" x="493.4120686280145" y="479.6879843201326">♇</text><line stroke="#E8D4FF" stroke-width="0.8" x1="151.1637837188827" x2="147.62006428361804" y1="503.3513725626667" y2="508.19307190939685" /><text dominant-baseline="middle" fill="#E8D4FF" font-family="&quot;Symbola&quot;, &quot;Noto Sans Symbols&quot;, &quot;Apple Symbols&quot;, &quot;Segoe UI Symbol&quot;, serif" font-size="12px" text-anchor="middle" x="144.07634484835333" y="513.034771256127">♅</text><line stroke="#E8D4FF" stroke-width="0.8" x1="70.62002123570278" x2="65.15859316988616" y1="195.65046553965587" y2="193.1659528144096" /><text dominant-baseline="middle" fill="#E8D4FF" font-family="&quot;Symbola&quot;, &quot;Noto Sans Symbols&quot;, &quot;Apple Symbols&quot;, &quot;Segoe UI Symbol&quot;, serif" font-size="12px" text-anchor="middle" x="59.69716510406957" y="190.6814400891633">♃</text><line stroke="#E8D4FF" stroke-width="0.8" x1="172.0500991811865" x2="169.00367297121477" y1="82.89904910282917" y2="77.72997884337272" /><line stroke="#7B5FAF" stroke-dasharray="2,2" stroke-width="0.5" x1="169.00367297121477" x2="144.40281314881923" y1="77.72997884337272" y2="86.72666494847806" /><text dominant-baseline="middle" fill="#E8D4FF" font-family="&quot;Symbola&quot;, &quot;Noto Sans Symbols&quot;, &quot;Apple Symbols&quot;, &quot;Segoe UI Symbol&quot;, serif" font-size="12px" text-anchor="middle" x="144.40281314881923" y="86.72666494847806">♄</text><line stroke="#E8D4FF" stroke-width="0.8" x1="202.66538170148775" x2="200.34789078961842" y1="67.55651852400138" y2="62.02214991742997" /><line stroke="#7B5FAF" stroke-dasharray="2,2" stroke-width="0.5" x1="200.34789078961842" x2="194.64037795341886" y1="62.02214991742997" y2="57.935235851639135" /><text dominant-baseline="middle" fill="#E8D4FF" font-family="&quot;Symbola&quot;, &quot;Noto Sans Symbols&quot;, &quot;Apple Symbols&quot;, &quot;Segoe UI Symbol&quot;, serif" font-size="12px" text-anchor="middle" x="194.64037795341886" y="57.935235851639135">☉</text><line stroke="#E8D4FF" stroke-width="0.8" x1="273.78134814849477" x2="273.15709453298274" y1="49.36763518035113" y2="43.40019792274046" /><line stroke="#7B5FAF" stroke-dasharray="2,2" stroke-width="0.5" x1="273.15709453298274" x2="250.65811179312868" y1="43.40019792274046" y2="40.65201356443771" /><text dominant-baseline="middle" fill="#E8D4FF" font-family="&quot;Symbola&quot;, &quot;Noto Sans Symbols&quot;, &quot;Apple Symbols&quot;, &quot;Segoe UI Symbol&quot;, serif" font-size="12px" text-anchor="middle" x="250.65811179312868" y="40.65201356443771">☽</text><line stroke="#E8D4FF" stroke-width="0.8" x1="289.46914053103745" x2="289.2184057817765" y1="48.22013384933862" y2="42.22537513146574" /><line stroke="#7B5FAF" stroke-dasharray="2,2" stroke-width="0.5" x1="289.2184057817765" x2="307.39416731204693" y1="42.22537513146574" y2="36.10356900904958" /><text dominant-baseline="middle" fill="#E8D4FF" font-family="&quot;Symbola&quot;, &quot;Noto Sans Symbols&quot;, &quot;Apple Symbols&quot;, &quot;Segoe UI Symbol&quot;, serif" font-size="12px" text-anchor="middle" x="307.39416731204693" y="36.10356900904958">♆</text></svg>