<?xml version="1.0" encoding="utf-8" ?>
<svg baseProfile="full" height="600px" version="1.1" viewBox="0 0 600 600" width="600px" xmlns="http://www.w3.org/2000/svg" xmlns:ev="http://www.w3.org/2001/xml-events" xmlns:xlink="http://www.w3.org/1999/xlink"><defs /><rect fill="#1A0F2E" height="600px" width="600px" x="0" y="0" /><circle cx="300" cy="300" fill="none" r="216.0" stroke="#7B5FAF" stroke-width="1" /><path d="M 300.0 180.0 A 120.0 120.0 0 0 1 403.92304845413264 360.0 L 341.56921938165306 324.0 A 48.0 48.0 0 0 0 300.0 252.0 Z" fill="#241540" stroke="none" /><path d="M 403.92304845413264 360.0 A 120.0 120.0 0 0 1 196.07695154586736 360.0 L 258.43078061834694 324.0 A 48.0 48.0 0 0 0 341.56921938165306 324.0 Z" fill="#1A0F2E" stroke="none" /><path d="M 196.07695154586736 360.0 A 120.0 120.0 0 0 1 300.0 180.0 L 300.0 252.0 A 48.0 48.0 0 0 0 258.43078061834694 324.0 Z" fill="#241540" stroke="none" /><line stroke="#7B5FAF" stroke-width="1.0" x1="300.0" x2="300.0" y1="252.0" y2="180.0" /><line stroke="#7B5FAF" stroke-width="1.0" x1="341.56921938165306" x2="403.92304845413264" y1="324.0" y2="360.0" /><line stroke="#7B5FAF" stroke-width="1.0" x1="258.43078061834694" x2="196.07695154586736" y1="324.0" y2="360.0" /><text dominant-baseline="middle" fill="#E8D4FF" font-family="&quot;Symbola&quot;, &quot;Noto Sans Symbols&quot;, &quot;Apple Symbols&quot;, &quot;Segoe UI Symbol&quot;, serif" font-size="14px" text-anchor="middle" x="354.1833528958018" y="243.89149557358522">♈</text><text dominant-baseline="middle" fill="#E8D4FF" font-family="&quot;Symbola&quot;, &quot;Noto Sans Symbols&quot;, &quot;Apple Symbols&quot;, &quot;Segoe UI Symbol&quot;, serif" font-size="14px" text-anchor="middle" x="375.68306664952775" y="281.1300921432259">♋</text><text dominant-baseline="middle" fill="#E8D4FF" font-family="&quot;Symbola&quot;, &quot;Noto Sans Symbols&quot;, &quot;Apple Symbols&quot;, &quot;Segoe UI Symbol&quot;, serif" font-size="14px" text-anchor="middle" x="362.51925334130976" y="235.2594179695214">♎</text><text dominant-baseline="middle" fill="#E8D4FF" font-family="&quot;Symbola&quot;, &quot;Noto Sans Symbols&quot;, &quot;Apple Symbols&quot;, &quot;Segoe UI Symbol&quot;, serif" font-size="14px" text-anchor="middle" x="387.32661536483965" y="278.2270293960299">♑</text><text dominant-baseline="middle" fill="#E8D4FF" font-family="&quot;Symbola&quot;, &quot;Noto Sans Symbols&quot;, &quot;Apple Symbols&quot;, &quot;Segoe UI Symbol&quot;, serif" font-size="14px" text-anchor="middle" x="321.4997137537259" y="374.97841228318885">♉</text><text dominant-baseline="middle" fill="#E8D4FF" font-family="&quot;Symbola&quot;, &quot;Noto Sans Symbols&quot;, &quot;Apple Symbols&quot;, &quot;Segoe UI Symbol&quot;, serif" font-size="14px" text-anchor="middle" x="278.5002862462741" y="374.97841228318885">♌</text><text dominant-baseline="middle" fill="#E8D4FF" font-family="&quot;Symbola&quot;, &quot;Noto Sans Symbols&quot;, &quot;Apple Symbols&quot;, &quot;Segoe UI Symbol&quot;, serif" font-size="14px" text-anchor="middle" x="324.80736202352995" y="386.51355263444873">♏</text><text dominant-baseline="middle" fill="#E8D4FF" font-family="&quot;Symbola&quot;, &quot;Noto Sans Symbols&quot;, &quot;Apple Symbols&quot;, &quot;Segoe UI Symbol&quot;, serif" font-size="14px" text-anchor="middle" x="275.1926379764701" y="386.51355263444873">♒</text><text dominant-baseline="middle" fill="#E8D4FF" font-family="&quot;Symbola&quot;, &quot;Noto Sans Symbols&quot;, &quot;Apple Symbols&quot;, &quot;Segoe UI Symbol&quot;, serif" font-size="14px" text-anchor="middle" x="224.31693335047225" y="281.1300921432259">♊</text><text dominant-baseline="middle" fill="#E8D4FF" font-family="&quot;Symbola&quot;, &quot;Noto Sans Symbols&quot;, &quot;Apple Symbols&quot;, &quot;Segoe UI Symbol&quot;, serif" font-size="14px" text-anchor="middle" x="245.8166471041982" y="243.89149557358522">♍</text><text dominant-baseline="middle" fill="#E8D4FF" font-family="&quot;Symbola&quot;, &quot;Noto Sans Symbols&quot;, &quot;Apple Symbols&quot;, &quot;Segoe UI Symbol&quot;, serif" font-size="14px" text-anchor="middle" x="212.67338463516032" y="278.22702939602993">♐</text><text dominant-baseline="middle" fill="#E8D4FF" font-family="&quot;Symbola&quot;, &quot;Noto Sans Symbols&quot;, &quot;Apple Symbols&quot;, &quot;Segoe UI Symbol&quot;, serif" font-size="14px" text-anchor="middle" x="237.48074665869024" y="235.2594179695214">♓</text><line stroke="#7B5FAF" stroke-width="0.5" x1="299.99999999999994" x2="299.99999999999994" y1="100.80000000000001" y2="84.0" /><line stroke="#7B5FAF" stroke-width="0.5" x1="314.56515171777335" x2="315.06739832873103" y1="91.70862630574868" y2="84.52616514387796" /><line stroke="#7B5FAF" stroke-width="0.5" x1="329.0593434804617" x2="330.06138980737416" y1="93.23202724676008" y2="86.1020971518208" /><line stroke="#7B5FAF" stroke-width="0.5" x1="343.4119610427482" x2="344.908925216636" y1="95.76278096678138" y2="88.720118241498" /><line stroke="#7B5FAF" stroke-width="0.5" x1="357.5530798945895" x2="359.5376688564719" y1="99.28855788807903" y2="92.36747367732315" /><line stroke="#7B5FAF" stroke-width="0.5" x1="369.7721092384365" x2="373.8763509583445" y1="108.30270535967469" y2="97.0263939102438" /><line stroke="#7B5FAF" stroke-width="0.5" x1="384.926611074227" x2="387.8551149043727" y1="109.25170844422487" y2="102.67418114919818" /><line stroke="#7B5FAF" stroke-width="0.5" x1="398.0256623096939" x2="401.4058575617523" y1="115.64054261105602" y2="109.28331994247173" /><line stroke="#7B5FAF" stroke-width="0.5" x1="410.64714237189315" x2="414.4625610743722" y1="122.9275575225382" y2="116.82161123021194" /><line stroke="#7B5FAF" stroke-width="0.5" x1="422.72956067866835" x2="426.96161449517416" y1="131.07725157451094" y2="125.25232921501132" /><line stroke="#7B5FAF" stroke-width="0.5" x1="428.0432918495586" x2="438.8421236922925" y1="147.40394693069956" y2="134.53440028630072" /><line stroke="#7B5FAF" stroke-width="0.5" x1="445.04466775183863" x2="450.0462080191434" y1="149.8018496892896" y2="144.62260312685135" /><line stroke="#7B5FAF" stroke-width="0.5" x1="455.16863955967995" x2="460.51928230311717" y1="160.2855293922704" y2="155.46778902648666" /><line stroke="#7B5FAF" stroke-width="0.5" x1="464.5366453530836" x2="470.210322779052" y1="171.44988395200255" y2="167.01712132965784" /><line stroke="#7B5FAF" stroke-width="0.5" x1="473.10304514949274" x2="479.07211567188904" y1="183.24052175530812" y2="179.21433285031873" /><line stroke="#7B5FAF" stroke-width="0.5" x1="476.66918237202543" x2="487.0614872174387" y1="197.99999999999991" y2="191.9999999999999" /><line stroke="#7B5FAF" stroke-width="0.5" x1="487.66819686726603" x2="494.13951400062" y1="208.46810455044056" y2="205.31183229355918" /><line stroke="#7B5FAF" stroke-width="0.5" x1="493.5959888335452" x2="500.271712586426" y1="221.7821432947575" y2="219.08497582216293" /><line stroke="#7B5FAF" stroke-width="0.5" x1="498.58060060242804" x2="505.4282075197532" y1="235.47725157451092" y2="233.2523292150113" /><line stroke="#7B5FAF" stroke-width="0.5" x1="502.59774764642805" x2="509.58387687561526" y1="249.48670819878936" y2="247.74487055047175" /><line stroke="#7B5FAF" stroke-width="0.5" x1="496.17370440003185" x2="512.718474650637" y1="265.4092830087475" y2="262.491993623943" /><line stroke="#7B5FAF" stroke-width="0.5" x1="507.6561717528955" x2="514.8167293995471" y1="278.17445686971394" y2="277.42185193418686" /><line stroke="#7B5FAF" stroke-width="0.5" x1="508.6728046815872" x2="515.8684186361247" y1="292.7129850885178" y2="292.46170871225985" /><line stroke="#7B5FAF" stroke-width="0.5" x1="508.6728046815872" x2="515.8684186361247" y1="307.2870149114822" y2="307.5382912877402" /><line stroke="#7B5FAF" stroke-width="0.5" x1="507.6561717528955" x2="514.8167293995471" y1="321.82554313028606" y2="322.57814806581314" /><line stroke="#7B5FAF" stroke-width="0.5" x1="500.9007816144904" x2="512.718474650637" y1="335.4242282440538" y2="337.508006376057" /><line stroke="#7B5FAF" stroke-width="0.5" x1="502.59774764642805" x2="509.58387687561526" y1="350.51329180121064" y2="352.2551294495282" /><line stroke="#7B5FAF" stroke-width="0.5" x1="498.58060060242804" x2="505.4282075197532" y1="364.522748425489" y2="366.74767078498866" /><line stroke="#7B5FAF" stroke-width="0.5" x1="493.5959888335452" x2="500.2717125864261" y1="378.2178567052424" y2="380.915024177837" /><line stroke="#7B5FAF" stroke-width="0.5" x1="487.6681968672661" x2="494.13951400062007" y1="391.5318954495594" y2="394.6881677064407" /><line stroke="#7B5FAF" stroke-width="0.5" x1="472.5122604338602" x2="487.06148721743875" y1="399.59999999999997" y2="408.0" /><line stroke="#7B5FAF" stroke-width="0.5" x1="473.1030451494927" x2="479.07211567188904" y1="416.759478244692" y2="420.78566714968133" /><line stroke="#7B5FAF" stroke-width="0.5" x1="464.53664535308354" x2="470.2103227790519" y1="428.55011604799745" y2="432.9828786703422" /><line stroke="#7B5FAF" stroke-width="0.5" x1="455.16863955967995" x2="460.51928230311717" y1="439.7144706077296" y2="444.5322109735134" /><line stroke="#7B5FAF" stroke-width="0.5" x1="445.04466775183863" x2="450.0462080191434" y1="450.1981503107104" y2="455.37739687314865" /><line stroke="#7B5FAF" stroke-width="0.5" x1="431.12867237605406" x2="438.8421236922925" y1="456.2730663962715" y2="465.46559971369925" /><line stroke="#7B5FAF" stroke-width="0.5" x1="422.7295606786684" x2="426.9616144951742" y1="468.92274842548903" y2="474.74767078498866" /><line stroke="#7B5FAF" stroke-width="0.5" x1="410.6471423718932" x2="414.4625610743723" y1="477.0724424774618" y2="483.178388769788" /><line stroke="#7B5FAF" stroke-width="0.5" x1="398.025662309694" x2="401.40585756175244" y1="484.35945738894395" y2="490.7166800575282" /><line stroke="#7B5FAF" stroke-width="0.5" x1="384.9266110742271" x2="387.85511490437284" y1="490.74829155577504" y2="497.3258188508018" /><line stroke="#7B5FAF" stroke-width="0.5" x1="368.13041255047324" x2="373.87635095834446" y1="487.18677006055293" y2="502.97360608975623" /><line stroke="#7B5FAF" stroke-width="0.5" x1="357.5530798945894" x2="359.53766885647184" y1="500.711442111921" y2="507.6325263226769" /><line stroke="#7B5FAF" stroke-width="0.5" x1="343.4119610427482" x2="344.908925216636" y1="504.2372190332186" y2="511.27988175850203" /><line stroke="#7B5FAF" stroke-width="0.5" x1="329.0593434804617" x2="330.06138980737416" y1="506.7679727532399" y2="513.8979028481792" /><line stroke="#7B5FAF" stroke-width="0.5" x1="314.56515171777335" x2="315.06739832873103" y1="508.2913736942513" y2="515.473834856122" /><line stroke="#7B5FAF" stroke-width="0.5" x1="300.0" x2="300.0" y1="504.0" y2="516.0" /><line stroke="#7B5FAF" stroke-width="0.5" x1="285.43484828222665" x2="284.9326016712689" y1="508.2913736942513" y2="515.473834856122" /><line stroke="#7B5FAF" stroke-width="0.5" x1="270.9406565195384" x2="269.9386101926259" y1="506.7679727532399" y2="513.8979028481792" /><line stroke="#7B5FAF" stroke-width="0.5" x1="256.58803895725185" x2="255.09107478336398" y1="504.23721903321865" y2="511.27988175850203" /><line stroke="#7B5FAF" stroke-width="0.5" x1="242.44692010541058" x2="240.46233114352822" y1="500.711442111921" y2="507.6325263226769" /><line stroke="#7B5FAF" stroke-width="0.5" x1="231.8695874495268" x2="226.12364904165554" y1="487.18677006055293" y2="502.97360608975623" /><line stroke="#7B5FAF" stroke-width="0.5" x1="215.07338892577292" x2="212.14488509562716" y1="490.74829155577504" y2="497.3258188508018" /><line stroke="#7B5FAF" stroke-width="0.5" x1="201.97433769030596" x2="198.59414243824756" y1="484.35945738894395" y2="490.7166800575282" /><line stroke="#7B5FAF" stroke-width="0.5" x1="189.35285762810685" x2="185.53743892562778" y1="477.0724424774618" y2="483.17838876978806" /><line stroke="#7B5FAF" stroke-width="0.5" x1="177.27043932133162" x2="173.03838550482584" y1="468.92274842548903" y2="474.74767078498866" /><line stroke="#7B5FAF" stroke-width="0.5" x1="168.87132762394597" x2="161.1578763077075" y1="456.2730663962715" y2="465.46559971369925" /><line stroke="#7B5FAF" stroke-width="0.5" x1="154.95533224816134" x2="149.95379198085658" y1="450.1981503107104" y2="455.37739687314865" /><line stroke="#7B5FAF" stroke-width="0.5" x1="144.8313604403201" x2="139.4807176968829" y1="439.71447060772965" y2="444.53221097351343" /><line stroke="#7B5FAF" stroke-width="0.5" x1="135.46335464691646" x2="129.78967722094808" y1="428.55011604799745" y2="432.9828786703422" /><line stroke="#7B5FAF" stroke-width="0.5" x1="126.89695485050731" x2="120.92788432811102" y1="416.759478244692" y2="420.78566714968133" /><line stroke="#7B5FAF" stroke-width="0.5" x1="127.48773956613982" x2="112.93851278256125" y1="399.59999999999997" y2="408.0" /><line stroke="#7B5FAF" stroke-width="0.5" x1="112.33180313273391" x2="105.86048599937993" y1="391.53189544955933" y2="394.6881677064407" /><line stroke="#7B5FAF" stroke-width="0.5" x1="106.40401116645481" x2="99.72828741357395" y1="378.21785670524247" y2="380.91502417783704" /><line stroke="#7B5FAF" stroke-width="0.5" x1="101.41939939757194" x2="94.57179248024684" y1="364.52274842548906" y2="366.74767078498866" /><line stroke="#7B5FAF" stroke-width="0.5" x1="97.40225235357192" x2="90.41612312438477" y1="350.51329180121064" y2="352.2551294495282" /><line stroke="#7B5FAF" stroke-width="0.5" x1="99.09921838550957" x2="87.28152534936308" y1="335.4242282440538" y2="337.5080063760569" /><line stroke="#7B5FAF" stroke-width="0.5" x1="92.34382824710454" x2="85.18327060045297" y1="321.8255431302861" y2="322.5781480658132" /><line stroke="#7B5FAF" stroke-width="0.5" x1="91.3271953184128" x2="84.13158136387531" y1="307.28701491148223" y2="307.53829128774026" /><line stroke="#7B5FAF" stroke-width="0.5" x1="91.3271953184128" x2="84.13158136387531" y1="292.7129850885178" y2="292.4617087122598" /><line stroke="#7B5FAF" stroke-width="0.5" x1="92.34382824710454" x2="85.18327060045297" y1="278.17445686971394" y2="277.42185193418686" /><line stroke="#7B5FAF" stroke-width="0.5" x1="103.82629559996818" x2="87.28152534936308" y1="265.4092830087475" y2="262.491993623943" /><line stroke="#7B5FAF" stroke-width="0.5" x1="97.40225235357192" x2="90.41612312438477" y1="249.48670819878942" y2="247.74487055047183" /><line stroke="#7B5FAF" stroke-width="0.5" x1="101.41939939757191" x2="94.57179248024681" y1="235.477251574511" y2="233.2523292150114" /><line stroke="#7B5FAF" stroke-width="0.5" x1="106.40401116645478" x2="99.72828741357392" y1="221.78214329475756" y2="219.08497582216302" /><line stroke="#7B5FAF" stroke-width="0.5" x1="112.33180313273394" x2="105.86048599937993" y1="208.46810455044061" y2="205.31183229355926" /><line stroke="#7B5FAF" stroke-width="0.5" x1="123.33081762797454" x2="112.93851278256128" y1="197.99999999999997" y2="191.99999999999997" /><line stroke="#7B5FAF" stroke-width="0.5" x1="126.89695485050726" x2="120.92788432811096" y1="183.24052175530807" y2="179.21433285031873" /><line stroke="#7B5FAF" stroke-width="0.5" x1="135.46335464691643" x2="129.78967722094805" y1="171.44988395200255" y2="167.01712132965784" /><line stroke="#7B5FAF" stroke-width="0.5" x1="144.83136044032008" x2="139.48071769688283" y1="160.2855293922704" y2="155.46778902648663" /><line stroke="#7B5FAF" stroke-width="0.5" x1="154.95533224816137" x2="149.95379198085658" y1="149.8018496892896" y2="144.62260312685135" /><line stroke="#7B5FAF" stroke-width="0.5" x1="171.95670815044136" x2="161.15787630770748" y1="147.40394693069962" y2="134.53440028630078" /><line stroke="#7B5FAF" stroke-width="0.5" x1="177.2704393213316" x2="173.03838550482578" y1="131.077251574511" y2="125.25232921501137" /><line stroke="#7B5FAF" stroke-width="0.5" x1="189.3528576281068" x2="185.53743892562773" y1="122.92755752253825" y2="116.821611230212" /><line stroke="#7B5FAF" stroke-width="0.5" x1="201.97433769030602" x2="198.59414243824762" y1="115.64054261105605" y2="109.28331994247176" /><line stroke="#7B5FAF" stroke-width="0.5" x1="215.07338892577292" x2="212.14488509562716" y1="109.2517084442249" y2="102.67418114919818" /><line stroke="#7B5FAF" stroke-width="0.5" x1="230.22789076156363" x2="226.1236490416556" y1="108.30270535967469" y2="97.02639391024377" /><line stroke="#7B5FAF" stroke-width="0.5" x1="242.44692010541064" x2="240.46233114352825" y1="99.28855788807897" y2="92.36747367732309" /><line stroke="#7B5FAF" stroke-width="0.5" x1="256.58803895725174" x2="255.0910747833639" y1="95.76278096678138" y2="88.720118241498" /><line stroke="#7B5FAF" stroke-width="0.5" x1="270.94065651953827" x2="269.9386101926258" y1="93.23202724676011" y2="86.10209715182083" /><line stroke="#7B5FAF" stroke-width="0.5" x1="285.4348482822266" x2="284.93260167126886" y1="91.70862630574871" y2="84.52616514387796" /><text dominant-baseline="middle" fill="#E8D4FF" font-family="&quot;Arial&quot;, &quot;Helvetica&quot;, sans-serif" font-size="8px" text-anchor="middle" x="299.99999999999994" y="116.0">0</text><text dominant-baseline="middle" fill="#E8D4FF" font-family="&quot;Arial&quot;, &quot;Helvetica&quot;, sans-serif" font-size="8px" text-anchor="middle" x="362.9317063719231" y="127.09655777539288">5</text><text dominant-baseline="middle" fill="#E8D4FF" font-family="&quot;Arial&quot;, &quot;Helvetica&quot;, sans-serif" font-size="8px" text-anchor="middle" x="418.2729201823232" y="159.04782246610802">10</text><text dominant-baseline="middle" fill="#E8D4FF" font-family="&quot;Arial&quot;, &quot;Helvetica&quot;, sans-serif" font-size="8px" text-anchor="middle" x="459.34867429633664" y="207.99999999999991">15</text><text dominant-baseline="middle" fill="#E8D4FF" font-family="&quot;Arial&quot;, &quot;Helvetica&quot;, sans-serif" font-size="8px" text-anchor="middle" x="481.20462655424626" y="268.0487353092848">20</text><text dominant-baseline="middle" fill="#E8D4FF" font-family="&quot;Arial&quot;, &quot;Helvetica&quot;, sans-serif" font-size="8px" text-anchor="middle" x="481.20462655424626" y="331.95126469071516">25</text><text dominant-baseline="middle" fill="#E8D4FF" font-family="&quot;Arial&quot;, &quot;Helvetica&quot;, sans-serif" font-size="8px" text-anchor="middle" x="459.34867429633675" y="392.0">30</text><text dominant-baseline="middle" fill="#E8D4FF" font-family="&quot;Arial&quot;, &quot;Helvetica&quot;, sans-serif" font-size="8px" text-anchor="middle" x="418.2729201823232" y="440.9521775338919">35</text><text dominant-baseline="middle" fill="#E8D4FF" font-family="&quot;Arial&quot;, &quot;Helvetica&quot;, sans-serif" font-size="8px" text-anchor="middle" x="362.93170637192304" y="472.90344222460715">40</text><text dominant-baseline="middle" fill="#E8D4FF" font-family="&quot;Arial&quot;, &quot;Helvetica&quot;, sans-serif" font-size="8px" text-anchor="middle" x="300.0" y="484.0">45</text><text dominant-baseline="middle" fill="#E8D4FF" font-family="&quot;Arial&quot;, &quot;Helvetica&quot;, sans-serif" font-size="8px" text-anchor="middle" x="237.06829362807696" y="472.90344222460715">50</text><text dominant-baseline="middle" fill="#E8D4FF" font-family="&quot;Arial&quot;, &quot;Helvetica&quot;, sans-serif" font-size="8px" text-anchor="middle" x="181.72707981767675" y="440.9521775338919">55</text><text dominant-baseline="middle" fill="#E8D4FF" font-family="&quot;Arial&quot;, &quot;Helvetica&quot;, sans-serif" font-size="8px" text-anchor="middle" x="140.65132570366328" y="392.0">60</text><text dominant-baseline="middle" fill="#E8D4FF" font-family="&quot;Arial&quot;, &quot;Helvetica&quot;, sans-serif" font-size="8px" text-anchor="middle" x="118.79537344575371" y="331.95126469071516">65</text><text dominant-baseline="middle" fill="#E8D4FF" font-family="&quot;Arial&quot;, &quot;Helvetica&quot;, sans-serif" font-size="8px" text-anchor="middle" x="118.79537344575371" y="268.0487353092848">70</text><text dominant-baseline="middle" fill="#E8D4FF" font-family="&quot;Arial&quot;, &quot;Helvetica&quot;, sans-serif" font-size="8px" text-anchor="middle" x="140.6513257036633" y="208.0">75</text><text dominant-baseline="middle" fill="#E8D4FF" font-family="&quot;Arial&quot;, &quot;Helvetica&quot;, sans-serif" font-size="8px" text-anchor="middle" x="181.72707981767672" y="159.04782246610807">80</text><text dominant-baseline="middle" fill="#E8D4FF" font-family="&quot;Arial&quot;, &quot;Helvetica&quot;, sans-serif" font-size="8px" text-anchor="middle" x="237.068293628077" y="127.09655777539285">85</text><line stroke="#FFD700" stroke-width="2.0" x1="299.99999999999994" x2="299.99999999999994" y1="113.0" y2="69.0" /><polygon fill="#FFD700" points="299.99999999999994,113.0 303.38094609392556,105.7495377037068 296.6190539060743,105.7495377037068" /><line stroke="#FFD700" stroke-width="4.0" x1="299.99999999999994" x2="299.99999999999994" y1="87.0" y2="81.0" /><line stroke="#FFD700" stroke-width="2.0" x1="487.0" x2="531.0" y1="300.0" y2="300.0" /><polygon fill="#FFD700" points="487.0,300.0 494.2504622962932,303.3809460939256 494.2504622962932,296.6190539060744" /><line stroke="#FFD700" stroke-width="4.0" x1="513.0" x2="519.0" y1="300.0" y2="300.0" /><line stroke="#FFD700" stroke-width="2.0" x1="300.0" x2="300.0" y1="487.0" y2="531.0" /><polygon fill="#FFD700" points="300.0,487.0 296.6190539060744,494.2504622962932 303.3809460939256,494.2504622962932" /><line stroke="#FFD700" stroke-width="4.0" x1="300.0" x2="300.0" y1="513.0" y2="519.0" /><line stroke="#FFD700" stroke-width="2.0" x1="113.0" x2="69.0" y1="300.0" y2="300.0" /><polygon fill="#FFD700" points="113.0,300.0 105.7495377037068,296.6190539060744 105.7495377037068,303.3809460939256" /><line stroke="#FFD700" stroke-width="4.0" x1="87.0" x2="81.0" y1="300.0" y2="300.0" /><line stroke="#E8D4FF" stroke-width="1.0" x1="299.99999999999994" x2="299.99999999999994" y1="116.0" y2="108.0" /><line stroke="#7B5FAF" stroke-dasharray="2,2" stroke-width="0.5" x1="299.99999999999994" x2="265.4384343713644" y1="116.0" y2="147.87670072833185" /><text dominant-baseline="middle" fill="#FFD700" font-family="&quot;Symbola&quot;, &quot;Noto Sans Symbols&quot;, &quot;Apple Symbols&quot;, &quot;Segoe UI Symbol&quot;, serif" font-size="18px" text-anchor="middle" x="265.4384343713644" y="147.87670072833185">♈</text><line stroke="#E8D4FF" stroke-width="1.0" x1="339.8415507996003" x2="341.57379213871343" y1="120.36522934052309" y2="112.55502192054584" /><line stroke="#7B5FAF" stroke-dasharray="2,2" stroke-width="0.5" x1="339.8415507996003" x2="307.9069495555587" y1="120.36522934052309" y2="144.20051300236625" /><text dominant-baseline="middle" fill="#FFD700" font-family="&quot;Symbola&quot;, &quot;Noto Sans Symbols&quot;, &quot;Apple Symbols&quot;, &quot;Segoe UI Symbol&quot;, serif" font-size="18px" text-anchor="middle" x="307.9069495555587" y="144.20051300236625">☿</text><line stroke="#E8D4FF" stroke-width="1.0" x1="341.49520348524635" x2="343.2993427672136" y1="120.73999863963519" y2="112.94608553701062" /><line stroke="#7B5FAF" stroke-dasharray="2,2" stroke-width="0.5" x1="341.49520348524635" x2="347.77480014682" y1="120.73999863963519" y2="151.4955607702874" /><svg height="18.0" viewBox="0 0 12 12" width="18.0" x="338.77480014682" y="142.4955607702874"><defs /><path d="M3.5 4.75h5M6 11V1m3.536 1.464A4.984 4.984 0 0 0 6 1c-1.38 0-2.63.56-3.536 1.464" fill="none" stroke="#FFD700" stroke-linecap="round" stroke-linejoin="round" stroke-width="0.60000002" /></svg><line stroke="#E8D4FF" stroke-width="1.0" x1="353.04308107430694" x2="355.3493019905811" y1="123.81137508299662" y2="116.15100008660517" /><line stroke="#7B5FAF" stroke-dasharray="2,2" stroke-width="0.5" x1="353.04308107430694" x2="384.4031630862843" y1="123.81137508299662" y2="168.80508370737033" /><text dominant-baseline="middle" fill="#FFD700" font-family="&quot;Symbola&quot;, &quot;Noto Sans Symbols&quot;, &quot;Apple Symbols&quot;, &quot;Segoe UI Symbol&quot;, serif" font-size="18px" text-anchor="middle" x="384.4031630862843" y="168.80508370737033">♄</text><line stroke="#E8D4FF" stroke-width="1.0" x1="470.47609896871626" x2="477.8881032717039" y1="230.76200695854578" y2="227.75165943500429" /><text dominant-baseline="middle" fill="#FFD700" font-family="&quot;Symbola&quot;, &quot;Noto Sans Symbols&quot;, &quot;Apple Symbols&quot;, &quot;Segoe UI Symbol&quot;, serif" font-size="18px" text-anchor="middle" x="444.5340839082594" y="241.298223290941">♀</text><line stroke="#E8D4FF" stroke-width="1.0" x1="475.35728245056623" x2="482.98151212233006" y1="355.72991558895745" y2="358.152955397173" /><text dominant-baseline="middle" fill="#FFD700" font-family="&quot;Symbola&quot;, &quot;Noto Sans Symbols&quot;, &quot;Apple Symbols&quot;, &quot;Segoe UI Symbol&quot;, serif" font-size="18px" text-anchor="middle" x="448.6724785993931" y="347.24927626020303">♂</text><line stroke="#E8D4FF" stroke-width="1.0" x1="423.55492012700734" x2="428.9268731760077" y1="436.34581662965985" y2="442.2738956135581" /><line stroke="#7B5FAF" stroke-dasharray="2,2" stroke-width="0.5" x1="423.55492012700734" x2="406.3568672476593" y1="436.34581662965985" y2="414.1236907450148" /><svg height="18.0" viewBox="0 0 12 12" width="18.0" x="397.3568672476593" y="405.1236907450148"><defs /><path d="M5.835 5.999c.362.362.862.585 1.415.585S8.303 6.361 8.665 6m-2.83 5a1.994 1.994 0 0 1 1.415-.585c.553 0 1.053.223 1.415.585m-2.226-.426V6.42m1.622 4.155V6.42M2.25 1a4.33 4.33 0 0 1 0 7.5h7.5" fill="none" stroke="#FFD700" stroke-linecap="round" stroke-linejoin="round" stroke-width="0.60000002" /></svg><line stroke="#E8D4FF" stroke-width="1.0" x1="387.83537038101014" x2="391.6542995280106" y1="461.6816245280544" y2="468.71126037710025" /><line stroke="#7B5FAF" stroke-dasharray="2,2" stroke-width="0.5" x1="387.83537038101014" x2="372.54795306828316" y1="461.6816245280544" y2="438.10428851271126" /><text dominant-baseline="middle" fill="#FFD700" font-family="&quot;Symbola&quot;, &quot;Noto Sans Symbols&quot;, &quot;Apple Symbols&quot;, &quot;Segoe UI Symbol&quot;, serif" font-size="18px" text-anchor="middle" x="372.54795306828316" y="438.10428851271126">♆</text><line stroke="#E8D4FF" stroke-width="1.0" x1="312.68695087773034" x2="313.23855743763164" y1="483.5620910684612" y2="491.5430515496987" /><line stroke="#7B5FAF" stroke-dasharray="2,2" stroke-width="0.5" x1="312.68695087773034" x2="317.26394757298425" y1="483.5620910684612" y2="455.04178828366645" /><svg height="18.0" viewBox="0 0 12 12" width="18.0" x="308.26394757298425" y="446.04178828366645"><defs /><path d="M3.5 3.5 6 1l2.5 2.5M6 1v5.67L8.5 11h-5L6 6.67" fill="none" stroke="#FFD700" stroke-linecap="round" stroke-linejoin="round" stroke-width="0.60000002" /></svg><line stroke="#E8D4FF" stroke-width="1.0" x1="276.67071992533687" x2="275.6564034003515" y1="482.5150533276582" y2="490.45049042886075" /><line stroke="#7B5FAF" stroke-dasharray="2,2" stroke-width="0.5" x1="276.67071992533687" x2="275.9079164114141" y1="482.5150533276582" y2="454.1284253742981" /><svg height="18.0" viewBox="0 0 12 12" width="18.0" x="266.9079164114141" y="445.1284253742981"><defs /><path d="M8.828 2.172A3.988 3.988 0 0 0 6 1C3.793 1 2 2.793 2 5s1.793 4 4 4a3.988 3.988 0 0 0 2.828-1.172M6 11V3.5M4.5 5h3" fill="none" stroke="#FFD700" stroke-linecap="round" stroke-linejoin="round" stroke-width="0.60000002" /></svg><line stroke="#E8D4FF" stroke-width="1.0" x1="184.4498491554291" x2="179.42592955349124" y1="443.1927464636282" y2="449.41851804900335" /><line stroke="#7B5FAF" stroke-dasharray="2,2" stroke-width="0.5" x1="184.4498491554291" x2="212.53585304609732" y1="443.1927464636282" y2="429.17438986744287" /><text dominant-baseline="middle" fill="#FFD700" font-family="&quot;Symbola&quot;, &quot;Noto Sans Symbols&quot;, &quot;Apple Symbols&quot;, &quot;Segoe UI Symbol&quot;, serif" font-size="18px" text-anchor="middle" x="212.53585304609732" y="429.17438986744287">♇</text><line stroke="#E8D4FF" stroke-width="1.0" x1="159.19613008396664" x2="153.07422269631303" y1="418.44944160555906" y2="423.5994173275399" /><line stroke="#7B5FAF" stroke-dasharray="2,2" stroke-width="0.5" x1="159.19613008396664" x2="182.0365877015757" y1="418.44944160555906" y2="402.08150351024403" /><text dominant-baseline="middle" fill="#FFD700" font-family="&quot;Symbola&quot;, &quot;Noto Sans Symbols&quot;, &quot;Apple Symbols&quot;, &quot;Segoe UI Symbol&quot;, serif" font-size="18px" text-anchor="middle" x="182.0365877015757" y="402.08150351024403">♃</text><line stroke="#E8D4FF" stroke-width="1.0" x1="133.02867697224838" x2="125.76905423191135" y1="377.3083261127947" y2="380.6695576829162" /><line stroke="#7B5FAF" stroke-dasharray="2,2" stroke-width="0.5" x1="133.02867697224838" x2="159.3662928885437" y1="377.3083261127947" y2="367.51414980646007" /><text dominant-baseline="middle" fill="#FFD700" font-family="&quot;Symbola&quot;, &quot;Noto Sans Symbols&quot;, &quot;Apple Symbols&quot;, &quot;Segoe UI Symbol&quot;, serif" font-size="18px" text-anchor="middle" x="159.3662928885437" y="367.51414980646007">♅</text><line stroke="#E8D4FF" stroke-width="1.0" x1="118.29026962715545" x2="110.38984656746658" y1="328.9408688160557" y2="330.199167460232" /><line stroke="#7B5FAF" stroke-dasharray="2,2" stroke-width="0.5" x1="118.29026962715545" x2="146.6869236534263" y1="328.9408688160557" y2="328.82881581247597" /><svg height="18.0" viewBox="0 0 12 12" width="18.0" x="137.6869236534263" y="319.82881581247597"><defs /><path d="M2.113 11A5.776 5.776 0 0 0 5 6a5.776 5.776 0 0 0-2.887-5m7.773 10A5.776 5.776 0 0 1 7 6a5.776 5.776 0 0 1 2.886-5M1 6h10" fill="none" stroke="#FFD700" stroke-linecap="round" stroke-linejoin="round" stroke-width="0.59999996" /></svg><line stroke="#E8D4FF" stroke-width="1.0" x1="117.58153605062805" x2="109.65029848761188" y1="275.9271104694163" y2="274.8804630985213" /><line stroke="#7B5FAF" stroke-dasharray="2,2" stroke-width="0.5" x1="117.58153605062805" x2="144.4427216670398" y1="275.9271104694163" y2="288.2555052198085" /><svg height="18.0" viewBox="0 0 12 12" width="18.0" x="135.4427216670398" y="279.2555052198085"><defs /><path d="M6 11V3M4 5h4m0 0a1.999 1.999 0 1 0-4 0 1.999 1.999 0 1 0 4 0ZM4 1a1.999 1.999 0 1 0 4 0" fill="none" stroke="#FFD700" stroke-linecap="round" stroke-linejoin="round" stroke-width="0.60000002" /></svg><line stroke="#E8D4FF" stroke-width="1.0" x1="136.94270924005878" x2="129.8532618157135" y1="214.74555771088532" y2="211.03884282874992" /><line stroke="#7B5FAF" stroke-dasharray="2,2" stroke-width="0.5" x1="136.94270924005878" x2="152.32517342238827" y1="214.74555771088532" y2="249.71933179369728" /><text dominant-baseline="middle" fill="#FFD700" font-family="&quot;Symbola&quot;, &quot;Noto Sans Symbols&quot;, &quot;Apple Symbols&quot;, &quot;Segoe UI Symbol&quot;, serif" font-size="18px" text-anchor="middle" x="152.32517342238827" y="249.71933179369728">☽</text><line stroke="#E8D4FF" stroke-width="1.0" x1="141.94416207748947" x2="135.07216912433682" y1="205.7962203591964" y2="201.70040385307453" /><line stroke="#7B5FAF" stroke-dasharray="2,2" stroke-width="0.5" x1="141.94416207748947" x2="169.45822394652137" y1="205.7962203591964" y2="214.5901369582913" /><svg height="18.0" viewBox="0 0 12 12" width="18.0" x="160.45822394652137" y="205.5901369582913"><defs /><path d="M6 10h2.5m0-5.25a1.25 1.25 0 1 0-2.5 0C6 5.442 6.559 6 7.25 6S8.5 5.442 8.5 4.75zM2.25 1a4.33 4.33 0 0 1 0 7.5h7.5M7.25 6v5" fill="none" stroke="#FFD700" stroke-linecap="round" stroke-linejoin="round" stroke-width="0.60000002" /></svg><line stroke="#E8D4FF" stroke-width="1.0" x1="219.32573404029523" x2="215.8181572594385" y1="134.62871225069685" y2="127.43865626159672" /><line stroke="#7B5FAF" stroke-dasharray="2,2" stroke-width="0.5" x1="219.32573404029523" x2="195.60582909276886" y1="134.62871225069685" y2="184.07822861691676" /><text dominant-baseline="middle" fill="#FFD700" font-family="&quot;Symbola&quot;, &quot;Noto Sans Symbols&quot;, &quot;Apple Symbols&quot;, &quot;Segoe UI Symbol&quot;, serif" font-size="18px" text-anchor="middle" x="195.60582909276886" y="184.07822861691676">☉</text><line stroke="#E8D4FF" stroke-width="1.0" x1="256.2232134830766" x2="254.31987493886257" y1="121.28348436070127" y2="113.51320107203608" /><line stroke="#7B5FAF" stroke-dasharray="2,2" stroke-width="0.5" x1="256.2232134830766" x2="226.36931550607852" y1="121.28348436070127" y2="162.46992219533723" /><svg height="18.0" viewBox="0 0 12 12" width="18.0" x="217.36931550607852" y="153.46992219533723"><defs /><path d="m3.5 7 5 4m-5 0 5-4m-5-3.5L6 1l2.5 2.5M6 9V1" fill="none" stroke="#FFD700" stroke-linecap="round" stroke-linejoin="round" stroke-width="0.60000002" /></svg><circle cx="300" cy="300" fill="none" r="250.0" stroke="#7B5FAF" stroke-width="0.5" /><circle cx="300" cy="300" fill="none" r="230.0" stroke="#7B5FAF" stroke-width="0.5" /><line stroke="#E8D4FF" stroke-width="0.8" x1="426.6323914295011" x2="429.9648227829091" y1="110.39979577847075" y2="105.41031672000943" /><text dominant-baseline="middle" fill="#E8D4FF" font-family="&quot;Symbola&quot;, &quot;Noto Sans Symbols&quot;, &quot;Apple Symbols&quot;, &quot;Segoe UI Symbol&quot;, serif" font-size="12px" text-anchor="middle" x="433.297254136317" y="100.42083766154815">☿</text><line stroke="#E8D4FF" stroke-width="0.8" x1="484.01610698100916" x2="488.85863611208833" y1="434.61824680017855" y2="438.1608322422885" /><text dominant-baseline="middle" fill="#E8D4FF" font-family="&quot;Symbola&quot;, &quot;Noto Sans Symbols&quot;, &quot;Apple Symbols&quot;, &quot;Segoe UI Symbol&quot;, serif" font-size="12px" text-anchor="middle" x="493.70116524316757" y="441.7034176843985">♇</text><line stroke="#E8D4FF" stroke-width="0.8" x1="318.9503406178368" x2="319.44903379199036" y1="527.2111013803418" y2="533.1903408903509" /><text dominant-baseline="middle" fill="#E8D4FF" font-family="&quot;Symbola&quot;, &quot;Noto Sans Symbols&quot;, &quot;Apple Symbols&quot;, &quot;Segoe UI Symbol&quot;, serif" font-size="12px" text-anchor="middle" x="319.947726966144" y="539.1695804003598">♃</text><line stroke="#E8D4FF" stroke-width="0.8" x1="221.48305669496182" x2="219.41682134482923" y1="514.053940898161" y2="519.6869393428494" /><line stroke="#7B5FAF" stroke-dasharray="2,2" stroke-width="0.5" x1="219.41682134482923" x2="236.49473557639175" y1="519.6869393428494" y2="531.4456337684675" /><text dominant-baseline="middle" fill="#E8D4FF" font-family="&quot;Symbola&quot;, &quot;Noto Sans Symbols&quot;, &quot;Apple Symbols&quot;, &quot;Segoe UI Symbol&quot;, serif" font-size="12px" text-anchor="middle" x="236.49473557639175" y="531.4456337684675">♅</text><line stroke="#E8D4FF" stroke-width="0.8" x1="172.39404897898788" x2="169.03599763632968" y1="488.9463449342777" y2="493.9186171693903" /><line stroke="#7B5FAF" stroke-dasharray="2,2" stroke-width="0.5" x1="169.03599763632968" x2="188.68520725836896" y1="493.9186171693903" y2="512.6241212019175" /><text dominant-baseline="middle" fill="#E8D4FF" font-family="&quot;Symbola&quot;, &quot;Noto Sans Symbols&quot;, &quot;Apple Symbols&quot;, &quot;Segoe UI Symbol&quot;, serif" font-size="12px" text-anchor="middle" x="188.68520725836896" y="512.6241212019175">☽</text><line stroke="#E8D4FF" stroke-width="0.8" x1="172.18030141987532" x2="168.816625141451" y1="488.8018131663096" y2="493.7702819338441" /><line stroke="#7B5FAF" stroke-dasharray="2,2" stroke-width="0.5" x1="168.816625141451" x2="146.70158453377604" y1="493.7702819338441" y2="484.66075873218165" /><text dominant-baseline="middle" fill="#E8D4FF" font-family="&quot;Symbola&quot;, &quot;Noto Sans Symbols&quot;, &quot;Apple Symbols&quot;, &quot;Segoe UI Symbol&quot;, serif" font-size="12px" text-anchor="middle" x="146.70158453377604" y="484.66075873218165">♂</text><line stroke="#E8D4FF" stroke-width="0.8" x1="81.22661050772001" x2="75.46941604739686" y1="364.2043927629501" y2="365.89398204618556" /><text dominant-baseline="middle" fill="#E8D4FF" font-family="&quot;Symbola&quot;, &quot;Noto Sans Symbols&quot;, &quot;Apple Symbols&quot;, &quot;Segoe UI Symbol&quot;, serif" font-size="12px" text-anchor="middle" x="69.71222158707371" y="367.58357132942115">♀</text><line stroke="#E8D4FF" stroke-width="0.8" x1="81.15738137591399" x2="75.39836509633278" y1="236.03197459861025" y2="234.3486055091" /><text dominant-baseline="middle" fill="#E8D4FF" font-family="&quot;Symbola&quot;, &quot;Noto Sans Symbols&quot;, &quot;Apple Symbols&quot;, &quot;Segoe UI Symbol&quot;, serif" font-size="12px" text-anchor="middle" x="69.63934881675155" y="232.66523641958975">♄</text><line stroke="#E8D4FF" stroke-width="0.8" x1="215.5138035339584" x2="213.29048257432572" y1="88.23106316860017" y2="82.65819640987911" /><line stroke="#7B5FAF" stroke-dasharray="2,2" stroke-width="0.5" x1="213.29048257432572" x2="207.96345560356858" y1="82.65819640987911" y2="78.34875480709857" /><text dominant-baseline="middle" fill="#E8D4FF" font-family="&quot;Symbola&quot;, &quot;Noto Sans Symbols&quot;, &quot;Apple Symbols&quot;, &quot;Segoe UI Symbol&quot;, serif" font-size="12px" text-anchor="middle" x="207.96345560356858" y="78.34875480709857">☉</text><line stroke="#E8D4FF" stroke-width="0.8" x1="256.5414844247551" x2="255.39783927803813" y1="76.18007813423714" y2="70.29008019040126" /><line stroke="#7B5FAF" stroke-dasharray="2,2" stroke-width="0.5" x1="255.39783927803813" x2="257.54814178862944" y1="70.29008019040126" y2="63.78433639065827" /><text dominant-baseline="middle" fill="#E8D4FF" font-family="&quot;Symbola&quot;, &quot;Noto Sans Symbols&quot;, &quot;Apple Symbols&quot;, &quot;Segoe UI Symbol&quot;, serif" font-size="12px" text-anchor="middle" x="257.54814178862944" y="63.78433639065827">♆</text><circle cx="300" cy="300" fill="none" r="274.0" stroke="#7B5FAF" stroke-width="0.5" /><circle cx="300" cy="300" fill="none" r="254.0" stroke="#7B5FAF" stroke-width="0.5" /><line stroke="#E8D4FF" stroke-width="0.8" x1="426.96624877961005" x2="429.9892547029341" y1="82.3223216063848" y2="77.13951973987017" /><line stroke="#7B5FAF" stroke-dasharray="2,2" stroke-width="0.5" x1="429.9892547029341" x2="423.34612475714846" y1="77.13951973987017" y2="66.5867752088713" /><text dominant-baseline="middle" fill="#E8D4FF" font-family="&quot;Symbola&quot;, &quot;Noto Sans Symbols&quot;, &quot;Apple Symbols&quot;, &quot;Segoe UI Symbol&quot;, serif" font-size="12px" text-anchor="middle" x="423.34612475714846" y="66.5867752088713">♀</text><line stroke="#E8D4FF" stroke-width="0.8" x1="456.0029088232778" x2="459.7172637952606" y1="102.09322285814446" y2="97.38115673571932" /><line stroke="#7B5FAF" stroke-dasharray="2,2" stroke-width="0.5" x1="459.7172637952606" x2="471.9703788392037" y1="97.38115673571932" y2="99.69476092248419" /><text dominant-baseline="middle" fill="#E8D4FF" font-family="&quot;Symbola&quot;, &quot;Noto Sans Symbols&quot;, &quot;Apple Symbols&quot;, &quot;Segoe UI Symbol&quot;, serif" font-size="12px" text-anchor="middle" x="471.9703788392037" y="99.69476092248419">☿</text><line stroke="#E8D4FF" stroke-width="0.8" x1="544.4059046899193" x2="550.2250928968222" y1="238.60167956122848" y2="237.13981478887678" /><text dominant-baseline="middle" fill="#E8D4FF" font-family="&quot;Symbola&quot;, &quot;Noto Sans Symbols&quot;, &quot;Apple Symbols&quot;, &quot;Segoe UI Symbol&quot;, serif" font-size="12px" text-anchor="middle" x="556.044281103725" y="235.67795001652507">♂</text><line stroke="#E8D4FF" stroke-width="0.8" x1="484.6208244608348" x2="489.016558376569" y1="471.5201188648189" y2="475.6039312187432" /><text dominant-baseline="middle" fill="#E8D4FF" font-family="&quot;Symbola&quot;, &quot;Noto Sans Symbols&quot;, &quot;Apple Symbols&quot;, &quot;Segoe UI Symbol&quot;, serif" font-size="12px" text-anchor="middle" x="493.41229229230316" y="479.68774357266744">♇</text><line stroke="#E8D4FF" stroke-width="0.8" x1="151.16418275127296" x2="147.62047281677945" y1="503.351664620439" y2="508.1933709209257" /><text dominant-baseline="middle" fill="#E8D4FF" font-family="&quot;Symbola&quot;, &quot;Noto Sans Symbols&quot;, &quot;Apple Symbols&quot;, &quot;Segoe UI Symbol&quot;, serif" font-size="12px" text-anchor="middle" x="144.07676288228595" y="513.0350772214124">♅</text><line stroke="#E8D4FF" stroke-width="0.8" x1="70.61934562004836" x2="65.15790146814476" y1="195.65195068318158" y2="193.1674733184954" /><text dominant-baseline="middle" fill="#E8D4FF" font-family="&quot;Symbola&quot;, &quot;Noto Sans Symbols&quot;, &quot;Apple Symbols&quot;, &quot;Segoe UI Symbol&quot;, serif" font-size="12px" text-anchor="middle" x="59.69645731624112" y="190.68299595380927">♃</text><line stroke="#E8D4FF" stroke-width="0.8" x1="172.0486062028857" x2="169.00214444581155" y1="82.89992900651603" y2="77.73087969714737" /><line stroke="#7B5FAF" stroke-dasharray="2,2" stroke-width="0.5" x1="169.00214444581155" x2="144.40134649329983" y1="77.73087969714737" y2="86.72773497967" /><text dominant-baseline="middle" fill="#E8D4FF" font-family="&quot;Symbola&quot;, &quot;Noto Sans Symbols&quot;, &quot;Apple Symbols&quot;, &quot;Segoe UI Symbol&quot;, serif" font-size="12px" text-anchor="middle" x="144.40134649329983" y="86.72773497967">♄</text><line stroke="#E8D4FF" stroke-width="0.8" x1="202.65247293509057" x2="200.33467467164036" y1="67.56192443072774" y2="62.02768453622127" /><line stroke="#7B5FAF" stroke-dasharray="2,2" stroke-width="0.5" x1="200.33467467164036" x2="194.62693487452026" y1="62.02768453622127" y2="57.94108744757733" /><text dominant-baseline="middle" fill="#E8D4FF" font-family="&quot;Symbola&quot;, &quot;Noto Sans Symbols&quot;, &quot;Apple Symbols&quot;, &quot;Segoe UI Symbol&quot;, serif" font-size="12px" text-anchor="middle" x="194.62693487452026" y="57.94108744757733">☉</text><line stroke="#E8D4FF" stroke-width="0.8" x1="273.61331645114745" x2="272.9850620809367" y1="49.38526992354835" y2="43.41825254077571" /><line stroke="#7B5FAF" stroke-dasharray="2,2" stroke-width="0.5" x1="272.9850620809367" x2="250.48424186533697" y1="43.41825254077571" y2="40.68515334375945" /><text dominant-baseline="middle" fill="#E8D4FF" font-family="&quot;Symbola&quot;, &quot;Noto Sans Symbols&quot;, &quot;Apple Symbols&quot;, &quot;Segoe UI Symbol&quot;, serif" font-size="12px" text-anchor="middle" x="250.48424186533697" y="40.68515334375945">☽</text><line stroke="#E8D4FF" stroke-width="0.8" x1="289.4686104397396" x2="289.21786306925725" y1="48.220156021316825" y2="42.225397831348175" /><line stroke="#7B5FAF" stroke-dasharray="2,2" stroke-width="0.5" x1="289.21786306925725" x2="307.3936117107829" y1="42.225397831348175" y2="36.103553442131044" /><text dominant-baseline="middle" fill="#E8D4FF" font-family="&quot;Symbola&quot;, &quot;Noto Sans Symbols&quot;, &quot;Apple Symbols&quot;, &quot;Segoe UI Symbol&quot;, serif" font-size="12px" text-anchor="middle" x="307.3936117107829" y="36.103553442131044">♆</text></svg>