<?xml version="1.0" encoding="utf-8" ?>
<svg baseProfile="full" height="700px" version="1.1" viewBox="0 0 700 700" width="700px" xmlns="http://www.w3.org/2000/svg" xmlns:ev="http://www.w3.org/2001/xml-events" xmlns:xlink="http://www.w3.org/1999/xlink"><defs /><rect fill="#FFFFFF" height="700px" width="700px" x="0" y="0" /><circle cx="350" cy="350" fill="none" r="252.0" stroke="#BBBBBB" stroke-width="1" /><path d="M 350.0 210.0 A 140.0 140.0 0 0 1 471.24355652982143 420.0 L 398.4974226119286 378.0 A 56.0 56.0 0 0 0 350.0 294.0 Z" fill="#F5F5F5" stroke="none" /><path d="M 471.24355652982143 420.0 A 140.0 140.0 0 0 1 228.75644347017857 420.0 L 301.5025773880714 378.0 A 56.0 56.0 0 0 0 398.4974226119286 378.0 Z" fill="#FFFFFF" stroke="none" /><path d="M 228.75644347017857 420.0 A 140.0 140.0 0 0 1 350.0 210.0 L 350.0 294.0 A 56.0 56.0 0 0 0 301.5025773880714 378.0 Z" fill="#F5F5F5" stroke="none" /><line stroke="#CCCCCC" stroke-width="1.0" x1="350.0" x2="350.0" y1="294.0" y2="210.0" /><line stroke="#CCCCCC" stroke-width="1.0" x1="398.4974226119286" x2="471.24355652982143" y1="378.0" y2="420.0" /><line stroke="#CCCCCC" stroke-width="1.0" x1="301.5025773880714" x2="228.75644347017857" y1="378.0" y2="420.0" /><text dominant-baseline="middle" fill="#555555" font-family="&quot;Symbola&quot;, &quot;Noto Sans Symbols&quot;, &quot;Apple Symbols&quot;, &quot;Segoe UI Symbol&quot;, serif" font-size="14px" text-anchor="middle" x="413.90857008222775" y="283.8207383688441">♈</text><text dominant-baseline="middle" fill="#555555" font-family="&quot;Symbola&quot;, &quot;Noto Sans Symbols&quot;, &quot;Apple Symbols&quot;, &quot;Segoe UI Symbol&quot;, serif" font-size="14px" text-anchor="middle" x="439.2672068173917" y="327.74318560483056">♋</text><text dominant-baseline="middle" fill="#555555" font-family="&quot;Symbola&quot;, &quot;Noto Sans Symbols&quot;, &quot;Apple Symbols&quot;, &quot;Segoe UI Symbol&quot;, serif" font-size="14px" text-anchor="middle" x="422.2444705277357" y="275.18866076478025">♎</text><text dominant-baseline="middle" fill="#555555" font-family="&quot;Symbola&quot;, &quot;Noto Sans Symbols&quot;, &quot;Apple Symbols&quot;, &quot;Segoe UI Symbol&quot;, serif" font-size="14px" text-anchor="middle" x="450.91075553270366" y="324.8401228576345">♑</text><text dominant-baseline="middle" fill="#555555" font-family="&quot;Symbola&quot;, &quot;Noto Sans Symbols&quot;, &quot;Apple Symbols&quot;, &quot;Segoe UI Symbol&quot;, serif" font-size="14px" text-anchor="middle" x="375.35863673516394" y="438.43607602632534">♉</text><text dominant-baseline="middle" fill="#555555" font-family="&quot;Symbola&quot;, &quot;Noto Sans Symbols&quot;, &quot;Apple Symbols&quot;, &quot;Segoe UI Symbol&quot;, serif" font-size="14px" text-anchor="middle" x="324.64136326483606" y="438.43607602632534">♌</text><text dominant-baseline="middle" fill="#555555" font-family="&quot;Symbola&quot;, &quot;Noto Sans Symbols&quot;, &quot;Apple Symbols&quot;, &quot;Segoe UI Symbol&quot;, serif" font-size="14px" text-anchor="middle" x="378.6662850049679" y="449.97121637758516">♏</text><text dominant-baseline="middle" fill="#555555" font-family="&quot;Symbola&quot;, &quot;Noto Sans Symbols&quot;, &quot;Apple Symbols&quot;, &quot;Segoe UI Symbol&quot;, serif" font-size="14px" text-anchor="middle" x="321.3337149950321" y="449.97121637758516">♒</text><text dominant-baseline="middle" fill="#555555" font-family="&quot;Symbola&quot;, &quot;Noto Sans Symbols&quot;, &quot;Apple Symbols&quot;, &quot;Segoe UI Symbol&quot;, serif" font-size="14px" text-anchor="middle" x="260.7327931826083" y="327.7431856048306">♊</text><text dominant-baseline="middle" fill="#555555" font-family="&quot;Symbola&quot;, &quot;Noto Sans Symbols&quot;, &quot;Apple Symbols&quot;, &quot;Segoe UI Symbol&quot;, serif" font-size="14px" text-anchor="middle" x="286.09142991777225" y="283.8207383688441">♍</text><text dominant-baseline="middle" fill="#555555" font-family="&quot;Symbola&quot;, &quot;Noto Sans Symbols&quot;, &quot;Apple Symbols&quot;, &quot;Segoe UI Symbol&quot;, serif" font-size="14px" text-anchor="middle" x="249.08924446729637" y="324.8401228576346">♐</text><text dominant-baseline="middle" fill="#555555" font-family="&quot;Symbola&quot;, &quot;Noto Sans Symbols&quot;, &quot;Apple Symbols&quot;, &quot;Segoe UI Symbol&quot;, serif" font-size="14px" text-anchor="middle" x="277.7555294722643" y="275.18866076478025">♓</text><line stroke="#BBBBBB" stroke-width="0.5" x1="349.99999999999994" x2="349.99999999999994" y1="117.6" y2="98.0" /><line stroke="#BBBBBB" stroke-width="0.5" x1="366.9926770040689" x2="367.57863138351956" y1="106.9933973567068" y2="98.61385933452428" /><line stroke="#BBBBBB" stroke-width="0.5" x1="383.90256739387195" x2="385.0716214419365" y1="108.77069845455347" y2="100.45244667712427" /><line stroke="#BBBBBB" stroke-width="0.5" x1="400.6472878832062" x2="402.3937460860754" y1="111.72324446124497" y2="103.506804615081" /><line stroke="#BBBBBB" stroke-width="0.5" x1="417.14525987702103" x2="419.46061366588384" y1="115.83665086942554" y2="107.76205262354367" /><line stroke="#BBBBBB" stroke-width="0.5" x1="431.4007941115092" x2="436.18907611806856" y1="126.35315625295382" y2="113.19745956195109" /><line stroke="#BBBBBB" stroke-width="0.5" x1="449.08104625326484" x2="452.49763405510157" y1="127.46032651826238" y2="119.78654467406452" /><line stroke="#BBBBBB" stroke-width="0.5" x1="464.3632726946429" x2="468.3068338220444" y1="134.91396637956535" y2="127.49720659955037" /><line stroke="#BBBBBB" stroke-width="0.5" x1="479.08833276720867" x2="483.5396545867676" y1="143.4154837762946" y2="136.2918797685806" /><line stroke="#BBBBBB" stroke-width="0.5" x1="493.18448745844637" x2="498.1218835777032" y1="152.92346017026279" y2="146.12771741751322" /><line stroke="#BBBBBB" stroke-width="0.5" x1="499.3838404911517" x2="511.9824776410079" y1="171.97127141914947" y2="156.95680033401752" /><line stroke="#BBBBBB" stroke-width="0.5" x1="519.2187790438118" x2="525.0539093556673" y1="174.76882463750457" y2="168.7263703146599" /><line stroke="#BBBBBB" stroke-width="0.5" x1="531.0300794862933" x2="537.2724960203034" y1="186.99978429098218" y2="181.37908719756774" /><line stroke="#BBBBBB" stroke-width="0.5" x1="541.9594195785975" x2="548.578709908894" y1="200.02486461066968" y2="194.85330821793414" /><line stroke="#BBBBBB" stroke-width="0.5" x1="551.9535526744082" x2="558.9174682838706" y1="213.78060871452612" y2="209.08338832537186" /><line stroke="#BBBBBB" stroke-width="0.5" x1="556.1140461006963" x2="568.2384017536784" y1="230.9999999999999" y2="223.9999999999999" /><line stroke="#BBBBBB" stroke-width="0.5" x1="568.946229678477" x2="576.49609966739" y1="243.21278864218067" y2="239.5304710091524" /><line stroke="#BBBBBB" stroke-width="0.5" x1="575.8619869724694" x2="583.6503313508304" y1="258.74583384388376" y2="255.5991384591901" /><line stroke="#BBBBBB" stroke-width="0.5" x1="581.6773673694994" x2="589.6662421063787" y1="274.72346017026274" y2="272.12771741751317" /><line stroke="#BBBBBB" stroke-width="0.5" x1="586.3640389208327" x2="594.5145230215511" y1="291.0678262319209" y2="289.0356823088837" /><line stroke="#BBBBBB" stroke-width="0.5" x1="578.8693218000371" x2="598.1715537590765" y1="309.6441635102054" y2="306.2406592279335" /><line stroke="#BBBBBB" stroke-width="0.5" x1="592.2655337117113" x2="600.6195176328049" y1="324.53686634799965" y2="323.6588272565513" /><line stroke="#BBBBBB" stroke-width="0.5" x1="593.4516054618517" x2="601.8464884088121" y1="341.4984826032708" y2="341.2053268309698" /><line stroke="#BBBBBB" stroke-width="0.5" x1="593.4516054618517" x2="601.8464884088121" y1="358.50151739672924" y2="358.79467316903026" /><line stroke="#BBBBBB" stroke-width="0.5" x1="592.2655337117113" x2="600.6195176328049" y1="375.4631336520004" y2="376.3411727434487" /><line stroke="#BBBBBB" stroke-width="0.5" x1="584.3842452169055" x2="598.1715537590765" y1="391.3282662847294" y2="393.7593407720664" /><line stroke="#BBBBBB" stroke-width="0.5" x1="586.3640389208327" x2="594.5145230215511" y1="408.93217376807905" y2="410.96431769111626" /><line stroke="#BBBBBB" stroke-width="0.5" x1="581.6773673694994" x2="589.6662421063787" y1="425.2765398297372" y2="427.8722825824867" /><line stroke="#BBBBBB" stroke-width="0.5" x1="575.8619869724694" x2="583.6503313508305" y1="441.2541661561162" y2="444.40086154080984" /><line stroke="#BBBBBB" stroke-width="0.5" x1="568.946229678477" x2="576.4960996673901" y1="456.7872113578193" y2="460.4695289908475" /><line stroke="#BBBBBB" stroke-width="0.5" x1="551.2643038395036" x2="568.2384017536785" y1="466.2" y2="476.0" /><line stroke="#BBBBBB" stroke-width="0.5" x1="551.9535526744082" x2="558.9174682838704" y1="486.21939128547393" y2="490.91661167462826" /><line stroke="#BBBBBB" stroke-width="0.5" x1="541.9594195785975" x2="548.5787099088939" y1="499.9751353893304" y2="505.1466917820659" /><line stroke="#BBBBBB" stroke-width="0.5" x1="531.0300794862933" x2="537.2724960203034" y1="513.0002157090179" y2="518.6209128024323" /><line stroke="#BBBBBB" stroke-width="0.5" x1="519.2187790438118" x2="525.0539093556673" y1="525.2311753624954" y2="531.2736296853401" /><line stroke="#BBBBBB" stroke-width="0.5" x1="502.9834511053964" x2="511.9824776410079" y1="532.3185774623167" y2="543.0431996659825" /><line stroke="#BBBBBB" stroke-width="0.5" x1="493.1844874584465" x2="498.1218835777032" y1="547.0765398297372" y2="553.8722825824867" /><line stroke="#BBBBBB" stroke-width="0.5" x1="479.0883327672087" x2="483.5396545867676" y1="556.5845162237054" y2="563.7081202314193" /><line stroke="#BBBBBB" stroke-width="0.5" x1="464.363272694643" x2="468.3068338220445" y1="565.0860336204346" y2="572.5027934004496" /><line stroke="#BBBBBB" stroke-width="0.5" x1="449.08104625326496" x2="452.4976340551017" y1="572.5396734817375" y2="580.2134553259355" /><line stroke="#BBBBBB" stroke-width="0.5" x1="429.4854813088854" x2="436.18907611806856" y1="568.3845650706451" y2="586.8025404380489" /><line stroke="#BBBBBB" stroke-width="0.5" x1="417.145259877021" x2="419.4606136658838" y1="584.1633491305745" y2="592.2379473764563" /><line stroke="#BBBBBB" stroke-width="0.5" x1="400.6472878832062" x2="402.3937460860754" y1="588.276755538755" y2="596.493195384919" /><line stroke="#BBBBBB" stroke-width="0.5" x1="383.90256739387195" x2="385.0716214419365" y1="591.2293015454466" y2="599.5475533228757" /><line stroke="#BBBBBB" stroke-width="0.5" x1="366.9926770040689" x2="367.57863138351956" y1="593.0066026432931" y2="601.3861406654758" /><line stroke="#BBBBBB" stroke-width="0.5" x1="350.0" x2="350.0" y1="588.0" y2="602.0" /><line stroke="#BBBBBB" stroke-width="0.5" x1="333.0073229959311" x2="332.42136861648044" y1="593.0066026432931" y2="601.3861406654758" /><line stroke="#BBBBBB" stroke-width="0.5" x1="316.0974326061281" x2="314.9283785580635" y1="591.2293015454466" y2="599.5475533228757" /><line stroke="#BBBBBB" stroke-width="0.5" x1="299.35271211679384" x2="297.60625391392466" y1="588.2767555387551" y2="596.4931953849191" /><line stroke="#BBBBBB" stroke-width="0.5" x1="282.854740122979" x2="280.5393863341162" y1="584.1633491305745" y2="592.2379473764563" /><line stroke="#BBBBBB" stroke-width="0.5" x1="270.5145186911146" x2="263.8109238819315" y1="568.3845650706451" y2="586.8025404380489" /><line stroke="#BBBBBB" stroke-width="0.5" x1="250.91895374673504" x2="247.50236594489832" y1="572.5396734817375" y2="580.2134553259355" /><line stroke="#BBBBBB" stroke-width="0.5" x1="235.63672730535697" x2="231.6931661779555" y1="565.0860336204346" y2="572.5027934004496" /><line stroke="#BBBBBB" stroke-width="0.5" x1="220.9116672327913" x2="216.4603454132324" y1="556.5845162237054" y2="563.7081202314193" /><line stroke="#BBBBBB" stroke-width="0.5" x1="206.81551254155357" x2="201.87811642229678" y1="547.0765398297372" y2="553.8722825824867" /><line stroke="#BBBBBB" stroke-width="0.5" x1="197.01654889460363" x2="188.01752235899207" y1="532.3185774623167" y2="543.0431996659825" /><line stroke="#BBBBBB" stroke-width="0.5" x1="180.78122095618824" x2="174.94609064433266" y1="525.2311753624954" y2="531.2736296853401" /><line stroke="#BBBBBB" stroke-width="0.5" x1="168.96992051370682" x2="162.7275039796967" y1="513.0002157090179" y2="518.6209128024324" /><line stroke="#BBBBBB" stroke-width="0.5" x1="158.04058042140255" x2="151.42129009110607" y1="499.9751353893304" y2="505.1466917820659" /><line stroke="#BBBBBB" stroke-width="0.5" x1="148.04644732559186" x2="141.08253171612952" y1="486.21939128547393" y2="490.91661167462826" /><line stroke="#BBBBBB" stroke-width="0.5" x1="148.73569616049645" x2="131.76159824632146" y1="466.2" y2="476.0" /><line stroke="#BBBBBB" stroke-width="0.5" x1="131.0537703215229" x2="123.5039003326099" y1="456.7872113578192" y2="460.4695289908475" /><line stroke="#BBBBBB" stroke-width="0.5" x1="124.1380130275306" x2="116.34966864916959" y1="441.2541661561162" y2="444.4008615408099" /><line stroke="#BBBBBB" stroke-width="0.5" x1="118.3226326305006" x2="110.33375789362131" y1="425.2765398297372" y2="427.8722825824868" /><line stroke="#BBBBBB" stroke-width="0.5" x1="113.63596107916726" x2="105.4854769784489" y1="408.93217376807905" y2="410.96431769111626" /><line stroke="#BBBBBB" stroke-width="0.5" x1="115.6157547830945" x2="101.82844624092357" y1="391.3282662847294" y2="393.7593407720664" /><line stroke="#BBBBBB" stroke-width="0.5" x1="107.73446628828864" x2="99.38048236719513" y1="375.46313365200047" y2="376.34117274344874" /><line stroke="#BBBBBB" stroke-width="0.5" x1="106.54839453814827" x2="98.15351159118788" y1="358.5015173967293" y2="358.79467316903026" /><line stroke="#BBBBBB" stroke-width="0.5" x1="106.54839453814827" x2="98.15351159118788" y1="341.49848260327076" y2="341.2053268309698" /><line stroke="#BBBBBB" stroke-width="0.5" x1="107.73446628828864" x2="99.38048236719513" y1="324.5368663479996" y2="323.6588272565513" /><line stroke="#BBBBBB" stroke-width="0.5" x1="121.13067819996286" x2="101.82844624092357" y1="309.6441635102054" y2="306.2406592279335" /><line stroke="#BBBBBB" stroke-width="0.5" x1="113.63596107916726" x2="105.4854769784489" y1="291.067826231921" y2="289.0356823088838" /><line stroke="#BBBBBB" stroke-width="0.5" x1="118.32263263050058" x2="110.33375789362128" y1="274.72346017026285" y2="272.1277174175133" /><line stroke="#BBBBBB" stroke-width="0.5" x1="124.13801302753058" x2="116.34966864916956" y1="258.7458338438838" y2="255.59913845919016" /><line stroke="#BBBBBB" stroke-width="0.5" x1="131.05377032152293" x2="123.50390033260993" y1="243.21278864218073" y2="239.53047100915248" /><line stroke="#BBBBBB" stroke-width="0.5" x1="143.88595389930362" x2="131.76159824632148" y1="230.99999999999997" y2="223.99999999999997" /><line stroke="#BBBBBB" stroke-width="0.5" x1="148.0464473255918" x2="141.08253171612947" y1="213.78060871452612" y2="209.08338832537183" /><line stroke="#BBBBBB" stroke-width="0.5" x1="158.04058042140252" x2="151.42129009110604" y1="200.02486461066968" y2="194.85330821793414" /><line stroke="#BBBBBB" stroke-width="0.5" x1="168.96992051370677" x2="162.72750397969665" y1="186.99978429098215" y2="181.3790871975677" /><line stroke="#BBBBBB" stroke-width="0.5" x1="180.78122095618826" x2="174.94609064433268" y1="174.76882463750457" y2="168.7263703146599" /><line stroke="#BBBBBB" stroke-width="0.5" x1="200.61615950884823" x2="188.01752235899204" y1="171.97127141914953" y2="156.95680033401757" /><line stroke="#BBBBBB" stroke-width="0.5" x1="206.81551254155352" x2="201.87811642229673" y1="152.92346017026284" y2="146.12771741751328" /><line stroke="#BBBBBB" stroke-width="0.5" x1="220.91166723279127" x2="216.46034541323235" y1="143.41548377629465" y2="136.29187976858066" /><line stroke="#BBBBBB" stroke-width="0.5" x1="235.636727305357" x2="231.69316617795553" y1="134.91396637956538" y2="127.4972065995504" /><line stroke="#BBBBBB" stroke-width="0.5" x1="250.9189537467351" x2="247.50236594489837" y1="127.4603265182624" y2="119.78654467406454" /><line stroke="#BBBBBB" stroke-width="0.5" x1="268.59920588849087" x2="263.81092388193156" y1="126.3531562529538" y2="113.19745956195106" /><line stroke="#BBBBBB" stroke-width="0.5" x1="282.8547401229791" x2="280.5393863341163" y1="115.83665086942548" y2="107.76205262354361" /><line stroke="#BBBBBB" stroke-width="0.5" x1="299.3527121167937" x2="297.60625391392455" y1="111.72324446124497" y2="103.506804615081" /><line stroke="#BBBBBB" stroke-width="0.5" x1="316.097432606128" x2="314.9283785580634" y1="108.7706984545535" y2="100.4524466771243" /><line stroke="#BBBBBB" stroke-width="0.5" x1="333.007322995931" x2="332.4213686164804" y1="106.99339735670682" y2="98.6138593345243" /><text dominant-baseline="middle" fill="#555555" font-family="&quot;Arial&quot;, &quot;Helvetica&quot;, sans-serif" font-size="8px" text-anchor="middle" x="349.99999999999994" y="134.0">0</text><text dominant-baseline="middle" fill="#555555" font-family="&quot;Arial&quot;, &quot;Helvetica&quot;, sans-serif" font-size="8px" text-anchor="middle" x="423.8763509583445" y="147.0263939102438">5</text><text dominant-baseline="middle" fill="#555555" font-family="&quot;Arial&quot;, &quot;Helvetica&quot;, sans-serif" font-size="8px" text-anchor="middle" x="488.8421236922925" y="184.53440028630072">10</text><text dominant-baseline="middle" fill="#555555" font-family="&quot;Arial&quot;, &quot;Helvetica&quot;, sans-serif" font-size="8px" text-anchor="middle" x="537.0614872174388" y="241.9999999999999">15</text><text dominant-baseline="middle" fill="#555555" font-family="&quot;Arial&quot;, &quot;Helvetica&quot;, sans-serif" font-size="8px" text-anchor="middle" x="562.718474650637" y="312.491993623943">20</text><text dominant-baseline="middle" fill="#555555" font-family="&quot;Arial&quot;, &quot;Helvetica&quot;, sans-serif" font-size="8px" text-anchor="middle" x="562.718474650637" y="387.508006376057">25</text><text dominant-baseline="middle" fill="#555555" font-family="&quot;Arial&quot;, &quot;Helvetica&quot;, sans-serif" font-size="8px" text-anchor="middle" x="537.0614872174388" y="458.0">30</text><text dominant-baseline="middle" fill="#555555" font-family="&quot;Arial&quot;, &quot;Helvetica&quot;, sans-serif" font-size="8px" text-anchor="middle" x="488.8421236922925" y="515.4655997136992">35</text><text dominant-baseline="middle" fill="#555555" font-family="&quot;Arial&quot;, &quot;Helvetica&quot;, sans-serif" font-size="8px" text-anchor="middle" x="423.87635095834446" y="552.9736060897562">40</text><text dominant-baseline="middle" fill="#555555" font-family="&quot;Arial&quot;, &quot;Helvetica&quot;, sans-serif" font-size="8px" text-anchor="middle" x="350.0" y="566.0">45</text><text dominant-baseline="middle" fill="#555555" font-family="&quot;Arial&quot;, &quot;Helvetica&quot;, sans-serif" font-size="8px" text-anchor="middle" x="276.12364904165554" y="552.9736060897562">50</text><text dominant-baseline="middle" fill="#555555" font-family="&quot;Arial&quot;, &quot;Helvetica&quot;, sans-serif" font-size="8px" text-anchor="middle" x="211.1578763077075" y="515.4655997136992">55</text><text dominant-baseline="middle" fill="#555555" font-family="&quot;Arial&quot;, &quot;Helvetica&quot;, sans-serif" font-size="8px" text-anchor="middle" x="162.93851278256125" y="458.0">60</text><text dominant-baseline="middle" fill="#555555" font-family="&quot;Arial&quot;, &quot;Helvetica&quot;, sans-serif" font-size="8px" text-anchor="middle" x="137.28152534936308" y="387.5080063760569">65</text><text dominant-baseline="middle" fill="#555555" font-family="&quot;Arial&quot;, &quot;Helvetica&quot;, sans-serif" font-size="8px" text-anchor="middle" x="137.28152534936308" y="312.491993623943">70</text><text dominant-baseline="middle" fill="#555555" font-family="&quot;Arial&quot;, &quot;Helvetica&quot;, sans-serif" font-size="8px" text-anchor="middle" x="162.93851278256128" y="241.99999999999997">75</text><text dominant-baseline="middle" fill="#555555" font-family="&quot;Arial&quot;, &quot;Helvetica&quot;, sans-serif" font-size="8px" text-anchor="middle" x="211.15787630770748" y="184.53440028630078">80</text><text dominant-baseline="middle" fill="#555555" font-family="&quot;Arial&quot;, &quot;Helvetica&quot;, sans-serif" font-size="8px" text-anchor="middle" x="276.1236490416556" y="147.02639391024377">85</text><line stroke="#555555" stroke-width="2.0" x1="349.99999999999994" x2="349.99999999999994" y1="131.0" y2="83.0" /><polygon fill="#555555" points="349.99999999999994,131.0 353.38094609392556,123.7495377037068 346.6190539060743,123.7495377037068" /><line stroke="#555555" stroke-width="4.0" x1="349.99999999999994" x2="349.99999999999994" y1="101.0" y2="95.0" /><line stroke="#555555" stroke-width="2.0" x1="569.0" x2="617.0" y1="350.0" y2="350.0" /><polygon fill="#555555" points="569.0,350.0 576.2504622962932,353.3809460939256 576.2504622962932,346.6190539060744" /><line stroke="#555555" stroke-width="4.0" x1="599.0" x2="605.0" y1="350.0" y2="350.0" /><line stroke="#555555" stroke-width="2.0" x1="350.0" x2="350.0" y1="569.0" y2="617.0" /><polygon fill="#555555" points="350.0,569.0 346.6190539060744,576.2504622962932 353.3809460939256,576.2504622962932" /><line stroke="#555555" stroke-width="4.0" x1="350.0" x2="350.0" y1="599.0" y2="605.0" /><line stroke="#555555" stroke-width="2.0" x1="131.0" x2="83.0" y1="350.0" y2="350.00000000000006" /><polygon fill="#555555" points="131.0,350.0 123.7495377037068,346.6190539060744 123.7495377037068,353.3809460939256" /><line stroke="#555555" stroke-width="4.0" x1="101.0" x2="95.0" y1="350.00000000000006" y2="350.00000000000006" /><line stroke="#444444" stroke-width="1.0" x1="349.99999999999994" x2="349.99999999999994" y1="134.0" y2="126.0" /><line stroke="#CCCCCC" stroke-dasharray="2,2" stroke-width="0.5" x1="349.99999999999994" x2="380.35191190233064" y1="134.0" y2="170.5487212531681" /><text dominant-baseline="middle" fill="#222222" font-family="&quot;Symbola&quot;, &quot;Noto Sans Symbols&quot;, &quot;Apple Symbols&quot;, &quot;Segoe UI Symbol&quot;, serif" font-size="18px" text-anchor="middle" x="380.35191190233064" y="170.5487212531681">♈</text><line stroke="#444444" stroke-width="1.0" x1="400.32101384855713" x2="402.18475510220736" y1="139.94335153284644" y2="132.1634756636926" /><line stroke="#CCCCCC" stroke-dasharray="2,2" stroke-width="0.5" x1="400.32101384855713" x2="425.97057042625516" y1="139.94335153284644" y2="184.61417101483752" /><text dominant-baseline="middle" fill="#222222" font-family="&quot;Symbola&quot;, &quot;Noto Sans Symbols&quot;, &quot;Apple Symbols&quot;, &quot;Segoe UI Symbol&quot;, serif" font-size="18px" text-anchor="middle" x="425.97057042625516" y="184.61417101483752">♂</text><line stroke="#444444" stroke-width="1.0" x1="562.8230600060347" x2="570.7053955618137" y1="313.09004023752163" y2="311.7230046907632" /><line stroke="#CCCCCC" stroke-dasharray="2,2" stroke-width="0.5" x1="562.8230600060347" x2="527.3074747592246" y1="313.09004023752163" y2="308.93834642264267" /><svg height="18.0" viewBox="0.7 0.7 10.6 10.6" width="18.0" x="518.3074747592246" y="299.93834642264267"><defs /><path d="M5.835 5.999c.362.362.862.585 1.415.585S8.303 6.361 8.665 6m-2.83 5a1.994 1.994 0 0 1 1.415-.585c.553 0 1.053.223 1.415.585m-2.226-.426V6.42m1.622 4.155V6.42M2.25 1a4.33 4.33 0 0 1 0 7.5h7.5" fill="none" stroke="#222222" stroke-linecap="round" stroke-linejoin="round" stroke-width="0.53" /></svg><line stroke="#444444" stroke-width="1.0" x1="564.8674933717002" x2="572.8255486817632" y1="372.08982327141524" y2="372.90796487406027" /><line stroke="#CCCCCC" stroke-dasharray="2,2" stroke-width="0.5" x1="564.8674933717002" x2="531.8024553968102" y1="372.08982327141524" y2="358.4774531370482" /><svg height="18.0" viewBox="0.114 0.7 10.6 10.6" width="18.0" x="522.8024553968102" y="349.4774531370482"><defs /><path d="M8.828 2.172A3.988 3.988 0 0 0 6 1C3.793 1 2 2.793 2 5s1.793 4 4 4a3.988 3.988 0 0 0 2.828-1.172M6 11V3.5M4.5 5h3" fill="none" stroke="#222222" stroke-linecap="round" stroke-linejoin="round" stroke-width="0.53" /></svg><line stroke="#444444" stroke-width="1.0" x1="558.8915962528404" x2="566.6283220399827" y1="404.9572653517286" y2="406.99271962401485" /><line stroke="#CCCCCC" stroke-dasharray="2,2" stroke-width="0.5" x1="558.8915962528404" x2="523.1511665146206" y1="404.9572653517286" y2="406.0595534643839" /><text dominant-baseline="middle" fill="#222222" font-family="&quot;Symbola&quot;, &quot;Noto Sans Symbols&quot;, &quot;Apple Symbols&quot;, &quot;Segoe UI Symbol&quot;, serif" font-size="18px" text-anchor="middle" x="523.1511665146206" y="406.0595534643839">♀</text><line stroke="#444444" stroke-width="1.0" x1="517.2001468813623" x2="523.3927449140054" y1="486.7483487390281" y2="491.8131023960291" /><line stroke="#CCCCCC" stroke-dasharray="2,2" stroke-width="0.5" x1="517.2001468813623" x2="498.5759850704558" y1="486.7483487390281" y2="455.1150639078135" /><svg height="18.0" viewBox="0.7 0.7 10.6 10.6" width="18.0" x="489.5759850704558" y="446.1150639078135"><defs /><path d="M3.5 3.5 6 1l2.5 2.5M6 1v5.67L8.5 11h-5L6 6.67" fill="none" stroke="#222222" stroke-linecap="round" stroke-linejoin="round" stroke-width="0.53" /></svg><line stroke="#444444" stroke-width="1.0" x1="495.15642970551227" x2="500.53259376867936" y1="509.955027789528" y2="515.879288078029" /><line stroke="#CCCCCC" stroke-dasharray="2,2" stroke-width="0.5" x1="495.15642970551227" x2="464.5935752398009" y1="509.955027789528" y2="491.3941742567921" /><text dominant-baseline="middle" fill="#222222" font-family="&quot;Symbola&quot;, &quot;Noto Sans Symbols&quot;, &quot;Apple Symbols&quot;, &quot;Segoe UI Symbol&quot;, serif" font-size="18px" text-anchor="middle" x="464.5935752398009" y="491.3941742567921">♇</text><line stroke="#444444" stroke-width="1.0" x1="348.9455289686579" x2="348.90647448601567" y1="565.9974261208778" y2="573.9973307920214" /><line stroke="#CCCCCC" stroke-dasharray="2,2" stroke-width="0.5" x1="348.9455289686579" x2="394.4004441731374" y1="565.9974261208778" y2="526.5009930771726" /><svg height="18.0" viewBox="0.7 0.7 10.6 10.6" width="18.0" x="385.4004441731374" y="517.5009930771726"><defs /><path d="M6 10h2.5m0-5.25a1.25 1.25 0 1 0-2.5 0C6 5.442 6.559 6 7.25 6S8.5 5.442 8.5 4.75zM2.25 1a4.33 4.33 0 0 1 0 7.5h7.5M7.25 6v5" fill="none" stroke="#222222" stroke-linecap="round" stroke-linejoin="round" stroke-width="0.53" /></svg><line stroke="#444444" stroke-width="1.0" x1="330.15425480299643" x2="329.4192272031074" y1="565.0863696229392" y2="573.0525314608258" /><line stroke="#CCCCCC" stroke-dasharray="2,2" stroke-width="0.5" x1="330.15425480299643" x2="345.9608341758491" y1="565.0863696229392" y2="531.9551734341319" /><text dominant-baseline="middle" fill="#222222" font-family="&quot;Symbola&quot;, &quot;Noto Sans Symbols&quot;, &quot;Apple Symbols&quot;, &quot;Segoe UI Symbol&quot;, serif" font-size="18px" text-anchor="middle" x="345.9608341758491" y="531.9551734341319">☉</text><line stroke="#444444" stroke-width="1.0" x1="267.91299868501653" x2="264.87273937705424" y1="549.7942046584783" y2="557.1939900161997" /><line stroke="#CCCCCC" stroke-dasharray="2,2" stroke-width="0.5" x1="267.91299868501653" x2="297.591806582142" y1="549.7942046584783" y2="524.2910819941065" /><text dominant-baseline="middle" fill="#222222" font-family="&quot;Symbola&quot;, &quot;Noto Sans Symbols&quot;, &quot;Apple Symbols&quot;, &quot;Segoe UI Symbol&quot;, serif" font-size="18px" text-anchor="middle" x="297.591806582142" y="524.2910819941065">♅</text><line stroke="#444444" stroke-width="1.0" x1="226.89528345012656" x2="222.33584950383494" y1="527.4858551073164" y2="534.0594052964763" /><line stroke="#CCCCCC" stroke-dasharray="2,2" stroke-width="0.5" x1="226.89528345012656" x2="252.62629546792058" y1="527.4858551073164" y2="503.7607286198244" /><svg height="18.0" viewBox="0.7 0.7 10.6 10.6" width="18.0" x="243.62629546792058" y="494.7607286198244"><defs /><path d="M2.113 11A5.776 5.776 0 0 0 5 6a5.776 5.776 0 0 0-2.887-5m7.773 10A5.776 5.776 0 0 1 7 6a5.776 5.776 0 0 1 2.886-5M1 6h10" fill="none" stroke="#222222" stroke-linecap="round" stroke-linejoin="round" stroke-width="0.53" /></svg><line stroke="#444444" stroke-width="1.0" x1="193.35711435527574" x2="187.55552599806373" y1="498.724599098111" y2="504.23291758322625" /><line stroke="#CCCCCC" stroke-dasharray="2,2" stroke-width="0.5" x1="193.35711435527574" x2="214.56634519161068" y1="498.724599098111" y2="471.5801182152824" /><svg height="18.0" viewBox="0.7 0.7 10.6 10.6" width="18.0" x="205.56634519161068" y="462.5801182152824"><defs /><path d="M6 11V3M4 5h4m0 0a1.999 1.999 0 1 0-4 0 1.999 1.999 0 1 0 4 0ZM4 1a1.999 1.999 0 1 0 4 0" fill="none" stroke="#222222" stroke-linecap="round" stroke-linejoin="round" stroke-width="0.53" /></svg><line stroke="#444444" stroke-width="1.0" x1="181.94217752117686" x2="175.7178137256649" y1="485.6929191361007" y2="490.71858280780816" /><line stroke="#CCCCCC" stroke-dasharray="2,2" stroke-width="0.5" x1="181.94217752117686" x2="186.58418898327017" y1="485.6929191361007" y2="430.1203638892413" /><text dominant-baseline="middle" fill="#222222" font-family="&quot;Symbola&quot;, &quot;Noto Sans Symbols&quot;, &quot;Apple Symbols&quot;, &quot;Segoe UI Symbol&quot;, serif" font-size="18px" text-anchor="middle" x="186.58418898327017" y="430.1203638892413">☿</text><line stroke="#444444" stroke-width="1.0" x1="134.8804392377021" x2="126.9130480983577" y1="330.51732622466795" y2="329.79574571447046" /><svg height="18.0" viewBox="0.7 0.7 10.6 10.6" width="18.0" x="159.74185157991565" y="324.5840433930072"><defs /><path d="m3.5 7 5 4m-5 0 5-4m-5-3.5L6 1l2.5 2.5M6 9V1" fill="none" stroke="#222222" stroke-linecap="round" stroke-linejoin="round" stroke-width="0.53" /></svg><line stroke="#444444" stroke-width="1.0" x1="159.44122254057095" x2="152.38349004207356" y1="248.29772700097706" y2="244.5309761491614" /><line stroke="#CCCCCC" stroke-dasharray="2,2" stroke-width="0.5" x1="159.44122254057095" x2="181.84066240290335" y1="248.29772700097706" y2="280.383642878231" /><text dominant-baseline="middle" fill="#222222" font-family="&quot;Symbola&quot;, &quot;Noto Sans Symbols&quot;, &quot;Apple Symbols&quot;, &quot;Segoe UI Symbol&quot;, serif" font-size="18px" text-anchor="middle" x="181.84066240290335" y="280.383642878231">☽</text><line stroke="#444444" stroke-width="1.0" x1="191.08268190260438" x2="185.19685530640453" y1="203.70821619540223" y2="198.29000198041712" /><line stroke="#CCCCCC" stroke-dasharray="2,2" stroke-width="0.5" x1="191.08268190260438" x2="206.25256311885232" y1="203.70821619540223" y2="238.37260914049602" /><svg height="18.0" viewBox="0.7 0.7 10.6 10.6" width="18.0" x="197.25256311885232" y="229.37260914049602"><defs /><path d="M3.5 4.75h5M6 11V1m3.536 1.464A4.984 4.984 0 0 0 6 1c-1.38 0-2.63.56-3.536 1.464" fill="none" stroke="#222222" stroke-linecap="round" stroke-linejoin="round" stroke-width="0.53" /></svg><line stroke="#444444" stroke-width="1.0" x1="209.45403695335875" x2="204.2486309145943" y1="185.97917122727324" y2="179.90432571717224" /><line stroke="#CCCCCC" stroke-dasharray="2,2" stroke-width="0.5" x1="209.45403695335875" x2="241.50602054359484" y1="185.97917122727324" y2="203.8731495524757" /><text dominant-baseline="middle" fill="#222222" font-family="&quot;Symbola&quot;, &quot;Noto Sans Symbols&quot;, &quot;Apple Symbols&quot;, &quot;Segoe UI Symbol&quot;, serif" font-size="18px" text-anchor="middle" x="241.50602054359484" y="203.8731495524757">♆</text><line stroke="#444444" stroke-width="1.0" x1="313.1980946770436" x2="311.8350611465637" y1="137.15822833710448" y2="129.27519975699724" /><line stroke="#CCCCCC" stroke-dasharray="2,2" stroke-width="0.5" x1="313.1980946770436" x2="284.74777408513364" y1="137.15822833710448" y2="180.0995967834236" /><text dominant-baseline="middle" fill="#222222" font-family="&quot;Symbola&quot;, &quot;Noto Sans Symbols&quot;, &quot;Apple Symbols&quot;, &quot;Segoe UI Symbol&quot;, serif" font-size="18px" text-anchor="middle" x="284.74777408513364" y="180.0995967834236">♄</text><line stroke="#444444" stroke-width="1.0" x1="343.46106372618584" x2="343.21888090122974" y1="134.09899881564468" y2="126.10266543844634" /><line stroke="#CCCCCC" stroke-dasharray="2,2" stroke-width="0.5" x1="343.46106372618584" x2="331.813902546787" y1="134.09899881564468" y2="168.9108897271229" /><text dominant-baseline="middle" fill="#222222" font-family="&quot;Symbola&quot;, &quot;Noto Sans Symbols&quot;, &quot;Apple Symbols&quot;, &quot;Segoe UI Symbol&quot;, serif" font-size="18px" text-anchor="middle" x="331.813902546787" y="168.9108897271229">♃</text><line stroke="#444444" stroke-width="0.5" x1="375.97057615976746" x2="376.58405433676984" y1="97.33118678014552" y2="91.36263213715682" /><line stroke="#444444" stroke-width="0.5" x1="484.8763601418325" x2="488.0624158932144" y1="134.76903690479222" y2="129.68484092616526" /><line stroke="#444444" stroke-width="0.5" x1="540.5050920160904" x2="545.005212299935" y1="182.00056572731881" y2="178.0320751539484" /><line stroke="#444444" stroke-width="0.5" x1="548.7895730831101" x2="553.4853897701126" y1="191.89021019103578" y2="188.15533326641457" /><line stroke="#444444" stroke-width="0.5" x1="567.9618845273606" x2="573.1105904610777" y1="219.5829118049266" y2="216.50219318614535" /><line stroke="#444444" stroke-width="0.5" x1="585.5395803702114" x2="591.1035074655707" y1="254.93630514741858" y2="252.69070605641275" /><line stroke="#444444" stroke-width="0.5" x1="592.0292728626684" x2="597.7464997806842" y1="272.9426766778914" y2="271.1224249458731" /><line stroke="#444444" stroke-width="0.5" x1="596.0469198964743" x2="601.8590518625327" y1="286.93722802272345" y2="285.44755624373266" /><line stroke="#444444" stroke-width="0.5" x1="600.783135756118" x2="606.7071468369711" y1="309.70336465251086" y2="308.75147562855443" /><line stroke="#444444" stroke-width="0.5" x1="603.8790204102103" x2="609.8761626246246" y1="357.83855825723435" y2="358.0237210507123" /><line stroke="#444444" stroke-width="0.5" x1="602.9366009543394" x2="608.9114812918434" y1="373.2180080468867" y2="373.7664649298841" /><line stroke="#444444" stroke-width="0.5" x1="600.6097400834219" x2="606.5296552035028" y1="391.36131254348317" y2="392.33835142246306" /><line stroke="#444444" stroke-width="0.5" x1="599.9064355286316" x2="605.8097371552923" y1="395.4177661424895" y2="396.49062676002865" /><line stroke="#444444" stroke-width="0.5" x1="591.6998386774062" x2="597.4092836855339" y1="428.08449259178053" y2="429.9290081648147" /><line stroke="#444444" stroke-width="0.5" x1="580.8099614318076" x2="586.2621652451573" y1="456.0318900324214" y2="458.53658034814794" /><line stroke="#444444" stroke-width="0.5" x1="567.128389389802" x2="572.2574064620021" y1="481.8000854362034" y2="484.9134732811531" /><line stroke="#444444" stroke-width="0.5" x1="564.7511840274274" x2="569.8240466422485" y1="485.63896548860146" y2="488.8430355395133" /><line stroke="#444444" stroke-width="0.5" x1="548.0954912846967" x2="552.7749123386658" y1="508.97854047850194" y2="512.7339390724824" /><line stroke="#444444" stroke-width="0.5" x1="495.6673510166104" x2="499.10831206424683" y1="558.0793667036778" y2="562.9946273344733" /><line stroke="#444444" stroke-width="0.5" x1="483.9328243546151" x2="487.0965918590548" y1="565.8193655824143" y2="570.9174608323926" /><line stroke="#444444" stroke-width="0.5" x1="463.1842360933455" x2="465.85787946562925" y1="577.3880575139465" y2="582.7594289512838" /><line stroke="#444444" stroke-width="0.5" x1="458.1528278119236" x2="460.7076190200793" y1="579.8237712602515" y2="585.2526792427772" /><line stroke="#444444" stroke-width="0.5" x1="454.1994144247286" x2="456.66081791507656" y1="581.6430055787216" y2="587.1148876002662" /><line stroke="#444444" stroke-width="0.5" x1="430.4934663953674" x2="432.39488686139975" y1="590.9082851785256" y2="596.5990320725066" /><line stroke="#444444" stroke-width="0.5" x1="403.19568018510546" x2="404.45227105561975" y1="598.367106537166" y2="604.234046061666" /><line stroke="#444444" stroke-width="0.5" x1="393.86106291150156" x2="394.89715101177325" y1="600.1843463533905" y2="606.0942128026833" /><line stroke="#444444" stroke-width="0.5" x1="375.5462122062486" x2="376.1496660378923" y1="602.712071421041" y2="608.6816479113018" /><line stroke="#444444" stroke-width="0.5" x1="341.88433875521827" x2="341.6926302218769" y1="603.8703134329809" y2="609.8672499707678" /><line stroke="#444444" stroke-width="0.5" x1="330.3834926184304" x2="329.92011055429884" y1="603.2413722876829" y2="609.2234519480219" /><line stroke="#444444" stroke-width="0.5" x1="289.39663171354147" x2="287.9650560847275" y1="596.6642084947387" y2="602.4909220812285" /><line stroke="#444444" stroke-width="0.5" x1="257.26144001657605" x2="255.07076537129834" y1="586.4647108813509" y2="592.0504914533514" /><line stroke="#444444" stroke-width="0.5" x1="230.06265927286165" x2="227.22949374387414" y1="573.8996076354363" y2="579.1885747449348" /><line stroke="#444444" stroke-width="0.5" x1="198.17183277994272" x2="194.58534064088624" y1="553.6276200288122" y2="558.4377212893353" /><line stroke="#444444" stroke-width="0.5" x1="193.85634599861265" x2="190.16791322692632" y1="550.3376133308348" y2="555.0699978977048" /><line stroke="#444444" stroke-width="0.5" x1="162.8363385747578" x2="158.415149722193" y1="521.7141923135572" y2="525.7704330768695" /><line stroke="#444444" stroke-width="0.5" x1="126.39999093909603" x2="121.1181009612794" y1="470.49496233438003" y2="473.3413000273181" /><line stroke="#444444" stroke-width="0.5" x1="121.73845277465668" x2="116.34644772208952" y1="461.41214502150274" y2="464.0439279747666" /><line stroke="#444444" stroke-width="0.5" x1="110.99768646080076" x2="105.3519625189299" y1="435.9877556568975" y2="438.0189624834384" /><line stroke="#444444" stroke-width="0.5" x1="97.13330698892656" x2="91.16007802016105" y1="373.967385456982" y2="374.5335441685643" /><line stroke="#444444" stroke-width="0.5" x1="96.19916178700143" x2="90.20386639614316" y1="360.0565661325977" y2="360.2941228128953" /><line stroke="#444444" stroke-width="0.5" x1="97.51592803522425" x2="91.55173735889099" y1="322.29091477356314" y2="321.6363694532536" /><line stroke="#444444" stroke-width="0.5" x1="112.29715505038175" x2="106.68212721692618" y1="260.4826413322101" y2="258.36805805659304" /><line stroke="#444444" stroke-width="0.5" x1="201.20369795489356" x2="197.6888246782375" y1="144.14650720062716" y2="139.2838262683585" /><line stroke="#444444" stroke-width="0.5" x1="258.2975296226969" x2="256.1313295350441" y1="113.13156198703922" y2="107.53624455366219" /><line stroke="#444444" stroke-width="0.5" x1="290.4447263174594" x2="289.03790882889547" y1="103.08064195653333" y2="97.24790121534909" /></svg>