<?xml version="1.0" encoding="utf-8" ?>
<svg baseProfile="full" height="700px" version="1.1" viewBox="0 0 700 700" width="700px" xmlns="http://www.w3.org/2000/svg" xmlns:ev="http://www.w3.org/2001/xml-events" xmlns:xlink="http://www.w3.org/1999/xlink"><defs /><rect fill="#FFFFFF" height="700px" width="700px" x="0" y="0" /><circle cx="350" cy="350" fill="none" r="252.0" stroke="#BBBBBB" stroke-width="1" /><path d="M 350.0 210.0 A 140.0 140.0 0 0 1 471.24355652982143 420.0 L 398.4974226119286 378.0 A 56.0 56.0 0 0 0 350.0 294.0 Z" fill="#F5F5F5" stroke="none" /><path d="M 471.24355652982143 420.0 A 140.0 140.0 0 0 1 228.75644347017857 420.0 L 301.5025773880714 378.0 A 56.0 56.0 0 0 0 398.4974226119286 378.0 Z" fill="#FFFFFF" stroke="none" /><path d="M 228.75644347017857 420.0 A 140.0 140.0 0 0 1 350.0 210.0 L 350.0 294.0 A 56.0 56.0 0 0 0 301.5025773880714 378.0 Z" fill="#F5F5F5" stroke="none" /><line stroke="#CCCCCC" stroke-width="1.0" x1="350.0" x2="350.0" y1="294.0" y2="210.0" /><line stroke="#CCCCCC" stroke-width="1.0" x1="398.4974226119286" x2="471.24355652982143" y1="378.0" y2="420.0" /><line stroke="#CCCCCC" stroke-width="1.0" x1="301.5025773880714" x2="228.75644347017857" y1="378.0" y2="420.0" /><text dominant-baseline="middle" fill="#555555" font-family="&quot;Symbola&quot;, &quot;Noto Sans Symbols&quot;, &quot;Apple Symbols&quot;, &quot;Segoe UI Symbol&quot;, serif" font-size="14px" text-anchor="middle" x="413.90857008222775" y="283.8207383688441">♈</text><text dominant-baseline="middle" fill="#555555" font-family="&quot;Symbola&quot;, &quot;Noto Sans Symbols&quot;, &quot;Apple Symbols&quot;, &quot;Segoe UI Symbol&quot;, serif" font-size="14px" text-anchor="middle" x="439.2672068173917" y="327.74318560483056">♋</text><text dominant-baseline="middle" fill="#555555" font-family="&quot;Symbola&quot;, &quot;Noto Sans Symbols&quot;, &quot;Apple Symbols&quot;, &quot;Segoe UI Symbol&quot;, serif" font-size="14px" text-anchor="middle" x="422.2444705277357" y="275.18866076478025">♎</text><text dominant-baseline="middle" fill="#555555" font-family="&quot;Symbola&quot;, &quot;Noto Sans Symbols&quot;, &quot;Apple Symbols&quot;, &quot;Segoe UI Symbol&quot;, serif" font-size="14px" text-anchor="middle" x="450.91075553270366" y="324.8401228576345">♑</text><text dominant-baseline="middle" fill="#555555" font-family="&quot;Symbola&quot;, &quot;Noto Sans Symbols&quot;, &quot;Apple Symbols&quot;, &quot;Segoe UI Symbol&quot;, serif" font-size="14px" text-anchor="middle" x="375.35863673516394" y="438.43607602632534">♉</text><text dominant-baseline="middle" fill="#555555" font-family="&quot;Symbola&quot;, &quot;Noto Sans Symbols&quot;, &quot;Apple Symbols&quot;, &quot;Segoe UI Symbol&quot;, serif" font-size="14px" text-anchor="middle" x="324.64136326483606" y="438.43607602632534">♌</text><text dominant-baseline="middle" fill="#555555" font-family="&quot;Symbola&quot;, &quot;Noto Sans Symbols&quot;, &quot;Apple Symbols&quot;, &quot;Segoe UI Symbol&quot;, serif" font-size="14px" text-anchor="middle" x="378.6662850049679" y="449.97121637758516">♏</text><text dominant-baseline="middle" fill="#555555" font-family="&quot;Symbola&quot;, &quot;Noto Sans Symbols&quot;, &quot;Apple Symbols&quot;, &quot;Segoe UI Symbol&quot;, serif" font-size="14px" text-anchor="middle" x="321.3337149950321" y="449.97121637758516">♒</text><text dominant-baseline="middle" fill="#555555" font-family="&quot;Symbola&quot;, &quot;Noto Sans Symbols&quot;, &quot;Apple Symbols&quot;, &quot;Segoe UI Symbol&quot;, serif" font-size="14px" text-anchor="middle" x="260.7327931826083" y="327.7431856048306">♊</text><text dominant-baseline="middle" fill="#555555" font-family="&quot;Symbola&quot;, &quot;Noto Sans Symbols&quot;, &quot;Apple Symbols&quot;, &quot;Segoe UI Symbol&quot;, serif" font-size="14px" text-anchor="middle" x="286.09142991777225" y="283.8207383688441">♍</text><text dominant-baseline="middle" fill="#555555" font-family="&quot;Symbola&quot;, &quot;Noto Sans Symbols&quot;, &quot;Apple Symbols&quot;, &quot;Segoe UI Symbol&quot;, serif" font-size="14px" text-anchor="middle" x="249.08924446729637" y="324.8401228576346">♐</text><text dominant-baseline="middle" fill="#555555" font-family="&quot;Symbola&quot;, &quot;Noto Sans Symbols&quot;, &quot;Apple Symbols&quot;, &quot;Segoe UI Symbol&quot;, serif" font-size="14px" text-anchor="middle" x="277.7555294722643" y="275.18866076478025">♓</text><line stroke="#BBBBBB" stroke-width="0.5" x1="349.99999999999994" x2="349.99999999999994" y1="117.6" y2="98.0" /><line stroke="#BBBBBB" stroke-width="0.5" x1="366.9926770040689" x2="367.57863138351956" y1="106.9933973567068" y2="98.61385933452428" /><line stroke="#BBBBBB" stroke-width="0.5" x1="383.90256739387195" x2="385.0716214419365" y1="108.77069845455347" y2="100.45244667712427" /><line stroke="#BBBBBB" stroke-width="0.5" x1="400.6472878832062" x2="402.3937460860754" y1="111.72324446124497" y2="103.506804615081" /><line stroke="#BBBBBB" stroke-width="0.5" x1="417.14525987702103" x2="419.46061366588384" y1="115.83665086942554" y2="107.76205262354367" /><line stroke="#BBBBBB" stroke-width="0.5" x1="431.4007941115092" x2="436.18907611806856" y1="126.35315625295382" y2="113.19745956195109" /><line stroke="#BBBBBB" stroke-width="0.5" x1="449.08104625326484" x2="452.49763405510157" y1="127.46032651826238" y2="119.78654467406452" /><line stroke="#BBBBBB" stroke-width="0.5" x1="464.3632726946429" x2="468.3068338220444" y1="134.91396637956535" y2="127.49720659955037" /><line stroke="#BBBBBB" stroke-width="0.5" x1="479.08833276720867" x2="483.5396545867676" y1="143.4154837762946" y2="136.2918797685806" /><line stroke="#BBBBBB" stroke-width="0.5" x1="493.18448745844637" x2="498.1218835777032" y1="152.92346017026279" y2="146.12771741751322" /><line stroke="#BBBBBB" stroke-width="0.5" x1="499.3838404911517" x2="511.9824776410079" y1="171.97127141914947" y2="156.95680033401752" /><line stroke="#BBBBBB" stroke-width="0.5" x1="519.2187790438118" x2="525.0539093556673" y1="174.76882463750457" y2="168.7263703146599" /><line stroke="#BBBBBB" stroke-width="0.5" x1="531.0300794862933" x2="537.2724960203034" y1="186.99978429098218" y2="181.37908719756774" /><line stroke="#BBBBBB" stroke-width="0.5" x1="541.9594195785975" x2="548.578709908894" y1="200.02486461066968" y2="194.85330821793414" /><line stroke="#BBBBBB" stroke-width="0.5" x1="551.9535526744082" x2="558.9174682838706" y1="213.78060871452612" y2="209.08338832537186" /><line stroke="#BBBBBB" stroke-width="0.5" x1="556.1140461006963" x2="568.2384017536784" y1="230.9999999999999" y2="223.9999999999999" /><line stroke="#BBBBBB" stroke-width="0.5" x1="568.946229678477" x2="576.49609966739" y1="243.21278864218067" y2="239.5304710091524" /><line stroke="#BBBBBB" stroke-width="0.5" x1="575.8619869724694" x2="583.6503313508304" y1="258.74583384388376" y2="255.5991384591901" /><line stroke="#BBBBBB" stroke-width="0.5" x1="581.6773673694994" x2="589.6662421063787" y1="274.72346017026274" y2="272.12771741751317" /><line stroke="#BBBBBB" stroke-width="0.5" x1="586.3640389208327" x2="594.5145230215511" y1="291.0678262319209" y2="289.0356823088837" /><line stroke="#BBBBBB" stroke-width="0.5" x1="578.8693218000371" x2="598.1715537590765" y1="309.6441635102054" y2="306.2406592279335" /><line stroke="#BBBBBB" stroke-width="0.5" x1="592.2655337117113" x2="600.6195176328049" y1="324.53686634799965" y2="323.6588272565513" /><line stroke="#BBBBBB" stroke-width="0.5" x1="593.4516054618517" x2="601.8464884088121" y1="341.4984826032708" y2="341.2053268309698" /><line stroke="#BBBBBB" stroke-width="0.5" x1="593.4516054618517" x2="601.8464884088121" y1="358.50151739672924" y2="358.79467316903026" /><line stroke="#BBBBBB" stroke-width="0.5" x1="592.2655337117113" x2="600.6195176328049" y1="375.4631336520004" y2="376.3411727434487" /><line stroke="#BBBBBB" stroke-width="0.5" x1="584.3842452169055" x2="598.1715537590765" y1="391.3282662847294" y2="393.7593407720664" /><line stroke="#BBBBBB" stroke-width="0.5" x1="586.3640389208327" x2="594.5145230215511" y1="408.93217376807905" y2="410.96431769111626" /><line stroke="#BBBBBB" stroke-width="0.5" x1="581.6773673694994" x2="589.6662421063787" y1="425.2765398297372" y2="427.8722825824867" /><line stroke="#BBBBBB" stroke-width="0.5" x1="575.8619869724694" x2="583.6503313508305" y1="441.2541661561162" y2="444.40086154080984" /><line stroke="#BBBBBB" stroke-width="0.5" x1="568.946229678477" x2="576.4960996673901" y1="456.7872113578193" y2="460.4695289908475" /><line stroke="#BBBBBB" stroke-width="0.5" x1="551.2643038395036" x2="568.2384017536785" y1="466.2" y2="476.0" /><line stroke="#BBBBBB" stroke-width="0.5" x1="551.9535526744082" x2="558.9174682838704" y1="486.21939128547393" y2="490.91661167462826" /><line stroke="#BBBBBB" stroke-width="0.5" x1="541.9594195785975" x2="548.5787099088939" y1="499.9751353893304" y2="505.1466917820659" /><line stroke="#BBBBBB" stroke-width="0.5" x1="531.0300794862933" x2="537.2724960203034" y1="513.0002157090179" y2="518.6209128024323" /><line stroke="#BBBBBB" stroke-width="0.5" x1="519.2187790438118" x2="525.0539093556673" y1="525.2311753624954" y2="531.2736296853401" /><line stroke="#BBBBBB" stroke-width="0.5" x1="502.9834511053964" x2="511.9824776410079" y1="532.3185774623167" y2="543.0431996659825" /><line stroke="#BBBBBB" stroke-width="0.5" x1="493.1844874584465" x2="498.1218835777032" y1="547.0765398297372" y2="553.8722825824867" /><line stroke="#BBBBBB" stroke-width="0.5" x1="479.0883327672087" x2="483.5396545867676" y1="556.5845162237054" y2="563.7081202314193" /><line stroke="#BBBBBB" stroke-width="0.5" x1="464.363272694643" x2="468.3068338220445" y1="565.0860336204346" y2="572.5027934004496" /><line stroke="#BBBBBB" stroke-width="0.5" x1="449.08104625326496" x2="452.4976340551017" y1="572.5396734817375" y2="580.2134553259355" /><line stroke="#BBBBBB" stroke-width="0.5" x1="429.4854813088854" x2="436.18907611806856" y1="568.3845650706451" y2="586.8025404380489" /><line stroke="#BBBBBB" stroke-width="0.5" x1="417.145259877021" x2="419.4606136658838" y1="584.1633491305745" y2="592.2379473764563" /><line stroke="#BBBBBB" stroke-width="0.5" x1="400.6472878832062" x2="402.3937460860754" y1="588.276755538755" y2="596.493195384919" /><line stroke="#BBBBBB" stroke-width="0.5" x1="383.90256739387195" x2="385.0716214419365" y1="591.2293015454466" y2="599.5475533228757" /><line stroke="#BBBBBB" stroke-width="0.5" x1="366.9926770040689" x2="367.57863138351956" y1="593.0066026432931" y2="601.3861406654758" /><line stroke="#BBBBBB" stroke-width="0.5" x1="350.0" x2="350.0" y1="588.0" y2="602.0" /><line stroke="#BBBBBB" stroke-width="0.5" x1="333.0073229959311" x2="332.42136861648044" y1="593.0066026432931" y2="601.3861406654758" /><line stroke="#BBBBBB" stroke-width="0.5" x1="316.0974326061281" x2="314.9283785580635" y1="591.2293015454466" y2="599.5475533228757" /><line stroke="#BBBBBB" stroke-width="0.5" x1="299.35271211679384" x2="297.60625391392466" y1="588.2767555387551" y2="596.4931953849191" /><line stroke="#BBBBBB" stroke-width="0.5" x1="282.854740122979" x2="280.5393863341162" y1="584.1633491305745" y2="592.2379473764563" /><line stroke="#BBBBBB" stroke-width="0.5" x1="270.5145186911146" x2="263.8109238819315" y1="568.3845650706451" y2="586.8025404380489" /><line stroke="#BBBBBB" stroke-width="0.5" x1="250.91895374673504" x2="247.50236594489832" y1="572.5396734817375" y2="580.2134553259355" /><line stroke="#BBBBBB" stroke-width="0.5" x1="235.63672730535697" x2="231.6931661779555" y1="565.0860336204346" y2="572.5027934004496" /><line stroke="#BBBBBB" stroke-width="0.5" x1="220.9116672327913" x2="216.4603454132324" y1="556.5845162237054" y2="563.7081202314193" /><line stroke="#BBBBBB" stroke-width="0.5" x1="206.81551254155357" x2="201.87811642229678" y1="547.0765398297372" y2="553.8722825824867" /><line stroke="#BBBBBB" stroke-width="0.5" x1="197.01654889460363" x2="188.01752235899207" y1="532.3185774623167" y2="543.0431996659825" /><line stroke="#BBBBBB" stroke-width="0.5" x1="180.78122095618824" x2="174.94609064433266" y1="525.2311753624954" y2="531.2736296853401" /><line stroke="#BBBBBB" stroke-width="0.5" x1="168.96992051370682" x2="162.7275039796967" y1="513.0002157090179" y2="518.6209128024324" /><line stroke="#BBBBBB" stroke-width="0.5" x1="158.04058042140255" x2="151.42129009110607" y1="499.9751353893304" y2="505.1466917820659" /><line stroke="#BBBBBB" stroke-width="0.5" x1="148.04644732559186" x2="141.08253171612952" y1="486.21939128547393" y2="490.91661167462826" /><line stroke="#BBBBBB" stroke-width="0.5" x1="148.73569616049645" x2="131.76159824632146" y1="466.2" y2="476.0" /><line stroke="#BBBBBB" stroke-width="0.5" x1="131.0537703215229" x2="123.5039003326099" y1="456.7872113578192" y2="460.4695289908475" /><line stroke="#BBBBBB" stroke-width="0.5" x1="124.1380130275306" x2="116.34966864916959" y1="441.2541661561162" y2="444.4008615408099" /><line stroke="#BBBBBB" stroke-width="0.5" x1="118.3226326305006" x2="110.33375789362131" y1="425.2765398297372" y2="427.8722825824868" /><line stroke="#BBBBBB" stroke-width="0.5" x1="113.63596107916726" x2="105.4854769784489" y1="408.93217376807905" y2="410.96431769111626" /><line stroke="#BBBBBB" stroke-width="0.5" x1="115.6157547830945" x2="101.82844624092357" y1="391.3282662847294" y2="393.7593407720664" /><line stroke="#BBBBBB" stroke-width="0.5" x1="107.73446628828864" x2="99.38048236719513" y1="375.46313365200047" y2="376.34117274344874" /><line stroke="#BBBBBB" stroke-width="0.5" x1="106.54839453814827" x2="98.15351159118788" y1="358.5015173967293" y2="358.79467316903026" /><line stroke="#BBBBBB" stroke-width="0.5" x1="106.54839453814827" x2="98.15351159118788" y1="341.49848260327076" y2="341.2053268309698" /><line stroke="#BBBBBB" stroke-width="0.5" x1="107.73446628828864" x2="99.38048236719513" y1="324.5368663479996" y2="323.6588272565513" /><line stroke="#BBBBBB" stroke-width="0.5" x1="121.13067819996286" x2="101.82844624092357" y1="309.6441635102054" y2="306.2406592279335" /><line stroke="#BBBBBB" stroke-width="0.5" x1="113.63596107916726" x2="105.4854769784489" y1="291.067826231921" y2="289.0356823088838" /><line stroke="#BBBBBB" stroke-width="0.5" x1="118.32263263050058" x2="110.33375789362128" y1="274.72346017026285" y2="272.1277174175133" /><line stroke="#BBBBBB" stroke-width="0.5" x1="124.13801302753058" x2="116.34966864916956" y1="258.7458338438838" y2="255.59913845919016" /><line stroke="#BBBBBB" stroke-width="0.5" x1="131.05377032152293" x2="123.50390033260993" y1="243.21278864218073" y2="239.53047100915248" /><line stroke="#BBBBBB" stroke-width="0.5" x1="143.88595389930362" x2="131.76159824632148" y1="230.99999999999997" y2="223.99999999999997" /><line stroke="#BBBBBB" stroke-width="0.5" x1="148.0464473255918" x2="141.08253171612947" y1="213.78060871452612" y2="209.08338832537183" /><line stroke="#BBBBBB" stroke-width="0.5" x1="158.04058042140252" x2="151.42129009110604" y1="200.02486461066968" y2="194.85330821793414" /><line stroke="#BBBBBB" stroke-width="0.5" x1="168.96992051370677" x2="162.72750397969665" y1="186.99978429098215" y2="181.3790871975677" /><line stroke="#BBBBBB" stroke-width="0.5" x1="180.78122095618826" x2="174.94609064433268" y1="174.76882463750457" y2="168.7263703146599" /><line stroke="#BBBBBB" stroke-width="0.5" x1="200.61615950884823" x2="188.01752235899204" y1="171.97127141914953" y2="156.95680033401757" /><line stroke="#BBBBBB" stroke-width="0.5" x1="206.81551254155352" x2="201.87811642229673" y1="152.92346017026284" y2="146.12771741751328" /><line stroke="#BBBBBB" stroke-width="0.5" x1="220.91166723279127" x2="216.46034541323235" y1="143.41548377629465" y2="136.29187976858066" /><line stroke="#BBBBBB" stroke-width="0.5" x1="235.636727305357" x2="231.69316617795553" y1="134.91396637956538" y2="127.4972065995504" /><line stroke="#BBBBBB" stroke-width="0.5" x1="250.9189537467351" x2="247.50236594489837" y1="127.4603265182624" y2="119.78654467406454" /><line stroke="#BBBBBB" stroke-width="0.5" x1="268.59920588849087" x2="263.81092388193156" y1="126.3531562529538" y2="113.19745956195106" /><line stroke="#BBBBBB" stroke-width="0.5" x1="282.8547401229791" x2="280.5393863341163" y1="115.83665086942548" y2="107.76205262354361" /><line stroke="#BBBBBB" stroke-width="0.5" x1="299.3527121167937" x2="297.60625391392455" y1="111.72324446124497" y2="103.506804615081" /><line stroke="#BBBBBB" stroke-width="0.5" x1="316.097432606128" x2="314.9283785580634" y1="108.7706984545535" y2="100.4524466771243" /><line stroke="#BBBBBB" stroke-width="0.5" x1="333.007322995931" x2="332.4213686164804" y1="106.99339735670682" y2="98.6138593345243" /><text dominant-baseline="middle" fill="#555555" font-family="&quot;Arial&quot;, &quot;Helvetica&quot;, sans-serif" font-size="8px" text-anchor="middle" x="349.99999999999994" y="134.0">0</text><text dominant-baseline="middle" fill="#555555" font-family="&quot;Arial&quot;, &quot;Helvetica&quot;, sans-serif" font-size="8px" text-anchor="middle" x="423.8763509583445" y="147.0263939102438">5</text><text dominant-baseline="middle" fill="#555555" font-family="&quot;Arial&quot;, &quot;Helvetica&quot;, sans-serif" font-size="8px" text-anchor="middle" x="488.8421236922925" y="184.53440028630072">10</text><text dominant-baseline="middle" fill="#555555" font-family="&quot;Arial&quot;, &quot;Helvetica&quot;, sans-serif" font-size="8px" text-anchor="middle" x="537.0614872174388" y="241.9999999999999">15</text><text dominant-baseline="middle" fill="#555555" font-family="&quot;Arial&quot;, &quot;Helvetica&quot;, sans-serif" font-size="8px" text-anchor="middle" x="562.718474650637" y="312.491993623943">20</text><text dominant-baseline="middle" fill="#555555" font-family="&quot;Arial&quot;, &quot;Helvetica&quot;, sans-serif" font-size="8px" text-anchor="middle" x="562.718474650637" y="387.508006376057">25</text><text dominant-baseline="middle" fill="#555555" font-family="&quot;Arial&quot;, &quot;Helvetica&quot;, sans-serif" font-size="8px" text-anchor="middle" x="537.0614872174388" y="458.0">30</text><text dominant-baseline="middle" fill="#555555" font-family="&quot;Arial&quot;, &quot;Helvetica&quot;, sans-serif" font-size="8px" text-anchor="middle" x="488.8421236922925" y="515.4655997136992">35</text><text dominant-baseline="middle" fill="#555555" font-family="&quot;Arial&quot;, &quot;Helvetica&quot;, sans-serif" font-size="8px" text-anchor="middle" x="423.87635095834446" y="552.9736060897562">40</text><text dominant-baseline="middle" fill="#555555" font-family="&quot;Arial&quot;, &quot;Helvetica&quot;, sans-serif" font-size="8px" text-anchor="middle" x="350.0" y="566.0">45</text><text dominant-baseline="middle" fill="#555555" font-family="&quot;Arial&quot;, &quot;Helvetica&quot;, sans-serif" font-size="8px" text-anchor="middle" x="276.12364904165554" y="552.9736060897562">50</text><text dominant-baseline="middle" fill="#555555" font-family="&quot;Arial&quot;, &quot;Helvetica&quot;, sans-serif" font-size="8px" text-anchor="middle" x="211.1578763077075" y="515.4655997136992">55</text><text dominant-baseline="middle" fill="#555555" font-family="&quot;Arial&quot;, &quot;Helvetica&quot;, sans-serif" font-size="8px" text-anchor="middle" x="162.93851278256125" y="458.0">60</text><text dominant-baseline="middle" fill="#555555" font-family="&quot;Arial&quot;, &quot;Helvetica&quot;, sans-serif" font-size="8px" text-anchor="middle" x="137.28152534936308" y="387.5080063760569">65</text><text dominant-baseline="middle" fill="#555555" font-family="&quot;Arial&quot;, &quot;Helvetica&quot;, sans-serif" font-size="8px" text-anchor="middle" x="137.28152534936308" y="312.491993623943">70</text><text dominant-baseline="middle" fill="#555555" font-family="&quot;Arial&quot;, &quot;Helvetica&quot;, sans-serif" font-size="8px" text-anchor="middle" x="162.93851278256128" y="241.99999999999997">75</text><text dominant-baseline="middle" fill="#555555" font-family="&quot;Arial&quot;, &quot;Helvetica&quot;, sans-serif" font-size="8px" text-anchor="middle" x="211.15787630770748" y="184.53440028630078">80</text><text dominant-baseline="middle" fill="#555555" font-family="&quot;Arial&quot;, &quot;Helvetica&quot;, sans-serif" font-size="8px" text-anchor="middle" x="276.1236490416556" y="147.02639391024377">85</text><line stroke="#555555" stroke-width="2.0" x1="349.99999999999994" x2="349.99999999999994" y1="131.0" y2="83.0" /><polygon fill="#555555" points="349.99999999999994,131.0 353.38094609392556,123.7495377037068 346.6190539060743,123.7495377037068" /><line stroke="#555555" stroke-width="4.0" x1="349.99999999999994" x2="349.99999999999994" y1="101.0" y2="95.0" /><line stroke="#555555" stroke-width="2.0" x1="569.0" x2="617.0" y1="350.0" y2="350.0" /><polygon fill="#555555" points="569.0,350.0 576.2504622962932,353.3809460939256 576.2504622962932,346.6190539060744" /><line stroke="#555555" stroke-width="4.0" x1="599.0" x2="605.0" y1="350.0" y2="350.0" /><line stroke="#555555" stroke-width="2.0" x1="350.0" x2="350.0" y1="569.0" y2="617.0" /><polygon fill="#555555" points="350.0,569.0 346.6190539060744,576.2504622962932 353.3809460939256,576.2504622962932" /><line stroke="#555555" stroke-width="4.0" x1="350.0" x2="350.0" y1="599.0" y2="605.0" /><line stroke="#555555" stroke-width="2.0" x1="131.0" x2="83.0" y1="350.0" y2="350.00000000000006" /><polygon fill="#555555" points="131.0,350.0 123.7495377037068,346.6190539060744 123.7495377037068,353.3809460939256" /><line stroke="#555555" stroke-width="4.0" x1="101.0" x2="95.0" y1="350.00000000000006" y2="350.00000000000006" /><line stroke="#444444" stroke-width="1.0" x1="400.30726605936655" x2="402.1704981356394" y1="139.9400585984274" y2="132.16006076873953" /><line stroke="#CCCCCC" stroke-dasharray="2,2" stroke-width="0.5" x1="400.30726605936655" x2="402.2025605414712" y1="139.9400585984274" y2="175.64721776549123" /><text dominant-baseline="middle" fill="#222222" font-family="&quot;Symbola&quot;, &quot;Noto Sans Symbols&quot;, &quot;Apple Symbols&quot;, &quot;Segoe UI Symbol&quot;, serif" font-size="18px" text-anchor="middle" x="402.2025605414712" y="175.64721776549123">♂</text><line stroke="#444444" stroke-width="1.0" x1="562.8232570934841" x2="570.7055999487984" y1="313.0911766630151" y2="311.7241832060898" /><line stroke="#CCCCCC" stroke-dasharray="2,2" stroke-width="0.5" x1="562.8232570934841" x2="527.3076940162466" y1="313.0911766630151" y2="308.93929320334297" /><svg height="18.0" viewBox="0 0 12 12" width="18.0" x="518.3076940162466" y="299.93929320334297"><defs /><path d="M5.835 5.999c.362.362.862.585 1.415.585S8.303 6.361 8.665 6m-2.83 5a1.994 1.994 0 0 1 1.415-.585c.553 0 1.053.223 1.415.585m-2.226-.426V6.42m1.622 4.155V6.42M2.25 1a4.33 4.33 0 0 1 0 7.5h7.5" fill="none" stroke="#222222" stroke-linecap="round" stroke-linejoin="round" stroke-width="0.60000002" /></svg><line stroke="#444444" stroke-width="1.0" x1="564.8675590577292" x2="572.825616800608" y1="372.08918433472047" y2="372.90730227304346" /><line stroke="#CCCCCC" stroke-dasharray="2,2" stroke-width="0.5" x1="564.8675590577292" x2="531.8024806048222" y1="372.08918433472047" y2="358.4769125236291" /><svg height="18.0" viewBox="0 0 12 12" width="18.0" x="522.8024806048222" y="349.4769125236291"><defs /><path d="M8.828 2.172A3.988 3.988 0 0 0 6 1C3.793 1 2 2.793 2 5s1.793 4 4 4a3.988 3.988 0 0 0 2.828-1.172M6 11V3.5M4.5 5h3" fill="none" stroke="#222222" stroke-linecap="round" stroke-linejoin="round" stroke-width="0.60000002" /></svg><line stroke="#444444" stroke-width="1.0" x1="558.8443147219142" x2="566.5792893412444" y1="405.1366684551582" y2="407.17876728683075" /><line stroke="#CCCCCC" stroke-dasharray="2,2" stroke-width="0.5" x1="558.8443147219142" x2="523.1029513787093" y1="405.1366684551582" y2="406.20825761380786" /><text dominant-baseline="middle" fill="#222222" font-family="&quot;Symbola&quot;, &quot;Noto Sans Symbols&quot;, &quot;Apple Symbols&quot;, &quot;Segoe UI Symbol&quot;, serif" font-size="18px" text-anchor="middle" x="523.1029513787093" y="406.20825761380786">♀</text><line stroke="#444444" stroke-width="1.0" x1="517.1988314342298" x2="523.3913807466085" y1="486.7499571006442" y2="491.81477032659404" /><line stroke="#CCCCCC" stroke-dasharray="2,2" stroke-width="0.5" x1="517.1988314342298" x2="498.574973917944" y1="486.7499571006442" y2="455.1164931173136" /><svg height="18.0" viewBox="0 0 12 12" width="18.0" x="489.574973917944" y="446.1164931173136"><defs /><path d="M3.5 3.5 6 1l2.5 2.5M6 1v5.67L8.5 11h-5L6 6.67" fill="none" stroke="#222222" stroke-linecap="round" stroke-linejoin="round" stroke-width="0.60000002" /></svg><line stroke="#444444" stroke-width="1.0" x1="495.15389251448437" x2="500.52996260761347" y1="509.9573302099454" y2="515.8816757732767" /><line stroke="#CCCCCC" stroke-dasharray="2,2" stroke-width="0.5" x1="495.15389251448437" x2="464.5913324609447" y1="509.9573302099454" y2="491.39599189802107" /><text dominant-baseline="middle" fill="#222222" font-family="&quot;Symbola&quot;, &quot;Noto Sans Symbols&quot;, &quot;Apple Symbols&quot;, &quot;Segoe UI Symbol&quot;, serif" font-size="18px" text-anchor="middle" x="464.5913324609447" y="491.39599189802107">♇</text><line stroke="#444444" stroke-width="1.0" x1="348.9414344714013" x2="348.90222834071244" y1="565.9974060932716" y2="573.997310022652" /><line stroke="#CCCCCC" stroke-dasharray="2,2" stroke-width="0.5" x1="348.9414344714013" x2="394.3970983712842" y1="565.9974060932716" y2="526.5018347106072" /><svg height="18.0" viewBox="0 0 12 12" width="18.0" x="385.3970983712842" y="517.5018347106072"><defs /><path d="M6 10h2.5m0-5.25a1.25 1.25 0 1 0-2.5 0C6 5.442 6.559 6 7.25 6S8.5 5.442 8.5 4.75zM2.25 1a4.33 4.33 0 0 1 0 7.5h7.5M7.25 6v5" fill="none" stroke="#222222" stroke-linecap="round" stroke-linejoin="round" stroke-width="0.60000002" /></svg><line stroke="#444444" stroke-width="1.0" x1="330.0080290721482" x2="329.26758570444997" y1="565.0728274292685" y2="573.0384877044266" /><line stroke="#CCCCCC" stroke-dasharray="2,2" stroke-width="0.5" x1="330.0080290721482" x2="345.8371296285582" y1="565.0728274292685" y2="531.9523852832674" /><text dominant-baseline="middle" fill="#222222" font-family="&quot;Symbola&quot;, &quot;Noto Sans Symbols&quot;, &quot;Apple Symbols&quot;, &quot;Segoe UI Symbol&quot;, serif" font-size="18px" text-anchor="middle" x="345.8371296285582" y="531.9523852832674">☉</text><line stroke="#444444" stroke-width="1.0" x1="267.90484756406397" x2="264.864286362733" y1="549.7908555127597" y2="557.1905168280471" /><line stroke="#CCCCCC" stroke-dasharray="2,2" stroke-width="0.5" x1="267.90484756406397" x2="297.58469591101255" y1="549.7908555127597" y2="524.2889437034346" /><text dominant-baseline="middle" fill="#222222" font-family="&quot;Symbola&quot;, &quot;Noto Sans Symbols&quot;, &quot;Apple Symbols&quot;, &quot;Segoe UI Symbol&quot;, serif" font-size="18px" text-anchor="middle" x="297.58469591101255" y="524.2889437034346">♅</text><line stroke="#444444" stroke-width="1.0" x1="226.8953314049125" x2="222.33589923472408" y1="527.4858883688888" y2="534.0594397899588" /><line stroke="#CCCCCC" stroke-dasharray="2,2" stroke-width="0.5" x1="226.8953314049125" x2="252.62633701242993" y1="527.4858883688888" y2="503.7607549291532" /><svg height="18.0" viewBox="0 0 12 12" width="18.0" x="243.62633701242993" y="494.7607549291532"><defs /><path d="M2.113 11A5.776 5.776 0 0 0 5 6a5.776 5.776 0 0 0-2.887-5m7.773 10A5.776 5.776 0 0 1 7 6a5.776 5.776 0 0 1 2.886-5M1 6h10" fill="none" stroke="#222222" stroke-linecap="round" stroke-linejoin="round" stroke-width="0.59999996" /></svg><line stroke="#444444" stroke-width="1.0" x1="193.3566681023291" x2="187.55506321723018" y1="498.7241290846785" y2="504.23243016188883" /><line stroke="#CCCCCC" stroke-dasharray="2,2" stroke-width="0.5" x1="193.3566681023291" x2="214.56598038658564" y1="498.7241290846785" y2="471.57971184105224" /><svg height="18.0" viewBox="0 0 12 12" width="18.0" x="205.56598038658564" y="462.57971184105224"><defs /><path d="M6 11V3M4 5h4m0 0a1.999 1.999 0 1 0-4 0 1.999 1.999 0 1 0 4 0ZM4 1a1.999 1.999 0 1 0 4 0" fill="none" stroke="#222222" stroke-linecap="round" stroke-linejoin="round" stroke-width="0.60000002" /></svg><line stroke="#444444" stroke-width="1.0" x1="181.74836669936641" x2="175.51682472526886" y1="485.45253003052073" y2="490.46929040202156" /><line stroke="#CCCCCC" stroke-dasharray="2,2" stroke-width="0.5" x1="181.74836669936641" x2="187.60115061218448" y1="485.45253003052073" y2="432.162118506728" /><text dominant-baseline="middle" fill="#222222" font-family="&quot;Symbola&quot;, &quot;Noto Sans Symbols&quot;, &quot;Apple Symbols&quot;, &quot;Segoe UI Symbol&quot;, serif" font-size="18px" text-anchor="middle" x="187.60115061218448" y="432.162118506728">☿</text><line stroke="#444444" stroke-width="1.0" x1="134.88067306604572" x2="126.91329058701038" y1="330.51474456204147" y2="329.7930684347097" /><svg height="18.0" viewBox="0 0 12 12" width="18.0" x="159.74204860194592" y="324.5818681032016"><defs /><path d="m3.5 7 5 4m-5 0 5-4m-5-3.5L6 1l2.5 2.5M6 9V1" fill="none" stroke="#222222" stroke-linecap="round" stroke-linejoin="round" stroke-width="0.60000002" /></svg><line stroke="#444444" stroke-width="1.0" x1="160.45041688825614" x2="153.43006195819154" y1="246.4289830977599" y2="242.59301950878805" /><line stroke="#CCCCCC" stroke-dasharray="2,2" stroke-width="0.5" x1="160.45041688825614" x2="182.53329071785092" y1="246.4289830977599" y2="278.7335893831592" /><text dominant-baseline="middle" fill="#222222" font-family="&quot;Symbola&quot;, &quot;Noto Sans Symbols&quot;, &quot;Apple Symbols&quot;, &quot;Segoe UI Symbol&quot;, serif" font-size="18px" text-anchor="middle" x="182.53329071785092" y="278.7335893831592">☽</text><line stroke="#444444" stroke-width="1.0" x1="191.0650662459134" x2="185.17858721798427" y1="203.72735446234623" y2="198.30984907206275" /><line stroke="#CCCCCC" stroke-dasharray="2,2" stroke-width="0.5" x1="191.0650662459134" x2="207.81145501545834" y1="203.72735446234623" y2="236.39358435731293" /><svg height="18.0" viewBox="0 0 12 12" width="18.0" x="198.81145501545834" y="227.39358435731293"><defs /><path d="M3.5 4.75h5M6 11V1m3.536 1.464A4.984 4.984 0 0 0 6 1c-1.38 0-2.63.56-3.536 1.464" fill="none" stroke="#222222" stroke-linecap="round" stroke-linejoin="round" stroke-width="0.60000002" /></svg><line stroke="#444444" stroke-width="1.0" x1="209.45682290802816" x2="204.25152005276996" y1="185.97678404294516" y2="179.9018501186098" /><line stroke="#CCCCCC" stroke-dasharray="2,2" stroke-width="0.5" x1="209.45682290802816" x2="243.55935304369365" y1="185.97678404294516" y2="202.37077296306484" /><text dominant-baseline="middle" fill="#222222" font-family="&quot;Symbola&quot;, &quot;Noto Sans Symbols&quot;, &quot;Apple Symbols&quot;, &quot;Segoe UI Symbol&quot;, serif" font-size="18px" text-anchor="middle" x="243.55935304369365" y="202.37077296306484">♆</text><line stroke="#444444" stroke-width="1.0" x1="313.2144033260714" x2="311.8519738196296" y1="137.15540909540817" y2="129.2722760989418" /><line stroke="#CCCCCC" stroke-dasharray="2,2" stroke-width="0.5" x1="313.2144033260714" x2="306.5700166639646" y1="137.15540909540817" y2="173.2577114909064" /><text dominant-baseline="middle" fill="#222222" font-family="&quot;Symbola&quot;, &quot;Noto Sans Symbols&quot;, &quot;Apple Symbols&quot;, &quot;Segoe UI Symbol&quot;, serif" font-size="18px" text-anchor="middle" x="306.5700166639646" y="173.2577114909064">♄</text><line stroke="#444444" stroke-width="1.0" x1="343.49160723256625" x2="343.25055564858724" y1="134.09807591504696" y2="126.101708356345" /><line stroke="#CCCCCC" stroke-dasharray="2,2" stroke-width="0.5" x1="343.49160723256625" x2="354.6795281234967" y1="134.09807591504696" y2="168.0601692411983" /><text dominant-baseline="middle" fill="#222222" font-family="&quot;Symbola&quot;, &quot;Noto Sans Symbols&quot;, &quot;Apple Symbols&quot;, &quot;Segoe UI Symbol&quot;, serif" font-size="18px" text-anchor="middle" x="354.6795281234967" y="168.0601692411983">♃</text><line stroke="#444444" stroke-width="0.5" x1="375.9801803560137" x2="376.5938854037936" y1="97.33217413238188" y2="91.36364281267436" /><line stroke="#444444" stroke-width="0.5" x1="484.9706093166825" x2="488.1588914265254" y1="134.82812771952868" y2="129.74532758691913" /><line stroke="#444444" stroke-width="0.5" x1="540.5078511321149" x2="545.0080365919287" y1="182.00369451376628" y2="178.03527784873714" /><line stroke="#444444" stroke-width="0.5" x1="548.8686347538925" x2="553.5663190394175" y1="191.98966454335044" y2="188.25713693413823" /><line stroke="#444444" stroke-width="0.5" x1="568.0136092544227" x2="573.1635370320862" y1="219.66939661054317" y2="216.5907209399261" /><line stroke="#444444" stroke-width="0.5" x1="585.5470578957587" x2="591.1111616255798" y1="254.95483433308095" y2="252.70967293937417" /><line stroke="#444444" stroke-width="0.5" x1="592.0561069918024" x2="597.7739677868842" y1="273.02701078967283" y2="271.2087512020273" /><line stroke="#444444" stroke-width="0.5" x1="596.0453563147953" x2="601.8574513458534" y1="286.9311278369003" y2="285.4413119590318" /><line stroke="#444444" stroke-width="0.5" x1="600.7842998851986" x2="606.7083384651639" y1="309.71061019212635" y2="308.758892322649" /><line stroke="#444444" stroke-width="0.5" x1="603.875779950757" x2="609.8728456188851" y1="357.9428177868332" y2="358.130443403845" /><line stroke="#444444" stroke-width="0.5" x1="602.9197417230142" x2="608.8942238109594" y1="373.4009454245718" y2="373.9537236629475" /><line stroke="#444444" stroke-width="0.5" x1="600.5970216393953" x2="606.5166363237904" y1="391.4383004654448" y2="392.4171579567545" /><line stroke="#444444" stroke-width="0.5" x1="599.9022953975654" x2="605.8054992258543" y1="395.4405408751698" y2="396.5139394785203" /><line stroke="#444444" stroke-width="0.5" x1="591.7008010335707" x2="597.4102687745212" y1="428.08151368749384" y2="429.9259588927102" /><line stroke="#444444" stroke-width="0.5" x1="580.7266000437057" x2="586.1768346904075" y1="456.21316317797823" y2="458.7221355365132" /><line stroke="#444444" stroke-width="0.5" x1="567.0707197614418" x2="572.1983745589562" y1="481.8950439639398" y2="485.01067492371794" /><line stroke="#444444" stroke-width="0.5" x1="564.6586199554399" x2="569.7292960173795" y1="485.7854074590713" y2="488.99293676912805" /><line stroke="#444444" stroke-width="0.5" x1="547.3101549585461" x2="551.9710247607165" y1="509.9521889510566" y2="513.7305871152548" /><line stroke="#444444" stroke-width="0.5" x1="495.5072117960296" x2="498.94439002743184" y1="558.1913814626951" y2="563.10928811142" /><line stroke="#444444" stroke-width="0.5" x1="482.85486343297623" x2="485.9931672935977" y1="566.4846074486711" y2="571.5984170734429" /><line stroke="#444444" stroke-width="0.5" x1="463.08193087518094" x2="465.7531575887679" y1="577.4389520498651" y2="582.8115257203342" /><line stroke="#444444" stroke-width="0.5" x1="458.142071011608" x2="460.6966081221184" y1="579.8288329982126" y2="585.2578605493516" /><line stroke="#444444" stroke-width="0.5" x1="453.06692880896435" x2="455.50158067059346" y1="582.1491076568848" y2="587.63294484563" /><line stroke="#444444" stroke-width="0.5" x1="430.4096579980083" x2="432.3090987381187" y1="590.9362714508618" y2="596.62767943789" /><line stroke="#444444" stroke-width="0.5" x1="402.9114511963358" x2="404.16132799624927" y1="598.4278131214332" y2="604.2961866597349" /><line stroke="#444444" stroke-width="0.5" x1="393.8539752070658" x2="394.88989588124844" y1="600.185588830648" y2="606.0954846297972" /><line stroke="#444444" stroke-width="0.5" x1="375.5186547508083" x2="376.12145761893765" y1="602.7148556371569" y2="608.6844978963023" /><line stroke="#444444" stroke-width="0.5" x1="341.8829202111662" x2="341.69117816891026" y1="603.8702680813602" y2="609.867203547849" /><line stroke="#444444" stroke-width="0.5" x1="330.2004761095562" x2="329.7327708208055" y1="603.2271289844589" y2="609.2088721888161" /><line stroke="#444444" stroke-width="0.5" x1="289.30775441112473" x2="287.8740793184742" y1="596.6423550921043" y2="602.4685524564848" /><line stroke="#444444" stroke-width="0.5" x1="255.99868497204005" x2="253.77818146744255" y1="585.9655753982224" y2="591.5395653682592" /><line stroke="#444444" stroke-width="0.5" x1="229.82657478993144" x2="226.98783246213458" y1="573.7729828940037" y2="579.0589588678778" /><line stroke="#444444" stroke-width="0.5" x1="198.02216999718527" x2="194.43214251680382" y1="553.51594332542" y2="558.3234065535795" /><line stroke="#444444" stroke-width="0.5" x1="192.87173329632256" x2="189.1600419568656" y1="549.5662992659281" y2="554.2804638155171" /><line stroke="#444444" stroke-width="0.5" x1="162.7560351473632" x2="158.33294936344265" y1="521.6266227199746" y2="525.6807949102102" /><line stroke="#444444" stroke-width="0.5" x1="125.76973228001512" x2="120.4729543023777" y1="469.3180080215217" y2="472.13654364407734" /><line stroke="#444444" stroke-width="0.5" x1="121.73330106330863" x2="116.34117431677262" y1="461.40158956022987" y2="464.0331231718888" /><line stroke="#444444" stroke-width="0.5" x1="110.5761044054928" x2="104.9204218323942" y1="434.80682884267344" y2="436.81013976021694" /><line stroke="#444444" stroke-width="0.5" x1="97.00235426400883" x2="91.0260319237886" y1="372.5430976586163" y2="373.0756117765364" /><line stroke="#444444" stroke-width="0.5" x1="96.19537609286442" x2="90.1999912761604" y1="359.9605664175014" y2="360.19585538799356" /><line stroke="#444444" stroke-width="0.5" x1="97.51755528138051" x2="91.5534030439328" y1="322.2760913847046" y2="321.62119590560314" /><line stroke="#444444" stroke-width="0.5" x1="112.36463768284662" x2="106.7512039273233" y1="260.30365349472015" y2="258.18484215994977" /><line stroke="#444444" stroke-width="0.5" x1="202.2254453324141" x2="198.73470782058135" y1="143.41180819612012" y2="138.5317721692568" /><line stroke="#444444" stroke-width="0.5" x1="258.3162963936205" x2="256.1505396155171" y1="113.12429737725827" y2="107.52880833892578" /><line stroke="#444444" stroke-width="0.5" x1="290.43874320145375" x2="289.0317843794408" y1="103.08208512022134" y2="97.2493784695179" /></svg>