<?xml version="1.0" encoding="utf-8" ?>
<svg baseProfile="full" height="700px" version="1.1" viewBox="0 0 700 700" width="700px" xmlns="http://www.w3.org/2000/svg" xmlns:ev="http://www.w3.org/2001/xml-events" xmlns:xlink="http://www.w3.org/1999/xlink"><defs /><rect fill="#FFFFFF" height="700px" width="700px" x="0" y="0" /><circle cx="350" cy="350" fill="none" r="252.0" stroke="#BBBBBB" stroke-width="1" /><path d="M 350.0 210.0 A 140.0 140.0 0 0 1 471.24355652982143 420.0 L 398.4974226119286 378.0 A 56.0 56.0 0 0 0 350.0 294.0 Z" fill="#F5F5F5" stroke="none" /><path d="M 471.24355652982143 420.0 A 140.0 140.0 0 0 1 228.75644347017857 420.0 L 301.5025773880714 378.0 A 56.0 56.0 0 0 0 398.4974226119286 378.0 Z" fill="#FFFFFF" stroke="none" /><path d="M 228.75644347017857 420.0 A 140.0 140.0 0 0 1 350.0 210.0 L 350.0 294.0 A 56.0 56.0 0 0 0 301.5025773880714 378.0 Z" fill="#F5F5F5" stroke="none" /><line stroke="#CCCCCC" stroke-width="1.0" x1="350.0" x2="350.0" y1="294.0" y2="210.0" /><line stroke="#CCCCCC" stroke-width="1.0" x1="398.4974226119286" x2="471.24355652982143" y1="378.0" y2="420.0" /><line stroke="#CCCCCC" stroke-width="1.0" x1="301.5025773880714" x2="228.75644347017857" y1="378.0" y2="420.0" /><text dominant-baseline="middle" fill="#555555" font-family="&quot;Symbola&quot;, &quot;Noto Sans Symbols&quot;, &quot;Apple Symbols&quot;, &quot;Segoe UI Symbol&quot;, serif" font-size="14px" text-anchor="middle" x="413.90857008222775" y="283.8207383688441">♈</text><text dominant-baseline="middle" fill="#555555" font-family="&quot;Symbola&quot;, &quot;Noto Sans Symbols&quot;, &quot;Apple Symbols&quot;, &quot;Segoe UI Symbol&quot;, serif" font-size="14px" text-anchor="middle" x="439.2672068173917" y="327.74318560483056">♋</text><text dominant-baseline="middle" fill="#555555" font-family="&quot;Symbola&quot;, &quot;Noto Sans Symbols&quot;, &quot;Apple Symbols&quot;, &quot;Segoe UI Symbol&quot;, serif" font-size="14px" text-anchor="middle" x="422.2444705277357" y="275.18866076478025">♎</text><text dominant-baseline="middle" fill="#555555" font-family="&quot;Symbola&quot;, &quot;Noto Sans Symbols&quot;, &quot;Apple Symbols&quot;, &quot;Segoe UI Symbol&quot;, serif" font-size="14px" text-anchor="middle" x="450.91075553270366" y="324.8401228576345">♑</text><text dominant-baseline="middle" fill="#555555" font-family="&quot;Symbola&quot;, &quot;Noto Sans Symbols&quot;, &quot;Apple Symbols&quot;, &quot;Segoe UI Symbol&quot;, serif" font-size="14px" text-anchor="middle" x="375.35863673516394" y="438.43607602632534">♉</text><text dominant-baseline="middle" fill="#555555" font-family="&quot;Symbola&quot;, &quot;Noto Sans Symbols&quot;, &quot;Apple Symbols&quot;, &quot;Segoe UI Symbol&quot;, serif" font-size="14px" text-anchor="middle" x="324.64136326483606" y="438.43607602632534">♌</text><text dominant-baseline="middle" fill="#555555" font-family="&quot;Symbola&quot;, &quot;Noto Sans Symbols&quot;, &quot;Apple Symbols&quot;, &quot;Segoe UI Symbol&quot;, serif" font-size="14px" text-anchor="middle" x="378.6662850049679" y="449.97121637758516">♏</text><text dominant-baseline="middle" fill="#555555" font-family="&quot;Symbola&quot;, &quot;Noto Sans Symbols&quot;, &quot;Apple Symbols&quot;, &quot;Segoe UI Symbol&quot;, serif" font-size="14px" text-anchor="middle" x="321.3337149950321" y="449.97121637758516">♒</text><text dominant-baseline="middle" fill="#555555" font-family="&quot;Symbola&quot;, &quot;Noto Sans Symbols&quot;, &quot;Apple Symbols&quot;, &quot;Segoe UI Symbol&quot;, serif" font-size="14px" text-anchor="middle" x="260.7327931826083" y="327.7431856048306">♊</text><text dominant-baseline="middle" fill="#555555" font-family="&quot;Symbola&quot;, &quot;Noto Sans Symbols&quot;, &quot;Apple Symbols&quot;, &quot;Segoe UI Symbol&quot;, serif" font-size="14px" text-anchor="middle" x="286.09142991777225" y="283.8207383688441">♍</text><text dominant-baseline="middle" fill="#555555" font-family="&quot;Symbola&quot;, &quot;Noto Sans Symbols&quot;, &quot;Apple Symbols&quot;, &quot;Segoe UI Symbol&quot;, serif" font-size="14px" text-anchor="middle" x="249.08924446729637" y="324.8401228576346">♐</text><text dominant-baseline="middle" fill="#555555" font-family="&quot;Symbola&quot;, &quot;Noto Sans Symbols&quot;, &quot;Apple Symbols&quot;, &quot;Segoe UI Symbol&quot;, serif" font-size="14px" text-anchor="middle" x="277.7555294722643" y="275.18866076478025">♓</text><line stroke="#BBBBBB" stroke-width="0.5" x1="349.99999999999994" x2="349.99999999999994" y1="117.6" y2="98.0" /><line stroke="#BBBBBB" stroke-width="0.5" x1="366.9926770040689" x2="367.57863138351956" y1="106.9933973567068" y2="98.61385933452428" /><line stroke="#BBBBBB" stroke-width="0.5" x1="383.90256739387195" x2="385.0716214419365" y1="108.77069845455347" y2="100.45244667712427" /><line stroke="#BBBBBB" stroke-width="0.5" x1="400.6472878832062" x2="402.3937460860754" y1="111.72324446124497" y2="103.506804615081" /><line stroke="#BBBBBB" stroke-width="0.5" x1="417.14525987702103" x2="419.46061366588384" y1="115.83665086942554" y2="107.76205262354367" /><line stroke="#BBBBBB" stroke-width="0.5" x1="431.4007941115092" x2="436.18907611806856" y1="126.35315625295382" y2="113.19745956195109" /><line stroke="#BBBBBB" stroke-width="0.5" x1="449.08104625326484" x2="452.49763405510157" y1="127.46032651826238" y2="119.78654467406452" /><line stroke="#BBBBBB" stroke-width="0.5" x1="464.3632726946429" x2="468.3068338220444" y1="134.91396637956535" y2="127.49720659955037" /><line stroke="#BBBBBB" stroke-width="0.5" x1="479.08833276720867" x2="483.5396545867676" y1="143.4154837762946" y2="136.2918797685806" /><line stroke="#BBBBBB" stroke-width="0.5" x1="493.18448745844637" x2="498.1218835777032" y1="152.92346017026279" y2="146.12771741751322" /><line stroke="#BBBBBB" stroke-width="0.5" x1="499.3838404911517" x2="511.9824776410079" y1="171.97127141914947" y2="156.95680033401752" /><line stroke="#BBBBBB" stroke-width="0.5" x1="519.2187790438118" x2="525.0539093556673" y1="174.76882463750457" y2="168.7263703146599" /><line stroke="#BBBBBB" stroke-width="0.5" x1="531.0300794862933" x2="537.2724960203034" y1="186.99978429098218" y2="181.37908719756774" /><line stroke="#BBBBBB" stroke-width="0.5" x1="541.9594195785975" x2="548.578709908894" y1="200.02486461066968" y2="194.85330821793414" /><line stroke="#BBBBBB" stroke-width="0.5" x1="551.9535526744082" x2="558.9174682838706" y1="213.78060871452612" y2="209.08338832537186" /><line stroke="#BBBBBB" stroke-width="0.5" x1="556.1140461006963" x2="568.2384017536784" y1="230.9999999999999" y2="223.9999999999999" /><line stroke="#BBBBBB" stroke-width="0.5" x1="568.946229678477" x2="576.49609966739" y1="243.21278864218067" y2="239.5304710091524" /><line stroke="#BBBBBB" stroke-width="0.5" x1="575.8619869724694" x2="583.6503313508304" y1="258.74583384388376" y2="255.5991384591901" /><line stroke="#BBBBBB" stroke-width="0.5" x1="581.6773673694994" x2="589.6662421063787" y1="274.72346017026274" y2="272.12771741751317" /><line stroke="#BBBBBB" stroke-width="0.5" x1="586.3640389208327" x2="594.5145230215511" y1="291.0678262319209" y2="289.0356823088837" /><line stroke="#BBBBBB" stroke-width="0.5" x1="578.8693218000371" x2="598.1715537590765" y1="309.6441635102054" y2="306.2406592279335" /><line stroke="#BBBBBB" stroke-width="0.5" x1="592.2655337117113" x2="600.6195176328049" y1="324.53686634799965" y2="323.6588272565513" /><line stroke="#BBBBBB" stroke-width="0.5" x1="593.4516054618517" x2="601.8464884088121" y1="341.4984826032708" y2="341.2053268309698" /><line stroke="#BBBBBB" stroke-width="0.5" x1="593.4516054618517" x2="601.8464884088121" y1="358.50151739672924" y2="358.79467316903026" /><line stroke="#BBBBBB" stroke-width="0.5" x1="592.2655337117113" x2="600.6195176328049" y1="375.4631336520004" y2="376.3411727434487" /><line stroke="#BBBBBB" stroke-width="0.5" x1="584.3842452169055" x2="598.1715537590765" y1="391.3282662847294" y2="393.7593407720664" /><line stroke="#BBBBBB" stroke-width="0.5" x1="586.3640389208327" x2="594.5145230215511" y1="408.93217376807905" y2="410.96431769111626" /><line stroke="#BBBBBB" stroke-width="0.5" x1="581.6773673694994" x2="589.6662421063787" y1="425.2765398297372" y2="427.8722825824867" /><line stroke="#BBBBBB" stroke-width="0.5" x1="575.8619869724694" x2="583.6503313508305" y1="441.2541661561162" y2="444.40086154080984" /><line stroke="#BBBBBB" stroke-width="0.5" x1="568.946229678477" x2="576.4960996673901" y1="456.7872113578193" y2="460.4695289908475" /><line stroke="#BBBBBB" stroke-width="0.5" x1="551.2643038395036" x2="568.2384017536785" y1="466.2" y2="476.0" /><line stroke="#BBBBBB" stroke-width="0.5" x1="551.9535526744082" x2="558.9174682838704" y1="486.21939128547393" y2="490.91661167462826" /><line stroke="#BBBBBB" stroke-width="0.5" x1="541.9594195785975" x2="548.5787099088939" y1="499.9751353893304" y2="505.1466917820659" /><line stroke="#BBBBBB" stroke-width="0.5" x1="531.0300794862933" x2="537.2724960203034" y1="513.0002157090179" y2="518.6209128024323" /><line stroke="#BBBBBB" stroke-width="0.5" x1="519.2187790438118" x2="525.0539093556673" y1="525.2311753624954" y2="531.2736296853401" /><line stroke="#BBBBBB" stroke-width="0.5" x1="502.9834511053964" x2="511.9824776410079" y1="532.3185774623167" y2="543.0431996659825" /><line stroke="#BBBBBB" stroke-width="0.5" x1="493.1844874584465" x2="498.1218835777032" y1="547.0765398297372" y2="553.8722825824867" /><line stroke="#BBBBBB" stroke-width="0.5" x1="479.0883327672087" x2="483.5396545867676" y1="556.5845162237054" y2="563.7081202314193" /><line stroke="#BBBBBB" stroke-width="0.5" x1="464.363272694643" x2="468.3068338220445" y1="565.0860336204346" y2="572.5027934004496" /><line stroke="#BBBBBB" stroke-width="0.5" x1="449.08104625326496" x2="452.4976340551017" y1="572.5396734817375" y2="580.2134553259355" /><line stroke="#BBBBBB" stroke-width="0.5" x1="429.4854813088854" x2="436.18907611806856" y1="568.3845650706451" y2="586.8025404380489" /><line stroke="#BBBBBB" stroke-width="0.5" x1="417.145259877021" x2="419.4606136658838" y1="584.1633491305745" y2="592.2379473764563" /><line stroke="#BBBBBB" stroke-width="0.5" x1="400.6472878832062" x2="402.3937460860754" y1="588.276755538755" y2="596.493195384919" /><line stroke="#BBBBBB" stroke-width="0.5" x1="383.90256739387195" x2="385.0716214419365" y1="591.2293015454466" y2="599.5475533228757" /><line stroke="#BBBBBB" stroke-width="0.5" x1="366.9926770040689" x2="367.57863138351956" y1="593.0066026432931" y2="601.3861406654758" /><line stroke="#BBBBBB" stroke-width="0.5" x1="350.0" x2="350.0" y1="588.0" y2="602.0" /><line stroke="#BBBBBB" stroke-width="0.5" x1="333.0073229959311" x2="332.42136861648044" y1="593.0066026432931" y2="601.3861406654758" /><line stroke="#BBBBBB" stroke-width="0.5" x1="316.0974326061281" x2="314.9283785580635" y1="591.2293015454466" y2="599.5475533228757" /><line stroke="#BBBBBB" stroke-width="0.5" x1="299.35271211679384" x2="297.60625391392466" y1="588.2767555387551" y2="596.4931953849191" /><line stroke="#BBBBBB" stroke-width="0.5" x1="282.854740122979" x2="280.5393863341162" y1="584.1633491305745" y2="592.2379473764563" /><line stroke="#BBBBBB" stroke-width="0.5" x1="270.5145186911146" x2="263.8109238819315" y1="568.3845650706451" y2="586.8025404380489" /><line stroke="#BBBBBB" stroke-width="0.5" x1="250.91895374673504" x2="247.50236594489832" y1="572.5396734817375" y2="580.2134553259355" /><line stroke="#BBBBBB" stroke-width="0.5" x1="235.63672730535697" x2="231.6931661779555" y1="565.0860336204346" y2="572.5027934004496" /><line stroke="#BBBBBB" stroke-width="0.5" x1="220.9116672327913" x2="216.4603454132324" y1="556.5845162237054" y2="563.7081202314193" /><line stroke="#BBBBBB" stroke-width="0.5" x1="206.81551254155357" x2="201.87811642229678" y1="547.0765398297372" y2="553.8722825824867" /><line stroke="#BBBBBB" stroke-width="0.5" x1="197.01654889460363" x2="188.01752235899207" y1="532.3185774623167" y2="543.0431996659825" /><line stroke="#BBBBBB" stroke-width="0.5" x1="180.78122095618824" x2="174.94609064433266" y1="525.2311753624954" y2="531.2736296853401" /><line stroke="#BBBBBB" stroke-width="0.5" x1="168.96992051370682" x2="162.7275039796967" y1="513.0002157090179" y2="518.6209128024324" /><line stroke="#BBBBBB" stroke-width="0.5" x1="158.04058042140255" x2="151.42129009110607" y1="499.9751353893304" y2="505.1466917820659" /><line stroke="#BBBBBB" stroke-width="0.5" x1="148.04644732559186" x2="141.08253171612952" y1="486.21939128547393" y2="490.91661167462826" /><line stroke="#BBBBBB" stroke-width="0.5" x1="148.73569616049645" x2="131.76159824632146" y1="466.2" y2="476.0" /><line stroke="#BBBBBB" stroke-width="0.5" x1="131.0537703215229" x2="123.5039003326099" y1="456.7872113578192" y2="460.4695289908475" /><line stroke="#BBBBBB" stroke-width="0.5" x1="124.1380130275306" x2="116.34966864916959" y1="441.2541661561162" y2="444.4008615408099" /><line stroke="#BBBBBB" stroke-width="0.5" x1="118.3226326305006" x2="110.33375789362131" y1="425.2765398297372" y2="427.8722825824868" /><line stroke="#BBBBBB" stroke-width="0.5" x1="113.63596107916726" x2="105.4854769784489" y1="408.93217376807905" y2="410.96431769111626" /><line stroke="#BBBBBB" stroke-width="0.5" x1="115.6157547830945" x2="101.82844624092357" y1="391.3282662847294" y2="393.7593407720664" /><line stroke="#BBBBBB" stroke-width="0.5" x1="107.73446628828864" x2="99.38048236719513" y1="375.46313365200047" y2="376.34117274344874" /><line stroke="#BBBBBB" stroke-width="0.5" x1="106.54839453814827" x2="98.15351159118788" y1="358.5015173967293" y2="358.79467316903026" /><line stroke="#BBBBBB" stroke-width="0.5" x1="106.54839453814827" x2="98.15351159118788" y1="341.49848260327076" y2="341.2053268309698" /><line stroke="#BBBBBB" stroke-width="0.5" x1="107.73446628828864" x2="99.38048236719513" y1="324.5368663479996" y2="323.6588272565513" /><line stroke="#BBBBBB" stroke-width="0.5" x1="121.13067819996286" x2="101.82844624092357" y1="309.6441635102054" y2="306.2406592279335" /><line stroke="#BBBBBB" stroke-width="0.5" x1="113.63596107916726" x2="105.4854769784489" y1="291.067826231921" y2="289.0356823088838" /><line stroke="#BBBBBB" stroke-width="0.5" x1="118.32263263050058" x2="110.33375789362128" y1="274.72346017026285" y2="272.1277174175133" /><line stroke="#BBBBBB" stroke-width="0.5" x1="124.13801302753058" x2="116.34966864916956" y1="258.7458338438838" y2="255.59913845919016" /><line stroke="#BBBBBB" stroke-width="0.5" x1="131.05377032152293" x2="123.50390033260993" y1="243.21278864218073" y2="239.53047100915248" /><line stroke="#BBBBBB" stroke-width="0.5" x1="143.88595389930362" x2="131.76159824632148" y1="230.99999999999997" y2="223.99999999999997" /><line stroke="#BBBBBB" stroke-width="0.5" x1="148.0464473255918" x2="141.08253171612947" y1="213.78060871452612" y2="209.08338832537183" /><line stroke="#BBBBBB" stroke-width="0.5" x1="158.04058042140252" x2="151.42129009110604" y1="200.02486461066968" y2="194.85330821793414" /><line stroke="#BBBBBB" stroke-width="0.5" x1="168.96992051370677" x2="162.72750397969665" y1="186.99978429098215" y2="181.3790871975677" /><line stroke="#BBBBBB" stroke-width="0.5" x1="180.78122095618826" x2="174.94609064433268" y1="174.76882463750457" y2="168.7263703146599" /><line stroke="#BBBBBB" stroke-width="0.5" x1="200.61615950884823" x2="188.01752235899204" y1="171.97127141914953" y2="156.95680033401757" /><line stroke="#BBBBBB" stroke-width="0.5" x1="206.81551254155352" x2="201.87811642229673" y1="152.92346017026284" y2="146.12771741751328" /><line stroke="#BBBBBB" stroke-width="0.5" x1="220.91166723279127" x2="216.46034541323235" y1="143.41548377629465" y2="136.29187976858066" /><line stroke="#BBBBBB" stroke-width="0.5" x1="235.636727305357" x2="231.69316617795553" y1="134.91396637956538" y2="127.4972065995504" /><line stroke="#BBBBBB" stroke-width="0.5" x1="250.9189537467351" x2="247.50236594489837" y1="127.4603265182624" y2="119.78654467406454" /><line stroke="#BBBBBB" stroke-width="0.5" x1="268.59920588849087" x2="263.81092388193156" y1="126.3531562529538" y2="113.19745956195106" /><line stroke="#BBBBBB" stroke-width="0.5" x1="282.8547401229791" x2="280.5393863341163" y1="115.83665086942548" y2="107.76205262354361" /><line stroke="#BBBBBB" stroke-width="0.5" x1="299.3527121167937" x2="297.60625391392455" y1="111.72324446124497" y2="103.506804615081" /><line stroke="#BBBBBB" stroke-width="0.5" x1="316.097432606128" x2="314.9283785580634" y1="108.7706984545535" y2="100.4524466771243" /><line stroke="#BBBBBB" stroke-width="0.5" x1="333.007322995931" x2="332.4213686164804" y1="106.99339735670682" y2="98.6138593345243" /><text dominant-baseline="middle" fill="#555555" font-family="&quot;Arial&quot;, &quot;Helvetica&quot;, sans-serif" font-size="8px" text-anchor="middle" x="349.99999999999994" y="134.0">0</text><text dominant-baseline="middle" fill="#555555" font-family="&quot;Arial&quot;, &quot;Helvetica&quot;, sans-serif" font-size="8px" text-anchor="middle" x="423.8763509583445" y="147.0263939102438">5</text><text dominant-baseline="middle" fill="#555555" font-family="&quot;Arial&quot;, &quot;Helvetica&quot;, sans-serif" font-size="8px" text-anchor="middle" x="488.8421236922925" y="184.53440028630072">10</text><text dominant-baseline="middle" fill="#555555" font-family="&quot;Arial&quot;, &quot;Helvetica&quot;, sans-serif" font-size="8px" text-anchor="middle" x="537.0614872174388" y="241.9999999999999">15</text><text dominant-baseline="middle" fill="#555555" font-family="&quot;Arial&quot;, &quot;Helvetica&quot;, sans-serif" font-size="8px" text-anchor="middle" x="562.718474650637" y="312.491993623943">20</text><text dominant-baseline="middle" fill="#555555" font-family="&quot;Arial&quot;, &quot;Helvetica&quot;, sans-serif" font-size="8px" text-anchor="middle" x="562.718474650637" y="387.508006376057">25</text><text dominant-baseline="middle" fill="#555555" font-family="&quot;Arial&quot;, &quot;Helvetica&quot;, sans-serif" font-size="8px" text-anchor="middle" x="537.0614872174388" y="458.0">30</text><text dominant-baseline="middle" fill="#555555" font-family="&quot;Arial&quot;, &quot;Helvetica&quot;, sans-serif" font-size="8px" text-anchor="middle" x="488.8421236922925" y="515.4655997136992">35</text><text dominant-baseline="middle" fill="#555555" font-family="&quot;Arial&quot;, &quot;Helvetica&quot;, sans-serif" font-size="8px" text-anchor="middle" x="423.87635095834446" y="552.9736060897562">40</text><text dominant-baseline="middle" fill="#555555" font-family="&quot;Arial&quot;, &quot;Helvetica&quot;, sans-serif" font-size="8px" text-anchor="middle" x="350.0" y="566.0">45</text><text dominant-baseline="middle" fill="#555555" font-family="&quot;Arial&quot;, &quot;Helvetica&quot;, sans-serif" font-size="8px" text-anchor="middle" x="276.12364904165554" y="552.9736060897562">50</text><text dominant-baseline="middle" fill="#555555" font-family="&quot;Arial&quot;, &quot;Helvetica&quot;, sans-serif" font-size="8px" text-anchor="middle" x="211.1578763077075" y="515.4655997136992">55</text><text dominant-baseline="middle" fill="#555555" font-family="&quot;Arial&quot;, &quot;Helvetica&quot;, sans-serif" font-size="8px" text-anchor="middle" x="162.93851278256125" y="458.0">60</text><text dominant-baseline="middle" fill="#555555" font-family="&quot;Arial&quot;, &quot;Helvetica&quot;, sans-serif" font-size="8px" text-anchor="middle" x="137.28152534936308" y="387.5080063760569">65</text><text dominant-baseline="middle" fill="#555555" font-family="&quot;Arial&quot;, &quot;Helvetica&quot;, sans-serif" font-size="8px" text-anchor="middle" x="137.28152534936308" y="312.491993623943">70</text><text dominant-baseline="middle" fill="#555555" font-family="&quot;Arial&quot;, &quot;Helvetica&quot;, sans-serif" font-size="8px" text-anchor="middle" x="162.93851278256128" y="241.99999999999997">75</text><text dominant-baseline="middle" fill="#555555" font-family="&quot;Arial&quot;, &quot;Helvetica&quot;, sans-serif" font-size="8px" text-anchor="middle" x="211.15787630770748" y="184.53440028630078">80</text><text dominant-baseline="middle" fill="#555555" font-family="&quot;Arial&quot;, &quot;Helvetica&quot;, sans-serif" font-size="8px" text-anchor="middle" x="276.1236490416556" y="147.02639391024377">85</text><line stroke="#555555" stroke-width="2.0" x1="349.99999999999994" x2="349.99999999999994" y1="131.0" y2="83.0" /><polygon fill="#555555" points="349.99999999999994,131.0 353.38094609392556,123.7495377037068 346.6190539060743,123.7495377037068" /><line stroke="#555555" stroke-width="4.0" x1="349.99999999999994" x2="349.99999999999994" y1="101.0" y2="95.0" /><line stroke="#555555" stroke-width="2.0" x1="569.0" x2="617.0" y1="350.0" y2="350.0" /><polygon fill="#555555" points="569.0,350.0 576.2504622962932,353.3809460939256 576.2504622962932,346.6190539060744" /><line stroke="#555555" stroke-width="4.0" x1="599.0" x2="605.0" y1="350.0" y2="350.0" /><line stroke="#555555" stroke-width="2.0" x1="350.0" x2="350.0" y1="569.0" y2="617.0" /><polygon fill="#555555" points="350.0,569.0 346.6190539060744,576.2504622962932 353.3809460939256,576.2504622962932" /><line stroke="#555555" stroke-width="4.0" x1="350.0" x2="350.0" y1="599.0" y2="605.0" /><line stroke="#555555" stroke-width="2.0" x1="131.0" x2="83.0" y1="350.0" y2="350.00000000000006" /><polygon fill="#555555" points="131.0,350.0 123.7495377037068,346.6190539060744 123.7495377037068,353.3809460939256" /><line stroke="#555555" stroke-width="4.0" x1="101.0" x2="95.0" y1="350.00000000000006" y2="350.00000000000006" /><line stroke="#444444" stroke-width="1.0" x1="349.99999999999994" x2="349.99999999999994" y1="134.0" y2="126.0" /><line stroke="#CCCCCC" stroke-dasharray="2,2" stroke-width="0.5" x1="349.99999999999994" x2="380.35191190233064" y1="134.0" y2="170.5487212531681" /><text dominant-baseline="middle" fill="#222222" font-family="&quot;Symbola&quot;, &quot;Noto Sans Symbols&quot;, &quot;Apple Symbols&quot;, &quot;Segoe UI Symbol&quot;, serif" font-size="18px" text-anchor="middle" x="380.35191190233064" y="170.5487212531681">♈</text><line stroke="#444444" stroke-width="1.0" x1="400.307107241796" x2="402.17033343593664" y1="139.94002056326283" y2="132.16002132486517" /><line stroke="#CCCCCC" stroke-dasharray="2,2" stroke-width="0.5" x1="400.307107241796" x2="425.9596211302547" y1="139.94002056326283" y2="184.60914185557846" /><text dominant-baseline="middle" fill="#222222" font-family="&quot;Symbola&quot;, &quot;Noto Sans Symbols&quot;, &quot;Apple Symbols&quot;, &quot;Segoe UI Symbol&quot;, serif" font-size="18px" text-anchor="middle" x="425.9596211302547" y="184.60914185557846">♂</text><line stroke="#444444" stroke-width="1.0" x1="562.8232593722298" x2="570.705602311942" y1="313.09118980269636" y2="311.7241968324259" /><line stroke="#CCCCCC" stroke-dasharray="2,2" stroke-width="0.5" x1="562.8232593722298" x2="527.3076965513292" y1="313.09118980269636" y2="308.9393041502978" /><svg height="18.0" viewBox="0 0 12 12" width="18.0" x="518.3076965513292" y="299.9393041502978"><defs /><path d="M5.835 5.999c.362.362.862.585 1.415.585S8.303 6.361 8.665 6m-2.83 5a1.994 1.994 0 0 1 1.415-.585c.553 0 1.053.223 1.415.585m-2.226-.426V6.42m1.622 4.155V6.42M2.25 1a4.33 4.33 0 0 1 0 7.5h7.5" fill="none" stroke="#222222" stroke-linecap="round" stroke-linejoin="round" stroke-width="0.60000002" /></svg><line stroke="#444444" stroke-width="1.0" x1="564.8675598173658" x2="572.8256175883794" y1="372.08917694552576" y2="372.90729461017486" /><line stroke="#CCCCCC" stroke-dasharray="2,2" stroke-width="0.5" x1="564.8675598173658" x2="531.8024808963391" y1="372.08917694552576" y2="358.4769062715269" /><svg height="18.0" viewBox="0 0 12 12" width="18.0" x="522.8024808963391" y="349.4769062715269"><defs /><path d="M8.828 2.172A3.988 3.988 0 0 0 6 1C3.793 1 2 2.793 2 5s1.793 4 4 4a3.988 3.988 0 0 0 2.828-1.172M6 11V3.5M4.5 5h3" fill="none" stroke="#222222" stroke-linecap="round" stroke-linejoin="round" stroke-width="0.60000002" /></svg><line stroke="#444444" stroke-width="1.0" x1="558.8437672183137" x2="566.5787215597328" y1="405.13874222416376" y2="407.1809178620958" /><line stroke="#CCCCCC" stroke-dasharray="2,2" stroke-width="0.5" x1="558.8437672183137" x2="523.102393236259" y1="405.13874222416376" y2="406.20997647997683" /><text dominant-baseline="middle" fill="#222222" font-family="&quot;Symbola&quot;, &quot;Noto Sans Symbols&quot;, &quot;Apple Symbols&quot;, &quot;Segoe UI Symbol&quot;, serif" font-size="18px" text-anchor="middle" x="523.102393236259" y="406.20997647997683">♀</text><line stroke="#444444" stroke-width="1.0" x1="517.1988162270173" x2="523.3913649761662" y1="486.74997569390666" y2="491.81478960849586" /><line stroke="#CCCCCC" stroke-dasharray="2,2" stroke-width="0.5" x1="517.1988162270173" x2="498.5749622285156" y1="486.74997569390666" y2="455.11650963951945" /><svg height="18.0" viewBox="0 0 12 12" width="18.0" x="489.5749622285156" y="446.11650963951945"><defs /><path d="M3.5 3.5 6 1l2.5 2.5M6 1v5.67L8.5 11h-5L6 6.67" fill="none" stroke="#222222" stroke-linecap="round" stroke-linejoin="round" stroke-width="0.60000002" /></svg><line stroke="#444444" stroke-width="1.0" x1="495.1538631832025" x2="500.52993218998773" y1="509.9573568267248" y2="515.8817033758627" /><line stroke="#CCCCCC" stroke-dasharray="2,2" stroke-width="0.5" x1="495.1538631832025" x2="464.59130653324473" y1="509.9573568267248" y2="491.39601291056243" /><text dominant-baseline="middle" fill="#222222" font-family="&quot;Symbola&quot;, &quot;Noto Sans Symbols&quot;, &quot;Apple Symbols&quot;, &quot;Segoe UI Symbol&quot;, serif" font-size="18px" text-anchor="middle" x="464.59130653324473" y="491.39601291056243">♇</text><line stroke="#444444" stroke-width="1.0" x1="348.94138713630065" x2="348.9021792524599" y1="565.9974058612853" y2="573.9973097820737" /><line stroke="#CCCCCC" stroke-dasharray="2,2" stroke-width="0.5" x1="348.94138713630065" x2="394.3970596915033" y1="565.9974058612853" y2="526.5018444400769" /><svg height="18.0" viewBox="0 0 12 12" width="18.0" x="385.3970596915033" y="517.5018444400769"><defs /><path d="M6 10h2.5m0-5.25a1.25 1.25 0 1 0-2.5 0C6 5.442 6.559 6 7.25 6S8.5 5.442 8.5 4.75zM2.25 1a4.33 4.33 0 0 1 0 7.5h7.5M7.25 6v5" fill="none" stroke="#222222" stroke-linecap="round" stroke-linejoin="round" stroke-width="0.60000002" /></svg><line stroke="#444444" stroke-width="1.0" x1="330.00633867261115" x2="329.2658326975226" y1="565.0726702924518" y2="573.0383247477278" /><line stroke="#CCCCCC" stroke-dasharray="2,2" stroke-width="0.5" x1="330.00633867261115" x2="345.83569954407847" y1="565.0726702924518" y2="531.9523525588851" /><text dominant-baseline="middle" fill="#222222" font-family="&quot;Symbola&quot;, &quot;Noto Sans Symbols&quot;, &quot;Apple Symbols&quot;, &quot;Segoe UI Symbol&quot;, serif" font-size="18px" text-anchor="middle" x="345.83569954407847" y="531.9523525588851">☉</text><line stroke="#444444" stroke-width="1.0" x1="267.9047533324756" x2="264.86418864108583" y1="549.79081679246" y2="557.1904766736623" /><line stroke="#CCCCCC" stroke-dasharray="2,2" stroke-width="0.5" x1="267.9047533324756" x2="297.5846137074286" y1="549.79081679246" y2="524.288918981674" /><text dominant-baseline="middle" fill="#222222" font-family="&quot;Symbola&quot;, &quot;Noto Sans Symbols&quot;, &quot;Apple Symbols&quot;, &quot;Segoe UI Symbol&quot;, serif" font-size="18px" text-anchor="middle" x="297.5846137074286" y="524.288918981674">♅</text><line stroke="#444444" stroke-width="1.0" x1="226.89533195778228" x2="222.3358998080705" y1="527.4858887523608" y2="534.0594401876334" /><line stroke="#CCCCCC" stroke-dasharray="2,2" stroke-width="0.5" x1="226.89533195778228" x2="252.62633749139567" y1="527.4858887523608" y2="503.76075523247283" /><svg height="18.0" viewBox="0 0 12 12" width="18.0" x="243.62633749139567" y="494.76075523247283"><defs /><path d="M2.113 11A5.776 5.776 0 0 0 5 6a5.776 5.776 0 0 0-2.887-5m7.773 10A5.776 5.776 0 0 1 7 6a5.776 5.776 0 0 1 2.886-5M1 6h10" fill="none" stroke="#222222" stroke-linecap="round" stroke-linejoin="round" stroke-width="0.59999996" /></svg><line stroke="#444444" stroke-width="1.0" x1="193.35666294469854" x2="187.55505786857628" y1="498.7241236524163" y2="504.23242452843175" /><line stroke="#CCCCCC" stroke-dasharray="2,2" stroke-width="0.5" x1="193.35666294469854" x2="214.56597617030118" y1="498.7241236524163" y2="471.5797071443116" /><svg height="18.0" viewBox="0 0 12 12" width="18.0" x="205.56597617030118" y="462.5797071443116"><defs /><path d="M6 11V3M4 5h4m0 0a1.999 1.999 0 1 0-4 0 1.999 1.999 0 1 0 4 0ZM4 1a1.999 1.999 0 1 0 4 0" fill="none" stroke="#222222" stroke-linecap="round" stroke-linejoin="round" stroke-width="0.60000002" /></svg><line stroke="#444444" stroke-width="1.0" x1="181.74612832877364" x2="175.51450345206155" y1="485.4497496034692" y2="490.46640699619024" /><line stroke="#CCCCCC" stroke-dasharray="2,2" stroke-width="0.5" x1="181.74612832877364" x2="187.59979288077972" y1="485.4497496034692" y2="432.15943480595735" /><text dominant-baseline="middle" fill="#222222" font-family="&quot;Symbola&quot;, &quot;Noto Sans Symbols&quot;, &quot;Apple Symbols&quot;, &quot;Segoe UI Symbol&quot;, serif" font-size="18px" text-anchor="middle" x="187.59979288077972" y="432.15943480595735">☿</text><line stroke="#444444" stroke-width="1.0" x1="134.88067576951397" x2="126.91329339060707" y1="330.5147147154828" y2="329.7930374827229" /><svg height="18.0" viewBox="0 0 12 12" width="18.0" x="159.74205087986823" y="324.5818429547124"><defs /><path d="m3.5 7 5 4m-5 0 5-4m-5-3.5L6 1l2.5 2.5M6 9V1" fill="none" stroke="#222222" stroke-linecap="round" stroke-linejoin="round" stroke-width="0.60000002" /></svg><line stroke="#444444" stroke-width="1.0" x1="160.46218940823158" x2="153.44227049742534" y1="246.40744063361058" y2="242.57067917559613" /><line stroke="#CCCCCC" stroke-dasharray="2,2" stroke-width="0.5" x1="160.46218940823158" x2="181.56241451284552" y1="246.40744063361058" y2="281.0595924347881" /><text dominant-baseline="middle" fill="#222222" font-family="&quot;Symbola&quot;, &quot;Noto Sans Symbols&quot;, &quot;Apple Symbols&quot;, &quot;Segoe UI Symbol&quot;, serif" font-size="18px" text-anchor="middle" x="181.56241451284552" y="281.0595924347881">☽</text><line stroke="#444444" stroke-width="1.0" x1="191.08372815456093" x2="185.19794030843354" y1="203.70707965610057" y2="198.28882334706725" /><line stroke="#CCCCCC" stroke-dasharray="2,2" stroke-width="0.5" x1="191.08372815456093" x2="206.25336145801526" y1="203.70707965610057" y2="238.37158109208934" /><svg height="18.0" viewBox="0 0 12 12" width="18.0" x="197.25336145801526" y="229.37158109208934"><defs /><path d="M3.5 4.75h5M6 11V1m3.536 1.464A4.984 4.984 0 0 0 6 1c-1.38 0-2.63.56-3.536 1.464" fill="none" stroke="#222222" stroke-linecap="round" stroke-linejoin="round" stroke-width="0.60000002" /></svg><line stroke="#444444" stroke-width="1.0" x1="209.45685511270315" x2="204.25155345021068" y1="185.97675644839757" y2="179.90182150204194" /><line stroke="#CCCCCC" stroke-dasharray="2,2" stroke-width="0.5" x1="209.45685511270315" x2="241.5085312512127" y1="185.97675644839757" y2="203.87128547499327" /><text dominant-baseline="middle" fill="#222222" font-family="&quot;Symbola&quot;, &quot;Noto Sans Symbols&quot;, &quot;Apple Symbols&quot;, &quot;Segoe UI Symbol&quot;, serif" font-size="18px" text-anchor="middle" x="241.5085312512127" y="203.87128547499327">♆</text><line stroke="#444444" stroke-width="1.0" x1="313.2145918729545" x2="311.85216934973056" y1="137.15537650923224" y2="129.27224230587046" /><line stroke="#CCCCCC" stroke-dasharray="2,2" stroke-width="0.5" x1="313.2145918729545" x2="284.7609430375972" y1="137.15537650923224" y2="180.09453967969023" /><text dominant-baseline="middle" fill="#222222" font-family="&quot;Symbola&quot;, &quot;Noto Sans Symbols&quot;, &quot;Apple Symbols&quot;, &quot;Segoe UI Symbol&quot;, serif" font-size="18px" text-anchor="middle" x="284.7609430375972" y="180.09453967969023">♄</text><line stroke="#444444" stroke-width="1.0" x1="343.49196032255225" x2="343.25092181598006" y1="134.09806527139048" y2="126.10169731847901" /><line stroke="#CCCCCC" stroke-dasharray="2,2" stroke-width="0.5" x1="343.49196032255225" x2="331.8398175040836" y1="134.09806527139048" y2="168.90828905851322" /><text dominant-baseline="middle" fill="#222222" font-family="&quot;Symbola&quot;, &quot;Noto Sans Symbols&quot;, &quot;Apple Symbols&quot;, &quot;Segoe UI Symbol&quot;, serif" font-size="18px" text-anchor="middle" x="331.8398175040836" y="168.90828905851322">♃</text><line stroke="#444444" stroke-width="0.5" x1="375.98029144901636" x2="376.5939991210404" y1="97.3321855553736" y2="91.3636545055005" /><line stroke="#444444" stroke-width="0.5" x1="484.9716987400003" x2="488.1600065842523" y1="134.8288110846654" y2="129.7460270945394" /><line stroke="#444444" stroke-width="0.5" x1="540.5078830271812" x2="545.0080692404217" y1="182.00373068278614" y2="178.0353148721433" /><line stroke="#444444" stroke-width="0.5" x1="548.8695484585944" x2="553.5672543276951" y1="191.99081452056407" y2="188.25831407616795" /><line stroke="#444444" stroke-width="0.5" x1="568.0142070584841" x2="573.1641489575035" y1="219.6703966066788" y2="216.59174455801767" /><line stroke="#444444" stroke-width="0.5" x1="585.5471443291549" x2="591.1112501007096" y1="254.95504853817695" y2="252.70989220443312" /><line stroke="#444444" stroke-width="0.5" x1="592.0564170372754" x2="597.7742851562662" y1="273.02798579303885" y2="271.2097492369689" /><line stroke="#444444" stroke-width="0.5" x1="596.0453382553646" x2="601.857432859822" y1="286.93105738318405" y2="285.44123984105454" /><line stroke="#444444" stroke-width="0.5" x1="600.784313341707" x2="606.7083522395426" y1="309.71069395325264" y2="308.7589780623846" /><line stroke="#444444" stroke-width="0.5" x1="603.8757422390413" x2="609.8728070163415" y1="357.9440230724653" y2="358.13167716079124" /><line stroke="#444444" stroke-width="0.5" x1="602.9195460630675" x2="608.8940235291243" y1="373.4030600403424" y2="373.95588823027174" /><line stroke="#444444" stroke-width="0.5" x1="600.5968744571406" x2="606.5164856647896" y1="391.43919053640025" y2="392.41806905300814" /><line stroke="#444444" stroke-width="0.5" x1="599.9022475242357" x2="605.8054502216586" y1="395.44080415590855" y2="396.5142089784891" /><line stroke="#444444" stroke-width="0.5" x1="591.7008121370354" x2="597.4102801402724" y1="428.0814793167851" y2="429.92592371009493" /><line stroke="#444444" stroke-width="0.5" x1="580.7256355805707" x2="586.1758474446787" y1="456.21525825389534" y2="458.72428010241254" /><line stroke="#444444" stroke-width="0.5" x1="567.0700528235376" x2="572.1976918666132" y1="481.8961415932498" y2="485.01179848127936" /><line stroke="#444444" stroke-width="0.5" x1="564.6575493323751" x2="569.728200104006" y1="485.7870999565826" y2="488.99466924689557" /><line stroke="#444444" stroke-width="0.5" x1="547.3010493057953" x2="551.9617040138062" y1="509.96342063994547" y2="513.7420841196292" /><line stroke="#444444" stroke-width="0.5" x1="495.5053599889928" x2="498.94249447692175" y1="558.1926756984348" y2="563.1106129196576" /><line stroke="#444444" stroke-width="0.5" x1="482.84238398299976" x2="485.9803930534643" y1="566.4922654916643" y2="571.6062560150895" /><line stroke="#444444" stroke-width="0.5" x1="463.080748031817" x2="465.75194680422214" y1="577.4395401520253" y2="582.8121277146715" /><line stroke="#444444" stroke-width="0.5" x1="458.14194665292723" x2="460.69648082583103" y1="579.828891513046" y2="585.257920446425" /><line stroke="#444444" stroke-width="0.5" x1="453.05382402686007" x2="455.4881663267072" y1="582.1549253266899" y2="587.6388999407062" /><line stroke="#444444" stroke-width="0.5" x1="430.4086890681217" x2="432.3081069201246" y1="590.936594817695" y2="596.6280104433098" /><line stroke="#444444" stroke-width="0.5" x1="402.9081651067813" x2="404.157964282532" y1="598.4285129872044" y2="604.2969030577683" /><line stroke="#444444" stroke-width="0.5" x1="393.853893268706" x2="394.8898120073368" y1="600.1856031932632" y2="606.0954993316867" /><line stroke="#444444" stroke-width="0.5" x1="375.5183361706975" x2="376.12113151331243" y1="602.7148878065542" y2="608.6845308256067" /><line stroke="#444444" stroke-width="0.5" x1="341.8829037369375" x2="341.6911613055266" y1="603.8702675546236" y2="609.8672030086698" /><line stroke="#444444" stroke-width="0.5" x1="330.1983605661763" x2="329.73060530396" y1="603.2269635637817" y2="609.208702860564" /><line stroke="#444444" stroke-width="0.5" x1="289.3067269840529" x2="287.87302762147146" y1="596.6421022668508" y2="602.4682936589811" /><line stroke="#444444" stroke-width="0.5" x1="255.9841043558952" x2="253.7632564272943" y1="585.9597664141851" y2="591.5336191641265" /><line stroke="#444444" stroke-width="0.5" x1="229.82384645090622" x2="226.98503967415596" y1="573.7715176651055" y2="579.0574590272734" /><line stroke="#444444" stroke-width="0.5" x1="198.0204404274909" x2="194.43037209113243" y1="553.5146517382623" y2="558.3220844564889" /><line stroke="#444444" stroke-width="0.5" x1="192.86037446547738" x2="189.14841480718158" y1="549.5573553815293" y2="554.2713086582585" /><line stroke="#444444" stroke-width="0.5" x1="162.75510702830576" x2="158.331999320313" y1="521.6256101402665" y2="525.6797584112965" /><line stroke="#444444" stroke-width="0.5" x1="125.7624832893191" x2="120.46553407568098" y1="469.3043842422696" y2="472.12259804326806" /><line stroke="#444444" stroke-width="0.5" x1="121.73324150736667" x2="116.34111335399737" y1="461.40146752743345" y2="464.03299825642796" /><line stroke="#444444" stroke-width="0.5" x1="110.5712654635181" x2="104.91546858470358" y1="434.79316645967924" y2="436.79615464376616" /><line stroke="#444444" stroke-width="0.5" x1="97.00088747376603" x2="91.02453048495732" y1="372.526630039533" y2="373.05875515857707" /><line stroke="#444444" stroke-width="0.5" x1="96.19533254018987" x2="90.19994669468252" y1="359.95945659236475" y2="360.19471934651506" /><line stroke="#444444" stroke-width="0.5" x1="97.51757409895981" x2="91.55342230602184" y1="322.2759200129969" y2="321.62102048574485" /><line stroke="#444444" stroke-width="0.5" x1="112.36541854976193" x2="106.75200323991379" y1="260.3015847466067" y2="258.18272454377063" /><line stroke="#444444" stroke-width="0.5" x1="202.23727689957988" x2="198.7468188735857" y1="143.403345472516" y2="138.52310953879592" /><line stroke="#444444" stroke-width="0.5" x1="258.3165133434422" x2="256.15076169013764" y1="113.12421340606218" y2="107.52872238415813" /><line stroke="#444444" stroke-width="0.5" x1="290.4386740994889" x2="289.0317136451461" y1="103.08210178892841" y2="97.24939553197396" /></svg>