<svg baseProfile="full" height="315" version="1.1" width="900" xmlns="http://www.w3.org/2000/svg" xmlns:ev="http://www.w3.org/2001/xml-events" xmlns:xlink="http://www.w3.org/1999/xlink"><defs /><rect fill="#1a1a2e" height="315" width="900" x="0" y="0" /><line stroke="#333355" stroke-width="0.5" x1="200.0" x2="200.0" y1="22" y2="280" /><text fill="#8888aa" font-family="sans-serif" font-size="9" x="203.0" y="20">Jan 2026</text><line stroke="#333355" stroke-width="0.5" x1="257.91208791208794" x2="257.91208791208794" y1="22" y2="280" /><text fill="#8888aa" font-family="sans-serif" font-size="9" x="260.91208791208794" y="20">Feb</text><line stroke="#333355" stroke-width="0.5" x1="310.2197802197802" x2="310.2197802197802" y1="22" y2="280" /><text fill="#8888aa" font-family="sans-serif" font-size="9" x="313.2197802197802" y="20">Mar</text><line stroke="#333355" stroke-width="0.5" x1="368.13186813186815" x2="368.13186813186815" y1="22" y2="280" /><text fill="#8888aa" font-family="sans-serif" font-size="9" x="371.13186813186815" y="20">Apr</text><line stroke="#333355" stroke-width="0.5" x1="424.1758241758242" x2="424.1758241758242" y1="22" y2="280" /><text fill="#8888aa" font-family="sans-serif" font-size="9" x="427.1758241758242" y="20">May</text><line stroke="#333355" stroke-width="0.5" x1="482.0879120879121" x2="482.0879120879121" y1="22" y2="280" /><text fill="#8888aa" font-family="sans-serif" font-size="9" x="485.0879120879121" y="20">Jun</text><line stroke="#333355" stroke-width="0.5" x1="538.1318681318681" x2="538.1318681318681" y1="22" y2="280" /><text fill="#8888aa" font-family="sans-serif" font-size="9" x="541.1318681318681" y="20">Jul</text><line stroke="#333355" stroke-width="0.5" x1="596.0439560439561" x2="596.0439560439561" y1="22" y2="280" /><text fill="#8888aa" font-family="sans-serif" font-size="9" x="599.0439560439561" y="20">Aug</text><line stroke="#333355" stroke-width="0.5" x1="653.9560439560439" x2="653.9560439560439" y1="22" y2="280" /><text fill="#8888aa" font-family="sans-serif" font-size="9" x="656.9560439560439" y="20">Sep</text><line stroke="#333355" stroke-width="0.5" x1="710.0" x2="710.0" y1="22" y2="280" /><text fill="#8888aa" font-family="sans-serif" font-size="9" x="713.0" y="20">Oct</text><line stroke="#333355" stroke-width="0.5" x1="767.9120879120879" x2="767.9120879120879" y1="22" y2="280" /><text fill="#8888aa" font-family="sans-serif" font-size="9" x="770.9120879120879" y="20">Nov</text><line stroke="#333355" stroke-width="0.5" x1="823.9560439560439" x2="823.9560439560439" y1="22" y2="280" /><text fill="#8888aa" font-family="sans-serif" font-size="9" x="826.9560439560439" y="20">Dec</text><line opacity="0.4" stroke="#ffffff" stroke-dasharray="3,3" stroke-width="0.8" x1="370.08574064673894" x2="370.08574064673894" y1="22" y2="280" /><text fill="#C0A060" font-family="sans-serif" font-size="9" font-weight="bold" text-anchor="end" x="195" y="41.0">Jupiter</text><line stroke="#333355" stroke-width="0.3" x1="200" x2="880" y1="30" y2="30" /><text fill="#cccccc" font-family="sans-serif" font-size="8" text-anchor="end" x="195" y="56.0">☍ Neptune</text><rect fill="#C060B0" height="12" opacity="0.6" rx="2" ry="2" width="262.7276721701516" x="200" y="47" /><polygon fill="#ffffff" opacity="0.5" points="203,53.0 207,50.0 207,56.0" /><line opacity="0.85" stroke="#ffffff" stroke-width="1.0" x1="209.55799434025107" x2="209.55799434025107" y1="47" y2="59" /><line opacity="0.85" stroke="#ffffff" stroke-width="1.0" x1="446.0834970098431" x2="446.0834970098431" y1="47" y2="59" /><text fill="#cccccc" font-family="sans-serif" font-size="8" text-anchor="end" x="195" y="72.0">☍ Mercury</text><rect fill="#C060B0" height="12" opacity="0.6" rx="2" ry="2" width="207.86881264610048" x="224.88163945438924" y="63" /><line opacity="0.85" stroke="#ffffff" stroke-width="1.0" x1="245.76923076923077" x2="245.76923076923077" y1="63" y2="75" /><line opacity="0.85" stroke="#ffffff" stroke-width="1.0" x1="412.3614241623741" x2="412.3614241623741" y1="63" y2="75" /><text fill="#cccccc" font-family="sans-serif" font-size="8" text-anchor="end" x="195" y="88.0">☍ Sun</text><rect fill="#C060B0" height="12" opacity="0.6" rx="2" ry="2" width="157.35318741488604" x="250.43956043956044" y="79" /><line opacity="0.85" stroke="#ffffff" stroke-width="1.0" x1="277.5274725274725" x2="277.5274725274725" y1="79" y2="91" /><line opacity="0.85" stroke="#ffffff" stroke-width="1.0" x1="380.48227229186" x2="380.48227229186" y1="79" y2="91" /><text fill="#cccccc" font-family="sans-serif" font-size="8" text-anchor="end" x="195" y="104.0">☍ Uranus</text><rect fill="#C060B0" height="12" opacity="0.6" rx="2" ry="2" width="32.55785343387004" x="443.06598824145044" y="95" /><line opacity="0.85" stroke="#ffffff" stroke-width="1.0" x1="459.9612038220149" x2="459.9612038220149" y1="95" y2="107" /><text fill="#cccccc" font-family="sans-serif" font-size="8" text-anchor="end" x="195" y="120.0">□ Moon</text><rect fill="#F4A030" height="12" opacity="0.6" rx="2" ry="2" width="25.66836819881337" x="610.5811345952318" y="111" /><line opacity="0.85" stroke="#ffffff" stroke-width="1.0" x1="623.3436658159519" x2="623.3436658159519" y1="111" y2="123" /><text fill="#cccccc" font-family="sans-serif" font-size="8" text-anchor="end" x="195" y="136.0">□ Jupiter</text><rect fill="#F4A030" height="12" opacity="0.6" rx="2" ry="2" width="25.758291616740507" x="614.3215194991758" y="127" /><line opacity="0.85" stroke="#ffffff" stroke-width="1.0" x1="627.1206176775604" x2="627.1206176775604" y1="127" y2="139" /><text fill="#8090A0" font-family="sans-serif" font-size="9" font-weight="bold" text-anchor="end" x="195" y="153.0">Saturn</text><line stroke="#333355" stroke-width="0.3" x1="200" x2="880" y1="142" y2="142" /><text fill="#cccccc" font-family="sans-serif" font-size="8" text-anchor="end" x="195" y="168.0">□ Mars</text><rect fill="#F4A030" height="12" opacity="0.6" rx="2" ry="2" width="222.23896143917506" x="477.1772303435592" y="159" /><line opacity="0.85" stroke="#ffffff" stroke-width="1.0" x1="514.4174064759259" x2="514.4174064759259" y1="159" y2="171" /><line opacity="0.85" stroke="#ffffff" stroke-width="1.0" x1="659.1806118644167" x2="659.1806118644167" y1="159" y2="171" /><text fill="#cccccc" font-family="sans-serif" font-size="8" text-anchor="end" x="195" y="184.0">□ Venus</text><rect fill="#F4A030" height="12" opacity="0.6" rx="2" ry="2" width="208.14873836039624" x="483.80873720043246" y="175" /><line opacity="0.85" stroke="#ffffff" stroke-width="1.0" x1="524.151313822647" x2="524.151313822647" y1="175" y2="187" /><line opacity="0.85" stroke="#ffffff" stroke-width="1.0" x1="649.1319824872177" x2="649.1319824872177" y1="175" y2="187" /><text fill="#70B8C0" font-family="sans-serif" font-size="9" font-weight="bold" text-anchor="end" x="195" y="201.0">Uranus</text><line stroke="#333355" stroke-width="0.3" x1="200" x2="880" y1="190" y2="190" /><text fill="#cccccc" font-family="sans-serif" font-size="8" text-anchor="end" x="195" y="216.0">□ Saturn</text><rect fill="#F4A030" height="12" opacity="0.6" rx="2" ry="2" width="181.0369718388838" x="200" y="207" /><polygon fill="#ffffff" opacity="0.5" points="203,213.0 207,210.0 207,216.0" /><line opacity="0.85" stroke="#ffffff" stroke-width="1.0" x1="233.41539173273046" x2="233.41539173273046" y1="207" y2="219" /><line opacity="0.85" stroke="#ffffff" stroke-width="1.0" x1="293.7146143548052" x2="293.7146143548052" y1="207" y2="219" /><text fill="#C8A060" font-family="sans-serif" font-size="9" font-weight="bold" text-anchor="end" x="195" y="233.0">True Node</text><line stroke="#333355" stroke-width="0.3" x1="200" x2="880" y1="222" y2="222" /><text fill="#cccccc" font-family="sans-serif" font-size="8" text-anchor="end" x="195" y="248.0">☌ Saturn</text><rect fill="#E07060" height="12" opacity="0.6" rx="2" ry="2" width="59.25647093125622" x="725.1321703454416" y="239" /><line opacity="0.85" stroke="#ffffff" stroke-width="1.0" x1="757.8244780377494" x2="757.8244780377494" y1="239" y2="251" /><text fill="#cccccc" font-family="sans-serif" font-size="8" text-anchor="end" x="195" y="264.0">□ Pluto</text><rect fill="#F4A030" height="12" opacity="0.6" rx="2" ry="2" width="56.043956043956086" x="730.507684258912" y="255" /><line opacity="0.85" stroke="#ffffff" stroke-width="1.0" x1="761.3318600830879" x2="761.3318600830879" y1="255" y2="267" /><rect fill="#E07060" height="8" opacity="0.8" rx="1" ry="1" width="12" x="200" y="286" /><text fill="#999999" font-family="sans-serif" font-size="8" x="216" y="293">☌ Conjunction</text><rect fill="#F4A030" height="8" opacity="0.8" rx="1" ry="1" width="12" x="290" y="286" /><text fill="#999999" font-family="sans-serif" font-size="8" x="306" y="293">□ Square</text><rect fill="#C060B0" height="8" opacity="0.8" rx="1" ry="1" width="12" x="380" y="286" /><text fill="#999999" font-family="sans-serif" font-size="8" x="396" y="293">☍ Opposition</text><line opacity="0.85" stroke="#ffffff" stroke-width="1.0" x1="480" x2="480" y1="287" y2="295" /><text fill="#999999" font-family="sans-serif" font-size="8" x="485" y="293">Exact date</text><polygon fill="#ffffff" opacity="0.5" points="555,291 559,288 559,294" /><text fill="#999999" font-family="sans-serif" font-size="8" x="563" y="293">Extends beyond window</text></svg>