<svg baseProfile="full" height="434" version="1.1" width="900" xmlns="http://www.w3.org/2000/svg" xmlns:ev="http://www.w3.org/2001/xml-events" xmlns:xlink="http://www.w3.org/1999/xlink"><defs /><rect fill="#1a1a2e" height="434" width="900" x="0" y="0" /><line stroke="#333355" stroke-width="0.5" x1="200.0" x2="200.0" y1="22" y2="424" /><text fill="#8888aa" font-family="sans-serif" font-size="9" x="203.0" y="20">Jun</text><line stroke="#333355" stroke-width="0.5" x1="255.8904109589041" x2="255.8904109589041" y1="22" y2="424" /><text fill="#8888aa" font-family="sans-serif" font-size="9" x="258.8904109589041" y="20">Jul</text><line stroke="#333355" stroke-width="0.5" x1="313.64383561643837" x2="313.64383561643837" y1="22" y2="424" /><text fill="#8888aa" font-family="sans-serif" font-size="9" x="316.64383561643837" y="20">Aug</text><line stroke="#333355" stroke-width="0.5" x1="371.3972602739726" x2="371.3972602739726" y1="22" y2="424" /><text fill="#8888aa" font-family="sans-serif" font-size="9" x="374.3972602739726" y="20">Sep</text><line stroke="#333355" stroke-width="0.5" x1="427.28767123287673" x2="427.28767123287673" y1="22" y2="424" /><text fill="#8888aa" font-family="sans-serif" font-size="9" x="430.28767123287673" y="20">Oct</text><line stroke="#333355" stroke-width="0.5" x1="485.041095890411" x2="485.041095890411" y1="22" y2="424" /><text fill="#8888aa" font-family="sans-serif" font-size="9" x="488.041095890411" y="20">Nov</text><line stroke="#333355" stroke-width="0.5" x1="540.9315068493152" x2="540.9315068493152" y1="22" y2="424" /><text fill="#8888aa" font-family="sans-serif" font-size="9" x="543.9315068493152" y="20">Dec</text><line stroke="#333355" stroke-width="0.5" x1="598.6849315068494" x2="598.6849315068494" y1="22" y2="424" /><text fill="#8888aa" font-family="sans-serif" font-size="9" x="601.6849315068494" y="20">Jan 2026</text><line stroke="#333355" stroke-width="0.5" x1="656.4383561643835" x2="656.4383561643835" y1="22" y2="424" /><text fill="#8888aa" font-family="sans-serif" font-size="9" x="659.4383561643835" y="20">Feb</text><line stroke="#333355" stroke-width="0.5" x1="708.6027397260275" x2="708.6027397260275" y1="22" y2="424" /><text fill="#8888aa" font-family="sans-serif" font-size="9" x="711.6027397260275" y="20">Mar</text><line stroke="#333355" stroke-width="0.5" x1="766.3561643835617" x2="766.3561643835617" y1="22" y2="424" /><text fill="#8888aa" font-family="sans-serif" font-size="9" x="769.3561643835617" y="20">Apr</text><line stroke="#333355" stroke-width="0.5" x1="822.2465753424658" x2="822.2465753424658" y1="22" y2="424" /><text fill="#8888aa" font-family="sans-serif" font-size="9" x="825.2465753424658" y="20">May</text><line stroke="#333355" stroke-width="0.5" x1="880.0" x2="880.0" y1="22" y2="424" /><text fill="#8888aa" font-family="sans-serif" font-size="9" x="883.0" y="20">Jun</text><line opacity="0.4" stroke="#ffffff" stroke-dasharray="3,3" stroke-width="0.8" x1="754.9730089592694" x2="754.9730089592694" y1="22" y2="424" /><text fill="#C0A060" font-family="sans-serif" font-size="9" font-weight="bold" text-anchor="end" x="195" y="41.0">Jupiter</text><line stroke="#333355" stroke-width="0.3" x1="200" x2="880" y1="30" y2="30" /><text fill="#cccccc" font-family="sans-serif" font-size="8" text-anchor="end" x="195" y="56.0">△ Moon</text><rect fill="#60A0D0" height="12" opacity="0.6" rx="2" ry="2" width="34.10726795512687" x="283.63377469256847" y="47" /><line opacity="0.85" stroke="#ffffff" stroke-width="1.0" x1="300.4662393521157" x2="300.4662393521157" y1="47" y2="59" /><text fill="#cccccc" font-family="sans-serif" font-size="8" text-anchor="end" x="195" y="72.0">△ Jupiter</text><rect fill="#60A0D0" height="12" opacity="0.6" rx="2" ry="2" width="34.310426062190515" x="287.31711887521817" y="63" /><line opacity="0.85" stroke="#ffffff" stroke-width="1.0" x1="304.2305461634082" x2="304.2305461634082" y1="63" y2="75" /><text fill="#cccccc" font-family="sans-serif" font-size="8" text-anchor="end" x="195" y="88.0">☍ Mars</text><rect fill="#C060B0" height="12" opacity="0.6" rx="2" ry="2" width="36.149515543606014" x="311.95706220244676" y="79" /><line opacity="0.85" stroke="#ffffff" stroke-width="1.0" x1="329.63140971294774" x2="329.63140971294774" y1="79" y2="91" /><text fill="#cccccc" font-family="sans-serif" font-size="8" text-anchor="end" x="195" y="104.0">☍ Venus</text><rect fill="#C060B0" height="12" opacity="0.6" rx="2" ry="2" width="36.401933856007076" x="314.595532288483" y="95" /><line opacity="0.85" stroke="#ffffff" stroke-width="1.0" x1="332.37353140140283" x2="332.37353140140283" y1="95" y2="107" /><text fill="#cccccc" font-family="sans-serif" font-size="8" text-anchor="end" x="195" y="120.0">☍ Sun</text><rect fill="#C060B0" height="12" opacity="0.6" rx="2" ry="2" width="476.86584933958267" x="336.4938649590728" y="111" /><line opacity="0.85" stroke="#ffffff" stroke-width="1.0" x1="355.35545758166666" x2="355.35545758166666" y1="111" y2="123" /><line opacity="0.85" stroke="#ffffff" stroke-width="1.0" x1="676.9073983219989" x2="676.9073983219989" y1="111" y2="123" /><line opacity="0.85" stroke="#ffffff" stroke-width="1.0" x1="778.6727315144572" x2="778.6727315144572" y1="111" y2="123" /><text fill="#cccccc" font-family="sans-serif" font-size="8" text-anchor="end" x="195" y="136.0">☍ Mercury</text><rect fill="#C060B0" height="12" opacity="0.6" rx="2" ry="2" width="483.5209547353196" x="353.4309972388255" y="127" /><line opacity="0.85" stroke="#ffffff" stroke-width="1.0" x1="373.5098689566794" x2="373.5098689566794" y1="127" y2="139" /><line opacity="0.85" stroke="#ffffff" stroke-width="1.0" x1="645.083985165061" x2="645.083985165061" y1="127" y2="139" /><line opacity="0.85" stroke="#ffffff" stroke-width="1.0" x1="810.4645432237772" x2="810.4645432237772" y1="127" y2="139" /><text fill="#cccccc" font-family="sans-serif" font-size="8" text-anchor="end" x="195" y="152.0">☍ Neptune</text><rect fill="#C060B0" height="12" opacity="0.6" rx="2" ry="2" width="486.00779317354386" x="379.9430569131101" y="143" /><line opacity="0.85" stroke="#ffffff" stroke-width="1.0" x1="402.97067345795153" x2="402.97067345795153" y1="143" y2="155" /><line opacity="0.85" stroke="#ffffff" stroke-width="1.0" x1="608.2168486969458" x2="608.2168486969458" y1="143" y2="155" /><line opacity="0.85" stroke="#ffffff" stroke-width="1.0" x1="844.0942271420193" x2="844.0942271420193" y1="143" y2="155" /><text fill="#cccccc" font-family="sans-serif" font-size="8" text-anchor="end" x="195" y="168.0">☍ Uranus</text><rect fill="#C060B0" height="12" opacity="0.6" rx="2" ry="2" width="484.68845012611234" x="393.8689201385198" y="159" /><line opacity="0.85" stroke="#ffffff" stroke-width="1.0" x1="419.3435629912836" x2="419.3435629912836" y1="159" y2="171" /><line opacity="0.85" stroke="#ffffff" stroke-width="1.0" x1="590.4918307275634" x2="590.4918307275634" y1="159" y2="171" /><line opacity="0.85" stroke="#ffffff" stroke-width="1.0" x1="857.932994401139" x2="857.932994401139" y1="159" y2="171" /><text fill="#8090A0" font-family="sans-serif" font-size="9" font-weight="bold" text-anchor="end" x="195" y="185.0">Saturn</text><line stroke="#333355" stroke-width="0.3" x1="200" x2="880" y1="174" y2="174" /><text fill="#cccccc" font-family="sans-serif" font-size="8" text-anchor="end" x="195" y="200.0">△ Pluto</text><rect fill="#60A0D0" height="12" opacity="0.6" rx="2" ry="2" width="276.49354195312276" x="391.1610258777854" y="191" /><line opacity="0.85" stroke="#ffffff" stroke-width="1.0" x1="440.06552758148655" x2="440.06552758148655" y1="191" y2="203" /><line opacity="0.85" stroke="#ffffff" stroke-width="1.0" x1="627.6422042896486" x2="627.6422042896486" y1="191" y2="203" /><text fill="#70B8C0" font-family="sans-serif" font-size="9" font-weight="bold" text-anchor="end" x="195" y="217.0">Uranus</text><line stroke="#333355" stroke-width="0.3" x1="200" x2="880" y1="206" y2="206" /><text fill="#cccccc" font-family="sans-serif" font-size="8" text-anchor="end" x="195" y="232.0">□ Saturn</text><rect fill="#F4A030" height="12" opacity="0.6" rx="2" ry="2" width="280.4976210023185" x="517.5558668638737" y="223" /><line opacity="0.85" stroke="#ffffff" stroke-width="1.0" x1="632.008774221134" x2="632.008774221134" y1="223" y2="235" /><line opacity="0.85" stroke="#ffffff" stroke-width="1.0" x1="692.1427934935591" x2="692.1427934935591" y1="223" y2="235" /><text fill="#C8A060" font-family="sans-serif" font-size="9" font-weight="bold" text-anchor="end" x="195" y="249.0">True Node</text><line stroke="#333355" stroke-width="0.3" x1="200" x2="880" y1="238" y2="238" /><text fill="#cccccc" font-family="sans-serif" font-size="8" text-anchor="end" x="195" y="264.0">⚹ Uranus</text><rect fill="#70B870" height="12" opacity="0.6" rx="2" ry="2" width="54.26257966198884" x="217.00044219561644" y="255" /><line opacity="0.85" stroke="#ffffff" stroke-width="1.0" x1="242.1511271271233" x2="242.1511271271233" y1="255" y2="267" /><text fill="#cccccc" font-family="sans-serif" font-size="8" text-anchor="end" x="195" y="280.0">⚹ Neptune</text><rect fill="#70B870" height="12" opacity="0.6" rx="2" ry="2" width="62.92066372011158" x="238.2585630704097" y="271" /><line opacity="0.85" stroke="#ffffff" stroke-width="1.0" x1="268.5764870644939" x2="268.5764870644939" y1="271" y2="283" /><text fill="#cccccc" font-family="sans-serif" font-size="8" text-anchor="end" x="195" y="296.0">⚹ Mercury</text><rect fill="#70B870" height="12" opacity="0.6" rx="2" ry="2" width="202.14233552680372" x="294.52224864013317" y="287" /><line opacity="0.85" stroke="#ffffff" stroke-width="1.0" x1="443.56869375597796" x2="443.56869375597796" y1="287" y2="299" /><text fill="#cccccc" font-family="sans-serif" font-size="8" text-anchor="end" x="195" y="312.0">⚹ Sun</text><rect fill="#70B870" height="12" opacity="0.6" rx="2" ry="2" width="59.77163201177706" x="466.25576524849697" y="303" /><line opacity="0.85" stroke="#ffffff" stroke-width="1.0" x1="500.87671232876716" x2="500.87671232876716" y1="303" y2="315" /><text fill="#cccccc" font-family="sans-serif" font-size="8" text-anchor="end" x="195" y="328.0">⚹ Venus</text><rect fill="#70B870" height="12" opacity="0.6" rx="2" ry="2" width="52.515697245681054" x="521.8997867226244" y="319" /><line opacity="0.85" stroke="#ffffff" stroke-width="1.0" x1="547.4017853381685" x2="547.4017853381685" y1="319" y2="331" /><text fill="#cccccc" font-family="sans-serif" font-size="8" text-anchor="end" x="195" y="344.0">⚹ Mars</text><rect fill="#70B870" height="12" opacity="0.6" rx="2" ry="2" width="52.05896824482488" x="524.2697988784628" y="335" /><line opacity="0.85" stroke="#ffffff" stroke-width="1.0" x1="551.1780821917808" x2="551.1780821917808" y1="335" y2="347" /><text fill="#cccccc" font-family="sans-serif" font-size="8" text-anchor="end" x="195" y="360.0">△ Jupiter</text><rect fill="#60A0D0" height="12" opacity="0.6" rx="2" ry="2" width="199.2716414345116" x="570.9814713796804" y="351" /><line opacity="0.85" stroke="#ffffff" stroke-width="1.0" x1="603.3424657534247" x2="603.3424657534247" y1="351" y2="363" /><text fill="#cccccc" font-family="sans-serif" font-size="8" text-anchor="end" x="195" y="376.0">△ Moon</text><rect fill="#60A0D0" height="12" opacity="0.6" rx="2" ry="2" width="203.35510217072033" x="574.5789673120105" y="367" /><line opacity="0.85" stroke="#ffffff" stroke-width="1.0" x1="622.3724256471144" x2="622.3724256471144" y1="367" y2="379" /><text fill="#90A870" font-family="sans-serif" font-size="9" font-weight="bold" text-anchor="end" x="195" y="393.0">Chiron</text><line stroke="#333355" stroke-width="0.3" x1="200" x2="880" y1="382" y2="382" /><text fill="#cccccc" font-family="sans-serif" font-size="8" text-anchor="end" x="195" y="408.0">⚹ Saturn</text><rect fill="#70B870" height="12" opacity="0.6" rx="2" ry="2" width="97.67491518919326" x="777.9290985313395" y="399" /><line opacity="0.85" stroke="#ffffff" stroke-width="1.0" x1="824.6331210696018" x2="824.6331210696018" y1="399" y2="411" /></svg>