<svg baseProfile="full" height="539" version="1.1" width="900" xmlns="http://www.w3.org/2000/svg" xmlns:ev="http://www.w3.org/2001/xml-events" xmlns:xlink="http://www.w3.org/1999/xlink"><defs /><rect fill="#ffffff" height="539" width="900" x="0" y="0" /><line stroke="#ddddee" stroke-width="0.5" x1="200.0" x2="200.0" y1="22" y2="504" /><text fill="#666688" font-family="sans-serif" font-size="9" x="203.0" y="20">Jun</text><line stroke="#ddddee" stroke-width="0.5" x1="255.8904109589041" x2="255.8904109589041" y1="22" y2="504" /><text fill="#666688" font-family="sans-serif" font-size="9" x="258.8904109589041" y="20">Jul</text><line stroke="#ddddee" stroke-width="0.5" x1="313.64383561643837" x2="313.64383561643837" y1="22" y2="504" /><text fill="#666688" font-family="sans-serif" font-size="9" x="316.64383561643837" y="20">Aug</text><line stroke="#ddddee" stroke-width="0.5" x1="371.3972602739726" x2="371.3972602739726" y1="22" y2="504" /><text fill="#666688" font-family="sans-serif" font-size="9" x="374.3972602739726" y="20">Sep</text><line stroke="#ddddee" stroke-width="0.5" x1="427.28767123287673" x2="427.28767123287673" y1="22" y2="504" /><text fill="#666688" font-family="sans-serif" font-size="9" x="430.28767123287673" y="20">Oct</text><line stroke="#ddddee" stroke-width="0.5" x1="485.041095890411" x2="485.041095890411" y1="22" y2="504" /><text fill="#666688" font-family="sans-serif" font-size="9" x="488.041095890411" y="20">Nov</text><line stroke="#ddddee" stroke-width="0.5" x1="540.9315068493152" x2="540.9315068493152" y1="22" y2="504" /><text fill="#666688" font-family="sans-serif" font-size="9" x="543.9315068493152" y="20">Dec</text><line stroke="#ddddee" stroke-width="0.5" x1="598.6849315068494" x2="598.6849315068494" y1="22" y2="504" /><text fill="#666688" font-family="sans-serif" font-size="9" x="601.6849315068494" y="20">Jan 2026</text><line stroke="#ddddee" stroke-width="0.5" x1="656.4383561643835" x2="656.4383561643835" y1="22" y2="504" /><text fill="#666688" font-family="sans-serif" font-size="9" x="659.4383561643835" y="20">Feb</text><line stroke="#ddddee" stroke-width="0.5" x1="708.6027397260275" x2="708.6027397260275" y1="22" y2="504" /><text fill="#666688" font-family="sans-serif" font-size="9" x="711.6027397260275" y="20">Mar</text><line stroke="#ddddee" stroke-width="0.5" x1="766.3561643835617" x2="766.3561643835617" y1="22" y2="504" /><text fill="#666688" font-family="sans-serif" font-size="9" x="769.3561643835617" y="20">Apr</text><line stroke="#ddddee" stroke-width="0.5" x1="822.2465753424658" x2="822.2465753424658" y1="22" y2="504" /><text fill="#666688" font-family="sans-serif" font-size="9" x="825.2465753424658" y="20">May</text><line stroke="#ddddee" stroke-width="0.5" x1="880.0" x2="880.0" y1="22" y2="504" /><text fill="#666688" font-family="sans-serif" font-size="9" x="883.0" y="20">Jun</text><line opacity="0.4" stroke="#333333" stroke-dasharray="3,3" stroke-width="0.8" x1="754.9879479954275" x2="754.9879479954275" y1="22" y2="504" /><text fill="#C0A060" font-family="sans-serif" font-size="9" font-weight="bold" text-anchor="end" x="195" y="41.0">Jupiter</text><line stroke="#ddddee" stroke-width="0.3" x1="200" x2="880" y1="30" y2="30" /><text fill="#333333" font-family="sans-serif" font-size="8" text-anchor="end" x="195" y="56.0">⚹ Uranus</text><rect fill="#70B870" height="12" opacity="0.6" rx="2" ry="2" width="24.545003614500246" x="214.8016966073554" y="47" /><line opacity="0.85" stroke="#333333" stroke-width="1.0" x1="227.09999254533233" x2="227.09999254533233" y1="47" y2="59" /><text fill="#333333" font-family="sans-serif" font-size="8" text-anchor="end" x="195" y="72.0">□ Mercury</text><rect fill="#F4A030" height="12" opacity="0.6" rx="2" ry="2" width="32.65822977861998" x="225.76960183710426" y="63" /><line opacity="0.85" stroke="#333333" stroke-width="1.0" x1="242.09673759264587" x2="242.09673759264587" y1="63" y2="75" /><text fill="#333333" font-family="sans-serif" font-size="8" text-anchor="end" x="195" y="88.0">□ Saturn</text><rect fill="#F4A030" height="12" opacity="0.6" rx="2" ry="2" width="32.69397744404108" x="234.45031481316084" y="79" /><line opacity="0.85" stroke="#333333" stroke-width="1.0" x1="250.76407346373668" x2="250.76407346373668" y1="79" y2="91" /><text fill="#333333" font-family="sans-serif" font-size="8" text-anchor="end" x="195" y="104.0">⚹ Neptune</text><rect fill="#70B870" height="12" opacity="0.6" rx="2" ry="2" width="24.960385169643587" x="268.64924555336125" y="95" /><line opacity="0.85" stroke="#333333" stroke-width="1.0" x1="281.0553189236783" x2="281.0553189236783" y1="95" y2="107" /><text fill="#333333" font-family="sans-serif" font-size="8" text-anchor="end" x="195" y="120.0">□ Venus</text><rect fill="#F4A030" height="12" opacity="0.6" rx="2" ry="2" width="480.0601090007649" x="342.9788437139092" y="111" /><line opacity="0.85" stroke="#333333" stroke-width="1.0" x1="362.2585120294799" x2="362.2585120294799" y1="111" y2="123" /><line opacity="0.85" stroke="#333333" stroke-width="1.0" x1="663.1270484367466" x2="663.1270484367466" y1="111" y2="123" /><line opacity="0.85" stroke="#333333" stroke-width="1.0" x1="792.6154056260146" x2="792.6154056260146" y1="111" y2="123" /><text fill="#333333" font-family="sans-serif" font-size="8" text-anchor="end" x="195" y="136.0">△ Sun</text><rect fill="#60A0D0" height="12" opacity="0.6" rx="2" ry="2" width="466.4814302929516" x="413.5185697070484" y="127" /><polygon fill="#333333" opacity="0.5" points="877,133.0 873,130.0 873,136.0" /><line opacity="0.85" stroke="#333333" stroke-width="1.0" x1="444.74098362623795" x2="444.74098362623795" y1="127" y2="139" /><line opacity="0.85" stroke="#333333" stroke-width="1.0" x1="564.610538089773" x2="564.610538089773" y1="127" y2="139" /><line opacity="0.85" stroke="#333333" stroke-width="1.0" x1="874.3303370260845" x2="874.3303370260845" y1="127" y2="139" /><text fill="#333333" font-family="sans-serif" font-size="8" text-anchor="end" x="195" y="152.0">⚹ Pluto</text><rect fill="#70B870" height="12" opacity="0.6" rx="2" ry="2" width="129.84697755502793" x="439.75691465358443" y="143" /><line opacity="0.85" stroke="#333333" stroke-width="1.0" x1="474.80959368408804" x2="474.80959368408804" y1="143" y2="155" /><line opacity="0.85" stroke="#333333" stroke-width="1.0" x1="535.543840259603" x2="535.543840259603" y1="143" y2="155" /><text fill="#8090A0" font-family="sans-serif" font-size="9" font-weight="bold" text-anchor="end" x="195" y="169.0">Saturn</text><line stroke="#ddddee" stroke-width="0.3" x1="200" x2="880" y1="158" y2="158" /><text fill="#333333" font-family="sans-serif" font-size="8" text-anchor="end" x="195" y="184.0">⚹ Mars</text><rect fill="#70B870" height="12" opacity="0.6" rx="2" ry="2" width="240.42621472315193" x="411.54828564586376" y="175" /><line opacity="0.85" stroke="#333333" stroke-width="1.0" x1="449.19340002265477" x2="449.19340002265477" y1="175" y2="187" /><line opacity="0.85" stroke="#333333" stroke-width="1.0" x1="619.4018435324429" x2="619.4018435324429" y1="175" y2="187" /><text fill="#333333" font-family="sans-serif" font-size="8" text-anchor="end" x="195" y="200.0">☌ Mercury</text><rect fill="#E07060" height="12" opacity="0.6" rx="2" ry="2" width="60.89246573984394" x="699.161514114778" y="191" /><line opacity="0.85" stroke="#333333" stroke-width="1.0" x1="730.1156771926852" x2="730.1156771926852" y1="191" y2="203" /><text fill="#333333" font-family="sans-serif" font-size="8" text-anchor="end" x="195" y="216.0">☌ Saturn</text><rect fill="#E07060" height="12" opacity="0.6" rx="2" ry="2" width="60.16843122100079" x="715.8160063344153" y="207" /><line opacity="0.85" stroke="#333333" stroke-width="1.0" x1="746.0626142162114" x2="746.0626142162114" y1="207" y2="219" /><text fill="#70B8C0" font-family="sans-serif" font-size="9" font-weight="bold" text-anchor="end" x="195" y="233.0">Uranus</text><line stroke="#ddddee" stroke-width="0.3" x1="200" x2="880" y1="222" y2="222" /><text fill="#333333" font-family="sans-serif" font-size="8" text-anchor="end" x="195" y="248.0">□ Uranus</text><rect fill="#F4A030" height="12" opacity="0.6" rx="2" ry="2" width="290.052049576933" x="240.19288467533485" y="239" /><line opacity="0.85" stroke="#333333" stroke-width="1.0" x1="343.13722825177575" x2="343.13722825177575" y1="239" y2="251" /><line opacity="0.85" stroke="#333333" stroke-width="1.0" x1="419.2795499656405" x2="419.2795499656405" y1="239" y2="251" /><text fill="#333333" font-family="sans-serif" font-size="8" text-anchor="end" x="195" y="264.0">□ Jupiter</text><rect fill="#F4A030" height="12" opacity="0.6" rx="2" ry="2" width="273.07475185780186" x="521.6437239667833" y="255" /><line opacity="0.85" stroke="#333333" stroke-width="1.0" x1="647.123287698984" x2="647.123287698984" y1="255" y2="267" /><line opacity="0.85" stroke="#333333" stroke-width="1.0" x1="675.4294521668772" x2="675.4294521668772" y1="255" y2="267" /><text fill="#333333" font-family="sans-serif" font-size="8" text-anchor="end" x="195" y="280.0">□ Uranus</text><rect fill="#F4A030" height="12" opacity="0.6" rx="2" ry="2" width="92.46633184737948" x="787.5336681526205" y="271" /><polygon fill="#333333" opacity="0.5" points="877,277.0 873,274.0 873,280.0" /><line opacity="0.85" stroke="#333333" stroke-width="1.0" x1="855.2351454817834" x2="855.2351454817834" y1="271" y2="283" /><text fill="#7090D0" font-family="sans-serif" font-size="9" font-weight="bold" text-anchor="end" x="195" y="297.0">Neptune</text><line stroke="#ddddee" stroke-width="0.3" x1="200" x2="880" y1="286" y2="286" /><text fill="#333333" font-family="sans-serif" font-size="8" text-anchor="end" x="195" y="312.0">☌ Mercury</text><rect fill="#E07060" height="12" opacity="0.6" rx="2" ry="2" width="167.15549336506717" x="712.8445066349328" y="303" /><line opacity="0.85" stroke="#333333" stroke-width="1.0" x1="814.5658790970218" x2="814.5658790970218" y1="303" y2="315" /><text fill="#906880" font-family="sans-serif" font-size="9" font-weight="bold" text-anchor="end" x="195" y="329.0">Pluto</text><line stroke="#ddddee" stroke-width="0.3" x1="200" x2="880" y1="318" y2="318" /><text fill="#333333" font-family="sans-serif" font-size="8" text-anchor="end" x="195" y="344.0">⚹ Mercury</text><rect fill="#70B870" height="12" opacity="0.6" rx="2" ry="2" width="515.115974485609" x="200" y="335" /><line opacity="0.85" stroke="#333333" stroke-width="1.0" x1="257.19582684877474" x2="257.19582684877474" y1="335" y2="347" /><line opacity="0.85" stroke="#333333" stroke-width="1.0" x1="623.169095711446" x2="623.169095711446" y1="335" y2="347" /><text fill="#333333" font-family="sans-serif" font-size="8" text-anchor="end" x="195" y="360.0">⚹ Saturn</text><rect fill="#70B870" height="12" opacity="0.6" rx="2" ry="2" width="283.1685968180251" x="596.8314031819749" y="351" /><line opacity="0.85" stroke="#333333" stroke-width="1.0" x1="686.0607439004934" x2="686.0607439004934" y1="351" y2="363" /><text fill="#C8A060" font-family="sans-serif" font-size="9" font-weight="bold" text-anchor="end" x="195" y="377.0">True Node</text><line stroke="#ddddee" stroke-width="0.3" x1="200" x2="880" y1="366" y2="366" /><text fill="#333333" font-family="sans-serif" font-size="8" text-anchor="end" x="195" y="392.0">☌ Sun</text><rect fill="#E07060" height="12" opacity="0.6" rx="2" ry="2" width="46.56657339866311" x="200" y="383" /><polygon fill="#333333" opacity="0.5" points="203,389.0 207,386.0 207,392.0" /><line opacity="0.85" stroke="#333333" stroke-width="1.0" x1="215.83561643835617" x2="215.83561643835617" y1="383" y2="395" /><text fill="#333333" font-family="sans-serif" font-size="8" text-anchor="end" x="195" y="408.0">□ Moon</text><rect fill="#F4A030" height="12" opacity="0.6" rx="2" ry="2" width="74.7918012031925" x="498.0821917808219" y="399" /><line opacity="0.85" stroke="#333333" stroke-width="1.0" x1="530.6849315068494" x2="530.6849315068494" y1="399" y2="411" /><text fill="#333333" font-family="sans-serif" font-size="8" text-anchor="end" x="195" y="424.0">⚹ Neptune</text><rect fill="#70B870" height="12" opacity="0.6" rx="2" ry="2" width="178.84931506849307" x="649.902215006309" y="415" /><line opacity="0.85" stroke="#333333" stroke-width="1.0" x1="798.0118040474048" x2="798.0118040474048" y1="415" y2="427" /><text fill="#90A870" font-family="sans-serif" font-size="9" font-weight="bold" text-anchor="end" x="195" y="441.0">Chiron</text><line stroke="#ddddee" stroke-width="0.3" x1="200" x2="880" y1="430" y2="430" /><text fill="#333333" font-family="sans-serif" font-size="8" text-anchor="end" x="195" y="456.0">□ Mars</text><rect fill="#F4A030" height="12" opacity="0.6" rx="2" ry="2" width="256.8216568418734" x="200" y="447" /><polygon fill="#333333" opacity="0.5" points="203,453.0 207,450.0 207,456.0" /><line opacity="0.85" stroke="#333333" stroke-width="1.0" x1="266.1704134443011" x2="266.1704134443011" y1="447" y2="459" /><line opacity="0.85" stroke="#333333" stroke-width="1.0" x1="356.24389094260147" x2="356.24389094260147" y1="447" y2="459" /><text fill="#333333" font-family="sans-serif" font-size="8" text-anchor="end" x="195" y="472.0">□ Mars</text><rect fill="#F4A030" height="12" opacity="0.6" rx="2" ry="2" width="129.25770663172625" x="740.1823978775152" y="463" /><line opacity="0.85" stroke="#333333" stroke-width="1.0" x1="803.7902055287799" x2="803.7902055287799" y1="463" y2="475" /><text fill="#333333" font-family="sans-serif" font-size="8" text-anchor="end" x="195" y="488.0">⚹ Jupiter</text><rect fill="#70B870" height="12" opacity="0.6" rx="2" ry="2" width="97.11953455454591" x="775.0555150229211" y="479" /><line opacity="0.85" stroke="#333333" stroke-width="1.0" x1="821.7283367213901" x2="821.7283367213901" y1="479" y2="491" /><rect fill="#E07060" height="8" opacity="0.8" rx="1" ry="1" width="12" x="200" y="510" /><text fill="#666666" font-family="sans-serif" font-size="8" x="216" y="517">☌ Conjunction</text><rect fill="#70B870" height="8" opacity="0.8" rx="1" ry="1" width="12" x="290" y="510" /><text fill="#666666" font-family="sans-serif" font-size="8" x="306" y="517">⚹ Sextile</text><rect fill="#F4A030" height="8" opacity="0.8" rx="1" ry="1" width="12" x="380" y="510" /><text fill="#666666" font-family="sans-serif" font-size="8" x="396" y="517">□ Square</text><rect fill="#60A0D0" height="8" opacity="0.8" rx="1" ry="1" width="12" x="470" y="510" /><text fill="#666666" font-family="sans-serif" font-size="8" x="486" y="517">△ Trine</text><rect fill="#C060B0" height="8" opacity="0.8" rx="1" ry="1" width="12" x="560" y="510" /><text fill="#666666" font-family="sans-serif" font-size="8" x="576" y="517">☍ Opposition</text><line opacity="0.85" stroke="#333333" stroke-width="1.0" x1="660" x2="660" y1="511" y2="519" /><text fill="#666666" font-family="sans-serif" font-size="8" x="665" y="517">Exact date</text><polygon fill="#333333" opacity="0.5" points="735,515 739,512 739,518" /><text fill="#666666" font-family="sans-serif" font-size="8" x="743" y="517">Extends beyond window</text></svg>