<svg baseProfile="full" height="539" version="1.1" width="900" xmlns="http://www.w3.org/2000/svg" xmlns:ev="http://www.w3.org/2001/xml-events" xmlns:xlink="http://www.w3.org/1999/xlink"><defs /><rect fill="#1a1a2e" height="539" width="900" x="0" y="0" /><line stroke="#333355" stroke-width="0.5" x1="200.0" x2="200.0" y1="22" y2="504" /><text fill="#8888aa" font-family="sans-serif" font-size="9" x="203.0" y="20">Jun</text><line stroke="#333355" stroke-width="0.5" x1="255.8904109589041" x2="255.8904109589041" y1="22" y2="504" /><text fill="#8888aa" font-family="sans-serif" font-size="9" x="258.8904109589041" y="20">Jul</text><line stroke="#333355" stroke-width="0.5" x1="313.64383561643837" x2="313.64383561643837" y1="22" y2="504" /><text fill="#8888aa" font-family="sans-serif" font-size="9" x="316.64383561643837" y="20">Aug</text><line stroke="#333355" stroke-width="0.5" x1="371.3972602739726" x2="371.3972602739726" y1="22" y2="504" /><text fill="#8888aa" font-family="sans-serif" font-size="9" x="374.3972602739726" y="20">Sep</text><line stroke="#333355" stroke-width="0.5" x1="427.28767123287673" x2="427.28767123287673" y1="22" y2="504" /><text fill="#8888aa" font-family="sans-serif" font-size="9" x="430.28767123287673" y="20">Oct</text><line stroke="#333355" stroke-width="0.5" x1="485.041095890411" x2="485.041095890411" y1="22" y2="504" /><text fill="#8888aa" font-family="sans-serif" font-size="9" x="488.041095890411" y="20">Nov</text><line stroke="#333355" stroke-width="0.5" x1="540.9315068493152" x2="540.9315068493152" y1="22" y2="504" /><text fill="#8888aa" font-family="sans-serif" font-size="9" x="543.9315068493152" y="20">Dec</text><line stroke="#333355" stroke-width="0.5" x1="598.6849315068494" x2="598.6849315068494" y1="22" y2="504" /><text fill="#8888aa" font-family="sans-serif" font-size="9" x="601.6849315068494" y="20">Jan 2026</text><line stroke="#333355" stroke-width="0.5" x1="656.4383561643835" x2="656.4383561643835" y1="22" y2="504" /><text fill="#8888aa" font-family="sans-serif" font-size="9" x="659.4383561643835" y="20">Feb</text><line stroke="#333355" stroke-width="0.5" x1="708.6027397260275" x2="708.6027397260275" y1="22" y2="504" /><text fill="#8888aa" font-family="sans-serif" font-size="9" x="711.6027397260275" y="20">Mar</text><line stroke="#333355" stroke-width="0.5" x1="766.3561643835617" x2="766.3561643835617" y1="22" y2="504" /><text fill="#8888aa" font-family="sans-serif" font-size="9" x="769.3561643835617" y="20">Apr</text><line stroke="#333355" stroke-width="0.5" x1="822.2465753424658" x2="822.2465753424658" y1="22" y2="504" /><text fill="#8888aa" font-family="sans-serif" font-size="9" x="825.2465753424658" y="20">May</text><line stroke="#333355" stroke-width="0.5" x1="880.0" x2="880.0" y1="22" y2="504" /><text fill="#8888aa" font-family="sans-serif" font-size="9" x="883.0" y="20">Jun</text><text fill="#C0A060" font-family="sans-serif" font-size="9" font-weight="bold" text-anchor="end" x="195" y="41.0">Jupiter</text><line stroke="#333355" stroke-width="0.3" x1="200" x2="880" y1="30" y2="30" /><text fill="#cccccc" font-family="sans-serif" font-size="8" text-anchor="end" x="195" y="56.0">⚹ Uranus</text><rect fill="#70B870" height="12" opacity="0.6" rx="2" ry="2" width="24.545029309987314" x="214.7987511893176" y="47" /><line opacity="0.85" stroke="#ffffff" stroke-width="1.0" x1="227.09706450054415" x2="227.09706450054415" y1="47" y2="59" /><text fill="#cccccc" font-family="sans-serif" font-size="8" text-anchor="end" x="195" y="72.0">□ Mercury</text><rect fill="#F4A030" height="12" opacity="0.6" rx="2" ry="2" width="32.65833790539068" x="225.9141330227892" y="63" /><line opacity="0.85" stroke="#ffffff" stroke-width="1.0" x1="242.24072016411594" x2="242.24072016411594" y1="63" y2="75" /><text fill="#cccccc" font-family="sans-serif" font-size="8" text-anchor="end" x="195" y="88.0">□ Saturn</text><rect fill="#F4A030" height="12" opacity="0.6" rx="2" ry="2" width="32.69404692824202" x="234.4594436229135" y="79" /><line opacity="0.85" stroke="#ffffff" stroke-width="1.0" x1="250.7732053948567" x2="250.7732053948567" y1="79" y2="91" /><text fill="#cccccc" font-family="sans-serif" font-size="8" text-anchor="end" x="195" y="104.0">⚹ Neptune</text><rect fill="#70B870" height="12" opacity="0.6" rx="2" ry="2" width="24.960436564046176" x="268.65139059205734" y="95" /><line opacity="0.85" stroke="#ffffff" stroke-width="1.0" x1="281.0574858189967" x2="281.0574858189967" y1="95" y2="107" /><text fill="#cccccc" font-family="sans-serif" font-size="8" text-anchor="end" x="195" y="120.0">□ Venus</text><rect fill="#F4A030" height="12" opacity="0.6" rx="2" ry="2" width="480.1041657132762" x="343.0830093662912" y="111" /><line opacity="0.85" stroke="#ffffff" stroke-width="1.0" x1="362.3690409011035" x2="362.3690409011035" y1="111" y2="123" /><line opacity="0.85" stroke="#ffffff" stroke-width="1.0" x1="662.9258012818506" x2="662.9258012818506" y1="111" y2="123" /><line opacity="0.85" stroke="#ffffff" stroke-width="1.0" x1="792.8164254342656" x2="792.8164254342656" y1="111" y2="123" /><text fill="#cccccc" font-family="sans-serif" font-size="8" text-anchor="end" x="195" y="136.0">△ Sun</text><rect fill="#60A0D0" height="12" opacity="0.6" rx="2" ry="2" width="466.3605051757344" x="413.6394948242656" y="127" /><polygon fill="#ffffff" opacity="0.5" points="877,133.0 873,130.0 873,136.0" /><line opacity="0.85" stroke="#ffffff" stroke-width="1.0" x1="444.9117725152054" x2="444.9117725152054" y1="127" y2="139" /><line opacity="0.85" stroke="#ffffff" stroke-width="1.0" x1="565.2624574468848" x2="565.2624574468848" y1="127" y2="139" /><line opacity="0.85" stroke="#ffffff" stroke-width="1.0" x1="874.4210682251954" x2="874.4210682251954" y1="127" y2="139" /><text fill="#cccccc" font-family="sans-serif" font-size="8" text-anchor="end" x="195" y="152.0">⚹ Pluto</text><rect fill="#70B870" height="12" opacity="0.6" rx="2" ry="2" width="129.8431210430569" x="439.7588524498389" y="143" /><line opacity="0.85" stroke="#ffffff" stroke-width="1.0" x1="474.8135148854148" x2="474.8135148854148" y1="143" y2="155" /><line opacity="0.85" stroke="#ffffff" stroke-width="1.0" x1="535.5477614609298" x2="535.5477614609298" y1="143" y2="155" /><text fill="#8090A0" font-family="sans-serif" font-size="9" font-weight="bold" text-anchor="end" x="195" y="169.0">Saturn</text><line stroke="#333355" stroke-width="0.3" x1="200" x2="880" y1="158" y2="158" /><text fill="#cccccc" font-family="sans-serif" font-size="8" text-anchor="end" x="195" y="184.0">⚹ Mars</text><rect fill="#70B870" height="12" opacity="0.6" rx="2" ry="2" width="240.7122855567174" x="411.390108810241" y="175" /><line opacity="0.85" stroke="#ffffff" stroke-width="1.0" x1="449.0135908011847" x2="449.0135908011847" y1="175" y2="187" /><line opacity="0.85" stroke="#ffffff" stroke-width="1.0" x1="619.5655256271931" x2="619.5655256271931" y1="175" y2="187" /><text fill="#cccccc" font-family="sans-serif" font-size="8" text-anchor="end" x="195" y="200.0">☌ Mercury</text><rect fill="#E07060" height="12" opacity="0.6" rx="2" ry="2" width="60.874230826292546" x="699.4436025347476" y="191" /><line opacity="0.85" stroke="#ffffff" stroke-width="1.0" x1="730.3826061603919" x2="730.3826061603919" y1="191" y2="203" /><text fill="#cccccc" font-family="sans-serif" font-size="8" text-anchor="end" x="195" y="216.0">☌ Saturn</text><rect fill="#E07060" height="12" opacity="0.6" rx="2" ry="2" width="60.168039194833796" x="715.8332581062266" y="207" /><line opacity="0.85" stroke="#ffffff" stroke-width="1.0" x1="746.0793191713357" x2="746.0793191713357" y1="207" y2="219" /><text fill="#70B8C0" font-family="sans-serif" font-size="9" font-weight="bold" text-anchor="end" x="195" y="233.0">Uranus</text><line stroke="#333355" stroke-width="0.3" x1="200" x2="880" y1="222" y2="222" /><text fill="#cccccc" font-family="sans-serif" font-size="8" text-anchor="end" x="195" y="248.0">□ Uranus</text><rect fill="#F4A030" height="12" opacity="0.6" rx="2" ry="2" width="290.08105177574083" x="240.17986693825088" y="239" /><line opacity="0.85" stroke="#ffffff" stroke-width="1.0" x1="343.098731724499" x2="343.098731724499" y1="239" y2="251" /><line opacity="0.85" stroke="#ffffff" stroke-width="1.0" x1="419.3201924980302" x2="419.3201924980302" y1="239" y2="251" /><text fill="#cccccc" font-family="sans-serif" font-size="8" text-anchor="end" x="195" y="264.0">□ Jupiter</text><rect fill="#F4A030" height="12" opacity="0.6" rx="2" ry="2" width="273.24043041142056" x="521.5521453254997" y="255" /><line opacity="0.85" stroke="#ffffff" stroke-width="1.0" x1="647.123287698984" x2="647.123287698984" y1="255" y2="267" /><line opacity="0.85" stroke="#ffffff" stroke-width="1.0" x1="676.023287699329" x2="676.023287699329" y1="255" y2="267" /><text fill="#cccccc" font-family="sans-serif" font-size="8" text-anchor="end" x="195" y="280.0">□ Uranus</text><rect fill="#F4A030" height="12" opacity="0.6" rx="2" ry="2" width="92.47987848225785" x="787.5201215177422" y="271" /><polygon fill="#ffffff" opacity="0.5" points="877,277.0 873,274.0 873,280.0" /><line opacity="0.85" stroke="#ffffff" stroke-width="1.0" x1="855.2237062762925" x2="855.2237062762925" y1="271" y2="283" /><text fill="#7090D0" font-family="sans-serif" font-size="9" font-weight="bold" text-anchor="end" x="195" y="297.0">Neptune</text><line stroke="#333355" stroke-width="0.3" x1="200" x2="880" y1="286" y2="286" /><text fill="#cccccc" font-family="sans-serif" font-size="8" text-anchor="end" x="195" y="312.0">☌ Mercury</text><rect fill="#E07060" height="12" opacity="0.6" rx="2" ry="2" width="166.2495064009869" x="713.7504935990131" y="303" /><line opacity="0.85" stroke="#ffffff" stroke-width="1.0" x1="815.5728242431418" x2="815.5728242431418" y1="303" y2="315" /><text fill="#906880" font-family="sans-serif" font-size="9" font-weight="bold" text-anchor="end" x="195" y="329.0">Pluto</text><line stroke="#333355" stroke-width="0.3" x1="200" x2="880" y1="318" y2="318" /><text fill="#cccccc" font-family="sans-serif" font-size="8" text-anchor="end" x="195" y="344.0">⚹ Mercury</text><rect fill="#70B870" height="12" opacity="0.6" rx="2" ry="2" width="516.3848057971904" x="200" y="335" /><line opacity="0.85" stroke="#ffffff" stroke-width="1.0" x1="255.64052356400305" x2="255.64052356400305" y1="335" y2="347" /><line opacity="0.85" stroke="#ffffff" stroke-width="1.0" x1="624.2055528597654" x2="624.2055528597654" y1="335" y2="347" /><text fill="#cccccc" font-family="sans-serif" font-size="8" text-anchor="end" x="195" y="360.0">⚹ Saturn</text><rect fill="#70B870" height="12" opacity="0.6" rx="2" ry="2" width="283.09902804631656" x="596.9009719536834" y="351" /><line opacity="0.85" stroke="#ffffff" stroke-width="1.0" x1="686.1305469244394" x2="686.1305469244394" y1="351" y2="363" /><text fill="#C8A060" font-family="sans-serif" font-size="9" font-weight="bold" text-anchor="end" x="195" y="377.0">True Node</text><line stroke="#333355" stroke-width="0.3" x1="200" x2="880" y1="366" y2="366" /><text fill="#cccccc" font-family="sans-serif" font-size="8" text-anchor="end" x="195" y="392.0">☌ Sun</text><rect fill="#E07060" height="12" opacity="0.6" rx="2" ry="2" width="46.47055177205988" x="200" y="383" /><polygon fill="#ffffff" opacity="0.5" points="203,389.0 207,386.0 207,392.0" /><line opacity="0.85" stroke="#ffffff" stroke-width="1.0" x1="215.83561643835617" x2="215.83561643835617" y1="383" y2="395" /><text fill="#cccccc" font-family="sans-serif" font-size="8" text-anchor="end" x="195" y="408.0">□ Moon</text><rect fill="#F4A030" height="12" opacity="0.6" rx="2" ry="2" width="76.3835616438356" x="496.2191780821918" y="399" /><line opacity="0.85" stroke="#ffffff" stroke-width="1.0" x1="528.8219178082193" x2="528.8219178082193" y1="399" y2="411" /><text fill="#cccccc" font-family="sans-serif" font-size="8" text-anchor="end" x="195" y="424.0">⚹ Neptune</text><rect fill="#70B870" height="12" opacity="0.6" rx="2" ry="2" width="178.84931506849318" x="649.8979598731671" y="415" /><line opacity="0.85" stroke="#ffffff" stroke-width="1.0" x1="798.0075489142631" x2="798.0075489142631" y1="415" y2="427" /><text fill="#90A870" font-family="sans-serif" font-size="9" font-weight="bold" text-anchor="end" x="195" y="441.0">Chiron</text><line stroke="#333355" stroke-width="0.3" x1="200" x2="880" y1="430" y2="430" /><text fill="#cccccc" font-family="sans-serif" font-size="8" text-anchor="end" x="195" y="456.0">□ Mars</text><rect fill="#F4A030" height="12" opacity="0.6" rx="2" ry="2" width="256.5557926664066" x="200" y="447" /><polygon fill="#ffffff" opacity="0.5" points="203,453.0 207,450.0 207,456.0" /><line opacity="0.85" stroke="#ffffff" stroke-width="1.0" x1="266.75960747289827" x2="266.75960747289827" y1="447" y2="459" /><line opacity="0.85" stroke="#ffffff" stroke-width="1.0" x1="355.6477028340563" x2="355.6477028340563" y1="447" y2="459" /><text fill="#cccccc" font-family="sans-serif" font-size="8" text-anchor="end" x="195" y="472.0">□ Mars</text><rect fill="#F4A030" height="12" opacity="0.6" rx="2" ry="2" width="129.2740495573821" x="740.4072034281912" y="463" /><line opacity="0.85" stroke="#ffffff" stroke-width="1.0" x1="803.9945767016565" x2="803.9945767016565" y1="463" y2="475" /><text fill="#cccccc" font-family="sans-serif" font-size="8" text-anchor="end" x="195" y="488.0">⚹ Jupiter</text><rect fill="#70B870" height="12" opacity="0.6" rx="2" ry="2" width="97.1312403929403" x="775.120041946683" y="479" /><line opacity="0.85" stroke="#ffffff" stroke-width="1.0" x1="821.7932697999923" x2="821.7932697999923" y1="479" y2="491" /><rect fill="#E07060" height="8" opacity="0.8" rx="1" ry="1" width="12" x="200" y="510" /><text fill="#999999" font-family="sans-serif" font-size="8" x="216" y="517">☌ Conjunction</text><rect fill="#70B870" height="8" opacity="0.8" rx="1" ry="1" width="12" x="290" y="510" /><text fill="#999999" font-family="sans-serif" font-size="8" x="306" y="517">⚹ Sextile</text><rect fill="#F4A030" height="8" opacity="0.8" rx="1" ry="1" width="12" x="380" y="510" /><text fill="#999999" font-family="sans-serif" font-size="8" x="396" y="517">□ Square</text><rect fill="#60A0D0" height="8" opacity="0.8" rx="1" ry="1" width="12" x="470" y="510" /><text fill="#999999" font-family="sans-serif" font-size="8" x="486" y="517">△ Trine</text><rect fill="#C060B0" height="8" opacity="0.8" rx="1" ry="1" width="12" x="560" y="510" /><text fill="#999999" font-family="sans-serif" font-size="8" x="576" y="517">☍ Opposition</text><line opacity="0.85" stroke="#ffffff" stroke-width="1.0" x1="660" x2="660" y1="511" y2="519" /><text fill="#999999" font-family="sans-serif" font-size="8" x="665" y="517">Exact date</text><polygon fill="#ffffff" opacity="0.5" points="735,515 739,512 739,518" /><text fill="#999999" font-family="sans-serif" font-size="8" x="743" y="517">Extends beyond window</text></svg>