<?xml version="1.0" encoding="UTF-8" standalone="no"?>
<svg
   xmlns:dc="http://purl.org/dc/elements/1.1/"
   xmlns:cc="http://creativecommons.org/ns#"
   xmlns:rdf="http://www.w3.org/1999/02/22-rdf-syntax-ns#"
   xmlns:svg="http://www.w3.org/2000/svg"
   xmlns="http://www.w3.org/2000/svg"
   xmlns:sodipodi="http://sodipodi.sourceforge.net/DTD/sodipodi-0.dtd"
   xmlns:inkscape="http://www.inkscape.org/namespaces/inkscape"
   width="200"
   height="100"
   viewBox="0 0 52.916665 26.458334"
   version="1.1"
   id="svg8"
   inkscape:version="1.0.2-2 (e86c870879, 2021-01-15)"
   sodipodi:docname="01.svg">
  <defs
     id="defs2" />
  <sodipodi:namedview
     id="base"
     pagecolor="#ffffff"
     bordercolor="#666666"
     borderopacity="1.0"
     inkscape:pageopacity="0.0"
     inkscape:pageshadow="2"
     inkscape:zoom="2.8284272"
     inkscape:cx="134.71196"
     inkscape:cy="62.19715"
     inkscape:document-units="px"
     inkscape:current-layer="layer1"
     inkscape:document-rotation="0"
     showgrid="false"
     units="px"
     inkscape:snap-intersection-paths="false"
     inkscape:snap-midpoints="true"
     inkscape:snap-smooth-nodes="false"
     showguides="true"
     inkscape:guide-bbox="true"
     inkscape:snap-bbox="false"
     inkscape:snap-object-midpoints="true"
     inkscape:snap-global="false"
     inkscape:snap-nodes="true"
     inkscape:object-paths="false"
     inkscape:window-width="1366"
     inkscape:window-height="705"
     inkscape:window-x="-8"
     inkscape:window-y="-8"
     inkscape:window-maximized="1"
     inkscape:bbox-nodes="true"
     inkscape:object-nodes="true"
     inkscape:lockguides="false"
     inkscape:snap-bbox-edge-midpoints="true"
     inkscape:snap-center="false"
     inkscape:snap-others="true" />
  <metadata
     id="metadata5">
    <rdf:RDF>
      <cc:Work
         rdf:about="">
        <dc:format>image/svg+xml</dc:format>
        <dc:type
           rdf:resource="http://purl.org/dc/dcmitype/StillImage" />
        <dc:title></dc:title>
      </cc:Work>
    </rdf:RDF>
  </metadata>
  <g
     inkscape:label="Слой 1"
     inkscape:groupmode="layer"
     id="layer1">
    <path
       id="path124"
       style="fill:#000000;stroke:none;stroke-width:0.793747;stroke-linejoin:round;stroke-miterlimit:4;stroke-dasharray:none;stop-color:#000000"
       d="m 5.6699388,5.2916666 c -0.8720511,0 -1.5859498,0.715966 -1.5859498,1.588017 0,0.872054 0.7138987,1.5875 1.5859498,1.5875 0.360127,0 0.6921992,-0.123401 0.9596313,-0.328146 l -0.00413,0.0057 v 0.0057 c 1.3090591,1.294527 2.1218342,3.0892924 2.1218342,5.0787604 0,1.989582 -0.8126423,3.784734 -2.1218342,5.079276 v 0.0052 l 0.00413,0.0057 C 6.362138,18.114548 6.0300658,17.990633 5.6699388,17.990633 c -0.8720511,0 -1.5859498,0.715966 -1.5859498,1.588017 0,0.872054 0.7138987,1.588017 1.5859498,1.588017 0.872051,0 1.5880167,-0.715963 1.5880167,-1.588017 0,-0.233643 -0.05269,-0.45532 -0.144694,-0.655774 1.4024909,-1.357638 2.3128579,-3.219892 2.4163899,-5.296834 h 4.7738696 v 4.419368 c -0.681916,0.178028 -1.191144,0.800342 -1.191144,1.535307 0,0.872048 0.715968,1.58595 1.588019,1.58595 0.872048,0 1.588013,-0.713902 1.588016,-1.58595 0,-0.734883 -0.509347,-1.357197 -1.191141,-1.535307 v -4.419368 h 15.927707 c 0.177774,0.681847 0.800082,1.190111 1.535308,1.190108 0.735227,0 1.357538,-0.508261 1.535306,-1.190108 h 4.80074 c -0.03361,0.762414 -0.158184,1.518365 -0.382405,2.248958 h 1.5875 c -0.224221,-0.730593 -0.348789,-1.486544 -0.382405,-2.248958 h 2.087727 c -0.03361,0.762414 -0.158184,1.518365 -0.382405,2.248958 h 1.5875 c -0.224221,-0.730593 -0.34879,-1.486544 -0.382405,-2.248958 h 2.087727 c -0.03362,0.762414 -0.158184,1.518365 -0.382405,2.248958 h 1.5875 c -0.224222,-0.730593 -0.34879,-1.486544 -0.382405,-2.248958 h 2.087726 c -0.03361,0.762414 -0.158184,1.518365 -0.382405,2.248958 h 1.5875 c -0.263109,-0.857306 -0.396872,-1.749061 -0.396875,-2.645833 v -0.396875 h -2.895946 c 0.03361,-0.762414 0.158183,-1.518365 0.382405,-2.248958 h -1.5875 c 0.224221,0.730593 0.348789,1.486544 0.382405,2.248958 h -2.087727 c 0.03361,-0.762414 0.158184,-1.518365 0.382405,-2.248958 h -1.5875 c 0.224221,0.730593 0.34879,1.486544 0.382405,2.248958 h -2.087727 c 0.03362,-0.762414 0.158184,-1.518365 0.382405,-2.248958 h -1.5875 c 0.224221,0.730593 0.34879,1.486544 0.382405,2.248958 h -4.801256 c -0.178408,-0.681366 -0.800219,-1.190108 -1.53479,-1.190108 -0.73457,0 -1.356381,0.508742 -1.534789,1.190108 H 15.097271 V 8.4129226 c 0.681794,-0.177669 1.191138,-0.798359 1.191141,-1.533239 0,-0.872051 -0.715968,-1.588017 -1.588016,-1.588017 -0.872051,0 -1.588019,0.715966 -1.588019,1.588017 0,0.734965 0.509228,1.355652 1.191144,1.533239 V 12.832292 H 9.5296514 C 9.4260814,10.755247 8.5153928,8.8931116 7.1127447,7.5354576 c 0.09207,-0.200509 0.1446941,-0.422049 0.1446941,-0.655774 0,-0.872051 -0.715449,-1.588017 -1.5875,-1.588017 z m 0,0.792717 c 0.443077,0 0.7947834,0.352224 0.7947834,0.7953 0,0.443076 -0.3517064,0.792716 -0.7947834,0.792716 -0.4430771,0 -0.7932333,-0.34964 -0.7932333,-0.792716 0,-0.443076 0.3501562,-0.7953 0.7932333,-0.7953 z m 9.0304572,0 c 0.443074,0 0.794782,0.352224 0.794782,0.7953 0,0.443076 -0.351708,0.792716 -0.794782,0.792716 -0.443082,0 -0.793234,-0.34964 -0.793234,-0.792716 0,-0.443076 0.350152,-0.7953 0.793234,-0.7953 z m 17.85989,6.3510334 c 0.443077,0 0.794785,0.351707 0.794785,0.794784 0,0.443076 -0.351708,0.792716 -0.794785,0.792716 -0.443076,0 -0.793234,-0.34964 -0.793234,-0.792716 0,-0.443077 0.350158,-0.794784 0.793234,-0.794784 z m -26.8903472,6.34845 c 0.443077,0 0.7947834,0.351709 0.7947834,0.794783 0,0.443079 -0.3517064,0.793233 -0.7947834,0.793233 -0.4430771,0 -0.7932333,-0.350154 -0.7932333,-0.793233 0,-0.443074 0.3501562,-0.794783 0.7932333,-0.794783 z m 9.0304572,0.0021 c 0.443074,0 0.794782,0.351707 0.794782,0.794783 0,0.443077 -0.351708,0.792717 -0.794782,0.792717 -0.443082,0 -0.793234,-0.34964 -0.793234,-0.792717 0,-0.443076 0.350152,-0.794783 0.793234,-0.794783 z" />
  </g>
</svg>
