<?xml version="1.0" encoding="UTF-8" standalone="no"?>
<svg
   xmlns:dc="http://purl.org/dc/elements/1.1/"
   xmlns:cc="http://creativecommons.org/ns#"
   xmlns:rdf="http://www.w3.org/1999/02/22-rdf-syntax-ns#"
   xmlns:svg="http://www.w3.org/2000/svg"
   xmlns="http://www.w3.org/2000/svg"
   xmlns:sodipodi="http://sodipodi.sourceforge.net/DTD/sodipodi-0.dtd"
   xmlns:inkscape="http://www.inkscape.org/namespaces/inkscape"
   width="200"
   height="100"
   viewBox="0 0 52.916665 26.458334"
   version="1.1"
   id="svg8"
   inkscape:version="1.0.2-2 (e86c870879, 2021-01-15)"
   sodipodi:docname="04.svg">
  <defs
     id="defs2" />
  <sodipodi:namedview
     id="base"
     pagecolor="#ffffff"
     bordercolor="#666666"
     borderopacity="1.0"
     inkscape:pageopacity="0.0"
     inkscape:pageshadow="2"
     inkscape:zoom="4.0000001"
     inkscape:cx="124.47857"
     inkscape:cy="55.697829"
     inkscape:document-units="px"
     inkscape:current-layer="layer1"
     inkscape:document-rotation="0"
     showgrid="false"
     units="px"
     inkscape:snap-intersection-paths="false"
     inkscape:snap-midpoints="true"
     inkscape:snap-smooth-nodes="false"
     showguides="true"
     inkscape:guide-bbox="true"
     inkscape:snap-bbox="false"
     inkscape:snap-object-midpoints="true"
     inkscape:snap-global="false"
     inkscape:snap-nodes="true"
     inkscape:object-paths="false"
     inkscape:window-width="1366"
     inkscape:window-height="705"
     inkscape:window-x="-8"
     inkscape:window-y="-8"
     inkscape:window-maximized="1"
     inkscape:bbox-nodes="true"
     inkscape:object-nodes="true"
     inkscape:lockguides="false"
     inkscape:snap-bbox-edge-midpoints="true"
     inkscape:snap-center="false"
     inkscape:snap-others="true" />
  <metadata
     id="metadata5">
    <rdf:RDF>
      <cc:Work
         rdf:about="">
        <dc:format>image/svg+xml</dc:format>
        <dc:type
           rdf:resource="http://purl.org/dc/dcmitype/StillImage" />
        <dc:title></dc:title>
      </cc:Work>
    </rdf:RDF>
  </metadata>
  <g
     inkscape:label="Слой 1"
     inkscape:groupmode="layer"
     id="layer1">
    <path
       id="path118"
       style="color:#000000;font-style:normal;font-variant:normal;font-weight:normal;font-stretch:normal;font-size:medium;line-height:normal;font-family:sans-serif;font-variant-ligatures:normal;font-variant-position:normal;font-variant-caps:normal;font-variant-numeric:normal;font-variant-alternates:normal;font-variant-east-asian:normal;font-feature-settings:normal;font-variation-settings:normal;text-indent:0;text-align:start;text-decoration:none;text-decoration-line:none;text-decoration-style:solid;text-decoration-color:#000000;letter-spacing:normal;word-spacing:normal;text-transform:none;writing-mode:lr-tb;direction:ltr;text-orientation:mixed;dominant-baseline:auto;baseline-shift:baseline;text-anchor:start;white-space:normal;shape-padding:0;shape-margin:0;inline-size:0;clip-rule:nonzero;display:inline;overflow:visible;visibility:visible;isolation:auto;mix-blend-mode:normal;color-interpolation:sRGB;color-interpolation-filters:linearRGB;solid-color:#000000;solid-opacity:1;vector-effect:none;fill:#000000;fill-opacity:1;fill-rule:evenodd;stroke:none;stroke-width:1;stroke-linecap:butt;stroke-linejoin:miter;stroke-miterlimit:4;stroke-dasharray:none;stroke-dashoffset:0;stroke-opacity:1;color-rendering:auto;image-rendering:auto;shape-rendering:auto;text-rendering:auto;enable-background:accumulate;stop-color:#000000"
       d="m 15.346345,6.0854171 c -0.872048,0 -1.588016,0.715447 -1.588016,1.587499 0,0.872051 0.715968,1.58595 1.588016,1.58595 0.475141,0 0.902888,-0.212767 1.19476,-0.546737 l 9.029941,4.5165209 -9.031491,4.51652 c -0.291843,-0.333548 -0.718849,-0.54622 -1.19321,-0.54622 -0.872048,0 -1.588016,0.715965 -1.588016,1.588017 0,0.872051 0.715968,1.585949 1.588016,1.585949 0.872051,0 1.588019,-0.713898 1.588019,-1.585949 0,-0.114187 -0.01288,-0.22574 -0.03617,-0.333313 l 9.559623,-4.781104 9.560655,4.78162 c -0.02322,0.107419 -0.03565,0.218788 -0.03565,0.332797 0,0.872051 0.715449,1.585949 1.5875,1.585949 0.872059,0 1.588016,-0.713898 1.588016,-1.585949 0,-0.872052 -0.715957,-1.588017 -1.588016,-1.588017 -0.474361,0 -0.901367,0.212672 -1.19321,0.54622 L 27.345105,13.22865 36.37608,8.7126461 c 0.291862,0.333653 0.719362,0.54622 1.194242,0.54622 0.872059,0 1.588016,-0.713899 1.588016,-1.58595 0,-0.872052 -0.715957,-1.587499 -1.588016,-1.587499 -0.872051,0 -1.5875,0.715447 -1.5875,1.587499 0,0.113677 0.01257,0.224693 0.03565,0.331763 L 26.457817,12.785266 16.898194,8.0051961 c 0.02316,-0.107226 0.03617,-0.218425 0.03617,-0.33228 0,-0.872052 -0.715968,-1.587499 -1.588019,-1.587499 z m 0,0.792716 c 0.443082,0 0.794784,0.351706 0.794784,0.794783 0,0.443076 -0.351702,0.793233 -0.794784,0.793234 -0.443069,0 -0.793231,-0.350158 -0.793231,-0.793234 0,-0.443077 0.350162,-0.794783 0.793231,-0.794783 z m 22.223968,0 c 0.443079,0 0.7953,0.351706 0.7953,0.794783 0,0.443076 -0.352221,0.793233 -0.7953,0.793234 -0.443071,0 -0.792716,-0.350158 -0.792718,-0.793234 0,-0.443077 0.349647,-0.794783 0.792718,-0.794783 z M 15.346345,17.991666 c 0.443082,0 0.794784,0.352224 0.794784,0.795301 0,0.443076 -0.351702,0.792716 -0.794784,0.792716 -0.443069,0 -0.793231,-0.34964 -0.793231,-0.792716 0,-0.443077 0.350162,-0.795301 0.793231,-0.795301 z m 22.223968,0 c 0.443079,0 0.7953,0.352224 0.7953,0.795301 0,0.443076 -0.352221,0.792716 -0.7953,0.792716 -0.443071,0 -0.792716,-0.34964 -0.792718,-0.792716 0,-0.443077 0.349647,-0.795301 0.792718,-0.795301 z" />
  </g>
</svg>
