<?xml version="1.0" encoding="utf-8" ?>
<svg baseProfile="full" height="900px" version="1.1" viewBox="0 0 1400 900" width="1400px" xmlns="http://www.w3.org/2000/svg" xmlns:ev="http://www.w3.org/2001/xml-events" xmlns:xlink="http://www.w3.org/1999/xlink"><defs /><rect fill="#FFFFFF" height="900" width="1400" x="0" y="0" /><line stroke="#D0D0D0" stroke-width="1.0" x1="90" x2="1320" y1="820.0" y2="820.0" /><line stroke="#D0D0D0" stroke-width="1.0" x1="90" x2="1320" y1="566.6666666666667" y2="566.6666666666667" /><line stroke="#D0D0D0" stroke-width="1.0" x1="90" x2="1320" y1="313.33333333333337" y2="313.33333333333337" /><line stroke="#D0D0D0" stroke-width="1.0" x1="90" x2="1320" y1="60.0" y2="60.0" /><line stroke="#D0D0D0" stroke-width="1.0" x1="90.0" x2="90.0" y1="60" y2="820" /><line stroke="#E8E8E8" stroke-width="0.5" x1="194.75274725274727" x2="194.75274725274727" y1="60" y2="820" /><line stroke="#E8E8E8" stroke-width="0.5" x1="289.36813186813185" x2="289.36813186813185" y1="60" y2="820" /><line stroke="#E8E8E8" stroke-width="0.5" x1="394.1208791208791" x2="394.1208791208791" y1="60" y2="820" /><line stroke="#E8E8E8" stroke-width="0.5" x1="495.49450549450546" x2="495.49450549450546" y1="60" y2="820" /><line stroke="#E8E8E8" stroke-width="0.5" x1="600.2472527472528" x2="600.2472527472528" y1="60" y2="820" /><line stroke="#E8E8E8" stroke-width="0.5" x1="701.6208791208792" x2="701.6208791208792" y1="60" y2="820" /><line stroke="#E8E8E8" stroke-width="0.5" x1="806.3736263736264" x2="806.3736263736264" y1="60" y2="820" /><line stroke="#E8E8E8" stroke-width="0.5" x1="911.1263736263736" x2="911.1263736263736" y1="60" y2="820" /><line stroke="#E8E8E8" stroke-width="0.5" x1="1012.5" x2="1012.5" y1="60" y2="820" /><line stroke="#E8E8E8" stroke-width="0.5" x1="1117.2527472527472" x2="1117.2527472527472" y1="60" y2="820" /><line stroke="#E8E8E8" stroke-width="0.5" x1="1218.6263736263736" x2="1218.6263736263736" y1="60" y2="820" /><text fill="#333333" font-family="&quot;Arial&quot;, &quot;Helvetica&quot;, sans-serif" font-size="11px" text-anchor="end" x="75" y="824.0">0°</text><text fill="#888888" font-family="&quot;Arial&quot;, &quot;Helvetica&quot;, sans-serif" font-size="9px" text-anchor="end" x="75" y="739.5555555555555">5°</text><text fill="#888888" font-family="&quot;Arial&quot;, &quot;Helvetica&quot;, sans-serif" font-size="9px" text-anchor="end" x="75" y="655.1111111111111">10°</text><text fill="#333333" font-family="&quot;Arial&quot;, &quot;Helvetica&quot;, sans-serif" font-size="11px" text-anchor="end" x="75" y="570.6666666666667">15°</text><text fill="#888888" font-family="&quot;Arial&quot;, &quot;Helvetica&quot;, sans-serif" font-size="9px" text-anchor="end" x="75" y="486.22222222222223">20°</text><text fill="#888888" font-family="&quot;Arial&quot;, &quot;Helvetica&quot;, sans-serif" font-size="9px" text-anchor="end" x="75" y="401.77777777777777">25°</text><text fill="#333333" font-family="&quot;Arial&quot;, &quot;Helvetica&quot;, sans-serif" font-size="11px" text-anchor="end" x="75" y="317.33333333333337">30°</text><text fill="#888888" font-family="&quot;Arial&quot;, &quot;Helvetica&quot;, sans-serif" font-size="9px" text-anchor="end" x="75" y="232.88888888888889">35°</text><text fill="#888888" font-family="&quot;Arial&quot;, &quot;Helvetica&quot;, sans-serif" font-size="9px" text-anchor="end" x="75" y="148.44444444444449">40°</text><text fill="#333333" font-family="&quot;Arial&quot;, &quot;Helvetica&quot;, sans-serif" font-size="11px" text-anchor="end" x="75" y="64.0">0°</text><text fill="#333333" font-family="Arial, sans-serif" font-size="10px" text-anchor="middle" x="90.0" y="840">Jan</text><text fill="#333333" font-family="Arial, sans-serif" font-size="12px" font-weight="bold" text-anchor="middle" x="90.0" y="855">2025</text><text fill="#333333" font-family="Arial, sans-serif" font-size="10px" text-anchor="middle" x="194.75274725274727" y="840">Feb</text><text fill="#333333" font-family="Arial, sans-serif" font-size="10px" text-anchor="middle" x="289.36813186813185" y="840">Mar</text><text fill="#333333" font-family="Arial, sans-serif" font-size="10px" text-anchor="middle" x="394.1208791208791" y="840">Apr</text><text fill="#333333" font-family="Arial, sans-serif" font-size="10px" text-anchor="middle" x="495.49450549450546" y="840">May</text><text fill="#333333" font-family="Arial, sans-serif" font-size="10px" text-anchor="middle" x="600.2472527472528" y="840">Jun</text><text fill="#333333" font-family="Arial, sans-serif" font-size="10px" text-anchor="middle" x="701.6208791208792" y="840">Jul</text><text fill="#333333" font-family="Arial, sans-serif" font-size="10px" text-anchor="middle" x="806.3736263736264" y="840">Aug</text><text fill="#333333" font-family="Arial, sans-serif" font-size="10px" text-anchor="middle" x="911.1263736263736" y="840">Sep</text><text fill="#333333" font-family="Arial, sans-serif" font-size="10px" text-anchor="middle" x="1012.5" y="840">Oct</text><text fill="#333333" font-family="Arial, sans-serif" font-size="10px" text-anchor="middle" x="1117.2527472527472" y="840">Nov</text><text fill="#333333" font-family="Arial, sans-serif" font-size="10px" text-anchor="middle" x="1218.6263736263736" y="840">Dec</text><path d="M 90.0 628.8 L 93.4 611.5 L 96.8 594.3 L 100.1 577.1 L 103.5 559.9 L 106.9 542.7 L 110.3 525.5 L 113.7 508.2 L 117.0 491.0 L 120.4 473.8 L 123.8 456.6 L 127.2 439.4 L 130.5 422.2 L 133.9 405.0 L 137.3 387.8 L 140.7 370.6 L 144.1 353.4 L 147.4 336.3 L 150.8 319.1 L 154.2 301.9 L 157.6 284.7 L 161.0 267.5 L 164.3 250.3 L 167.7 233.1 L 171.1 216.0 L 174.5 198.8 L 177.9 181.6 L 181.2 164.5 L 184.6 147.3 L 188.0 130.1 L 191.4 113.0 L 194.8 95.8 L 198.1 78.7 L 201.5 61.6" fill="none" stroke="#FFD700" stroke-linecap="round" stroke-linejoin="round" stroke-width="2.5" /><path d="M 204.9 804.4 L 208.3 787.3 L 211.6 770.2 L 215.0 753.1 L 218.4 736.0 L 221.8 718.9 L 225.2 701.8 L 228.5 684.7 L 231.9 667.6 L 235.3 650.6 L 238.7 633.5 L 242.1 616.5 L 245.4 599.4 L 248.8 582.4 L 252.2 565.3 L 255.6 548.3 L 259.0 531.3 L 262.3 514.3 L 265.7 497.2 L 269.1 480.2 L 272.5 463.2 L 275.9 446.2 L 279.2 429.3 L 282.6 412.3 L 286.0 395.3 L 289.4 378.3 L 292.7 361.4 L 296.1 344.5 L 299.5 327.5 L 302.9 310.6 L 306.3 293.7 L 309.6 276.8 L 313.0 259.9 L 316.4 243.0 L 319.8 226.1 L 323.2 209.3 L 326.5 192.4 L 329.9 175.6 L 333.3 158.7 L 336.7 141.9 L 340.1 125.1 L 343.4 108.3 L 346.8 91.5 L 350.2 74.7" fill="none" stroke="#FFD700" stroke-linecap="round" stroke-linejoin="round" stroke-width="2.5" /><path d="M 353.6 817.9 L 357.0 801.1 L 360.3 784.4 L 363.7 767.6 L 367.1 750.9 L 370.5 734.1 L 373.8 717.4 L 377.2 700.7 L 380.6 684.0 L 384.0 667.3 L 387.4 650.6 L 390.7 633.9 L 394.1 617.2 L 397.5 600.5 L 400.9 583.9 L 404.3 567.2 L 407.6 550.6 L 411.0 534.0 L 414.4 517.4 L 417.8 500.8 L 421.2 484.2 L 424.5 467.6 L 427.9 451.0 L 431.3 434.5 L 434.7 417.9 L 438.0 401.4 L 441.4 384.8 L 444.8 368.3 L 448.2 351.8 L 451.6 335.3 L 454.9 318.8 L 458.3 302.3 L 461.7 285.8 L 465.1 269.3 L 468.5 252.9 L 471.8 236.4 L 475.2 219.9 L 478.6 203.5 L 482.0 187.1 L 485.4 170.6 L 488.7 154.2 L 492.1 137.8 L 495.5 121.4 L 498.9 105.0 L 502.3 88.6 L 505.6 72.2" fill="none" stroke="#FFD700" stroke-linecap="round" stroke-linejoin="round" stroke-width="2.5" /><path d="M 509.0 815.9 L 512.4 799.5 L 515.8 783.2 L 519.1 766.8 L 522.5 750.5 L 525.9 734.2 L 529.3 717.9 L 532.7 701.6 L 536.0 685.3 L 539.4 669.0 L 542.8 652.7 L 546.2 636.4 L 549.6 620.1 L 552.9 603.9 L 556.3 587.6 L 559.7 571.3 L 563.1 555.1 L 566.5 538.8 L 569.8 522.6 L 573.2 506.4 L 576.6 490.1 L 580.0 473.9 L 583.4 457.7 L 586.7 441.5 L 590.1 425.3 L 593.5 409.0 L 596.9 392.8 L 600.2 376.7 L 603.6 360.5 L 607.0 344.3 L 610.4 328.1 L 613.8 311.9 L 617.1 295.8 L 620.5 279.6 L 623.9 263.5 L 627.3 247.3 L 630.7 231.2 L 634.0 215.0 L 637.4 198.9 L 640.8 182.8 L 644.2 166.6 L 647.6 150.5 L 650.9 134.4 L 654.3 118.2 L 657.7 102.1 L 661.1 86.0 L 664.5 69.9" fill="none" stroke="#FFD700" stroke-linecap="round" stroke-linejoin="round" stroke-width="2.5" /><path d="M 667.8 813.8 L 671.2 797.6 L 674.6 781.5 L 678.0 765.4 L 681.3 749.3 L 684.7 733.2 L 688.1 717.0 L 691.5 700.9 L 694.9 684.8 L 698.2 668.7 L 701.6 652.6 L 705.0 636.5 L 708.4 620.4 L 711.8 604.3 L 715.1 588.2 L 718.5 572.1 L 721.9 556.0 L 725.3 539.9 L 728.7 523.8 L 732.0 507.7 L 735.4 491.6 L 738.8 475.5 L 742.2 459.4 L 745.5 443.3 L 748.9 427.2 L 752.3 411.1 L 755.7 395.0 L 759.1 378.8 L 762.4 362.7 L 765.8 346.6 L 769.2 330.5 L 772.6 314.3 L 776.0 298.2 L 779.3 282.1 L 782.7 265.9 L 786.1 249.8 L 789.5 233.6 L 792.9 217.5 L 796.2 201.3 L 799.6 185.2 L 803.0 169.0 L 806.4 152.9 L 809.8 136.7 L 813.1 120.6 L 816.5 104.4 L 819.9 88.2 L 823.3 72.0" fill="none" stroke="#FFD700" stroke-linecap="round" stroke-linejoin="round" stroke-width="2.5" /><path d="M 826.6 815.9 L 830.0 799.7 L 833.4 783.5 L 836.8 767.3 L 840.2 751.1 L 843.5 734.9 L 846.9 718.7 L 850.3 702.5 L 853.7 686.3 L 857.1 670.0 L 860.4 653.8 L 863.8 637.5 L 867.2 621.3 L 870.6 605.0 L 874.0 588.8 L 877.3 572.5 L 880.7 556.2 L 884.1 539.9 L 887.5 523.6 L 890.9 507.3 L 894.2 491.0 L 897.6 474.7 L 901.0 458.4 L 904.4 442.0 L 907.7 425.7 L 911.1 409.4 L 914.5 393.0 L 917.9 376.7 L 921.3 360.3 L 924.6 343.9 L 928.0 327.6 L 931.4 311.2 L 934.8 294.8 L 938.2 278.4 L 941.5 262.0 L 944.9 245.6 L 948.3 229.2 L 951.7 212.7 L 955.1 196.3 L 958.4 179.8 L 961.8 163.4 L 965.2 146.9 L 968.6 130.4 L 972.0 113.9 L 975.3 97.4 L 978.7 80.9 L 982.1 64.4" fill="none" stroke="#FFD700" stroke-linecap="round" stroke-linejoin="round" stroke-width="2.5" /><path d="M 985.5 807.8 L 988.8 791.3 L 992.2 774.7 L 995.6 758.2 L 999.0 741.6 L 1002.4 725.0 L 1005.7 708.4 L 1009.1 691.9 L 1012.5 675.3 L 1015.9 658.6 L 1019.3 642.0 L 1022.6 625.4 L 1026.0 608.8 L 1029.4 592.1 L 1032.8 575.5 L 1036.2 558.8 L 1039.5 542.1 L 1042.9 525.5 L 1046.3 508.8 L 1049.7 492.1 L 1053.0 475.3 L 1056.4 458.6 L 1059.8 441.9 L 1063.2 425.1 L 1066.6 408.4 L 1069.9 391.6 L 1073.3 374.8 L 1076.7 358.0 L 1080.1 341.2 L 1083.5 324.4 L 1086.8 307.6 L 1090.2 290.8 L 1093.6 274.0 L 1097.0 257.1 L 1100.4 240.3 L 1103.7 223.4 L 1107.1 206.5 L 1110.5 189.7 L 1113.9 172.8 L 1117.3 155.9 L 1120.6 139.0 L 1124.0 122.1 L 1127.4 105.2 L 1130.8 88.3 L 1134.1 71.3" fill="none" stroke="#FFD700" stroke-linecap="round" stroke-linejoin="round" stroke-width="2.5" /><path d="M 1137.5 814.4 L 1140.9 797.5 L 1144.3 780.5 L 1147.7 763.5 L 1151.0 746.6 L 1154.4 729.6 L 1157.8 712.6 L 1161.2 695.6 L 1164.6 678.6 L 1167.9 661.5 L 1171.3 644.5 L 1174.7 627.5 L 1178.1 610.4 L 1181.5 593.4 L 1184.8 576.3 L 1188.2 559.3 L 1191.6 542.2 L 1195.0 525.1 L 1198.4 508.0 L 1201.7 490.9 L 1205.1 473.9 L 1208.5 456.8 L 1211.9 439.7 L 1215.2 422.6 L 1218.6 405.4 L 1222.0 388.3 L 1225.4 371.2 L 1228.8 354.1 L 1232.1 337.0 L 1235.5 319.8 L 1238.9 302.7 L 1242.3 285.5 L 1245.7 268.4 L 1249.0 251.2 L 1252.4 234.1 L 1255.8 216.9 L 1259.2 199.7 L 1262.6 182.5 L 1265.9 165.4 L 1269.3 148.2 L 1272.7 131.0 L 1276.1 113.8 L 1279.5 96.6 L 1282.8 79.4 L 1286.2 62.2" fill="none" stroke="#FFD700" stroke-linecap="round" stroke-linejoin="round" stroke-width="2.5" /><path d="M 1289.6 805.0 L 1293.0 787.8 L 1296.3 770.6 L 1299.7 753.4 L 1303.1 736.2 L 1306.5 718.9 L 1309.9 701.7 L 1313.2 684.5 L 1316.6 667.3 L 1320.0 650.1" fill="none" stroke="#FFD700" stroke-linecap="round" stroke-linejoin="round" stroke-width="2.5" /><path d="M 90.0 220.2 L 93.4 198.0 L 96.8 175.5 L 100.1 152.7 L 103.5 129.5 L 106.9 106.1 L 110.3 82.4" fill="none" stroke="#FFA500" stroke-linecap="round" stroke-linejoin="round" stroke-width="2.5" /><path d="M 113.7 818.5 L 117.0 794.4 L 120.4 770.0 L 123.8 745.5 L 127.2 720.8 L 130.5 695.9 L 133.9 670.8 L 137.3 645.6 L 140.7 620.2 L 144.1 594.7 L 147.4 569.0 L 150.8 543.1 L 154.2 517.1 L 157.6 490.9 L 161.0 464.5 L 164.3 438.0 L 167.7 411.4 L 171.1 384.5 L 174.5 357.5 L 177.9 330.3 L 181.2 302.9 L 184.6 275.3 L 188.0 247.6 L 191.4 219.6 L 194.8 191.5 L 198.1 163.2 L 201.5 134.6 L 204.9 105.9 L 208.3 76.9" fill="none" stroke="#FFA500" stroke-linecap="round" stroke-linejoin="round" stroke-width="2.5" /><path d="M 211.6 807.8 L 215.0 778.4 L 218.4 748.8 L 221.8 718.9 L 225.2 688.9 L 228.5 658.7 L 231.9 628.2 L 235.3 597.6 L 238.7 566.8 L 242.1 535.8 L 245.4 504.7 L 248.8 473.4 L 252.2 442.1 L 255.6 410.7 L 259.0 379.3 L 262.3 348.0 L 265.7 316.7 L 269.1 285.7 L 272.5 254.9 L 275.9 224.5 L 279.2 194.6 L 282.6 165.3 L 286.0 136.7 L 289.4 109.0 L 292.7 82.4" fill="none" stroke="#FFA500" stroke-linecap="round" stroke-linejoin="round" stroke-width="2.5" /><path d="M 296.1 817.0 L 299.5 792.9 L 302.9 770.3 L 306.3 749.5 L 309.6 730.5 L 313.0 713.4 L 316.4 698.5 L 319.8 685.8 L 323.2 675.4 L 326.5 667.5 L 329.9 661.9 L 333.3 658.8 L 336.7 658.1 L 340.1 659.8 L 343.4 663.8 L 346.8 670.0 L 350.2 678.1 L 353.6 688.1 L 357.0 699.6 L 360.3 712.4 L 363.7 726.2 L 367.1 740.6 L 370.5 755.5 L 373.8 770.4 L 377.2 785.0 L 380.6 799.1 L 384.0 812.5" fill="none" stroke="#FFA500" stroke-linecap="round" stroke-linejoin="round" stroke-width="2.5" /><path d="M 387.4 64.9 L 390.7 76.1 L 394.1 86.0 L 397.5 94.4 L 400.9 101.4 L 404.3 106.8 L 407.6 110.6 L 411.0 112.9 L 414.4 113.6 L 417.8 112.8 L 421.2 110.5 L 424.5 106.8 L 427.9 101.6 L 431.3 95.2 L 434.7 87.5 L 438.0 78.6 L 441.4 68.5" fill="none" stroke="#FFA500" stroke-linecap="round" stroke-linejoin="round" stroke-width="2.5" /><path d="M 444.8 817.3 L 448.2 805.1 L 451.6 791.8 L 454.9 777.7 L 458.3 762.6 L 461.7 746.6 L 465.1 729.8 L 468.5 712.3 L 471.8 693.9 L 475.2 674.9 L 478.6 655.1 L 482.0 634.7 L 485.4 613.5 L 488.7 591.8 L 492.1 569.4 L 495.5 546.4 L 498.9 522.8 L 502.3 498.7 L 505.6 473.9 L 509.0 448.6 L 512.4 422.7 L 515.8 396.3 L 519.1 369.3 L 522.5 341.7 L 525.9 313.6 L 529.3 285.0 L 532.7 255.7 L 536.0 225.9 L 539.4 195.6 L 542.8 164.7 L 546.2 133.2 L 549.6 101.2 L 552.9 68.6" fill="none" stroke="#FFA500" stroke-linecap="round" stroke-linejoin="round" stroke-width="2.5" /><path d="M 556.3 795.5 L 559.7 761.8 L 563.1 727.7 L 566.5 693.0 L 569.8 657.9 L 573.2 622.3 L 576.6 586.3 L 580.0 550.0 L 583.4 513.3 L 586.7 476.4 L 590.1 439.4 L 593.5 402.2 L 596.9 365.1 L 600.2 328.0 L 603.6 291.0 L 607.0 254.2 L 610.4 217.7 L 613.8 181.5 L 617.1 145.8 L 620.5 110.5 L 623.9 75.7" fill="none" stroke="#FFA500" stroke-linecap="round" stroke-linejoin="round" stroke-width="2.5" /><path d="M 627.3 801.5 L 630.7 767.8 L 634.0 734.8 L 637.4 702.4 L 640.8 670.6 L 644.2 639.5 L 647.6 609.1 L 650.9 579.3 L 654.3 550.2 L 657.7 521.9 L 661.1 494.2 L 664.5 467.2 L 667.8 440.8 L 671.2 415.2 L 674.6 390.3 L 678.0 366.2 L 681.3 342.7 L 684.7 320.0 L 688.1 298.0 L 691.5 276.8 L 694.9 256.3 L 698.2 236.6 L 701.6 217.8 L 705.0 199.8 L 708.4 182.6 L 711.8 166.3 L 715.1 151.0 L 718.5 136.6 L 721.9 123.1 L 725.3 110.7 L 728.7 99.3 L 732.0 89.0 L 735.4 79.8 L 738.8 71.8 L 742.2 65.0" fill="none" stroke="#FFA500" stroke-linecap="round" stroke-linejoin="round" stroke-width="2.5" /><path d="M 745.5 819.5 L 748.9 815.2 L 752.3 812.2 L 755.7 810.6 L 759.1 810.3 L 762.4 811.4 L 765.8 813.9 L 769.2 817.8" fill="none" stroke="#FFA500" stroke-linecap="round" stroke-linejoin="round" stroke-width="2.5" /><path d="M 772.6 62.9 L 776.0 69.4 L 779.3 77.1 L 782.7 85.9 L 786.1 95.8 L 789.5 106.5 L 792.9 118.0 L 796.2 130.1 L 799.6 142.5 L 803.0 155.1 L 806.4 167.6 L 809.8 179.7 L 813.1 191.4 L 816.5 202.3 L 819.9 212.2 L 823.3 221.0 L 826.6 228.4 L 830.0 234.3 L 833.4 238.5 L 836.8 240.9 L 840.2 241.5 L 843.5 240.2 L 846.9 236.9 L 850.3 231.5 L 853.7 224.2 L 857.1 214.8 L 860.4 203.4 L 863.8 190.1 L 867.2 174.8 L 870.6 157.7 L 874.0 138.7 L 877.3 118.0 L 880.7 95.7 L 884.1 71.9" fill="none" stroke="#FFA500" stroke-linecap="round" stroke-linejoin="round" stroke-width="2.5" /><path d="M 887.5 806.6 L 890.9 780.1 L 894.2 752.3 L 897.6 723.6 L 901.0 693.9 L 904.4 663.4 L 907.7 632.3 L 911.1 600.6 L 914.5 568.5 L 917.9 536.1 L 921.3 503.6 L 924.6 470.8 L 928.0 438.1 L 931.4 405.4 L 934.8 372.7 L 938.2 340.2 L 941.5 307.8 L 944.9 275.6 L 948.3 243.7 L 951.7 212.0 L 955.1 180.6 L 958.4 149.4 L 961.8 118.5 L 965.2 87.9" fill="none" stroke="#FFA500" stroke-linecap="round" stroke-linejoin="round" stroke-width="2.5" /><path d="M 968.6 817.6 L 972.0 787.6 L 975.3 757.9 L 978.7 728.4 L 982.1 699.2 L 985.5 670.4 L 988.8 641.7 L 992.2 613.4 L 995.6 585.3 L 999.0 557.5 L 1002.4 530.0 L 1005.7 502.7 L 1009.1 475.6 L 1012.5 448.8 L 1015.9 422.2 L 1019.3 395.9 L 1022.6 369.8 L 1026.0 343.9 L 1029.4 318.3 L 1032.8 292.9 L 1036.2 267.7 L 1039.5 242.8 L 1042.9 218.0 L 1046.3 193.5 L 1049.7 169.3 L 1053.0 145.3 L 1056.4 121.5 L 1059.8 98.0 L 1063.2 74.7" fill="none" stroke="#FFA500" stroke-linecap="round" stroke-linejoin="round" stroke-width="2.5" /><path d="M 1066.6 811.7 L 1069.9 789.0 L 1073.3 766.6 L 1076.7 744.6 L 1080.1 722.9 L 1083.5 701.5 L 1086.8 680.6 L 1090.2 660.1 L 1093.6 640.1 L 1097.0 620.7 L 1100.4 601.8 L 1103.7 583.5 L 1107.1 566.0 L 1110.5 549.2 L 1113.9 533.4 L 1117.3 518.5 L 1120.6 504.7 L 1124.0 492.1 L 1127.4 480.9 L 1130.8 471.1 L 1134.1 463.1 L 1137.5 456.9 L 1140.9 452.8 L 1144.3 450.9 L 1147.7 451.4 L 1151.0 454.5 L 1154.4 460.4 L 1157.8 469.1 L 1161.2 480.7 L 1164.6 495.1 L 1167.9 512.1 L 1171.3 531.4 L 1174.7 552.5 L 1178.1 574.8 L 1181.5 597.7 L 1184.8 620.4 L 1188.2 642.2 L 1191.6 662.2 L 1195.0 680.0 L 1198.4 695.1 L 1201.7 707.0 L 1205.1 715.8 L 1208.5 721.3 L 1211.9 723.5 L 1215.2 722.7 L 1218.6 719.1 L 1222.0 712.8 L 1225.4 704.2 L 1228.8 693.4 L 1232.1 680.7 L 1235.5 666.3 L 1238.9 650.5 L 1242.3 633.4 L 1245.7 615.1 L 1249.0 595.9 L 1252.4 575.8 L 1255.8 555.0 L 1259.2 533.6 L 1262.6 511.6 L 1265.9 489.1 L 1269.3 466.2 L 1272.7 442.9 L 1276.1 419.3 L 1279.5 395.5 L 1282.8 371.4 L 1286.2 347.0 L 1289.6 322.5 L 1293.0 297.8 L 1296.3 273.0 L 1299.7 248.0 L 1303.1 222.9 L 1306.5 197.7 L 1309.9 172.3 L 1313.2 146.9 L 1316.6 121.3 L 1320.0 95.6" fill="none" stroke="#FFA500" stroke-linecap="round" stroke-linejoin="round" stroke-width="2.5" /><path d="M 90.0 596.3 L 93.4 578.2 L 96.8 560.2 L 100.1 542.4 L 103.5 524.6 L 106.9 506.9 L 110.3 489.3 L 113.7 471.9 L 117.0 454.5 L 120.4 437.3 L 123.8 420.1 L 127.2 403.1 L 130.5 386.2 L 133.9 369.5 L 137.3 352.9 L 140.7 336.4 L 144.1 320.1 L 147.4 303.9 L 150.8 287.9 L 154.2 272.0 L 157.6 256.3 L 161.0 240.8 L 164.3 225.4 L 167.7 210.3 L 171.1 195.3 L 174.5 180.5 L 177.9 166.0 L 181.2 151.6 L 184.6 137.5 L 188.0 123.6 L 191.4 109.9 L 194.8 96.5 L 198.1 83.4 L 201.5 70.5" fill="none" stroke="#FF69B4" stroke-linecap="round" stroke-linejoin="round" stroke-width="2.5" /><path d="M 204.9 817.9 L 208.3 805.6 L 211.6 793.6 L 215.0 782.0 L 218.4 770.6 L 221.8 759.7 L 225.2 749.1 L 228.5 738.8 L 231.9 729.0 L 235.3 719.5 L 238.7 710.5 L 242.1 701.9 L 245.4 693.8 L 248.8 686.2 L 252.2 679.0 L 255.6 672.3 L 259.0 666.2 L 262.3 660.6 L 265.7 655.5 L 269.1 651.0 L 272.5 647.1 L 275.9 643.8 L 279.2 641.2 L 282.6 639.2 L 286.0 637.8 L 289.4 637.1 L 292.7 637.1 L 296.1 637.8 L 299.5 639.1 L 302.9 641.2 L 306.3 644.0 L 309.6 647.5 L 313.0 651.7 L 316.4 656.6 L 319.8 662.2 L 323.2 668.5 L 326.5 675.3 L 329.9 682.8 L 333.3 690.9 L 336.7 699.4 L 340.1 708.5 L 343.4 718.0 L 346.8 727.8 L 350.2 737.9 L 353.6 748.3 L 357.0 758.8 L 360.3 769.4 L 363.7 780.0 L 367.1 790.6 L 370.5 801.1 L 373.8 811.4" fill="none" stroke="#FF69B4" stroke-linecap="round" stroke-linejoin="round" stroke-width="2.5" /><path d="M 377.2 61.4 L 380.6 71.1 L 384.0 80.4 L 387.4 89.3 L 390.7 97.7 L 394.1 105.6 L 397.5 112.9 L 400.9 119.7 L 404.3 125.8 L 407.6 131.3 L 411.0 136.1 L 414.4 140.3 L 417.8 143.7 L 421.2 146.5 L 424.5 148.6 L 427.9 150.0 L 431.3 150.7 L 434.7 150.7 L 438.0 150.1 L 441.4 148.8 L 444.8 146.8 L 448.2 144.3 L 451.6 141.1 L 454.9 137.4 L 458.3 133.0 L 461.7 128.1 L 465.1 122.7 L 468.5 116.7 L 471.8 110.3 L 475.2 103.3 L 478.6 95.9 L 482.0 88.1 L 485.4 79.8 L 488.7 71.1 L 492.1 62.0" fill="none" stroke="#FF69B4" stroke-linecap="round" stroke-linejoin="round" stroke-width="2.5" /><path d="M 495.5 812.6 L 498.9 802.7 L 502.3 792.6 L 505.6 782.0 L 509.0 771.2 L 512.4 760.0 L 515.8 748.6 L 519.1 736.8 L 522.5 724.8 L 525.9 712.5 L 529.3 699.9 L 532.7 687.1 L 536.0 674.1 L 539.4 660.8 L 542.8 647.3 L 546.2 633.6 L 549.6 619.7 L 552.9 605.5 L 556.3 591.2 L 559.7 576.7 L 563.1 562.1 L 566.5 547.2 L 569.8 532.2 L 573.2 517.1 L 576.6 501.8 L 580.0 486.3 L 583.4 470.7 L 586.7 455.0 L 590.1 439.2 L 593.5 423.2 L 596.9 407.1 L 600.2 390.9 L 603.6 374.6 L 607.0 358.1 L 610.4 341.6 L 613.8 325.0 L 617.1 308.2 L 620.5 291.4 L 623.9 274.5 L 627.3 257.5 L 630.7 240.4 L 634.0 223.2 L 637.4 205.9 L 640.8 188.6 L 644.2 171.2 L 647.6 153.7 L 650.9 136.1 L 654.3 118.4 L 657.7 100.7 L 661.1 82.9 L 664.5 65.1" fill="none" stroke="#FF69B4" stroke-linecap="round" stroke-linejoin="round" stroke-width="2.5" /><path d="M 667.8 807.2 L 671.2 789.2 L 674.6 771.2 L 678.0 753.1 L 681.3 734.9 L 684.7 716.7 L 688.1 698.5 L 691.5 680.2 L 694.9 661.8 L 698.2 643.4 L 701.6 625.0 L 705.0 606.5 L 708.4 588.0 L 711.8 569.4 L 715.1 550.8 L 718.5 532.1 L 721.9 513.4 L 725.3 494.6 L 728.7 475.9 L 732.0 457.0 L 735.4 438.2 L 738.8 419.2 L 742.2 400.3 L 745.5 381.3 L 748.9 362.3 L 752.3 343.2 L 755.7 324.1 L 759.1 305.0 L 762.4 285.8 L 765.8 266.6 L 769.2 247.4 L 772.6 228.1 L 776.0 208.8 L 779.3 189.5 L 782.7 170.2 L 786.1 150.8 L 789.5 131.4 L 792.9 111.9 L 796.2 92.5 L 799.6 73.0" fill="none" stroke="#FF69B4" stroke-linecap="round" stroke-linejoin="round" stroke-width="2.5" /><path d="M 803.0 813.5 L 806.4 793.9 L 809.8 774.3 L 813.1 754.7 L 816.5 735.1 L 819.9 715.4 L 823.3 695.8 L 826.6 676.1 L 830.0 656.3 L 833.4 636.6 L 836.8 616.8 L 840.2 597.0 L 843.5 577.1 L 846.9 557.3 L 850.3 537.4 L 853.7 517.5 L 857.1 497.5 L 860.4 477.6 L 863.8 457.6 L 867.2 437.6 L 870.6 417.6 L 874.0 397.5 L 877.3 377.4 L 880.7 357.3 L 884.1 337.2 L 887.5 317.1 L 890.9 296.9 L 894.2 276.7 L 897.6 256.5 L 901.0 236.3 L 904.4 216.1 L 907.7 195.8 L 911.1 175.5 L 914.5 155.2 L 917.9 134.9 L 921.3 114.6 L 924.6 94.2 L 928.0 73.8" fill="none" stroke="#FF69B4" stroke-linecap="round" stroke-linejoin="round" stroke-width="2.5" /><path d="M 931.4 813.5 L 934.8 793.0 L 938.2 772.6 L 941.5 752.2 L 944.9 731.7 L 948.3 711.2 L 951.7 690.7 L 955.1 670.1 L 958.4 649.6 L 961.8 629.0 L 965.2 608.4 L 968.6 587.8 L 972.0 567.2 L 975.3 546.6 L 978.7 525.9 L 982.1 505.3 L 985.5 484.6 L 988.8 463.9 L 992.2 443.2 L 995.6 422.5 L 999.0 401.7 L 1002.4 381.0 L 1005.7 360.2 L 1009.1 339.4 L 1012.5 318.6 L 1015.9 297.8 L 1019.3 277.0 L 1022.6 256.2 L 1026.0 235.3 L 1029.4 214.5 L 1032.8 193.6 L 1036.2 172.7 L 1039.5 151.8 L 1042.9 130.9 L 1046.3 110.0 L 1049.7 89.1 L 1053.0 68.1" fill="none" stroke="#FF69B4" stroke-linecap="round" stroke-linejoin="round" stroke-width="2.5" /><path d="M 1056.4 807.2 L 1059.8 786.2 L 1063.2 765.2 L 1066.6 744.2 L 1069.9 723.2 L 1073.3 702.2 L 1076.7 681.2 L 1080.1 660.2 L 1083.5 639.1 L 1086.8 618.1 L 1090.2 597.0 L 1093.6 576.0 L 1097.0 554.9 L 1100.4 533.8 L 1103.7 512.8 L 1107.1 491.7 L 1110.5 470.6 L 1113.9 449.5 L 1117.3 428.4 L 1120.6 407.2 L 1124.0 386.1 L 1127.4 365.0 L 1130.8 343.9 L 1134.1 322.7 L 1137.5 301.6 L 1140.9 280.4 L 1144.3 259.3 L 1147.7 238.1 L 1151.0 216.9 L 1154.4 195.8 L 1157.8 174.6 L 1161.2 153.4 L 1164.6 132.2 L 1167.9 111.0 L 1171.3 89.8 L 1174.7 68.6" fill="none" stroke="#FF69B4" stroke-linecap="round" stroke-linejoin="round" stroke-width="2.5" /><path d="M 1178.1 807.4 L 1181.5 786.2 L 1184.8 765.0 L 1188.2 743.8 L 1191.6 722.5 L 1195.0 701.3 L 1198.4 680.1 L 1201.7 658.9 L 1205.1 637.6 L 1208.5 616.4 L 1211.9 595.2 L 1215.2 573.9 L 1218.6 552.7 L 1222.0 531.5 L 1225.4 510.2 L 1228.8 489.0 L 1232.1 467.8 L 1235.5 446.5 L 1238.9 425.3 L 1242.3 404.0 L 1245.7 382.8 L 1249.0 361.5 L 1252.4 340.3 L 1255.8 319.0 L 1259.2 297.8 L 1262.6 276.5 L 1265.9 255.3 L 1269.3 234.0 L 1272.7 212.7 L 1276.1 191.5 L 1279.5 170.2 L 1282.8 149.0 L 1286.2 127.7 L 1289.6 106.4 L 1293.0 85.2 L 1296.3 63.9" fill="none" stroke="#FF69B4" stroke-linecap="round" stroke-linejoin="round" stroke-width="2.5" /><path d="M 1299.7 802.7 L 1303.1 781.4 L 1306.5 760.2 L 1309.9 738.9 L 1313.2 717.6 L 1316.6 696.4 L 1320.0 675.1" fill="none" stroke="#FF69B4" stroke-linecap="round" stroke-linejoin="round" stroke-width="2.5" /><path d="M 90.0 283.7 L 93.4 289.4 L 96.8 295.3 L 100.1 301.3 L 103.5 307.4 L 106.9 313.7 L 110.3 320.0 L 113.7 326.5 L 117.0 333.0 L 120.4 339.6 L 123.8 346.3 L 127.2 353.0 L 130.5 359.7 L 133.9 366.5 L 137.3 373.2 L 140.7 380.0 L 144.1 386.7 L 147.4 393.4 L 150.8 400.1 L 154.2 406.7 L 157.6 413.2 L 161.0 419.6 L 164.3 426.0 L 167.7 432.2 L 171.1 438.3 L 174.5 444.3 L 177.9 450.1 L 181.2 455.8 L 184.6 461.3 L 188.0 466.7 L 191.4 471.9 L 194.8 476.9 L 198.1 481.7 L 201.5 486.3 L 204.9 490.7 L 208.3 494.9 L 211.6 498.8 L 215.0 502.6 L 218.4 506.1 L 221.8 509.5 L 225.2 512.6 L 228.5 515.4 L 231.9 518.1 L 235.3 520.5 L 238.7 522.7 L 242.1 524.7 L 245.4 526.5 L 248.8 528.0 L 252.2 529.3 L 255.6 530.4 L 259.0 531.3 L 262.3 531.9 L 265.7 532.4 L 269.1 532.6 L 272.5 532.6 L 275.9 532.4 L 279.2 532.0 L 282.6 531.4 L 286.0 530.6 L 289.4 529.6 L 292.7 528.4 L 296.1 527.0 L 299.5 525.5 L 302.9 523.7 L 306.3 521.7 L 309.6 519.6 L 313.0 517.3 L 316.4 514.9 L 319.8 512.2 L 323.2 509.4 L 326.5 506.5 L 329.9 503.4 L 333.3 500.1 L 336.7 496.7 L 340.1 493.1 L 343.4 489.4 L 346.8 485.6 L 350.2 481.6 L 353.6 477.5 L 357.0 473.2 L 360.3 468.9 L 363.7 464.4 L 367.1 459.8 L 370.5 455.0 L 373.8 450.2 L 377.2 445.2 L 380.6 440.1 L 384.0 434.9 L 387.4 429.6 L 390.7 424.2 L 394.1 418.6 L 397.5 413.0 L 400.9 407.3 L 404.3 401.5 L 407.6 395.6 L 411.0 389.6 L 414.4 383.5 L 417.8 377.3 L 421.2 371.0 L 424.5 364.7 L 427.9 358.2 L 431.3 351.7 L 434.7 345.1 L 438.0 338.5 L 441.4 331.7 L 444.8 324.9 L 448.2 318.1 L 451.6 311.1 L 454.9 304.1 L 458.3 297.0 L 461.7 289.9 L 465.1 282.6 L 468.5 275.4 L 471.8 268.0 L 475.2 260.6 L 478.6 253.2 L 482.0 245.6 L 485.4 238.1 L 488.7 230.4 L 492.1 222.7 L 495.5 215.0 L 498.9 207.2 L 502.3 199.3 L 505.6 191.4 L 509.0 183.5 L 512.4 175.5 L 515.8 167.4 L 519.1 159.4 L 522.5 151.2 L 525.9 143.0 L 529.3 134.8 L 532.7 126.5 L 536.0 118.2 L 539.4 109.9 L 542.8 101.5 L 546.2 93.1 L 549.6 84.6 L 552.9 76.1 L 556.3 67.5" fill="none" stroke="#DC143C" stroke-linecap="round" stroke-linejoin="round" stroke-width="2.5" /><path d="M 559.7 819.0 L 563.1 810.3 L 566.5 801.7 L 569.8 793.0 L 573.2 784.3 L 576.6 775.5 L 580.0 766.7 L 583.4 757.9 L 586.7 749.0 L 590.1 740.1 L 593.5 731.1 L 596.9 722.2 L 600.2 713.2 L 603.6 704.1 L 607.0 695.1 L 610.4 686.0 L 613.8 676.9 L 617.1 667.7 L 620.5 658.6 L 623.9 649.4 L 627.3 640.1 L 630.7 630.9 L 634.0 621.6 L 637.4 612.3 L 640.8 602.9 L 644.2 593.6 L 647.6 584.2 L 650.9 574.8 L 654.3 565.3 L 657.7 555.9 L 661.1 546.4 L 664.5 536.9 L 667.8 527.3 L 671.2 517.7 L 674.6 508.2 L 678.0 498.5 L 681.3 488.9 L 684.7 479.2 L 688.1 469.5 L 691.5 459.8 L 694.9 450.1 L 698.2 440.3 L 701.6 430.6 L 705.0 420.8 L 708.4 411.0 L 711.8 401.1 L 715.1 391.2 L 718.5 381.4 L 721.9 371.5 L 725.3 361.5 L 728.7 351.6 L 732.0 341.6 L 735.4 331.6 L 738.8 321.6 L 742.2 311.6 L 745.5 301.5 L 748.9 291.5 L 752.3 281.4 L 755.7 271.3 L 759.1 261.2 L 762.4 251.0 L 765.8 240.8 L 769.2 230.7 L 772.6 220.4 L 776.0 210.2 L 779.3 200.0 L 782.7 189.7 L 786.1 179.4 L 789.5 169.1 L 792.9 158.8 L 796.2 148.4 L 799.6 138.1 L 803.0 127.7 L 806.4 117.3 L 809.8 106.9 L 813.1 96.4 L 816.5 86.0 L 819.9 75.5 L 823.3 65.0" fill="none" stroke="#DC143C" stroke-linecap="round" stroke-linejoin="round" stroke-width="2.5" /><path d="M 826.6 814.5 L 830.0 803.9 L 833.4 793.4 L 836.8 782.8 L 840.2 772.3 L 843.5 761.7 L 846.9 751.0 L 850.3 740.4 L 853.7 729.7 L 857.1 719.1 L 860.4 708.4 L 863.8 697.7 L 867.2 686.9 L 870.6 676.2 L 874.0 665.4 L 877.3 654.6 L 880.7 643.8 L 884.1 633.0 L 887.5 622.2 L 890.9 611.3 L 894.2 600.4 L 897.6 589.5 L 901.0 578.6 L 904.4 567.7 L 907.7 556.7 L 911.1 545.8 L 914.5 534.8 L 917.9 523.8 L 921.3 512.8 L 924.6 501.7 L 928.0 490.7 L 931.4 479.6 L 934.8 468.5 L 938.2 457.4 L 941.5 446.3 L 944.9 435.1 L 948.3 424.0 L 951.7 412.8 L 955.1 401.6 L 958.4 390.4 L 961.8 379.2 L 965.2 367.9 L 968.6 356.7 L 972.0 345.4 L 975.3 334.1 L 978.7 322.7 L 982.1 311.4 L 985.5 300.0 L 988.8 288.7 L 992.2 277.3 L 995.6 265.9 L 999.0 254.4 L 1002.4 243.0 L 1005.7 231.5 L 1009.1 220.0 L 1012.5 208.5 L 1015.9 197.0 L 1019.3 185.5 L 1022.6 173.9 L 1026.0 162.4 L 1029.4 150.8 L 1032.8 139.2 L 1036.2 127.6 L 1039.5 115.9 L 1042.9 104.3 L 1046.3 92.6 L 1049.7 80.9 L 1053.0 69.2" fill="none" stroke="#DC143C" stroke-linecap="round" stroke-linejoin="round" stroke-width="2.5" /><path d="M 1056.4 817.5 L 1059.8 805.7 L 1063.2 794.0 L 1066.6 782.2 L 1069.9 770.4 L 1073.3 758.6 L 1076.7 746.7 L 1080.1 734.9 L 1083.5 723.0 L 1086.8 711.1 L 1090.2 699.2 L 1093.6 687.3 L 1097.0 675.4 L 1100.4 663.4 L 1103.7 651.4 L 1107.1 639.5 L 1110.5 627.5 L 1113.9 615.4 L 1117.3 603.4 L 1120.6 591.3 L 1124.0 579.3 L 1127.4 567.2 L 1130.8 555.1 L 1134.1 543.0 L 1137.5 530.8 L 1140.9 518.7 L 1144.3 506.5 L 1147.7 494.3 L 1151.0 482.1 L 1154.4 469.9 L 1157.8 457.6 L 1161.2 445.4 L 1164.6 433.1 L 1167.9 420.8 L 1171.3 408.5 L 1174.7 396.2 L 1178.1 383.8 L 1181.5 371.5 L 1184.8 359.1 L 1188.2 346.7 L 1191.6 334.3 L 1195.0 321.9 L 1198.4 309.5 L 1201.7 297.0 L 1205.1 284.5 L 1208.5 272.1 L 1211.9 259.6 L 1215.2 247.1 L 1218.6 234.5 L 1222.0 222.0 L 1225.4 209.4 L 1228.8 196.9 L 1232.1 184.3 L 1235.5 171.7 L 1238.9 159.1 L 1242.3 146.5 L 1245.7 133.8 L 1249.0 121.2 L 1252.4 108.5 L 1255.8 95.8 L 1259.2 83.1 L 1262.6 70.4" fill="none" stroke="#DC143C" stroke-linecap="round" stroke-linejoin="round" stroke-width="2.5" /><path d="M 1265.9 817.6 L 1269.3 804.9 L 1272.7 792.1 L 1276.1 779.4 L 1279.5 766.6 L 1282.8 753.8 L 1286.2 741.0 L 1289.6 728.1 L 1293.0 715.3 L 1296.3 702.5 L 1299.7 689.6 L 1303.1 676.7 L 1306.5 663.8 L 1309.9 650.9 L 1313.2 638.0 L 1316.6 625.1 L 1320.0 612.2" fill="none" stroke="#DC143C" stroke-linecap="round" stroke-linejoin="round" stroke-width="2.5" /><path d="M 90.0 344.4 L 93.4 346.1 L 96.8 347.8 L 100.1 349.5 L 103.5 351.1 L 106.9 352.7 L 110.3 354.3 L 113.7 355.8 L 117.0 357.2 L 120.4 358.6 L 123.8 360.0 L 127.2 361.3 L 130.5 362.5 L 133.9 363.7 L 137.3 364.9 L 140.7 365.9 L 144.1 367.0 L 147.4 368.0 L 150.8 368.9 L 154.2 369.8 L 157.6 370.6 L 161.0 371.4 L 164.3 372.1 L 167.7 372.8 L 171.1 373.4 L 174.5 373.9 L 177.9 374.4 L 181.2 374.8 L 184.6 375.2 L 188.0 375.5 L 191.4 375.7 L 194.8 375.9 L 198.1 376.1 L 201.5 376.2 L 204.9 376.2 L 208.3 376.2 L 211.6 376.1 L 215.0 375.9 L 218.4 375.7 L 221.8 375.4 L 225.2 375.1 L 228.5 374.7 L 231.9 374.3 L 235.3 373.8 L 238.7 373.3 L 242.1 372.7 L 245.4 372.0 L 248.8 371.3 L 252.2 370.6 L 255.6 369.7 L 259.0 368.9 L 262.3 368.0 L 265.7 367.0 L 269.1 365.9 L 272.5 364.9 L 275.9 363.7 L 279.2 362.6 L 282.6 361.3 L 286.0 360.0 L 289.4 358.7 L 292.7 357.3 L 296.1 355.9 L 299.5 354.4 L 302.9 352.9 L 306.3 351.3 L 309.6 349.7 L 313.0 348.0 L 316.4 346.3 L 319.8 344.5 L 323.2 342.7 L 326.5 340.9 L 329.9 339.0 L 333.3 337.0 L 336.7 335.1 L 340.1 333.1 L 343.4 331.0 L 346.8 328.9 L 350.2 326.8 L 353.6 324.6 L 357.0 322.4 L 360.3 320.1 L 363.7 317.8 L 367.1 315.5 L 370.5 313.1 L 373.8 310.7 L 377.2 308.2 L 380.6 305.8 L 384.0 303.3 L 387.4 300.7 L 390.7 298.1 L 394.1 295.5 L 397.5 292.9 L 400.9 290.2 L 404.3 287.5 L 407.6 284.7 L 411.0 281.9 L 414.4 279.1 L 417.8 276.3 L 421.2 273.4 L 424.5 270.5 L 427.9 267.6 L 431.3 264.7 L 434.7 261.7 L 438.0 258.7 L 441.4 255.7 L 444.8 252.6 L 448.2 249.6 L 451.6 246.5 L 454.9 243.3 L 458.3 240.2 L 461.7 237.0 L 465.1 233.8 L 468.5 230.6 L 471.8 227.3 L 475.2 224.1 L 478.6 220.8 L 482.0 217.5 L 485.4 214.2 L 488.7 210.8 L 492.1 207.4 L 495.5 204.1 L 498.9 200.7 L 502.3 197.2 L 505.6 193.8 L 509.0 190.3 L 512.4 186.9 L 515.8 183.4 L 519.1 179.9 L 522.5 176.4 L 525.9 172.8 L 529.3 169.3 L 532.7 165.7 L 536.0 162.1 L 539.4 158.5 L 542.8 154.9 L 546.2 151.3 L 549.6 147.7 L 552.9 144.0 L 556.3 140.4 L 559.7 136.7 L 563.1 133.0 L 566.5 129.3 L 569.8 125.6 L 573.2 121.9 L 576.6 118.2 L 580.0 114.5 L 583.4 110.7 L 586.7 107.0 L 590.1 103.2 L 593.5 99.4 L 596.9 95.7 L 600.2 91.9 L 603.6 88.1 L 607.0 84.3 L 610.4 80.5 L 613.8 76.7 L 617.1 72.9 L 620.5 69.1 L 623.9 65.3 L 627.3 61.4" fill="none" stroke="#4169E1" stroke-linecap="round" stroke-linejoin="round" stroke-width="2.5" /><path d="M 630.7 817.6 L 634.0 813.8 L 637.4 809.9 L 640.8 806.1 L 644.2 802.3 L 647.6 798.4 L 650.9 794.6 L 654.3 790.7 L 657.7 786.9 L 661.1 783.0 L 664.5 779.1 L 667.8 775.3 L 671.2 771.4 L 674.6 767.6 L 678.0 763.7 L 681.3 759.9 L 684.7 756.0 L 688.1 752.1 L 691.5 748.3 L 694.9 744.4 L 698.2 740.6 L 701.6 736.7 L 705.0 732.9 L 708.4 729.1 L 711.8 725.2 L 715.1 721.4 L 718.5 717.5 L 721.9 713.7 L 725.3 709.9 L 728.7 706.1 L 732.0 702.3 L 735.4 698.5 L 738.8 694.7 L 742.2 690.9 L 745.5 687.1 L 748.9 683.3 L 752.3 679.5 L 755.7 675.8 L 759.1 672.0 L 762.4 668.3 L 765.8 664.5 L 769.2 660.8 L 772.6 657.1 L 776.0 653.3 L 779.3 649.6 L 782.7 645.9 L 786.1 642.2 L 789.5 638.6 L 792.9 634.9 L 796.2 631.3 L 799.6 627.6 L 803.0 624.0 L 806.4 620.4 L 809.8 616.8 L 813.1 613.2 L 816.5 609.6 L 819.9 606.1 L 823.3 602.5 L 826.6 599.0 L 830.0 595.5 L 833.4 592.0 L 836.8 588.5 L 840.2 585.0 L 843.5 581.6 L 846.9 578.1 L 850.3 574.7 L 853.7 571.3 L 857.1 567.9 L 860.4 564.6 L 863.8 561.2 L 867.2 557.9 L 870.6 554.6 L 874.0 551.3 L 877.3 548.0 L 880.7 544.8 L 884.1 541.6 L 887.5 538.4 L 890.9 535.2 L 894.2 532.1 L 897.6 528.9 L 901.0 525.8 L 904.4 522.7 L 907.7 519.7 L 911.1 516.6 L 914.5 513.6 L 917.9 510.7 L 921.3 507.7 L 924.6 504.8 L 928.0 501.9 L 931.4 499.0 L 934.8 496.2 L 938.2 493.3 L 941.5 490.6 L 944.9 487.8 L 948.3 485.1 L 951.7 482.4 L 955.1 479.7 L 958.4 477.1 L 961.8 474.5 L 965.2 471.9 L 968.6 469.3 L 972.0 466.8 L 975.3 464.4 L 978.7 461.9 L 982.1 459.5 L 985.5 457.2 L 988.8 454.8 L 992.2 452.5 L 995.6 450.3 L 999.0 448.1 L 1002.4 445.9 L 1005.7 443.8 L 1009.1 441.7 L 1012.5 439.6 L 1015.9 437.6 L 1019.3 435.6 L 1022.6 433.7 L 1026.0 431.8 L 1029.4 429.9 L 1032.8 428.1 L 1036.2 426.3 L 1039.5 424.6 L 1042.9 422.9 L 1046.3 421.3 L 1049.7 419.7 L 1053.0 418.1 L 1056.4 416.6 L 1059.8 415.2 L 1063.2 413.8 L 1066.6 412.4 L 1069.9 411.1 L 1073.3 409.8 L 1076.7 408.6 L 1080.1 407.5 L 1083.5 406.4 L 1086.8 405.3 L 1090.2 404.3 L 1093.6 403.3 L 1097.0 402.4 L 1100.4 401.6 L 1103.7 400.8 L 1107.1 400.0 L 1110.5 399.3 L 1113.9 398.7 L 1117.3 398.1 L 1120.6 397.6 L 1124.0 397.1 L 1127.4 396.6 L 1130.8 396.3 L 1134.1 396.0 L 1137.5 395.7 L 1140.9 395.5 L 1144.3 395.3 L 1147.7 395.2 L 1151.0 395.2 L 1154.4 395.2 L 1157.8 395.3 L 1161.2 395.4 L 1164.6 395.6 L 1167.9 395.9 L 1171.3 396.2 L 1174.7 396.5 L 1178.1 396.9 L 1181.5 397.4 L 1184.8 397.9 L 1188.2 398.5 L 1191.6 399.1 L 1195.0 399.8 L 1198.4 400.6 L 1201.7 401.4 L 1205.1 402.2 L 1208.5 403.1 L 1211.9 404.1 L 1215.2 405.1 L 1218.6 406.2 L 1222.0 407.3 L 1225.4 408.5 L 1228.8 409.7 L 1232.1 410.9 L 1235.5 412.3 L 1238.9 413.6 L 1242.3 415.0 L 1245.7 416.5 L 1249.0 418.0 L 1252.4 419.6 L 1255.8 421.1 L 1259.2 422.8 L 1262.6 424.5 L 1265.9 426.2 L 1269.3 427.9 L 1272.7 429.7 L 1276.1 431.6 L 1279.5 433.4 L 1282.8 435.4 L 1286.2 437.3 L 1289.6 439.3 L 1293.0 441.3 L 1296.3 443.3 L 1299.7 445.4 L 1303.1 447.4 L 1306.5 449.5 L 1309.9 451.7 L 1313.2 453.8 L 1316.6 456.0 L 1320.0 458.2" fill="none" stroke="#4169E1" stroke-linecap="round" stroke-linejoin="round" stroke-width="2.5" /><path d="M 90.0 320.7 L 93.4 319.4 L 96.8 318.1 L 100.1 316.8 L 103.5 315.4 L 106.9 314.0 L 110.3 312.6 L 113.7 311.2 L 117.0 309.7 L 120.4 308.3 L 123.8 306.8 L 127.2 305.3 L 130.5 303.7 L 133.9 302.2 L 137.3 300.6 L 140.7 299.0 L 144.1 297.4 L 147.4 295.8 L 150.8 294.2 L 154.2 292.5 L 157.6 290.9 L 161.0 289.2 L 164.3 287.5 L 167.7 285.8 L 171.1 284.0 L 174.5 282.3 L 177.9 280.5 L 181.2 278.7 L 184.6 276.9 L 188.0 275.1 L 191.4 273.3 L 194.8 271.5 L 198.1 269.6 L 201.5 267.8 L 204.9 265.9 L 208.3 264.0 L 211.6 262.1 L 215.0 260.2 L 218.4 258.3 L 221.8 256.4 L 225.2 254.5 L 228.5 252.5 L 231.9 250.6 L 235.3 248.6 L 238.7 246.6 L 242.1 244.7 L 245.4 242.7 L 248.8 240.7 L 252.2 238.7 L 255.6 236.7 L 259.0 234.6 L 262.3 232.6 L 265.7 230.6 L 269.1 228.5 L 272.5 226.5 L 275.9 224.5 L 279.2 222.4 L 282.6 220.3 L 286.0 218.3 L 289.4 216.2 L 292.7 214.2 L 296.1 212.1 L 299.5 210.0 L 302.9 207.9 L 306.3 205.9 L 309.6 203.8 L 313.0 201.7 L 316.4 199.6 L 319.8 197.5 L 323.2 195.4 L 326.5 193.3 L 329.9 191.3 L 333.3 189.2 L 336.7 187.1 L 340.1 185.0 L 343.4 182.9 L 346.8 180.9 L 350.2 178.8 L 353.6 176.7 L 357.0 174.6 L 360.3 172.6 L 363.7 170.5 L 367.1 168.4 L 370.5 166.4 L 373.8 164.3 L 377.2 162.2 L 380.6 160.2 L 384.0 158.2 L 387.4 156.1 L 390.7 154.1 L 394.1 152.1 L 397.5 150.0 L 400.9 148.0 L 404.3 146.0 L 407.6 144.0 L 411.0 142.0 L 414.4 140.0 L 417.8 138.1 L 421.2 136.1 L 424.5 134.1 L 427.9 132.2 L 431.3 130.2 L 434.7 128.3 L 438.0 126.4 L 441.4 124.5 L 444.8 122.6 L 448.2 120.7 L 451.6 118.8 L 454.9 116.9 L 458.3 115.1 L 461.7 113.2 L 465.1 111.4 L 468.5 109.6 L 471.8 107.8 L 475.2 106.0 L 478.6 104.2 L 482.0 102.4 L 485.4 100.7 L 488.7 98.9 L 492.1 97.2 L 495.5 95.5 L 498.9 93.8 L 502.3 92.1 L 505.6 90.4 L 509.0 88.8 L 512.4 87.2 L 515.8 85.5 L 519.1 83.9 L 522.5 82.4 L 525.9 80.8 L 529.3 79.3 L 532.7 77.7 L 536.0 76.2 L 539.4 74.7 L 542.8 73.2 L 546.2 71.8 L 549.6 70.3 L 552.9 68.9 L 556.3 67.5 L 559.7 66.1 L 563.1 64.8 L 566.5 63.4 L 569.8 62.1 L 573.2 60.8" fill="none" stroke="#2F4F4F" stroke-linecap="round" stroke-linejoin="round" stroke-width="2.5" /><path d="M 576.6 819.6 L 580.0 818.3 L 583.4 817.1 L 586.7 815.9 L 590.1 814.7 L 593.5 813.5 L 596.9 812.4 L 600.2 811.2 L 603.6 810.1 L 607.0 809.1 L 610.4 808.0 L 613.8 807.0 L 617.1 806.0 L 620.5 805.0 L 623.9 804.1 L 627.3 803.1 L 630.7 802.2 L 634.0 801.3 L 637.4 800.5 L 640.8 799.7 L 644.2 798.9 L 647.6 798.1 L 650.9 797.3 L 654.3 796.6 L 657.7 795.9 L 661.1 795.2 L 664.5 794.6 L 667.8 794.0 L 671.2 793.4 L 674.6 792.8 L 678.0 792.3 L 681.3 791.7 L 684.7 791.3 L 688.1 790.8 L 691.5 790.4 L 694.9 790.0 L 698.2 789.6 L 701.6 789.3 L 705.0 788.9 L 708.4 788.7 L 711.8 788.4 L 715.1 788.2 L 718.5 788.0 L 721.9 787.8 L 725.3 787.6 L 728.7 787.5 L 732.0 787.4 L 735.4 787.4 L 738.8 787.3 L 742.2 787.3 L 745.5 787.4 L 748.9 787.4 L 752.3 787.5 L 755.7 787.6 L 759.1 787.7 L 762.4 787.9 L 765.8 788.1 L 769.2 788.3 L 772.6 788.6 L 776.0 788.8 L 779.3 789.1 L 782.7 789.5 L 786.1 789.8 L 789.5 790.2 L 792.9 790.7 L 796.2 791.1 L 799.6 791.6 L 803.0 792.1 L 806.4 792.6 L 809.8 793.1 L 813.1 793.7 L 816.5 794.3 L 819.9 794.9 L 823.3 795.6 L 826.6 796.3 L 830.0 797.0 L 833.4 797.7 L 836.8 798.4 L 840.2 799.2 L 843.5 800.0 L 846.9 800.8 L 850.3 801.7 L 853.7 802.5 L 857.1 803.4 L 860.4 804.3 L 863.8 805.3 L 867.2 806.2 L 870.6 807.2 L 874.0 808.2 L 877.3 809.2 L 880.7 810.2 L 884.1 811.2 L 887.5 812.3 L 890.9 813.4 L 894.2 814.5 L 897.6 815.6 L 901.0 816.7 L 904.4 817.9 L 907.7 819.0" fill="none" stroke="#2F4F4F" stroke-linecap="round" stroke-linejoin="round" stroke-width="2.5" /><path d="M 911.1 60.2 L 914.5 61.4 L 917.9 62.6 L 921.3 63.8 L 924.6 65.0 L 928.0 66.2 L 931.4 67.5 L 934.8 68.7 L 938.2 70.0 L 941.5 71.2 L 944.9 72.5 L 948.3 73.8 L 951.7 75.1 L 955.1 76.4 L 958.4 77.7 L 961.8 79.0 L 965.2 80.3 L 968.6 81.6 L 972.0 82.9 L 975.3 84.2 L 978.7 85.5 L 982.1 86.8 L 985.5 88.1 L 988.8 89.4 L 992.2 90.8 L 995.6 92.1 L 999.0 93.4 L 1002.4 94.7 L 1005.7 95.9 L 1009.1 97.2 L 1012.5 98.5 L 1015.9 99.8 L 1019.3 101.0 L 1022.6 102.3 L 1026.0 103.5 L 1029.4 104.8 L 1032.8 106.0 L 1036.2 107.2 L 1039.5 108.4 L 1042.9 109.6 L 1046.3 110.8 L 1049.7 111.9 L 1053.0 113.1 L 1056.4 114.2 L 1059.8 115.3 L 1063.2 116.4 L 1066.6 117.5 L 1069.9 118.6 L 1073.3 119.6 L 1076.7 120.7 L 1080.1 121.7 L 1083.5 122.7 L 1086.8 123.6 L 1090.2 124.6 L 1093.6 125.5 L 1097.0 126.4 L 1100.4 127.3 L 1103.7 128.2 L 1107.1 129.0 L 1110.5 129.8 L 1113.9 130.6 L 1117.3 131.4 L 1120.6 132.1 L 1124.0 132.8 L 1127.4 133.5 L 1130.8 134.2 L 1134.1 134.8 L 1137.5 135.4 L 1140.9 136.0 L 1144.3 136.6 L 1147.7 137.1 L 1151.0 137.6 L 1154.4 138.1 L 1157.8 138.6 L 1161.2 139.0 L 1164.6 139.4 L 1167.9 139.7 L 1171.3 140.1 L 1174.7 140.4 L 1178.1 140.7 L 1181.5 140.9 L 1184.8 141.1 L 1188.2 141.3 L 1191.6 141.5 L 1195.0 141.6 L 1198.4 141.7 L 1201.7 141.7 L 1205.1 141.8 L 1208.5 141.8 L 1211.9 141.8 L 1215.2 141.7 L 1218.6 141.6 L 1222.0 141.5 L 1225.4 141.4 L 1228.8 141.2 L 1232.1 141.0 L 1235.5 140.7 L 1238.9 140.5 L 1242.3 140.2 L 1245.7 139.8 L 1249.0 139.5 L 1252.4 139.1 L 1255.8 138.7 L 1259.2 138.2 L 1262.6 137.7 L 1265.9 137.2 L 1269.3 136.7 L 1272.7 136.1 L 1276.1 135.5 L 1279.5 134.9 L 1282.8 134.3 L 1286.2 133.6 L 1289.6 132.9 L 1293.0 132.1 L 1296.3 131.4 L 1299.7 130.6 L 1303.1 129.7 L 1306.5 128.9 L 1309.9 128.0 L 1313.2 127.1 L 1316.6 126.2 L 1320.0 125.2" fill="none" stroke="#2F4F4F" stroke-linecap="round" stroke-linejoin="round" stroke-width="2.5" /><path d="M 90.0 674.4 L 93.4 674.8 L 96.8 675.1 L 100.1 675.5 L 103.5 675.9 L 106.9 676.2 L 110.3 676.6 L 113.7 676.9 L 117.0 677.2 L 120.4 677.5 L 123.8 677.8 L 127.2 678.0 L 130.5 678.3 L 133.9 678.5 L 137.3 678.8 L 140.7 679.0 L 144.1 679.2 L 147.4 679.4 L 150.8 679.5 L 154.2 679.7 L 157.6 679.8 L 161.0 680.0 L 164.3 680.1 L 167.7 680.2 L 171.1 680.3 L 174.5 680.3 L 177.9 680.4 L 181.2 680.4 L 184.6 680.5 L 188.0 680.5 L 191.4 680.5 L 194.8 680.4 L 198.1 680.4 L 201.5 680.4 L 204.9 680.3 L 208.3 680.2 L 211.6 680.1 L 215.0 680.0 L 218.4 679.9 L 221.8 679.7 L 225.2 679.6 L 228.5 679.4 L 231.9 679.2 L 235.3 679.0 L 238.7 678.8 L 242.1 678.6 L 245.4 678.4 L 248.8 678.1 L 252.2 677.8 L 255.6 677.6 L 259.0 677.3 L 262.3 676.9 L 265.7 676.6 L 269.1 676.3 L 272.5 675.9 L 275.9 675.5 L 279.2 675.2 L 282.6 674.8 L 286.0 674.4 L 289.4 673.9 L 292.7 673.5 L 296.1 673.0 L 299.5 672.6 L 302.9 672.1 L 306.3 671.6 L 309.6 671.1 L 313.0 670.6 L 316.4 670.1 L 319.8 669.5 L 323.2 669.0 L 326.5 668.4 L 329.9 667.8 L 333.3 667.3 L 336.7 666.7 L 340.1 666.0 L 343.4 665.4 L 346.8 664.8 L 350.2 664.1 L 353.6 663.5 L 357.0 662.8 L 360.3 662.1 L 363.7 661.5 L 367.1 660.8 L 370.5 660.1 L 373.8 659.3 L 377.2 658.6 L 380.6 657.9 L 384.0 657.1 L 387.4 656.4 L 390.7 655.6 L 394.1 654.8 L 397.5 654.1 L 400.9 653.3 L 404.3 652.5 L 407.6 651.7 L 411.0 650.8 L 414.4 650.0 L 417.8 649.2 L 421.2 648.3 L 424.5 647.5 L 427.9 646.6 L 431.3 645.8 L 434.7 644.9 L 438.0 644.1 L 441.4 643.2 L 444.8 642.3 L 448.2 641.4 L 451.6 640.5 L 454.9 639.6 L 458.3 638.7 L 461.7 637.8 L 465.1 636.9 L 468.5 635.9 L 471.8 635.0 L 475.2 634.1 L 478.6 633.1 L 482.0 632.2 L 485.4 631.2 L 488.7 630.3 L 492.1 629.3 L 495.5 628.4 L 498.9 627.4 L 502.3 626.5 L 505.6 625.5 L 509.0 624.5 L 512.4 623.6 L 515.8 622.6 L 519.1 621.6 L 522.5 620.6 L 525.9 619.7 L 529.3 618.7 L 532.7 617.7 L 536.0 616.7 L 539.4 615.7 L 542.8 614.8 L 546.2 613.8 L 549.6 612.8 L 552.9 611.8 L 556.3 610.8 L 559.7 609.8 L 563.1 608.9 L 566.5 607.9 L 569.8 606.9 L 573.2 605.9 L 576.6 604.9 L 580.0 604.0 L 583.4 603.0 L 586.7 602.0 L 590.1 601.0 L 593.5 600.1 L 596.9 599.1 L 600.2 598.1 L 603.6 597.2 L 607.0 596.2 L 610.4 595.2 L 613.8 594.3 L 617.1 593.3 L 620.5 592.4 L 623.9 591.4 L 627.3 590.5 L 630.7 589.6 L 634.0 588.6 L 637.4 587.7 L 640.8 586.8 L 644.2 585.9 L 647.6 585.0 L 650.9 584.1 L 654.3 583.2 L 657.7 582.3 L 661.1 581.4 L 664.5 580.5 L 667.8 579.6 L 671.2 578.7 L 674.6 577.9 L 678.0 577.0 L 681.3 576.2 L 684.7 575.3 L 688.1 574.5 L 691.5 573.6 L 694.9 572.8 L 698.2 572.0 L 701.6 571.2 L 705.0 570.4 L 708.4 569.6 L 711.8 568.8 L 715.1 568.1 L 718.5 567.3 L 721.9 566.5 L 725.3 565.8 L 728.7 565.0 L 732.0 564.3 L 735.4 563.6 L 738.8 562.9 L 742.2 562.2 L 745.5 561.5 L 748.9 560.8 L 752.3 560.1 L 755.7 559.5 L 759.1 558.8 L 762.4 558.2 L 765.8 557.5 L 769.2 556.9 L 772.6 556.3 L 776.0 555.7 L 779.3 555.1 L 782.7 554.6 L 786.1 554.0 L 789.5 553.4 L 792.9 552.9 L 796.2 552.4 L 799.6 551.9 L 803.0 551.4 L 806.4 550.9 L 809.8 550.4 L 813.1 549.9 L 816.5 549.5 L 819.9 549.0 L 823.3 548.6 L 826.6 548.2 L 830.0 547.8 L 833.4 547.4 L 836.8 547.0 L 840.2 546.6 L 843.5 546.3 L 846.9 545.9 L 850.3 545.6 L 853.7 545.3 L 857.1 545.0 L 860.4 544.7 L 863.8 544.4 L 867.2 544.2 L 870.6 543.9 L 874.0 543.7 L 877.3 543.5 L 880.7 543.3 L 884.1 543.1 L 887.5 542.9 L 890.9 542.8 L 894.2 542.6 L 897.6 542.5 L 901.0 542.4 L 904.4 542.3 L 907.7 542.2 L 911.1 542.1 L 914.5 542.0 L 917.9 542.0 L 921.3 542.0 L 924.6 541.9 L 928.0 541.9 L 931.4 542.0 L 934.8 542.0 L 938.2 542.0 L 941.5 542.1 L 944.9 542.1 L 948.3 542.2 L 951.7 542.3 L 955.1 542.4 L 958.4 542.6 L 961.8 542.7 L 965.2 542.8 L 968.6 543.0 L 972.0 543.2 L 975.3 543.4 L 978.7 543.6 L 982.1 543.8 L 985.5 544.1 L 988.8 544.3 L 992.2 544.6 L 995.6 544.8 L 999.0 545.1 L 1002.4 545.4 L 1005.7 545.7 L 1009.1 546.1 L 1012.5 546.4 L 1015.9 546.8 L 1019.3 547.1 L 1022.6 547.5 L 1026.0 547.9 L 1029.4 548.3 L 1032.8 548.7 L 1036.2 549.1 L 1039.5 549.6 L 1042.9 550.0 L 1046.3 550.5 L 1049.7 550.9 L 1053.0 551.4 L 1056.4 551.9 L 1059.8 552.4 L 1063.2 552.9 L 1066.6 553.4 L 1069.9 554.0 L 1073.3 554.5 L 1076.7 555.1 L 1080.1 555.6 L 1083.5 556.2 L 1086.8 556.8 L 1090.2 557.3 L 1093.6 557.9 L 1097.0 558.5 L 1100.4 559.1 L 1103.7 559.8 L 1107.1 560.4 L 1110.5 561.0 L 1113.9 561.7 L 1117.3 562.3 L 1120.6 562.9 L 1124.0 563.6 L 1127.4 564.3 L 1130.8 564.9 L 1134.1 565.6 L 1137.5 566.3 L 1140.9 566.9 L 1144.3 567.6 L 1147.7 568.3 L 1151.0 569.0 L 1154.4 569.7 L 1157.8 570.4 L 1161.2 571.1 L 1164.6 571.8 L 1167.9 572.5 L 1171.3 573.2 L 1174.7 573.9 L 1178.1 574.6 L 1181.5 575.3 L 1184.8 576.0 L 1188.2 576.7 L 1191.6 577.4 L 1195.0 578.1 L 1198.4 578.8 L 1201.7 579.5 L 1205.1 580.2 L 1208.5 580.9 L 1211.9 581.6 L 1215.2 582.3 L 1218.6 583.0 L 1222.0 583.7 L 1225.4 584.4 L 1228.8 585.1 L 1232.1 585.8 L 1235.5 586.4 L 1238.9 587.1 L 1242.3 587.8 L 1245.7 588.4 L 1249.0 589.1 L 1252.4 589.7 L 1255.8 590.4 L 1259.2 591.0 L 1262.6 591.7 L 1265.9 592.3 L 1269.3 592.9 L 1272.7 593.5 L 1276.1 594.1 L 1279.5 594.7 L 1282.8 595.3 L 1286.2 595.8 L 1289.6 596.4 L 1293.0 597.0 L 1296.3 597.5 L 1299.7 598.1 L 1303.1 598.6 L 1306.5 599.1 L 1309.9 599.6 L 1313.2 600.1 L 1316.6 600.6 L 1320.0 601.1" fill="none" stroke="#00CED1" stroke-linecap="round" stroke-linejoin="round" stroke-width="2.5" /><path d="M 90.0 105.5 L 93.4 105.3 L 96.8 105.0 L 100.1 104.8 L 103.5 104.5 L 106.9 104.2 L 110.3 103.9 L 113.7 103.6 L 117.0 103.3 L 120.4 103.0 L 123.8 102.7 L 127.2 102.4 L 130.5 102.0 L 133.9 101.7 L 137.3 101.3 L 140.7 101.0 L 144.1 100.6 L 147.4 100.2 L 150.8 99.8 L 154.2 99.4 L 157.6 99.0 L 161.0 98.6 L 164.3 98.2 L 167.7 97.8 L 171.1 97.3 L 174.5 96.9 L 177.9 96.4 L 181.2 96.0 L 184.6 95.5 L 188.0 95.0 L 191.4 94.6 L 194.8 94.1 L 198.1 93.6 L 201.5 93.1 L 204.9 92.6 L 208.3 92.1 L 211.6 91.6 L 215.0 91.0 L 218.4 90.5 L 221.8 90.0 L 225.2 89.4 L 228.5 88.9 L 231.9 88.4 L 235.3 87.8 L 238.7 87.3 L 242.1 86.7 L 245.4 86.1 L 248.8 85.6 L 252.2 85.0 L 255.6 84.4 L 259.0 83.8 L 262.3 83.2 L 265.7 82.6 L 269.1 82.0 L 272.5 81.4 L 275.9 80.8 L 279.2 80.2 L 282.6 79.6 L 286.0 79.0 L 289.4 78.4 L 292.7 77.8 L 296.1 77.2 L 299.5 76.5 L 302.9 75.9 L 306.3 75.3 L 309.6 74.7 L 313.0 74.0 L 316.4 73.4 L 319.8 72.8 L 323.2 72.1 L 326.5 71.5 L 329.9 70.9 L 333.3 70.2 L 336.7 69.6 L 340.1 68.9 L 343.4 68.3 L 346.8 67.7 L 350.2 67.0 L 353.6 66.4 L 357.0 65.7 L 360.3 65.1 L 363.7 64.5 L 367.1 63.8 L 370.5 63.2 L 373.8 62.5 L 377.2 61.9 L 380.6 61.3 L 384.0 60.6" fill="none" stroke="#7B68EE" stroke-linecap="round" stroke-linejoin="round" stroke-width="2.5" /><path d="M 387.4 820.0 L 390.7 819.4 L 394.1 818.7 L 397.5 818.1 L 400.9 817.5 L 404.3 816.9 L 407.6 816.2 L 411.0 815.6 L 414.4 815.0 L 417.8 814.4 L 421.2 813.8 L 424.5 813.2 L 427.9 812.5 L 431.3 811.9 L 434.7 811.3 L 438.0 810.7 L 441.4 810.2 L 444.8 809.6 L 448.2 809.0 L 451.6 808.4 L 454.9 807.8 L 458.3 807.2 L 461.7 806.7 L 465.1 806.1 L 468.5 805.5 L 471.8 805.0 L 475.2 804.4 L 478.6 803.9 L 482.0 803.3 L 485.4 802.8 L 488.7 802.3 L 492.1 801.8 L 495.5 801.2 L 498.9 800.7 L 502.3 800.2 L 505.6 799.7 L 509.0 799.2 L 512.4 798.7 L 515.8 798.2 L 519.1 797.7 L 522.5 797.3 L 525.9 796.8 L 529.3 796.4 L 532.7 795.9 L 536.0 795.4 L 539.4 795.0 L 542.8 794.6 L 546.2 794.1 L 549.6 793.7 L 552.9 793.3 L 556.3 792.9 L 559.7 792.5 L 563.1 792.1 L 566.5 791.7 L 569.8 791.4 L 573.2 791.0 L 576.6 790.6 L 580.0 790.3 L 583.4 789.9 L 586.7 789.6 L 590.1 789.3 L 593.5 789.0 L 596.9 788.6 L 600.2 788.3 L 603.6 788.0 L 607.0 787.8 L 610.4 787.5 L 613.8 787.2 L 617.1 787.0 L 620.5 786.7 L 623.9 786.5 L 627.3 786.2 L 630.7 786.0 L 634.0 785.8 L 637.4 785.6 L 640.8 785.4 L 644.2 785.2 L 647.6 785.0 L 650.9 784.8 L 654.3 784.7 L 657.7 784.5 L 661.1 784.4 L 664.5 784.2 L 667.8 784.1 L 671.2 784.0 L 674.6 783.9 L 678.0 783.8 L 681.3 783.7 L 684.7 783.6 L 688.1 783.5 L 691.5 783.4 L 694.9 783.4 L 698.2 783.3 L 701.6 783.3 L 705.0 783.3 L 708.4 783.3 L 711.8 783.3 L 715.1 783.3 L 718.5 783.3 L 721.9 783.3 L 725.3 783.3 L 728.7 783.4 L 732.0 783.4 L 735.4 783.5 L 738.8 783.5 L 742.2 783.6 L 745.5 783.7 L 748.9 783.8 L 752.3 783.9 L 755.7 784.0 L 759.1 784.1 L 762.4 784.2 L 765.8 784.4 L 769.2 784.5 L 772.6 784.6 L 776.0 784.8 L 779.3 785.0 L 782.7 785.2 L 786.1 785.3 L 789.5 785.5 L 792.9 785.7 L 796.2 785.9 L 799.6 786.2 L 803.0 786.4 L 806.4 786.6 L 809.8 786.9 L 813.1 787.1 L 816.5 787.4 L 819.9 787.6 L 823.3 787.9 L 826.6 788.2 L 830.0 788.5 L 833.4 788.8 L 836.8 789.1 L 840.2 789.4 L 843.5 789.7 L 846.9 790.0 L 850.3 790.3 L 853.7 790.7 L 857.1 791.0 L 860.4 791.4 L 863.8 791.7 L 867.2 792.1 L 870.6 792.4 L 874.0 792.8 L 877.3 793.2 L 880.7 793.6 L 884.1 794.0 L 887.5 794.3 L 890.9 794.7 L 894.2 795.1 L 897.6 795.6 L 901.0 796.0 L 904.4 796.4 L 907.7 796.8 L 911.1 797.2 L 914.5 797.6 L 917.9 798.1 L 921.3 798.5 L 924.6 798.9 L 928.0 799.4 L 931.4 799.8 L 934.8 800.3 L 938.2 800.7 L 941.5 801.2 L 944.9 801.6 L 948.3 802.1 L 951.7 802.5 L 955.1 803.0 L 958.4 803.5 L 961.8 803.9 L 965.2 804.4 L 968.6 804.8 L 972.0 805.3 L 975.3 805.8 L 978.7 806.3 L 982.1 806.7 L 985.5 807.2 L 988.8 807.7 L 992.2 808.1 L 995.6 808.6 L 999.0 809.1 L 1002.4 809.5 L 1005.7 810.0 L 1009.1 810.5 L 1012.5 810.9 L 1015.9 811.4 L 1019.3 811.8 L 1022.6 812.3 L 1026.0 812.8 L 1029.4 813.2 L 1032.8 813.7 L 1036.2 814.1 L 1039.5 814.6 L 1042.9 815.0 L 1046.3 815.4 L 1049.7 815.9 L 1053.0 816.3 L 1056.4 816.7 L 1059.8 817.2 L 1063.2 817.6 L 1066.6 818.0 L 1069.9 818.4 L 1073.3 818.8 L 1076.7 819.2 L 1080.1 819.6" fill="none" stroke="#7B68EE" stroke-linecap="round" stroke-linejoin="round" stroke-width="2.5" /><path d="M 1083.5 60.0 L 1086.8 60.4 L 1090.2 60.8 L 1093.6 61.2 L 1097.0 61.6 L 1100.4 61.9 L 1103.7 62.3 L 1107.1 62.7 L 1110.5 63.0 L 1113.9 63.3 L 1117.3 63.7 L 1120.6 64.0 L 1124.0 64.3 L 1127.4 64.7 L 1130.8 65.0 L 1134.1 65.3 L 1137.5 65.6 L 1140.9 65.9 L 1144.3 66.1 L 1147.7 66.4 L 1151.0 66.7 L 1154.4 66.9 L 1157.8 67.2 L 1161.2 67.4 L 1164.6 67.7 L 1167.9 67.9 L 1171.3 68.1 L 1174.7 68.3 L 1178.1 68.5 L 1181.5 68.7 L 1184.8 68.9 L 1188.2 69.1 L 1191.6 69.2 L 1195.0 69.4 L 1198.4 69.5 L 1201.7 69.7 L 1205.1 69.8 L 1208.5 69.9 L 1211.9 70.0 L 1215.2 70.1 L 1218.6 70.2 L 1222.0 70.3 L 1225.4 70.4 L 1228.8 70.4 L 1232.1 70.5 L 1235.5 70.5 L 1238.9 70.6 L 1242.3 70.6 L 1245.7 70.6 L 1249.0 70.6 L 1252.4 70.6 L 1255.8 70.6 L 1259.2 70.6 L 1262.6 70.5 L 1265.9 70.5 L 1269.3 70.4 L 1272.7 70.4 L 1276.1 70.3 L 1279.5 70.2 L 1282.8 70.1 L 1286.2 70.0 L 1289.6 69.9 L 1293.0 69.8 L 1296.3 69.6 L 1299.7 69.5 L 1303.1 69.3 L 1306.5 69.2 L 1309.9 69.0 L 1313.2 68.8 L 1316.6 68.6 L 1320.0 68.4" fill="none" stroke="#7B68EE" stroke-linecap="round" stroke-linejoin="round" stroke-width="2.5" /><path d="M 90.0 295.1 L 93.4 294.6 L 96.8 294.0 L 100.1 293.5 L 103.5 293.0 L 106.9 292.5 L 110.3 291.9 L 113.7 291.4 L 117.0 290.9 L 120.4 290.3 L 123.8 289.8 L 127.2 289.3 L 130.5 288.7 L 133.9 288.2 L 137.3 287.6 L 140.7 287.1 L 144.1 286.5 L 147.4 286.0 L 150.8 285.4 L 154.2 284.9 L 157.6 284.4 L 161.0 283.8 L 164.3 283.3 L 167.7 282.7 L 171.1 282.2 L 174.5 281.6 L 177.9 281.1 L 181.2 280.5 L 184.6 280.0 L 188.0 279.5 L 191.4 278.9 L 194.8 278.4 L 198.1 277.9 L 201.5 277.3 L 204.9 276.8 L 208.3 276.3 L 211.6 275.7 L 215.0 275.2 L 218.4 274.7 L 221.8 274.1 L 225.2 273.6 L 228.5 273.1 L 231.9 272.6 L 235.3 272.1 L 238.7 271.6 L 242.1 271.1 L 245.4 270.6 L 248.8 270.1 L 252.2 269.6 L 255.6 269.1 L 259.0 268.6 L 262.3 268.1 L 265.7 267.6 L 269.1 267.1 L 272.5 266.7 L 275.9 266.2 L 279.2 265.7 L 282.6 265.3 L 286.0 264.8 L 289.4 264.4 L 292.7 263.9 L 296.1 263.5 L 299.5 263.0 L 302.9 262.6 L 306.3 262.2 L 309.6 261.8 L 313.0 261.3 L 316.4 260.9 L 319.8 260.5 L 323.2 260.1 L 326.5 259.7 L 329.9 259.3 L 333.3 259.0 L 336.7 258.6 L 340.1 258.2 L 343.4 257.9 L 346.8 257.5 L 350.2 257.1 L 353.6 256.8 L 357.0 256.5 L 360.3 256.1 L 363.7 255.8 L 367.1 255.5 L 370.5 255.2 L 373.8 254.9 L 377.2 254.6 L 380.6 254.3 L 384.0 254.0 L 387.4 253.7 L 390.7 253.4 L 394.1 253.2 L 397.5 252.9 L 400.9 252.7 L 404.3 252.4 L 407.6 252.2 L 411.0 252.0 L 414.4 251.8 L 417.8 251.6 L 421.2 251.4 L 424.5 251.2 L 427.9 251.0 L 431.3 250.8 L 434.7 250.6 L 438.0 250.5 L 441.4 250.3 L 444.8 250.2 L 448.2 250.0 L 451.6 249.9 L 454.9 249.8 L 458.3 249.6 L 461.7 249.5 L 465.1 249.4 L 468.5 249.3 L 471.8 249.3 L 475.2 249.2 L 478.6 249.1 L 482.0 249.0 L 485.4 249.0 L 488.7 248.9 L 492.1 248.9 L 495.5 248.9 L 498.9 248.9 L 502.3 248.8 L 505.6 248.8 L 509.0 248.8 L 512.4 248.9 L 515.8 248.9 L 519.1 248.9 L 522.5 248.9 L 525.9 249.0 L 529.3 249.0 L 532.7 249.1 L 536.0 249.1 L 539.4 249.2 L 542.8 249.3 L 546.2 249.4 L 549.6 249.5 L 552.9 249.6 L 556.3 249.7 L 559.7 249.8 L 563.1 249.9 L 566.5 250.1 L 569.8 250.2 L 573.2 250.4 L 576.6 250.5 L 580.0 250.7 L 583.4 250.8 L 586.7 251.0 L 590.1 251.2 L 593.5 251.4 L 596.9 251.6 L 600.2 251.8 L 603.6 252.0 L 607.0 252.2 L 610.4 252.4 L 613.8 252.7 L 617.1 252.9 L 620.5 253.1 L 623.9 253.4 L 627.3 253.6 L 630.7 253.9 L 634.0 254.2 L 637.4 254.4 L 640.8 254.7 L 644.2 255.0 L 647.6 255.3 L 650.9 255.5 L 654.3 255.8 L 657.7 256.1 L 661.1 256.5 L 664.5 256.8 L 667.8 257.1 L 671.2 257.4 L 674.6 257.7 L 678.0 258.1 L 681.3 258.4 L 684.7 258.7 L 688.1 259.1 L 691.5 259.4 L 694.9 259.8 L 698.2 260.1 L 701.6 260.5 L 705.0 260.8 L 708.4 261.2 L 711.8 261.6 L 715.1 261.9 L 718.5 262.3 L 721.9 262.7 L 725.3 263.0 L 728.7 263.4 L 732.0 263.8 L 735.4 264.2 L 738.8 264.6 L 742.2 265.0 L 745.5 265.3 L 748.9 265.7 L 752.3 266.1 L 755.7 266.5 L 759.1 266.9 L 762.4 267.3 L 765.8 267.7 L 769.2 268.1 L 772.6 268.5 L 776.0 268.9 L 779.3 269.3 L 782.7 269.7 L 786.1 270.1 L 789.5 270.5 L 792.9 270.9 L 796.2 271.3 L 799.6 271.7 L 803.0 272.1 L 806.4 272.5 L 809.8 272.9 L 813.1 273.2 L 816.5 273.6 L 819.9 274.0 L 823.3 274.4 L 826.6 274.8 L 830.0 275.2 L 833.4 275.6 L 836.8 275.9 L 840.2 276.3 L 843.5 276.7 L 846.9 277.1 L 850.3 277.4 L 853.7 277.8 L 857.1 278.2 L 860.4 278.5 L 863.8 278.9 L 867.2 279.2 L 870.6 279.6 L 874.0 279.9 L 877.3 280.3 L 880.7 280.6 L 884.1 281.0 L 887.5 281.3 L 890.9 281.6 L 894.2 281.9 L 897.6 282.3 L 901.0 282.6 L 904.4 282.9 L 907.7 283.2 L 911.1 283.5 L 914.5 283.8 L 917.9 284.1 L 921.3 284.4 L 924.6 284.6 L 928.0 284.9 L 931.4 285.2 L 934.8 285.4 L 938.2 285.7 L 941.5 285.9 L 944.9 286.2 L 948.3 286.4 L 951.7 286.6 L 955.1 286.9 L 958.4 287.1 L 961.8 287.3 L 965.2 287.5 L 968.6 287.7 L 972.0 287.9 L 975.3 288.1 L 978.7 288.2 L 982.1 288.4 L 985.5 288.6 L 988.8 288.7 L 992.2 288.9 L 995.6 289.0 L 999.0 289.2 L 1002.4 289.3 L 1005.7 289.4 L 1009.1 289.5 L 1012.5 289.6 L 1015.9 289.7 L 1019.3 289.8 L 1022.6 289.9 L 1026.0 289.9 L 1029.4 290.0 L 1032.8 290.1 L 1036.2 290.1 L 1039.5 290.2 L 1042.9 290.2 L 1046.3 290.2 L 1049.7 290.2 L 1053.0 290.2 L 1056.4 290.2 L 1059.8 290.2 L 1063.2 290.2 L 1066.6 290.2 L 1069.9 290.2 L 1073.3 290.1 L 1076.7 290.1 L 1080.1 290.0 L 1083.5 290.0 L 1086.8 289.9 L 1090.2 289.8 L 1093.6 289.7 L 1097.0 289.6 L 1100.4 289.5 L 1103.7 289.4 L 1107.1 289.3 L 1110.5 289.2 L 1113.9 289.0 L 1117.3 288.9 L 1120.6 288.7 L 1124.0 288.6 L 1127.4 288.4 L 1130.8 288.2 L 1134.1 288.0 L 1137.5 287.8 L 1140.9 287.6 L 1144.3 287.4 L 1147.7 287.2 L 1151.0 287.0 L 1154.4 286.8 L 1157.8 286.5 L 1161.2 286.3 L 1164.6 286.0 L 1167.9 285.8 L 1171.3 285.5 L 1174.7 285.2 L 1178.1 284.9 L 1181.5 284.7 L 1184.8 284.4 L 1188.2 284.1 L 1191.6 283.7 L 1195.0 283.4 L 1198.4 283.1 L 1201.7 282.8 L 1205.1 282.4 L 1208.5 282.1 L 1211.9 281.7 L 1215.2 281.4 L 1218.6 281.0 L 1222.0 280.7 L 1225.4 280.3 L 1228.8 279.9 L 1232.1 279.5 L 1235.5 279.1 L 1238.9 278.7 L 1242.3 278.3 L 1245.7 277.9 L 1249.0 277.5 L 1252.4 277.1 L 1255.8 276.6 L 1259.2 276.2 L 1262.6 275.8 L 1265.9 275.3 L 1269.3 274.9 L 1272.7 274.4 L 1276.1 274.0 L 1279.5 273.5 L 1282.8 273.0 L 1286.2 272.6 L 1289.6 272.1 L 1293.0 271.6 L 1296.3 271.1 L 1299.7 270.7 L 1303.1 270.2 L 1306.5 269.7 L 1309.9 269.2 L 1313.2 268.7 L 1316.6 268.2 L 1320.0 267.7" fill="none" stroke="#8B0000" stroke-linecap="round" stroke-linejoin="round" stroke-width="2.5" /><circle cx="336.6758241758242" cy="658.1105022013297" fill="#FFA500" r="3" stroke="#FFA500" stroke-width="1.5" /><circle cx="414.3956043956044" cy="113.59833339028933" fill="none" r="3" stroke="#FFA500" stroke-width="1.5" /><circle cx="759.065934065934" cy="810.3481509341136" fill="#FFA500" r="3" stroke="#FFA500" stroke-width="1.5" /><circle cx="840.1648351648353" cy="241.5310198668518" fill="none" r="3" stroke="#FFA500" stroke-width="1.5" /><circle cx="1147.6648351648353" cy="451.4078057187132" fill="#FFA500" r="3" stroke="#FFA500" stroke-width="1.5" /><circle cx="1215.2472527472528" cy="722.7487942066091" fill="none" r="3" stroke="#FFA500" stroke-width="1.5" /><circle cx="292.74725274725273" cy="637.0743877799861" fill="#FF69B4" r="3" stroke="#FF69B4" stroke-width="1.5" /><circle cx="434.6703296703297" cy="150.7095651873181" fill="none" r="3" stroke="#FF69B4" stroke-width="1.5" /><circle cx="272.4725274725275" cy="532.6138631947153" fill="none" r="3" stroke="#DC143C" stroke-width="1.5" /><circle cx="204.8901098901099" cy="376.1874089438482" fill="none" r="3" stroke="#4169E1" stroke-width="1.5" /><circle cx="1154.423076923077" cy="395.21968089147776" fill="#4169E1" r="3" stroke="#4169E1" stroke-width="1.5" /><circle cx="742.1703296703297" cy="787.3313976712569" fill="#2F4F4F" r="3" stroke="#2F4F4F" stroke-width="1.5" /><circle cx="1208.489010989011" cy="141.78169594561388" fill="none" r="3" stroke="#2F4F4F" stroke-width="1.5" /><circle cx="191.37362637362637" cy="680.4675884892933" fill="none" r="3" stroke="#00CED1" stroke-width="1.5" /><circle cx="928.021978021978" cy="541.9467941221482" fill="#00CED1" r="3" stroke="#00CED1" stroke-width="1.5" /><circle cx="715.1373626373626" cy="783.2591664072334" fill="#7B68EE" r="3" stroke="#7B68EE" stroke-width="1.5" /><circle cx="1252.4175824175825" cy="70.59049353367777" fill="none" r="3" stroke="#7B68EE" stroke-width="1.5" /><circle cx="509.010989010989" cy="248.84295386763787" fill="#8B0000" r="3" stroke="#8B0000" stroke-width="1.5" /><circle cx="1056.4285714285716" cy="290.24516627086336" fill="none" r="3" stroke="#8B0000" stroke-width="1.5" /><text fill="#555555" font-family="&quot;Symbola&quot;, &quot;Noto Sans Symbols&quot;, &quot;Apple Symbols&quot;, &quot;Segoe UI Symbol&quot;, serif" font-size="14px" font-weight="bold" text-anchor="middle" x="225.16483516483515" y="706.7894553105509">☌</text><text fill="#555555" font-family="&quot;Symbola&quot;, &quot;Noto Sans Symbols&quot;, &quot;Apple Symbols&quot;, &quot;Segoe UI Symbol&quot;, serif" font-size="14px" font-weight="bold" text-anchor="middle" x="370.46703296703294" y="739.1305344133706">☌</text><text fill="#555555" font-family="&quot;Symbola&quot;, &quot;Noto Sans Symbols&quot;, &quot;Apple Symbols&quot;, &quot;Segoe UI Symbol&quot;, serif" font-size="14px" font-weight="bold" text-anchor="middle" x="593.4890109890109" y="414.04826833570917">☌</text><text fill="#555555" font-family="&quot;Symbola&quot;, &quot;Noto Sans Symbols&quot;, &quot;Apple Symbols&quot;, &quot;Segoe UI Symbol&quot;, serif" font-size="14px" font-weight="bold" text-anchor="middle" x="806.3736263736264" y="157.8752431221702">☌</text><text fill="#555555" font-family="&quot;Symbola&quot;, &quot;Noto Sans Symbols&quot;, &quot;Apple Symbols&quot;, &quot;Segoe UI Symbol&quot;, serif" font-size="14px" font-weight="bold" text-anchor="middle" x="951.6758241758241" y="217.724682746547">☌</text><text fill="#555555" font-family="&quot;Symbola&quot;, &quot;Noto Sans Symbols&quot;, &quot;Apple Symbols&quot;, &quot;Segoe UI Symbol&quot;, serif" font-size="14px" font-weight="bold" text-anchor="middle" x="1181.456043956044" y="598.389262280304">☌</text><text fill="#555555" font-family="&quot;Symbola&quot;, &quot;Noto Sans Symbols&quot;, &quot;Apple Symbols&quot;, &quot;Segoe UI Symbol&quot;, serif" font-size="14px" font-weight="bold" text-anchor="middle" x="363.7087912087912" y="772.6216328546807">☌</text><text fill="#555555" font-family="&quot;Symbola&quot;, &quot;Noto Sans Symbols&quot;, &quot;Apple Symbols&quot;, &quot;Segoe UI Symbol&quot;, serif" font-size="14px" font-weight="bold" text-anchor="middle" x="140.6868131868132" y="375.6357519085915">☍</text><text fill="#555555" font-family="&quot;Symbola&quot;, &quot;Noto Sans Symbols&quot;, &quot;Apple Symbols&quot;, &quot;Segoe UI Symbol&quot;, serif" font-size="14px" font-weight="bold" text-anchor="middle" x="461.7032967032967" y="290.8091379013423">□</text><text fill="#555555" font-family="&quot;Symbola&quot;, &quot;Noto Sans Symbols&quot;, &quot;Apple Symbols&quot;, &quot;Segoe UI Symbol&quot;, serif" font-size="14px" font-weight="bold" text-anchor="middle" x="296.1263736263736" y="349.4555984462385">□</text><text fill="#555555" font-family="&quot;Symbola&quot;, &quot;Noto Sans Symbols&quot;, &quot;Apple Symbols&quot;, &quot;Segoe UI Symbol&quot;, serif" font-size="14px" font-weight="bold" text-anchor="middle" x="681.3461538461538" y="754.274553393176">☌</text><text fill="#555555" font-family="&quot;Symbola&quot;, &quot;Noto Sans Symbols&quot;, &quot;Apple Symbols&quot;, &quot;Segoe UI Symbol&quot;, serif" font-size="14px" font-weight="bold" text-anchor="middle" x="1066.565934065934" y="413.37601180153604">□</text><text fill="#555555" font-family="&quot;Symbola&quot;, &quot;Noto Sans Symbols&quot;, &quot;Apple Symbols&quot;, &quot;Segoe UI Symbol&quot;, serif" font-size="14px" font-weight="bold" text-anchor="middle" x="326.53846153846155" y="197.41598567847288">☌</text><text fill="#555555" font-family="&quot;Symbola&quot;, &quot;Noto Sans Symbols&quot;, &quot;Apple Symbols&quot;, &quot;Segoe UI Symbol&quot;, serif" font-size="14px" font-weight="bold" text-anchor="middle" x="674.5879120879121" y="786.5134962549481">□</text><text fill="#555555" font-family="&quot;Symbola&quot;, &quot;Noto Sans Symbols&quot;, &quot;Apple Symbols&quot;, &quot;Segoe UI Symbol&quot;, serif" font-size="14px" font-weight="bold" text-anchor="middle" x="978.7087912087912" y="85.87788141646493">☍</text><text fill="#555555" font-family="&quot;Symbola&quot;, &quot;Noto Sans Symbols&quot;, &quot;Apple Symbols&quot;, &quot;Segoe UI Symbol&quot;, serif" font-size="14px" font-weight="bold" text-anchor="middle" x="1272.6923076923076" y="135.98357953686644">□</text><text fill="#555555" font-family="&quot;Symbola&quot;, &quot;Noto Sans Symbols&quot;, &quot;Apple Symbols&quot;, &quot;Segoe UI Symbol&quot;, serif" font-size="14px" font-weight="bold" text-anchor="middle" x="231.92307692307693" y="672.6343629531203">□</text><text fill="#555555" font-family="&quot;Symbola&quot;, &quot;Noto Sans Symbols&quot;, &quot;Apple Symbols&quot;, &quot;Segoe UI Symbol&quot;, serif" font-size="14px" font-weight="bold" text-anchor="middle" x="552.9395604395604" y="608.8665873223883">☌</text><text fill="#555555" font-family="&quot;Symbola&quot;, &quot;Noto Sans Symbols&quot;, &quot;Apple Symbols&quot;, &quot;Segoe UI Symbol&quot;, serif" font-size="14px" font-weight="bold" text-anchor="middle" x="884.0934065934066" y="544.9064046809447">□</text><text fill="#555555" font-family="&quot;Symbola&quot;, &quot;Noto Sans Symbols&quot;, &quot;Apple Symbols&quot;, &quot;Segoe UI Symbol&quot;, serif" font-size="14px" font-weight="bold" text-anchor="middle" x="1188.2142857142858" y="564.2660781227919">☍</text><text fill="#555555" font-family="&quot;Symbola&quot;, &quot;Noto Sans Symbols&quot;, &quot;Apple Symbols&quot;, &quot;Segoe UI Symbol&quot;, serif" font-size="14px" font-weight="bold" text-anchor="middle" x="674.5879120879121" y="786.5134962549481">□</text><text fill="#555555" font-family="&quot;Symbola&quot;, &quot;Noto Sans Symbols&quot;, &quot;Apple Symbols&quot;, &quot;Segoe UI Symbol&quot;, serif" font-size="14px" font-weight="bold" text-anchor="middle" x="988.8461538461538" y="796.2803044377245">☍</text><text fill="#555555" font-family="&quot;Symbola&quot;, &quot;Noto Sans Symbols&quot;, &quot;Apple Symbols&quot;, &quot;Segoe UI Symbol&quot;, serif" font-size="14px" font-weight="bold" text-anchor="middle" x="1286.2087912087911" y="67.1874556620722">□</text><text fill="#555555" font-family="&quot;Symbola&quot;, &quot;Noto Sans Symbols&quot;, &quot;Apple Symbols&quot;, &quot;Segoe UI Symbol&quot;, serif" font-size="14px" font-weight="bold" text-anchor="middle" x="160.96153846153845" y="272.5077442587078">☌</text><text fill="#555555" font-family="&quot;Symbola&quot;, &quot;Noto Sans Symbols&quot;, &quot;Apple Symbols&quot;, &quot;Segoe UI Symbol&quot;, serif" font-size="14px" font-weight="bold" text-anchor="middle" x="471.84065934065933" y="241.40186746749688">□</text><text fill="#555555" font-family="&quot;Symbola&quot;, &quot;Noto Sans Symbols&quot;, &quot;Apple Symbols&quot;, &quot;Segoe UI Symbol&quot;, serif" font-size="14px" font-weight="bold" text-anchor="middle" x="782.7197802197802" y="270.92414824981154">☍</text><text fill="#555555" font-family="&quot;Symbola&quot;, &quot;Noto Sans Symbols&quot;, &quot;Apple Symbols&quot;, &quot;Segoe UI Symbol&quot;, serif" font-size="14px" font-weight="bold" text-anchor="middle" x="1093.598901098901" y="278.9611466810661">□</text><text fill="#555555" font-family="&quot;Symbola&quot;, &quot;Noto Sans Symbols&quot;, &quot;Apple Symbols&quot;, &quot;Segoe UI Symbol&quot;, serif" font-size="14px" font-weight="bold" text-anchor="middle" x="326.53846153846155" y="672.4583670105727">☌</text><text fill="#555555" font-family="&quot;Symbola&quot;, &quot;Noto Sans Symbols&quot;, &quot;Apple Symbols&quot;, &quot;Segoe UI Symbol&quot;, serif" font-size="14px" font-weight="bold" text-anchor="middle" x="1198.3516483516485" y="700.0532651798532">☌</text><text fill="#555555" font-family="&quot;Symbola&quot;, &quot;Noto Sans Symbols&quot;, &quot;Apple Symbols&quot;, &quot;Segoe UI Symbol&quot;, serif" font-size="14px" font-weight="bold" text-anchor="middle" x="167.7197802197802" y="416.35430617756793">☍</text><text fill="#555555" font-family="&quot;Symbola&quot;, &quot;Noto Sans Symbols&quot;, &quot;Apple Symbols&quot;, &quot;Segoe UI Symbol&quot;, serif" font-size="14px" font-weight="bold" text-anchor="middle" x="552.9395604395604" y="73.61311974419884">□</text><text fill="#555555" font-family="&quot;Symbola&quot;, &quot;Noto Sans Symbols&quot;, &quot;Apple Symbols&quot;, &quot;Segoe UI Symbol&quot;, serif" font-size="14px" font-weight="bold" text-anchor="middle" x="1076.7032967032967" y="749.5853145787769">☌</text><text fill="#555555" font-family="&quot;Symbola&quot;, &quot;Noto Sans Symbols&quot;, &quot;Apple Symbols&quot;, &quot;Segoe UI Symbol&quot;, serif" font-size="14px" font-weight="bold" text-anchor="middle" x="1157.8021978021977" y="474.1178770943264">☌</text><text fill="#555555" font-family="&quot;Symbola&quot;, &quot;Noto Sans Symbols&quot;, &quot;Apple Symbols&quot;, &quot;Segoe UI Symbol&quot;, serif" font-size="14px" font-weight="bold" text-anchor="middle" x="262.33516483516485" y="352.967488637365">□</text><text fill="#555555" font-family="&quot;Symbola&quot;, &quot;Noto Sans Symbols&quot;, &quot;Apple Symbols&quot;, &quot;Segoe UI Symbol&quot;, serif" font-size="14px" font-weight="bold" text-anchor="middle" x="1015.8791208791208" y="427.2387379395747">□</text><text fill="#555555" font-family="&quot;Symbola&quot;, &quot;Noto Sans Symbols&quot;, &quot;Apple Symbols&quot;, &quot;Segoe UI Symbol&quot;, serif" font-size="14px" font-weight="bold" text-anchor="middle" x="279.2307692307693" y="199.58170825209186">☌</text><text fill="#555555" font-family="&quot;Symbola&quot;, &quot;Noto Sans Symbols&quot;, &quot;Apple Symbols&quot;, &quot;Segoe UI Symbol&quot;, serif" font-size="14px" font-weight="bold" text-anchor="middle" x="1316.6208791208792" y="126.30365922765458">□</text><text fill="#555555" font-family="&quot;Symbola&quot;, &quot;Noto Sans Symbols&quot;, &quot;Apple Symbols&quot;, &quot;Segoe UI Symbol&quot;, serif" font-size="14px" font-weight="bold" text-anchor="middle" x="228.54395604395606" y="663.6868351336204">□</text><text fill="#555555" font-family="&quot;Symbola&quot;, &quot;Noto Sans Symbols&quot;, &quot;Apple Symbols&quot;, &quot;Segoe UI Symbol&quot;, serif" font-size="14px" font-weight="bold" text-anchor="middle" x="576.5934065934066" y="591.2921173338792">☌</text><text fill="#555555" font-family="&quot;Symbola&quot;, &quot;Noto Sans Symbols&quot;, &quot;Apple Symbols&quot;, &quot;Segoe UI Symbol&quot;, serif" font-size="14px" font-weight="bold" text-anchor="middle" x="917.8846153846155" y="541.1474652524691">□</text><text fill="#555555" font-family="&quot;Symbola&quot;, &quot;Noto Sans Symbols&quot;, &quot;Apple Symbols&quot;, &quot;Segoe UI Symbol&quot;, serif" font-size="14px" font-weight="bold" text-anchor="middle" x="1110.4945054945056" y="554.2279425603602">☍</text><text fill="#555555" font-family="&quot;Symbola&quot;, &quot;Noto Sans Symbols&quot;, &quot;Apple Symbols&quot;, &quot;Segoe UI Symbol&quot;, serif" font-size="14px" font-weight="bold" text-anchor="middle" x="1178.076923076923" y="579.8374181155813">☍</text><text fill="#555555" font-family="&quot;Symbola&quot;, &quot;Noto Sans Symbols&quot;, &quot;Apple Symbols&quot;, &quot;Segoe UI Symbol&quot;, serif" font-size="14px" font-weight="bold" text-anchor="middle" x="1252.4175824175825" y="580.8271127888801">☍</text><text fill="#555555" font-family="&quot;Symbola&quot;, &quot;Noto Sans Symbols&quot;, &quot;Apple Symbols&quot;, &quot;Segoe UI Symbol&quot;, serif" font-size="14px" font-weight="bold" text-anchor="middle" x="110.27472527472527" y="87.41264404264861">□</text><text fill="#555555" font-family="&quot;Symbola&quot;, &quot;Noto Sans Symbols&quot;, &quot;Apple Symbols&quot;, &quot;Segoe UI Symbol&quot;, serif" font-size="14px" font-weight="bold" text-anchor="middle" x="448.1868131868132" y="810.0748051270642">☌</text><text fill="#555555" font-family="&quot;Symbola&quot;, &quot;Noto Sans Symbols&quot;, &quot;Apple Symbols&quot;, &quot;Segoe UI Symbol&quot;, serif" font-size="14px" font-weight="bold" text-anchor="middle" x="630.6593406593406" y="772.8355846561436">□</text><text fill="#555555" font-family="&quot;Symbola&quot;, &quot;Noto Sans Symbols&quot;, &quot;Apple Symbols&quot;, &quot;Segoe UI Symbol&quot;, serif" font-size="14px" font-weight="bold" text-anchor="middle" x="971.9505494505495" y="792.5849987253057">☍</text><text fill="#555555" font-family="&quot;Symbola&quot;, &quot;Noto Sans Symbols&quot;, &quot;Apple Symbols&quot;, &quot;Segoe UI Symbol&quot;, serif" font-size="14px" font-weight="bold" text-anchor="middle" x="184.61538461538464" y="280.3430874516416">☌</text><text fill="#555555" font-family="&quot;Symbola&quot;, &quot;Noto Sans Symbols&quot;, &quot;Apple Symbols&quot;, &quot;Segoe UI Symbol&quot;, serif" font-size="14px" font-weight="bold" text-anchor="middle" x="536.0439560439561" y="230.9394961896158">□</text><text fill="#555555" font-family="&quot;Symbola&quot;, &quot;Noto Sans Symbols&quot;, &quot;Apple Symbols&quot;, &quot;Segoe UI Symbol&quot;, serif" font-size="14px" font-weight="bold" text-anchor="middle" x="694.8626373626373" y="261.3002050197256">☍</text><text fill="#555555" font-family="&quot;Symbola&quot;, &quot;Noto Sans Symbols&quot;, &quot;Apple Symbols&quot;, &quot;Segoe UI Symbol&quot;, serif" font-size="14px" font-weight="bold" text-anchor="middle" x="1036.1538461538462" y="272.7137759251539">□</text><text fill="#555555" font-family="&quot;Symbola&quot;, &quot;Noto Sans Symbols&quot;, &quot;Apple Symbols&quot;, &quot;Segoe UI Symbol&quot;, serif" font-size="14px" font-weight="bold" text-anchor="middle" x="775.9615384615385" y="213.8492131667715">□</text><text fill="#555555" font-family="&quot;Symbola&quot;, &quot;Noto Sans Symbols&quot;, &quot;Apple Symbols&quot;, &quot;Segoe UI Symbol&quot;, serif" font-size="14px" font-weight="bold" text-anchor="middle" x="137.30769230769232" y="357.8847967963534">□</text><text fill="#555555" font-family="&quot;Symbola&quot;, &quot;Noto Sans Symbols&quot;, &quot;Apple Symbols&quot;, &quot;Segoe UI Symbol&quot;, serif" font-size="14px" font-weight="bold" text-anchor="middle" x="843.5439560439561" y="582.1298908273178">☌</text><text fill="#555555" font-family="&quot;Symbola&quot;, &quot;Noto Sans Symbols&quot;, &quot;Apple Symbols&quot;, &quot;Segoe UI Symbol&quot;, serif" font-size="14px" font-weight="bold" text-anchor="middle" x="1124.010989010989" y="391.1235466172466">□</text><text fill="#555555" font-family="&quot;Symbola&quot;, &quot;Noto Sans Symbols&quot;, &quot;Apple Symbols&quot;, &quot;Segoe UI Symbol&quot;, serif" font-size="14px" font-weight="bold" text-anchor="middle" x="150.82417582417582" y="292.8778309191414">☌</text><text fill="#555555" font-family="&quot;Symbola&quot;, &quot;Noto Sans Symbols&quot;, &quot;Apple Symbols&quot;, &quot;Segoe UI Symbol&quot;, serif" font-size="14px" font-weight="bold" text-anchor="middle" x="414.3956043956044" y="145.2692821054468">☌</text><text fill="#555555" font-family="&quot;Symbola&quot;, &quot;Noto Sans Symbols&quot;, &quot;Apple Symbols&quot;, &quot;Segoe UI Symbol&quot;, serif" font-size="14px" font-weight="bold" text-anchor="middle" x="475.2197802197802" y="108.34425116664072">☌</text><text fill="#555555" font-family="&quot;Symbola&quot;, &quot;Noto Sans Symbols&quot;, &quot;Apple Symbols&quot;, &quot;Segoe UI Symbol&quot;, serif" font-size="14px" font-weight="bold" text-anchor="middle" x="809.7527472527473" y="779.326134250984">□</text><text fill="#555555" font-family="&quot;Symbola&quot;, &quot;Noto Sans Symbols&quot;, &quot;Apple Symbols&quot;, &quot;Segoe UI Symbol&quot;, serif" font-size="14px" font-weight="bold" text-anchor="middle" x="1046.2912087912086" y="115.00946290248297">☍</text><text fill="#555555" font-family="&quot;Symbola&quot;, &quot;Noto Sans Symbols&quot;, &quot;Apple Symbols&quot;, &quot;Segoe UI Symbol&quot;, serif" font-size="14px" font-weight="bold" text-anchor="middle" x="1286.2087912087911" y="132.70663409465274">□</text><text fill="#555555" font-family="&quot;Symbola&quot;, &quot;Noto Sans Symbols&quot;, &quot;Apple Symbols&quot;, &quot;Segoe UI Symbol&quot;, serif" font-size="14px" font-weight="bold" text-anchor="middle" x="715.1373626373626" y="555.767257999891">☌</text><text fill="#555555" font-family="&quot;Symbola&quot;, &quot;Noto Sans Symbols&quot;, &quot;Apple Symbols&quot;, &quot;Segoe UI Symbol&quot;, serif" font-size="14px" font-weight="bold" text-anchor="middle" x="978.7087912087912" y="530.9455916664886">□</text><text fill="#555555" font-family="&quot;Symbola&quot;, &quot;Noto Sans Symbols&quot;, &quot;Apple Symbols&quot;, &quot;Segoe UI Symbol&quot;, serif" font-size="14px" font-weight="bold" text-anchor="middle" x="1215.2472527472528" y="578.9450046833682">☍</text><text fill="#555555" font-family="&quot;Symbola&quot;, &quot;Noto Sans Symbols&quot;, &quot;Apple Symbols&quot;, &quot;Segoe UI Symbol&quot;, serif" font-size="14px" font-weight="bold" text-anchor="middle" x="198.13186813186815" y="88.35386225308986">☌</text><text fill="#555555" font-family="&quot;Symbola&quot;, &quot;Noto Sans Symbols&quot;, &quot;Apple Symbols&quot;, &quot;Segoe UI Symbol&quot;, serif" font-size="14px" font-weight="bold" text-anchor="middle" x="380.6043956043956" y="76.07020151015216">☌</text><text fill="#555555" font-family="&quot;Symbola&quot;, &quot;Noto Sans Symbols&quot;, &quot;Apple Symbols&quot;, &quot;Segoe UI Symbol&quot;, serif" font-size="14px" font-weight="bold" text-anchor="middle" x="502.2527472527472" y="797.5651020212076">☌</text><text fill="#555555" font-family="&quot;Symbola&quot;, &quot;Noto Sans Symbols&quot;, &quot;Apple Symbols&quot;, &quot;Segoe UI Symbol&quot;, serif" font-size="14px" font-weight="bold" text-anchor="middle" x="809.7527472527473" y="779.326134250984">□</text><text fill="#555555" font-family="&quot;Symbola&quot;, &quot;Noto Sans Symbols&quot;, &quot;Apple Symbols&quot;, &quot;Segoe UI Symbol&quot;, serif" font-size="14px" font-weight="bold" text-anchor="middle" x="1296.3461538461538" y="68.92636686711515">□</text><text fill="#555555" font-family="&quot;Symbola&quot;, &quot;Noto Sans Symbols&quot;, &quot;Apple Symbols&quot;, &quot;Segoe UI Symbol&quot;, serif" font-size="14px" font-weight="bold" text-anchor="middle" x="630.6593406593406" y="245.3836571630262">□</text><text fill="#555555" font-family="&quot;Symbola&quot;, &quot;Noto Sans Symbols&quot;, &quot;Apple Symbols&quot;, &quot;Segoe UI Symbol&quot;, serif" font-size="14px" font-weight="bold" text-anchor="middle" x="894.2307692307693" y="281.73340149936473">☍</text><text fill="#555555" font-family="&quot;Symbola&quot;, &quot;Noto Sans Symbols&quot;, &quot;Apple Symbols&quot;, &quot;Segoe UI Symbol&quot;, serif" font-size="14px" font-weight="bold" text-anchor="middle" x="1140.9065934065934" y="285.4250899966686">□</text><text fill="#555555" font-family="&quot;Symbola&quot;, &quot;Noto Sans Symbols&quot;, &quot;Apple Symbols&quot;, &quot;Segoe UI Symbol&quot;, serif" font-size="14px" font-weight="bold" text-anchor="middle" x="924.6428571428572" y="506.72052616220896">□</text><text fill="#555555" font-family="&quot;Symbola&quot;, &quot;Noto Sans Symbols&quot;, &quot;Apple Symbols&quot;, &quot;Segoe UI Symbol&quot;, serif" font-size="14px" font-weight="bold" text-anchor="middle" x="833.4065934065934" y="798.3985696493314">☍</text><text fill="#555555" font-family="&quot;Symbola&quot;, &quot;Noto Sans Symbols&quot;, &quot;Apple Symbols&quot;, &quot;Segoe UI Symbol&quot;, serif" font-size="14px" font-weight="bold" text-anchor="middle" x="1245.6593406593406" y="138.8080196221531">□</text><text fill="#555555" font-family="&quot;Symbola&quot;, &quot;Noto Sans Symbols&quot;, &quot;Apple Symbols&quot;, &quot;Segoe UI Symbol&quot;, serif" font-size="14px" font-weight="bold" text-anchor="middle" x="647.554945054945" y="589.1784975398826">□</text><text fill="#555555" font-family="&quot;Symbola&quot;, &quot;Noto Sans Symbols&quot;, &quot;Apple Symbols&quot;, &quot;Segoe UI Symbol&quot;, serif" font-size="14px" font-weight="bold" text-anchor="middle" x="1130.7692307692307" y="560.0771478781628">☍</text><text fill="#555555" font-family="&quot;Symbola&quot;, &quot;Noto Sans Symbols&quot;, &quot;Apple Symbols&quot;, &quot;Segoe UI Symbol&quot;, serif" font-size="14px" font-weight="bold" text-anchor="middle" x="836.7857142857142" y="787.8340891293366">☍</text><text fill="#555555" font-family="&quot;Symbola&quot;, &quot;Noto Sans Symbols&quot;, &quot;Apple Symbols&quot;, &quot;Segoe UI Symbol&quot;, serif" font-size="14px" font-weight="bold" text-anchor="middle" x="1262.5549450549452" y="75.37581473402874">□</text><text fill="#555555" font-family="&quot;Symbola&quot;, &quot;Noto Sans Symbols&quot;, &quot;Apple Symbols&quot;, &quot;Segoe UI Symbol&quot;, serif" font-size="14px" font-weight="bold" text-anchor="middle" x="96.75824175824175" y="300.290306990511">☍</text><text fill="#555555" font-family="&quot;Symbola&quot;, &quot;Noto Sans Symbols&quot;, &quot;Apple Symbols&quot;, &quot;Segoe UI Symbol&quot;, serif" font-size="14px" font-weight="bold" text-anchor="middle" x="481.97802197802196" y="250.64515115536432">☍</text><text fill="#555555" font-family="&quot;Symbola&quot;, &quot;Noto Sans Symbols&quot;, &quot;Apple Symbols&quot;, &quot;Segoe UI Symbol&quot;, serif" font-size="14px" font-weight="bold" text-anchor="middle" x="988.8461538461538" y="293.6644064966203">□</text><text fill="#555555" font-family="&quot;Symbola&quot;, &quot;Noto Sans Symbols&quot;, &quot;Apple Symbols&quot;, &quot;Segoe UI Symbol&quot;, serif" font-size="14px" font-weight="bold" text-anchor="middle" x="650.9340659340659" y="799.560947987588">□</text><text fill="#555555" font-family="&quot;Symbola&quot;, &quot;Noto Sans Symbols&quot;, &quot;Apple Symbols&quot;, &quot;Segoe UI Symbol&quot;, serif" font-size="14px" font-weight="bold" text-anchor="middle" x="661.0714285714286" y="788.003078841818">□</text><text fill="#333333" font-family="&quot;Symbola&quot;, &quot;Noto Sans Symbols&quot;, &quot;Apple Symbols&quot;, &quot;Segoe UI Symbol&quot;, &quot;Arial&quot;, sans-serif" font-size="10px" text-anchor="end" x="45" y="109.51900981654592">27°♓</text><text fill="#7B68EE" font-family="&quot;Symbola&quot;, &quot;Noto Sans Symbols&quot;, &quot;Apple Symbols&quot;, &quot;Segoe UI Symbol&quot;, serif" font-size="14px" text-anchor="end" x="82" y="110.51900981654592">♆</text><text fill="#333333" font-family="&quot;Symbola&quot;, &quot;Noto Sans Symbols&quot;, &quot;Apple Symbols&quot;, &quot;Segoe UI Symbol&quot;, &quot;Arial&quot;, sans-serif" font-size="10px" text-anchor="end" x="45" y="224.1677522589484">20°♐</text><text fill="#FFA500" font-family="&quot;Symbola&quot;, &quot;Noto Sans Symbols&quot;, &quot;Apple Symbols&quot;, &quot;Segoe UI Symbol&quot;, serif" font-size="14px" text-anchor="end" x="82" y="225.1677522589484">☿</text><text fill="#333333" font-family="&quot;Symbola&quot;, &quot;Noto Sans Symbols&quot;, &quot;Apple Symbols&quot;, &quot;Segoe UI Symbol&quot;, &quot;Arial&quot;, sans-serif" font-size="10px" text-anchor="end" x="45" y="287.7323126733429">1°♌</text><text fill="#DC143C" font-family="&quot;Symbola&quot;, &quot;Noto Sans Symbols&quot;, &quot;Apple Symbols&quot;, &quot;Segoe UI Symbol&quot;, serif" font-size="14px" text-anchor="end" x="82" y="288.7323126733429">♂</text><text fill="#333333" font-family="&quot;Symbola&quot;, &quot;Noto Sans Symbols&quot;, &quot;Apple Symbols&quot;, &quot;Segoe UI Symbol&quot;, &quot;Arial&quot;, sans-serif" font-size="10px" text-anchor="end" x="45" y="301.7323126733429">1°♒</text><text fill="#8B0000" font-family="&quot;Symbola&quot;, &quot;Noto Sans Symbols&quot;, &quot;Apple Symbols&quot;, &quot;Segoe UI Symbol&quot;, serif" font-size="14px" text-anchor="end" x="82" y="302.7323126733429">♇</text><text fill="#333333" font-family="&quot;Symbola&quot;, &quot;Noto Sans Symbols&quot;, &quot;Apple Symbols&quot;, &quot;Segoe UI Symbol&quot;, &quot;Arial&quot;, sans-serif" font-size="10px" text-anchor="end" x="45" y="324.7298375640017">14°♓</text><text fill="#2F4F4F" font-family="&quot;Symbola&quot;, &quot;Noto Sans Symbols&quot;, &quot;Apple Symbols&quot;, &quot;Segoe UI Symbol&quot;, serif" font-size="14px" text-anchor="end" x="82" y="325.7298375640017">♄</text><text fill="#333333" font-family="&quot;Symbola&quot;, &quot;Noto Sans Symbols&quot;, &quot;Apple Symbols&quot;, &quot;Segoe UI Symbol&quot;, &quot;Arial&quot;, sans-serif" font-size="10px" text-anchor="end" x="45" y="348.36630560375073">13°♊</text><text fill="#4169E1" font-family="&quot;Symbola&quot;, &quot;Noto Sans Symbols&quot;, &quot;Apple Symbols&quot;, &quot;Segoe UI Symbol&quot;, serif" font-size="14px" text-anchor="end" x="82" y="349.36630560375073">♃</text><text fill="#333333" font-family="&quot;Symbola&quot;, &quot;Noto Sans Symbols&quot;, &quot;Apple Symbols&quot;, &quot;Segoe UI Symbol&quot;, &quot;Arial&quot;, sans-serif" font-size="10px" text-anchor="end" x="45" y="600.2508242169146">28°♒</text><text fill="#FF69B4" font-family="&quot;Symbola&quot;, &quot;Noto Sans Symbols&quot;, &quot;Apple Symbols&quot;, &quot;Segoe UI Symbol&quot;, serif" font-size="14px" text-anchor="end" x="82" y="601.2508242169146">♀</text><text fill="#333333" font-family="&quot;Symbola&quot;, &quot;Noto Sans Symbols&quot;, &quot;Apple Symbols&quot;, &quot;Segoe UI Symbol&quot;, &quot;Arial&quot;, sans-serif" font-size="10px" text-anchor="end" x="45" y="632.7597804227788">11°♑</text><text fill="#FFD700" font-family="&quot;Symbola&quot;, &quot;Noto Sans Symbols&quot;, &quot;Apple Symbols&quot;, &quot;Segoe UI Symbol&quot;, serif" font-size="14px" text-anchor="end" x="82" y="633.7597804227788">☉</text><text fill="#333333" font-family="&quot;Symbola&quot;, &quot;Noto Sans Symbols&quot;, &quot;Apple Symbols&quot;, &quot;Segoe UI Symbol&quot;, &quot;Arial&quot;, sans-serif" font-size="10px" text-anchor="end" x="45" y="678.3548311614367">23°♉</text><text fill="#00CED1" font-family="&quot;Symbola&quot;, &quot;Noto Sans Symbols&quot;, &quot;Apple Symbols&quot;, &quot;Segoe UI Symbol&quot;, serif" font-size="14px" text-anchor="end" x="82" y="679.3548311614367">♅</text><text fill="#7B68EE" font-family="&quot;Symbola&quot;, &quot;Noto Sans Symbols&quot;, &quot;Apple Symbols&quot;, &quot;Segoe UI Symbol&quot;, serif" font-size="14px" text-anchor="start" x="1328" y="73.43250464151886">♆</text><text fill="#333333" font-family="&quot;Symbola&quot;, &quot;Noto Sans Symbols&quot;, &quot;Apple Symbols&quot;, &quot;Segoe UI Symbol&quot;, &quot;Arial&quot;, sans-serif" font-size="10px" text-anchor="start" x="1348" y="72.43250464151886">29°♓</text><text fill="#FFA500" font-family="&quot;Symbola&quot;, &quot;Noto Sans Symbols&quot;, &quot;Apple Symbols&quot;, &quot;Segoe UI Symbol&quot;, serif" font-size="14px" text-anchor="start" x="1328" y="100.64147082220109">☿</text><text fill="#333333" font-family="&quot;Symbola&quot;, &quot;Noto Sans Symbols&quot;, &quot;Apple Symbols&quot;, &quot;Segoe UI Symbol&quot;, &quot;Arial&quot;, sans-serif" font-size="10px" text-anchor="start" x="1348" y="99.64147082220109">27°♐</text><text fill="#2F4F4F" font-family="&quot;Symbola&quot;, &quot;Noto Sans Symbols&quot;, &quot;Apple Symbols&quot;, &quot;Segoe UI Symbol&quot;, serif" font-size="14px" text-anchor="start" x="1328" y="130.2202742278882">♄</text><text fill="#333333" font-family="&quot;Symbola&quot;, &quot;Noto Sans Symbols&quot;, &quot;Apple Symbols&quot;, &quot;Segoe UI Symbol&quot;, &quot;Arial&quot;, sans-serif" font-size="10px" text-anchor="start" x="1348" y="129.2202742278882">26°♓</text><text fill="#8B0000" font-family="&quot;Symbola&quot;, &quot;Noto Sans Symbols&quot;, &quot;Apple Symbols&quot;, &quot;Segoe UI Symbol&quot;, serif" font-size="14px" text-anchor="start" x="1328" y="272.6729831502921">♇</text><text fill="#333333" font-family="&quot;Symbola&quot;, &quot;Noto Sans Symbols&quot;, &quot;Apple Symbols&quot;, &quot;Segoe UI Symbol&quot;, &quot;Arial&quot;, sans-serif" font-size="10px" text-anchor="start" x="1348" y="271.6729831502921">2°♒</text><text fill="#4169E1" font-family="&quot;Symbola&quot;, &quot;Noto Sans Symbols&quot;, &quot;Apple Symbols&quot;, &quot;Segoe UI Symbol&quot;, serif" font-size="14px" text-anchor="start" x="1328" y="463.1934017058114">♃</text><text fill="#333333" font-family="&quot;Symbola&quot;, &quot;Noto Sans Symbols&quot;, &quot;Apple Symbols&quot;, &quot;Segoe UI Symbol&quot;, &quot;Arial&quot;, sans-serif" font-size="10px" text-anchor="start" x="1348" y="462.1934017058114">21°♋</text><text fill="#00CED1" font-family="&quot;Symbola&quot;, &quot;Noto Sans Symbols&quot;, &quot;Apple Symbols&quot;, &quot;Segoe UI Symbol&quot;, serif" font-size="14px" text-anchor="start" x="1328" y="606.0683769474255">♅</text><text fill="#333333" font-family="&quot;Symbola&quot;, &quot;Noto Sans Symbols&quot;, &quot;Apple Symbols&quot;, &quot;Segoe UI Symbol&quot;, &quot;Arial&quot;, sans-serif" font-size="10px" text-anchor="start" x="1348" y="605.0683769474255">27°♉</text><text fill="#DC143C" font-family="&quot;Symbola&quot;, &quot;Noto Sans Symbols&quot;, &quot;Apple Symbols&quot;, &quot;Segoe UI Symbol&quot;, serif" font-size="14px" text-anchor="start" x="1328" y="620.0683769474255">♂</text><text fill="#333333" font-family="&quot;Symbola&quot;, &quot;Noto Sans Symbols&quot;, &quot;Apple Symbols&quot;, &quot;Segoe UI Symbol&quot;, &quot;Arial&quot;, sans-serif" font-size="10px" text-anchor="start" x="1348" y="619.0683769474255">12°♑</text><text fill="#FFD700" font-family="&quot;Symbola&quot;, &quot;Noto Sans Symbols&quot;, &quot;Apple Symbols&quot;, &quot;Segoe UI Symbol&quot;, serif" font-size="14px" text-anchor="start" x="1328" y="655.112103843011">☉</text><text fill="#333333" font-family="&quot;Symbola&quot;, &quot;Noto Sans Symbols&quot;, &quot;Apple Symbols&quot;, &quot;Segoe UI Symbol&quot;, &quot;Arial&quot;, sans-serif" font-size="10px" text-anchor="start" x="1348" y="654.112103843011">10°♑</text><text fill="#FF69B4" font-family="&quot;Symbola&quot;, &quot;Noto Sans Symbols&quot;, &quot;Apple Symbols&quot;, &quot;Segoe UI Symbol&quot;, serif" font-size="14px" text-anchor="start" x="1328" y="680.1386277076367">♀</text><text fill="#333333" font-family="&quot;Symbola&quot;, &quot;Noto Sans Symbols&quot;, &quot;Apple Symbols&quot;, &quot;Segoe UI Symbol&quot;, &quot;Arial&quot;, sans-serif" font-size="10px" text-anchor="start" x="1348" y="679.1386277076367">8°♑</text><circle cx="1200" cy="875" fill="#666666" r="3" stroke="#666666" stroke-width="1.5" /><text fill="#333333" font-family="Arial, sans-serif" font-size="10px" x="1210" y="879">Rx Station</text><circle cx="1280" cy="875" fill="none" r="3" stroke="#666666" stroke-width="1.5" /><text fill="#333333" font-family="Arial, sans-serif" font-size="10px" x="1290" y="879">Direct Station</text><text fill="#333333" font-family="Arial, sans-serif" font-size="18px" font-weight="bold" text-anchor="middle" x="700.0" y="30">Graphic Ephemeris 2025 (45° Harmonic)</text></svg>