<?xml version="1.0" encoding="utf-8" ?>
<svg baseProfile="full" height="900px" version="1.1" viewBox="0 0 1400 900" width="1400px" xmlns="http://www.w3.org/2000/svg" xmlns:ev="http://www.w3.org/2001/xml-events" xmlns:xlink="http://www.w3.org/1999/xlink"><defs /><rect fill="#FFFFFF" height="900" width="1400" x="0" y="0" /><line stroke="#D0D0D0" stroke-width="1.0" x1="90" x2="1320" y1="820.0" y2="820.0" /><line stroke="#D0D0D0" stroke-width="1.0" x1="90" x2="1320" y1="756.6666666666666" y2="756.6666666666666" /><line stroke="#D0D0D0" stroke-width="1.0" x1="90" x2="1320" y1="693.3333333333334" y2="693.3333333333334" /><line stroke="#D0D0D0" stroke-width="1.0" x1="90" x2="1320" y1="630.0" y2="630.0" /><line stroke="#D0D0D0" stroke-width="1.0" x1="90" x2="1320" y1="566.6666666666667" y2="566.6666666666667" /><line stroke="#D0D0D0" stroke-width="1.0" x1="90" x2="1320" y1="503.33333333333326" y2="503.33333333333326" /><line stroke="#D0D0D0" stroke-width="1.0" x1="90" x2="1320" y1="440.0" y2="440.0" /><line stroke="#D0D0D0" stroke-width="1.0" x1="90" x2="1320" y1="376.66666666666663" y2="376.66666666666663" /><line stroke="#D0D0D0" stroke-width="1.0" x1="90" x2="1320" y1="313.33333333333337" y2="313.33333333333337" /><line stroke="#D0D0D0" stroke-width="1.0" x1="90" x2="1320" y1="250.0" y2="250.0" /><line stroke="#D0D0D0" stroke-width="1.0" x1="90" x2="1320" y1="186.66666666666663" y2="186.66666666666663" /><line stroke="#D0D0D0" stroke-width="1.0" x1="90" x2="1320" y1="123.33333333333337" y2="123.33333333333337" /><line stroke="#D0D0D0" stroke-width="1.0" x1="90" x2="1320" y1="60.0" y2="60.0" /><line stroke="#D0D0D0" stroke-width="1.0" x1="90.0" x2="90.0" y1="60" y2="820" /><line stroke="#E8E8E8" stroke-width="0.5" x1="194.75274725274727" x2="194.75274725274727" y1="60" y2="820" /><line stroke="#E8E8E8" stroke-width="0.5" x1="289.36813186813185" x2="289.36813186813185" y1="60" y2="820" /><line stroke="#E8E8E8" stroke-width="0.5" x1="394.1208791208791" x2="394.1208791208791" y1="60" y2="820" /><line stroke="#E8E8E8" stroke-width="0.5" x1="495.49450549450546" x2="495.49450549450546" y1="60" y2="820" /><line stroke="#E8E8E8" stroke-width="0.5" x1="600.2472527472528" x2="600.2472527472528" y1="60" y2="820" /><line stroke="#E8E8E8" stroke-width="0.5" x1="701.6208791208792" x2="701.6208791208792" y1="60" y2="820" /><line stroke="#E8E8E8" stroke-width="0.5" x1="806.3736263736264" x2="806.3736263736264" y1="60" y2="820" /><line stroke="#E8E8E8" stroke-width="0.5" x1="911.1263736263736" x2="911.1263736263736" y1="60" y2="820" /><line stroke="#E8E8E8" stroke-width="0.5" x1="1012.5" x2="1012.5" y1="60" y2="820" /><line stroke="#E8E8E8" stroke-width="0.5" x1="1117.2527472527472" x2="1117.2527472527472" y1="60" y2="820" /><line stroke="#E8E8E8" stroke-width="0.5" x1="1218.6263736263736" x2="1218.6263736263736" y1="60" y2="820" /><text fill="#333333" font-family="&quot;Arial&quot;, &quot;Helvetica&quot;, sans-serif" font-size="11px" text-anchor="end" x="75" y="824.0">0° ♈</text><text fill="#333333" font-family="&quot;Arial&quot;, &quot;Helvetica&quot;, sans-serif" font-size="11px" text-anchor="end" x="75" y="760.6666666666666">0° ♉</text><text fill="#333333" font-family="&quot;Arial&quot;, &quot;Helvetica&quot;, sans-serif" font-size="11px" text-anchor="end" x="75" y="697.3333333333334">0° ♊</text><text fill="#333333" font-family="&quot;Arial&quot;, &quot;Helvetica&quot;, sans-serif" font-size="11px" text-anchor="end" x="75" y="634.0">0° ♋</text><text fill="#333333" font-family="&quot;Arial&quot;, &quot;Helvetica&quot;, sans-serif" font-size="11px" text-anchor="end" x="75" y="570.6666666666667">0° ♌</text><text fill="#333333" font-family="&quot;Arial&quot;, &quot;Helvetica&quot;, sans-serif" font-size="11px" text-anchor="end" x="75" y="507.33333333333326">0° ♍</text><text fill="#333333" font-family="&quot;Arial&quot;, &quot;Helvetica&quot;, sans-serif" font-size="11px" text-anchor="end" x="75" y="444.0">0° ♎</text><text fill="#333333" font-family="&quot;Arial&quot;, &quot;Helvetica&quot;, sans-serif" font-size="11px" text-anchor="end" x="75" y="380.66666666666663">0° ♏</text><text fill="#333333" font-family="&quot;Arial&quot;, &quot;Helvetica&quot;, sans-serif" font-size="11px" text-anchor="end" x="75" y="317.33333333333337">0° ♐</text><text fill="#333333" font-family="&quot;Arial&quot;, &quot;Helvetica&quot;, sans-serif" font-size="11px" text-anchor="end" x="75" y="254.0">0° ♑</text><text fill="#333333" font-family="&quot;Arial&quot;, &quot;Helvetica&quot;, sans-serif" font-size="11px" text-anchor="end" x="75" y="190.66666666666663">0° ♒</text><text fill="#333333" font-family="&quot;Arial&quot;, &quot;Helvetica&quot;, sans-serif" font-size="11px" text-anchor="end" x="75" y="127.33333333333337">0° ♓</text><text fill="#333333" font-family="&quot;Arial&quot;, &quot;Helvetica&quot;, sans-serif" font-size="11px" text-anchor="end" x="75" y="64.0">0° ♈</text><text fill="#333333" font-family="Arial, sans-serif" font-size="10px" text-anchor="middle" x="90.0" y="840">Jan</text><text fill="#333333" font-family="Arial, sans-serif" font-size="12px" font-weight="bold" text-anchor="middle" x="90.0" y="855">2025</text><text fill="#333333" font-family="Arial, sans-serif" font-size="10px" text-anchor="middle" x="194.75274725274727" y="840">Feb</text><text fill="#333333" font-family="Arial, sans-serif" font-size="10px" text-anchor="middle" x="289.36813186813185" y="840">Mar</text><text fill="#333333" font-family="Arial, sans-serif" font-size="10px" text-anchor="middle" x="394.1208791208791" y="840">Apr</text><text fill="#333333" font-family="Arial, sans-serif" font-size="10px" text-anchor="middle" x="495.49450549450546" y="840">May</text><text fill="#333333" font-family="Arial, sans-serif" font-size="10px" text-anchor="middle" x="600.2472527472528" y="840">Jun</text><text fill="#333333" font-family="Arial, sans-serif" font-size="10px" text-anchor="middle" x="701.6208791208792" y="840">Jul</text><text fill="#333333" font-family="Arial, sans-serif" font-size="10px" text-anchor="middle" x="806.3736263736264" y="840">Aug</text><text fill="#333333" font-family="Arial, sans-serif" font-size="10px" text-anchor="middle" x="911.1263736263736" y="840">Sep</text><text fill="#333333" font-family="Arial, sans-serif" font-size="10px" text-anchor="middle" x="1012.5" y="840">Oct</text><text fill="#333333" font-family="Arial, sans-serif" font-size="10px" text-anchor="middle" x="1117.2527472527472" y="840">Nov</text><text fill="#333333" font-family="Arial, sans-serif" font-size="10px" text-anchor="middle" x="1218.6263736263736" y="840">Dec</text><path d="M 90.0 226.1 L 93.4 223.9 L 96.8 221.8 L 100.1 219.6 L 103.5 217.5 L 106.9 215.3 L 110.3 213.2 L 113.7 211.0 L 117.0 208.9 L 120.4 206.7 L 123.8 204.6 L 127.2 202.4 L 130.5 200.3 L 133.9 198.1 L 137.3 196.0 L 140.7 193.8 L 144.1 191.7 L 147.4 189.5 L 150.8 187.4 L 154.2 185.2 L 157.6 183.1 L 161.0 180.9 L 164.3 178.8 L 167.7 176.6 L 171.1 174.5 L 174.5 172.3 L 177.9 170.2 L 181.2 168.1 L 184.6 165.9 L 188.0 163.8 L 191.4 161.6 L 194.8 159.5 L 198.1 157.3 L 201.5 155.2 L 204.9 153.1 L 208.3 150.9 L 211.6 148.8 L 215.0 146.6 L 218.4 144.5 L 221.8 142.4 L 225.2 140.2 L 228.5 138.1 L 231.9 136.0 L 235.3 133.8 L 238.7 131.7 L 242.1 129.6 L 245.4 127.4 L 248.8 125.3 L 252.2 123.2 L 255.6 121.0 L 259.0 118.9 L 262.3 116.8 L 265.7 114.7 L 269.1 112.5 L 272.5 110.4 L 275.9 108.3 L 279.2 106.2 L 282.6 104.0 L 286.0 101.9 L 289.4 99.8 L 292.7 97.7 L 296.1 95.6 L 299.5 93.4 L 302.9 91.3 L 306.3 89.2 L 309.6 87.1 L 313.0 85.0 L 316.4 82.9 L 319.8 80.8 L 323.2 78.7 L 326.5 76.6 L 329.9 74.4 L 333.3 72.3 L 336.7 70.2 L 340.1 68.1 L 343.4 66.0 L 346.8 63.9 L 350.2 61.8" fill="none" stroke="#FFD700" stroke-linecap="round" stroke-linejoin="round" stroke-width="2.5" /><path d="M 353.6 819.7 L 357.0 817.6 L 360.3 815.5 L 363.7 813.5 L 367.1 811.4 L 370.5 809.3 L 373.8 807.2 L 377.2 805.1 L 380.6 803.0 L 384.0 800.9 L 387.4 798.8 L 390.7 796.7 L 394.1 794.6 L 397.5 792.6 L 400.9 790.5 L 404.3 788.4 L 407.6 786.3 L 411.0 784.2 L 414.4 782.2 L 417.8 780.1 L 421.2 778.0 L 424.5 775.9 L 427.9 773.9 L 431.3 771.8 L 434.7 769.7 L 438.0 767.7 L 441.4 765.6 L 444.8 763.5 L 448.2 761.5 L 451.6 759.4 L 454.9 757.3 L 458.3 755.3 L 461.7 753.2 L 465.1 751.2 L 468.5 749.1 L 471.8 747.1 L 475.2 745.0 L 478.6 742.9 L 482.0 740.9 L 485.4 738.8 L 488.7 736.8 L 492.1 734.7 L 495.5 732.7 L 498.9 730.6 L 502.3 728.6 L 505.6 726.5 L 509.0 724.5 L 512.4 722.4 L 515.8 720.4 L 519.1 718.4 L 522.5 716.3 L 525.9 714.3 L 529.3 712.2 L 532.7 710.2 L 536.0 708.2 L 539.4 706.1 L 542.8 704.1 L 546.2 702.1 L 549.6 700.0 L 552.9 698.0 L 556.3 696.0 L 559.7 693.9 L 563.1 691.9 L 566.5 689.9 L 569.8 687.8 L 573.2 685.8 L 576.6 683.8 L 580.0 681.7 L 583.4 679.7 L 586.7 677.7 L 590.1 675.7 L 593.5 673.6 L 596.9 671.6 L 600.2 669.6 L 603.6 667.6 L 607.0 665.5 L 610.4 663.5 L 613.8 661.5 L 617.1 659.5 L 620.5 657.5 L 623.9 655.4 L 627.3 653.4 L 630.7 651.4 L 634.0 649.4 L 637.4 647.4 L 640.8 645.3 L 644.2 643.3 L 647.6 641.3 L 650.9 639.3 L 654.3 637.3 L 657.7 635.3 L 661.1 633.3 L 664.5 631.2 L 667.8 629.2 L 671.2 627.2 L 674.6 625.2 L 678.0 623.2 L 681.3 621.2 L 684.7 619.1 L 688.1 617.1 L 691.5 615.1 L 694.9 613.1 L 698.2 611.1 L 701.6 609.1 L 705.0 607.1 L 708.4 605.0 L 711.8 603.0 L 715.1 601.0 L 718.5 599.0 L 721.9 597.0 L 725.3 595.0 L 728.7 593.0 L 732.0 591.0 L 735.4 588.9 L 738.8 586.9 L 742.2 584.9 L 745.5 582.9 L 748.9 580.9 L 752.3 578.9 L 755.7 576.9 L 759.1 574.9 L 762.4 572.8 L 765.8 570.8 L 769.2 568.8 L 772.6 566.8 L 776.0 564.8 L 779.3 562.8 L 782.7 560.7 L 786.1 558.7 L 789.5 556.7 L 792.9 554.7 L 796.2 552.7 L 799.6 550.6 L 803.0 548.6 L 806.4 546.6 L 809.8 544.6 L 813.1 542.6 L 816.5 540.5 L 819.9 538.5 L 823.3 536.5 L 826.6 534.5 L 830.0 532.5 L 833.4 530.4 L 836.8 528.4 L 840.2 526.4 L 843.5 524.4 L 846.9 522.3 L 850.3 520.3 L 853.7 518.3 L 857.1 516.3 L 860.4 514.2 L 863.8 512.2 L 867.2 510.2 L 870.6 508.1 L 874.0 506.1 L 877.3 504.1 L 880.7 502.0 L 884.1 500.0 L 887.5 498.0 L 890.9 495.9 L 894.2 493.9 L 897.6 491.8 L 901.0 489.8 L 904.4 487.8 L 907.7 485.7 L 911.1 483.7 L 914.5 481.6 L 917.9 479.6 L 921.3 477.5 L 924.6 475.5 L 928.0 473.4 L 931.4 471.4 L 934.8 469.4 L 938.2 467.3 L 941.5 465.3 L 944.9 463.2 L 948.3 461.1 L 951.7 459.1 L 955.1 457.0 L 958.4 455.0 L 961.8 452.9 L 965.2 450.9 L 968.6 448.8 L 972.0 446.7 L 975.3 444.7 L 978.7 442.6 L 982.1 440.5 L 985.5 438.5 L 988.8 436.4 L 992.2 434.3 L 995.6 432.3 L 999.0 430.2 L 1002.4 428.1 L 1005.7 426.1 L 1009.1 424.0 L 1012.5 421.9 L 1015.9 419.8 L 1019.3 417.8 L 1022.6 415.7 L 1026.0 413.6 L 1029.4 411.5 L 1032.8 409.4 L 1036.2 407.4 L 1039.5 405.3 L 1042.9 403.2 L 1046.3 401.1 L 1049.7 399.0 L 1053.0 396.9 L 1056.4 394.8 L 1059.8 392.7 L 1063.2 390.6 L 1066.6 388.5 L 1069.9 386.5 L 1073.3 384.4 L 1076.7 382.3 L 1080.1 380.2 L 1083.5 378.1 L 1086.8 376.0 L 1090.2 373.8 L 1093.6 371.7 L 1097.0 369.6 L 1100.4 367.5 L 1103.7 365.4 L 1107.1 363.3 L 1110.5 361.2 L 1113.9 359.1 L 1117.3 357.0 L 1120.6 354.9 L 1124.0 352.8 L 1127.4 350.6 L 1130.8 348.5 L 1134.1 346.4 L 1137.5 344.3 L 1140.9 342.2 L 1144.3 340.1 L 1147.7 337.9 L 1151.0 335.8 L 1154.4 333.7 L 1157.8 331.6 L 1161.2 329.4 L 1164.6 327.3 L 1167.9 325.2 L 1171.3 323.1 L 1174.7 320.9 L 1178.1 318.8 L 1181.5 316.7 L 1184.8 314.5 L 1188.2 312.4 L 1191.6 310.3 L 1195.0 308.1 L 1198.4 306.0 L 1201.7 303.9 L 1205.1 301.7 L 1208.5 299.6 L 1211.9 297.5 L 1215.2 295.3 L 1218.6 293.2 L 1222.0 291.0 L 1225.4 288.9 L 1228.8 286.8 L 1232.1 284.6 L 1235.5 282.5 L 1238.9 280.3 L 1242.3 278.2 L 1245.7 276.0 L 1249.0 273.9 L 1252.4 271.8 L 1255.8 269.6 L 1259.2 267.5 L 1262.6 265.3 L 1265.9 263.2 L 1269.3 261.0 L 1272.7 258.9 L 1276.1 256.7 L 1279.5 254.6 L 1282.8 252.4 L 1286.2 250.3 L 1289.6 248.1 L 1293.0 246.0 L 1296.3 243.8 L 1299.7 241.7 L 1303.1 239.5 L 1306.5 237.4 L 1309.9 235.2 L 1313.2 233.1 L 1316.6 230.9 L 1320.0 228.8" fill="none" stroke="#FFD700" stroke-linecap="round" stroke-linejoin="round" stroke-width="2.5" /><path d="M 90.0 270.0 L 93.4 267.3 L 96.8 264.4 L 100.1 261.6 L 103.5 258.7 L 106.9 255.8 L 110.3 252.8 L 113.7 249.8 L 117.0 246.8 L 120.4 243.8 L 123.8 240.7 L 127.2 237.6 L 130.5 234.5 L 133.9 231.4 L 137.3 228.2 L 140.7 225.0 L 144.1 221.8 L 147.4 218.6 L 150.8 215.4 L 154.2 212.1 L 157.6 208.9 L 161.0 205.6 L 164.3 202.3 L 167.7 198.9 L 171.1 195.6 L 174.5 192.2 L 177.9 188.8 L 181.2 185.4 L 184.6 181.9 L 188.0 178.4 L 191.4 175.0 L 194.8 171.4 L 198.1 167.9 L 201.5 164.3 L 204.9 160.7 L 208.3 157.1 L 211.6 153.5 L 215.0 149.8 L 218.4 146.1 L 221.8 142.4 L 225.2 138.6 L 228.5 134.8 L 231.9 131.0 L 235.3 127.2 L 238.7 123.4 L 242.1 119.5 L 245.4 115.6 L 248.8 111.7 L 252.2 107.8 L 255.6 103.8 L 259.0 99.9 L 262.3 96.0 L 265.7 92.1 L 269.1 88.2 L 272.5 84.4 L 275.9 80.6 L 279.2 76.8 L 282.6 73.2 L 286.0 69.6 L 289.4 66.1 L 292.7 62.8" fill="none" stroke="#FFA500" stroke-linecap="round" stroke-linejoin="round" stroke-width="2.5" /><path d="M 296.1 819.6 L 299.5 816.6 L 302.9 813.8 L 306.3 811.2 L 309.6 808.8 L 313.0 806.7 L 316.4 804.8 L 319.8 803.2 L 323.2 801.9 L 326.5 800.9 L 329.9 800.2 L 333.3 799.8 L 336.7 799.8 L 340.1 800.0 L 343.4 800.5 L 346.8 801.2 L 350.2 802.3 L 353.6 803.5 L 357.0 804.9 L 360.3 806.5 L 363.7 808.3 L 367.1 810.1 L 370.5 811.9 L 373.8 813.8 L 377.2 815.6 L 380.6 817.4 L 384.0 819.1" fill="none" stroke="#FFA500" stroke-linecap="round" stroke-linejoin="round" stroke-width="2.5" /><path d="M 387.4 60.6 L 390.7 62.0 L 394.1 63.2 L 397.5 64.3 L 400.9 65.2 L 404.3 65.8 L 407.6 66.3 L 411.0 66.6 L 414.4 66.7 L 417.8 66.6 L 421.2 66.3 L 424.5 65.8 L 427.9 65.2 L 431.3 64.4 L 434.7 63.4 L 438.0 62.3 L 441.4 61.1" fill="none" stroke="#FFA500" stroke-linecap="round" stroke-linejoin="round" stroke-width="2.5" /><path d="M 444.8 819.7 L 448.2 818.1 L 451.6 816.5 L 454.9 814.7 L 458.3 812.8 L 461.7 810.8 L 465.1 808.7 L 468.5 806.5 L 471.8 804.2 L 475.2 801.9 L 478.6 799.4 L 482.0 796.8 L 485.4 794.2 L 488.7 791.5 L 492.1 788.7 L 495.5 785.8 L 498.9 782.9 L 502.3 779.8 L 505.6 776.7 L 509.0 773.6 L 512.4 770.3 L 515.8 767.0 L 519.1 763.7 L 522.5 760.2 L 525.9 756.7 L 529.3 753.1 L 532.7 749.5 L 536.0 745.7 L 539.4 741.9 L 542.8 738.1 L 546.2 734.2 L 549.6 730.1 L 552.9 726.1 L 556.3 721.9 L 559.7 717.7 L 563.1 713.5 L 566.5 709.1 L 569.8 704.7 L 573.2 700.3 L 576.6 695.8 L 580.0 691.2 L 583.4 686.7 L 586.7 682.1 L 590.1 677.4 L 593.5 672.8 L 596.9 668.1 L 600.2 663.5 L 603.6 658.9 L 607.0 654.3 L 610.4 649.7 L 613.8 645.2 L 617.1 640.7 L 620.5 636.3 L 623.9 632.0 L 627.3 627.7 L 630.7 623.5 L 634.0 619.3 L 637.4 615.3 L 640.8 611.3 L 644.2 607.4 L 647.6 603.6 L 650.9 599.9 L 654.3 596.3 L 657.7 592.7 L 661.1 589.3 L 664.5 585.9 L 667.8 582.6 L 671.2 579.4 L 674.6 576.3 L 678.0 573.3 L 681.3 570.3 L 684.7 567.5 L 688.1 564.7 L 691.5 562.1 L 694.9 559.5 L 698.2 557.1 L 701.6 554.7 L 705.0 552.5 L 708.4 550.3 L 711.8 548.3 L 715.1 546.4 L 718.5 544.6 L 721.9 542.9 L 725.3 541.3 L 728.7 539.9 L 732.0 538.6 L 735.4 537.5 L 738.8 536.5 L 742.2 535.6 L 745.5 534.9 L 748.9 534.4 L 752.3 534.0 L 755.7 533.8 L 759.1 533.8 L 762.4 533.9 L 765.8 534.2 L 769.2 534.7 L 772.6 535.4 L 776.0 536.2 L 779.3 537.1 L 782.7 538.2 L 786.1 539.5 L 789.5 540.8 L 792.9 542.3 L 796.2 543.8 L 799.6 545.3 L 803.0 546.9 L 806.4 548.4 L 809.8 550.0 L 813.1 551.4 L 816.5 552.8 L 819.9 554.0 L 823.3 555.1 L 826.6 556.0 L 830.0 556.8 L 833.4 557.3 L 836.8 557.6 L 840.2 557.7 L 843.5 557.5 L 846.9 557.1 L 850.3 556.4 L 853.7 555.5 L 857.1 554.4 L 860.4 552.9 L 863.8 551.3 L 867.2 549.4 L 870.6 547.2 L 874.0 544.8 L 877.3 542.3 L 880.7 539.5 L 884.1 536.5 L 887.5 533.3 L 890.9 530.0 L 894.2 526.5 L 897.6 522.9 L 901.0 519.2 L 904.4 515.4 L 907.7 511.5 L 911.1 507.6 L 914.5 503.6 L 917.9 499.5 L 921.3 495.4 L 924.6 491.4 L 928.0 487.3 L 931.4 483.2 L 934.8 479.1 L 938.2 475.0 L 941.5 471.0 L 944.9 467.0 L 948.3 463.0 L 951.7 459.0 L 955.1 455.1 L 958.4 451.2 L 961.8 447.3 L 965.2 443.5 L 968.6 439.7 L 972.0 435.9 L 975.3 432.2 L 978.7 428.6 L 982.1 424.9 L 985.5 421.3 L 988.8 417.7 L 992.2 414.2 L 995.6 410.7 L 999.0 407.2 L 1002.4 403.7 L 1005.7 400.3 L 1009.1 397.0 L 1012.5 393.6 L 1015.9 390.3 L 1019.3 387.0 L 1022.6 383.7 L 1026.0 380.5 L 1029.4 377.3 L 1032.8 374.1 L 1036.2 371.0 L 1039.5 367.8 L 1042.9 364.8 L 1046.3 361.7 L 1049.7 358.7 L 1053.0 355.7 L 1056.4 352.7 L 1059.8 349.7 L 1063.2 346.8 L 1066.6 344.0 L 1069.9 341.1 L 1073.3 338.3 L 1076.7 335.6 L 1080.1 332.9 L 1083.5 330.2 L 1086.8 327.6 L 1090.2 325.0 L 1093.6 322.5 L 1097.0 320.1 L 1100.4 317.7 L 1103.7 315.4 L 1107.1 313.2 L 1110.5 311.2 L 1113.9 309.2 L 1117.3 307.3 L 1120.6 305.6 L 1124.0 304.0 L 1127.4 302.6 L 1130.8 301.4 L 1134.1 300.4 L 1137.5 299.6 L 1140.9 299.1 L 1144.3 298.9 L 1147.7 298.9 L 1151.0 299.3 L 1154.4 300.1 L 1157.8 301.1 L 1161.2 302.6 L 1164.6 304.4 L 1167.9 306.5 L 1171.3 308.9 L 1174.7 311.6 L 1178.1 314.4 L 1181.5 317.2 L 1184.8 320.1 L 1188.2 322.8 L 1191.6 325.3 L 1195.0 327.5 L 1198.4 329.4 L 1201.7 330.9 L 1205.1 332.0 L 1208.5 332.7 L 1211.9 332.9 L 1215.2 332.8 L 1218.6 332.4 L 1222.0 331.6 L 1225.4 330.5 L 1228.8 329.2 L 1232.1 327.6 L 1235.5 325.8 L 1238.9 323.8 L 1242.3 321.7 L 1245.7 319.4 L 1249.0 317.0 L 1252.4 314.5 L 1255.8 311.9 L 1259.2 309.2 L 1262.6 306.4 L 1265.9 303.6 L 1269.3 300.8 L 1272.7 297.9 L 1276.1 294.9 L 1279.5 291.9 L 1282.8 288.9 L 1286.2 285.9 L 1289.6 282.8 L 1293.0 279.7 L 1296.3 276.6 L 1299.7 273.5 L 1303.1 270.4 L 1306.5 267.2 L 1309.9 264.0 L 1313.2 260.9 L 1316.6 257.7 L 1320.0 254.5" fill="none" stroke="#FFA500" stroke-linecap="round" stroke-linejoin="round" stroke-width="2.5" /><path d="M 90.0 127.0 L 93.4 124.8 L 96.8 122.5 L 100.1 120.3 L 103.5 118.1 L 106.9 115.9 L 110.3 113.7 L 113.7 111.5 L 117.0 109.3 L 120.4 107.2 L 123.8 105.0 L 127.2 102.9 L 130.5 100.8 L 133.9 98.7 L 137.3 96.6 L 140.7 94.6 L 144.1 92.5 L 147.4 90.5 L 150.8 88.5 L 154.2 86.5 L 157.6 84.5 L 161.0 82.6 L 164.3 80.7 L 167.7 78.8 L 171.1 76.9 L 174.5 75.1 L 177.9 73.2 L 181.2 71.4 L 184.6 69.7 L 188.0 67.9 L 191.4 66.2 L 194.8 64.6 L 198.1 62.9 L 201.5 61.3" fill="none" stroke="#FF69B4" stroke-linecap="round" stroke-linejoin="round" stroke-width="2.5" /><path d="M 204.9 819.7 L 208.3 818.2 L 211.6 816.7 L 215.0 815.2 L 218.4 813.8 L 221.8 812.5 L 225.2 811.1 L 228.5 809.9 L 231.9 808.6 L 235.3 807.4 L 238.7 806.3 L 242.1 805.2 L 245.4 804.2 L 248.8 803.3 L 252.2 802.4 L 255.6 801.5 L 259.0 800.8 L 262.3 800.1 L 265.7 799.4 L 269.1 798.9 L 272.5 798.4 L 275.9 798.0 L 279.2 797.6 L 282.6 797.4 L 286.0 797.2 L 289.4 797.1 L 292.7 797.1 L 296.1 797.2 L 299.5 797.4 L 302.9 797.7 L 306.3 798.0 L 309.6 798.4 L 313.0 799.0 L 316.4 799.6 L 319.8 800.3 L 323.2 801.1 L 326.5 801.9 L 329.9 802.9 L 333.3 803.9 L 336.7 804.9 L 340.1 806.1 L 343.4 807.2 L 346.8 808.5 L 350.2 809.7 L 353.6 811.0 L 357.0 812.3 L 360.3 813.7 L 363.7 815.0 L 367.1 816.3 L 370.5 817.6 L 373.8 818.9" fill="none" stroke="#FF69B4" stroke-linecap="round" stroke-linejoin="round" stroke-width="2.5" /><path d="M 377.2 60.2 L 380.6 61.4 L 384.0 62.5 L 387.4 63.7 L 390.7 64.7 L 394.1 65.7 L 397.5 66.6 L 400.9 67.5 L 404.3 68.2 L 407.6 68.9 L 411.0 69.5 L 414.4 70.0 L 417.8 70.5 L 421.2 70.8 L 424.5 71.1 L 427.9 71.2 L 431.3 71.3 L 434.7 71.3 L 438.0 71.3 L 441.4 71.1 L 444.8 70.9 L 448.2 70.5 L 451.6 70.1 L 454.9 69.7 L 458.3 69.1 L 461.7 68.5 L 465.1 67.8 L 468.5 67.1 L 471.8 66.3 L 475.2 65.4 L 478.6 64.5 L 482.0 63.5 L 485.4 62.5 L 488.7 61.4 L 492.1 60.3" fill="none" stroke="#FF69B4" stroke-linecap="round" stroke-linejoin="round" stroke-width="2.5" /><path d="M 495.5 819.1 L 498.9 817.8 L 502.3 816.6 L 505.6 815.3 L 509.0 813.9 L 512.4 812.5 L 515.8 811.1 L 519.1 809.6 L 522.5 808.1 L 525.9 806.6 L 529.3 805.0 L 532.7 803.4 L 536.0 801.8 L 539.4 800.1 L 542.8 798.4 L 546.2 796.7 L 549.6 795.0 L 552.9 793.2 L 556.3 791.4 L 559.7 789.6 L 563.1 787.8 L 566.5 785.9 L 569.8 784.0 L 573.2 782.1 L 576.6 780.2 L 580.0 778.3 L 583.4 776.3 L 586.7 774.4 L 590.1 772.4 L 593.5 770.4 L 596.9 768.4 L 600.2 766.4 L 603.6 764.3 L 607.0 762.3 L 610.4 760.2 L 613.8 758.1 L 617.1 756.0 L 620.5 753.9 L 623.9 751.8 L 627.3 749.7 L 630.7 747.5 L 634.0 745.4 L 637.4 743.2 L 640.8 741.1 L 644.2 738.9 L 647.6 736.7 L 650.9 734.5 L 654.3 732.3 L 657.7 730.1 L 661.1 727.9 L 664.5 725.6 L 667.8 723.4 L 671.2 721.2 L 674.6 718.9 L 678.0 716.6 L 681.3 714.4 L 684.7 712.1 L 688.1 709.8 L 691.5 707.5 L 694.9 705.2 L 698.2 702.9 L 701.6 700.6 L 705.0 698.3 L 708.4 696.0 L 711.8 693.7 L 715.1 691.3 L 718.5 689.0 L 721.9 686.7 L 725.3 684.3 L 728.7 682.0 L 732.0 679.6 L 735.4 677.3 L 738.8 674.9 L 742.2 672.5 L 745.5 670.2 L 748.9 667.8 L 752.3 665.4 L 755.7 663.0 L 759.1 660.6 L 762.4 658.2 L 765.8 655.8 L 769.2 653.4 L 772.6 651.0 L 776.0 648.6 L 779.3 646.2 L 782.7 643.8 L 786.1 641.3 L 789.5 638.9 L 792.9 636.5 L 796.2 634.1 L 799.6 631.6 L 803.0 629.2 L 806.4 626.7 L 809.8 624.3 L 813.1 621.8 L 816.5 619.4 L 819.9 616.9 L 823.3 614.5 L 826.6 612.0 L 830.0 609.5 L 833.4 607.1 L 836.8 604.6 L 840.2 602.1 L 843.5 599.6 L 846.9 597.2 L 850.3 594.7 L 853.7 592.2 L 857.1 589.7 L 860.4 587.2 L 863.8 584.7 L 867.2 582.2 L 870.6 579.7 L 874.0 577.2 L 877.3 574.7 L 880.7 572.2 L 884.1 569.7 L 887.5 567.1 L 890.9 564.6 L 894.2 562.1 L 897.6 559.6 L 901.0 557.0 L 904.4 554.5 L 907.7 552.0 L 911.1 549.4 L 914.5 546.9 L 917.9 544.4 L 921.3 541.8 L 924.6 539.3 L 928.0 536.7 L 931.4 534.2 L 934.8 531.6 L 938.2 529.1 L 941.5 526.5 L 944.9 524.0 L 948.3 521.4 L 951.7 518.8 L 955.1 516.3 L 958.4 513.7 L 961.8 511.1 L 965.2 508.6 L 968.6 506.0 L 972.0 503.4 L 975.3 500.8 L 978.7 498.2 L 982.1 495.7 L 985.5 493.1 L 988.8 490.5 L 992.2 487.9 L 995.6 485.3 L 999.0 482.7 L 1002.4 480.1 L 1005.7 477.5 L 1009.1 474.9 L 1012.5 472.3 L 1015.9 469.7 L 1019.3 467.1 L 1022.6 464.5 L 1026.0 461.9 L 1029.4 459.3 L 1032.8 456.7 L 1036.2 454.1 L 1039.5 451.5 L 1042.9 448.9 L 1046.3 446.3 L 1049.7 443.6 L 1053.0 441.0 L 1056.4 438.4 L 1059.8 435.8 L 1063.2 433.2 L 1066.6 430.5 L 1069.9 427.9 L 1073.3 425.3 L 1076.7 422.7 L 1080.1 420.0 L 1083.5 417.4 L 1086.8 414.8 L 1090.2 412.1 L 1093.6 409.5 L 1097.0 406.9 L 1100.4 404.2 L 1103.7 401.6 L 1107.1 399.0 L 1110.5 396.3 L 1113.9 393.7 L 1117.3 391.0 L 1120.6 388.4 L 1124.0 385.8 L 1127.4 383.1 L 1130.8 380.5 L 1134.1 377.8 L 1137.5 375.2 L 1140.9 372.6 L 1144.3 369.9 L 1147.7 367.3 L 1151.0 364.6 L 1154.4 362.0 L 1157.8 359.3 L 1161.2 356.7 L 1164.6 354.0 L 1167.9 351.4 L 1171.3 348.7 L 1174.7 346.1 L 1178.1 343.4 L 1181.5 340.8 L 1184.8 338.1 L 1188.2 335.5 L 1191.6 332.8 L 1195.0 330.2 L 1198.4 327.5 L 1201.7 324.9 L 1205.1 322.2 L 1208.5 319.6 L 1211.9 316.9 L 1215.2 314.2 L 1218.6 311.6 L 1222.0 308.9 L 1225.4 306.3 L 1228.8 303.6 L 1232.1 301.0 L 1235.5 298.3 L 1238.9 295.7 L 1242.3 293.0 L 1245.7 290.3 L 1249.0 287.7 L 1252.4 285.0 L 1255.8 282.4 L 1259.2 279.7 L 1262.6 277.1 L 1265.9 274.4 L 1269.3 271.8 L 1272.7 269.1 L 1276.1 266.4 L 1279.5 263.8 L 1282.8 261.1 L 1286.2 258.5 L 1289.6 255.8 L 1293.0 253.1 L 1296.3 250.5 L 1299.7 247.8 L 1303.1 245.2 L 1306.5 242.5 L 1309.9 239.9 L 1313.2 237.2 L 1316.6 234.5 L 1320.0 231.9" fill="none" stroke="#FF69B4" stroke-linecap="round" stroke-linejoin="round" stroke-width="2.5" /><path d="M 90.0 563.0 L 93.4 563.7 L 96.8 564.4 L 100.1 565.2 L 103.5 565.9 L 106.9 566.7 L 110.3 567.5 L 113.7 568.3 L 117.0 569.1 L 120.4 570.0 L 123.8 570.8 L 127.2 571.6 L 130.5 572.5 L 133.9 573.3 L 137.3 574.2 L 140.7 575.0 L 144.1 575.8 L 147.4 576.7 L 150.8 577.5 L 154.2 578.3 L 157.6 579.1 L 161.0 580.0 L 164.3 580.7 L 167.7 581.5 L 171.1 582.3 L 174.5 583.0 L 177.9 583.8 L 181.2 584.5 L 184.6 585.2 L 188.0 585.8 L 191.4 586.5 L 194.8 587.1 L 198.1 587.7 L 201.5 588.3 L 204.9 588.8 L 208.3 589.4 L 211.6 589.9 L 215.0 590.3 L 218.4 590.8 L 221.8 591.2 L 225.2 591.6 L 228.5 591.9 L 231.9 592.3 L 235.3 592.6 L 238.7 592.8 L 242.1 593.1 L 245.4 593.3 L 248.8 593.5 L 252.2 593.7 L 255.6 593.8 L 259.0 593.9 L 262.3 594.0 L 265.7 594.0 L 269.1 594.1 L 272.5 594.1 L 275.9 594.1 L 279.2 594.0 L 282.6 593.9 L 286.0 593.8 L 289.4 593.7 L 292.7 593.6 L 296.1 593.4 L 299.5 593.2 L 302.9 593.0 L 306.3 592.7 L 309.6 592.5 L 313.0 592.2 L 316.4 591.9 L 319.8 591.5 L 323.2 591.2 L 326.5 590.8 L 329.9 590.4 L 333.3 590.0 L 336.7 589.6 L 340.1 589.1 L 343.4 588.7 L 346.8 588.2 L 350.2 587.7 L 353.6 587.2 L 357.0 586.7 L 360.3 586.1 L 363.7 585.5 L 367.1 585.0 L 370.5 584.4 L 373.8 583.8 L 377.2 583.1 L 380.6 582.5 L 384.0 581.9 L 387.4 581.2 L 390.7 580.5 L 394.1 579.8 L 397.5 579.1 L 400.9 578.4 L 404.3 577.7 L 407.6 576.9 L 411.0 576.2 L 414.4 575.4 L 417.8 574.7 L 421.2 573.9 L 424.5 573.1 L 427.9 572.3 L 431.3 571.5 L 434.7 570.6 L 438.0 569.8 L 441.4 569.0 L 444.8 568.1 L 448.2 567.3 L 451.6 566.4 L 454.9 565.5 L 458.3 564.6 L 461.7 563.7 L 465.1 562.8 L 468.5 561.9 L 471.8 561.0 L 475.2 560.1 L 478.6 559.1 L 482.0 558.2 L 485.4 557.3 L 488.7 556.3 L 492.1 555.3 L 495.5 554.4 L 498.9 553.4 L 502.3 552.4 L 505.6 551.4 L 509.0 550.4 L 512.4 549.4 L 515.8 548.4 L 519.1 547.4 L 522.5 546.4 L 525.9 545.4 L 529.3 544.4 L 532.7 543.3 L 536.0 542.3 L 539.4 541.2 L 542.8 540.2 L 546.2 539.1 L 549.6 538.1 L 552.9 537.0 L 556.3 535.9 L 559.7 534.9 L 563.1 533.8 L 566.5 532.7 L 569.8 531.6 L 573.2 530.5 L 576.6 529.4 L 580.0 528.3 L 583.4 527.2 L 586.7 526.1 L 590.1 525.0 L 593.5 523.9 L 596.9 522.8 L 600.2 521.6 L 603.6 520.5 L 607.0 519.4 L 610.4 518.2 L 613.8 517.1 L 617.1 516.0 L 620.5 514.8 L 623.9 513.7 L 627.3 512.5 L 630.7 511.4 L 634.0 510.2 L 637.4 509.0 L 640.8 507.9 L 644.2 506.7 L 647.6 505.5 L 650.9 504.3 L 654.3 503.2 L 657.7 502.0 L 661.1 500.8 L 664.5 499.6 L 667.8 498.4 L 671.2 497.2 L 674.6 496.0 L 678.0 494.8 L 681.3 493.6 L 684.7 492.4 L 688.1 491.2 L 691.5 490.0 L 694.9 488.8 L 698.2 487.5 L 701.6 486.3 L 705.0 485.1 L 708.4 483.9 L 711.8 482.6 L 715.1 481.4 L 718.5 480.2 L 721.9 478.9 L 725.3 477.7 L 728.7 476.4 L 732.0 475.2 L 735.4 474.0 L 738.8 472.7 L 742.2 471.4 L 745.5 470.2 L 748.9 468.9 L 752.3 467.7 L 755.7 466.4 L 759.1 465.1 L 762.4 463.9 L 765.8 462.6 L 769.2 461.3 L 772.6 460.1 L 776.0 458.8 L 779.3 457.5 L 782.7 456.2 L 786.1 454.9 L 789.5 453.6 L 792.9 452.3 L 796.2 451.1 L 799.6 449.8 L 803.0 448.5 L 806.4 447.2 L 809.8 445.9 L 813.1 444.6 L 816.5 443.2 L 819.9 441.9 L 823.3 440.6 L 826.6 439.3 L 830.0 438.0 L 833.4 436.7 L 836.8 435.4 L 840.2 434.0 L 843.5 432.7 L 846.9 431.4 L 850.3 430.0 L 853.7 428.7 L 857.1 427.4 L 860.4 426.0 L 863.8 424.7 L 867.2 423.4 L 870.6 422.0 L 874.0 420.7 L 877.3 419.3 L 880.7 418.0 L 884.1 416.6 L 887.5 415.3 L 890.9 413.9 L 894.2 412.6 L 897.6 411.2 L 901.0 409.8 L 904.4 408.5 L 907.7 407.1 L 911.1 405.7 L 914.5 404.3 L 917.9 403.0 L 921.3 401.6 L 924.6 400.2 L 928.0 398.8 L 931.4 397.4 L 934.8 396.1 L 938.2 394.7 L 941.5 393.3 L 944.9 391.9 L 948.3 390.5 L 951.7 389.1 L 955.1 387.7 L 958.4 386.3 L 961.8 384.9 L 965.2 383.5 L 968.6 382.1 L 972.0 380.7 L 975.3 379.3 L 978.7 377.8 L 982.1 376.4 L 985.5 375.0 L 988.8 373.6 L 992.2 372.2 L 995.6 370.7 L 999.0 369.3 L 1002.4 367.9 L 1005.7 366.4 L 1009.1 365.0 L 1012.5 363.6 L 1015.9 362.1 L 1019.3 360.7 L 1022.6 359.2 L 1026.0 357.8 L 1029.4 356.3 L 1032.8 354.9 L 1036.2 353.4 L 1039.5 352.0 L 1042.9 350.5 L 1046.3 349.1 L 1049.7 347.6 L 1053.0 346.2 L 1056.4 344.7 L 1059.8 343.2 L 1063.2 341.7 L 1066.6 340.3 L 1069.9 338.8 L 1073.3 337.3 L 1076.7 335.8 L 1080.1 334.4 L 1083.5 332.9 L 1086.8 331.4 L 1090.2 329.9 L 1093.6 328.4 L 1097.0 326.9 L 1100.4 325.4 L 1103.7 323.9 L 1107.1 322.4 L 1110.5 320.9 L 1113.9 319.4 L 1117.3 317.9 L 1120.6 316.4 L 1124.0 314.9 L 1127.4 313.4 L 1130.8 311.9 L 1134.1 310.4 L 1137.5 308.9 L 1140.9 307.3 L 1144.3 305.8 L 1147.7 304.3 L 1151.0 302.8 L 1154.4 301.2 L 1157.8 299.7 L 1161.2 298.2 L 1164.6 296.6 L 1167.9 295.1 L 1171.3 293.6 L 1174.7 292.0 L 1178.1 290.5 L 1181.5 288.9 L 1184.8 287.4 L 1188.2 285.8 L 1191.6 284.3 L 1195.0 282.7 L 1198.4 281.2 L 1201.7 279.6 L 1205.1 278.1 L 1208.5 276.5 L 1211.9 274.9 L 1215.2 273.4 L 1218.6 271.8 L 1222.0 270.2 L 1225.4 268.7 L 1228.8 267.1 L 1232.1 265.5 L 1235.5 264.0 L 1238.9 262.4 L 1242.3 260.8 L 1245.7 259.2 L 1249.0 257.6 L 1252.4 256.1 L 1255.8 254.5 L 1259.2 252.9 L 1262.6 251.3 L 1265.9 249.7 L 1269.3 248.1 L 1272.7 246.5 L 1276.1 244.9 L 1279.5 243.3 L 1282.8 241.7 L 1286.2 240.1 L 1289.6 238.5 L 1293.0 236.9 L 1296.3 235.3 L 1299.7 233.7 L 1303.1 232.1 L 1306.5 230.5 L 1309.9 228.9 L 1313.2 227.3 L 1316.6 225.6 L 1320.0 224.0" fill="none" stroke="#DC143C" stroke-linecap="round" stroke-linejoin="round" stroke-width="2.5" /><path d="M 90.0 665.5 L 93.4 665.8 L 96.8 666.0 L 100.1 666.2 L 103.5 666.4 L 106.9 666.6 L 110.3 666.8 L 113.7 667.0 L 117.0 667.2 L 120.4 667.3 L 123.8 667.5 L 127.2 667.7 L 130.5 667.8 L 133.9 668.0 L 137.3 668.1 L 140.7 668.2 L 144.1 668.4 L 147.4 668.5 L 150.8 668.6 L 154.2 668.7 L 157.6 668.8 L 161.0 668.9 L 164.3 669.0 L 167.7 669.1 L 171.1 669.2 L 174.5 669.2 L 177.9 669.3 L 181.2 669.4 L 184.6 669.4 L 188.0 669.4 L 191.4 669.5 L 194.8 669.5 L 198.1 669.5 L 201.5 669.5 L 204.9 669.5 L 208.3 669.5 L 211.6 669.5 L 215.0 669.5 L 218.4 669.5 L 221.8 669.4 L 225.2 669.4 L 228.5 669.3 L 231.9 669.3 L 235.3 669.2 L 238.7 669.2 L 242.1 669.1 L 245.4 669.0 L 248.8 668.9 L 252.2 668.8 L 255.6 668.7 L 259.0 668.6 L 262.3 668.5 L 265.7 668.4 L 269.1 668.2 L 272.5 668.1 L 275.9 668.0 L 279.2 667.8 L 282.6 667.7 L 286.0 667.5 L 289.4 667.3 L 292.7 667.2 L 296.1 667.0 L 299.5 666.8 L 302.9 666.6 L 306.3 666.4 L 309.6 666.2 L 313.0 666.0 L 316.4 665.8 L 319.8 665.6 L 323.2 665.3 L 326.5 665.1 L 329.9 664.9 L 333.3 664.6 L 336.7 664.4 L 340.1 664.1 L 343.4 663.9 L 346.8 663.6 L 350.2 663.3 L 353.6 663.1 L 357.0 662.8 L 360.3 662.5 L 363.7 662.2 L 367.1 661.9 L 370.5 661.6 L 373.8 661.3 L 377.2 661.0 L 380.6 660.7 L 384.0 660.4 L 387.4 660.1 L 390.7 659.8 L 394.1 659.4 L 397.5 659.1 L 400.9 658.8 L 404.3 658.4 L 407.6 658.1 L 411.0 657.7 L 414.4 657.4 L 417.8 657.0 L 421.2 656.7 L 424.5 656.3 L 427.9 656.0 L 431.3 655.6 L 434.7 655.2 L 438.0 654.8 L 441.4 654.5 L 444.8 654.1 L 448.2 653.7 L 451.6 653.3 L 454.9 652.9 L 458.3 652.5 L 461.7 652.1 L 465.1 651.7 L 468.5 651.3 L 471.8 650.9 L 475.2 650.5 L 478.6 650.1 L 482.0 649.7 L 485.4 649.3 L 488.7 648.9 L 492.1 648.4 L 495.5 648.0 L 498.9 647.6 L 502.3 647.2 L 505.6 646.7 L 509.0 646.3 L 512.4 645.9 L 515.8 645.4 L 519.1 645.0 L 522.5 644.5 L 525.9 644.1 L 529.3 643.7 L 532.7 643.2 L 536.0 642.8 L 539.4 642.3 L 542.8 641.9 L 546.2 641.4 L 549.6 641.0 L 552.9 640.5 L 556.3 640.0 L 559.7 639.6 L 563.1 639.1 L 566.5 638.7 L 569.8 638.2 L 573.2 637.7 L 576.6 637.3 L 580.0 636.8 L 583.4 636.3 L 586.7 635.9 L 590.1 635.4 L 593.5 634.9 L 596.9 634.5 L 600.2 634.0 L 603.6 633.5 L 607.0 633.0 L 610.4 632.6 L 613.8 632.1 L 617.1 631.6 L 620.5 631.1 L 623.9 630.7 L 627.3 630.2 L 630.7 629.7 L 634.0 629.2 L 637.4 628.7 L 640.8 628.3 L 644.2 627.8 L 647.6 627.3 L 650.9 626.8 L 654.3 626.3 L 657.7 625.9 L 661.1 625.4 L 664.5 624.9 L 667.8 624.4 L 671.2 623.9 L 674.6 623.4 L 678.0 623.0 L 681.3 622.5 L 684.7 622.0 L 688.1 621.5 L 691.5 621.0 L 694.9 620.6 L 698.2 620.1 L 701.6 619.6 L 705.0 619.1 L 708.4 618.6 L 711.8 618.2 L 715.1 617.7 L 718.5 617.2 L 721.9 616.7 L 725.3 616.2 L 728.7 615.8 L 732.0 615.3 L 735.4 614.8 L 738.8 614.3 L 742.2 613.9 L 745.5 613.4 L 748.9 612.9 L 752.3 612.4 L 755.7 612.0 L 759.1 611.5 L 762.4 611.0 L 765.8 610.6 L 769.2 610.1 L 772.6 609.6 L 776.0 609.2 L 779.3 608.7 L 782.7 608.2 L 786.1 607.8 L 789.5 607.3 L 792.9 606.9 L 796.2 606.4 L 799.6 606.0 L 803.0 605.5 L 806.4 605.0 L 809.8 604.6 L 813.1 604.1 L 816.5 603.7 L 819.9 603.3 L 823.3 602.8 L 826.6 602.4 L 830.0 601.9 L 833.4 601.5 L 836.8 601.1 L 840.2 600.6 L 843.5 600.2 L 846.9 599.8 L 850.3 599.3 L 853.7 598.9 L 857.1 598.5 L 860.4 598.1 L 863.8 597.7 L 867.2 597.2 L 870.6 596.8 L 874.0 596.4 L 877.3 596.0 L 880.7 595.6 L 884.1 595.2 L 887.5 594.8 L 890.9 594.4 L 894.2 594.0 L 897.6 593.6 L 901.0 593.2 L 904.4 592.8 L 907.7 592.5 L 911.1 592.1 L 914.5 591.7 L 917.9 591.3 L 921.3 591.0 L 924.6 590.6 L 928.0 590.2 L 931.4 589.9 L 934.8 589.5 L 938.2 589.2 L 941.5 588.8 L 944.9 588.5 L 948.3 588.1 L 951.7 587.8 L 955.1 587.5 L 958.4 587.1 L 961.8 586.8 L 965.2 586.5 L 968.6 586.2 L 972.0 585.9 L 975.3 585.5 L 978.7 585.2 L 982.1 584.9 L 985.5 584.6 L 988.8 584.4 L 992.2 584.1 L 995.6 583.8 L 999.0 583.5 L 1002.4 583.2 L 1005.7 583.0 L 1009.1 582.7 L 1012.5 582.4 L 1015.9 582.2 L 1019.3 581.9 L 1022.6 581.7 L 1026.0 581.5 L 1029.4 581.2 L 1032.8 581.0 L 1036.2 580.8 L 1039.5 580.6 L 1042.9 580.4 L 1046.3 580.2 L 1049.7 580.0 L 1053.0 579.8 L 1056.4 579.6 L 1059.8 579.4 L 1063.2 579.2 L 1066.6 579.1 L 1069.9 578.9 L 1073.3 578.7 L 1076.7 578.6 L 1080.1 578.4 L 1083.5 578.3 L 1086.8 578.2 L 1090.2 578.0 L 1093.6 577.9 L 1097.0 577.8 L 1100.4 577.7 L 1103.7 577.6 L 1107.1 577.5 L 1110.5 577.4 L 1113.9 577.3 L 1117.3 577.3 L 1120.6 577.2 L 1124.0 577.1 L 1127.4 577.1 L 1130.8 577.0 L 1134.1 577.0 L 1137.5 577.0 L 1140.9 576.9 L 1144.3 576.9 L 1147.7 576.9 L 1151.0 576.9 L 1154.4 576.9 L 1157.8 576.9 L 1161.2 576.9 L 1164.6 577.0 L 1167.9 577.0 L 1171.3 577.0 L 1174.7 577.1 L 1178.1 577.1 L 1181.5 577.2 L 1184.8 577.2 L 1188.2 577.3 L 1191.6 577.4 L 1195.0 577.5 L 1198.4 577.6 L 1201.7 577.7 L 1205.1 577.8 L 1208.5 577.9 L 1211.9 578.0 L 1215.2 578.1 L 1218.6 578.3 L 1222.0 578.4 L 1225.4 578.6 L 1228.8 578.7 L 1232.1 578.9 L 1235.5 579.0 L 1238.9 579.2 L 1242.3 579.4 L 1245.7 579.6 L 1249.0 579.8 L 1252.4 579.9 L 1255.8 580.1 L 1259.2 580.3 L 1262.6 580.6 L 1265.9 580.8 L 1269.3 581.0 L 1272.7 581.2 L 1276.1 581.4 L 1279.5 581.7 L 1282.8 581.9 L 1286.2 582.2 L 1289.6 582.4 L 1293.0 582.7 L 1296.3 582.9 L 1299.7 583.2 L 1303.1 583.4 L 1306.5 583.7 L 1309.9 584.0 L 1313.2 584.2 L 1316.6 584.5 L 1320.0 584.8" fill="none" stroke="#4169E1" stroke-linecap="round" stroke-linejoin="round" stroke-width="2.5" /><path d="M 90.0 92.6 L 93.4 92.4 L 96.8 92.3 L 100.1 92.1 L 103.5 91.9 L 106.9 91.8 L 110.3 91.6 L 113.7 91.4 L 117.0 91.2 L 120.4 91.0 L 123.8 90.8 L 127.2 90.7 L 130.5 90.5 L 133.9 90.3 L 137.3 90.1 L 140.7 89.9 L 144.1 89.7 L 147.4 89.5 L 150.8 89.3 L 154.2 89.1 L 157.6 88.9 L 161.0 88.6 L 164.3 88.4 L 167.7 88.2 L 171.1 88.0 L 174.5 87.8 L 177.9 87.6 L 181.2 87.3 L 184.6 87.1 L 188.0 86.9 L 191.4 86.7 L 194.8 86.4 L 198.1 86.2 L 201.5 86.0 L 204.9 85.7 L 208.3 85.5 L 211.6 85.3 L 215.0 85.0 L 218.4 84.8 L 221.8 84.5 L 225.2 84.3 L 228.5 84.1 L 231.9 83.8 L 235.3 83.6 L 238.7 83.3 L 242.1 83.1 L 245.4 82.8 L 248.8 82.6 L 252.2 82.3 L 255.6 82.1 L 259.0 81.8 L 262.3 81.6 L 265.7 81.3 L 269.1 81.1 L 272.5 80.8 L 275.9 80.6 L 279.2 80.3 L 282.6 80.0 L 286.0 79.8 L 289.4 79.5 L 292.7 79.3 L 296.1 79.0 L 299.5 78.8 L 302.9 78.5 L 306.3 78.2 L 309.6 78.0 L 313.0 77.7 L 316.4 77.5 L 319.8 77.2 L 323.2 76.9 L 326.5 76.7 L 329.9 76.4 L 333.3 76.1 L 336.7 75.9 L 340.1 75.6 L 343.4 75.4 L 346.8 75.1 L 350.2 74.8 L 353.6 74.6 L 357.0 74.3 L 360.3 74.1 L 363.7 73.8 L 367.1 73.6 L 370.5 73.3 L 373.8 73.0 L 377.2 72.8 L 380.6 72.5 L 384.0 72.3 L 387.4 72.0 L 390.7 71.8 L 394.1 71.5 L 397.5 71.3 L 400.9 71.0 L 404.3 70.8 L 407.6 70.5 L 411.0 70.3 L 414.4 70.0 L 417.8 69.8 L 421.2 69.5 L 424.5 69.3 L 427.9 69.0 L 431.3 68.8 L 434.7 68.5 L 438.0 68.3 L 441.4 68.1 L 444.8 67.8 L 448.2 67.6 L 451.6 67.4 L 454.9 67.1 L 458.3 66.9 L 461.7 66.7 L 465.1 66.4 L 468.5 66.2 L 471.8 66.0 L 475.2 65.7 L 478.6 65.5 L 482.0 65.3 L 485.4 65.1 L 488.7 64.9 L 492.1 64.6 L 495.5 64.4 L 498.9 64.2 L 502.3 64.0 L 505.6 63.8 L 509.0 63.6 L 512.4 63.4 L 515.8 63.2 L 519.1 63.0 L 522.5 62.8 L 525.9 62.6 L 529.3 62.4 L 532.7 62.2 L 536.0 62.0 L 539.4 61.8 L 542.8 61.7 L 546.2 61.5 L 549.6 61.3 L 552.9 61.1 L 556.3 60.9 L 559.7 60.8 L 563.1 60.6 L 566.5 60.4 L 569.8 60.3 L 573.2 60.1" fill="none" stroke="#2F4F4F" stroke-linecap="round" stroke-linejoin="round" stroke-width="2.5" /><path d="M 576.6 819.9 L 580.0 819.8 L 583.4 819.6 L 586.7 819.5 L 590.1 819.3 L 593.5 819.2 L 596.9 819.0 L 600.2 818.9 L 603.6 818.8 L 607.0 818.6 L 610.4 818.5 L 613.8 818.4 L 617.1 818.2 L 620.5 818.1 L 623.9 818.0 L 627.3 817.9 L 630.7 817.8 L 634.0 817.7 L 637.4 817.6 L 640.8 817.5 L 644.2 817.4 L 647.6 817.3 L 650.9 817.2 L 654.3 817.1 L 657.7 817.0 L 661.1 816.9 L 664.5 816.8 L 667.8 816.7 L 671.2 816.7 L 674.6 816.6 L 678.0 816.5 L 681.3 816.5 L 684.7 816.4 L 688.1 816.4 L 691.5 816.3 L 694.9 816.2 L 698.2 816.2 L 701.6 816.2 L 705.0 816.1 L 708.4 816.1 L 711.8 816.0 L 715.1 816.0 L 718.5 816.0 L 721.9 816.0 L 725.3 816.0 L 728.7 815.9 L 732.0 815.9 L 735.4 815.9 L 738.8 815.9 L 742.2 815.9 L 745.5 815.9 L 748.9 815.9 L 752.3 815.9 L 755.7 815.9 L 759.1 816.0 L 762.4 816.0 L 765.8 816.0 L 769.2 816.0 L 772.6 816.1 L 776.0 816.1 L 779.3 816.1 L 782.7 816.2 L 786.1 816.2 L 789.5 816.3 L 792.9 816.3 L 796.2 816.4 L 799.6 816.4 L 803.0 816.5 L 806.4 816.6 L 809.8 816.6 L 813.1 816.7 L 816.5 816.8 L 819.9 816.9 L 823.3 816.9 L 826.6 817.0 L 830.0 817.1 L 833.4 817.2 L 836.8 817.3 L 840.2 817.4 L 843.5 817.5 L 846.9 817.6 L 850.3 817.7 L 853.7 817.8 L 857.1 817.9 L 860.4 818.0 L 863.8 818.2 L 867.2 818.3 L 870.6 818.4 L 874.0 818.5 L 877.3 818.6 L 880.7 818.8 L 884.1 818.9 L 887.5 819.0 L 890.9 819.2 L 894.2 819.3 L 897.6 819.4 L 901.0 819.6 L 904.4 819.7 L 907.7 819.9" fill="none" stroke="#2F4F4F" stroke-linecap="round" stroke-linejoin="round" stroke-width="2.5" /><path d="M 911.1 60.0 L 914.5 60.2 L 917.9 60.3 L 921.3 60.5 L 924.6 60.6 L 928.0 60.8 L 931.4 60.9 L 934.8 61.1 L 938.2 61.2 L 941.5 61.4 L 944.9 61.6 L 948.3 61.7 L 951.7 61.9 L 955.1 62.0 L 958.4 62.2 L 961.8 62.4 L 965.2 62.5 L 968.6 62.7 L 972.0 62.9 L 975.3 63.0 L 978.7 63.2 L 982.1 63.4 L 985.5 63.5 L 988.8 63.7 L 992.2 63.8 L 995.6 64.0 L 999.0 64.2 L 1002.4 64.3 L 1005.7 64.5 L 1009.1 64.7 L 1012.5 64.8 L 1015.9 65.0 L 1019.3 65.1 L 1022.6 65.3 L 1026.0 65.4 L 1029.4 65.6 L 1032.8 65.7 L 1036.2 65.9 L 1039.5 66.1 L 1042.9 66.2 L 1046.3 66.3 L 1049.7 66.5 L 1053.0 66.6 L 1056.4 66.8 L 1059.8 66.9 L 1063.2 67.1 L 1066.6 67.2 L 1069.9 67.3 L 1073.3 67.5 L 1076.7 67.6 L 1080.1 67.7 L 1083.5 67.8 L 1086.8 68.0 L 1090.2 68.1 L 1093.6 68.2 L 1097.0 68.3 L 1100.4 68.4 L 1103.7 68.5 L 1107.1 68.6 L 1110.5 68.7 L 1113.9 68.8 L 1117.3 68.9 L 1120.6 69.0 L 1124.0 69.1 L 1127.4 69.2 L 1130.8 69.3 L 1134.1 69.4 L 1137.5 69.4 L 1140.9 69.5 L 1144.3 69.6 L 1147.7 69.6 L 1151.0 69.7 L 1154.4 69.8 L 1157.8 69.8 L 1161.2 69.9 L 1164.6 69.9 L 1167.9 70.0 L 1171.3 70.0 L 1174.7 70.0 L 1178.1 70.1 L 1181.5 70.1 L 1184.8 70.1 L 1188.2 70.2 L 1191.6 70.2 L 1195.0 70.2 L 1198.4 70.2 L 1201.7 70.2 L 1205.1 70.2 L 1208.5 70.2 L 1211.9 70.2 L 1215.2 70.2 L 1218.6 70.2 L 1222.0 70.2 L 1225.4 70.2 L 1228.8 70.1 L 1232.1 70.1 L 1235.5 70.1 L 1238.9 70.1 L 1242.3 70.0 L 1245.7 70.0 L 1249.0 69.9 L 1252.4 69.9 L 1255.8 69.8 L 1259.2 69.8 L 1262.6 69.7 L 1265.9 69.7 L 1269.3 69.6 L 1272.7 69.5 L 1276.1 69.4 L 1279.5 69.4 L 1282.8 69.3 L 1286.2 69.2 L 1289.6 69.1 L 1293.0 69.0 L 1296.3 68.9 L 1299.7 68.8 L 1303.1 68.7 L 1306.5 68.6 L 1309.9 68.5 L 1313.2 68.4 L 1316.6 68.3 L 1320.0 68.2" fill="none" stroke="#2F4F4F" stroke-linecap="round" stroke-linejoin="round" stroke-width="2.5" /><path d="M 90.0 706.8 L 93.4 706.8 L 96.8 706.9 L 100.1 706.9 L 103.5 707.0 L 106.9 707.0 L 110.3 707.1 L 113.7 707.1 L 117.0 707.2 L 120.4 707.2 L 123.8 707.2 L 127.2 707.3 L 130.5 707.3 L 133.9 707.3 L 137.3 707.3 L 140.7 707.4 L 144.1 707.4 L 147.4 707.4 L 150.8 707.4 L 154.2 707.5 L 157.6 707.5 L 161.0 707.5 L 164.3 707.5 L 167.7 707.5 L 171.1 707.5 L 174.5 707.5 L 177.9 707.5 L 181.2 707.6 L 184.6 707.6 L 188.0 707.6 L 191.4 707.6 L 194.8 707.6 L 198.1 707.6 L 201.5 707.5 L 204.9 707.5 L 208.3 707.5 L 211.6 707.5 L 215.0 707.5 L 218.4 707.5 L 221.8 707.5 L 225.2 707.4 L 228.5 707.4 L 231.9 707.4 L 235.3 707.4 L 238.7 707.4 L 242.1 707.3 L 245.4 707.3 L 248.8 707.3 L 252.2 707.2 L 255.6 707.2 L 259.0 707.2 L 262.3 707.1 L 265.7 707.1 L 269.1 707.0 L 272.5 707.0 L 275.9 706.9 L 279.2 706.9 L 282.6 706.8 L 286.0 706.8 L 289.4 706.7 L 292.7 706.7 L 296.1 706.6 L 299.5 706.6 L 302.9 706.5 L 306.3 706.5 L 309.6 706.4 L 313.0 706.3 L 316.4 706.3 L 319.8 706.2 L 323.2 706.1 L 326.5 706.1 L 329.9 706.0 L 333.3 705.9 L 336.7 705.8 L 340.1 705.8 L 343.4 705.7 L 346.8 705.6 L 350.2 705.5 L 353.6 705.4 L 357.0 705.4 L 360.3 705.3 L 363.7 705.2 L 367.1 705.1 L 370.5 705.0 L 373.8 704.9 L 377.2 704.8 L 380.6 704.7 L 384.0 704.6 L 387.4 704.5 L 390.7 704.5 L 394.1 704.4 L 397.5 704.3 L 400.9 704.2 L 404.3 704.1 L 407.6 704.0 L 411.0 703.9 L 414.4 703.8 L 417.8 703.6 L 421.2 703.5 L 424.5 703.4 L 427.9 703.3 L 431.3 703.2 L 434.7 703.1 L 438.0 703.0 L 441.4 702.9 L 444.8 702.8 L 448.2 702.7 L 451.6 702.6 L 454.9 702.4 L 458.3 702.3 L 461.7 702.2 L 465.1 702.1 L 468.5 702.0 L 471.8 701.9 L 475.2 701.8 L 478.6 701.6 L 482.0 701.5 L 485.4 701.4 L 488.7 701.3 L 492.1 701.2 L 495.5 701.0 L 498.9 700.9 L 502.3 700.8 L 505.6 700.7 L 509.0 700.6 L 512.4 700.4 L 515.8 700.3 L 519.1 700.2 L 522.5 700.1 L 525.9 700.0 L 529.3 699.8 L 532.7 699.7 L 536.0 699.6 L 539.4 699.5 L 542.8 699.3 L 546.2 699.2 L 549.6 699.1 L 552.9 699.0 L 556.3 698.9 L 559.7 698.7 L 563.1 698.6 L 566.5 698.5 L 569.8 698.4 L 573.2 698.2 L 576.6 698.1 L 580.0 698.0 L 583.4 697.9 L 586.7 697.7 L 590.1 697.6 L 593.5 697.5 L 596.9 697.4 L 600.2 697.3 L 603.6 697.1 L 607.0 697.0 L 610.4 696.9 L 613.8 696.8 L 617.1 696.7 L 620.5 696.5 L 623.9 696.4 L 627.3 696.3 L 630.7 696.2 L 634.0 696.1 L 637.4 696.0 L 640.8 695.8 L 644.2 695.7 L 647.6 695.6 L 650.9 695.5 L 654.3 695.4 L 657.7 695.3 L 661.1 695.2 L 664.5 695.1 L 667.8 695.0 L 671.2 694.8 L 674.6 694.7 L 678.0 694.6 L 681.3 694.5 L 684.7 694.4 L 688.1 694.3 L 691.5 694.2 L 694.9 694.1 L 698.2 694.0 L 701.6 693.9 L 705.0 693.8 L 708.4 693.7 L 711.8 693.6 L 715.1 693.5 L 718.5 693.4 L 721.9 693.3 L 725.3 693.2 L 728.7 693.1 L 732.0 693.0 L 735.4 692.9 L 738.8 692.9 L 742.2 692.8 L 745.5 692.7 L 748.9 692.6 L 752.3 692.5 L 755.7 692.4 L 759.1 692.4 L 762.4 692.3 L 765.8 692.2 L 769.2 692.1 L 772.6 692.0 L 776.0 692.0 L 779.3 691.9 L 782.7 691.8 L 786.1 691.7 L 789.5 691.7 L 792.9 691.6 L 796.2 691.5 L 799.6 691.5 L 803.0 691.4 L 806.4 691.4 L 809.8 691.3 L 813.1 691.2 L 816.5 691.2 L 819.9 691.1 L 823.3 691.1 L 826.6 691.0 L 830.0 691.0 L 833.4 690.9 L 836.8 690.9 L 840.2 690.8 L 843.5 690.8 L 846.9 690.7 L 850.3 690.7 L 853.7 690.7 L 857.1 690.6 L 860.4 690.6 L 863.8 690.6 L 867.2 690.5 L 870.6 690.5 L 874.0 690.5 L 877.3 690.4 L 880.7 690.4 L 884.1 690.4 L 887.5 690.4 L 890.9 690.3 L 894.2 690.3 L 897.6 690.3 L 901.0 690.3 L 904.4 690.3 L 907.7 690.3 L 911.1 690.3 L 914.5 690.3 L 917.9 690.2 L 921.3 690.2 L 924.6 690.2 L 928.0 690.2 L 931.4 690.2 L 934.8 690.2 L 938.2 690.3 L 941.5 690.3 L 944.9 690.3 L 948.3 690.3 L 951.7 690.3 L 955.1 690.3 L 958.4 690.3 L 961.8 690.3 L 965.2 690.4 L 968.6 690.4 L 972.0 690.4 L 975.3 690.4 L 978.7 690.4 L 982.1 690.5 L 985.5 690.5 L 988.8 690.5 L 992.2 690.6 L 995.6 690.6 L 999.0 690.6 L 1002.4 690.7 L 1005.7 690.7 L 1009.1 690.8 L 1012.5 690.8 L 1015.9 690.8 L 1019.3 690.9 L 1022.6 690.9 L 1026.0 691.0 L 1029.4 691.0 L 1032.8 691.1 L 1036.2 691.1 L 1039.5 691.2 L 1042.9 691.3 L 1046.3 691.3 L 1049.7 691.4 L 1053.0 691.4 L 1056.4 691.5 L 1059.8 691.6 L 1063.2 691.6 L 1066.6 691.7 L 1069.9 691.7 L 1073.3 691.8 L 1076.7 691.9 L 1080.1 692.0 L 1083.5 692.0 L 1086.8 692.1 L 1090.2 692.2 L 1093.6 692.2 L 1097.0 692.3 L 1100.4 692.4 L 1103.7 692.5 L 1107.1 692.5 L 1110.5 692.6 L 1113.9 692.7 L 1117.3 692.8 L 1120.6 692.9 L 1124.0 692.9 L 1127.4 693.0 L 1130.8 693.1 L 1134.1 693.2 L 1137.5 693.3 L 1140.9 693.4 L 1144.3 693.5 L 1147.7 693.5 L 1151.0 693.6 L 1154.4 693.7 L 1157.8 693.8 L 1161.2 693.9 L 1164.6 694.0 L 1167.9 694.1 L 1171.3 694.1 L 1174.7 694.2 L 1178.1 694.3 L 1181.5 694.4 L 1184.8 694.5 L 1188.2 694.6 L 1191.6 694.7 L 1195.0 694.8 L 1198.4 694.9 L 1201.7 694.9 L 1205.1 695.0 L 1208.5 695.1 L 1211.9 695.2 L 1215.2 695.3 L 1218.6 695.4 L 1222.0 695.5 L 1225.4 695.6 L 1228.8 695.6 L 1232.1 695.7 L 1235.5 695.8 L 1238.9 695.9 L 1242.3 696.0 L 1245.7 696.1 L 1249.0 696.1 L 1252.4 696.2 L 1255.8 696.3 L 1259.2 696.4 L 1262.6 696.5 L 1265.9 696.5 L 1269.3 696.6 L 1272.7 696.7 L 1276.1 696.8 L 1279.5 696.8 L 1282.8 696.9 L 1286.2 697.0 L 1289.6 697.1 L 1293.0 697.1 L 1296.3 697.2 L 1299.7 697.3 L 1303.1 697.3 L 1306.5 697.4 L 1309.9 697.5 L 1313.2 697.5 L 1316.6 697.6 L 1320.0 697.6" fill="none" stroke="#00CED1" stroke-linecap="round" stroke-linejoin="round" stroke-width="2.5" /><path d="M 90.0 65.7 L 93.4 65.7 L 96.8 65.6 L 100.1 65.6 L 103.5 65.6 L 106.9 65.5 L 110.3 65.5 L 113.7 65.5 L 117.0 65.4 L 120.4 65.4 L 123.8 65.3 L 127.2 65.3 L 130.5 65.3 L 133.9 65.2 L 137.3 65.2 L 140.7 65.1 L 144.1 65.1 L 147.4 65.0 L 150.8 65.0 L 154.2 64.9 L 157.6 64.9 L 161.0 64.8 L 164.3 64.8 L 167.7 64.7 L 171.1 64.7 L 174.5 64.6 L 177.9 64.6 L 181.2 64.5 L 184.6 64.4 L 188.0 64.4 L 191.4 64.3 L 194.8 64.3 L 198.1 64.2 L 201.5 64.1 L 204.9 64.1 L 208.3 64.0 L 211.6 63.9 L 215.0 63.9 L 218.4 63.8 L 221.8 63.7 L 225.2 63.7 L 228.5 63.6 L 231.9 63.5 L 235.3 63.5 L 238.7 63.4 L 242.1 63.3 L 245.4 63.3 L 248.8 63.2 L 252.2 63.1 L 255.6 63.1 L 259.0 63.0 L 262.3 62.9 L 265.7 62.8 L 269.1 62.8 L 272.5 62.7 L 275.9 62.6 L 279.2 62.5 L 282.6 62.5 L 286.0 62.4 L 289.4 62.3 L 292.7 62.2 L 296.1 62.1 L 299.5 62.1 L 302.9 62.0 L 306.3 61.9 L 309.6 61.8 L 313.0 61.8 L 316.4 61.7 L 319.8 61.6 L 323.2 61.5 L 326.5 61.4 L 329.9 61.4 L 333.3 61.3 L 336.7 61.2 L 340.1 61.1 L 343.4 61.0 L 346.8 61.0 L 350.2 60.9 L 353.6 60.8 L 357.0 60.7 L 360.3 60.6 L 363.7 60.6 L 367.1 60.5 L 370.5 60.4 L 373.8 60.3 L 377.2 60.2 L 380.6 60.2 L 384.0 60.1" fill="none" stroke="#7B68EE" stroke-linecap="round" stroke-linejoin="round" stroke-width="2.5" /><path d="M 387.4 820.0 L 390.7 819.9 L 394.1 819.8 L 397.5 819.8 L 400.9 819.7 L 404.3 819.6 L 407.6 819.5 L 411.0 819.5 L 414.4 819.4 L 417.8 819.3 L 421.2 819.2 L 424.5 819.1 L 427.9 819.1 L 431.3 819.0 L 434.7 818.9 L 438.0 818.8 L 441.4 818.8 L 444.8 818.7 L 448.2 818.6 L 451.6 818.5 L 454.9 818.5 L 458.3 818.4 L 461.7 818.3 L 465.1 818.3 L 468.5 818.2 L 471.8 818.1 L 475.2 818.1 L 478.6 818.0 L 482.0 817.9 L 485.4 817.9 L 488.7 817.8 L 492.1 817.7 L 495.5 817.7 L 498.9 817.6 L 502.3 817.5 L 505.6 817.5 L 509.0 817.4 L 512.4 817.3 L 515.8 817.3 L 519.1 817.2 L 522.5 817.2 L 525.9 817.1 L 529.3 817.0 L 532.7 817.0 L 536.0 816.9 L 539.4 816.9 L 542.8 816.8 L 546.2 816.8 L 549.6 816.7 L 552.9 816.7 L 556.3 816.6 L 559.7 816.6 L 563.1 816.5 L 566.5 816.5 L 569.8 816.4 L 573.2 816.4 L 576.6 816.3 L 580.0 816.3 L 583.4 816.2 L 586.7 816.2 L 590.1 816.2 L 593.5 816.1 L 596.9 816.1 L 600.2 816.0 L 603.6 816.0 L 607.0 816.0 L 610.4 815.9 L 613.8 815.9 L 617.1 815.9 L 620.5 815.8 L 623.9 815.8 L 627.3 815.8 L 630.7 815.7 L 634.0 815.7 L 637.4 815.7 L 640.8 815.7 L 644.2 815.6 L 647.6 815.6 L 650.9 815.6 L 654.3 815.6 L 657.7 815.6 L 661.1 815.5 L 664.5 815.5 L 667.8 815.5 L 671.2 815.5 L 674.6 815.5 L 678.0 815.5 L 681.3 815.5 L 684.7 815.4 L 688.1 815.4 L 691.5 815.4 L 694.9 815.4 L 698.2 815.4 L 701.6 815.4 L 705.0 815.4 L 708.4 815.4 L 711.8 815.4 L 715.1 815.4 L 718.5 815.4 L 721.9 815.4 L 725.3 815.4 L 728.7 815.4 L 732.0 815.4 L 735.4 815.4 L 738.8 815.4 L 742.2 815.4 L 745.5 815.5 L 748.9 815.5 L 752.3 815.5 L 755.7 815.5 L 759.1 815.5 L 762.4 815.5 L 765.8 815.5 L 769.2 815.6 L 772.6 815.6 L 776.0 815.6 L 779.3 815.6 L 782.7 815.6 L 786.1 815.7 L 789.5 815.7 L 792.9 815.7 L 796.2 815.7 L 799.6 815.8 L 803.0 815.8 L 806.4 815.8 L 809.8 815.9 L 813.1 815.9 L 816.5 815.9 L 819.9 816.0 L 823.3 816.0 L 826.6 816.0 L 830.0 816.1 L 833.4 816.1 L 836.8 816.1 L 840.2 816.2 L 843.5 816.2 L 846.9 816.3 L 850.3 816.3 L 853.7 816.3 L 857.1 816.4 L 860.4 816.4 L 863.8 816.5 L 867.2 816.5 L 870.6 816.6 L 874.0 816.6 L 877.3 816.6 L 880.7 816.7 L 884.1 816.7 L 887.5 816.8 L 890.9 816.8 L 894.2 816.9 L 897.6 816.9 L 901.0 817.0 L 904.4 817.0 L 907.7 817.1 L 911.1 817.2 L 914.5 817.2 L 917.9 817.3 L 921.3 817.3 L 924.6 817.4 L 928.0 817.4 L 931.4 817.5 L 934.8 817.5 L 938.2 817.6 L 941.5 817.6 L 944.9 817.7 L 948.3 817.8 L 951.7 817.8 L 955.1 817.9 L 958.4 817.9 L 961.8 818.0 L 965.2 818.0 L 968.6 818.1 L 972.0 818.2 L 975.3 818.2 L 978.7 818.3 L 982.1 818.3 L 985.5 818.4 L 988.8 818.5 L 992.2 818.5 L 995.6 818.6 L 999.0 818.6 L 1002.4 818.7 L 1005.7 818.7 L 1009.1 818.8 L 1012.5 818.9 L 1015.9 818.9 L 1019.3 819.0 L 1022.6 819.0 L 1026.0 819.1 L 1029.4 819.2 L 1032.8 819.2 L 1036.2 819.3 L 1039.5 819.3 L 1042.9 819.4 L 1046.3 819.4 L 1049.7 819.5 L 1053.0 819.5 L 1056.4 819.6 L 1059.8 819.6 L 1063.2 819.7 L 1066.6 819.8 L 1069.9 819.8 L 1073.3 819.9 L 1076.7 819.9 L 1080.1 820.0" fill="none" stroke="#7B68EE" stroke-linecap="round" stroke-linejoin="round" stroke-width="2.5" /><path d="M 1083.5 60.0 L 1086.8 60.1 L 1090.2 60.1 L 1093.6 60.1 L 1097.0 60.2 L 1100.4 60.2 L 1103.7 60.3 L 1107.1 60.3 L 1110.5 60.4 L 1113.9 60.4 L 1117.3 60.5 L 1120.6 60.5 L 1124.0 60.5 L 1127.4 60.6 L 1130.8 60.6 L 1134.1 60.7 L 1137.5 60.7 L 1140.9 60.7 L 1144.3 60.8 L 1147.7 60.8 L 1151.0 60.8 L 1154.4 60.9 L 1157.8 60.9 L 1161.2 60.9 L 1164.6 61.0 L 1167.9 61.0 L 1171.3 61.0 L 1174.7 61.0 L 1178.1 61.1 L 1181.5 61.1 L 1184.8 61.1 L 1188.2 61.1 L 1191.6 61.2 L 1195.0 61.2 L 1198.4 61.2 L 1201.7 61.2 L 1205.1 61.2 L 1208.5 61.2 L 1211.9 61.3 L 1215.2 61.3 L 1218.6 61.3 L 1222.0 61.3 L 1225.4 61.3 L 1228.8 61.3 L 1232.1 61.3 L 1235.5 61.3 L 1238.9 61.3 L 1242.3 61.3 L 1245.7 61.3 L 1249.0 61.3 L 1252.4 61.3 L 1255.8 61.3 L 1259.2 61.3 L 1262.6 61.3 L 1265.9 61.3 L 1269.3 61.3 L 1272.7 61.3 L 1276.1 61.3 L 1279.5 61.3 L 1282.8 61.3 L 1286.2 61.3 L 1289.6 61.2 L 1293.0 61.2 L 1296.3 61.2 L 1299.7 61.2 L 1303.1 61.2 L 1306.5 61.1 L 1309.9 61.1 L 1313.2 61.1 L 1316.6 61.1 L 1320.0 61.1" fill="none" stroke="#7B68EE" stroke-linecap="round" stroke-linejoin="round" stroke-width="2.5" /><path d="M 90.0 184.4 L 93.4 184.3 L 96.8 184.3 L 100.1 184.2 L 103.5 184.1 L 106.9 184.1 L 110.3 184.0 L 113.7 183.9 L 117.0 183.9 L 120.4 183.8 L 123.8 183.7 L 127.2 183.7 L 130.5 183.6 L 133.9 183.5 L 137.3 183.5 L 140.7 183.4 L 144.1 183.3 L 147.4 183.2 L 150.8 183.2 L 154.2 183.1 L 157.6 183.0 L 161.0 183.0 L 164.3 182.9 L 167.7 182.8 L 171.1 182.8 L 174.5 182.7 L 177.9 182.6 L 181.2 182.6 L 184.6 182.5 L 188.0 182.4 L 191.4 182.4 L 194.8 182.3 L 198.1 182.2 L 201.5 182.2 L 204.9 182.1 L 208.3 182.0 L 211.6 182.0 L 215.0 181.9 L 218.4 181.8 L 221.8 181.8 L 225.2 181.7 L 228.5 181.6 L 231.9 181.6 L 235.3 181.5 L 238.7 181.4 L 242.1 181.4 L 245.4 181.3 L 248.8 181.3 L 252.2 181.2 L 255.6 181.1 L 259.0 181.1 L 262.3 181.0 L 265.7 181.0 L 269.1 180.9 L 272.5 180.8 L 275.9 180.8 L 279.2 180.7 L 282.6 180.7 L 286.0 180.6 L 289.4 180.5 L 292.7 180.5 L 296.1 180.4 L 299.5 180.4 L 302.9 180.3 L 306.3 180.3 L 309.6 180.2 L 313.0 180.2 L 316.4 180.1 L 319.8 180.1 L 323.2 180.0 L 326.5 180.0 L 329.9 179.9 L 333.3 179.9 L 336.7 179.8 L 340.1 179.8 L 343.4 179.7 L 346.8 179.7 L 350.2 179.6 L 353.6 179.6 L 357.0 179.6 L 360.3 179.5 L 363.7 179.5 L 367.1 179.4 L 370.5 179.4 L 373.8 179.4 L 377.2 179.3 L 380.6 179.3 L 384.0 179.2 L 387.4 179.2 L 390.7 179.2 L 394.1 179.1 L 397.5 179.1 L 400.9 179.1 L 404.3 179.1 L 407.6 179.0 L 411.0 179.0 L 414.4 179.0 L 417.8 178.9 L 421.2 178.9 L 424.5 178.9 L 427.9 178.9 L 431.3 178.8 L 434.7 178.8 L 438.0 178.8 L 441.4 178.8 L 444.8 178.8 L 448.2 178.8 L 451.6 178.7 L 454.9 178.7 L 458.3 178.7 L 461.7 178.7 L 465.1 178.7 L 468.5 178.7 L 471.8 178.7 L 475.2 178.6 L 478.6 178.6 L 482.0 178.6 L 485.4 178.6 L 488.7 178.6 L 492.1 178.6 L 495.5 178.6 L 498.9 178.6 L 502.3 178.6 L 505.6 178.6 L 509.0 178.6 L 512.4 178.6 L 515.8 178.6 L 519.1 178.6 L 522.5 178.6 L 525.9 178.6 L 529.3 178.6 L 532.7 178.6 L 536.0 178.6 L 539.4 178.7 L 542.8 178.7 L 546.2 178.7 L 549.6 178.7 L 552.9 178.7 L 556.3 178.7 L 559.7 178.7 L 563.1 178.7 L 566.5 178.8 L 569.8 178.8 L 573.2 178.8 L 576.6 178.8 L 580.0 178.8 L 583.4 178.9 L 586.7 178.9 L 590.1 178.9 L 593.5 178.9 L 596.9 178.9 L 600.2 179.0 L 603.6 179.0 L 607.0 179.0 L 610.4 179.1 L 613.8 179.1 L 617.1 179.1 L 620.5 179.1 L 623.9 179.2 L 627.3 179.2 L 630.7 179.2 L 634.0 179.3 L 637.4 179.3 L 640.8 179.3 L 644.2 179.4 L 647.6 179.4 L 650.9 179.4 L 654.3 179.5 L 657.7 179.5 L 661.1 179.6 L 664.5 179.6 L 667.8 179.6 L 671.2 179.7 L 674.6 179.7 L 678.0 179.8 L 681.3 179.8 L 684.7 179.8 L 688.1 179.9 L 691.5 179.9 L 694.9 180.0 L 698.2 180.0 L 701.6 180.1 L 705.0 180.1 L 708.4 180.1 L 711.8 180.2 L 715.1 180.2 L 718.5 180.3 L 721.9 180.3 L 725.3 180.4 L 728.7 180.4 L 732.0 180.5 L 735.4 180.5 L 738.8 180.6 L 742.2 180.6 L 745.5 180.7 L 748.9 180.7 L 752.3 180.8 L 755.7 180.8 L 759.1 180.9 L 762.4 180.9 L 765.8 181.0 L 769.2 181.0 L 772.6 181.1 L 776.0 181.1 L 779.3 181.2 L 782.7 181.2 L 786.1 181.3 L 789.5 181.3 L 792.9 181.4 L 796.2 181.4 L 799.6 181.5 L 803.0 181.5 L 806.4 181.6 L 809.8 181.6 L 813.1 181.7 L 816.5 181.7 L 819.9 181.8 L 823.3 181.8 L 826.6 181.9 L 830.0 181.9 L 833.4 181.9 L 836.8 182.0 L 840.2 182.0 L 843.5 182.1 L 846.9 182.1 L 850.3 182.2 L 853.7 182.2 L 857.1 182.3 L 860.4 182.3 L 863.8 182.4 L 867.2 182.4 L 870.6 182.4 L 874.0 182.5 L 877.3 182.5 L 880.7 182.6 L 884.1 182.6 L 887.5 182.7 L 890.9 182.7 L 894.2 182.7 L 897.6 182.8 L 901.0 182.8 L 904.4 182.9 L 907.7 182.9 L 911.1 182.9 L 914.5 183.0 L 917.9 183.0 L 921.3 183.0 L 924.6 183.1 L 928.0 183.1 L 931.4 183.1 L 934.8 183.2 L 938.2 183.2 L 941.5 183.2 L 944.9 183.3 L 948.3 183.3 L 951.7 183.3 L 955.1 183.4 L 958.4 183.4 L 961.8 183.4 L 965.2 183.4 L 968.6 183.5 L 972.0 183.5 L 975.3 183.5 L 978.7 183.5 L 982.1 183.6 L 985.5 183.6 L 988.8 183.6 L 992.2 183.6 L 995.6 183.6 L 999.0 183.6 L 1002.4 183.7 L 1005.7 183.7 L 1009.1 183.7 L 1012.5 183.7 L 1015.9 183.7 L 1019.3 183.7 L 1022.6 183.7 L 1026.0 183.7 L 1029.4 183.8 L 1032.8 183.8 L 1036.2 183.8 L 1039.5 183.8 L 1042.9 183.8 L 1046.3 183.8 L 1049.7 183.8 L 1053.0 183.8 L 1056.4 183.8 L 1059.8 183.8 L 1063.2 183.8 L 1066.6 183.8 L 1069.9 183.8 L 1073.3 183.8 L 1076.7 183.8 L 1080.1 183.8 L 1083.5 183.7 L 1086.8 183.7 L 1090.2 183.7 L 1093.6 183.7 L 1097.0 183.7 L 1100.4 183.7 L 1103.7 183.7 L 1107.1 183.7 L 1110.5 183.6 L 1113.9 183.6 L 1117.3 183.6 L 1120.6 183.6 L 1124.0 183.6 L 1127.4 183.5 L 1130.8 183.5 L 1134.1 183.5 L 1137.5 183.5 L 1140.9 183.5 L 1144.3 183.4 L 1147.7 183.4 L 1151.0 183.4 L 1154.4 183.3 L 1157.8 183.3 L 1161.2 183.3 L 1164.6 183.3 L 1167.9 183.2 L 1171.3 183.2 L 1174.7 183.2 L 1178.1 183.1 L 1181.5 183.1 L 1184.8 183.0 L 1188.2 183.0 L 1191.6 183.0 L 1195.0 182.9 L 1198.4 182.9 L 1201.7 182.8 L 1205.1 182.8 L 1208.5 182.8 L 1211.9 182.7 L 1215.2 182.7 L 1218.6 182.6 L 1222.0 182.6 L 1225.4 182.5 L 1228.8 182.5 L 1232.1 182.4 L 1235.5 182.4 L 1238.9 182.3 L 1242.3 182.3 L 1245.7 182.2 L 1249.0 182.2 L 1252.4 182.1 L 1255.8 182.1 L 1259.2 182.0 L 1262.6 182.0 L 1265.9 181.9 L 1269.3 181.9 L 1272.7 181.8 L 1276.1 181.7 L 1279.5 181.7 L 1282.8 181.6 L 1286.2 181.6 L 1289.6 181.5 L 1293.0 181.5 L 1296.3 181.4 L 1299.7 181.3 L 1303.1 181.3 L 1306.5 181.2 L 1309.9 181.1 L 1313.2 181.1 L 1316.6 181.0 L 1320.0 181.0" fill="none" stroke="#8B0000" stroke-linecap="round" stroke-linejoin="round" stroke-width="2.5" /><circle cx="336.6758241758242" cy="799.7638127751662" fill="#FFA500" r="3" stroke="#FFA500" stroke-width="1.5" /><circle cx="414.3956043956044" cy="66.69979167378615" fill="none" r="3" stroke="#FFA500" stroke-width="1.5" /><circle cx="759.065934065934" cy="533.7935188667643" fill="#FFA500" r="3" stroke="#FFA500" stroke-width="1.5" /><circle cx="840.1648351648353" cy="557.6913774833565" fill="none" r="3" stroke="#FFA500" stroke-width="1.5" /><circle cx="1147.6648351648353" cy="298.9259757148392" fill="#FFA500" r="3" stroke="#FFA500" stroke-width="1.5" /><circle cx="1215.2472527472528" cy="332.8435992758262" fill="none" r="3" stroke="#FFA500" stroke-width="1.5" /><circle cx="292.74725274725273" cy="797.1342984724982" fill="#FF69B4" r="3" stroke="#FF69B4" stroke-width="1.5" /><circle cx="434.6703296703297" cy="71.33869564841481" fill="none" r="3" stroke="#FF69B4" stroke-width="1.5" /><circle cx="272.4725274725275" cy="594.0767328993394" fill="none" r="3" stroke="#DC143C" stroke-width="1.5" /><circle cx="204.8901098901099" cy="669.523426117981" fill="none" r="3" stroke="#4169E1" stroke-width="1.5" /><circle cx="1154.423076923077" cy="576.9024601114347" fill="#4169E1" r="3" stroke="#4169E1" stroke-width="1.5" /><circle cx="742.1703296703297" cy="815.9164247089071" fill="#2F4F4F" r="3" stroke="#2F4F4F" stroke-width="1.5" /><circle cx="1208.489010989011" cy="70.22271199320178" fill="none" r="3" stroke="#2F4F4F" stroke-width="1.5" /><circle cx="191.37362637362637" cy="707.5584485611618" fill="none" r="3" stroke="#00CED1" stroke-width="1.5" /><circle cx="928.021978021978" cy="690.2433492652685" fill="#00CED1" r="3" stroke="#00CED1" stroke-width="1.5" /><circle cx="715.1373626373626" cy="815.4073958009042" fill="#7B68EE" r="3" stroke="#7B68EE" stroke-width="1.5" /><circle cx="1252.4175824175825" cy="61.32381169170971" fill="none" r="3" stroke="#7B68EE" stroke-width="1.5" /><circle cx="509.010989010989" cy="178.60536923345475" fill="#8B0000" r="3" stroke="#8B0000" stroke-width="1.5" /><circle cx="1056.4285714285716" cy="183.78064578385792" fill="none" r="3" stroke="#8B0000" stroke-width="1.5" /><text fill="#333333" font-family="&quot;Symbola&quot;, &quot;Noto Sans Symbols&quot;, &quot;Apple Symbols&quot;, &quot;Segoe UI Symbol&quot;, &quot;Arial&quot;, sans-serif" font-size="10px" text-anchor="end" x="45" y="69.68987622706825">27°♓</text><text fill="#7B68EE" font-family="&quot;Symbola&quot;, &quot;Noto Sans Symbols&quot;, &quot;Apple Symbols&quot;, &quot;Segoe UI Symbol&quot;, serif" font-size="14px" text-anchor="end" x="82" y="70.68987622706825">♆</text><text fill="#333333" font-family="&quot;Symbola&quot;, &quot;Noto Sans Symbols&quot;, &quot;Apple Symbols&quot;, &quot;Segoe UI Symbol&quot;, &quot;Arial&quot;, sans-serif" font-size="10px" text-anchor="end" x="45" y="96.5912296955002">14°♓</text><text fill="#2F4F4F" font-family="&quot;Symbola&quot;, &quot;Noto Sans Symbols&quot;, &quot;Apple Symbols&quot;, &quot;Segoe UI Symbol&quot;, serif" font-size="14px" text-anchor="end" x="82" y="97.5912296955002">♄</text><text fill="#333333" font-family="&quot;Symbola&quot;, &quot;Noto Sans Symbols&quot;, &quot;Apple Symbols&quot;, &quot;Segoe UI Symbol&quot;, &quot;Arial&quot;, sans-serif" font-size="10px" text-anchor="end" x="45" y="131.03135302711436">28°♒</text><text fill="#FF69B4" font-family="&quot;Symbola&quot;, &quot;Noto Sans Symbols&quot;, &quot;Apple Symbols&quot;, &quot;Segoe UI Symbol&quot;, serif" font-size="14px" text-anchor="end" x="82" y="132.03135302711436">♀</text><text fill="#333333" font-family="&quot;Symbola&quot;, &quot;Noto Sans Symbols&quot;, &quot;Apple Symbols&quot;, &quot;Segoe UI Symbol&quot;, &quot;Arial&quot;, sans-serif" font-size="10px" text-anchor="end" x="45" y="188.3863124402919">1°♒</text><text fill="#8B0000" font-family="&quot;Symbola&quot;, &quot;Noto Sans Symbols&quot;, &quot;Apple Symbols&quot;, &quot;Segoe UI Symbol&quot;, serif" font-size="14px" text-anchor="end" x="82" y="189.3863124402919">♇</text><text fill="#333333" font-family="&quot;Symbola&quot;, &quot;Noto Sans Symbols&quot;, &quot;Apple Symbols&quot;, &quot;Segoe UI Symbol&quot;, &quot;Arial&quot;, sans-serif" font-size="10px" text-anchor="end" x="45" y="230.09497255284737">11°♑</text><text fill="#FFD700" font-family="&quot;Symbola&quot;, &quot;Noto Sans Symbols&quot;, &quot;Apple Symbols&quot;, &quot;Segoe UI Symbol&quot;, serif" font-size="14px" text-anchor="end" x="82" y="231.09497255284737">☉</text><text fill="#333333" font-family="&quot;Symbola&quot;, &quot;Noto Sans Symbols&quot;, &quot;Apple Symbols&quot;, &quot;Segoe UI Symbol&quot;, &quot;Arial&quot;, sans-serif" font-size="10px" text-anchor="end" x="45" y="274.0209690323686">20°♐</text><text fill="#FFA500" font-family="&quot;Symbola&quot;, &quot;Noto Sans Symbols&quot;, &quot;Apple Symbols&quot;, &quot;Segoe UI Symbol&quot;, serif" font-size="14px" text-anchor="end" x="82" y="275.0209690323686">☿</text><text fill="#333333" font-family="&quot;Symbola&quot;, &quot;Noto Sans Symbols&quot;, &quot;Apple Symbols&quot;, &quot;Segoe UI Symbol&quot;, &quot;Arial&quot;, sans-serif" font-size="10px" text-anchor="end" x="45" y="566.9665390841678">1°♌</text><text fill="#DC143C" font-family="&quot;Symbola&quot;, &quot;Noto Sans Symbols&quot;, &quot;Apple Symbols&quot;, &quot;Segoe UI Symbol&quot;, serif" font-size="14px" text-anchor="end" x="82" y="567.9665390841678">♂</text><text fill="#333333" font-family="&quot;Symbola&quot;, &quot;Noto Sans Symbols&quot;, &quot;Apple Symbols&quot;, &quot;Segoe UI Symbol&quot;, &quot;Arial&quot;, sans-serif" font-size="10px" text-anchor="end" x="45" y="669.5457882004689">13°♊</text><text fill="#4169E1" font-family="&quot;Symbola&quot;, &quot;Noto Sans Symbols&quot;, &quot;Apple Symbols&quot;, &quot;Segoe UI Symbol&quot;, serif" font-size="14px" text-anchor="end" x="82" y="670.5457882004689">♃</text><text fill="#333333" font-family="&quot;Symbola&quot;, &quot;Noto Sans Symbols&quot;, &quot;Apple Symbols&quot;, &quot;Segoe UI Symbol&quot;, &quot;Arial&quot;, sans-serif" font-size="10px" text-anchor="end" x="45" y="710.7943538951796">23°♉</text><text fill="#00CED1" font-family="&quot;Symbola&quot;, &quot;Noto Sans Symbols&quot;, &quot;Apple Symbols&quot;, &quot;Segoe UI Symbol&quot;, serif" font-size="14px" text-anchor="end" x="82" y="711.7943538951796">♅</text><text fill="#7B68EE" font-family="&quot;Symbola&quot;, &quot;Noto Sans Symbols&quot;, &quot;Apple Symbols&quot;, &quot;Segoe UI Symbol&quot;, serif" font-size="14px" text-anchor="start" x="1328" y="66.05406308018985">♆</text><text fill="#333333" font-family="&quot;Symbola&quot;, &quot;Noto Sans Symbols&quot;, &quot;Apple Symbols&quot;, &quot;Segoe UI Symbol&quot;, &quot;Arial&quot;, sans-serif" font-size="10px" text-anchor="start" x="1348" y="65.05406308018985">29°♓</text><text fill="#2F4F4F" font-family="&quot;Symbola&quot;, &quot;Noto Sans Symbols&quot;, &quot;Apple Symbols&quot;, &quot;Segoe UI Symbol&quot;, serif" font-size="14px" text-anchor="start" x="1328" y="80.05406308018985">♄</text><text fill="#333333" font-family="&quot;Symbola&quot;, &quot;Noto Sans Symbols&quot;, &quot;Apple Symbols&quot;, &quot;Segoe UI Symbol&quot;, &quot;Arial&quot;, sans-serif" font-size="10px" text-anchor="start" x="1348" y="79.05406308018985">26°♓</text><text fill="#8B0000" font-family="&quot;Symbola&quot;, &quot;Noto Sans Symbols&quot;, &quot;Apple Symbols&quot;, &quot;Segoe UI Symbol&quot;, serif" font-size="14px" text-anchor="start" x="1328" y="185.9591228937865">♇</text><text fill="#333333" font-family="&quot;Symbola&quot;, &quot;Noto Sans Symbols&quot;, &quot;Apple Symbols&quot;, &quot;Segoe UI Symbol&quot;, &quot;Arial&quot;, sans-serif" font-size="10px" text-anchor="start" x="1348" y="184.9591228937865">2°♒</text><text fill="#DC143C" font-family="&quot;Symbola&quot;, &quot;Noto Sans Symbols&quot;, &quot;Apple Symbols&quot;, &quot;Segoe UI Symbol&quot;, serif" font-size="14px" text-anchor="start" x="1328" y="229.02264897283237">♂</text><text fill="#333333" font-family="&quot;Symbola&quot;, &quot;Noto Sans Symbols&quot;, &quot;Apple Symbols&quot;, &quot;Segoe UI Symbol&quot;, &quot;Arial&quot;, sans-serif" font-size="10px" text-anchor="start" x="1348" y="228.02264897283237">12°♑</text><text fill="#FFD700" font-family="&quot;Symbola&quot;, &quot;Noto Sans Symbols&quot;, &quot;Apple Symbols&quot;, &quot;Segoe UI Symbol&quot;, serif" font-size="14px" text-anchor="start" x="1328" y="243.02264897283237">☉</text><text fill="#333333" font-family="&quot;Symbola&quot;, &quot;Noto Sans Symbols&quot;, &quot;Apple Symbols&quot;, &quot;Segoe UI Symbol&quot;, &quot;Arial&quot;, sans-serif" font-size="10px" text-anchor="start" x="1348" y="242.02264897283237">10°♑</text><text fill="#FF69B4" font-family="&quot;Symbola&quot;, &quot;Noto Sans Symbols&quot;, &quot;Apple Symbols&quot;, &quot;Segoe UI Symbol&quot;, serif" font-size="14px" text-anchor="start" x="1328" y="257.02264897283237">♀</text><text fill="#333333" font-family="&quot;Symbola&quot;, &quot;Noto Sans Symbols&quot;, &quot;Apple Symbols&quot;, &quot;Segoe UI Symbol&quot;, &quot;Arial&quot;, sans-serif" font-size="10px" text-anchor="start" x="1348" y="256.02264897283237">8°♑</text><text fill="#FFA500" font-family="&quot;Symbola&quot;, &quot;Noto Sans Symbols&quot;, &quot;Apple Symbols&quot;, &quot;Segoe UI Symbol&quot;, serif" font-size="14px" text-anchor="start" x="1328" y="271.02264897283237">☿</text><text fill="#333333" font-family="&quot;Symbola&quot;, &quot;Noto Sans Symbols&quot;, &quot;Apple Symbols&quot;, &quot;Segoe UI Symbol&quot;, &quot;Arial&quot;, sans-serif" font-size="10px" text-anchor="start" x="1348" y="270.02264897283237">27°♐</text><text fill="#4169E1" font-family="&quot;Symbola&quot;, &quot;Noto Sans Symbols&quot;, &quot;Apple Symbols&quot;, &quot;Segoe UI Symbol&quot;, serif" font-size="14px" text-anchor="start" x="1328" y="589.7741752132264">♃</text><text fill="#333333" font-family="&quot;Symbola&quot;, &quot;Noto Sans Symbols&quot;, &quot;Apple Symbols&quot;, &quot;Segoe UI Symbol&quot;, &quot;Arial&quot;, sans-serif" font-size="10px" text-anchor="start" x="1348" y="588.7741752132264">21°♋</text><text fill="#00CED1" font-family="&quot;Symbola&quot;, &quot;Noto Sans Symbols&quot;, &quot;Apple Symbols&quot;, &quot;Segoe UI Symbol&quot;, serif" font-size="14px" text-anchor="start" x="1328" y="702.6335471184282">♅</text><text fill="#333333" font-family="&quot;Symbola&quot;, &quot;Noto Sans Symbols&quot;, &quot;Apple Symbols&quot;, &quot;Segoe UI Symbol&quot;, &quot;Arial&quot;, sans-serif" font-size="10px" text-anchor="start" x="1348" y="701.6335471184282">27°♉</text><circle cx="1200" cy="875" fill="#666666" r="3" stroke="#666666" stroke-width="1.5" /><text fill="#333333" font-family="Arial, sans-serif" font-size="10px" x="1210" y="879">Rx Station</text><circle cx="1280" cy="875" fill="none" r="3" stroke="#666666" stroke-width="1.5" /><text fill="#333333" font-family="Arial, sans-serif" font-size="10px" x="1290" y="879">Direct Station</text><text fill="#333333" font-family="Arial, sans-serif" font-size="18px" font-weight="bold" text-anchor="middle" x="700.0" y="30">Graphic Ephemeris 2025 (360° Harmonic)</text></svg>