<?xml version="1.0" encoding="utf-8" ?>
<svg baseProfile="full" height="900px" version="1.1" viewBox="0 0 1400 900" width="1400px" xmlns="http://www.w3.org/2000/svg" xmlns:ev="http://www.w3.org/2001/xml-events" xmlns:xlink="http://www.w3.org/1999/xlink"><defs /><rect fill="#FFFFFF" height="900" width="1400" x="0" y="0" /><line stroke="#D0D0D0" stroke-width="1.0" x1="90" x2="1320" y1="820.0" y2="820.0" /><line stroke="#E8E8E8" stroke-width="0.5" x1="90" x2="1320" y1="777.7777777777777" y2="777.7777777777777" /><line stroke="#E8E8E8" stroke-width="0.5" x1="90" x2="1320" y1="735.5555555555555" y2="735.5555555555555" /><line stroke="#E8E8E8" stroke-width="0.5" x1="90" x2="1320" y1="693.3333333333334" y2="693.3333333333334" /><line stroke="#E8E8E8" stroke-width="0.5" x1="90" x2="1320" y1="651.1111111111111" y2="651.1111111111111" /><line stroke="#E8E8E8" stroke-width="0.5" x1="90" x2="1320" y1="608.8888888888889" y2="608.8888888888889" /><line stroke="#D0D0D0" stroke-width="1.0" x1="90" x2="1320" y1="566.6666666666667" y2="566.6666666666667" /><line stroke="#E8E8E8" stroke-width="0.5" x1="90" x2="1320" y1="524.4444444444445" y2="524.4444444444445" /><line stroke="#E8E8E8" stroke-width="0.5" x1="90" x2="1320" y1="482.22222222222223" y2="482.22222222222223" /><line stroke="#E8E8E8" stroke-width="0.5" x1="90" x2="1320" y1="440.0" y2="440.0" /><line stroke="#E8E8E8" stroke-width="0.5" x1="90" x2="1320" y1="397.77777777777777" y2="397.77777777777777" /><line stroke="#E8E8E8" stroke-width="0.5" x1="90" x2="1320" y1="355.55555555555554" y2="355.55555555555554" /><line stroke="#D0D0D0" stroke-width="1.0" x1="90" x2="1320" y1="313.33333333333337" y2="313.33333333333337" /><line stroke="#E8E8E8" stroke-width="0.5" x1="90" x2="1320" y1="271.1111111111111" y2="271.1111111111111" /><line stroke="#E8E8E8" stroke-width="0.5" x1="90" x2="1320" y1="228.88888888888889" y2="228.88888888888889" /><line stroke="#E8E8E8" stroke-width="0.5" x1="90" x2="1320" y1="186.66666666666663" y2="186.66666666666663" /><line stroke="#E8E8E8" stroke-width="0.5" x1="90" x2="1320" y1="144.44444444444449" y2="144.44444444444449" /><line stroke="#E8E8E8" stroke-width="0.5" x1="90" x2="1320" y1="102.22222222222224" y2="102.22222222222224" /><line stroke="#D0D0D0" stroke-width="1.0" x1="90" x2="1320" y1="60.0" y2="60.0" /><line stroke="#D0D0D0" stroke-width="1.0" x1="90.0" x2="90.0" y1="60" y2="820" /><line stroke="#E8E8E8" stroke-width="0.5" x1="194.75274725274727" x2="194.75274725274727" y1="60" y2="820" /><line stroke="#E8E8E8" stroke-width="0.5" x1="289.36813186813185" x2="289.36813186813185" y1="60" y2="820" /><line stroke="#E8E8E8" stroke-width="0.5" x1="394.1208791208791" x2="394.1208791208791" y1="60" y2="820" /><line stroke="#E8E8E8" stroke-width="0.5" x1="495.49450549450546" x2="495.49450549450546" y1="60" y2="820" /><line stroke="#E8E8E8" stroke-width="0.5" x1="600.2472527472528" x2="600.2472527472528" y1="60" y2="820" /><line stroke="#E8E8E8" stroke-width="0.5" x1="701.6208791208792" x2="701.6208791208792" y1="60" y2="820" /><line stroke="#E8E8E8" stroke-width="0.5" x1="806.3736263736264" x2="806.3736263736264" y1="60" y2="820" /><line stroke="#E8E8E8" stroke-width="0.5" x1="911.1263736263736" x2="911.1263736263736" y1="60" y2="820" /><line stroke="#E8E8E8" stroke-width="0.5" x1="1012.5" x2="1012.5" y1="60" y2="820" /><line stroke="#E8E8E8" stroke-width="0.5" x1="1117.2527472527472" x2="1117.2527472527472" y1="60" y2="820" /><line stroke="#E8E8E8" stroke-width="0.5" x1="1218.6263736263736" x2="1218.6263736263736" y1="60" y2="820" /><text fill="#333333" font-family="&quot;Arial&quot;, &quot;Helvetica&quot;, sans-serif" font-size="11px" text-anchor="end" x="75" y="824.0">0° Cardinal</text><text fill="#888888" font-family="&quot;Arial&quot;, &quot;Helvetica&quot;, sans-serif" font-size="9px" text-anchor="end" x="75" y="781.7777777777777">5°</text><text fill="#888888" font-family="&quot;Arial&quot;, &quot;Helvetica&quot;, sans-serif" font-size="9px" text-anchor="end" x="75" y="739.5555555555555">10°</text><text fill="#888888" font-family="&quot;Arial&quot;, &quot;Helvetica&quot;, sans-serif" font-size="9px" text-anchor="end" x="75" y="697.3333333333334">15°</text><text fill="#888888" font-family="&quot;Arial&quot;, &quot;Helvetica&quot;, sans-serif" font-size="9px" text-anchor="end" x="75" y="655.1111111111111">20°</text><text fill="#888888" font-family="&quot;Arial&quot;, &quot;Helvetica&quot;, sans-serif" font-size="9px" text-anchor="end" x="75" y="612.8888888888889">25°</text><text fill="#333333" font-family="&quot;Arial&quot;, &quot;Helvetica&quot;, sans-serif" font-size="11px" text-anchor="end" x="75" y="570.6666666666667">0° Fixed</text><text fill="#888888" font-family="&quot;Arial&quot;, &quot;Helvetica&quot;, sans-serif" font-size="9px" text-anchor="end" x="75" y="528.4444444444445">5°</text><text fill="#888888" font-family="&quot;Arial&quot;, &quot;Helvetica&quot;, sans-serif" font-size="9px" text-anchor="end" x="75" y="486.22222222222223">10°</text><text fill="#888888" font-family="&quot;Arial&quot;, &quot;Helvetica&quot;, sans-serif" font-size="9px" text-anchor="end" x="75" y="444.0">15°</text><text fill="#888888" font-family="&quot;Arial&quot;, &quot;Helvetica&quot;, sans-serif" font-size="9px" text-anchor="end" x="75" y="401.77777777777777">20°</text><text fill="#888888" font-family="&quot;Arial&quot;, &quot;Helvetica&quot;, sans-serif" font-size="9px" text-anchor="end" x="75" y="359.55555555555554">25°</text><text fill="#333333" font-family="&quot;Arial&quot;, &quot;Helvetica&quot;, sans-serif" font-size="11px" text-anchor="end" x="75" y="317.33333333333337">0° Mutable</text><text fill="#888888" font-family="&quot;Arial&quot;, &quot;Helvetica&quot;, sans-serif" font-size="9px" text-anchor="end" x="75" y="275.1111111111111">5°</text><text fill="#888888" font-family="&quot;Arial&quot;, &quot;Helvetica&quot;, sans-serif" font-size="9px" text-anchor="end" x="75" y="232.88888888888889">10°</text><text fill="#888888" font-family="&quot;Arial&quot;, &quot;Helvetica&quot;, sans-serif" font-size="9px" text-anchor="end" x="75" y="190.66666666666663">15°</text><text fill="#888888" font-family="&quot;Arial&quot;, &quot;Helvetica&quot;, sans-serif" font-size="9px" text-anchor="end" x="75" y="148.44444444444449">20°</text><text fill="#888888" font-family="&quot;Arial&quot;, &quot;Helvetica&quot;, sans-serif" font-size="9px" text-anchor="end" x="75" y="106.22222222222224">25°</text><text fill="#333333" font-family="&quot;Arial&quot;, &quot;Helvetica&quot;, sans-serif" font-size="11px" text-anchor="end" x="75" y="64.0">0° Cardinal</text><text fill="#333333" font-family="Arial, sans-serif" font-size="10px" text-anchor="middle" x="90.0" y="840">Jan</text><text fill="#333333" font-family="Arial, sans-serif" font-size="12px" font-weight="bold" text-anchor="middle" x="90.0" y="855">2025</text><text fill="#333333" font-family="Arial, sans-serif" font-size="10px" text-anchor="middle" x="194.75274725274727" y="840">Feb</text><text fill="#333333" font-family="Arial, sans-serif" font-size="10px" text-anchor="middle" x="289.36813186813185" y="840">Mar</text><text fill="#333333" font-family="Arial, sans-serif" font-size="10px" text-anchor="middle" x="394.1208791208791" y="840">Apr</text><text fill="#333333" font-family="Arial, sans-serif" font-size="10px" text-anchor="middle" x="495.49450549450546" y="840">May</text><text fill="#333333" font-family="Arial, sans-serif" font-size="10px" text-anchor="middle" x="600.2472527472528" y="840">Jun</text><text fill="#333333" font-family="Arial, sans-serif" font-size="10px" text-anchor="middle" x="701.6208791208792" y="840">Jul</text><text fill="#333333" font-family="Arial, sans-serif" font-size="10px" text-anchor="middle" x="806.3736263736264" y="840">Aug</text><text fill="#333333" font-family="Arial, sans-serif" font-size="10px" text-anchor="middle" x="911.1263736263736" y="840">Sep</text><text fill="#333333" font-family="Arial, sans-serif" font-size="10px" text-anchor="middle" x="1012.5" y="840">Oct</text><text fill="#333333" font-family="Arial, sans-serif" font-size="10px" text-anchor="middle" x="1117.2527472527472" y="840">Nov</text><text fill="#333333" font-family="Arial, sans-serif" font-size="10px" text-anchor="middle" x="1218.6263736263736" y="840">Dec</text><path d="M 90.0 551.9 L 93.4 554.7 L 96.8 557.6 L 100.1 560.6 L 103.5 563.7 L 106.9 566.8 L 110.3 570.0 L 113.7 573.2 L 117.0 576.5 L 120.4 579.8 L 123.8 583.1 L 127.2 586.5 L 130.5 589.9 L 133.9 593.2 L 137.3 596.6 L 140.7 600.0 L 144.1 603.4 L 147.4 606.7 L 150.8 610.0 L 154.2 613.3 L 157.6 616.6 L 161.0 619.8 L 164.3 623.0 L 167.7 626.1 L 171.1 629.1 L 174.5 632.1 L 177.9 635.1 L 181.2 637.9 L 184.6 640.7 L 188.0 643.3 L 191.4 645.9 L 194.8 648.4 L 198.1 650.8 L 201.5 653.1 L 204.9 655.3 L 208.3 657.4 L 211.6 659.4 L 215.0 661.3 L 218.4 663.1 L 221.8 664.7 L 225.2 666.3 L 228.5 667.7 L 231.9 669.0 L 235.3 670.3 L 238.7 671.4 L 242.1 672.3 L 245.4 673.2 L 248.8 674.0 L 252.2 674.7 L 255.6 675.2 L 259.0 675.6 L 262.3 676.0 L 265.7 676.2 L 269.1 676.3 L 272.5 676.3 L 275.9 676.2 L 279.2 676.0 L 282.6 675.7 L 286.0 675.3 L 289.4 674.8 L 292.7 674.2 L 296.1 673.5 L 299.5 672.7 L 302.9 671.8 L 306.3 670.9 L 309.6 669.8 L 313.0 668.7 L 316.4 667.4 L 319.8 666.1 L 323.2 664.7 L 326.5 663.2 L 329.9 661.7 L 333.3 660.0 L 336.7 658.3 L 340.1 656.6 L 343.4 654.7 L 346.8 652.8 L 350.2 650.8 L 353.6 648.7 L 357.0 646.6 L 360.3 644.4 L 363.7 642.2 L 367.1 639.9 L 370.5 637.5 L 373.8 635.1 L 377.2 632.6 L 380.6 630.0 L 384.0 627.4 L 387.4 624.8 L 390.7 622.1 L 394.1 619.3 L 397.5 616.5 L 400.9 613.6 L 404.3 610.7 L 407.6 607.8 L 411.0 604.8 L 414.4 601.7 L 417.8 598.6 L 421.2 595.5 L 424.5 592.3 L 427.9 589.1 L 431.3 585.9 L 434.7 582.6 L 438.0 579.2 L 441.4 575.9 L 444.8 572.5 L 448.2 569.0 L 451.6 565.6 L 454.9 562.0 L 458.3 558.5 L 461.7 554.9 L 465.1 551.3 L 468.5 547.7 L 471.8 544.0 L 475.2 540.3 L 478.6 536.6 L 482.0 532.8 L 485.4 529.0 L 488.7 525.2 L 492.1 521.4 L 495.5 517.5 L 498.9 513.6 L 502.3 509.7 L 505.6 505.7 L 509.0 501.7 L 512.4 497.7 L 515.8 493.7 L 519.1 489.7 L 522.5 485.6 L 525.9 481.5 L 529.3 477.4 L 532.7 473.3 L 536.0 469.1 L 539.4 464.9 L 542.8 460.7 L 546.2 456.5 L 549.6 452.3 L 552.9 448.0 L 556.3 443.8 L 559.7 439.5 L 563.1 435.2 L 566.5 430.8 L 569.8 426.5 L 573.2 422.1 L 576.6 417.7 L 580.0 413.3 L 583.4 408.9 L 586.7 404.5 L 590.1 400.0 L 593.5 395.6 L 596.9 391.1 L 600.2 386.6 L 603.6 382.1 L 607.0 377.5 L 610.4 373.0 L 613.8 368.4 L 617.1 363.9 L 620.5 359.3 L 623.9 354.7 L 627.3 350.1 L 630.7 345.4 L 634.0 340.8 L 637.4 336.1 L 640.8 331.5 L 644.2 326.8 L 647.6 322.1 L 650.9 317.4 L 654.3 312.7 L 657.7 307.9 L 661.1 303.2 L 664.5 298.4 L 667.8 293.7 L 671.2 288.9 L 674.6 284.1 L 678.0 279.3 L 681.3 274.5 L 684.7 269.6 L 688.1 264.8 L 691.5 259.9 L 694.9 255.1 L 698.2 250.2 L 701.6 245.3 L 705.0 240.4 L 708.4 235.5 L 711.8 230.6 L 715.1 225.6 L 718.5 220.7 L 721.9 215.7 L 725.3 210.8 L 728.7 205.8 L 732.0 200.8 L 735.4 195.8 L 738.8 190.8 L 742.2 185.8 L 745.5 180.8 L 748.9 175.7 L 752.3 170.7 L 755.7 165.6 L 759.1 160.6 L 762.4 155.5 L 765.8 150.4 L 769.2 145.3 L 772.6 140.2 L 776.0 135.1 L 779.3 130.0 L 782.7 124.8 L 786.1 119.7 L 789.5 114.5 L 792.9 109.4 L 796.2 104.2 L 799.6 99.0 L 803.0 93.8 L 806.4 88.6 L 809.8 83.4 L 813.1 78.2 L 816.5 73.0 L 819.9 67.7 L 823.3 62.5" fill="none" stroke="#DC143C" stroke-linecap="round" stroke-linejoin="round" stroke-width="2.5" /><path d="M 826.6 817.2 L 830.0 812.0 L 833.4 806.7 L 836.8 801.4 L 840.2 796.1 L 843.5 790.8 L 846.9 785.5 L 850.3 780.2 L 853.7 774.9 L 857.1 769.5 L 860.4 764.2 L 863.8 758.8 L 867.2 753.5 L 870.6 748.1 L 874.0 742.7 L 877.3 737.3 L 880.7 731.9 L 884.1 726.5 L 887.5 721.1 L 890.9 715.6 L 894.2 710.2 L 897.6 704.8 L 901.0 699.3 L 904.4 693.8 L 907.7 688.4 L 911.1 682.9 L 914.5 677.4 L 917.9 671.9 L 921.3 666.4 L 924.6 660.9 L 928.0 655.3 L 931.4 649.8 L 934.8 644.3 L 938.2 638.7 L 941.5 633.1 L 944.9 627.6 L 948.3 622.0 L 951.7 616.4 L 955.1 610.8 L 958.4 605.2 L 961.8 599.6 L 965.2 594.0 L 968.6 588.3 L 972.0 582.7 L 975.3 577.0 L 978.7 571.4 L 982.1 565.7 L 985.5 560.0 L 988.8 554.3 L 992.2 548.6 L 995.6 542.9 L 999.0 537.2 L 1002.4 531.5 L 1005.7 525.8 L 1009.1 520.0 L 1012.5 514.3 L 1015.9 508.5 L 1019.3 502.7 L 1022.6 497.0 L 1026.0 491.2 L 1029.4 485.4 L 1032.8 479.6 L 1036.2 473.8 L 1039.5 468.0 L 1042.9 462.1 L 1046.3 456.3 L 1049.7 450.5 L 1053.0 444.6 L 1056.4 438.7 L 1059.8 432.9 L 1063.2 427.0 L 1066.6 421.1 L 1069.9 415.2 L 1073.3 409.3 L 1076.7 403.4 L 1080.1 397.4 L 1083.5 391.5 L 1086.8 385.6 L 1090.2 379.6 L 1093.6 373.7 L 1097.0 367.7 L 1100.4 361.7 L 1103.7 355.7 L 1107.1 349.7 L 1110.5 343.7 L 1113.9 337.7 L 1117.3 331.7 L 1120.6 325.7 L 1124.0 319.6 L 1127.4 313.6 L 1130.8 307.5 L 1134.1 301.5 L 1137.5 295.4 L 1140.9 289.3 L 1144.3 283.2 L 1147.7 277.2 L 1151.0 271.0 L 1154.4 264.9 L 1157.8 258.8 L 1161.2 252.7 L 1164.6 246.6 L 1167.9 240.4 L 1171.3 234.3 L 1174.7 228.1 L 1178.1 221.9 L 1181.5 215.7 L 1184.8 209.6 L 1188.2 203.4 L 1191.6 197.2 L 1195.0 190.9 L 1198.4 184.7 L 1201.7 178.5 L 1205.1 172.3 L 1208.5 166.0 L 1211.9 159.8 L 1215.2 153.5 L 1218.6 147.3 L 1222.0 141.0 L 1225.4 134.7 L 1228.8 128.4 L 1232.1 122.1 L 1235.5 115.8 L 1238.9 109.5 L 1242.3 103.2 L 1245.7 96.9 L 1249.0 90.6 L 1252.4 84.2 L 1255.8 77.9 L 1259.2 71.5 L 1262.6 65.2" fill="none" stroke="#DC143C" stroke-linecap="round" stroke-linejoin="round" stroke-width="2.5" /><path d="M 1265.9 818.8 L 1269.3 812.5 L 1272.7 806.1 L 1276.1 799.7 L 1279.5 793.3 L 1282.8 786.9 L 1286.2 780.5 L 1289.6 774.1 L 1293.0 767.7 L 1296.3 761.2 L 1299.7 754.8 L 1303.1 748.4 L 1306.5 741.9 L 1309.9 735.5 L 1313.2 729.0 L 1316.6 722.6 L 1320.0 716.1" fill="none" stroke="#DC143C" stroke-linecap="round" stroke-linejoin="round" stroke-width="2.5" /><path d="M 90.0 202.2 L 93.4 203.1 L 96.8 203.9 L 100.1 204.8 L 103.5 205.6 L 106.9 206.4 L 110.3 207.1 L 113.7 207.9 L 117.0 208.6 L 120.4 209.3 L 123.8 210.0 L 127.2 210.6 L 130.5 211.3 L 133.9 211.9 L 137.3 212.4 L 140.7 213.0 L 144.1 213.5 L 147.4 214.0 L 150.8 214.5 L 154.2 214.9 L 157.6 215.3 L 161.0 215.7 L 164.3 216.0 L 167.7 216.4 L 171.1 216.7 L 174.5 216.9 L 177.9 217.2 L 181.2 217.4 L 184.6 217.6 L 188.0 217.7 L 191.4 217.9 L 194.8 218.0 L 198.1 218.0 L 201.5 218.1 L 204.9 218.1 L 208.3 218.1 L 211.6 218.0 L 215.0 218.0 L 218.4 217.9 L 221.8 217.7 L 225.2 217.6 L 228.5 217.4 L 231.9 217.2 L 235.3 216.9 L 238.7 216.6 L 242.1 216.3 L 245.4 216.0 L 248.8 215.7 L 252.2 215.3 L 255.6 214.9 L 259.0 214.4 L 262.3 214.0 L 265.7 213.5 L 269.1 213.0 L 272.5 212.4 L 275.9 211.9 L 279.2 211.3 L 282.6 210.7 L 286.0 210.0 L 289.4 209.3 L 292.7 208.7 L 296.1 207.9 L 299.5 207.2 L 302.9 206.4 L 306.3 205.6 L 309.6 204.8 L 313.0 204.0 L 316.4 203.1 L 319.8 202.3 L 323.2 201.4 L 326.5 200.4 L 329.9 199.5 L 333.3 198.5 L 336.7 197.5 L 340.1 196.5 L 343.4 195.5 L 346.8 194.4 L 350.2 193.4 L 353.6 192.3 L 357.0 191.2 L 360.3 190.0 L 363.7 188.9 L 367.1 187.7 L 370.5 186.5 L 373.8 185.3 L 377.2 184.1 L 380.6 182.9 L 384.0 181.6 L 387.4 180.4 L 390.7 179.1 L 394.1 177.8 L 397.5 176.4 L 400.9 175.1 L 404.3 173.7 L 407.6 172.4 L 411.0 171.0 L 414.4 169.6 L 417.8 168.2 L 421.2 166.7 L 424.5 165.3 L 427.9 163.8 L 431.3 162.3 L 434.7 160.9 L 438.0 159.4 L 441.4 157.8 L 444.8 156.3 L 448.2 154.8 L 451.6 153.2 L 454.9 151.7 L 458.3 150.1 L 461.7 148.5 L 465.1 146.9 L 468.5 145.3 L 471.8 143.7 L 475.2 142.0 L 478.6 140.4 L 482.0 138.7 L 485.4 137.1 L 488.7 135.4 L 492.1 133.7 L 495.5 132.0 L 498.9 130.3 L 502.3 128.6 L 505.6 126.9 L 509.0 125.2 L 512.4 123.4 L 515.8 121.7 L 519.1 119.9 L 522.5 118.2 L 525.9 116.4 L 529.3 114.6 L 532.7 112.9 L 536.0 111.1 L 539.4 109.3 L 542.8 107.5 L 546.2 105.7 L 549.6 103.8 L 552.9 102.0 L 556.3 100.2 L 559.7 98.3 L 563.1 96.5 L 566.5 94.7 L 569.8 92.8 L 573.2 91.0 L 576.6 89.1 L 580.0 87.2 L 583.4 85.4 L 586.7 83.5 L 590.1 81.6 L 593.5 79.7 L 596.9 77.8 L 600.2 75.9 L 603.6 74.1 L 607.0 72.2 L 610.4 70.3 L 613.8 68.4 L 617.1 66.5 L 620.5 64.5 L 623.9 62.6 L 627.3 60.7" fill="none" stroke="#4169E1" stroke-linecap="round" stroke-linejoin="round" stroke-width="2.5" /><path d="M 630.7 818.8 L 634.0 816.9 L 637.4 815.0 L 640.8 813.0 L 644.2 811.1 L 647.6 809.2 L 650.9 807.3 L 654.3 805.4 L 657.7 803.4 L 661.1 801.5 L 664.5 799.6 L 667.8 797.6 L 671.2 795.7 L 674.6 793.8 L 678.0 791.9 L 681.3 789.9 L 684.7 788.0 L 688.1 786.1 L 691.5 784.1 L 694.9 782.2 L 698.2 780.3 L 701.6 778.4 L 705.0 776.4 L 708.4 774.5 L 711.8 772.6 L 715.1 770.7 L 718.5 768.8 L 721.9 766.9 L 725.3 765.0 L 728.7 763.0 L 732.0 761.1 L 735.4 759.2 L 738.8 757.3 L 742.2 755.4 L 745.5 753.5 L 748.9 751.7 L 752.3 749.8 L 755.7 747.9 L 759.1 746.0 L 762.4 744.1 L 765.8 742.3 L 769.2 740.4 L 772.6 738.5 L 776.0 736.7 L 779.3 734.8 L 782.7 733.0 L 786.1 731.1 L 789.5 729.3 L 792.9 727.5 L 796.2 725.6 L 799.6 723.8 L 803.0 722.0 L 806.4 720.2 L 809.8 718.4 L 813.1 716.6 L 816.5 714.8 L 819.9 713.0 L 823.3 711.3 L 826.6 709.5 L 830.0 707.7 L 833.4 706.0 L 836.8 704.2 L 840.2 702.5 L 843.5 700.8 L 846.9 699.1 L 850.3 697.4 L 853.7 695.7 L 857.1 694.0 L 860.4 692.3 L 863.8 690.6 L 867.2 689.0 L 870.6 687.3 L 874.0 685.7 L 877.3 684.0 L 880.7 682.4 L 884.1 680.8 L 887.5 679.2 L 890.9 677.6 L 894.2 676.0 L 897.6 674.5 L 901.0 672.9 L 904.4 671.4 L 907.7 669.8 L 911.1 668.3 L 914.5 666.8 L 917.9 665.3 L 921.3 663.9 L 924.6 662.4 L 928.0 660.9 L 931.4 659.5 L 934.8 658.1 L 938.2 656.7 L 941.5 655.3 L 944.9 653.9 L 948.3 652.5 L 951.7 651.2 L 955.1 649.8 L 958.4 648.5 L 961.8 647.2 L 965.2 645.9 L 968.6 644.7 L 972.0 643.4 L 975.3 642.2 L 978.7 641.0 L 982.1 639.8 L 985.5 638.6 L 988.8 637.4 L 992.2 636.3 L 995.6 635.1 L 999.0 634.0 L 1002.4 632.9 L 1005.7 631.9 L 1009.1 630.8 L 1012.5 629.8 L 1015.9 628.8 L 1019.3 627.8 L 1022.6 626.8 L 1026.0 625.9 L 1029.4 625.0 L 1032.8 624.0 L 1036.2 623.2 L 1039.5 622.3 L 1042.9 621.5 L 1046.3 620.6 L 1049.7 619.8 L 1053.0 619.1 L 1056.4 618.3 L 1059.8 617.6 L 1063.2 616.9 L 1066.6 616.2 L 1069.9 615.6 L 1073.3 614.9 L 1076.7 614.3 L 1080.1 613.7 L 1083.5 613.2 L 1086.8 612.6 L 1090.2 612.1 L 1093.6 611.7 L 1097.0 611.2 L 1100.4 610.8 L 1103.7 610.4 L 1107.1 610.0 L 1110.5 609.7 L 1113.9 609.3 L 1117.3 609.0 L 1120.6 608.8 L 1124.0 608.5 L 1127.4 608.3 L 1130.8 608.1 L 1134.1 608.0 L 1137.5 607.8 L 1140.9 607.7 L 1144.3 607.7 L 1147.7 607.6 L 1151.0 607.6 L 1154.4 607.6 L 1157.8 607.6 L 1161.2 607.7 L 1164.6 607.8 L 1167.9 607.9 L 1171.3 608.1 L 1174.7 608.3 L 1178.1 608.5 L 1181.5 608.7 L 1184.8 609.0 L 1188.2 609.2 L 1191.6 609.6 L 1195.0 609.9 L 1198.4 610.3 L 1201.7 610.7 L 1205.1 611.1 L 1208.5 611.6 L 1211.9 612.0 L 1215.2 612.6 L 1218.6 613.1 L 1222.0 613.6 L 1225.4 614.2 L 1228.8 614.8 L 1232.1 615.5 L 1235.5 616.1 L 1238.9 616.8 L 1242.3 617.5 L 1245.7 618.2 L 1249.0 619.0 L 1252.4 619.8 L 1255.8 620.6 L 1259.2 621.4 L 1262.6 622.2 L 1265.9 623.1 L 1269.3 624.0 L 1272.7 624.9 L 1276.1 625.8 L 1279.5 626.7 L 1282.8 627.7 L 1286.2 628.6 L 1289.6 629.6 L 1293.0 630.6 L 1296.3 631.6 L 1299.7 632.7 L 1303.1 633.7 L 1306.5 634.8 L 1309.9 635.8 L 1313.2 636.9 L 1316.6 638.0 L 1320.0 639.1" fill="none" stroke="#4169E1" stroke-linecap="round" stroke-linejoin="round" stroke-width="2.5" /><path d="M 90.0 190.4 L 93.4 189.7 L 96.8 189.1 L 100.1 188.4 L 103.5 187.7 L 106.9 187.0 L 110.3 186.3 L 113.7 185.6 L 117.0 184.9 L 120.4 184.1 L 123.8 183.4 L 127.2 182.6 L 130.5 181.9 L 133.9 181.1 L 137.3 180.3 L 140.7 179.5 L 144.1 178.7 L 147.4 177.9 L 150.8 177.1 L 154.2 176.3 L 157.6 175.4 L 161.0 174.6 L 164.3 173.7 L 167.7 172.9 L 171.1 172.0 L 174.5 171.1 L 177.9 170.3 L 181.2 169.4 L 184.6 168.5 L 188.0 167.6 L 191.4 166.7 L 194.8 165.7 L 198.1 164.8 L 201.5 163.9 L 204.9 163.0 L 208.3 162.0 L 211.6 161.1 L 215.0 160.1 L 218.4 159.2 L 221.8 158.2 L 225.2 157.2 L 228.5 156.3 L 231.9 155.3 L 235.3 154.3 L 238.7 153.3 L 242.1 152.3 L 245.4 151.3 L 248.8 150.3 L 252.2 149.3 L 255.6 148.3 L 259.0 147.3 L 262.3 146.3 L 265.7 145.3 L 269.1 144.3 L 272.5 143.3 L 275.9 142.2 L 279.2 141.2 L 282.6 140.2 L 286.0 139.1 L 289.4 138.1 L 292.7 137.1 L 296.1 136.0 L 299.5 135.0 L 302.9 134.0 L 306.3 132.9 L 309.6 131.9 L 313.0 130.8 L 316.4 129.8 L 319.8 128.8 L 323.2 127.7 L 326.5 126.7 L 329.9 125.6 L 333.3 124.6 L 336.7 123.5 L 340.1 122.5 L 343.4 121.5 L 346.8 120.4 L 350.2 119.4 L 353.6 118.3 L 357.0 117.3 L 360.3 116.3 L 363.7 115.2 L 367.1 114.2 L 370.5 113.2 L 373.8 112.1 L 377.2 111.1 L 380.6 110.1 L 384.0 109.1 L 387.4 108.1 L 390.7 107.0 L 394.1 106.0 L 397.5 105.0 L 400.9 104.0 L 404.3 103.0 L 407.6 102.0 L 411.0 101.0 L 414.4 100.0 L 417.8 99.0 L 421.2 98.0 L 424.5 97.1 L 427.9 96.1 L 431.3 95.1 L 434.7 94.2 L 438.0 93.2 L 441.4 92.2 L 444.8 91.3 L 448.2 90.3 L 451.6 89.4 L 454.9 88.5 L 458.3 87.5 L 461.7 86.6 L 465.1 85.7 L 468.5 84.8 L 471.8 83.9 L 475.2 83.0 L 478.6 82.1 L 482.0 81.2 L 485.4 80.3 L 488.7 79.5 L 492.1 78.6 L 495.5 77.7 L 498.9 76.9 L 502.3 76.1 L 505.6 75.2 L 509.0 74.4 L 512.4 73.6 L 515.8 72.8 L 519.1 72.0 L 522.5 71.2 L 525.9 70.4 L 529.3 69.6 L 532.7 68.9 L 536.0 68.1 L 539.4 67.4 L 542.8 66.6 L 546.2 65.9 L 549.6 65.2 L 552.9 64.5 L 556.3 63.8 L 559.7 63.1 L 563.1 62.4 L 566.5 61.7 L 569.8 61.1 L 573.2 60.4" fill="none" stroke="#2F4F4F" stroke-linecap="round" stroke-linejoin="round" stroke-width="2.5" /><path d="M 576.6 819.8 L 580.0 819.2 L 583.4 818.5 L 586.7 817.9 L 590.1 817.3 L 593.5 816.8 L 596.9 816.2 L 600.2 815.6 L 603.6 815.1 L 607.0 814.5 L 610.4 814.0 L 613.8 813.5 L 617.1 813.0 L 620.5 812.5 L 623.9 812.0 L 627.3 811.6 L 630.7 811.1 L 634.0 810.7 L 637.4 810.2 L 640.8 809.8 L 644.2 809.4 L 647.6 809.0 L 650.9 808.7 L 654.3 808.3 L 657.7 807.9 L 661.1 807.6 L 664.5 807.3 L 667.8 807.0 L 671.2 806.7 L 674.6 806.4 L 678.0 806.1 L 681.3 805.9 L 684.7 805.6 L 688.1 805.4 L 691.5 805.2 L 694.9 805.0 L 698.2 804.8 L 701.6 804.6 L 705.0 804.5 L 708.4 804.3 L 711.8 804.2 L 715.1 804.1 L 718.5 804.0 L 721.9 803.9 L 725.3 803.8 L 728.7 803.8 L 732.0 803.7 L 735.4 803.7 L 738.8 803.7 L 742.2 803.7 L 745.5 803.7 L 748.9 803.7 L 752.3 803.7 L 755.7 803.8 L 759.1 803.9 L 762.4 804.0 L 765.8 804.0 L 769.2 804.2 L 772.6 804.3 L 776.0 804.4 L 779.3 804.6 L 782.7 804.7 L 786.1 804.9 L 789.5 805.1 L 792.9 805.3 L 796.2 805.5 L 799.6 805.8 L 803.0 806.0 L 806.4 806.3 L 809.8 806.6 L 813.1 806.9 L 816.5 807.2 L 819.9 807.5 L 823.3 807.8 L 826.6 808.1 L 830.0 808.5 L 833.4 808.8 L 836.8 809.2 L 840.2 809.6 L 843.5 810.0 L 846.9 810.4 L 850.3 810.8 L 853.7 811.3 L 857.1 811.7 L 860.4 812.2 L 863.8 812.6 L 867.2 813.1 L 870.6 813.6 L 874.0 814.1 L 877.3 814.6 L 880.7 815.1 L 884.1 815.6 L 887.5 816.2 L 890.9 816.7 L 894.2 817.2 L 897.6 817.8 L 901.0 818.4 L 904.4 818.9 L 907.7 819.5" fill="none" stroke="#2F4F4F" stroke-linecap="round" stroke-linejoin="round" stroke-width="2.5" /><path d="M 911.1 60.1 L 914.5 60.7 L 917.9 61.3 L 921.3 61.9 L 924.6 62.5 L 928.0 63.1 L 931.4 63.7 L 934.8 64.4 L 938.2 65.0 L 941.5 65.6 L 944.9 66.3 L 948.3 66.9 L 951.7 67.5 L 955.1 68.2 L 958.4 68.8 L 961.8 69.5 L 965.2 70.1 L 968.6 70.8 L 972.0 71.4 L 975.3 72.1 L 978.7 72.8 L 982.1 73.4 L 985.5 74.1 L 988.8 74.7 L 992.2 75.4 L 995.6 76.0 L 999.0 76.7 L 1002.4 77.3 L 1005.7 78.0 L 1009.1 78.6 L 1012.5 79.3 L 1015.9 79.9 L 1019.3 80.5 L 1022.6 81.1 L 1026.0 81.8 L 1029.4 82.4 L 1032.8 83.0 L 1036.2 83.6 L 1039.5 84.2 L 1042.9 84.8 L 1046.3 85.4 L 1049.7 86.0 L 1053.0 86.5 L 1056.4 87.1 L 1059.8 87.7 L 1063.2 88.2 L 1066.6 88.8 L 1069.9 89.3 L 1073.3 89.8 L 1076.7 90.3 L 1080.1 90.8 L 1083.5 91.3 L 1086.8 91.8 L 1090.2 92.3 L 1093.6 92.8 L 1097.0 93.2 L 1100.4 93.7 L 1103.7 94.1 L 1107.1 94.5 L 1110.5 94.9 L 1113.9 95.3 L 1117.3 95.7 L 1120.6 96.1 L 1124.0 96.4 L 1127.4 96.8 L 1130.8 97.1 L 1134.1 97.4 L 1137.5 97.7 L 1140.9 98.0 L 1144.3 98.3 L 1147.7 98.6 L 1151.0 98.8 L 1154.4 99.1 L 1157.8 99.3 L 1161.2 99.5 L 1164.6 99.7 L 1167.9 99.9 L 1171.3 100.0 L 1174.7 100.2 L 1178.1 100.3 L 1181.5 100.4 L 1184.8 100.6 L 1188.2 100.7 L 1191.6 100.7 L 1195.0 100.8 L 1198.4 100.8 L 1201.7 100.9 L 1205.1 100.9 L 1208.5 100.9 L 1211.9 100.9 L 1215.2 100.9 L 1218.6 100.8 L 1222.0 100.7 L 1225.4 100.7 L 1228.8 100.6 L 1232.1 100.5 L 1235.5 100.4 L 1238.9 100.2 L 1242.3 100.1 L 1245.7 99.9 L 1249.0 99.7 L 1252.4 99.5 L 1255.8 99.3 L 1259.2 99.1 L 1262.6 98.9 L 1265.9 98.6 L 1269.3 98.4 L 1272.7 98.1 L 1276.1 97.8 L 1279.5 97.5 L 1282.8 97.1 L 1286.2 96.8 L 1289.6 96.4 L 1293.0 96.1 L 1296.3 95.7 L 1299.7 95.3 L 1303.1 94.9 L 1306.5 94.4 L 1309.9 94.0 L 1313.2 93.6 L 1316.6 93.1 L 1320.0 92.6" fill="none" stroke="#2F4F4F" stroke-linecap="round" stroke-linejoin="round" stroke-width="2.5" /><path d="M 90.0 659.5 L 93.4 659.5 L 96.8 659.5 L 100.1 659.4 L 103.5 659.4 L 106.9 659.3 L 110.3 659.3 L 113.7 659.2 L 117.0 659.1 L 120.4 659.0 L 123.8 658.9 L 127.2 658.8 L 130.5 658.7 L 133.9 658.6 L 137.3 658.5 L 140.7 658.3 L 144.1 658.2 L 147.4 658.0 L 150.8 657.9 L 154.2 657.7 L 157.6 657.5 L 161.0 657.4 L 164.3 657.2 L 167.7 657.0 L 171.1 656.8 L 174.5 656.6 L 177.9 656.4 L 181.2 656.1 L 184.6 655.9 L 188.0 655.7 L 191.4 655.4 L 194.8 655.2 L 198.1 654.9 L 201.5 654.7 L 204.9 654.4 L 208.3 654.1 L 211.6 653.8 L 215.0 653.6 L 218.4 653.3 L 221.8 653.0 L 225.2 652.6 L 228.5 652.3 L 231.9 652.0 L 235.3 651.7 L 238.7 651.4 L 242.1 651.0 L 245.4 650.7 L 248.8 650.3 L 252.2 650.0 L 255.6 649.6 L 259.0 649.3 L 262.3 648.9 L 265.7 648.5 L 269.1 648.1 L 272.5 647.7 L 275.9 647.4 L 279.2 647.0 L 282.6 646.6 L 286.0 646.2 L 289.4 645.7 L 292.7 645.3 L 296.1 644.9 L 299.5 644.5 L 302.9 644.1 L 306.3 643.6 L 309.6 643.2 L 313.0 642.8 L 316.4 642.3 L 319.8 641.9 L 323.2 641.4 L 326.5 641.0 L 329.9 640.5 L 333.3 640.1 L 336.7 639.6 L 340.1 639.2 L 343.4 638.7 L 346.8 638.2 L 350.2 637.8 L 353.6 637.3 L 357.0 636.8 L 360.3 636.3 L 363.7 635.9 L 367.1 635.4 L 370.5 634.9 L 373.8 634.4 L 377.2 633.9 L 380.6 633.4 L 384.0 632.9 L 387.4 632.4 L 390.7 631.9 L 394.1 631.4 L 397.5 630.9 L 400.9 630.4 L 404.3 629.9 L 407.6 629.4 L 411.0 628.9 L 414.4 628.4 L 417.8 627.9 L 421.2 627.4 L 424.5 626.9 L 427.9 626.4 L 431.3 625.9 L 434.7 625.4 L 438.0 624.9 L 441.4 624.4 L 444.8 623.9 L 448.2 623.4 L 451.6 622.9 L 454.9 622.4 L 458.3 621.9 L 461.7 621.4 L 465.1 620.9 L 468.5 620.4 L 471.8 619.9 L 475.2 619.4 L 478.6 618.9 L 482.0 618.4 L 485.4 617.9 L 488.7 617.5 L 492.1 617.0 L 495.5 616.5 L 498.9 616.0 L 502.3 615.5 L 505.6 615.0 L 509.0 614.6 L 512.4 614.1 L 515.8 613.6 L 519.1 613.1 L 522.5 612.7 L 525.9 612.2 L 529.3 611.7 L 532.7 611.3 L 536.0 610.8 L 539.4 610.4 L 542.8 609.9 L 546.2 609.5 L 549.6 609.0 L 552.9 608.6 L 556.3 608.1 L 559.7 607.7 L 563.1 607.3 L 566.5 606.8 L 569.8 606.4 L 573.2 606.0 L 576.6 605.6 L 580.0 605.2 L 583.4 604.8 L 586.7 604.4 L 590.1 604.0 L 593.5 603.6 L 596.9 603.2 L 600.2 602.8 L 603.6 602.4 L 607.0 602.0 L 610.4 601.7 L 613.8 601.3 L 617.1 600.9 L 620.5 600.6 L 623.9 600.2 L 627.3 599.9 L 630.7 599.6 L 634.0 599.2 L 637.4 598.9 L 640.8 598.6 L 644.2 598.2 L 647.6 597.9 L 650.9 597.6 L 654.3 597.3 L 657.7 597.0 L 661.1 596.7 L 664.5 596.5 L 667.8 596.2 L 671.2 595.9 L 674.6 595.6 L 678.0 595.4 L 681.3 595.1 L 684.7 594.9 L 688.1 594.6 L 691.5 594.4 L 694.9 594.2 L 698.2 594.0 L 701.6 593.7 L 705.0 593.5 L 708.4 593.3 L 711.8 593.1 L 715.1 593.0 L 718.5 592.8 L 721.9 592.6 L 725.3 592.4 L 728.7 592.3 L 732.0 592.1 L 735.4 592.0 L 738.8 591.9 L 742.2 591.7 L 745.5 591.6 L 748.9 591.5 L 752.3 591.4 L 755.7 591.3 L 759.1 591.2 L 762.4 591.1 L 765.8 591.0 L 769.2 590.9 L 772.6 590.9 L 776.0 590.8 L 779.3 590.8 L 782.7 590.7 L 786.1 590.7 L 789.5 590.7 L 792.9 590.6 L 796.2 590.6 L 799.6 590.6 L 803.0 590.6 L 806.4 590.6 L 809.8 590.7 L 813.1 590.7 L 816.5 590.7 L 819.9 590.8 L 823.3 590.8 L 826.6 590.9 L 830.0 590.9 L 833.4 591.0 L 836.8 591.1 L 840.2 591.1 L 843.5 591.2 L 846.9 591.3 L 850.3 591.4 L 853.7 591.6 L 857.1 591.7 L 860.4 591.8 L 863.8 591.9 L 867.2 592.1 L 870.6 592.2 L 874.0 592.4 L 877.3 592.5 L 880.7 592.7 L 884.1 592.9 L 887.5 593.1 L 890.9 593.3 L 894.2 593.5 L 897.6 593.7 L 901.0 593.9 L 904.4 594.1 L 907.7 594.3 L 911.1 594.5 L 914.5 594.8 L 917.9 595.0 L 921.3 595.3 L 924.6 595.5 L 928.0 595.8 L 931.4 596.0 L 934.8 596.3 L 938.2 596.6 L 941.5 596.9 L 944.9 597.1 L 948.3 597.4 L 951.7 597.7 L 955.1 598.0 L 958.4 598.3 L 961.8 598.7 L 965.2 599.0 L 968.6 599.3 L 972.0 599.6 L 975.3 599.9 L 978.7 600.3 L 982.1 600.6 L 985.5 601.0 L 988.8 601.3 L 992.2 601.6 L 995.6 602.0 L 999.0 602.4 L 1002.4 602.7 L 1005.7 603.1 L 1009.1 603.4 L 1012.5 603.8 L 1015.9 604.2 L 1019.3 604.5 L 1022.6 604.9 L 1026.0 605.3 L 1029.4 605.7 L 1032.8 606.1 L 1036.2 606.4 L 1039.5 606.8 L 1042.9 607.2 L 1046.3 607.6 L 1049.7 608.0 L 1053.0 608.4 L 1056.4 608.8 L 1059.8 609.1 L 1063.2 609.5 L 1066.6 609.9 L 1069.9 610.3 L 1073.3 610.7 L 1076.7 611.1 L 1080.1 611.5 L 1083.5 611.9 L 1086.8 612.3 L 1090.2 612.6 L 1093.6 613.0 L 1097.0 613.4 L 1100.4 613.8 L 1103.7 614.2 L 1107.1 614.6 L 1110.5 614.9 L 1113.9 615.3 L 1117.3 615.7 L 1120.6 616.1 L 1124.0 616.4 L 1127.4 616.8 L 1130.8 617.2 L 1134.1 617.5 L 1137.5 617.9 L 1140.9 618.2 L 1144.3 618.6 L 1147.7 618.9 L 1151.0 619.3 L 1154.4 619.6 L 1157.8 620.0 L 1161.2 620.3 L 1164.6 620.6 L 1167.9 620.9 L 1171.3 621.3 L 1174.7 621.6 L 1178.1 621.9 L 1181.5 622.2 L 1184.8 622.5 L 1188.2 622.8 L 1191.6 623.1 L 1195.0 623.4 L 1198.4 623.6 L 1201.7 623.9 L 1205.1 624.2 L 1208.5 624.4 L 1211.9 624.7 L 1215.2 624.9 L 1218.6 625.2 L 1222.0 625.4 L 1225.4 625.6 L 1228.8 625.9 L 1232.1 626.1 L 1235.5 626.3 L 1238.9 626.5 L 1242.3 626.7 L 1245.7 626.9 L 1249.0 627.1 L 1252.4 627.2 L 1255.8 627.4 L 1259.2 627.6 L 1262.6 627.7 L 1265.9 627.9 L 1269.3 628.0 L 1272.7 628.1 L 1276.1 628.3 L 1279.5 628.4 L 1282.8 628.5 L 1286.2 628.6 L 1289.6 628.7 L 1293.0 628.8 L 1296.3 628.8 L 1299.7 628.9 L 1303.1 629.0 L 1306.5 629.0 L 1309.9 629.1 L 1313.2 629.1 L 1316.6 629.1 L 1320.0 629.1" fill="none" stroke="#666666" stroke-linecap="round" stroke-linejoin="round" stroke-width="2.5" /><path d="M 90.0 367.2 L 93.4 367.4 L 96.8 367.6 L 100.1 367.8 L 103.5 367.9 L 106.9 368.1 L 110.3 368.3 L 113.7 368.4 L 117.0 368.6 L 120.4 368.7 L 123.8 368.9 L 127.2 369.0 L 130.5 369.2 L 133.9 369.3 L 137.3 369.4 L 140.7 369.5 L 144.1 369.6 L 147.4 369.7 L 150.8 369.8 L 154.2 369.9 L 157.6 369.9 L 161.0 370.0 L 164.3 370.0 L 167.7 370.1 L 171.1 370.1 L 174.5 370.2 L 177.9 370.2 L 181.2 370.2 L 184.6 370.2 L 188.0 370.2 L 191.4 370.2 L 194.8 370.2 L 198.1 370.2 L 201.5 370.2 L 204.9 370.1 L 208.3 370.1 L 211.6 370.1 L 215.0 370.0 L 218.4 369.9 L 221.8 369.9 L 225.2 369.8 L 228.5 369.7 L 231.9 369.6 L 235.3 369.5 L 238.7 369.4 L 242.1 369.3 L 245.4 369.2 L 248.8 369.1 L 252.2 368.9 L 255.6 368.8 L 259.0 368.6 L 262.3 368.5 L 265.7 368.3 L 269.1 368.1 L 272.5 368.0 L 275.9 367.8 L 279.2 367.6 L 282.6 367.4 L 286.0 367.2 L 289.4 367.0 L 292.7 366.7 L 296.1 366.5 L 299.5 366.3 L 302.9 366.1 L 306.3 365.8 L 309.6 365.6 L 313.0 365.3 L 316.4 365.0 L 319.8 364.8 L 323.2 364.5 L 326.5 364.2 L 329.9 363.9 L 333.3 363.6 L 336.7 363.3 L 340.1 363.0 L 343.4 362.7 L 346.8 362.4 L 350.2 362.1 L 353.6 361.7 L 357.0 361.4 L 360.3 361.1 L 363.7 360.7 L 367.1 360.4 L 370.5 360.0 L 373.8 359.7 L 377.2 359.3 L 380.6 358.9 L 384.0 358.6 L 387.4 358.2 L 390.7 357.8 L 394.1 357.4 L 397.5 357.0 L 400.9 356.6 L 404.3 356.2 L 407.6 355.8 L 411.0 355.4 L 414.4 355.0 L 417.8 354.6 L 421.2 354.2 L 424.5 353.7 L 427.9 353.3 L 431.3 352.9 L 434.7 352.5 L 438.0 352.0 L 441.4 351.6 L 444.8 351.1 L 448.2 350.7 L 451.6 350.2 L 454.9 349.8 L 458.3 349.3 L 461.7 348.9 L 465.1 348.4 L 468.5 348.0 L 471.8 347.5 L 475.2 347.0 L 478.6 346.6 L 482.0 346.1 L 485.4 345.6 L 488.7 345.1 L 492.1 344.7 L 495.5 344.2 L 498.9 343.7 L 502.3 343.2 L 505.6 342.7 L 509.0 342.3 L 512.4 341.8 L 515.8 341.3 L 519.1 340.8 L 522.5 340.3 L 525.9 339.8 L 529.3 339.3 L 532.7 338.9 L 536.0 338.4 L 539.4 337.9 L 542.8 337.4 L 546.2 336.9 L 549.6 336.4 L 552.9 335.9 L 556.3 335.4 L 559.7 334.9 L 563.1 334.4 L 566.5 333.9 L 569.8 333.4 L 573.2 333.0 L 576.6 332.5 L 580.0 332.0 L 583.4 331.5 L 586.7 331.0 L 590.1 330.5 L 593.5 330.0 L 596.9 329.5 L 600.2 329.1 L 603.6 328.6 L 607.0 328.1 L 610.4 327.6 L 613.8 327.1 L 617.1 326.7 L 620.5 326.2 L 623.9 325.7 L 627.3 325.3 L 630.7 324.8 L 634.0 324.3 L 637.4 323.9 L 640.8 323.4 L 644.2 322.9 L 647.6 322.5 L 650.9 322.0 L 654.3 321.6 L 657.7 321.1 L 661.1 320.7 L 664.5 320.2 L 667.8 319.8 L 671.2 319.4 L 674.6 318.9 L 678.0 318.5 L 681.3 318.1 L 684.7 317.7 L 688.1 317.2 L 691.5 316.8 L 694.9 316.4 L 698.2 316.0 L 701.6 315.6 L 705.0 315.2 L 708.4 314.8 L 711.8 314.4 L 715.1 314.0 L 718.5 313.6 L 721.9 313.3 L 725.3 312.9 L 728.7 312.5 L 732.0 312.2 L 735.4 311.8 L 738.8 311.4 L 742.2 311.1 L 745.5 310.7 L 748.9 310.4 L 752.3 310.1 L 755.7 309.7 L 759.1 309.4 L 762.4 309.1 L 765.8 308.8 L 769.2 308.5 L 772.6 308.2 L 776.0 307.9 L 779.3 307.6 L 782.7 307.3 L 786.1 307.0 L 789.5 306.7 L 792.9 306.5 L 796.2 306.2 L 799.6 305.9 L 803.0 305.7 L 806.4 305.4 L 809.8 305.2 L 813.1 305.0 L 816.5 304.7 L 819.9 304.5 L 823.3 304.3 L 826.6 304.1 L 830.0 303.9 L 833.4 303.7 L 836.8 303.5 L 840.2 303.3 L 843.5 303.1 L 846.9 303.0 L 850.3 302.8 L 853.7 302.6 L 857.1 302.5 L 860.4 302.4 L 863.8 302.2 L 867.2 302.1 L 870.6 302.0 L 874.0 301.9 L 877.3 301.7 L 880.7 301.6 L 884.1 301.5 L 887.5 301.5 L 890.9 301.4 L 894.2 301.3 L 897.6 301.2 L 901.0 301.2 L 904.4 301.1 L 907.7 301.1 L 911.1 301.1 L 914.5 301.0 L 917.9 301.0 L 921.3 301.0 L 924.6 301.0 L 928.0 301.0 L 931.4 301.0 L 934.8 301.0 L 938.2 301.0 L 941.5 301.0 L 944.9 301.1 L 948.3 301.1 L 951.7 301.2 L 955.1 301.2 L 958.4 301.3 L 961.8 301.3 L 965.2 301.4 L 968.6 301.5 L 972.0 301.6 L 975.3 301.7 L 978.7 301.8 L 982.1 301.9 L 985.5 302.0 L 988.8 302.2 L 992.2 302.3 L 995.6 302.4 L 999.0 302.6 L 1002.4 302.7 L 1005.7 302.9 L 1009.1 303.0 L 1012.5 303.2 L 1015.9 303.4 L 1019.3 303.6 L 1022.6 303.8 L 1026.0 303.9 L 1029.4 304.1 L 1032.8 304.4 L 1036.2 304.6 L 1039.5 304.8 L 1042.9 305.0 L 1046.3 305.2 L 1049.7 305.5 L 1053.0 305.7 L 1056.4 306.0 L 1059.8 306.2 L 1063.2 306.5 L 1066.6 306.7 L 1069.9 307.0 L 1073.3 307.3 L 1076.7 307.5 L 1080.1 307.8 L 1083.5 308.1 L 1086.8 308.4 L 1090.2 308.7 L 1093.6 309.0 L 1097.0 309.3 L 1100.4 309.6 L 1103.7 309.9 L 1107.1 310.2 L 1110.5 310.5 L 1113.9 310.8 L 1117.3 311.1 L 1120.6 311.5 L 1124.0 311.8 L 1127.4 312.1 L 1130.8 312.5 L 1134.1 312.8 L 1137.5 313.1 L 1140.9 313.5 L 1144.3 313.8 L 1147.7 314.2 L 1151.0 314.5 L 1154.4 314.8 L 1157.8 315.2 L 1161.2 315.5 L 1164.6 315.9 L 1167.9 316.2 L 1171.3 316.6 L 1174.7 316.9 L 1178.1 317.3 L 1181.5 317.7 L 1184.8 318.0 L 1188.2 318.4 L 1191.6 318.7 L 1195.0 319.1 L 1198.4 319.4 L 1201.7 319.8 L 1205.1 320.1 L 1208.5 320.5 L 1211.9 320.8 L 1215.2 321.2 L 1218.6 321.5 L 1222.0 321.9 L 1225.4 322.2 L 1228.8 322.5 L 1232.1 322.9 L 1235.5 323.2 L 1238.9 323.6 L 1242.3 323.9 L 1245.7 324.2 L 1249.0 324.5 L 1252.4 324.9 L 1255.8 325.2 L 1259.2 325.5 L 1262.6 325.8 L 1265.9 326.1 L 1269.3 326.4 L 1272.7 326.7 L 1276.1 327.0 L 1279.5 327.3 L 1282.8 327.6 L 1286.2 327.9 L 1289.6 328.2 L 1293.0 328.5 L 1296.3 328.8 L 1299.7 329.0 L 1303.1 329.3 L 1306.5 329.6 L 1309.9 329.8 L 1313.2 330.1 L 1316.6 330.3 L 1320.0 330.5" fill="none" stroke="#00CED1" stroke-linecap="round" stroke-linejoin="round" stroke-width="2.5" /><path d="M 90.0 82.8 L 93.4 82.6 L 96.8 82.5 L 100.1 82.4 L 103.5 82.2 L 106.9 82.1 L 110.3 82.0 L 113.7 81.8 L 117.0 81.7 L 120.4 81.5 L 123.8 81.3 L 127.2 81.2 L 130.5 81.0 L 133.9 80.8 L 137.3 80.7 L 140.7 80.5 L 144.1 80.3 L 147.4 80.1 L 150.8 79.9 L 154.2 79.7 L 157.6 79.5 L 161.0 79.3 L 164.3 79.1 L 167.7 78.9 L 171.1 78.7 L 174.5 78.4 L 177.9 78.2 L 181.2 78.0 L 184.6 77.8 L 188.0 77.5 L 191.4 77.3 L 194.8 77.0 L 198.1 76.8 L 201.5 76.5 L 204.9 76.3 L 208.3 76.0 L 211.6 75.8 L 215.0 75.5 L 218.4 75.3 L 221.8 75.0 L 225.2 74.7 L 228.5 74.5 L 231.9 74.2 L 235.3 73.9 L 238.7 73.6 L 242.1 73.3 L 245.4 73.1 L 248.8 72.8 L 252.2 72.5 L 255.6 72.2 L 259.0 71.9 L 262.3 71.6 L 265.7 71.3 L 269.1 71.0 L 272.5 70.7 L 275.9 70.4 L 279.2 70.1 L 282.6 69.8 L 286.0 69.5 L 289.4 69.2 L 292.7 68.9 L 296.1 68.6 L 299.5 68.3 L 302.9 68.0 L 306.3 67.6 L 309.6 67.3 L 313.0 67.0 L 316.4 66.7 L 319.8 66.4 L 323.2 66.1 L 326.5 65.7 L 329.9 65.4 L 333.3 65.1 L 336.7 64.8 L 340.1 64.5 L 343.4 64.2 L 346.8 63.8 L 350.2 63.5 L 353.6 63.2 L 357.0 62.9 L 360.3 62.5 L 363.7 62.2 L 367.1 61.9 L 370.5 61.6 L 373.8 61.3 L 377.2 61.0 L 380.6 60.6 L 384.0 60.3" fill="none" stroke="#7B68EE" stroke-linecap="round" stroke-linejoin="round" stroke-width="2.5" /><path d="M 387.4 820.0 L 390.7 819.7 L 394.1 819.4 L 397.5 819.1 L 400.9 818.7 L 404.3 818.4 L 407.6 818.1 L 411.0 817.8 L 414.4 817.5 L 417.8 817.2 L 421.2 816.9 L 424.5 816.6 L 427.9 816.3 L 431.3 816.0 L 434.7 815.7 L 438.0 815.4 L 441.4 815.1 L 444.8 814.8 L 448.2 814.5 L 451.6 814.2 L 454.9 813.9 L 458.3 813.6 L 461.7 813.3 L 465.1 813.1 L 468.5 812.8 L 471.8 812.5 L 475.2 812.2 L 478.6 811.9 L 482.0 811.7 L 485.4 811.4 L 488.7 811.1 L 492.1 810.9 L 495.5 810.6 L 498.9 810.4 L 502.3 810.1 L 505.6 809.9 L 509.0 809.6 L 512.4 809.4 L 515.8 809.1 L 519.1 808.9 L 522.5 808.6 L 525.9 808.4 L 529.3 808.2 L 532.7 807.9 L 536.0 807.7 L 539.4 807.5 L 542.8 807.3 L 546.2 807.1 L 549.6 806.9 L 552.9 806.7 L 556.3 806.5 L 559.7 806.3 L 563.1 806.1 L 566.5 805.9 L 569.8 805.7 L 573.2 805.5 L 576.6 805.3 L 580.0 805.1 L 583.4 805.0 L 586.7 804.8 L 590.1 804.6 L 593.5 804.5 L 596.9 804.3 L 600.2 804.2 L 603.6 804.0 L 607.0 803.9 L 610.4 803.7 L 613.8 803.6 L 617.1 803.5 L 620.5 803.4 L 623.9 803.2 L 627.3 803.1 L 630.7 803.0 L 634.0 802.9 L 637.4 802.8 L 640.8 802.7 L 644.2 802.6 L 647.6 802.5 L 650.9 802.4 L 654.3 802.3 L 657.7 802.2 L 661.1 802.2 L 664.5 802.1 L 667.8 802.0 L 671.2 802.0 L 674.6 801.9 L 678.0 801.9 L 681.3 801.8 L 684.7 801.8 L 688.1 801.8 L 691.5 801.7 L 694.9 801.7 L 698.2 801.7 L 701.6 801.7 L 705.0 801.6 L 708.4 801.6 L 711.8 801.6 L 715.1 801.6 L 718.5 801.6 L 721.9 801.6 L 725.3 801.7 L 728.7 801.7 L 732.0 801.7 L 735.4 801.7 L 738.8 801.8 L 742.2 801.8 L 745.5 801.8 L 748.9 801.9 L 752.3 801.9 L 755.7 802.0 L 759.1 802.0 L 762.4 802.1 L 765.8 802.2 L 769.2 802.2 L 772.6 802.3 L 776.0 802.4 L 779.3 802.5 L 782.7 802.6 L 786.1 802.7 L 789.5 802.8 L 792.9 802.9 L 796.2 803.0 L 799.6 803.1 L 803.0 803.2 L 806.4 803.3 L 809.8 803.4 L 813.1 803.6 L 816.5 803.7 L 819.9 803.8 L 823.3 804.0 L 826.6 804.1 L 830.0 804.2 L 833.4 804.4 L 836.8 804.5 L 840.2 804.7 L 843.5 804.8 L 846.9 805.0 L 850.3 805.2 L 853.7 805.3 L 857.1 805.5 L 860.4 805.7 L 863.8 805.9 L 867.2 806.0 L 870.6 806.2 L 874.0 806.4 L 877.3 806.6 L 880.7 806.8 L 884.1 807.0 L 887.5 807.2 L 890.9 807.4 L 894.2 807.6 L 897.6 807.8 L 901.0 808.0 L 904.4 808.2 L 907.7 808.4 L 911.1 808.6 L 914.5 808.8 L 917.9 809.0 L 921.3 809.3 L 924.6 809.5 L 928.0 809.7 L 931.4 809.9 L 934.8 810.1 L 938.2 810.4 L 941.5 810.6 L 944.9 810.8 L 948.3 811.0 L 951.7 811.3 L 955.1 811.5 L 958.4 811.7 L 961.8 812.0 L 965.2 812.2 L 968.6 812.4 L 972.0 812.7 L 975.3 812.9 L 978.7 813.1 L 982.1 813.4 L 985.5 813.6 L 988.8 813.8 L 992.2 814.1 L 995.6 814.3 L 999.0 814.5 L 1002.4 814.8 L 1005.7 815.0 L 1009.1 815.2 L 1012.5 815.5 L 1015.9 815.7 L 1019.3 815.9 L 1022.6 816.1 L 1026.0 816.4 L 1029.4 816.6 L 1032.8 816.8 L 1036.2 817.1 L 1039.5 817.3 L 1042.9 817.5 L 1046.3 817.7 L 1049.7 817.9 L 1053.0 818.2 L 1056.4 818.4 L 1059.8 818.6 L 1063.2 818.8 L 1066.6 819.0 L 1069.9 819.2 L 1073.3 819.4 L 1076.7 819.6 L 1080.1 819.8" fill="none" stroke="#7B68EE" stroke-linecap="round" stroke-linejoin="round" stroke-width="2.5" /><path d="M 1083.5 60.0 L 1086.8 60.2 L 1090.2 60.4 L 1093.6 60.6 L 1097.0 60.8 L 1100.4 61.0 L 1103.7 61.1 L 1107.1 61.3 L 1110.5 61.5 L 1113.9 61.7 L 1117.3 61.8 L 1120.6 62.0 L 1124.0 62.2 L 1127.4 62.3 L 1130.8 62.5 L 1134.1 62.6 L 1137.5 62.8 L 1140.9 62.9 L 1144.3 63.1 L 1147.7 63.2 L 1151.0 63.3 L 1154.4 63.5 L 1157.8 63.6 L 1161.2 63.7 L 1164.6 63.8 L 1167.9 63.9 L 1171.3 64.0 L 1174.7 64.2 L 1178.1 64.3 L 1181.5 64.3 L 1184.8 64.4 L 1188.2 64.5 L 1191.6 64.6 L 1195.0 64.7 L 1198.4 64.8 L 1201.7 64.8 L 1205.1 64.9 L 1208.5 65.0 L 1211.9 65.0 L 1215.2 65.1 L 1218.6 65.1 L 1222.0 65.1 L 1225.4 65.2 L 1228.8 65.2 L 1232.1 65.2 L 1235.5 65.3 L 1238.9 65.3 L 1242.3 65.3 L 1245.7 65.3 L 1249.0 65.3 L 1252.4 65.3 L 1255.8 65.3 L 1259.2 65.3 L 1262.6 65.3 L 1265.9 65.2 L 1269.3 65.2 L 1272.7 65.2 L 1276.1 65.1 L 1279.5 65.1 L 1282.8 65.1 L 1286.2 65.0 L 1289.6 64.9 L 1293.0 64.9 L 1296.3 64.8 L 1299.7 64.7 L 1303.1 64.7 L 1306.5 64.6 L 1309.9 64.5 L 1313.2 64.4 L 1316.6 64.3 L 1320.0 64.2" fill="none" stroke="#7B68EE" stroke-linecap="round" stroke-linejoin="round" stroke-width="2.5" /><path d="M 90.0 557.5 L 93.4 557.3 L 96.8 557.0 L 100.1 556.8 L 103.5 556.5 L 106.9 556.2 L 110.3 556.0 L 113.7 555.7 L 117.0 555.4 L 120.4 555.2 L 123.8 554.9 L 127.2 554.6 L 130.5 554.4 L 133.9 554.1 L 137.3 553.8 L 140.7 553.5 L 144.1 553.3 L 147.4 553.0 L 150.8 552.7 L 154.2 552.5 L 157.6 552.2 L 161.0 551.9 L 164.3 551.6 L 167.7 551.4 L 171.1 551.1 L 174.5 550.8 L 177.9 550.5 L 181.2 550.3 L 184.6 550.0 L 188.0 549.7 L 191.4 549.5 L 194.8 549.2 L 198.1 548.9 L 201.5 548.7 L 204.9 548.4 L 208.3 548.1 L 211.6 547.9 L 215.0 547.6 L 218.4 547.3 L 221.8 547.1 L 225.2 546.8 L 228.5 546.6 L 231.9 546.3 L 235.3 546.0 L 238.7 545.8 L 242.1 545.5 L 245.4 545.3 L 248.8 545.0 L 252.2 544.8 L 255.6 544.5 L 259.0 544.3 L 262.3 544.0 L 265.7 543.8 L 269.1 543.6 L 272.5 543.3 L 275.9 543.1 L 279.2 542.9 L 282.6 542.6 L 286.0 542.4 L 289.4 542.2 L 292.7 542.0 L 296.1 541.7 L 299.5 541.5 L 302.9 541.3 L 306.3 541.1 L 309.6 540.9 L 313.0 540.7 L 316.4 540.5 L 319.8 540.3 L 323.2 540.1 L 326.5 539.9 L 329.9 539.7 L 333.3 539.5 L 336.7 539.3 L 340.1 539.1 L 343.4 538.9 L 346.8 538.7 L 350.2 538.6 L 353.6 538.4 L 357.0 538.2 L 360.3 538.1 L 363.7 537.9 L 367.1 537.7 L 370.5 537.6 L 373.8 537.4 L 377.2 537.3 L 380.6 537.1 L 384.0 537.0 L 387.4 536.9 L 390.7 536.7 L 394.1 536.6 L 397.5 536.5 L 400.9 536.3 L 404.3 536.2 L 407.6 536.1 L 411.0 536.0 L 414.4 535.9 L 417.8 535.8 L 421.2 535.7 L 424.5 535.6 L 427.9 535.5 L 431.3 535.4 L 434.7 535.3 L 438.0 535.2 L 441.4 535.2 L 444.8 535.1 L 448.2 535.0 L 451.6 534.9 L 454.9 534.9 L 458.3 534.8 L 461.7 534.8 L 465.1 534.7 L 468.5 534.7 L 471.8 534.6 L 475.2 534.6 L 478.6 534.6 L 482.0 534.5 L 485.4 534.5 L 488.7 534.5 L 492.1 534.5 L 495.5 534.4 L 498.9 534.4 L 502.3 534.4 L 505.6 534.4 L 509.0 534.4 L 512.4 534.4 L 515.8 534.4 L 519.1 534.4 L 522.5 534.5 L 525.9 534.5 L 529.3 534.5 L 532.7 534.5 L 536.0 534.6 L 539.4 534.6 L 542.8 534.7 L 546.2 534.7 L 549.6 534.7 L 552.9 534.8 L 556.3 534.8 L 559.7 534.9 L 563.1 535.0 L 566.5 535.0 L 569.8 535.1 L 573.2 535.2 L 576.6 535.3 L 580.0 535.3 L 583.4 535.4 L 586.7 535.5 L 590.1 535.6 L 593.5 535.7 L 596.9 535.8 L 600.2 535.9 L 603.6 536.0 L 607.0 536.1 L 610.4 536.2 L 613.8 536.3 L 617.1 536.4 L 620.5 536.6 L 623.9 536.7 L 627.3 536.8 L 630.7 536.9 L 634.0 537.1 L 637.4 537.2 L 640.8 537.3 L 644.2 537.5 L 647.6 537.6 L 650.9 537.8 L 654.3 537.9 L 657.7 538.1 L 661.1 538.2 L 664.5 538.4 L 667.8 538.5 L 671.2 538.7 L 674.6 538.9 L 678.0 539.0 L 681.3 539.2 L 684.7 539.4 L 688.1 539.5 L 691.5 539.7 L 694.9 539.9 L 698.2 540.1 L 701.6 540.2 L 705.0 540.4 L 708.4 540.6 L 711.8 540.8 L 715.1 541.0 L 718.5 541.1 L 721.9 541.3 L 725.3 541.5 L 728.7 541.7 L 732.0 541.9 L 735.4 542.1 L 738.8 542.3 L 742.2 542.5 L 745.5 542.7 L 748.9 542.9 L 752.3 543.1 L 755.7 543.3 L 759.1 543.5 L 762.4 543.7 L 765.8 543.8 L 769.2 544.0 L 772.6 544.2 L 776.0 544.4 L 779.3 544.6 L 782.7 544.8 L 786.1 545.0 L 789.5 545.2 L 792.9 545.4 L 796.2 545.6 L 799.6 545.8 L 803.0 546.0 L 806.4 546.2 L 809.8 546.4 L 813.1 546.6 L 816.5 546.8 L 819.9 547.0 L 823.3 547.2 L 826.6 547.4 L 830.0 547.6 L 833.4 547.8 L 836.8 548.0 L 840.2 548.2 L 843.5 548.4 L 846.9 548.5 L 850.3 548.7 L 853.7 548.9 L 857.1 549.1 L 860.4 549.3 L 863.8 549.4 L 867.2 549.6 L 870.6 549.8 L 874.0 550.0 L 877.3 550.1 L 880.7 550.3 L 884.1 550.5 L 887.5 550.6 L 890.9 550.8 L 894.2 551.0 L 897.6 551.1 L 901.0 551.3 L 904.4 551.4 L 907.7 551.6 L 911.1 551.7 L 914.5 551.9 L 917.9 552.0 L 921.3 552.2 L 924.6 552.3 L 928.0 552.5 L 931.4 552.6 L 934.8 552.7 L 938.2 552.8 L 941.5 553.0 L 944.9 553.1 L 948.3 553.2 L 951.7 553.3 L 955.1 553.4 L 958.4 553.5 L 961.8 553.6 L 965.2 553.7 L 968.6 553.8 L 972.0 553.9 L 975.3 554.0 L 978.7 554.1 L 982.1 554.2 L 985.5 554.3 L 988.8 554.4 L 992.2 554.4 L 995.6 554.5 L 999.0 554.6 L 1002.4 554.6 L 1005.7 554.7 L 1009.1 554.8 L 1012.5 554.8 L 1015.9 554.9 L 1019.3 554.9 L 1022.6 554.9 L 1026.0 555.0 L 1029.4 555.0 L 1032.8 555.0 L 1036.2 555.1 L 1039.5 555.1 L 1042.9 555.1 L 1046.3 555.1 L 1049.7 555.1 L 1053.0 555.1 L 1056.4 555.1 L 1059.8 555.1 L 1063.2 555.1 L 1066.6 555.1 L 1069.9 555.1 L 1073.3 555.1 L 1076.7 555.0 L 1080.1 555.0 L 1083.5 555.0 L 1086.8 554.9 L 1090.2 554.9 L 1093.6 554.9 L 1097.0 554.8 L 1100.4 554.8 L 1103.7 554.7 L 1107.1 554.6 L 1110.5 554.6 L 1113.9 554.5 L 1117.3 554.4 L 1120.6 554.4 L 1124.0 554.3 L 1127.4 554.2 L 1130.8 554.1 L 1134.1 554.0 L 1137.5 553.9 L 1140.9 553.8 L 1144.3 553.7 L 1147.7 553.6 L 1151.0 553.5 L 1154.4 553.4 L 1157.8 553.3 L 1161.2 553.1 L 1164.6 553.0 L 1167.9 552.9 L 1171.3 552.8 L 1174.7 552.6 L 1178.1 552.5 L 1181.5 552.3 L 1184.8 552.2 L 1188.2 552.0 L 1191.6 551.9 L 1195.0 551.7 L 1198.4 551.6 L 1201.7 551.4 L 1205.1 551.2 L 1208.5 551.0 L 1211.9 550.9 L 1215.2 550.7 L 1218.6 550.5 L 1222.0 550.3 L 1225.4 550.1 L 1228.8 549.9 L 1232.1 549.8 L 1235.5 549.6 L 1238.9 549.4 L 1242.3 549.2 L 1245.7 548.9 L 1249.0 548.7 L 1252.4 548.5 L 1255.8 548.3 L 1259.2 548.1 L 1262.6 547.9 L 1265.9 547.7 L 1269.3 547.4 L 1272.7 547.2 L 1276.1 547.0 L 1279.5 546.8 L 1282.8 546.5 L 1286.2 546.3 L 1289.6 546.1 L 1293.0 545.8 L 1296.3 545.6 L 1299.7 545.3 L 1303.1 545.1 L 1306.5 544.8 L 1309.9 544.6 L 1313.2 544.3 L 1316.6 544.1 L 1320.0 543.8" fill="none" stroke="#8B0000" stroke-linecap="round" stroke-linejoin="round" stroke-width="2.5" /><circle cx="272.4725274725275" cy="676.3069315973577" fill="none" r="3" stroke="#DC143C" stroke-width="1.5" /><circle cx="204.8901098901099" cy="218.0937044719241" fill="none" r="3" stroke="#4169E1" stroke-width="1.5" /><circle cx="1154.423076923077" cy="607.6098404457389" fill="#4169E1" r="3" stroke="#4169E1" stroke-width="1.5" /><circle cx="742.1703296703297" cy="803.6656988356284" fill="#2F4F4F" r="3" stroke="#2F4F4F" stroke-width="1.5" /><circle cx="1208.489010989011" cy="100.89084797280694" fill="none" r="3" stroke="#2F4F4F" stroke-width="1.5" /><circle cx="802.9945054945056" cy="590.6286869461275" fill="#666666" r="3" stroke="#666666" stroke-width="1.5" /><circle cx="191.37362637362637" cy="370.23379424464673" fill="none" r="3" stroke="#00CED1" stroke-width="1.5" /><circle cx="928.021978021978" cy="300.9733970610741" fill="#00CED1" r="3" stroke="#00CED1" stroke-width="1.5" /><circle cx="715.1373626373626" cy="801.6295832036167" fill="#7B68EE" r="3" stroke="#7B68EE" stroke-width="1.5" /><circle cx="1252.4175824175825" cy="65.29524676683884" fill="none" r="3" stroke="#7B68EE" stroke-width="1.5" /><circle cx="509.010989010989" cy="534.421476933819" fill="#8B0000" r="3" stroke="#8B0000" stroke-width="1.5" /><circle cx="1056.4285714285716" cy="555.1225831354317" fill="none" r="3" stroke="#8B0000" stroke-width="1.5" /><text fill="#555555" font-family="&quot;Symbola&quot;, &quot;Noto Sans Symbols&quot;, &quot;Apple Symbols&quot;, &quot;Segoe UI Symbol&quot;, serif" font-size="14px" font-weight="bold" text-anchor="middle" x="924.6428571428572" y="665.8602630811044">□</text><text fill="#555555" font-family="&quot;Symbola&quot;, &quot;Noto Sans Symbols&quot;, &quot;Apple Symbols&quot;, &quot;Segoe UI Symbol&quot;, serif" font-size="14px" font-weight="bold" text-anchor="middle" x="833.4065934065934" y="811.6992848246657">☍</text><text fill="#555555" font-family="&quot;Symbola&quot;, &quot;Noto Sans Symbols&quot;, &quot;Apple Symbols&quot;, &quot;Segoe UI Symbol&quot;, serif" font-size="14px" font-weight="bold" text-anchor="middle" x="1245.6593406593406" y="101.90400981107652">□</text><text fill="#555555" font-family="&quot;Symbola&quot;, &quot;Noto Sans Symbols&quot;, &quot;Apple Symbols&quot;, &quot;Segoe UI Symbol&quot;, serif" font-size="14px" font-weight="bold" text-anchor="middle" x="204.8901098901099" y="660.3395965861087">□</text><text fill="#555555" font-family="&quot;Symbola&quot;, &quot;Noto Sans Symbols&quot;, &quot;Apple Symbols&quot;, &quot;Segoe UI Symbol&quot;, serif" font-size="14px" font-weight="bold" text-anchor="middle" x="377.22527472527474" y="637.587865726268">□</text><text fill="#555555" font-family="&quot;Symbola&quot;, &quot;Noto Sans Symbols&quot;, &quot;Apple Symbols&quot;, &quot;Segoe UI Symbol&quot;, serif" font-size="14px" font-weight="bold" text-anchor="middle" x="965.1923076923077" y="598.9603882691233">☍</text><text fill="#555555" font-family="&quot;Symbola&quot;, &quot;Noto Sans Symbols&quot;, &quot;Apple Symbols&quot;, &quot;Segoe UI Symbol&quot;, serif" font-size="14px" font-weight="bold" text-anchor="middle" x="647.554945054945" y="327.0892487699413">□</text><text fill="#555555" font-family="&quot;Symbola&quot;, &quot;Noto Sans Symbols&quot;, &quot;Apple Symbols&quot;, &quot;Segoe UI Symbol&quot;, serif" font-size="14px" font-weight="bold" text-anchor="middle" x="1130.7692307692307" y="312.5385739390814">☍</text><text fill="#555555" font-family="&quot;Symbola&quot;, &quot;Noto Sans Symbols&quot;, &quot;Apple Symbols&quot;, &quot;Segoe UI Symbol&quot;, serif" font-size="14px" font-weight="bold" text-anchor="middle" x="836.7857142857142" y="806.4170445646683">☍</text><text fill="#555555" font-family="&quot;Symbola&quot;, &quot;Noto Sans Symbols&quot;, &quot;Apple Symbols&quot;, &quot;Segoe UI Symbol&quot;, serif" font-size="14px" font-weight="bold" text-anchor="middle" x="1262.5549450549452" y="70.1879073670144">□</text><text fill="#555555" font-family="&quot;Symbola&quot;, &quot;Noto Sans Symbols&quot;, &quot;Apple Symbols&quot;, &quot;Segoe UI Symbol&quot;, serif" font-size="14px" font-weight="bold" text-anchor="middle" x="96.75824175824175" y="562.6451534952555">☍</text><text fill="#555555" font-family="&quot;Symbola&quot;, &quot;Noto Sans Symbols&quot;, &quot;Apple Symbols&quot;, &quot;Segoe UI Symbol&quot;, serif" font-size="14px" font-weight="bold" text-anchor="middle" x="481.97802197802196" y="537.8225755776821">☍</text><text fill="#555555" font-family="&quot;Symbola&quot;, &quot;Noto Sans Symbols&quot;, &quot;Apple Symbols&quot;, &quot;Segoe UI Symbol&quot;, serif" font-size="14px" font-weight="bold" text-anchor="middle" x="988.8461538461538" y="559.3322032483102">□</text><text fill="#555555" font-family="&quot;Symbola&quot;, &quot;Noto Sans Symbols&quot;, &quot;Apple Symbols&quot;, &quot;Segoe UI Symbol&quot;, serif" font-size="14px" font-weight="bold" text-anchor="middle" x="650.9340659340659" y="812.280473993794">□</text><text fill="#555555" font-family="&quot;Symbola&quot;, &quot;Noto Sans Symbols&quot;, &quot;Apple Symbols&quot;, &quot;Segoe UI Symbol&quot;, serif" font-size="14px" font-weight="bold" text-anchor="middle" x="1090.2197802197802" y="617.1433852607353">□</text><text fill="#555555" font-family="&quot;Symbola&quot;, &quot;Noto Sans Symbols&quot;, &quot;Apple Symbols&quot;, &quot;Segoe UI Symbol&quot;, serif" font-size="14px" font-weight="bold" text-anchor="middle" x="1286.2087912087911" y="633.6463662576472">□</text><text fill="#555555" font-family="&quot;Symbola&quot;, &quot;Noto Sans Symbols&quot;, &quot;Apple Symbols&quot;, &quot;Segoe UI Symbol&quot;, serif" font-size="14px" font-weight="bold" text-anchor="middle" x="661.0714285714286" y="806.501539420909">□</text><text fill="#333333" font-family="&quot;Symbola&quot;, &quot;Noto Sans Symbols&quot;, &quot;Apple Symbols&quot;, &quot;Segoe UI Symbol&quot;, &quot;Arial&quot;, sans-serif" font-size="10px" text-anchor="end" x="45" y="86.75950490827292">27°♓</text><text fill="#7B68EE" font-family="&quot;Symbola&quot;, &quot;Noto Sans Symbols&quot;, &quot;Apple Symbols&quot;, &quot;Segoe UI Symbol&quot;, serif" font-size="14px" text-anchor="end" x="82" y="87.75950490827292">♆</text><text fill="#333333" font-family="&quot;Symbola&quot;, &quot;Noto Sans Symbols&quot;, &quot;Apple Symbols&quot;, &quot;Segoe UI Symbol&quot;, &quot;Arial&quot;, sans-serif" font-size="10px" text-anchor="end" x="45" y="194.36491878200084">14°♓</text><text fill="#2F4F4F" font-family="&quot;Symbola&quot;, &quot;Noto Sans Symbols&quot;, &quot;Apple Symbols&quot;, &quot;Segoe UI Symbol&quot;, serif" font-size="14px" text-anchor="end" x="82" y="195.36491878200084">♄</text><text fill="#333333" font-family="&quot;Symbola&quot;, &quot;Noto Sans Symbols&quot;, &quot;Apple Symbols&quot;, &quot;Segoe UI Symbol&quot;, &quot;Arial&quot;, sans-serif" font-size="10px" text-anchor="end" x="45" y="208.36491878200084">13°♊</text><text fill="#4169E1" font-family="&quot;Symbola&quot;, &quot;Noto Sans Symbols&quot;, &quot;Apple Symbols&quot;, &quot;Segoe UI Symbol&quot;, serif" font-size="14px" text-anchor="end" x="82" y="209.36491878200084">♃</text><text fill="#333333" font-family="&quot;Symbola&quot;, &quot;Noto Sans Symbols&quot;, &quot;Apple Symbols&quot;, &quot;Segoe UI Symbol&quot;, &quot;Arial&quot;, sans-serif" font-size="10px" text-anchor="end" x="45" y="371.17741558071833">23°♉</text><text fill="#00CED1" font-family="&quot;Symbola&quot;, &quot;Noto Sans Symbols&quot;, &quot;Apple Symbols&quot;, &quot;Segoe UI Symbol&quot;, serif" font-size="14px" text-anchor="end" x="82" y="372.17741558071833">♅</text><text fill="#333333" font-family="&quot;Symbola&quot;, &quot;Noto Sans Symbols&quot;, &quot;Apple Symbols&quot;, &quot;Segoe UI Symbol&quot;, &quot;Arial&quot;, sans-serif" font-size="10px" text-anchor="end" x="45" y="555.8661563366715">1°♌</text><text fill="#DC143C" font-family="&quot;Symbola&quot;, &quot;Noto Sans Symbols&quot;, &quot;Apple Symbols&quot;, &quot;Segoe UI Symbol&quot;, serif" font-size="14px" text-anchor="end" x="82" y="556.8661563366715">♂</text><text fill="#333333" font-family="&quot;Symbola&quot;, &quot;Noto Sans Symbols&quot;, &quot;Apple Symbols&quot;, &quot;Segoe UI Symbol&quot;, &quot;Arial&quot;, sans-serif" font-size="10px" text-anchor="end" x="45" y="569.8661563366715">1°♒</text><text fill="#8B0000" font-family="&quot;Symbola&quot;, &quot;Noto Sans Symbols&quot;, &quot;Apple Symbols&quot;, &quot;Segoe UI Symbol&quot;, serif" font-size="14px" text-anchor="end" x="82" y="570.8661563366715">♇</text><text fill="#333333" font-family="&quot;Symbola&quot;, &quot;Noto Sans Symbols&quot;, &quot;Apple Symbols&quot;, &quot;Segoe UI Symbol&quot;, &quot;Arial&quot;, sans-serif" font-size="10px" text-anchor="end" x="45" y="663.5230715127578">19°♈</text><text fill="#666666" font-family="&quot;Symbola&quot;, &quot;Noto Sans Symbols&quot;, &quot;Apple Symbols&quot;, &quot;Segoe UI Symbol&quot;, serif" font-size="14px" text-anchor="end" x="82" y="664.5230715127578">⚷</text><text fill="#7B68EE" font-family="&quot;Symbola&quot;, &quot;Noto Sans Symbols&quot;, &quot;Apple Symbols&quot;, &quot;Segoe UI Symbol&quot;, serif" font-size="14px" text-anchor="start" x="1328" y="69.21625232075942">♆</text><text fill="#333333" font-family="&quot;Symbola&quot;, &quot;Noto Sans Symbols&quot;, &quot;Apple Symbols&quot;, &quot;Segoe UI Symbol&quot;, &quot;Arial&quot;, sans-serif" font-size="10px" text-anchor="start" x="1348" y="68.21625232075942">29°♓</text><text fill="#2F4F4F" font-family="&quot;Symbola&quot;, &quot;Noto Sans Symbols&quot;, &quot;Apple Symbols&quot;, &quot;Segoe UI Symbol&quot;, serif" font-size="14px" text-anchor="start" x="1328" y="97.6101371139441">♄</text><text fill="#333333" font-family="&quot;Symbola&quot;, &quot;Noto Sans Symbols&quot;, &quot;Apple Symbols&quot;, &quot;Segoe UI Symbol&quot;, &quot;Arial&quot;, sans-serif" font-size="10px" text-anchor="start" x="1348" y="96.6101371139441">26°♓</text><text fill="#00CED1" font-family="&quot;Symbola&quot;, &quot;Noto Sans Symbols&quot;, &quot;Apple Symbols&quot;, &quot;Segoe UI Symbol&quot;, serif" font-size="14px" text-anchor="start" x="1328" y="335.5341884737127">♅</text><text fill="#333333" font-family="&quot;Symbola&quot;, &quot;Noto Sans Symbols&quot;, &quot;Apple Symbols&quot;, &quot;Segoe UI Symbol&quot;, &quot;Arial&quot;, sans-serif" font-size="10px" text-anchor="start" x="1348" y="334.5341884737127">27°♉</text><text fill="#8B0000" font-family="&quot;Symbola&quot;, &quot;Noto Sans Symbols&quot;, &quot;Apple Symbols&quot;, &quot;Segoe UI Symbol&quot;, serif" font-size="14px" text-anchor="start" x="1328" y="548.836491575146">♇</text><text fill="#333333" font-family="&quot;Symbola&quot;, &quot;Noto Sans Symbols&quot;, &quot;Apple Symbols&quot;, &quot;Segoe UI Symbol&quot;, &quot;Arial&quot;, sans-serif" font-size="10px" text-anchor="start" x="1348" y="547.836491575146">2°♒</text><text fill="#666666" font-family="&quot;Symbola&quot;, &quot;Noto Sans Symbols&quot;, &quot;Apple Symbols&quot;, &quot;Segoe UI Symbol&quot;, serif" font-size="14px" text-anchor="start" x="1328" y="634.1469583647666">⚷</text><text fill="#333333" font-family="&quot;Symbola&quot;, &quot;Noto Sans Symbols&quot;, &quot;Apple Symbols&quot;, &quot;Segoe UI Symbol&quot;, &quot;Arial&quot;, sans-serif" font-size="10px" text-anchor="start" x="1348" y="633.1469583647666">22°♈</text><text fill="#4169E1" font-family="&quot;Symbola&quot;, &quot;Noto Sans Symbols&quot;, &quot;Apple Symbols&quot;, &quot;Segoe UI Symbol&quot;, serif" font-size="14px" text-anchor="start" x="1328" y="648.1469583647666">♃</text><text fill="#333333" font-family="&quot;Symbola&quot;, &quot;Noto Sans Symbols&quot;, &quot;Apple Symbols&quot;, &quot;Segoe UI Symbol&quot;, &quot;Arial&quot;, sans-serif" font-size="10px" text-anchor="start" x="1348" y="647.1469583647666">21°♋</text><text fill="#DC143C" font-family="&quot;Symbola&quot;, &quot;Noto Sans Symbols&quot;, &quot;Apple Symbols&quot;, &quot;Segoe UI Symbol&quot;, serif" font-size="14px" text-anchor="start" x="1328" y="721.0905958913296">♂</text><text fill="#333333" font-family="&quot;Symbola&quot;, &quot;Noto Sans Symbols&quot;, &quot;Apple Symbols&quot;, &quot;Segoe UI Symbol&quot;, &quot;Arial&quot;, sans-serif" font-size="10px" text-anchor="start" x="1348" y="720.0905958913296">12°♑</text><circle cx="1200" cy="875" fill="#666666" r="3" stroke="#666666" stroke-width="1.5" /><text fill="#333333" font-family="Arial, sans-serif" font-size="10px" x="1210" y="879">Rx Station</text><circle cx="1280" cy="875" fill="none" r="3" stroke="#666666" stroke-width="1.5" /><text fill="#333333" font-family="Arial, sans-serif" font-size="10px" x="1290" y="879">Direct Station</text><text fill="#333333" font-family="Arial, sans-serif" font-size="18px" font-weight="bold" text-anchor="middle" x="700.0" y="30">Graphic Ephemeris 2025 (90° Harmonic)</text></svg>