<?xml version="1.0" encoding="utf-8" ?>
<svg baseProfile="full" height="1600px" version="1.1" viewBox="0 0 2400 1600" width="2400px" xmlns="http://www.w3.org/2000/svg" xmlns:ev="http://www.w3.org/2001/xml-events" xmlns:xlink="http://www.w3.org/1999/xlink"><defs /><rect fill="#FFFFFF" height="1600" width="2400" x="0" y="0" /><line stroke="#D0D0D0" stroke-width="1.0" x1="90" x2="2320" y1="1520.0" y2="1520.0" /><line stroke="#E8E8E8" stroke-width="0.5" x1="90" x2="2320" y1="1438.888888888889" y2="1438.888888888889" /><line stroke="#E8E8E8" stroke-width="0.5" x1="90" x2="2320" y1="1357.7777777777776" y2="1357.7777777777776" /><line stroke="#E8E8E8" stroke-width="0.5" x1="90" x2="2320" y1="1276.6666666666667" y2="1276.6666666666667" /><line stroke="#E8E8E8" stroke-width="0.5" x1="90" x2="2320" y1="1195.5555555555557" y2="1195.5555555555557" /><line stroke="#E8E8E8" stroke-width="0.5" x1="90" x2="2320" y1="1114.4444444444443" y2="1114.4444444444443" /><line stroke="#D0D0D0" stroke-width="1.0" x1="90" x2="2320" y1="1033.3333333333335" y2="1033.3333333333335" /><line stroke="#E8E8E8" stroke-width="0.5" x1="90" x2="2320" y1="952.2222222222223" y2="952.2222222222223" /><line stroke="#E8E8E8" stroke-width="0.5" x1="90" x2="2320" y1="871.1111111111112" y2="871.1111111111112" /><line stroke="#E8E8E8" stroke-width="0.5" x1="90" x2="2320" y1="790.0" y2="790.0" /><line stroke="#E8E8E8" stroke-width="0.5" x1="90" x2="2320" y1="708.8888888888888" y2="708.8888888888888" /><line stroke="#E8E8E8" stroke-width="0.5" x1="90" x2="2320" y1="627.7777777777777" y2="627.7777777777777" /><line stroke="#D0D0D0" stroke-width="1.0" x1="90" x2="2320" y1="546.6666666666667" y2="546.6666666666667" /><line stroke="#E8E8E8" stroke-width="0.5" x1="90" x2="2320" y1="465.5555555555556" y2="465.5555555555556" /><line stroke="#E8E8E8" stroke-width="0.5" x1="90" x2="2320" y1="384.4444444444444" y2="384.4444444444444" /><line stroke="#E8E8E8" stroke-width="0.5" x1="90" x2="2320" y1="303.33333333333326" y2="303.33333333333326" /><line stroke="#E8E8E8" stroke-width="0.5" x1="90" x2="2320" y1="222.22222222222229" y2="222.22222222222229" /><line stroke="#E8E8E8" stroke-width="0.5" x1="90" x2="2320" y1="141.11111111111114" y2="141.11111111111114" /><line stroke="#D0D0D0" stroke-width="1.0" x1="90" x2="2320" y1="60.0" y2="60.0" /><line stroke="#D0D0D0" stroke-width="1.0" x1="90.0" x2="90.0" y1="60" y2="1520" /><line stroke="#E8E8E8" stroke-width="0.5" x1="279.9175824175824" x2="279.9175824175824" y1="60" y2="1520" /><line stroke="#E8E8E8" stroke-width="0.5" x1="451.45604395604397" x2="451.45604395604397" y1="60" y2="1520" /><line stroke="#E8E8E8" stroke-width="0.5" x1="641.3736263736264" x2="641.3736263736264" y1="60" y2="1520" /><line stroke="#E8E8E8" stroke-width="0.5" x1="825.1648351648352" x2="825.1648351648352" y1="60" y2="1520" /><line stroke="#E8E8E8" stroke-width="0.5" x1="1015.0824175824176" x2="1015.0824175824176" y1="60" y2="1520" /><line stroke="#E8E8E8" stroke-width="0.5" x1="1198.8736263736264" x2="1198.8736263736264" y1="60" y2="1520" /><line stroke="#E8E8E8" stroke-width="0.5" x1="1388.7912087912089" x2="1388.7912087912089" y1="60" y2="1520" /><line stroke="#E8E8E8" stroke-width="0.5" x1="1578.7087912087911" x2="1578.7087912087911" y1="60" y2="1520" /><line stroke="#E8E8E8" stroke-width="0.5" x1="1762.5" x2="1762.5" y1="60" y2="1520" /><line stroke="#E8E8E8" stroke-width="0.5" x1="1952.4175824175825" x2="1952.4175824175825" y1="60" y2="1520" /><line stroke="#E8E8E8" stroke-width="0.5" x1="2136.208791208791" x2="2136.208791208791" y1="60" y2="1520" /><text fill="#333333" font-family="&quot;Arial&quot;, &quot;Helvetica&quot;, sans-serif" font-size="11px" text-anchor="end" x="75" y="1524.0">0° Cardinal</text><text fill="#888888" font-family="&quot;Arial&quot;, &quot;Helvetica&quot;, sans-serif" font-size="9px" text-anchor="end" x="75" y="1442.888888888889">5°</text><text fill="#888888" font-family="&quot;Arial&quot;, &quot;Helvetica&quot;, sans-serif" font-size="9px" text-anchor="end" x="75" y="1361.7777777777776">10°</text><text fill="#888888" font-family="&quot;Arial&quot;, &quot;Helvetica&quot;, sans-serif" font-size="9px" text-anchor="end" x="75" y="1280.6666666666667">15°</text><text fill="#888888" font-family="&quot;Arial&quot;, &quot;Helvetica&quot;, sans-serif" font-size="9px" text-anchor="end" x="75" y="1199.5555555555557">20°</text><text fill="#888888" font-family="&quot;Arial&quot;, &quot;Helvetica&quot;, sans-serif" font-size="9px" text-anchor="end" x="75" y="1118.4444444444443">25°</text><text fill="#333333" font-family="&quot;Arial&quot;, &quot;Helvetica&quot;, sans-serif" font-size="11px" text-anchor="end" x="75" y="1037.3333333333335">0° Fixed</text><text fill="#888888" font-family="&quot;Arial&quot;, &quot;Helvetica&quot;, sans-serif" font-size="9px" text-anchor="end" x="75" y="956.2222222222223">5°</text><text fill="#888888" font-family="&quot;Arial&quot;, &quot;Helvetica&quot;, sans-serif" font-size="9px" text-anchor="end" x="75" y="875.1111111111112">10°</text><text fill="#888888" font-family="&quot;Arial&quot;, &quot;Helvetica&quot;, sans-serif" font-size="9px" text-anchor="end" x="75" y="794.0">15°</text><text fill="#888888" font-family="&quot;Arial&quot;, &quot;Helvetica&quot;, sans-serif" font-size="9px" text-anchor="end" x="75" y="712.8888888888888">20°</text><text fill="#888888" font-family="&quot;Arial&quot;, &quot;Helvetica&quot;, sans-serif" font-size="9px" text-anchor="end" x="75" y="631.7777777777777">25°</text><text fill="#333333" font-family="&quot;Arial&quot;, &quot;Helvetica&quot;, sans-serif" font-size="11px" text-anchor="end" x="75" y="550.6666666666667">0° Mutable</text><text fill="#888888" font-family="&quot;Arial&quot;, &quot;Helvetica&quot;, sans-serif" font-size="9px" text-anchor="end" x="75" y="469.5555555555556">5°</text><text fill="#888888" font-family="&quot;Arial&quot;, &quot;Helvetica&quot;, sans-serif" font-size="9px" text-anchor="end" x="75" y="388.4444444444444">10°</text><text fill="#888888" font-family="&quot;Arial&quot;, &quot;Helvetica&quot;, sans-serif" font-size="9px" text-anchor="end" x="75" y="307.33333333333326">15°</text><text fill="#888888" font-family="&quot;Arial&quot;, &quot;Helvetica&quot;, sans-serif" font-size="9px" text-anchor="end" x="75" y="226.22222222222229">20°</text><text fill="#888888" font-family="&quot;Arial&quot;, &quot;Helvetica&quot;, sans-serif" font-size="9px" text-anchor="end" x="75" y="145.11111111111114">25°</text><text fill="#333333" font-family="&quot;Arial&quot;, &quot;Helvetica&quot;, sans-serif" font-size="11px" text-anchor="end" x="75" y="64.0">0° Cardinal</text><text fill="#333333" font-family="Arial, sans-serif" font-size="10px" text-anchor="middle" x="90.0" y="1540">Jan</text><text fill="#333333" font-family="Arial, sans-serif" font-size="12px" font-weight="bold" text-anchor="middle" x="90.0" y="1555">2025</text><text fill="#333333" font-family="Arial, sans-serif" font-size="10px" text-anchor="middle" x="279.9175824175824" y="1540">Feb</text><text fill="#333333" font-family="Arial, sans-serif" font-size="10px" text-anchor="middle" x="451.45604395604397" y="1540">Mar</text><text fill="#333333" font-family="Arial, sans-serif" font-size="10px" text-anchor="middle" x="641.3736263736264" y="1540">Apr</text><text fill="#333333" font-family="Arial, sans-serif" font-size="10px" text-anchor="middle" x="825.1648351648352" y="1540">May</text><text fill="#333333" font-family="Arial, sans-serif" font-size="10px" text-anchor="middle" x="1015.0824175824176" y="1540">Jun</text><text fill="#333333" font-family="Arial, sans-serif" font-size="10px" text-anchor="middle" x="1198.8736263736264" y="1540">Jul</text><text fill="#333333" font-family="Arial, sans-serif" font-size="10px" text-anchor="middle" x="1388.7912087912089" y="1540">Aug</text><text fill="#333333" font-family="Arial, sans-serif" font-size="10px" text-anchor="middle" x="1578.7087912087911" y="1540">Sep</text><text fill="#333333" font-family="Arial, sans-serif" font-size="10px" text-anchor="middle" x="1762.5" y="1540">Oct</text><text fill="#333333" font-family="Arial, sans-serif" font-size="10px" text-anchor="middle" x="1952.4175824175825" y="1540">Nov</text><text fill="#333333" font-family="Arial, sans-serif" font-size="10px" text-anchor="middle" x="2136.208791208791" y="1540">Dec</text><path d="M 90.0 1336.3 L 96.1 1319.8 L 102.3 1303.2 L 108.4 1286.7 L 114.5 1270.2 L 120.6 1253.6 L 126.8 1237.1 L 132.9 1220.6 L 139.0 1204.0 L 145.1 1187.5 L 151.3 1171.0 L 157.4 1154.4 L 163.5 1137.9 L 169.6 1121.4 L 175.8 1104.9 L 181.9 1088.4 L 188.0 1071.9 L 194.1 1055.3 L 200.3 1038.8 L 206.4 1022.3 L 212.5 1005.8 L 218.7 989.3 L 224.8 972.8 L 230.9 956.3 L 237.0 939.8 L 243.2 923.3 L 249.3 906.8 L 255.4 890.3 L 261.5 873.8 L 267.7 857.4 L 273.8 840.9 L 279.9 824.4 L 286.0 808.0 L 292.2 791.5 L 298.3 775.0 L 304.4 758.6 L 310.5 742.2 L 316.7 725.7 L 322.8 709.3 L 328.9 692.9 L 335.1 676.5 L 341.2 660.0 L 347.3 643.6 L 353.4 627.3 L 359.6 610.9 L 365.7 594.5 L 371.8 578.1 L 377.9 561.7 L 384.1 545.4 L 390.2 529.0 L 396.3 512.7 L 402.4 496.3 L 408.6 480.0 L 414.7 463.6 L 420.8 447.3 L 427.0 431.0 L 433.1 414.7 L 439.2 398.4 L 445.3 382.1 L 451.5 365.8 L 457.6 349.5 L 463.7 333.2 L 469.8 317.0 L 476.0 300.7 L 482.1 284.5 L 488.2 268.2 L 494.3 252.0 L 500.5 235.8 L 506.6 219.6 L 512.7 203.4 L 518.8 187.2 L 525.0 171.0 L 531.1 154.8 L 537.2 138.7 L 543.4 122.5 L 549.5 106.4 L 555.6 90.2 L 561.7 74.1" fill="none" stroke="#FFD700" stroke-linecap="round" stroke-linejoin="round" stroke-width="2.5" /><path d="M 567.9 1518.0 L 574.0 1501.9 L 580.1 1485.8 L 586.2 1469.7 L 592.4 1453.6 L 598.5 1437.5 L 604.6 1421.4 L 610.7 1405.4 L 616.9 1389.3 L 623.0 1373.3 L 629.1 1357.2 L 635.2 1341.2 L 641.4 1325.2 L 647.5 1309.2 L 653.6 1293.2 L 659.8 1277.2 L 665.9 1261.2 L 672.0 1245.3 L 678.1 1229.3 L 684.3 1213.4 L 690.4 1197.4 L 696.5 1181.5 L 702.6 1165.6 L 708.8 1149.7 L 714.9 1133.8 L 721.0 1117.9 L 727.1 1102.0 L 733.3 1086.1 L 739.4 1070.3 L 745.5 1054.4 L 751.6 1038.6 L 757.8 1022.7 L 763.9 1006.9 L 770.0 991.1 L 776.2 975.3 L 782.3 959.4 L 788.4 943.6 L 794.5 927.8 L 800.7 912.0 L 806.8 896.3 L 812.9 880.5 L 819.0 864.7 L 825.2 849.0 L 831.3 833.2 L 837.4 817.5 L 843.5 801.8 L 849.7 786.0 L 855.8 770.3 L 861.9 754.6 L 868.0 738.9 L 874.2 723.3 L 880.3 707.6 L 886.4 691.9 L 892.6 676.2 L 898.7 660.6 L 904.8 644.9 L 910.9 629.3 L 917.1 613.7 L 923.2 598.0 L 929.3 582.4 L 935.4 566.8 L 941.6 551.2 L 947.7 535.6 L 953.8 519.9 L 959.9 504.3 L 966.1 488.7 L 972.2 473.2 L 978.3 457.6 L 984.5 442.0 L 990.6 426.4 L 996.7 410.8 L 1002.8 395.3 L 1009.0 379.7 L 1015.1 364.2 L 1021.2 348.6 L 1027.3 333.1 L 1033.5 317.5 L 1039.6 302.0 L 1045.7 286.5 L 1051.8 271.0 L 1058.0 255.4 L 1064.1 239.9 L 1070.2 224.4 L 1076.3 208.9 L 1082.5 193.4 L 1088.6 177.9 L 1094.7 162.4 L 1100.9 146.9 L 1107.0 131.4 L 1113.1 115.9 L 1119.2 100.5 L 1125.4 85.0 L 1131.5 69.5" fill="none" stroke="#FFD700" stroke-linecap="round" stroke-linejoin="round" stroke-width="2.5" /><path d="M 1137.6 1514.0 L 1143.7 1498.5 L 1149.9 1483.0 L 1156.0 1467.5 L 1162.1 1452.1 L 1168.2 1436.6 L 1174.4 1421.1 L 1180.5 1405.6 L 1186.6 1390.2 L 1192.7 1374.7 L 1198.9 1359.2 L 1205.0 1343.7 L 1211.1 1328.3 L 1217.3 1312.8 L 1223.4 1297.3 L 1229.5 1281.9 L 1235.6 1266.4 L 1241.8 1250.9 L 1247.9 1235.5 L 1254.0 1220.0 L 1260.1 1204.6 L 1266.3 1189.1 L 1272.4 1173.6 L 1278.5 1158.2 L 1284.6 1142.7 L 1290.8 1127.2 L 1296.9 1111.7 L 1303.0 1096.3 L 1309.1 1080.8 L 1315.3 1065.3 L 1321.4 1049.8 L 1327.5 1034.3 L 1333.7 1018.8 L 1339.8 1003.3 L 1345.9 987.8 L 1352.0 972.3 L 1358.2 956.8 L 1364.3 941.3 L 1370.4 925.8 L 1376.5 910.2 L 1382.7 894.7 L 1388.8 879.2 L 1394.9 863.7 L 1401.0 848.2 L 1407.2 832.6 L 1413.3 817.1 L 1419.4 801.6 L 1425.5 786.0 L 1431.7 770.5 L 1437.8 754.9 L 1443.9 739.4 L 1450.1 723.8 L 1456.2 708.3 L 1462.3 692.7 L 1468.4 677.1 L 1474.6 661.5 L 1480.7 645.9 L 1486.8 630.3 L 1492.9 614.7 L 1499.1 599.1 L 1505.2 583.5 L 1511.3 567.9 L 1517.4 552.2 L 1523.6 536.6 L 1529.7 521.0 L 1535.8 505.3 L 1542.0 489.7 L 1548.1 474.0 L 1554.2 458.3 L 1560.3 442.6 L 1566.5 427.0 L 1572.6 411.3 L 1578.7 395.6 L 1584.8 379.9 L 1591.0 364.2 L 1597.1 348.5 L 1603.2 332.7 L 1609.3 317.0 L 1615.5 301.3 L 1621.6 285.5 L 1627.7 269.8 L 1633.8 254.0 L 1640.0 238.3 L 1646.1 222.5 L 1652.2 206.7 L 1658.4 190.9 L 1664.5 175.1 L 1670.6 159.3 L 1676.7 143.4 L 1682.9 127.6 L 1689.0 111.8 L 1695.1 95.9 L 1701.2 80.1 L 1707.4 64.2" fill="none" stroke="#FFD700" stroke-linecap="round" stroke-linejoin="round" stroke-width="2.5" /><path d="M 1713.5 1508.3 L 1719.6 1492.4 L 1725.7 1476.5 L 1731.9 1460.6 L 1738.0 1444.7 L 1744.1 1428.8 L 1750.2 1412.8 L 1756.4 1396.9 L 1762.5 1381.0 L 1768.6 1365.0 L 1774.8 1349.1 L 1780.9 1333.1 L 1787.0 1317.1 L 1793.1 1301.1 L 1799.3 1285.1 L 1805.4 1269.1 L 1811.5 1253.1 L 1817.6 1237.1 L 1823.8 1221.0 L 1829.9 1205.0 L 1836.0 1188.9 L 1842.1 1172.9 L 1848.3 1156.8 L 1854.4 1140.7 L 1860.5 1124.6 L 1866.6 1108.5 L 1872.8 1092.4 L 1878.9 1076.3 L 1885.0 1060.1 L 1891.2 1044.0 L 1897.3 1027.8 L 1903.4 1011.7 L 1909.5 995.5 L 1915.7 979.3 L 1921.8 963.2 L 1927.9 947.0 L 1934.0 930.8 L 1940.2 914.6 L 1946.3 898.3 L 1952.4 882.1 L 1958.5 865.9 L 1964.7 849.6 L 1970.8 833.4 L 1976.9 817.2 L 1983.0 800.9 L 1989.2 784.6 L 1995.3 768.3 L 2001.4 752.1 L 2007.6 735.8 L 2013.7 719.5 L 2019.8 703.1 L 2025.9 686.8 L 2032.1 670.5 L 2038.2 654.1 L 2044.3 637.8 L 2050.4 621.4 L 2056.6 605.1 L 2062.7 588.7 L 2068.8 572.3 L 2074.9 555.9 L 2081.1 539.6 L 2087.2 523.2 L 2093.3 506.8 L 2099.5 490.3 L 2105.6 473.9 L 2111.7 457.5 L 2117.8 441.1 L 2124.0 424.7 L 2130.1 408.2 L 2136.2 391.8 L 2142.3 375.4 L 2148.5 358.9 L 2154.6 342.5 L 2160.7 326.0 L 2166.8 309.6 L 2173.0 293.1 L 2179.1 276.6 L 2185.2 260.2 L 2191.3 243.7 L 2197.5 227.2 L 2203.6 210.7 L 2209.7 194.2 L 2215.9 177.7 L 2222.0 161.2 L 2228.1 144.7 L 2234.2 128.2 L 2240.4 111.7 L 2246.5 95.1 L 2252.6 78.6 L 2258.7 62.1" fill="none" stroke="#FFD700" stroke-linecap="round" stroke-linejoin="round" stroke-width="2.5" /><path d="M 2264.9 1505.6 L 2271.0 1489.0 L 2277.1 1472.5 L 2283.2 1456.0 L 2289.4 1439.5 L 2295.5 1422.9 L 2301.6 1406.4 L 2307.7 1389.9 L 2313.9 1373.3 L 2320.0 1356.8" fill="none" stroke="#FFD700" stroke-linecap="round" stroke-linejoin="round" stroke-width="2.5" /><path d="M 90.0 213.8 L 96.1 192.6 L 102.3 171.0 L 108.4 149.0 L 114.5 126.8 L 120.6 104.3 L 126.8 81.5" fill="none" stroke="#FFA500" stroke-linecap="round" stroke-linejoin="round" stroke-width="2.5" /><path d="M 132.9 1518.6 L 139.0 1495.4 L 145.1 1472.0 L 151.3 1448.4 L 157.4 1424.7 L 163.5 1400.8 L 169.6 1376.7 L 175.8 1352.5 L 181.9 1328.1 L 188.0 1303.6 L 194.1 1278.9 L 200.3 1254.0 L 206.4 1229.0 L 212.5 1203.9 L 218.7 1178.6 L 224.8 1153.1 L 230.9 1127.5 L 237.0 1101.7 L 243.2 1075.7 L 249.3 1049.6 L 255.4 1023.3 L 261.5 996.8 L 267.7 970.2 L 273.8 943.3 L 279.9 916.3 L 286.0 889.1 L 292.2 861.7 L 298.3 834.1 L 304.4 806.3 L 310.5 778.2 L 316.7 750.0 L 322.8 721.6 L 328.9 692.9 L 335.1 664.1 L 341.2 635.1 L 347.3 605.8 L 353.4 576.4 L 359.6 546.8 L 365.7 517.0 L 371.8 487.1 L 377.9 457.1 L 384.1 427.0 L 390.2 396.9 L 396.3 366.7 L 402.4 336.6 L 408.6 306.6 L 414.7 276.8 L 420.8 247.2 L 427.0 218.0 L 433.1 189.3 L 439.2 161.1 L 445.3 133.7 L 451.5 107.1 L 457.6 81.5" fill="none" stroke="#FFA500" stroke-linecap="round" stroke-linejoin="round" stroke-width="2.5" /><path d="M 463.7 1517.1 L 469.8 1494.0 L 476.0 1472.3 L 482.1 1452.3 L 488.2 1434.0 L 494.3 1417.6 L 500.5 1403.3 L 506.6 1391.1 L 512.7 1381.2 L 518.8 1373.5 L 525.0 1368.1 L 531.1 1365.2 L 537.2 1364.5 L 543.4 1366.1 L 549.5 1370.0 L 555.6 1375.9 L 561.7 1383.7 L 567.9 1393.3 L 574.0 1404.3 L 580.1 1416.6 L 586.2 1429.9 L 592.4 1443.8 L 598.5 1458.0 L 604.6 1472.3 L 610.7 1486.4 L 616.9 1500.0 L 623.0 1512.8" fill="none" stroke="#FFA500" stroke-linecap="round" stroke-linejoin="round" stroke-width="2.5" /><path d="M 629.1 64.7 L 635.2 75.4 L 641.4 84.9 L 647.5 93.1 L 653.6 99.7 L 659.8 104.9 L 665.9 108.6 L 672.0 110.8 L 678.1 111.5 L 684.3 110.7 L 690.4 108.5 L 696.5 104.9 L 702.6 100.0 L 708.8 93.8 L 714.9 86.4 L 721.0 77.8 L 727.1 68.2" fill="none" stroke="#FFA500" stroke-linecap="round" stroke-linejoin="round" stroke-width="2.5" /><path d="M 733.3 1517.4 L 739.4 1505.7 L 745.5 1493.0 L 751.6 1479.3 L 757.8 1464.8 L 763.9 1449.5 L 770.0 1433.4 L 776.2 1416.5 L 782.3 1398.9 L 788.4 1380.6 L 794.5 1361.6 L 800.7 1342.0 L 806.8 1321.7 L 812.9 1300.8 L 819.0 1279.3 L 825.2 1257.2 L 831.3 1234.6 L 837.4 1211.4 L 843.5 1187.6 L 849.7 1163.3 L 855.8 1138.4 L 861.9 1113.0 L 868.0 1087.1 L 874.2 1060.6 L 880.3 1033.6 L 886.4 1006.1 L 892.6 978.0 L 898.7 949.4 L 904.8 920.2 L 910.9 890.5 L 917.1 860.3 L 923.2 829.6 L 929.3 798.3 L 935.4 766.5 L 941.6 734.1 L 947.7 701.3 L 953.8 668.0 L 959.9 634.3 L 966.1 600.1 L 972.2 565.5 L 978.3 530.6 L 984.5 495.4 L 990.6 460.0 L 996.7 424.4 L 1002.8 388.7 L 1009.0 353.0 L 1015.1 317.4 L 1021.2 281.9 L 1027.3 246.5 L 1033.5 211.5 L 1039.6 176.7 L 1045.7 142.4 L 1051.8 108.5 L 1058.0 75.1" fill="none" stroke="#FFA500" stroke-linecap="round" stroke-linejoin="round" stroke-width="2.5" /><path d="M 1064.1 1502.2 L 1070.2 1469.9 L 1076.3 1438.2 L 1082.5 1407.0 L 1088.6 1376.5 L 1094.7 1346.6 L 1100.9 1317.4 L 1107.0 1288.8 L 1113.1 1260.9 L 1119.2 1233.6 L 1125.4 1207.0 L 1131.5 1181.1 L 1137.6 1155.8 L 1143.7 1131.2 L 1149.9 1107.3 L 1156.0 1084.1 L 1162.1 1061.5 L 1168.2 1039.7 L 1174.4 1018.6 L 1180.5 998.2 L 1186.6 978.6 L 1192.7 959.7 L 1198.9 941.6 L 1205.0 924.3 L 1211.1 907.8 L 1217.3 892.1 L 1223.4 877.4 L 1229.5 863.5 L 1235.6 850.6 L 1241.8 838.7 L 1247.9 827.8 L 1254.0 817.9 L 1260.1 809.1 L 1266.3 801.4 L 1272.4 794.8 L 1278.5 789.5 L 1284.6 785.4 L 1290.8 782.6 L 1296.9 781.0 L 1303.0 780.7 L 1309.1 781.8 L 1315.3 784.2 L 1321.4 787.8 L 1327.5 792.8 L 1333.7 799.0 L 1339.8 806.4 L 1345.9 814.9 L 1352.0 824.3 L 1358.2 834.7 L 1364.3 845.7 L 1370.4 857.3 L 1376.5 869.2 L 1382.7 881.3 L 1388.8 893.3 L 1394.9 905.0 L 1401.0 916.2 L 1407.2 926.7 L 1413.3 936.2 L 1419.4 944.6 L 1425.5 951.7 L 1431.7 957.4 L 1437.8 961.4 L 1443.9 963.8 L 1450.1 964.4 L 1456.2 963.1 L 1462.3 959.9 L 1468.4 954.8 L 1474.6 947.7 L 1480.7 938.7 L 1486.8 927.8 L 1492.9 915.0 L 1499.1 900.3 L 1505.2 883.8 L 1511.3 865.6 L 1517.4 845.7 L 1523.6 824.3 L 1529.7 801.4 L 1535.8 777.2 L 1542.0 751.6 L 1548.1 725.0 L 1554.2 697.4 L 1560.3 668.8 L 1566.5 639.6 L 1572.6 609.7 L 1578.7 579.3 L 1584.8 548.5 L 1591.0 517.4 L 1597.1 486.0 L 1603.2 454.6 L 1609.3 423.2 L 1615.5 391.7 L 1621.6 360.4 L 1627.7 329.1 L 1633.8 298.0 L 1640.0 267.1 L 1646.1 236.5 L 1652.2 206.0 L 1658.4 175.8 L 1664.5 145.9 L 1670.6 116.2 L 1676.7 86.8" fill="none" stroke="#FFA500" stroke-linecap="round" stroke-linejoin="round" stroke-width="2.5" /><path d="M 1682.9 1517.7 L 1689.0 1488.9 L 1695.1 1460.3 L 1701.2 1432.0 L 1707.4 1404.0 L 1713.5 1376.3 L 1719.6 1348.8 L 1725.7 1321.6 L 1731.9 1294.6 L 1738.0 1267.9 L 1744.1 1241.4 L 1750.2 1215.2 L 1756.4 1189.2 L 1762.5 1163.5 L 1768.6 1137.9 L 1774.8 1112.6 L 1780.9 1087.6 L 1787.0 1062.7 L 1793.1 1038.1 L 1799.3 1013.7 L 1805.4 989.5 L 1811.5 965.5 L 1817.6 941.8 L 1823.8 918.3 L 1829.9 895.0 L 1836.0 871.9 L 1842.1 849.1 L 1848.3 826.5 L 1854.4 804.1 L 1860.5 782.0 L 1866.6 760.3 L 1872.8 738.7 L 1878.9 717.6 L 1885.0 696.7 L 1891.2 676.2 L 1897.3 656.1 L 1903.4 636.4 L 1909.5 617.2 L 1915.7 598.5 L 1921.8 580.4 L 1927.9 562.8 L 1934.0 546.0 L 1940.2 529.9 L 1946.3 514.7 L 1952.4 500.4 L 1958.5 487.1 L 1964.7 475.0 L 1970.8 464.2 L 1976.9 454.9 L 1983.0 447.2 L 1989.2 441.3 L 1995.3 437.3 L 2001.4 435.5 L 2007.6 436.0 L 2013.7 439.0 L 2019.8 444.6 L 2025.9 453.0 L 2032.1 464.1 L 2038.2 477.9 L 2044.3 494.2 L 2050.4 512.8 L 2056.6 533.0 L 2062.7 554.5 L 2068.8 576.5 L 2074.9 598.3 L 2081.1 619.2 L 2087.2 638.5 L 2093.3 655.5 L 2099.5 670.0 L 2105.6 681.5 L 2111.7 689.9 L 2117.8 695.2 L 2124.0 697.3 L 2130.1 696.6 L 2136.2 693.1 L 2142.3 687.1 L 2148.5 678.8 L 2154.6 668.4 L 2160.7 656.2 L 2166.8 642.4 L 2173.0 627.2 L 2179.1 610.7 L 2185.2 593.2 L 2191.3 574.7 L 2197.5 555.5 L 2203.6 535.5 L 2209.7 514.9 L 2215.9 493.7 L 2222.0 472.1 L 2228.1 450.1 L 2234.2 427.8 L 2240.4 405.1 L 2246.5 382.2 L 2252.6 359.1 L 2258.7 335.7 L 2264.9 312.2 L 2271.0 288.4 L 2277.1 264.6 L 2283.2 240.6 L 2289.4 216.5 L 2295.5 192.2 L 2301.6 167.9 L 2307.7 143.4 L 2313.9 118.9 L 2320.0 94.2" fill="none" stroke="#FFA500" stroke-linecap="round" stroke-linejoin="round" stroke-width="2.5" /><path d="M 90.0 575.1 L 96.1 557.7 L 102.3 540.5 L 108.4 523.3 L 114.5 506.3 L 120.6 489.3 L 126.8 472.4 L 132.9 455.6 L 139.0 438.9 L 145.1 422.4 L 151.3 405.9 L 157.4 389.6 L 163.5 373.4 L 169.6 357.3 L 175.8 341.3 L 181.9 325.5 L 188.0 309.8 L 194.1 294.3 L 200.3 278.9 L 206.4 263.6 L 212.5 248.6 L 218.7 233.7 L 224.8 218.9 L 230.9 204.3 L 237.0 190.0 L 243.2 175.8 L 249.3 161.8 L 255.4 148.0 L 261.5 134.4 L 267.7 121.1 L 273.8 107.9 L 279.9 95.1 L 286.0 82.4 L 292.2 70.1" fill="none" stroke="#FF69B4" stroke-linecap="round" stroke-linejoin="round" stroke-width="2.5" /><path d="M 298.3 1518.0 L 304.4 1506.2 L 310.5 1494.7 L 316.7 1483.5 L 322.8 1472.6 L 328.9 1462.0 L 335.1 1451.9 L 341.2 1442.0 L 347.3 1432.6 L 353.4 1423.5 L 359.6 1414.8 L 365.7 1406.6 L 371.8 1398.8 L 377.9 1391.4 L 384.1 1384.6 L 390.2 1378.2 L 396.3 1372.2 L 402.4 1366.9 L 408.6 1362.0 L 414.7 1357.7 L 420.8 1354.0 L 427.0 1350.8 L 433.1 1348.2 L 439.2 1346.3 L 445.3 1345.0 L 451.5 1344.3 L 457.6 1344.3 L 463.7 1344.9 L 469.8 1346.3 L 476.0 1348.3 L 482.1 1351.0 L 488.2 1354.3 L 494.3 1358.4 L 500.5 1363.1 L 506.6 1368.4 L 512.7 1374.4 L 518.8 1381.1 L 525.0 1388.2 L 531.1 1396.0 L 537.2 1404.2 L 543.4 1412.9 L 549.5 1422.0 L 555.6 1431.4 L 561.7 1441.1 L 567.9 1451.1 L 574.0 1461.2 L 580.1 1471.4 L 586.2 1481.6 L 592.4 1491.8 L 598.5 1501.8 L 604.6 1511.7" fill="none" stroke="#FF69B4" stroke-linecap="round" stroke-linejoin="round" stroke-width="2.5" /><path d="M 610.7 61.3 L 616.9 70.6 L 623.0 79.6 L 629.1 88.1 L 635.2 96.2 L 641.4 103.8 L 647.5 110.9 L 653.6 117.3 L 659.8 123.2 L 665.9 128.5 L 672.0 133.1 L 678.1 137.1 L 684.3 140.4 L 690.4 143.1 L 696.5 145.1 L 702.6 146.4 L 708.8 147.1 L 714.9 147.1 L 721.0 146.5 L 727.1 145.3 L 733.3 143.4 L 739.4 141.0 L 745.5 137.9 L 751.6 134.3 L 757.8 130.1 L 763.9 125.4 L 770.0 120.2 L 776.2 114.5 L 782.3 108.3 L 788.4 101.6 L 794.5 94.5 L 800.7 87.0 L 806.8 79.0 L 812.9 70.7 L 819.0 62.0" fill="none" stroke="#FF69B4" stroke-linecap="round" stroke-linejoin="round" stroke-width="2.5" /><path d="M 825.2 1512.9 L 831.3 1503.4 L 837.4 1493.6 L 843.5 1483.5 L 849.7 1473.1 L 855.8 1462.4 L 861.9 1451.4 L 868.0 1440.1 L 874.2 1428.6 L 880.3 1416.7 L 886.4 1404.7 L 892.6 1392.4 L 898.7 1379.8 L 904.8 1367.1 L 910.9 1354.1 L 917.1 1340.9 L 923.2 1327.6 L 929.3 1314.0 L 935.4 1300.3 L 941.6 1286.3 L 947.7 1272.3 L 953.8 1258.0 L 959.9 1243.6 L 966.1 1229.0 L 972.2 1214.3 L 978.3 1199.5 L 984.5 1184.5 L 990.6 1169.4 L 996.7 1154.2 L 1002.8 1138.8 L 1009.0 1123.4 L 1015.1 1107.8 L 1021.2 1092.1 L 1027.3 1076.4 L 1033.5 1060.5 L 1039.6 1044.5 L 1045.7 1028.4 L 1051.8 1012.3 L 1058.0 996.0 L 1064.1 979.7 L 1070.2 963.3 L 1076.3 946.8 L 1082.5 930.2 L 1088.6 913.5 L 1094.7 896.8 L 1100.9 880.0 L 1107.0 863.1 L 1113.1 846.1 L 1119.2 829.1 L 1125.4 812.0 L 1131.5 794.9 L 1137.6 777.7 L 1143.7 760.4 L 1149.9 743.1 L 1156.0 725.7 L 1162.1 708.3 L 1168.2 690.8 L 1174.4 673.3 L 1180.5 655.7 L 1186.6 638.1 L 1192.7 620.4 L 1198.9 602.7 L 1205.0 584.9 L 1211.1 567.1 L 1217.3 549.3 L 1223.4 531.4 L 1229.5 513.5 L 1235.6 495.5 L 1241.8 477.5 L 1247.9 459.4 L 1254.0 441.3 L 1260.1 423.2 L 1266.3 405.1 L 1272.4 386.9 L 1278.5 368.6 L 1284.6 350.4 L 1290.8 332.0 L 1296.9 313.7 L 1303.0 295.3 L 1309.1 276.9 L 1315.3 258.5 L 1321.4 240.0 L 1327.5 221.5 L 1333.7 203.0 L 1339.8 184.4 L 1345.9 165.8 L 1352.0 147.2 L 1358.2 128.6 L 1364.3 109.9 L 1370.4 91.2 L 1376.5 72.5" fill="none" stroke="#FF69B4" stroke-linecap="round" stroke-linejoin="round" stroke-width="2.5" /><path d="M 1382.7 1513.7 L 1388.8 1494.9 L 1394.9 1476.1 L 1401.0 1457.3 L 1407.2 1438.4 L 1413.3 1419.6 L 1419.4 1400.7 L 1425.5 1381.7 L 1431.7 1362.8 L 1437.8 1343.8 L 1443.9 1324.8 L 1450.1 1305.8 L 1456.2 1286.7 L 1462.3 1267.6 L 1468.4 1248.5 L 1474.6 1229.4 L 1480.7 1210.3 L 1486.8 1191.1 L 1492.9 1171.9 L 1499.1 1152.7 L 1505.2 1133.4 L 1511.3 1114.2 L 1517.4 1094.9 L 1523.6 1075.6 L 1529.7 1056.3 L 1535.8 1036.9 L 1542.0 1017.6 L 1548.1 998.2 L 1554.2 978.8 L 1560.3 959.4 L 1566.5 939.9 L 1572.6 920.5 L 1578.7 901.0 L 1584.8 881.5 L 1591.0 862.0 L 1597.1 842.4 L 1603.2 822.9 L 1609.3 803.3 L 1615.5 783.7 L 1621.6 764.1 L 1627.7 744.5 L 1633.8 724.8 L 1640.0 705.2 L 1646.1 685.5 L 1652.2 665.8 L 1658.4 646.1 L 1664.5 626.3 L 1670.6 606.6 L 1676.7 586.8 L 1682.9 567.0 L 1689.0 547.2 L 1695.1 527.4 L 1701.2 507.6 L 1707.4 487.7 L 1713.5 467.8 L 1719.6 448.0 L 1725.7 428.1 L 1731.9 408.2 L 1738.0 388.2 L 1744.1 368.3 L 1750.2 348.4 L 1756.4 328.4 L 1762.5 308.4 L 1768.6 288.4 L 1774.8 268.5 L 1780.9 248.4 L 1787.0 228.4 L 1793.1 208.4 L 1799.3 188.3 L 1805.4 168.3 L 1811.5 148.2 L 1817.6 128.1 L 1823.8 108.0 L 1829.9 87.9 L 1836.0 67.8" fill="none" stroke="#FF69B4" stroke-linecap="round" stroke-linejoin="round" stroke-width="2.5" /><path d="M 1842.1 1507.7 L 1848.3 1487.5 L 1854.4 1467.4 L 1860.5 1447.2 L 1866.6 1427.1 L 1872.8 1406.9 L 1878.9 1386.7 L 1885.0 1366.5 L 1891.2 1346.3 L 1897.3 1326.1 L 1903.4 1305.8 L 1909.5 1285.6 L 1915.7 1265.4 L 1921.8 1245.1 L 1927.9 1224.9 L 1934.0 1204.6 L 1940.2 1184.4 L 1946.3 1164.1 L 1952.4 1143.8 L 1958.5 1123.5 L 1964.7 1103.3 L 1970.8 1083.0 L 1976.9 1062.7 L 1983.0 1042.4 L 1989.2 1022.0 L 1995.3 1001.7 L 2001.4 981.4 L 2007.6 961.1 L 2013.7 940.7 L 2019.8 920.4 L 2025.9 900.1 L 2032.1 879.7 L 2038.2 859.4 L 2044.3 839.0 L 2050.4 818.6 L 2056.6 798.3 L 2062.7 777.9 L 2068.8 757.5 L 2074.9 737.1 L 2081.1 716.8 L 2087.2 696.4 L 2093.3 676.0 L 2099.5 655.6 L 2105.6 635.2 L 2111.7 614.8 L 2117.8 594.4 L 2124.0 574.1 L 2130.1 553.7 L 2136.2 533.3 L 2142.3 512.9 L 2148.5 492.5 L 2154.6 472.1 L 2160.7 451.7 L 2166.8 431.3 L 2173.0 410.9 L 2179.1 390.4 L 2185.2 370.0 L 2191.3 349.6 L 2197.5 329.2 L 2203.6 308.8 L 2209.7 288.4 L 2215.9 268.0 L 2222.0 247.6 L 2228.1 227.1 L 2234.2 206.7 L 2240.4 186.3 L 2246.5 165.9 L 2252.6 145.5 L 2258.7 125.0 L 2264.9 104.6 L 2271.0 84.2 L 2277.1 63.8" fill="none" stroke="#FF69B4" stroke-linecap="round" stroke-linejoin="round" stroke-width="2.5" /><path d="M 2283.2 1503.4 L 2289.4 1482.9 L 2295.5 1462.5 L 2301.6 1442.1 L 2307.7 1421.7 L 2313.9 1401.3 L 2320.0 1380.9" fill="none" stroke="#FF69B4" stroke-linecap="round" stroke-linejoin="round" stroke-width="2.5" /><path d="M 90.0 1004.9 L 96.1 1010.4 L 102.3 1016.0 L 108.4 1021.8 L 114.5 1027.7 L 120.6 1033.7 L 126.8 1039.8 L 132.9 1046.0 L 139.0 1052.2 L 145.1 1058.6 L 151.3 1065.0 L 157.4 1071.4 L 163.5 1077.9 L 169.6 1084.4 L 175.8 1090.9 L 181.9 1097.3 L 188.0 1103.8 L 194.1 1110.2 L 200.3 1116.6 L 206.4 1123.0 L 212.5 1129.2 L 218.7 1135.4 L 224.8 1141.5 L 230.9 1147.5 L 237.0 1153.4 L 243.2 1159.1 L 249.3 1164.7 L 255.4 1170.2 L 261.5 1175.5 L 267.7 1180.6 L 273.8 1185.6 L 279.9 1190.4 L 286.0 1195.0 L 292.2 1199.5 L 298.3 1203.7 L 304.4 1207.7 L 310.5 1211.5 L 316.7 1215.1 L 322.8 1218.5 L 328.9 1221.7 L 335.1 1224.7 L 341.2 1227.5 L 347.3 1230.0 L 353.4 1232.3 L 359.6 1234.5 L 365.7 1236.4 L 371.8 1238.0 L 377.9 1239.5 L 384.1 1240.8 L 390.2 1241.8 L 396.3 1242.7 L 402.4 1243.3 L 408.6 1243.7 L 414.7 1243.9 L 420.8 1244.0 L 427.0 1243.8 L 433.1 1243.4 L 439.2 1242.8 L 445.3 1242.0 L 451.5 1241.1 L 457.6 1239.9 L 463.7 1238.6 L 469.8 1237.1 L 476.0 1235.4 L 482.1 1233.5 L 488.2 1231.5 L 494.3 1229.3 L 500.5 1226.9 L 506.6 1224.4 L 512.7 1221.7 L 518.8 1218.8 L 525.0 1215.9 L 531.1 1212.7 L 537.2 1209.4 L 543.4 1206.0 L 549.5 1202.5 L 555.6 1198.8 L 561.7 1195.0 L 567.9 1191.0 L 574.0 1186.9 L 580.1 1182.7 L 586.2 1178.4 L 592.4 1174.0 L 598.5 1169.4 L 604.6 1164.8 L 610.7 1160.0 L 616.9 1155.1 L 623.0 1150.1 L 629.1 1145.0 L 635.2 1139.8 L 641.4 1134.5 L 647.5 1129.1 L 653.6 1123.6 L 659.8 1118.0 L 665.9 1112.3 L 672.0 1106.5 L 678.1 1100.7 L 684.3 1094.8 L 690.4 1088.7 L 696.5 1082.6 L 702.6 1076.5 L 708.8 1070.2 L 714.9 1063.9 L 721.0 1057.5 L 727.1 1051.0 L 733.3 1044.5 L 739.4 1037.9 L 745.5 1031.2 L 751.6 1024.5 L 757.8 1017.7 L 763.9 1010.8 L 770.0 1003.9 L 776.2 996.9 L 782.3 989.8 L 788.4 982.7 L 794.5 975.5 L 800.7 968.3 L 806.8 961.0 L 812.9 953.7 L 819.0 946.3 L 825.2 938.9 L 831.3 931.4 L 837.4 923.8 L 843.5 916.3 L 849.7 908.6 L 855.8 900.9 L 861.9 893.2 L 868.0 885.4 L 874.2 877.6 L 880.3 869.8 L 886.4 861.9 L 892.6 853.9 L 898.7 845.9 L 904.8 837.9 L 910.9 829.9 L 917.1 821.8 L 923.2 813.6 L 929.3 805.5 L 935.4 797.2 L 941.6 789.0 L 947.7 780.7 L 953.8 772.4 L 959.9 764.1 L 966.1 755.7 L 972.2 747.3 L 978.3 738.8 L 984.5 730.3 L 990.6 721.8 L 996.7 713.2 L 1002.8 704.7 L 1009.0 696.0 L 1015.1 687.4 L 1021.2 678.7 L 1027.3 670.0 L 1033.5 661.3 L 1039.6 652.5 L 1045.7 643.7 L 1051.8 634.9 L 1058.0 626.1 L 1064.1 617.2 L 1070.2 608.3 L 1076.3 599.4 L 1082.5 590.5 L 1088.6 581.5 L 1094.7 572.5 L 1100.9 563.5 L 1107.0 554.4 L 1113.1 545.4 L 1119.2 536.3 L 1125.4 527.2 L 1131.5 518.0 L 1137.6 508.9 L 1143.7 499.7 L 1149.9 490.5 L 1156.0 481.2 L 1162.1 472.0 L 1168.2 462.7 L 1174.4 453.4 L 1180.5 444.1 L 1186.6 434.7 L 1192.7 425.3 L 1198.9 415.9 L 1205.0 406.5 L 1211.1 397.1 L 1217.3 387.6 L 1223.4 378.2 L 1229.5 368.7 L 1235.6 359.2 L 1241.8 349.6 L 1247.9 340.1 L 1254.0 330.5 L 1260.1 320.9 L 1266.3 311.3 L 1272.4 301.7 L 1278.5 292.0 L 1284.6 282.3 L 1290.8 272.7 L 1296.9 262.9 L 1303.0 253.2 L 1309.1 243.5 L 1315.3 233.7 L 1321.4 223.9 L 1327.5 214.1 L 1333.7 204.3 L 1339.8 194.4 L 1345.9 184.6 L 1352.0 174.7 L 1358.2 164.8 L 1364.3 154.9 L 1370.4 144.9 L 1376.5 135.0 L 1382.7 125.0 L 1388.8 115.0 L 1394.9 105.0 L 1401.0 95.0 L 1407.2 84.9 L 1413.3 74.9 L 1419.4 64.8" fill="none" stroke="#DC143C" stroke-linecap="round" stroke-linejoin="round" stroke-width="2.5" /><path d="M 1425.5 1514.7 L 1431.7 1504.6 L 1437.8 1494.4 L 1443.9 1484.3 L 1450.1 1474.1 L 1456.2 1464.0 L 1462.3 1453.8 L 1468.4 1443.5 L 1474.6 1433.3 L 1480.7 1423.0 L 1486.8 1412.8 L 1492.9 1402.5 L 1499.1 1392.2 L 1505.2 1381.9 L 1511.3 1371.5 L 1517.4 1361.1 L 1523.6 1350.8 L 1529.7 1340.4 L 1535.8 1330.0 L 1542.0 1319.5 L 1548.1 1309.1 L 1554.2 1298.6 L 1560.3 1288.1 L 1566.5 1277.6 L 1572.6 1267.1 L 1578.7 1256.6 L 1584.8 1246.0 L 1591.0 1235.5 L 1597.1 1224.9 L 1603.2 1214.3 L 1609.3 1203.7 L 1615.5 1193.0 L 1621.6 1182.4 L 1627.7 1171.7 L 1633.8 1161.0 L 1640.0 1150.3 L 1646.1 1139.6 L 1652.2 1128.9 L 1658.4 1118.1 L 1664.5 1107.4 L 1670.6 1096.6 L 1676.7 1085.8 L 1682.9 1074.9 L 1689.0 1064.1 L 1695.1 1053.2 L 1701.2 1042.4 L 1707.4 1031.5 L 1713.5 1020.6 L 1719.6 1009.6 L 1725.7 998.7 L 1731.9 987.7 L 1738.0 976.8 L 1744.1 965.8 L 1750.2 954.7 L 1756.4 943.7 L 1762.5 932.7 L 1768.6 921.6 L 1774.8 910.5 L 1780.9 899.4 L 1787.0 888.3 L 1793.1 877.2 L 1799.3 866.1 L 1805.4 854.9 L 1811.5 843.7 L 1817.6 832.5 L 1823.8 821.3 L 1829.9 810.1 L 1836.0 798.8 L 1842.1 787.6 L 1848.3 776.3 L 1854.4 765.0 L 1860.5 753.7 L 1866.6 742.4 L 1872.8 731.0 L 1878.9 719.6 L 1885.0 708.3 L 1891.2 696.9 L 1897.3 685.4 L 1903.4 674.0 L 1909.5 662.6 L 1915.7 651.1 L 1921.8 639.6 L 1927.9 628.1 L 1934.0 616.6 L 1940.2 605.1 L 1946.3 593.5 L 1952.4 581.9 L 1958.5 570.4 L 1964.7 558.8 L 1970.8 547.2 L 1976.9 535.5 L 1983.0 523.9 L 1989.2 512.2 L 1995.3 500.6 L 2001.4 488.9 L 2007.6 477.2 L 2013.7 465.4 L 2019.8 453.7 L 2025.9 441.9 L 2032.1 430.2 L 2038.2 418.4 L 2044.3 406.6 L 2050.4 394.8 L 2056.6 382.9 L 2062.7 371.1 L 2068.8 359.2 L 2074.9 347.3 L 2081.1 335.4 L 2087.2 323.5 L 2093.3 311.6 L 2099.5 299.6 L 2105.6 287.7 L 2111.7 275.7 L 2117.8 263.7 L 2124.0 251.7 L 2130.1 239.7 L 2136.2 227.6 L 2142.3 215.6 L 2148.5 203.5 L 2154.6 191.5 L 2160.7 179.4 L 2166.8 167.3 L 2173.0 155.2 L 2179.1 143.0 L 2185.2 130.9 L 2191.3 118.7 L 2197.5 106.6 L 2203.6 94.4 L 2209.7 82.2 L 2215.9 70.0" fill="none" stroke="#DC143C" stroke-linecap="round" stroke-linejoin="round" stroke-width="2.5" /><path d="M 2222.0 1517.7 L 2228.1 1505.5 L 2234.2 1493.2 L 2240.4 1481.0 L 2246.5 1468.7 L 2252.6 1456.4 L 2258.7 1444.1 L 2264.9 1431.8 L 2271.0 1419.4 L 2277.1 1407.1 L 2283.2 1394.7 L 2289.4 1382.4 L 2295.5 1370.0 L 2301.6 1357.6 L 2307.7 1345.2 L 2313.9 1332.8 L 2320.0 1320.4" fill="none" stroke="#DC143C" stroke-linecap="round" stroke-linejoin="round" stroke-width="2.5" /><path d="M 90.0 333.1 L 96.1 334.8 L 102.3 336.5 L 108.4 338.1 L 114.5 339.7 L 120.6 341.2 L 126.8 342.7 L 132.9 344.1 L 139.0 345.5 L 145.1 346.8 L 151.3 348.1 L 157.4 349.4 L 163.5 350.6 L 169.6 351.7 L 175.8 352.8 L 181.9 353.9 L 188.0 354.9 L 194.1 355.8 L 200.3 356.7 L 206.4 357.6 L 212.5 358.4 L 218.7 359.1 L 224.8 359.8 L 230.9 360.4 L 237.0 361.0 L 243.2 361.5 L 249.3 362.0 L 255.4 362.4 L 261.5 362.7 L 267.7 363.0 L 273.8 363.3 L 279.9 363.5 L 286.0 363.6 L 292.2 363.7 L 298.3 363.7 L 304.4 363.7 L 310.5 363.6 L 316.7 363.4 L 322.8 363.2 L 328.9 363.0 L 335.1 362.7 L 341.2 362.3 L 347.3 361.9 L 353.4 361.4 L 359.6 360.9 L 365.7 360.3 L 371.8 359.7 L 377.9 359.0 L 384.1 358.3 L 390.2 357.5 L 396.3 356.7 L 402.4 355.8 L 408.6 354.9 L 414.7 353.9 L 420.8 352.8 L 427.0 351.7 L 433.1 350.6 L 439.2 349.4 L 445.3 348.2 L 451.5 346.9 L 457.6 345.6 L 463.7 344.2 L 469.8 342.8 L 476.0 341.3 L 482.1 339.8 L 488.2 338.2 L 494.3 336.6 L 500.5 335.0 L 506.6 333.3 L 512.7 331.6 L 518.8 329.8 L 525.0 328.0 L 531.1 326.1 L 537.2 324.2 L 543.4 322.3 L 549.5 320.3 L 555.6 318.3 L 561.7 316.2 L 567.9 314.1 L 574.0 312.0 L 580.1 309.8 L 586.2 307.6 L 592.4 305.4 L 598.5 303.1 L 604.6 300.8 L 610.7 298.4 L 616.9 296.1 L 623.0 293.7 L 629.1 291.2 L 635.2 288.7 L 641.4 286.2 L 647.5 283.7 L 653.6 281.1 L 659.8 278.5 L 665.9 275.8 L 672.0 273.2 L 678.1 270.5 L 684.3 267.8 L 690.4 265.0 L 696.5 262.2 L 702.6 259.4 L 708.8 256.6 L 714.9 253.7 L 721.0 250.9 L 727.1 248.0 L 733.3 245.0 L 739.4 242.1 L 745.5 239.1 L 751.6 236.1 L 757.8 233.1 L 763.9 230.0 L 770.0 226.9 L 776.2 223.9 L 782.3 220.7 L 788.4 217.6 L 794.5 214.4 L 800.7 211.3 L 806.8 208.1 L 812.9 204.9 L 819.0 201.6 L 825.2 198.4 L 831.3 195.1 L 837.4 191.8 L 843.5 188.5 L 849.7 185.2 L 855.8 181.9 L 861.9 178.5 L 868.0 175.1 L 874.2 171.8 L 880.3 168.4 L 886.4 165.0 L 892.6 161.5 L 898.7 158.1 L 904.8 154.6 L 910.9 151.2 L 917.1 147.7 L 923.2 144.2 L 929.3 140.7 L 935.4 137.2 L 941.6 133.7 L 947.7 130.1 L 953.8 126.6 L 959.9 123.0 L 966.1 119.5 L 972.2 115.9 L 978.3 112.3 L 984.5 108.7 L 990.6 105.1 L 996.7 101.5 L 1002.8 97.9 L 1009.0 94.3 L 1015.1 90.6 L 1021.2 87.0 L 1027.3 83.4 L 1033.5 79.7 L 1039.6 76.1 L 1045.7 72.4 L 1051.8 68.7 L 1058.0 65.1 L 1064.1 61.4" fill="none" stroke="#4169E1" stroke-linecap="round" stroke-linejoin="round" stroke-width="2.5" /><path d="M 1070.2 1517.7 L 1076.3 1514.0 L 1082.5 1510.3 L 1088.6 1506.6 L 1094.7 1503.0 L 1100.9 1499.3 L 1107.0 1495.6 L 1113.1 1491.9 L 1119.2 1488.2 L 1125.4 1484.5 L 1131.5 1480.8 L 1137.6 1477.1 L 1143.7 1473.3 L 1149.9 1469.6 L 1156.0 1465.9 L 1162.1 1462.2 L 1168.2 1458.5 L 1174.4 1454.8 L 1180.5 1451.1 L 1186.6 1447.4 L 1192.7 1443.7 L 1198.9 1440.0 L 1205.0 1436.3 L 1211.1 1432.6 L 1217.3 1429.0 L 1223.4 1425.3 L 1229.5 1421.6 L 1235.6 1417.9 L 1241.8 1414.2 L 1247.9 1410.6 L 1254.0 1406.9 L 1260.1 1403.3 L 1266.3 1399.6 L 1272.4 1396.0 L 1278.5 1392.3 L 1284.6 1388.7 L 1290.8 1385.1 L 1296.9 1381.5 L 1303.0 1377.8 L 1309.1 1374.2 L 1315.3 1370.7 L 1321.4 1367.1 L 1327.5 1363.5 L 1333.7 1359.9 L 1339.8 1356.4 L 1345.9 1352.8 L 1352.0 1349.3 L 1358.2 1345.7 L 1364.3 1342.2 L 1370.4 1338.7 L 1376.5 1335.2 L 1382.7 1331.7 L 1388.8 1328.3 L 1394.9 1324.8 L 1401.0 1321.4 L 1407.2 1317.9 L 1413.3 1314.5 L 1419.4 1311.1 L 1425.5 1307.7 L 1431.7 1304.3 L 1437.8 1301.0 L 1443.9 1297.6 L 1450.1 1294.3 L 1456.2 1291.0 L 1462.3 1287.7 L 1468.4 1284.4 L 1474.6 1281.1 L 1480.7 1277.9 L 1486.8 1274.7 L 1492.9 1271.4 L 1499.1 1268.2 L 1505.2 1265.1 L 1511.3 1261.9 L 1517.4 1258.8 L 1523.6 1255.7 L 1529.7 1252.6 L 1535.8 1249.5 L 1542.0 1246.4 L 1548.1 1243.4 L 1554.2 1240.4 L 1560.3 1237.4 L 1566.5 1234.5 L 1572.6 1231.5 L 1578.7 1228.6 L 1584.8 1225.7 L 1591.0 1222.9 L 1597.1 1220.0 L 1603.2 1217.2 L 1609.3 1214.4 L 1615.5 1211.7 L 1621.6 1208.9 L 1627.7 1206.2 L 1633.8 1203.6 L 1640.0 1200.9 L 1646.1 1198.3 L 1652.2 1195.7 L 1658.4 1193.1 L 1664.5 1190.6 L 1670.6 1188.1 L 1676.7 1185.6 L 1682.9 1183.2 L 1689.0 1180.8 L 1695.1 1178.4 L 1701.2 1176.1 L 1707.4 1173.8 L 1713.5 1171.5 L 1719.6 1169.3 L 1725.7 1167.1 L 1731.9 1164.9 L 1738.0 1162.8 L 1744.1 1160.7 L 1750.2 1158.6 L 1756.4 1156.6 L 1762.5 1154.6 L 1768.6 1152.7 L 1774.8 1150.8 L 1780.9 1148.9 L 1787.0 1147.1 L 1793.1 1145.3 L 1799.3 1143.6 L 1805.4 1141.9 L 1811.5 1140.2 L 1817.6 1138.6 L 1823.8 1137.0 L 1829.9 1135.5 L 1836.0 1134.0 L 1842.1 1132.6 L 1848.3 1131.2 L 1854.4 1129.8 L 1860.5 1128.5 L 1866.6 1127.2 L 1872.8 1126.0 L 1878.9 1124.9 L 1885.0 1123.8 L 1891.2 1122.7 L 1897.3 1121.7 L 1903.4 1120.7 L 1909.5 1119.8 L 1915.7 1118.9 L 1921.8 1118.1 L 1927.9 1117.3 L 1934.0 1116.6 L 1940.2 1115.9 L 1946.3 1115.3 L 1952.4 1114.7 L 1958.5 1114.2 L 1964.7 1113.8 L 1970.8 1113.4 L 1976.9 1113.0 L 1983.0 1112.7 L 1989.2 1112.4 L 1995.3 1112.2 L 2001.4 1112.1 L 2007.6 1112.0 L 2013.7 1112.0 L 2019.8 1112.0 L 2025.9 1112.1 L 2032.1 1112.2 L 2038.2 1112.4 L 2044.3 1112.6 L 2050.4 1112.9 L 2056.6 1113.2 L 2062.7 1113.6 L 2068.8 1114.1 L 2074.9 1114.6 L 2081.1 1115.1 L 2087.2 1115.7 L 2093.3 1116.4 L 2099.5 1117.1 L 2105.6 1117.9 L 2111.7 1118.7 L 2117.8 1119.6 L 2124.0 1120.5 L 2130.1 1121.5 L 2136.2 1122.5 L 2142.3 1123.6 L 2148.5 1124.7 L 2154.6 1125.9 L 2160.7 1127.1 L 2166.8 1128.4 L 2173.0 1129.7 L 2179.1 1131.0 L 2185.2 1132.4 L 2191.3 1133.9 L 2197.5 1135.4 L 2203.6 1136.9 L 2209.7 1138.5 L 2215.9 1140.1 L 2222.0 1141.7 L 2228.1 1143.4 L 2234.2 1145.1 L 2240.4 1146.9 L 2246.5 1148.7 L 2252.6 1150.5 L 2258.7 1152.4 L 2264.9 1154.3 L 2271.0 1156.2 L 2277.1 1158.2 L 2283.2 1160.1 L 2289.4 1162.1 L 2295.5 1164.2 L 2301.6 1166.2 L 2307.7 1168.3 L 2313.9 1170.4 L 2320.0 1172.5" fill="none" stroke="#4169E1" stroke-linecap="round" stroke-linejoin="round" stroke-width="2.5" /><path d="M 90.0 310.4 L 96.1 309.2 L 102.3 307.9 L 108.4 306.6 L 114.5 305.3 L 120.6 304.0 L 126.8 302.6 L 132.9 301.3 L 139.0 299.9 L 145.1 298.5 L 151.3 297.0 L 157.4 295.6 L 163.5 294.1 L 169.6 292.6 L 175.8 291.1 L 181.9 289.6 L 188.0 288.1 L 194.1 286.5 L 200.3 284.9 L 206.4 283.4 L 212.5 281.8 L 218.7 280.1 L 224.8 278.5 L 230.9 276.9 L 237.0 275.2 L 243.2 273.5 L 249.3 271.8 L 255.4 270.1 L 261.5 268.4 L 267.7 266.6 L 273.8 264.9 L 279.9 263.1 L 286.0 261.4 L 292.2 259.6 L 298.3 257.8 L 304.4 256.0 L 310.5 254.2 L 316.7 252.3 L 322.8 250.5 L 328.9 248.6 L 335.1 246.8 L 341.2 244.9 L 347.3 243.0 L 353.4 241.2 L 359.6 239.3 L 365.7 237.4 L 371.8 235.5 L 377.9 233.5 L 384.1 231.6 L 390.2 229.7 L 396.3 227.7 L 402.4 225.8 L 408.6 223.8 L 414.7 221.9 L 420.8 219.9 L 427.0 218.0 L 433.1 216.0 L 439.2 214.0 L 445.3 212.0 L 451.5 210.1 L 457.6 208.1 L 463.7 206.1 L 469.8 204.1 L 476.0 202.1 L 482.1 200.1 L 488.2 198.1 L 494.3 196.1 L 500.5 194.1 L 506.6 192.1 L 512.7 190.1 L 518.8 188.1 L 525.0 186.1 L 531.1 184.1 L 537.2 182.1 L 543.4 180.1 L 549.5 178.1 L 555.6 176.1 L 561.7 174.1 L 567.9 172.1 L 574.0 170.1 L 580.1 168.1 L 586.2 166.1 L 592.4 164.1 L 598.5 162.2 L 604.6 160.2 L 610.7 158.2 L 616.9 156.2 L 623.0 154.3 L 629.1 152.3 L 635.2 150.4 L 641.4 148.4 L 647.5 146.5 L 653.6 144.5 L 659.8 142.6 L 665.9 140.7 L 672.0 138.8 L 678.1 136.9 L 684.3 135.0 L 690.4 133.1 L 696.5 131.2 L 702.6 129.3 L 708.8 127.5 L 714.9 125.6 L 721.0 123.8 L 727.1 121.9 L 733.3 120.1 L 739.4 118.3 L 745.5 116.5 L 751.6 114.7 L 757.8 112.9 L 763.9 111.1 L 770.0 109.4 L 776.2 107.6 L 782.3 105.9 L 788.4 104.2 L 794.5 102.4 L 800.7 100.7 L 806.8 99.1 L 812.9 97.4 L 819.0 95.7 L 825.2 94.1 L 831.3 92.5 L 837.4 90.8 L 843.5 89.2 L 849.7 87.7 L 855.8 86.1 L 861.9 84.5 L 868.0 83.0 L 874.2 81.5 L 880.3 80.0 L 886.4 78.5 L 892.6 77.0 L 898.7 75.6 L 904.8 74.1 L 910.9 72.7 L 917.1 71.3 L 923.2 69.9 L 929.3 68.6 L 935.4 67.2 L 941.6 65.9 L 947.7 64.6 L 953.8 63.3 L 959.9 62.0 L 966.1 60.8" fill="none" stroke="#2F4F4F" stroke-linecap="round" stroke-linejoin="round" stroke-width="2.5" /><path d="M 972.2 1519.6 L 978.3 1518.4 L 984.5 1517.2 L 990.6 1516.0 L 996.7 1514.9 L 1002.8 1513.8 L 1009.0 1512.7 L 1015.1 1511.6 L 1021.2 1510.5 L 1027.3 1509.5 L 1033.5 1508.5 L 1039.6 1507.5 L 1045.7 1506.5 L 1051.8 1505.6 L 1058.0 1504.7 L 1064.1 1503.8 L 1070.2 1502.9 L 1076.3 1502.1 L 1082.5 1501.3 L 1088.6 1500.5 L 1094.7 1499.7 L 1100.9 1498.9 L 1107.0 1498.2 L 1113.1 1497.5 L 1119.2 1496.8 L 1125.4 1496.2 L 1131.5 1495.6 L 1137.6 1495.0 L 1143.7 1494.4 L 1149.9 1493.9 L 1156.0 1493.4 L 1162.1 1492.9 L 1168.2 1492.4 L 1174.4 1492.0 L 1180.5 1491.5 L 1186.6 1491.2 L 1192.7 1490.8 L 1198.9 1490.5 L 1205.0 1490.2 L 1211.1 1489.9 L 1217.3 1489.6 L 1223.4 1489.4 L 1229.5 1489.2 L 1235.6 1489.1 L 1241.8 1488.9 L 1247.9 1488.8 L 1254.0 1488.7 L 1260.1 1488.7 L 1266.3 1488.6 L 1272.4 1488.6 L 1278.5 1488.6 L 1284.6 1488.7 L 1290.8 1488.8 L 1296.9 1488.9 L 1303.0 1489.0 L 1309.1 1489.2 L 1315.3 1489.4 L 1321.4 1489.6 L 1327.5 1489.8 L 1333.7 1490.1 L 1339.8 1490.4 L 1345.9 1490.7 L 1352.0 1491.0 L 1358.2 1491.4 L 1364.3 1491.8 L 1370.4 1492.2 L 1376.5 1492.7 L 1382.7 1493.2 L 1388.8 1493.7 L 1394.9 1494.2 L 1401.0 1494.8 L 1407.2 1495.3 L 1413.3 1495.9 L 1419.4 1496.6 L 1425.5 1497.2 L 1431.7 1497.9 L 1437.8 1498.6 L 1443.9 1499.3 L 1450.1 1500.0 L 1456.2 1500.8 L 1462.3 1501.6 L 1468.4 1502.4 L 1474.6 1503.2 L 1480.7 1504.1 L 1486.8 1504.9 L 1492.9 1505.8 L 1499.1 1506.7 L 1505.2 1507.7 L 1511.3 1508.6 L 1517.4 1509.6 L 1523.6 1510.6 L 1529.7 1511.6 L 1535.8 1512.6 L 1542.0 1513.6 L 1548.1 1514.7 L 1554.2 1515.8 L 1560.3 1516.9 L 1566.5 1517.9 L 1572.6 1519.1" fill="none" stroke="#2F4F4F" stroke-linecap="round" stroke-linejoin="round" stroke-width="2.5" /><path d="M 1578.7 60.2 L 1584.8 61.3 L 1591.0 62.5 L 1597.1 63.6 L 1603.2 64.8 L 1609.3 66.0 L 1615.5 67.2 L 1621.6 68.4 L 1627.7 69.6 L 1633.8 70.8 L 1640.0 72.0 L 1646.1 73.2 L 1652.2 74.5 L 1658.4 75.7 L 1664.5 77.0 L 1670.6 78.2 L 1676.7 79.5 L 1682.9 80.7 L 1689.0 82.0 L 1695.1 83.2 L 1701.2 84.5 L 1707.4 85.8 L 1713.5 87.0 L 1719.6 88.3 L 1725.7 89.5 L 1731.9 90.8 L 1738.0 92.0 L 1744.1 93.3 L 1750.2 94.5 L 1756.4 95.8 L 1762.5 97.0 L 1768.6 98.2 L 1774.8 99.4 L 1780.9 100.6 L 1787.0 101.8 L 1793.1 103.0 L 1799.3 104.2 L 1805.4 105.3 L 1811.5 106.5 L 1817.6 107.6 L 1823.8 108.8 L 1829.9 109.9 L 1836.0 111.0 L 1842.1 112.1 L 1848.3 113.1 L 1854.4 114.2 L 1860.5 115.2 L 1866.6 116.3 L 1872.8 117.3 L 1878.9 118.3 L 1885.0 119.2 L 1891.2 120.2 L 1897.3 121.1 L 1903.4 122.0 L 1909.5 122.9 L 1915.7 123.8 L 1921.8 124.6 L 1927.9 125.5 L 1934.0 126.3 L 1940.2 127.1 L 1946.3 127.8 L 1952.4 128.6 L 1958.5 129.3 L 1964.7 130.0 L 1970.8 130.6 L 1976.9 131.3 L 1983.0 131.9 L 1989.2 132.5 L 1995.3 133.0 L 2001.4 133.6 L 2007.6 134.1 L 2013.7 134.6 L 2019.8 135.0 L 2025.9 135.5 L 2032.1 135.9 L 2038.2 136.2 L 2044.3 136.6 L 2050.4 136.9 L 2056.6 137.2 L 2062.7 137.5 L 2068.8 137.7 L 2074.9 137.9 L 2081.1 138.1 L 2087.2 138.2 L 2093.3 138.4 L 2099.5 138.5 L 2105.6 138.5 L 2111.7 138.5 L 2117.8 138.6 L 2124.0 138.5 L 2130.1 138.5 L 2136.2 138.4 L 2142.3 138.3 L 2148.5 138.1 L 2154.6 138.0 L 2160.7 137.8 L 2166.8 137.5 L 2173.0 137.3 L 2179.1 137.0 L 2185.2 136.7 L 2191.3 136.3 L 2197.5 136.0 L 2203.6 135.6 L 2209.7 135.1 L 2215.9 134.7 L 2222.0 134.2 L 2228.1 133.7 L 2234.2 133.1 L 2240.4 132.6 L 2246.5 132.0 L 2252.6 131.3 L 2258.7 130.7 L 2264.9 130.0 L 2271.0 129.3 L 2277.1 128.5 L 2283.2 127.8 L 2289.4 127.0 L 2295.5 126.2 L 2301.6 125.3 L 2307.7 124.5 L 2313.9 123.6 L 2320.0 122.6" fill="none" stroke="#2F4F4F" stroke-linecap="round" stroke-linejoin="round" stroke-width="2.5" /><path d="M 90.0 650.1 L 96.1 650.5 L 102.3 650.9 L 108.4 651.2 L 114.5 651.6 L 120.6 651.9 L 126.8 652.2 L 132.9 652.5 L 139.0 652.8 L 145.1 653.1 L 151.3 653.4 L 157.4 653.7 L 163.5 653.9 L 169.6 654.1 L 175.8 654.3 L 181.9 654.6 L 188.0 654.7 L 194.1 654.9 L 200.3 655.1 L 206.4 655.2 L 212.5 655.4 L 218.7 655.5 L 224.8 655.6 L 230.9 655.7 L 237.0 655.8 L 243.2 655.9 L 249.3 655.9 L 255.4 655.9 L 261.5 656.0 L 267.7 656.0 L 273.8 656.0 L 279.9 656.0 L 286.0 655.9 L 292.2 655.9 L 298.3 655.8 L 304.4 655.7 L 310.5 655.6 L 316.7 655.5 L 322.8 655.4 L 328.9 655.3 L 335.1 655.1 L 341.2 655.0 L 347.3 654.8 L 353.4 654.6 L 359.6 654.4 L 365.7 654.2 L 371.8 654.0 L 377.9 653.7 L 384.1 653.5 L 390.2 653.2 L 396.3 652.9 L 402.4 652.6 L 408.6 652.3 L 414.7 651.9 L 420.8 651.6 L 427.0 651.2 L 433.1 650.9 L 439.2 650.5 L 445.3 650.1 L 451.5 649.7 L 457.6 649.3 L 463.7 648.8 L 469.8 648.4 L 476.0 647.9 L 482.1 647.5 L 488.2 647.0 L 494.3 646.5 L 500.5 646.0 L 506.6 645.5 L 512.7 644.9 L 518.8 644.4 L 525.0 643.8 L 531.1 643.3 L 537.2 642.7 L 543.4 642.1 L 549.5 641.5 L 555.6 640.9 L 561.7 640.3 L 567.9 639.7 L 574.0 639.0 L 580.1 638.4 L 586.2 637.7 L 592.4 637.0 L 598.5 636.4 L 604.6 635.7 L 610.7 635.0 L 616.9 634.3 L 623.0 633.6 L 629.1 632.8 L 635.2 632.1 L 641.4 631.4 L 647.5 630.6 L 653.6 629.8 L 659.8 629.1 L 665.9 628.3 L 672.0 627.5 L 678.1 626.7 L 684.3 625.9 L 690.4 625.1 L 696.5 624.3 L 702.6 623.5 L 708.8 622.7 L 714.9 621.8 L 721.0 621.0 L 727.1 620.2 L 733.3 619.3 L 739.4 618.4 L 745.5 617.6 L 751.6 616.7 L 757.8 615.8 L 763.9 615.0 L 770.0 614.1 L 776.2 613.2 L 782.3 612.3 L 788.4 611.4 L 794.5 610.5 L 800.7 609.6 L 806.8 608.7 L 812.9 607.8 L 819.0 606.9 L 825.2 605.9 L 831.3 605.0 L 837.4 604.1 L 843.5 603.2 L 849.7 602.2 L 855.8 601.3 L 861.9 600.4 L 868.0 599.4 L 874.2 598.5 L 880.3 597.6 L 886.4 596.6 L 892.6 595.7 L 898.7 594.7 L 904.8 593.8 L 910.9 592.9 L 917.1 591.9 L 923.2 591.0 L 929.3 590.0 L 935.4 589.1 L 941.6 588.1 L 947.7 587.2 L 953.8 586.2 L 959.9 585.3 L 966.1 584.4 L 972.2 583.4 L 978.3 582.5 L 984.5 581.5 L 990.6 580.6 L 996.7 579.7 L 1002.8 578.7 L 1009.0 577.8 L 1015.1 576.9 L 1021.2 576.0 L 1027.3 575.0 L 1033.5 574.1 L 1039.6 573.2 L 1045.7 572.3 L 1051.8 571.4 L 1058.0 570.5 L 1064.1 569.6 L 1070.2 568.7 L 1076.3 567.8 L 1082.5 566.9 L 1088.6 566.0 L 1094.7 565.1 L 1100.9 564.2 L 1107.0 563.4 L 1113.1 562.5 L 1119.2 561.6 L 1125.4 560.8 L 1131.5 559.9 L 1137.6 559.1 L 1143.7 558.3 L 1149.9 557.4 L 1156.0 556.6 L 1162.1 555.8 L 1168.2 555.0 L 1174.4 554.2 L 1180.5 553.4 L 1186.6 552.6 L 1192.7 551.8 L 1198.9 551.0 L 1205.0 550.3 L 1211.1 549.5 L 1217.3 548.7 L 1223.4 548.0 L 1229.5 547.3 L 1235.6 546.5 L 1241.8 545.8 L 1247.9 545.1 L 1254.0 544.4 L 1260.1 543.7 L 1266.3 543.0 L 1272.4 542.4 L 1278.5 541.7 L 1284.6 541.0 L 1290.8 540.4 L 1296.9 539.8 L 1303.0 539.1 L 1309.1 538.5 L 1315.3 537.9 L 1321.4 537.3 L 1327.5 536.7 L 1333.7 536.2 L 1339.8 535.6 L 1345.9 535.0 L 1352.0 534.5 L 1358.2 534.0 L 1364.3 533.4 L 1370.4 532.9 L 1376.5 532.4 L 1382.7 532.0 L 1388.8 531.5 L 1394.9 531.0 L 1401.0 530.6 L 1407.2 530.1 L 1413.3 529.7 L 1419.4 529.3 L 1425.5 528.9 L 1431.7 528.5 L 1437.8 528.1 L 1443.9 527.8 L 1450.1 527.4 L 1456.2 527.1 L 1462.3 526.8 L 1468.4 526.4 L 1474.6 526.1 L 1480.7 525.9 L 1486.8 525.6 L 1492.9 525.3 L 1499.1 525.1 L 1505.2 524.8 L 1511.3 524.6 L 1517.4 524.4 L 1523.6 524.2 L 1529.7 524.0 L 1535.8 523.9 L 1542.0 523.7 L 1548.1 523.6 L 1554.2 523.4 L 1560.3 523.3 L 1566.5 523.2 L 1572.6 523.1 L 1578.7 523.1 L 1584.8 523.0 L 1591.0 523.0 L 1597.1 522.9 L 1603.2 522.9 L 1609.3 522.9 L 1615.5 522.9 L 1621.6 523.0 L 1627.7 523.0 L 1633.8 523.0 L 1640.0 523.1 L 1646.1 523.2 L 1652.2 523.3 L 1658.4 523.4 L 1664.5 523.5 L 1670.6 523.6 L 1676.7 523.8 L 1682.9 523.9 L 1689.0 524.1 L 1695.1 524.3 L 1701.2 524.5 L 1707.4 524.7 L 1713.5 524.9 L 1719.6 525.2 L 1725.7 525.4 L 1731.9 525.7 L 1738.0 526.0 L 1744.1 526.3 L 1750.2 526.6 L 1756.4 526.9 L 1762.5 527.2 L 1768.6 527.5 L 1774.8 527.9 L 1780.9 528.3 L 1787.0 528.6 L 1793.1 529.0 L 1799.3 529.4 L 1805.4 529.8 L 1811.5 530.2 L 1817.6 530.7 L 1823.8 531.1 L 1829.9 531.6 L 1836.0 532.0 L 1842.1 532.5 L 1848.3 533.0 L 1854.4 533.5 L 1860.5 534.0 L 1866.6 534.5 L 1872.8 535.0 L 1878.9 535.5 L 1885.0 536.1 L 1891.2 536.6 L 1897.3 537.2 L 1903.4 537.7 L 1909.5 538.3 L 1915.7 538.9 L 1921.8 539.4 L 1927.9 540.0 L 1934.0 540.6 L 1940.2 541.2 L 1946.3 541.9 L 1952.4 542.5 L 1958.5 543.1 L 1964.7 543.7 L 1970.8 544.4 L 1976.9 545.0 L 1983.0 545.6 L 1989.2 546.3 L 1995.3 546.9 L 2001.4 547.6 L 2007.6 548.2 L 2013.7 548.9 L 2019.8 549.6 L 2025.9 550.2 L 2032.1 550.9 L 2038.2 551.6 L 2044.3 552.3 L 2050.4 552.9 L 2056.6 553.6 L 2062.7 554.3 L 2068.8 555.0 L 2074.9 555.6 L 2081.1 556.3 L 2087.2 557.0 L 2093.3 557.7 L 2099.5 558.4 L 2105.6 559.0 L 2111.7 559.7 L 2117.8 560.4 L 2124.0 561.1 L 2130.1 561.7 L 2136.2 562.4 L 2142.3 563.1 L 2148.5 563.7 L 2154.6 564.4 L 2160.7 565.0 L 2166.8 565.7 L 2173.0 566.3 L 2179.1 566.9 L 2185.2 567.6 L 2191.3 568.2 L 2197.5 568.8 L 2203.6 569.4 L 2209.7 570.1 L 2215.9 570.7 L 2222.0 571.3 L 2228.1 571.9 L 2234.2 572.4 L 2240.4 573.0 L 2246.5 573.6 L 2252.6 574.1 L 2258.7 574.7 L 2264.9 575.2 L 2271.0 575.8 L 2277.1 576.3 L 2283.2 576.8 L 2289.4 577.3 L 2295.5 577.8 L 2301.6 578.3 L 2307.7 578.8 L 2313.9 579.3 L 2320.0 579.7" fill="none" stroke="#00CED1" stroke-linecap="round" stroke-linejoin="round" stroke-width="2.5" /><path d="M 90.0 103.7 L 96.1 103.5 L 102.3 103.2 L 108.4 103.0 L 114.5 102.7 L 120.6 102.5 L 126.8 102.2 L 132.9 101.9 L 139.0 101.6 L 145.1 101.3 L 151.3 101.0 L 157.4 100.7 L 163.5 100.4 L 169.6 100.0 L 175.8 99.7 L 181.9 99.3 L 188.0 99.0 L 194.1 98.6 L 200.3 98.2 L 206.4 97.9 L 212.5 97.5 L 218.7 97.1 L 224.8 96.7 L 230.9 96.3 L 237.0 95.8 L 243.2 95.4 L 249.3 95.0 L 255.4 94.5 L 261.5 94.1 L 267.7 93.7 L 273.8 93.2 L 279.9 92.7 L 286.0 92.3 L 292.2 91.8 L 298.3 91.3 L 304.4 90.8 L 310.5 90.3 L 316.7 89.8 L 322.8 89.3 L 328.9 88.8 L 335.1 88.3 L 341.2 87.8 L 347.3 87.2 L 353.4 86.7 L 359.6 86.2 L 365.7 85.6 L 371.8 85.1 L 377.9 84.5 L 384.1 84.0 L 390.2 83.4 L 396.3 82.9 L 402.4 82.3 L 408.6 81.7 L 414.7 81.2 L 420.8 80.6 L 427.0 80.0 L 433.1 79.4 L 439.2 78.8 L 445.3 78.3 L 451.5 77.7 L 457.6 77.1 L 463.7 76.5 L 469.8 75.9 L 476.0 75.3 L 482.1 74.7 L 488.2 74.1 L 494.3 73.5 L 500.5 72.9 L 506.6 72.3 L 512.7 71.6 L 518.8 71.0 L 525.0 70.4 L 531.1 69.8 L 537.2 69.2 L 543.4 68.6 L 549.5 68.0 L 555.6 67.4 L 561.7 66.7 L 567.9 66.1 L 574.0 65.5 L 580.1 64.9 L 586.2 64.3 L 592.4 63.7 L 598.5 63.1 L 604.6 62.4 L 610.7 61.8 L 616.9 61.2 L 623.0 60.6" fill="none" stroke="#7B68EE" stroke-linecap="round" stroke-linejoin="round" stroke-width="2.5" /><path d="M 629.1 1520.0 L 635.2 1519.4 L 641.4 1518.8 L 647.5 1518.2 L 653.6 1517.6 L 659.8 1517.0 L 665.9 1516.4 L 672.0 1515.8 L 678.1 1515.2 L 684.3 1514.6 L 690.4 1514.0 L 696.5 1513.4 L 702.6 1512.8 L 708.8 1512.3 L 714.9 1511.7 L 721.0 1511.1 L 727.1 1510.5 L 733.3 1510.0 L 739.4 1509.4 L 745.5 1508.9 L 751.6 1508.3 L 757.8 1507.7 L 763.9 1507.2 L 770.0 1506.7 L 776.2 1506.1 L 782.3 1505.6 L 788.4 1505.1 L 794.5 1504.5 L 800.7 1504.0 L 806.8 1503.5 L 812.9 1503.0 L 819.0 1502.5 L 825.2 1502.0 L 831.3 1501.5 L 837.4 1501.0 L 843.5 1500.5 L 849.7 1500.0 L 855.8 1499.6 L 861.9 1499.1 L 868.0 1498.6 L 874.2 1498.2 L 880.3 1497.7 L 886.4 1497.3 L 892.6 1496.8 L 898.7 1496.4 L 904.8 1496.0 L 910.9 1495.6 L 917.1 1495.2 L 923.2 1494.8 L 929.3 1494.4 L 935.4 1494.0 L 941.6 1493.6 L 947.7 1493.2 L 953.8 1492.9 L 959.9 1492.5 L 966.1 1492.1 L 972.2 1491.8 L 978.3 1491.5 L 984.5 1491.1 L 990.6 1490.8 L 996.7 1490.5 L 1002.8 1490.2 L 1009.0 1489.9 L 1015.1 1489.6 L 1021.2 1489.3 L 1027.3 1489.0 L 1033.5 1488.8 L 1039.6 1488.5 L 1045.7 1488.3 L 1051.8 1488.0 L 1058.0 1487.8 L 1064.1 1487.6 L 1070.2 1487.3 L 1076.3 1487.1 L 1082.5 1486.9 L 1088.6 1486.7 L 1094.7 1486.5 L 1100.9 1486.4 L 1107.0 1486.2 L 1113.1 1486.0 L 1119.2 1485.9 L 1125.4 1485.8 L 1131.5 1485.6 L 1137.6 1485.5 L 1143.7 1485.4 L 1149.9 1485.3 L 1156.0 1485.2 L 1162.1 1485.1 L 1168.2 1485.0 L 1174.4 1484.9 L 1180.5 1484.9 L 1186.6 1484.8 L 1192.7 1484.8 L 1198.9 1484.8 L 1205.0 1484.7 L 1211.1 1484.7 L 1217.3 1484.7 L 1223.4 1484.7 L 1229.5 1484.7 L 1235.6 1484.7 L 1241.8 1484.8 L 1247.9 1484.8 L 1254.0 1484.8 L 1260.1 1484.9 L 1266.3 1485.0 L 1272.4 1485.0 L 1278.5 1485.1 L 1284.6 1485.2 L 1290.8 1485.3 L 1296.9 1485.4 L 1303.0 1485.5 L 1309.1 1485.6 L 1315.3 1485.8 L 1321.4 1485.9 L 1327.5 1486.0 L 1333.7 1486.2 L 1339.8 1486.4 L 1345.9 1486.5 L 1352.0 1486.7 L 1358.2 1486.9 L 1364.3 1487.1 L 1370.4 1487.3 L 1376.5 1487.5 L 1382.7 1487.7 L 1388.8 1487.9 L 1394.9 1488.2 L 1401.0 1488.4 L 1407.2 1488.7 L 1413.3 1488.9 L 1419.4 1489.2 L 1425.5 1489.5 L 1431.7 1489.7 L 1437.8 1490.0 L 1443.9 1490.3 L 1450.1 1490.6 L 1456.2 1490.9 L 1462.3 1491.2 L 1468.4 1491.5 L 1474.6 1491.8 L 1480.7 1492.2 L 1486.8 1492.5 L 1492.9 1492.8 L 1499.1 1493.2 L 1505.2 1493.5 L 1511.3 1493.9 L 1517.4 1494.2 L 1523.6 1494.6 L 1529.7 1495.0 L 1535.8 1495.4 L 1542.0 1495.7 L 1548.1 1496.1 L 1554.2 1496.5 L 1560.3 1496.9 L 1566.5 1497.3 L 1572.6 1497.7 L 1578.7 1498.1 L 1584.8 1498.5 L 1591.0 1498.9 L 1597.1 1499.4 L 1603.2 1499.8 L 1609.3 1500.2 L 1615.5 1500.6 L 1621.6 1501.1 L 1627.7 1501.5 L 1633.8 1501.9 L 1640.0 1502.4 L 1646.1 1502.8 L 1652.2 1503.2 L 1658.4 1503.7 L 1664.5 1504.1 L 1670.6 1504.6 L 1676.7 1505.0 L 1682.9 1505.4 L 1689.0 1505.9 L 1695.1 1506.3 L 1701.2 1506.8 L 1707.4 1507.2 L 1713.5 1507.7 L 1719.6 1508.1 L 1725.7 1508.6 L 1731.9 1509.0 L 1738.0 1509.5 L 1744.1 1509.9 L 1750.2 1510.4 L 1756.4 1510.8 L 1762.5 1511.3 L 1768.6 1511.7 L 1774.8 1512.2 L 1780.9 1512.6 L 1787.0 1513.0 L 1793.1 1513.5 L 1799.3 1513.9 L 1805.4 1514.3 L 1811.5 1514.8 L 1817.6 1515.2 L 1823.8 1515.6 L 1829.9 1516.0 L 1836.0 1516.5 L 1842.1 1516.9 L 1848.3 1517.3 L 1854.4 1517.7 L 1860.5 1518.1 L 1866.6 1518.5 L 1872.8 1518.9 L 1878.9 1519.3 L 1885.0 1519.7" fill="none" stroke="#7B68EE" stroke-linecap="round" stroke-linejoin="round" stroke-width="2.5" /><path d="M 1891.2 60.0 L 1897.3 60.4 L 1903.4 60.8 L 1909.5 61.1 L 1915.7 61.5 L 1921.8 61.9 L 1927.9 62.2 L 1934.0 62.5 L 1940.2 62.9 L 1946.3 63.2 L 1952.4 63.5 L 1958.5 63.9 L 1964.7 64.2 L 1970.8 64.5 L 1976.9 64.8 L 1983.0 65.1 L 1989.2 65.3 L 1995.3 65.6 L 2001.4 65.9 L 2007.6 66.2 L 2013.7 66.4 L 2019.8 66.7 L 2025.9 66.9 L 2032.1 67.1 L 2038.2 67.4 L 2044.3 67.6 L 2050.4 67.8 L 2056.6 68.0 L 2062.7 68.2 L 2068.8 68.4 L 2074.9 68.5 L 2081.1 68.7 L 2087.2 68.9 L 2093.3 69.0 L 2099.5 69.1 L 2105.6 69.3 L 2111.7 69.4 L 2117.8 69.5 L 2124.0 69.6 L 2130.1 69.7 L 2136.2 69.8 L 2142.3 69.9 L 2148.5 70.0 L 2154.6 70.0 L 2160.7 70.1 L 2166.8 70.1 L 2173.0 70.1 L 2179.1 70.2 L 2185.2 70.2 L 2191.3 70.2 L 2197.5 70.2 L 2203.6 70.2 L 2209.7 70.1 L 2215.9 70.1 L 2222.0 70.1 L 2228.1 70.0 L 2234.2 69.9 L 2240.4 69.9 L 2246.5 69.8 L 2252.6 69.7 L 2258.7 69.6 L 2264.9 69.5 L 2271.0 69.4 L 2277.1 69.3 L 2283.2 69.1 L 2289.4 69.0 L 2295.5 68.8 L 2301.6 68.6 L 2307.7 68.5 L 2313.9 68.3 L 2320.0 68.1" fill="none" stroke="#7B68EE" stroke-linecap="round" stroke-linejoin="round" stroke-width="2.5" /><path d="M 90.0 1015.8 L 96.1 1015.3 L 102.3 1014.8 L 108.4 1014.3 L 114.5 1013.8 L 120.6 1013.3 L 126.8 1012.8 L 132.9 1012.3 L 139.0 1011.8 L 145.1 1011.2 L 151.3 1010.7 L 157.4 1010.2 L 163.5 1009.7 L 169.6 1009.2 L 175.8 1008.6 L 181.9 1008.1 L 188.0 1007.6 L 194.1 1007.1 L 200.3 1006.6 L 206.4 1006.0 L 212.5 1005.5 L 218.7 1005.0 L 224.8 1004.5 L 230.9 1003.9 L 237.0 1003.4 L 243.2 1002.9 L 249.3 1002.4 L 255.4 1001.8 L 261.5 1001.3 L 267.7 1000.8 L 273.8 1000.3 L 279.9 999.8 L 286.0 999.3 L 292.2 998.7 L 298.3 998.2 L 304.4 997.7 L 310.5 997.2 L 316.7 996.7 L 322.8 996.2 L 328.9 995.7 L 335.1 995.2 L 341.2 994.7 L 347.3 994.2 L 353.4 993.7 L 359.6 993.2 L 365.7 992.7 L 371.8 992.2 L 377.9 991.8 L 384.1 991.3 L 390.2 990.8 L 396.3 990.3 L 402.4 989.9 L 408.6 989.4 L 414.7 989.0 L 420.8 988.5 L 427.0 988.0 L 433.1 987.6 L 439.2 987.2 L 445.3 986.7 L 451.5 986.3 L 457.6 985.9 L 463.7 985.4 L 469.8 985.0 L 476.0 984.6 L 482.1 984.2 L 488.2 983.8 L 494.3 983.4 L 500.5 983.0 L 506.6 982.6 L 512.7 982.2 L 518.8 981.8 L 525.0 981.5 L 531.1 981.1 L 537.2 980.7 L 543.4 980.4 L 549.5 980.0 L 555.6 979.7 L 561.7 979.4 L 567.9 979.0 L 574.0 978.7 L 580.1 978.4 L 586.2 978.1 L 592.4 977.8 L 598.5 977.5 L 604.6 977.2 L 610.7 976.9 L 616.9 976.6 L 623.0 976.3 L 629.1 976.1 L 635.2 975.8 L 641.4 975.6 L 647.5 975.3 L 653.6 975.1 L 659.8 974.8 L 665.9 974.6 L 672.0 974.4 L 678.1 974.2 L 684.3 974.0 L 690.4 973.8 L 696.5 973.6 L 702.6 973.4 L 708.8 973.3 L 714.9 973.1 L 721.0 972.9 L 727.1 972.8 L 733.3 972.7 L 739.4 972.5 L 745.5 972.4 L 751.6 972.3 L 757.8 972.2 L 763.9 972.0 L 770.0 972.0 L 776.2 971.9 L 782.3 971.8 L 788.4 971.7 L 794.5 971.6 L 800.7 971.6 L 806.8 971.5 L 812.9 971.5 L 819.0 971.5 L 825.2 971.4 L 831.3 971.4 L 837.4 971.4 L 843.5 971.4 L 849.7 971.4 L 855.8 971.4 L 861.9 971.4 L 868.0 971.4 L 874.2 971.5 L 880.3 971.5 L 886.4 971.6 L 892.6 971.6 L 898.7 971.7 L 904.8 971.8 L 910.9 971.8 L 917.1 971.9 L 923.2 972.0 L 929.3 972.1 L 935.4 972.2 L 941.6 972.3 L 947.7 972.4 L 953.8 972.6 L 959.9 972.7 L 966.1 972.8 L 972.2 973.0 L 978.3 973.1 L 984.5 973.3 L 990.6 973.5 L 996.7 973.7 L 1002.8 973.8 L 1009.0 974.0 L 1015.1 974.2 L 1021.2 974.4 L 1027.3 974.6 L 1033.5 974.8 L 1039.6 975.1 L 1045.7 975.3 L 1051.8 975.5 L 1058.0 975.7 L 1064.1 976.0 L 1070.2 976.2 L 1076.3 976.5 L 1082.5 976.7 L 1088.6 977.0 L 1094.7 977.3 L 1100.9 977.6 L 1107.0 977.8 L 1113.1 978.1 L 1119.2 978.4 L 1125.4 978.7 L 1131.5 979.0 L 1137.6 979.3 L 1143.7 979.6 L 1149.9 979.9 L 1156.0 980.2 L 1162.1 980.6 L 1168.2 980.9 L 1174.4 981.2 L 1180.5 981.5 L 1186.6 981.9 L 1192.7 982.2 L 1198.9 982.5 L 1205.0 982.9 L 1211.1 983.2 L 1217.3 983.6 L 1223.4 983.9 L 1229.5 984.3 L 1235.6 984.7 L 1241.8 985.0 L 1247.9 985.4 L 1254.0 985.8 L 1260.1 986.1 L 1266.3 986.5 L 1272.4 986.9 L 1278.5 987.2 L 1284.6 987.6 L 1290.8 988.0 L 1296.9 988.4 L 1303.0 988.7 L 1309.1 989.1 L 1315.3 989.5 L 1321.4 989.9 L 1327.5 990.3 L 1333.7 990.6 L 1339.8 991.0 L 1345.9 991.4 L 1352.0 991.8 L 1358.2 992.2 L 1364.3 992.6 L 1370.4 992.9 L 1376.5 993.3 L 1382.7 993.7 L 1388.8 994.1 L 1394.9 994.5 L 1401.0 994.8 L 1407.2 995.2 L 1413.3 995.6 L 1419.4 996.0 L 1425.5 996.3 L 1431.7 996.7 L 1437.8 997.1 L 1443.9 997.4 L 1450.1 997.8 L 1456.2 998.1 L 1462.3 998.5 L 1468.4 998.9 L 1474.6 999.2 L 1480.7 999.6 L 1486.8 999.9 L 1492.9 1000.3 L 1499.1 1000.6 L 1505.2 1000.9 L 1511.3 1001.3 L 1517.4 1001.6 L 1523.6 1001.9 L 1529.7 1002.2 L 1535.8 1002.6 L 1542.0 1002.9 L 1548.1 1003.2 L 1554.2 1003.5 L 1560.3 1003.8 L 1566.5 1004.1 L 1572.6 1004.4 L 1578.7 1004.7 L 1584.8 1004.9 L 1591.0 1005.2 L 1597.1 1005.5 L 1603.2 1005.8 L 1609.3 1006.0 L 1615.5 1006.3 L 1621.6 1006.5 L 1627.7 1006.8 L 1633.8 1007.0 L 1640.0 1007.2 L 1646.1 1007.5 L 1652.2 1007.7 L 1658.4 1007.9 L 1664.5 1008.1 L 1670.6 1008.3 L 1676.7 1008.5 L 1682.9 1008.7 L 1689.0 1008.9 L 1695.1 1009.1 L 1701.2 1009.2 L 1707.4 1009.4 L 1713.5 1009.6 L 1719.6 1009.7 L 1725.7 1009.8 L 1731.9 1010.0 L 1738.0 1010.1 L 1744.1 1010.2 L 1750.2 1010.3 L 1756.4 1010.4 L 1762.5 1010.5 L 1768.6 1010.6 L 1774.8 1010.7 L 1780.9 1010.8 L 1787.0 1010.9 L 1793.1 1010.9 L 1799.3 1011.0 L 1805.4 1011.0 L 1811.5 1011.1 L 1817.6 1011.1 L 1823.8 1011.1 L 1829.9 1011.1 L 1836.0 1011.2 L 1842.1 1011.2 L 1848.3 1011.1 L 1854.4 1011.1 L 1860.5 1011.1 L 1866.6 1011.1 L 1872.8 1011.0 L 1878.9 1011.0 L 1885.0 1010.9 L 1891.2 1010.9 L 1897.3 1010.8 L 1903.4 1010.7 L 1909.5 1010.7 L 1915.7 1010.6 L 1921.8 1010.5 L 1927.9 1010.4 L 1934.0 1010.2 L 1940.2 1010.1 L 1946.3 1010.0 L 1952.4 1009.8 L 1958.5 1009.7 L 1964.7 1009.5 L 1970.8 1009.4 L 1976.9 1009.2 L 1983.0 1009.0 L 1989.2 1008.9 L 1995.3 1008.7 L 2001.4 1008.5 L 2007.6 1008.3 L 2013.7 1008.0 L 2019.8 1007.8 L 2025.9 1007.6 L 2032.1 1007.4 L 2038.2 1007.1 L 2044.3 1006.9 L 2050.4 1006.6 L 2056.6 1006.3 L 2062.7 1006.1 L 2068.8 1005.8 L 2074.9 1005.5 L 2081.1 1005.2 L 2087.2 1004.9 L 2093.3 1004.6 L 2099.5 1004.3 L 2105.6 1004.0 L 2111.7 1003.7 L 2117.8 1003.3 L 2124.0 1003.0 L 2130.1 1002.6 L 2136.2 1002.3 L 2142.3 1001.9 L 2148.5 1001.6 L 2154.6 1001.2 L 2160.7 1000.8 L 2166.8 1000.5 L 2173.0 1000.1 L 2179.1 999.7 L 2185.2 999.3 L 2191.3 998.9 L 2197.5 998.5 L 2203.6 998.1 L 2209.7 997.7 L 2215.9 997.2 L 2222.0 996.8 L 2228.1 996.4 L 2234.2 996.0 L 2240.4 995.5 L 2246.5 995.1 L 2252.6 994.6 L 2258.7 994.2 L 2264.9 993.7 L 2271.0 993.3 L 2277.1 992.8 L 2283.2 992.3 L 2289.4 991.9 L 2295.5 991.4 L 2301.6 990.9 L 2307.7 990.4 L 2313.9 990.0 L 2320.0 989.5" fill="none" stroke="#8B0000" stroke-linecap="round" stroke-linejoin="round" stroke-width="2.5" /><circle cx="537.2252747252747" cy="1364.500877114435" fill="#FFA500" r="3" stroke="#FFA500" stroke-width="1.5" /><circle cx="678.1318681318681" cy="111.48260970383046" fill="none" r="3" stroke="#FFA500" stroke-width="1.5" /><circle cx="1303.021978021978" cy="780.729144976188" fill="#FFA500" r="3" stroke="#FFA500" stroke-width="1.5" /><circle cx="1450.0549450549452" cy="964.365321714213" fill="none" r="3" stroke="#FFA500" stroke-width="1.5" /><circle cx="2007.5549450549452" cy="435.95749759823775" fill="#FFA500" r="3" stroke="#FFA500" stroke-width="1.5" /><circle cx="2130.0824175824173" cy="696.5876575931903" fill="none" r="3" stroke="#FFA500" stroke-width="1.5" /><circle cx="457.5824175824176" cy="1344.295135630776" fill="#FF69B4" r="3" stroke="#FF69B4" stroke-width="1.5" /><circle cx="714.8901098901099" cy="147.12892445623976" fill="none" r="3" stroke="#FF69B4" stroke-width="1.5" /><circle cx="420.8241758241758" cy="1243.9580528054503" fill="none" r="3" stroke="#DC143C" stroke-width="1.5" /><circle cx="298.2967032967033" cy="363.70632701185417" fill="none" r="3" stroke="#4169E1" stroke-width="1.5" /><circle cx="2019.8076923076924" cy="1111.9873250668143" fill="#4169E1" r="3" stroke="#4169E1" stroke-width="1.5" /><circle cx="1272.39010989011" cy="1488.620947763181" fill="#2F4F4F" r="3" stroke="#2F4F4F" stroke-width="1.5" /><circle cx="2117.82967032967" cy="138.55347110565543" fill="none" r="3" stroke="#2F4F4F" stroke-width="1.5" /><circle cx="273.79120879120876" cy="655.9754468384003" fill="none" r="3" stroke="#00CED1" stroke-width="1.5" /><circle cx="1609.3406593406594" cy="522.922578564695" fill="#00CED1" r="3" stroke="#00CED1" stroke-width="1.5" /><circle cx="1223.3791208791208" cy="1484.7094624701056" fill="#7B68EE" r="3" stroke="#7B68EE" stroke-width="1.5" /><circle cx="2197.4725274725274" cy="70.17244773629568" fill="none" r="3" stroke="#7B68EE" stroke-width="1.5" /><circle cx="849.6703296703297" cy="971.3886267412838" fill="#8B0000" r="3" stroke="#8B0000" stroke-width="1.5" /><circle cx="1842.142857142857" cy="1011.1565412864871" fill="none" r="3" stroke="#8B0000" stroke-width="1.5" /><text fill="#555555" font-family="&quot;Symbola&quot;, &quot;Noto Sans Symbols&quot;, &quot;Apple Symbols&quot;, &quot;Segoe UI Symbol&quot;, serif" font-size="14px" font-weight="bold" text-anchor="middle" x="335.05494505494505" y="681.4556610219765">☌</text><text fill="#555555" font-family="&quot;Symbola&quot;, &quot;Noto Sans Symbols&quot;, &quot;Apple Symbols&quot;, &quot;Segoe UI Symbol&quot;, serif" font-size="14px" font-weight="bold" text-anchor="middle" x="598.4890109890109" y="1442.5201185812637">☌</text><text fill="#555555" font-family="&quot;Symbola&quot;, &quot;Noto Sans Symbols&quot;, &quot;Apple Symbols&quot;, &quot;Segoe UI Symbol&quot;, serif" font-size="14px" font-weight="bold" text-anchor="middle" x="1002.8296703296703" y="400.27004721719425">☌</text><text fill="#555555" font-family="&quot;Symbola&quot;, &quot;Noto Sans Symbols&quot;, &quot;Apple Symbols&quot;, &quot;Segoe UI Symbol&quot;, serif" font-size="14px" font-weight="bold" text-anchor="middle" x="1388.7912087912089" y="884.2091151041897">☌</text><text fill="#555555" font-family="&quot;Symbola&quot;, &quot;Noto Sans Symbols&quot;, &quot;Apple Symbols&quot;, &quot;Segoe UI Symbol&quot;, serif" font-size="14px" font-weight="bold" text-anchor="middle" x="1652.2252747252746" y="211.6960768486569">☌</text><text fill="#555555" font-family="&quot;Symbola&quot;, &quot;Noto Sans Symbols&quot;, &quot;Apple Symbols&quot;, &quot;Segoe UI Symbol&quot;, serif" font-size="14px" font-weight="bold" text-anchor="middle" x="2068.8186813186812" y="577.3344229797657">☌</text><text fill="#555555" font-family="&quot;Symbola&quot;, &quot;Noto Sans Symbols&quot;, &quot;Apple Symbols&quot;, &quot;Segoe UI Symbol&quot;, serif" font-size="14px" font-weight="bold" text-anchor="middle" x="586.2362637362637" y="1474.6891999788381">☌</text><text fill="#555555" font-family="&quot;Symbola&quot;, &quot;Noto Sans Symbols&quot;, &quot;Apple Symbols&quot;, &quot;Segoe UI Symbol&quot;, serif" font-size="14px" font-weight="bold" text-anchor="middle" x="181.89560439560438" y="1093.3738143332525">☍</text><text fill="#555555" font-family="&quot;Symbola&quot;, &quot;Noto Sans Symbols&quot;, &quot;Apple Symbols&quot;, &quot;Segoe UI Symbol&quot;, serif" font-size="14px" font-weight="bold" text-anchor="middle" x="763.9010989010989" y="1011.8956192999736">□</text><text fill="#555555" font-family="&quot;Symbola&quot;, &quot;Noto Sans Symbols&quot;, &quot;Apple Symbols&quot;, &quot;Segoe UI Symbol&quot;, serif" font-size="14px" font-weight="bold" text-anchor="middle" x="463.7087912087912" y="338.2270879812554">□</text><text fill="#555555" font-family="&quot;Symbola&quot;, &quot;Noto Sans Symbols&quot;, &quot;Apple Symbols&quot;, &quot;Segoe UI Symbol&quot;, serif" font-size="14px" font-weight="bold" text-anchor="middle" x="1162.1153846153848" y="1457.0663473381821">☌</text><text fill="#555555" font-family="&quot;Symbola&quot;, &quot;Noto Sans Symbols&quot;, &quot;Apple Symbols&quot;, &quot;Segoe UI Symbol&quot;, serif" font-size="14px" font-weight="bold" text-anchor="middle" x="1860.521978021978" y="1129.6243271251594">□</text><text fill="#555555" font-family="&quot;Symbola&quot;, &quot;Noto Sans Symbols&quot;, &quot;Apple Symbols&quot;, &quot;Segoe UI Symbol&quot;, serif" font-size="14px" font-weight="bold" text-anchor="middle" x="518.8461538461538" y="192.18903887537527">☌</text><text fill="#555555" font-family="&quot;Symbola&quot;, &quot;Noto Sans Symbols&quot;, &quot;Apple Symbols&quot;, &quot;Segoe UI Symbol&quot;, serif" font-size="14px" font-weight="bold" text-anchor="middle" x="1149.8626373626373" y="1488.0327003501475">□</text><text fill="#555555" font-family="&quot;Symbola&quot;, &quot;Noto Sans Symbols&quot;, &quot;Apple Symbols&quot;, &quot;Segoe UI Symbol&quot;, serif" font-size="14px" font-weight="bold" text-anchor="middle" x="1701.2362637362637" y="85.05375451844665">☍</text><text fill="#555555" font-family="&quot;Symbola&quot;, &quot;Noto Sans Symbols&quot;, &quot;Apple Symbols&quot;, &quot;Segoe UI Symbol&quot;, serif" font-size="14px" font-weight="bold" text-anchor="middle" x="2234.2307692307695" y="133.1815961340953">□</text><text fill="#555555" font-family="&quot;Symbola&quot;, &quot;Noto Sans Symbols&quot;, &quot;Apple Symbols&quot;, &quot;Segoe UI Symbol&quot;, serif" font-size="14px" font-weight="bold" text-anchor="middle" x="347.3076923076923" y="648.6487959944445">□</text><text fill="#555555" font-family="&quot;Symbola&quot;, &quot;Noto Sans Symbols&quot;, &quot;Apple Symbols&quot;, &quot;Segoe UI Symbol&quot;, serif" font-size="14px" font-weight="bold" text-anchor="middle" x="929.3131868131868" y="587.3981694017677">☌</text><text fill="#555555" font-family="&quot;Symbola&quot;, &quot;Noto Sans Symbols&quot;, &quot;Apple Symbols&quot;, &quot;Segoe UI Symbol&quot;, serif" font-size="14px" font-weight="bold" text-anchor="middle" x="1529.6978021978023" y="525.96273081196">□</text><text fill="#555555" font-family="&quot;Symbola&quot;, &quot;Noto Sans Symbols&quot;, &quot;Apple Symbols&quot;, &quot;Segoe UI Symbol&quot;, serif" font-size="14px" font-weight="bold" text-anchor="middle" x="2081.0714285714284" y="544.558206617945">☍</text><text fill="#555555" font-family="&quot;Symbola&quot;, &quot;Noto Sans Symbols&quot;, &quot;Apple Symbols&quot;, &quot;Segoe UI Symbol&quot;, serif" font-size="14px" font-weight="bold" text-anchor="middle" x="1149.8626373626373" y="1488.0327003501475">□</text><text fill="#555555" font-family="&quot;Symbola&quot;, &quot;Noto Sans Symbols&quot;, &quot;Apple Symbols&quot;, &quot;Segoe UI Symbol&quot;, serif" font-size="14px" font-weight="bold" text-anchor="middle" x="1719.6153846153845" y="1497.4139766309722">☍</text><text fill="#555555" font-family="&quot;Symbola&quot;, &quot;Noto Sans Symbols&quot;, &quot;Apple Symbols&quot;, &quot;Segoe UI Symbol&quot;, serif" font-size="14px" font-weight="bold" text-anchor="middle" x="2258.7362637362635" y="67.1011087280431">□</text><text fill="#555555" font-family="&quot;Symbola&quot;, &quot;Noto Sans Symbols&quot;, &quot;Apple Symbols&quot;, &quot;Segoe UI Symbol&quot;, serif" font-size="14px" font-weight="bold" text-anchor="middle" x="218.65384615384616" y="994.3166490906009">☌</text><text fill="#555555" font-family="&quot;Symbola&quot;, &quot;Noto Sans Symbols&quot;, &quot;Apple Symbols&quot;, &quot;Segoe UI Symbol&quot;, serif" font-size="14px" font-weight="bold" text-anchor="middle" x="782.2802197802198" y="964.4386358569378">□</text><text fill="#555555" font-family="&quot;Symbola&quot;, &quot;Noto Sans Symbols&quot;, &quot;Apple Symbols&quot;, &quot;Segoe UI Symbol&quot;, serif" font-size="14px" font-weight="bold" text-anchor="middle" x="1345.9065934065934" y="992.7955634504767">☍</text><text fill="#555555" font-family="&quot;Symbola&quot;, &quot;Noto Sans Symbols&quot;, &quot;Apple Symbols&quot;, &quot;Segoe UI Symbol&quot;, serif" font-size="14px" font-weight="bold" text-anchor="middle" x="1909.532967032967" y="1000.5153119436558">□</text><text fill="#555555" font-family="&quot;Symbola&quot;, &quot;Noto Sans Symbols&quot;, &quot;Apple Symbols&quot;, &quot;Segoe UI Symbol&quot;, serif" font-size="14px" font-weight="bold" text-anchor="middle" x="518.8461538461538" y="1378.4797472601554">☌</text><text fill="#555555" font-family="&quot;Symbola&quot;, &quot;Noto Sans Symbols&quot;, &quot;Apple Symbols&quot;, &quot;Segoe UI Symbol&quot;, serif" font-size="14px" font-weight="bold" text-anchor="middle" x="2099.4505494505493" y="674.9853731332801">☌</text><text fill="#555555" font-family="&quot;Symbola&quot;, &quot;Noto Sans Symbols&quot;, &quot;Apple Symbols&quot;, &quot;Segoe UI Symbol&quot;, serif" font-size="14px" font-weight="bold" text-anchor="middle" x="230.9065934065934" y="1132.485057249506">☍</text><text fill="#555555" font-family="&quot;Symbola&quot;, &quot;Noto Sans Symbols&quot;, &quot;Apple Symbols&quot;, &quot;Segoe UI Symbol&quot;, serif" font-size="14px" font-weight="bold" text-anchor="middle" x="929.3131868131868" y="803.2731281753489">□</text><text fill="#555555" font-family="&quot;Symbola&quot;, &quot;Noto Sans Symbols&quot;, &quot;Apple Symbols&quot;, &quot;Segoe UI Symbol&quot;, serif" font-size="14px" font-weight="bold" text-anchor="middle" x="1878.901098901099" y="722.5622100559306">☌</text><text fill="#555555" font-family="&quot;Symbola&quot;, &quot;Noto Sans Symbols&quot;, &quot;Apple Symbols&quot;, &quot;Segoe UI Symbol&quot;, serif" font-size="14px" font-weight="bold" text-anchor="middle" x="2025.934065934066" y="457.96848720902403">☌</text><text fill="#555555" font-family="&quot;Symbola&quot;, &quot;Noto Sans Symbols&quot;, &quot;Apple Symbols&quot;, &quot;Segoe UI Symbol&quot;, serif" font-size="14px" font-weight="bold" text-anchor="middle" x="402.44505494505495" y="341.6003509279954">□</text><text fill="#555555" font-family="&quot;Symbola&quot;, &quot;Noto Sans Symbols&quot;, &quot;Apple Symbols&quot;, &quot;Segoe UI Symbol&quot;, serif" font-size="14px" font-weight="bold" text-anchor="middle" x="1768.6263736263736" y="1142.9398403893283">□</text><text fill="#555555" font-family="&quot;Symbola&quot;, &quot;Noto Sans Symbols&quot;, &quot;Apple Symbols&quot;, &quot;Segoe UI Symbol&quot;, serif" font-size="14px" font-weight="bold" text-anchor="middle" x="433.0769230769231" y="194.26927240003567">☌</text><text fill="#555555" font-family="&quot;Symbola&quot;, &quot;Noto Sans Symbols&quot;, &quot;Apple Symbols&quot;, &quot;Segoe UI Symbol&quot;, serif" font-size="14px" font-weight="bold" text-anchor="middle" x="2313.8736263736264" y="123.88377794235242">□</text><text fill="#555555" font-family="&quot;Symbola&quot;, &quot;Noto Sans Symbols&quot;, &quot;Apple Symbols&quot;, &quot;Segoe UI Symbol&quot;, serif" font-size="14px" font-weight="bold" text-anchor="middle" x="341.18131868131866" y="640.0544600625565">□</text><text fill="#555555" font-family="&quot;Symbola&quot;, &quot;Noto Sans Symbols&quot;, &quot;Apple Symbols&quot;, &quot;Segoe UI Symbol&quot;, serif" font-size="14px" font-weight="bold" text-anchor="middle" x="972.1978021978022" y="570.5174284917523">☌</text><text fill="#555555" font-family="&quot;Symbola&quot;, &quot;Noto Sans Symbols&quot;, &quot;Apple Symbols&quot;, &quot;Segoe UI Symbol&quot;, serif" font-size="14px" font-weight="bold" text-anchor="middle" x="1590.9615384615386" y="522.3521705714506">□</text><text fill="#555555" font-family="&quot;Symbola&quot;, &quot;Noto Sans Symbols&quot;, &quot;Apple Symbols&quot;, &quot;Segoe UI Symbol&quot;, serif" font-size="14px" font-weight="bold" text-anchor="middle" x="1940.1648351648353" y="534.9163132487671">☍</text><text fill="#555555" font-family="&quot;Symbola&quot;, &quot;Noto Sans Symbols&quot;, &quot;Apple Symbols&quot;, &quot;Segoe UI Symbol&quot;, serif" font-size="14px" font-weight="bold" text-anchor="middle" x="2062.6923076923076" y="559.5148884531241">☍</text><text fill="#555555" font-family="&quot;Symbola&quot;, &quot;Noto Sans Symbols&quot;, &quot;Apple Symbols&quot;, &quot;Segoe UI Symbol&quot;, serif" font-size="14px" font-weight="bold" text-anchor="middle" x="2197.4725274725274" y="560.4655162314242">☍</text><text fill="#555555" font-family="&quot;Symbola&quot;, &quot;Noto Sans Symbols&quot;, &quot;Apple Symbols&quot;, &quot;Segoe UI Symbol&quot;, serif" font-size="14px" font-weight="bold" text-anchor="middle" x="126.75824175824175" y="86.52793440938623">□</text><text fill="#555555" font-family="&quot;Symbola&quot;, &quot;Noto Sans Symbols&quot;, &quot;Apple Symbols&quot;, &quot;Segoe UI Symbol&quot;, serif" font-size="14px" font-weight="bold" text-anchor="middle" x="739.3956043956044" y="1510.663957556259">☌</text><text fill="#555555" font-family="&quot;Symbola&quot;, &quot;Noto Sans Symbols&quot;, &quot;Apple Symbols&quot;, &quot;Segoe UI Symbol&quot;, serif" font-size="14px" font-weight="bold" text-anchor="middle" x="1070.2197802197802" y="1474.8947063144537">□</text><text fill="#555555" font-family="&quot;Symbola&quot;, &quot;Noto Sans Symbols&quot;, &quot;Apple Symbols&quot;, &quot;Segoe UI Symbol&quot;, serif" font-size="14px" font-weight="bold" text-anchor="middle" x="1688.9835164835165" y="1493.8645382493069">☍</text><text fill="#555555" font-family="&quot;Symbola&quot;, &quot;Noto Sans Symbols&quot;, &quot;Apple Symbols&quot;, &quot;Segoe UI Symbol&quot;, serif" font-size="14px" font-weight="bold" text-anchor="middle" x="261.53846153846155" y="1001.8427024206557">☌</text><text fill="#555555" font-family="&quot;Symbola&quot;, &quot;Noto Sans Symbols&quot;, &quot;Apple Symbols&quot;, &quot;Segoe UI Symbol&quot;, serif" font-size="14px" font-weight="bold" text-anchor="middle" x="898.6813186813187" y="954.389252918973">□</text><text fill="#555555" font-family="&quot;Symbola&quot;, &quot;Noto Sans Symbols&quot;, &quot;Apple Symbols&quot;, &quot;Segoe UI Symbol&quot;, serif" font-size="14px" font-weight="bold" text-anchor="middle" x="1186.620879120879" y="983.5515127163155">☍</text><text fill="#555555" font-family="&quot;Symbola&quot;, &quot;Noto Sans Symbols&quot;, &quot;Apple Symbols&quot;, &quot;Segoe UI Symbol&quot;, serif" font-size="14px" font-weight="bold" text-anchor="middle" x="1805.3846153846155" y="994.5145479281083">□</text><text fill="#555555" font-family="&quot;Symbola&quot;, &quot;Noto Sans Symbols&quot;, &quot;Apple Symbols&quot;, &quot;Segoe UI Symbol&quot;, serif" font-size="14px" font-weight="bold" text-anchor="middle" x="1333.6538461538462" y="207.97358633124105">□</text><text fill="#555555" font-family="&quot;Symbola&quot;, &quot;Noto Sans Symbols&quot;, &quot;Apple Symbols&quot;, &quot;Segoe UI Symbol&quot;, serif" font-size="14px" font-weight="bold" text-anchor="middle" x="175.76923076923077" y="346.3235548175499">□</text><text fill="#555555" font-family="&quot;Symbola&quot;, &quot;Noto Sans Symbols&quot;, &quot;Apple Symbols&quot;, &quot;Segoe UI Symbol&quot;, serif" font-size="14px" font-weight="bold" text-anchor="middle" x="1456.1813186813188" y="1291.7168688209763">☌</text><text fill="#555555" font-family="&quot;Symbola&quot;, &quot;Noto Sans Symbols&quot;, &quot;Apple Symbols&quot;, &quot;Segoe UI Symbol&quot;, serif" font-size="14px" font-weight="bold" text-anchor="middle" x="1964.6703296703297" y="1108.2502487244606">□</text><text fill="#555555" font-family="&quot;Symbola&quot;, &quot;Noto Sans Symbols&quot;, &quot;Apple Symbols&quot;, &quot;Segoe UI Symbol&quot;, serif" font-size="14px" font-weight="bold" text-anchor="middle" x="200.27472527472526" y="283.88265338285953">☌</text><text fill="#555555" font-family="&quot;Symbola&quot;, &quot;Noto Sans Symbols&quot;, &quot;Apple Symbols&quot;, &quot;Segoe UI Symbol&quot;, serif" font-size="14px" font-weight="bold" text-anchor="middle" x="678.1318681318681" y="142.10075781181072">☌</text><text fill="#555555" font-family="&quot;Symbola&quot;, &quot;Noto Sans Symbols&quot;, &quot;Apple Symbols&quot;, &quot;Segoe UI Symbol&quot;, serif" font-size="14px" font-weight="bold" text-anchor="middle" x="788.4065934065934" y="106.633293883747">☌</text><text fill="#555555" font-family="&quot;Symbola&quot;, &quot;Noto Sans Symbols&quot;, &quot;Apple Symbols&quot;, &quot;Segoe UI Symbol&quot;, serif" font-size="14px" font-weight="bold" text-anchor="middle" x="1394.9175824175825" y="1481.1290500042346">□</text><text fill="#555555" font-family="&quot;Symbola&quot;, &quot;Noto Sans Symbols&quot;, &quot;Apple Symbols&quot;, &quot;Segoe UI Symbol&quot;, serif" font-size="14px" font-weight="bold" text-anchor="middle" x="1823.7637362637363" y="113.03540515633233">☍</text><text fill="#555555" font-family="&quot;Symbola&quot;, &quot;Noto Sans Symbols&quot;, &quot;Apple Symbols&quot;, &quot;Segoe UI Symbol&quot;, serif" font-size="14px" font-weight="bold" text-anchor="middle" x="2258.7362637362635" y="130.03400380144276">□</text><text fill="#555555" font-family="&quot;Symbola&quot;, &quot;Noto Sans Symbols&quot;, &quot;Apple Symbols&quot;, &quot;Segoe UI Symbol&quot;, serif" font-size="14px" font-weight="bold" text-anchor="middle" x="1223.3791208791208" y="536.3948662367374">☌</text><text fill="#555555" font-family="&quot;Symbola&quot;, &quot;Noto Sans Symbols&quot;, &quot;Apple Symbols&quot;, &quot;Segoe UI Symbol&quot;, serif" font-size="14px" font-weight="bold" text-anchor="middle" x="1701.2362637362637" y="512.5530025217588">□</text><text fill="#555555" font-family="&quot;Symbola&quot;, &quot;Noto Sans Symbols&quot;, &quot;Apple Symbols&quot;, &quot;Segoe UI Symbol&quot;, serif" font-size="14px" font-weight="bold" text-anchor="middle" x="2130.0824175824173" y="558.6577018669195">☍</text><text fill="#555555" font-family="&quot;Symbola&quot;, &quot;Noto Sans Symbols&quot;, &quot;Apple Symbols&quot;, &quot;Segoe UI Symbol&quot;, serif" font-size="14px" font-weight="bold" text-anchor="middle" x="286.0439560439561" y="87.43199926941526">☌</text><text fill="#555555" font-family="&quot;Symbola&quot;, &quot;Noto Sans Symbols&quot;, &quot;Apple Symbols&quot;, &quot;Segoe UI Symbol&quot;, serif" font-size="14px" font-weight="bold" text-anchor="middle" x="616.8681318681319" y="75.63321987159352">☌</text><text fill="#555555" font-family="&quot;Symbola&quot;, &quot;Noto Sans Symbols&quot;, &quot;Apple Symbols&quot;, &quot;Segoe UI Symbol&quot;, serif" font-size="14px" font-weight="bold" text-anchor="middle" x="837.4175824175824" y="1498.6480585203706">☌</text><text fill="#555555" font-family="&quot;Symbola&quot;, &quot;Noto Sans Symbols&quot;, &quot;Apple Symbols&quot;, &quot;Segoe UI Symbol&quot;, serif" font-size="14px" font-weight="bold" text-anchor="middle" x="1394.9175824175825" y="1481.1290500042346">□</text><text fill="#555555" font-family="&quot;Symbola&quot;, &quot;Noto Sans Symbols&quot;, &quot;Apple Symbols&quot;, &quot;Segoe UI Symbol&quot;, serif" font-size="14px" font-weight="bold" text-anchor="middle" x="2277.1153846153843" y="68.77137870130798">□</text><text fill="#555555" font-family="&quot;Symbola&quot;, &quot;Noto Sans Symbols&quot;, &quot;Apple Symbols&quot;, &quot;Segoe UI Symbol&quot;, serif" font-size="14px" font-weight="bold" text-anchor="middle" x="1070.2197802197802" y="968.263249643433">□</text><text fill="#555555" font-family="&quot;Symbola&quot;, &quot;Noto Sans Symbols&quot;, &quot;Apple Symbols&quot;, &quot;Segoe UI Symbol&quot;, serif" font-size="14px" font-weight="bold" text-anchor="middle" x="1548.076923076923" y="1003.1781356507057">☍</text><text fill="#555555" font-family="&quot;Symbola&quot;, &quot;Noto Sans Symbols&quot;, &quot;Apple Symbols&quot;, &quot;Segoe UI Symbol&quot;, serif" font-size="14px" font-weight="bold" text-anchor="middle" x="1995.3021978021977" y="1006.7240996020633">□</text><text fill="#555555" font-family="&quot;Symbola&quot;, &quot;Noto Sans Symbols&quot;, &quot;Apple Symbols&quot;, &quot;Segoe UI Symbol&quot;, serif" font-size="14px" font-weight="bold" text-anchor="middle" x="1603.2142857142858" y="1219.2841896031744">□</text><text fill="#555555" font-family="&quot;Symbola&quot;, &quot;Noto Sans Symbols&quot;, &quot;Apple Symbols&quot;, &quot;Segoe UI Symbol&quot;, serif" font-size="14px" font-weight="bold" text-anchor="middle" x="1437.8021978021977" y="1499.448626110542">☍</text><text fill="#555555" font-family="&quot;Symbola&quot;, &quot;Noto Sans Symbols&quot;, &quot;Apple Symbols&quot;, &quot;Segoe UI Symbol&quot;, serif" font-size="14px" font-weight="bold" text-anchor="middle" x="2185.21978021978" y="135.89454516338384">□</text><text fill="#555555" font-family="&quot;Symbola&quot;, &quot;Noto Sans Symbols&quot;, &quot;Apple Symbols&quot;, &quot;Segoe UI Symbol&quot;, serif" font-size="14px" font-weight="bold" text-anchor="middle" x="1100.8516483516482" y="568.4872410580451">□</text><text fill="#555555" font-family="&quot;Symbola&quot;, &quot;Noto Sans Symbols&quot;, &quot;Apple Symbols&quot;, &quot;Segoe UI Symbol&quot;, serif" font-size="14px" font-weight="bold" text-anchor="middle" x="1976.923076923077" y="540.5346288829721">☍</text><text fill="#555555" font-family="&quot;Symbola&quot;, &quot;Noto Sans Symbols&quot;, &quot;Apple Symbols&quot;, &quot;Segoe UI Symbol&quot;, serif" font-size="14px" font-weight="bold" text-anchor="middle" x="1443.9285714285713" y="1489.3011645584418">☍</text><text fill="#555555" font-family="&quot;Symbola&quot;, &quot;Noto Sans Symbols&quot;, &quot;Apple Symbols&quot;, &quot;Segoe UI Symbol&quot;, serif" font-size="14px" font-weight="bold" text-anchor="middle" x="2215.8516483516487" y="74.96624309979083">□</text><text fill="#555555" font-family="&quot;Symbola&quot;, &quot;Noto Sans Symbols&quot;, &quot;Apple Symbols&quot;, &quot;Segoe UI Symbol&quot;, serif" font-size="14px" font-weight="bold" text-anchor="middle" x="102.25274725274726" y="1021.0025317145698">☍</text><text fill="#555555" font-family="&quot;Symbola&quot;, &quot;Noto Sans Symbols&quot;, &quot;Apple Symbols&quot;, &quot;Segoe UI Symbol&quot;, serif" font-size="14px" font-weight="bold" text-anchor="middle" x="800.6593406593406" y="973.317053083442">☍</text><text fill="#555555" font-family="&quot;Symbola&quot;, &quot;Noto Sans Symbols&quot;, &quot;Apple Symbols&quot;, &quot;Segoe UI Symbol&quot;, serif" font-size="14px" font-weight="bold" text-anchor="middle" x="1719.6153846153845" y="1014.6381799243853">□</text><text fill="#555555" font-family="&quot;Symbola&quot;, &quot;Noto Sans Symbols&quot;, &quot;Apple Symbols&quot;, &quot;Segoe UI Symbol&quot;, serif" font-size="14px" font-weight="bold" text-anchor="middle" x="1106.9780219780218" y="1500.565121093341">□</text><text fill="#555555" font-family="&quot;Symbola&quot;, &quot;Noto Sans Symbols&quot;, &quot;Apple Symbols&quot;, &quot;Segoe UI Symbol&quot;, serif" font-size="14px" font-weight="bold" text-anchor="middle" x="1125.357142857143" y="1489.463483624378">□</text><text fill="#333333" font-family="&quot;Symbola&quot;, &quot;Noto Sans Symbols&quot;, &quot;Apple Symbols&quot;, &quot;Segoe UI Symbol&quot;, &quot;Arial&quot;, sans-serif" font-size="10px" text-anchor="end" x="45" y="107.72220679747167">27°♓</text><text fill="#7B68EE" font-family="&quot;Symbola&quot;, &quot;Noto Sans Symbols&quot;, &quot;Apple Symbols&quot;, &quot;Segoe UI Symbol&quot;, serif" font-size="14px" text-anchor="end" x="82" y="108.72220679747167">♆</text><text fill="#333333" font-family="&quot;Symbola&quot;, &quot;Noto Sans Symbols&quot;, &quot;Apple Symbols&quot;, &quot;Segoe UI Symbol&quot;, &quot;Arial&quot;, sans-serif" font-size="10px" text-anchor="end" x="45" y="217.84534098556887">20°♐</text><text fill="#FFA500" font-family="&quot;Symbola&quot;, &quot;Noto Sans Symbols&quot;, &quot;Apple Symbols&quot;, &quot;Segoe UI Symbol&quot;, serif" font-size="14px" text-anchor="end" x="82" y="218.84534098556887">☿</text><text fill="#333333" font-family="&quot;Symbola&quot;, &quot;Noto Sans Symbols&quot;, &quot;Apple Symbols&quot;, &quot;Segoe UI Symbol&quot;, &quot;Arial&quot;, sans-serif" font-size="10px" text-anchor="end" x="45" y="314.4378702917385">14°♓</text><text fill="#2F4F4F" font-family="&quot;Symbola&quot;, &quot;Noto Sans Symbols&quot;, &quot;Apple Symbols&quot;, &quot;Segoe UI Symbol&quot;, serif" font-size="14px" text-anchor="end" x="82" y="315.4378702917385">♄</text><text fill="#333333" font-family="&quot;Symbola&quot;, &quot;Noto Sans Symbols&quot;, &quot;Apple Symbols&quot;, &quot;Segoe UI Symbol&quot;, &quot;Arial&quot;, sans-serif" font-size="10px" text-anchor="end" x="45" y="337.14131985623425">13°♊</text><text fill="#4169E1" font-family="&quot;Symbola&quot;, &quot;Noto Sans Symbols&quot;, &quot;Apple Symbols&quot;, &quot;Segoe UI Symbol&quot;, serif" font-size="14px" text-anchor="end" x="82" y="338.14131985623425">♃</text><text fill="#333333" font-family="&quot;Symbola&quot;, &quot;Noto Sans Symbols&quot;, &quot;Apple Symbols&quot;, &quot;Segoe UI Symbol&quot;, &quot;Arial&quot;, sans-serif" font-size="10px" text-anchor="end" x="45" y="579.0830285241416">28°♒</text><text fill="#FF69B4" font-family="&quot;Symbola&quot;, &quot;Noto Sans Symbols&quot;, &quot;Apple Symbols&quot;, &quot;Segoe UI Symbol&quot;, serif" font-size="14px" text-anchor="end" x="82" y="580.0830285241416">♀</text><text fill="#333333" font-family="&quot;Symbola&quot;, &quot;Noto Sans Symbols&quot;, &quot;Apple Symbols&quot;, &quot;Segoe UI Symbol&quot;, &quot;Arial&quot;, sans-serif" font-size="10px" text-anchor="end" x="45" y="654.1039825629589">23°♉</text><text fill="#00CED1" font-family="&quot;Symbola&quot;, &quot;Noto Sans Symbols&quot;, &quot;Apple Symbols&quot;, &quot;Segoe UI Symbol&quot;, serif" font-size="14px" text-anchor="end" x="82" y="655.1039825629589">♅</text><text fill="#333333" font-family="&quot;Symbola&quot;, &quot;Noto Sans Symbols&quot;, &quot;Apple Symbols&quot;, &quot;Segoe UI Symbol&quot;, &quot;Arial&quot;, sans-serif" font-size="10px" text-anchor="end" x="45" y="1008.9007740151847">1°♌</text><text fill="#DC143C" font-family="&quot;Symbola&quot;, &quot;Noto Sans Symbols&quot;, &quot;Apple Symbols&quot;, &quot;Segoe UI Symbol&quot;, serif" font-size="14px" text-anchor="end" x="82" y="1009.9007740151847">♂</text><text fill="#333333" font-family="&quot;Symbola&quot;, &quot;Noto Sans Symbols&quot;, &quot;Apple Symbols&quot;, &quot;Segoe UI Symbol&quot;, &quot;Arial&quot;, sans-serif" font-size="10px" text-anchor="end" x="45" y="1022.9007740151847">1°♒</text><text fill="#8B0000" font-family="&quot;Symbola&quot;, &quot;Noto Sans Symbols&quot;, &quot;Apple Symbols&quot;, &quot;Segoe UI Symbol&quot;, serif" font-size="14px" text-anchor="end" x="82" y="1023.9007740151847">♇</text><text fill="#333333" font-family="&quot;Symbola&quot;, &quot;Noto Sans Symbols&quot;, &quot;Apple Symbols&quot;, &quot;Segoe UI Symbol&quot;, &quot;Arial&quot;, sans-serif" font-size="10px" text-anchor="end" x="45" y="1340.3087364587218">11°♑</text><text fill="#FFD700" font-family="&quot;Symbola&quot;, &quot;Noto Sans Symbols&quot;, &quot;Apple Symbols&quot;, &quot;Segoe UI Symbol&quot;, serif" font-size="14px" text-anchor="end" x="82" y="1341.3087364587218">☉</text><text fill="#7B68EE" font-family="&quot;Symbola&quot;, &quot;Noto Sans Symbols&quot;, &quot;Apple Symbols&quot;, &quot;Segoe UI Symbol&quot;, serif" font-size="14px" text-anchor="start" x="2328" y="73.09964261619575">♆</text><text fill="#333333" font-family="&quot;Symbola&quot;, &quot;Noto Sans Symbols&quot;, &quot;Apple Symbols&quot;, &quot;Segoe UI Symbol&quot;, &quot;Arial&quot;, sans-serif" font-size="10px" text-anchor="start" x="2348" y="72.09964261619575">29°♓</text><text fill="#FFA500" font-family="&quot;Symbola&quot;, &quot;Noto Sans Symbols&quot;, &quot;Apple Symbols&quot;, &quot;Segoe UI Symbol&quot;, serif" font-size="14px" text-anchor="start" x="2328" y="99.23457065816692">☿</text><text fill="#333333" font-family="&quot;Symbola&quot;, &quot;Noto Sans Symbols&quot;, &quot;Apple Symbols&quot;, &quot;Segoe UI Symbol&quot;, &quot;Arial&quot;, sans-serif" font-size="10px" text-anchor="start" x="2348" y="98.23457065816692">27°♐</text><text fill="#2F4F4F" font-family="&quot;Symbola&quot;, &quot;Noto Sans Symbols&quot;, &quot;Apple Symbols&quot;, &quot;Segoe UI Symbol&quot;, serif" font-size="14px" text-anchor="start" x="2328" y="127.64578971889262">♄</text><text fill="#333333" font-family="&quot;Symbola&quot;, &quot;Noto Sans Symbols&quot;, &quot;Apple Symbols&quot;, &quot;Segoe UI Symbol&quot;, &quot;Arial&quot;, sans-serif" font-size="10px" text-anchor="start" x="2348" y="126.64578971889262">26°♓</text><text fill="#00CED1" font-family="&quot;Symbola&quot;, &quot;Noto Sans Symbols&quot;, &quot;Apple Symbols&quot;, &quot;Segoe UI Symbol&quot;, serif" font-size="14px" text-anchor="start" x="2328" y="584.7104146995007">♅</text><text fill="#333333" font-family="&quot;Symbola&quot;, &quot;Noto Sans Symbols&quot;, &quot;Apple Symbols&quot;, &quot;Segoe UI Symbol&quot;, &quot;Arial&quot;, sans-serif" font-size="10px" text-anchor="start" x="2348" y="583.7104146995007">27°♉</text><text fill="#8B0000" font-family="&quot;Symbola&quot;, &quot;Noto Sans Symbols&quot;, &quot;Apple Symbols&quot;, &quot;Segoe UI Symbol&quot;, serif" font-size="14px" text-anchor="start" x="2328" y="994.4753653943595">♇</text><text fill="#333333" font-family="&quot;Symbola&quot;, &quot;Noto Sans Symbols&quot;, &quot;Apple Symbols&quot;, &quot;Segoe UI Symbol&quot;, &quot;Arial&quot;, sans-serif" font-size="10px" text-anchor="start" x="2348" y="993.4753653943595">2°♒</text><text fill="#4169E1" font-family="&quot;Symbola&quot;, &quot;Noto Sans Symbols&quot;, &quot;Apple Symbols&quot;, &quot;Segoe UI Symbol&quot;, serif" font-size="14px" text-anchor="start" x="2328" y="1177.475241112161">♃</text><text fill="#333333" font-family="&quot;Symbola&quot;, &quot;Noto Sans Symbols&quot;, &quot;Apple Symbols&quot;, &quot;Segoe UI Symbol&quot;, &quot;Arial&quot;, sans-serif" font-size="10px" text-anchor="start" x="2348" y="1176.475241112161">21°♋</text><text fill="#DC143C" font-family="&quot;Symbola&quot;, &quot;Noto Sans Symbols&quot;, &quot;Apple Symbols&quot;, &quot;Segoe UI Symbol&quot;, serif" font-size="14px" text-anchor="start" x="2328" y="1325.3845657912384">♂</text><text fill="#333333" font-family="&quot;Symbola&quot;, &quot;Noto Sans Symbols&quot;, &quot;Apple Symbols&quot;, &quot;Segoe UI Symbol&quot;, &quot;Arial&quot;, sans-serif" font-size="10px" text-anchor="start" x="2348" y="1324.3845657912384">12°♑</text><text fill="#FFD700" font-family="&quot;Symbola&quot;, &quot;Noto Sans Symbols&quot;, &quot;Apple Symbols&quot;, &quot;Segoe UI Symbol&quot;, serif" font-size="14px" text-anchor="start" x="2328" y="1361.8182050071027">☉</text><text fill="#333333" font-family="&quot;Symbola&quot;, &quot;Noto Sans Symbols&quot;, &quot;Apple Symbols&quot;, &quot;Segoe UI Symbol&quot;, &quot;Arial&quot;, sans-serif" font-size="10px" text-anchor="start" x="2348" y="1360.8182050071027">10°♑</text><text fill="#FF69B4" font-family="&quot;Symbola&quot;, &quot;Noto Sans Symbols&quot;, &quot;Apple Symbols&quot;, &quot;Segoe UI Symbol&quot;, serif" font-size="14px" text-anchor="start" x="2328" y="1385.856839771809">♀</text><text fill="#333333" font-family="&quot;Symbola&quot;, &quot;Noto Sans Symbols&quot;, &quot;Apple Symbols&quot;, &quot;Segoe UI Symbol&quot;, &quot;Arial&quot;, sans-serif" font-size="10px" text-anchor="start" x="2348" y="1384.856839771809">8°♑</text><circle cx="2200" cy="1575" fill="#666666" r="3" stroke="#666666" stroke-width="1.5" /><text fill="#333333" font-family="Arial, sans-serif" font-size="10px" x="2210" y="1579">Rx Station</text><circle cx="2280" cy="1575" fill="none" r="3" stroke="#666666" stroke-width="1.5" /><text fill="#333333" font-family="Arial, sans-serif" font-size="10px" x="2290" y="1579">Direct Station</text><text fill="#333333" font-family="Arial, sans-serif" font-size="18px" font-weight="bold" text-anchor="middle" x="1200.0" y="30">Graphic Ephemeris 2025 (90° Harmonic)</text></svg>